<?xml version="1.0" encoding="UTF-8" standalone="no"?>
<!DOCTYPE svg PUBLIC "-//W3C//DTD SVG 1.1//EN"
 "http://www.w3.org/Graphics/SVG/1.1/DTD/svg11.dtd">
<!-- Generated by graphviz version 2.43.0 (0)
 -->
<!-- Title: App/Source/AppLayer.cpp Pages: 1 -->
<svg width="1558pt" height="247pt"
 viewBox="0.00 0.00 1558.00 247.00" xmlns="http://www.w3.org/2000/svg" xmlns:xlink="http://www.w3.org/1999/xlink">
<g id="graph0" class="graph" transform="scale(1 1) rotate(0) translate(4 243)">
<title>App/Source/AppLayer.cpp</title>
<!-- Node1 -->
<g id="Node000001" class="node">
<title>Node1</title>
<g id="a_Node000001"><a xlink:title=" ">
<polygon fill="#999999" stroke="#666666" points="1062.5,-239 922.5,-239 922.5,-220 1062.5,-220 1062.5,-239"/>
<text text-anchor="middle" x="992.5" y="-227" font-family="Helvetica,sans-Serif" font-size="10.00">App/Source/AppLayer.cpp</text>
</a>
</g>
</g>
<!-- Node2 -->
<g id="Node000002" class="node">
<title>Node2</title>
<g id="a_Node000002"><a xlink:href="AppLayer_8h.html" target="_top" xlink:title=" ">
<polygon fill="white" stroke="#666666" points="173.5,-184 45.5,-184 45.5,-165 173.5,-165 173.5,-184"/>
<text text-anchor="middle" x="109.5" y="-172" font-family="Helvetica,sans-Serif" font-size="10.00">Application/AppLayer.h</text>
</a>
</g>
</g>
<!-- Node1&#45;&gt;Node2 -->
<g id="edge1_Node000001_Node000002" class="edge">
<title>Node1&#45;&gt;Node2</title>
<g id="a_edge1_Node000001_Node000002"><a xlink:title=" ">
<path fill="none" stroke="#63b8ff" d="M922.47,-224.3C758.66,-214.46 351.67,-190.04 183.76,-179.96"/>
<polygon fill="#63b8ff" stroke="#63b8ff" points="183.72,-176.45 173.53,-179.34 183.3,-183.44 183.72,-176.45"/>
</a>
</g>
</g>
<!-- Node6 -->
<g id="Node000006" class="node">
<title>Node6</title>
<g id="a_Node000006"><a xlink:href="Application_8h.html" target="_top" xlink:title=" ">
<polygon fill="white" stroke="#666666" points="440.5,-184 334.5,-184 334.5,-165 440.5,-165 440.5,-184"/>
<text text-anchor="middle" x="387.5" y="-172" font-family="Helvetica,sans-Serif" font-size="10.00">Core/Application.h</text>
</a>
</g>
</g>
<!-- Node1&#45;&gt;Node6 -->
<g id="edge5_Node000001_Node000006" class="edge">
<title>Node1&#45;&gt;Node6</title>
<g id="a_edge5_Node000001_Node000006"><a xlink:title=" ">
<path fill="none" stroke="#63b8ff" d="M922.21,-222.34C803.43,-211.94 564.8,-191.03 450.87,-181.05"/>
<polygon fill="#63b8ff" stroke="#63b8ff" points="451.16,-177.56 440.9,-180.18 450.55,-184.54 451.16,-177.56"/>
</a>
</g>
</g>
<!-- Node8 -->
<g id="Node000008" class="node">
<title>Node8</title>
<g id="a_Node000008"><a xlink:title=" ">
<polygon fill="#e0e0e0" stroke="#999999" points="708.5,-19 630.5,-19 630.5,0 708.5,0 708.5,-19"/>
<text text-anchor="middle" x="669.5" y="-7" font-family="Helvetica,sans-Serif" font-size="10.00">glm/glm.hpp</text>
</a>
</g>
</g>
<!-- Node1&#45;&gt;Node8 -->
<g id="edge34_Node000001_Node000008" class="edge">
<title>Node1&#45;&gt;Node8</title>
<g id="a_edge34_Node000001_Node000008"><a xlink:title=" ">
<path fill="none" stroke="#63b8ff" d="M969.46,-220C952.06,-212.64 928.52,-200.56 912.5,-184 886.79,-157.43 900.94,-135.85 874.5,-110 827.95,-64.49 756.54,-36.37 711.47,-22.1"/>
<polygon fill="#63b8ff" stroke="#63b8ff" points="712.3,-18.69 701.71,-19.09 710.24,-25.38 712.3,-18.69"/>
</a>
</g>
</g>
<!-- Node19 -->
<g id="Node000019" class="node">
<title>Node19</title>
<g id="a_Node000019"><a xlink:href="PrintHelpers_8h.html" target="_top" xlink:title=" ">
<polygon fill="white" stroke="#666666" points="822,-184 711,-184 711,-165 822,-165 822,-184"/>
<text text-anchor="middle" x="766.5" y="-172" font-family="Helvetica,sans-Serif" font-size="10.00">Core/PrintHelpers.h</text>
</a>
</g>
</g>
<!-- Node1&#45;&gt;Node19 -->
<g id="edge21_Node000001_Node000019" class="edge">
<title>Node1&#45;&gt;Node19</title>
<g id="a_edge21_Node000001_Node000019"><a xlink:title=" ">
<path fill="none" stroke="#63b8ff" d="M956.19,-219.98C917.26,-210.86 855.34,-196.33 812.9,-186.38"/>
<polygon fill="#63b8ff" stroke="#63b8ff" points="813.63,-182.96 803.1,-184.08 812.03,-189.77 813.63,-182.96"/>
</a>
</g>
</g>
<!-- Node23 -->
<g id="Node000023" class="node">
<title>Node23</title>
<g id="a_Node000023"><a xlink:href="Renderer_8h.html" target="_top" xlink:title=" ">
<polygon fill="white" stroke="#666666" points="1063.5,-184 921.5,-184 921.5,-165 1063.5,-165 1063.5,-184"/>
<text text-anchor="middle" x="992.5" y="-172" font-family="Helvetica,sans-Serif" font-size="10.00">Core/Renderer/Renderer.h</text>
</a>
</g>
</g>
<!-- Node1&#45;&gt;Node23 -->
<g id="edge25_Node000001_Node000023" class="edge">
<title>Node1&#45;&gt;Node23</title>
<g id="a_edge25_Node000001_Node000023"><a xlink:title=" ">
<path fill="none" stroke="#63b8ff" d="M992.5,-219.75C992.5,-212.8 992.5,-202.85 992.5,-194.13"/>
<polygon fill="#63b8ff" stroke="#63b8ff" points="996,-194.09 992.5,-184.09 989,-194.09 996,-194.09"/>
</a>
</g>
</g>
<!-- Node26 -->
<g id="Node000026" class="node">
<title>Node26</title>
<g id="a_Node000026"><a xlink:href="Shader_8h.html" target="_top" xlink:title=" ">
<polygon fill="white" stroke="#666666" points="1213,-184 1082,-184 1082,-165 1213,-165 1213,-184"/>
<text text-anchor="middle" x="1147.5" y="-172" font-family="Helvetica,sans-Serif" font-size="10.00">Core/Renderer/Shader.h</text>
</a>
</g>
</g>
<!-- Node1&#45;&gt;Node26 -->
<g id="edge29_Node000001_Node000026" class="edge">
<title>Node1&#45;&gt;Node26</title>
<g id="a_edge29_Node000001_Node000026"><a xlink:title=" ">
<path fill="none" stroke="#63b8ff" d="M1017.4,-219.98C1043.2,-211.16 1083.72,-197.31 1112.68,-187.41"/>
<polygon fill="#63b8ff" stroke="#63b8ff" points="1114.07,-190.63 1122.4,-184.08 1111.81,-184.01 1114.07,-190.63"/>
</a>
</g>
</g>
<!-- Node27 -->
<g id="Node000027" class="node">
<title>Node27</title>
<g id="a_Node000027"><a xlink:title=" ">
<polygon fill="#e0e0e0" stroke="#999999" points="1284,-184 1231,-184 1231,-165 1284,-165 1284,-184"/>
<text text-anchor="middle" x="1257.5" y="-172" font-family="Helvetica,sans-Serif" font-size="10.00">imgui.h</text>
</a>
</g>
</g>
<!-- Node1&#45;&gt;Node27 -->
<g id="edge31_Node000001_Node000027" class="edge">
<title>Node1&#45;&gt;Node27</title>
<g id="a_edge31_Node000001_Node000027"><a xlink:title=" ">
<path fill="none" stroke="#63b8ff" d="M1040.21,-219.95C1084.63,-211.83 1152.94,-198.97 1220.77,-184.3"/>
<polygon fill="#63b8ff" stroke="#63b8ff" points="1221.75,-187.67 1230.78,-182.13 1220.26,-180.83 1221.75,-187.67"/>
</a>
</g>
</g>
<!-- Node28 -->
<g id="Node000028" class="node">
<title>Node28</title>
<g id="a_Node000028"><a xlink:title=" ">
<polygon fill="#e0e0e0" stroke="#999999" points="1407,-184 1302,-184 1302,-165 1407,-165 1407,-184"/>
<text text-anchor="middle" x="1354.5" y="-172" font-family="Helvetica,sans-Serif" font-size="10.00">imgui_impl_glfw.h</text>
</a>
</g>
</g>
<!-- Node1&#45;&gt;Node28 -->
<g id="edge32_Node000001_Node000028" class="edge">
<title>Node1&#45;&gt;Node28</title>
<g id="a_edge32_Node000001_Node000028"><a xlink:title=" ">
<path fill="none" stroke="#63b8ff" d="M1050.66,-219.98C1116.63,-210.33 1223.81,-194.63 1291.65,-184.7"/>
<polygon fill="#63b8ff" stroke="#63b8ff" points="1292.39,-188.13 1301.78,-183.22 1291.38,-181.2 1292.39,-188.13"/>
</a>
</g>
</g>
<!-- Node29 -->
<g id="Node000029" class="node">
<title>Node29</title>
<g id="a_Node000029"><a xlink:title=" ">
<polygon fill="#e0e0e0" stroke="#999999" points="1550,-184 1425,-184 1425,-165 1550,-165 1550,-184"/>
<text text-anchor="middle" x="1487.5" y="-172" font-family="Helvetica,sans-Serif" font-size="10.00">imgui_impl_opengl3.h</text>
</a>
</g>
</g>
<!-- Node1&#45;&gt;Node29 -->
<g id="edge33_Node000001_Node000029" class="edge">
<title>Node1&#45;&gt;Node29</title>
<g id="a_edge33_Node000001_Node000029"><a xlink:title=" ">
<path fill="none" stroke="#63b8ff" d="M1062.68,-221.45C1144.67,-213.14 1284.68,-198.74 1414.65,-184.2"/>
<polygon fill="#63b8ff" stroke="#63b8ff" points="1415.24,-187.65 1424.79,-183.06 1414.46,-180.69 1415.24,-187.65"/>
</a>
</g>
</g>
<!-- Node3 -->
<g id="Node000003" class="node">
<title>Node3</title>
<g id="a_Node000003"><a xlink:href="Layer_8h.html" target="_top" xlink:title=" ">
<polygon fill="white" stroke="#666666" points="148,-129 71,-129 71,-110 148,-110 148,-129"/>
<text text-anchor="middle" x="109.5" y="-117" font-family="Helvetica,sans-Serif" font-size="10.00">Core/Layer.h</text>
</a>
</g>
</g>
<!-- Node2&#45;&gt;Node3 -->
<g id="edge2_Node000002_Node000003" class="edge">
<title>Node2&#45;&gt;Node3</title>
<g id="a_edge2_Node000002_Node000003"><a xlink:title=" ">
<path fill="none" stroke="#63b8ff" d="M109.5,-164.75C109.5,-157.8 109.5,-147.85 109.5,-139.13"/>
<polygon fill="#63b8ff" stroke="#63b8ff" points="113,-139.09 109.5,-129.09 106,-139.09 113,-139.09"/>
</a>
</g>
</g>
<!-- Node5 -->
<g id="Node000005" class="node">
<title>Node5</title>
<g id="a_Node000005"><a xlink:title=" ">
<polygon fill="#e0e0e0" stroke="#999999" points="53,-129 0,-129 0,-110 53,-110 53,-129"/>
<text text-anchor="middle" x="26.5" y="-117" font-family="Helvetica,sans-Serif" font-size="10.00">stdint.h</text>
</a>
</g>
</g>
<!-- Node2&#45;&gt;Node5 -->
<g id="edge4_Node000002_Node000005" class="edge">
<title>Node2&#45;&gt;Node5</title>
<g id="a_edge4_Node000002_Node000005"><a xlink:title=" ">
<path fill="none" stroke="#63b8ff" d="M96.16,-164.98C83.41,-156.84 63.95,-144.41 48.83,-134.76"/>
<polygon fill="#63b8ff" stroke="#63b8ff" points="50.39,-131.6 40.08,-129.17 46.62,-137.5 50.39,-131.6"/>
</a>
</g>
</g>
<!-- Node4 -->
<g id="Node000004" class="node">
<title>Node4</title>
<g id="a_Node000004"><a xlink:href="Event_8h.html" target="_top" xlink:title=" ">
<polygon fill="white" stroke="#666666" points="136,-74 83,-74 83,-55 136,-55 136,-74"/>
<text text-anchor="middle" x="109.5" y="-62" font-family="Helvetica,sans-Serif" font-size="10.00">Event.h</text>
</a>
</g>
</g>
<!-- Node3&#45;&gt;Node4 -->
<g id="edge3_Node000003_Node000004" class="edge">
<title>Node3&#45;&gt;Node4</title>
<g id="a_edge3_Node000003_Node000004"><a xlink:title=" ">
<path fill="none" stroke="#63b8ff" d="M109.5,-109.75C109.5,-102.8 109.5,-92.85 109.5,-84.13"/>
<polygon fill="#63b8ff" stroke="#63b8ff" points="113,-84.09 109.5,-74.09 106,-84.09 113,-84.09"/>
</a>
</g>
</g>
<!-- Node6&#45;&gt;Node3 -->
<g id="edge11_Node000006_Node000003" class="edge">
<title>Node6&#45;&gt;Node3</title>
<g id="a_edge11_Node000006_Node000003"><a xlink:title=" ">
<path fill="none" stroke="#63b8ff" d="M342.83,-164.98C292.33,-155.36 210.36,-139.73 158.23,-129.79"/>
<polygon fill="#63b8ff" stroke="#63b8ff" points="158.7,-126.32 148.23,-127.88 157.39,-133.19 158.7,-126.32"/>
</a>
</g>
</g>
<!-- Node7 -->
<g id="Node000007" class="node">
<title>Node7</title>
<g id="a_Node000007"><a xlink:href="BaseType_8h.html" target="_top" xlink:title=" ">
<polygon fill="white" stroke="#666666" points="347.5,-74 249.5,-74 249.5,-55 347.5,-55 347.5,-74"/>
<text text-anchor="middle" x="298.5" y="-62" font-family="Helvetica,sans-Serif" font-size="10.00">Core/BaseType.h</text>
</a>
</g>
</g>
<!-- Node6&#45;&gt;Node7 -->
<g id="edge6_Node000006_Node000007" class="edge">
<title>Node6&#45;&gt;Node7</title>
<g id="a_edge6_Node000006_Node000007"><a xlink:title=" ">
<path fill="none" stroke="#63b8ff" d="M334.39,-169.06C307.58,-163.81 277.26,-152.63 260.5,-129 249.27,-113.17 264.52,-93.92 278.91,-80.79"/>
<polygon fill="#63b8ff" stroke="#63b8ff" points="281.31,-83.34 286.64,-74.19 276.77,-78.02 281.31,-83.34"/>
</a>
</g>
</g>
<!-- Node12 -->
<g id="Node000012" class="node">
<title>Node12</title>
<g id="a_Node000012"><a xlink:href="Window_8h.html" target="_top" xlink:title=" ">
<polygon fill="white" stroke="#666666" points="359,-129 270,-129 270,-110 359,-110 359,-129"/>
<text text-anchor="middle" x="314.5" y="-117" font-family="Helvetica,sans-Serif" font-size="10.00">Core/Window.h</text>
</a>
</g>
</g>
<!-- Node6&#45;&gt;Node12 -->
<g id="edge12_Node000006_Node000012" class="edge">
<title>Node6&#45;&gt;Node12</title>
<g id="a_edge12_Node000006_Node000012"><a xlink:title=" ">
<path fill="none" stroke="#63b8ff" d="M375.77,-164.98C364.77,-157 348.08,-144.88 334.9,-135.31"/>
<polygon fill="#63b8ff" stroke="#63b8ff" points="336.59,-132.21 326.44,-129.17 332.48,-137.88 336.59,-132.21"/>
</a>
</g>
</g>
<!-- Node14 -->
<g id="Node000014" class="node">
<title>Node14</title>
<g id="a_Node000014"><a xlink:title=" ">
<polygon fill="#e0e0e0" stroke="#999999" points="409.5,-74 365.5,-74 365.5,-55 409.5,-55 409.5,-74"/>
<text text-anchor="middle" x="387.5" y="-62" font-family="Helvetica,sans-Serif" font-size="10.00">string</text>
</a>
</g>
</g>
<!-- Node6&#45;&gt;Node14 -->
<g id="edge19_Node000006_Node000014" class="edge">
<title>Node6&#45;&gt;Node14</title>
<g id="a_edge19_Node000006_Node000014"><a xlink:title=" ">
<path fill="none" stroke="#63b8ff" d="M387.5,-164.66C387.5,-147.17 387.5,-107.8 387.5,-84.27"/>
<polygon fill="#63b8ff" stroke="#63b8ff" points="391,-84.16 387.5,-74.16 384,-84.16 391,-84.16"/>
</a>
</g>
</g>
<!-- Node15 -->
<g id="Node000015" class="node">
<title>Node15</title>
<g id="a_Node000015"><a xlink:title=" ">
<polygon fill="#e0e0e0" stroke="#999999" points="481,-129 416,-129 416,-110 481,-110 481,-129"/>
<text text-anchor="middle" x="448.5" y="-117" font-family="Helvetica,sans-Serif" font-size="10.00">functional</text>
</a>
</g>
</g>
<!-- Node6&#45;&gt;Node15 -->
<g id="edge16_Node000006_Node000015" class="edge">
<title>Node6&#45;&gt;Node15</title>
<g id="a_edge16_Node000006_Node000015"><a xlink:title=" ">
<path fill="none" stroke="#63b8ff" d="M397.3,-164.98C406.32,-157.15 419.91,-145.34 430.82,-135.86"/>
<polygon fill="#63b8ff" stroke="#63b8ff" points="433.27,-138.37 438.52,-129.17 428.68,-133.09 433.27,-138.37"/>
</a>
</g>
</g>
<!-- Node16 -->
<g id="Node000016" class="node">
<title>Node16</title>
<g id="a_Node000016"><a xlink:title=" ">
<polygon fill="#e0e0e0" stroke="#999999" points="557.5,-129 499.5,-129 499.5,-110 557.5,-110 557.5,-129"/>
<text text-anchor="middle" x="528.5" y="-117" font-family="Helvetica,sans-Serif" font-size="10.00">memory</text>
</a>
</g>
</g>
<!-- Node6&#45;&gt;Node16 -->
<g id="edge17_Node000006_Node000016" class="edge">
<title>Node6&#45;&gt;Node16</title>
<g id="a_edge17_Node000006_Node000016"><a xlink:title=" ">
<path fill="none" stroke="#63b8ff" d="M410.15,-164.98C433.35,-156.27 469.62,-142.63 495.9,-132.75"/>
<polygon fill="#63b8ff" stroke="#63b8ff" points="497.3,-135.97 505.43,-129.17 494.84,-129.41 497.3,-135.97"/>
</a>
</g>
</g>
<!-- Node17 -->
<g id="Node000017" class="node">
<title>Node17</title>
<g id="a_Node000017"><a xlink:title=" ">
<polygon fill="#e0e0e0" stroke="#999999" points="607.5,-129 575.5,-129 575.5,-110 607.5,-110 607.5,-129"/>
<text text-anchor="middle" x="591.5" y="-117" font-family="Helvetica,sans-Serif" font-size="10.00">set</text>
</a>
</g>
</g>
<!-- Node6&#45;&gt;Node17 -->
<g id="edge18_Node000006_Node000017" class="edge">
<title>Node6&#45;&gt;Node17</title>
<g id="a_edge18_Node000006_Node000017"><a xlink:title=" ">
<path fill="none" stroke="#63b8ff" d="M425.81,-164.96C460.16,-157.08 512.11,-144.64 565.75,-129.03"/>
<polygon fill="#63b8ff" stroke="#63b8ff" points="566.82,-132.37 575.43,-126.19 564.84,-125.65 566.82,-132.37"/>
</a>
</g>
</g>
<!-- Node18 -->
<g id="Node000018" class="node">
<title>Node18</title>
<g id="a_Node000018"><a xlink:title=" ">
<polygon fill="#e0e0e0" stroke="#999999" points="213,-129 166,-129 166,-110 213,-110 213,-129"/>
<text text-anchor="middle" x="189.5" y="-117" font-family="Helvetica,sans-Serif" font-size="10.00">vector</text>
</a>
</g>
</g>
<!-- Node6&#45;&gt;Node18 -->
<g id="edge20_Node000006_Node000018" class="edge">
<title>Node6&#45;&gt;Node18</title>
<g id="a_edge20_Node000006_Node000018"><a xlink:title=" ">
<path fill="none" stroke="#63b8ff" d="M355.69,-164.98C319.32,-155.25 260.04,-139.38 222.98,-129.46"/>
<polygon fill="#63b8ff" stroke="#63b8ff" points="223.72,-126.04 213.16,-126.83 221.91,-132.8 223.72,-126.04"/>
</a>
</g>
</g>
<!-- Node7&#45;&gt;Node8 -->
<g id="edge7_Node000007_Node000008" class="edge">
<title>Node7&#45;&gt;Node8</title>
<g id="a_edge7_Node000007_Node000008"><a xlink:title=" ">
<path fill="none" stroke="#63b8ff" d="M347.55,-56.3C350.58,-55.86 353.58,-55.42 356.5,-55 449.71,-41.54 558.57,-26.14 620.24,-17.44"/>
<polygon fill="#63b8ff" stroke="#63b8ff" points="621.04,-20.86 630.46,-16 620.06,-13.93 621.04,-20.86"/>
</a>
</g>
</g>
<!-- Node9 -->
<g id="Node000009" class="node">
<title>Node9</title>
<g id="a_Node000009"><a xlink:title=" ">
<polygon fill="#e0e0e0" stroke="#999999" points="258,-19 117,-19 117,0 258,0 258,-19"/>
<text text-anchor="middle" x="187.5" y="-7" font-family="Helvetica,sans-Serif" font-size="10.00">glm/gtx/vector_angle.hpp</text>
</a>
</g>
</g>
<!-- Node7&#45;&gt;Node9 -->
<g id="edge8_Node000007_Node000009" class="edge">
<title>Node7&#45;&gt;Node9</title>
<g id="a_edge8_Node000007_Node000009"><a xlink:title=" ">
<path fill="none" stroke="#63b8ff" d="M280.67,-54.98C262.89,-46.5 235.35,-33.35 214.82,-23.54"/>
<polygon fill="#63b8ff" stroke="#63b8ff" points="216.19,-20.32 205.66,-19.17 213.17,-26.64 216.19,-20.32"/>
</a>
</g>
</g>
<!-- Node10 -->
<g id="Node000010" class="node">
<title>Node10</title>
<g id="a_Node000010"><a xlink:title=" ">
<polygon fill="#e0e0e0" stroke="#999999" points="320.5,-19 276.5,-19 276.5,0 320.5,0 320.5,-19"/>
<text text-anchor="middle" x="298.5" y="-7" font-family="Helvetica,sans-Serif" font-size="10.00">bitset</text>
</a>
</g>
</g>
<!-- Node7&#45;&gt;Node10 -->
<g id="edge9_Node000007_Node000010" class="edge">
<title>Node7&#45;&gt;Node10</title>
<g id="a_edge9_Node000007_Node000010"><a xlink:title=" ">
<path fill="none" stroke="#63b8ff" d="M298.5,-54.75C298.5,-47.8 298.5,-37.85 298.5,-29.13"/>
<polygon fill="#63b8ff" stroke="#63b8ff" points="302,-29.09 298.5,-19.09 295,-29.09 302,-29.09"/>
</a>
</g>
</g>
<!-- Node11 -->
<g id="Node000011" class="node">
<title>Node11</title>
<g id="a_Node000011"><a xlink:title=" ">
<polygon fill="#e0e0e0" stroke="#999999" points="388.5,-19 338.5,-19 338.5,0 388.5,0 388.5,-19"/>
<text text-anchor="middle" x="363.5" y="-7" font-family="Helvetica,sans-Serif" font-size="10.00">cstdint</text>
</a>
</g>
</g>
<!-- Node7&#45;&gt;Node11 -->
<g id="edge10_Node000007_Node000011" class="edge">
<title>Node7&#45;&gt;Node11</title>
<g id="a_edge10_Node000007_Node000011"><a xlink:title=" ">
<path fill="none" stroke="#63b8ff" d="M308.94,-54.98C318.65,-47.07 333.32,-35.11 345,-25.58"/>
<polygon fill="#63b8ff" stroke="#63b8ff" points="347.33,-28.2 352.87,-19.17 342.9,-22.78 347.33,-28.2"/>
</a>
</g>
</g>
<!-- Node12&#45;&gt;Node7 -->
<g id="edge13_Node000012_Node000007" class="edge">
<title>Node12&#45;&gt;Node7</title>
<g id="a_edge13_Node000012_Node000007"><a xlink:title=" ">
<path fill="none" stroke="#63b8ff" d="M311.86,-109.75C309.74,-102.72 306.69,-92.62 304.04,-83.84"/>
<polygon fill="#63b8ff" stroke="#63b8ff" points="307.33,-82.65 301.09,-74.09 300.63,-84.67 307.33,-82.65"/>
</a>
</g>
</g>
<!-- Node13 -->
<g id="Node000013" class="node">
<title>Node13</title>
<g id="a_Node000013"><a xlink:title=" ">
<polygon fill="#e0e0e0" stroke="#999999" points="1005,-74 922,-74 922,-55 1005,-55 1005,-74"/>
<text text-anchor="middle" x="963.5" y="-62" font-family="Helvetica,sans-Serif" font-size="10.00">GLFW/glfw3.h</text>
</a>
</g>
</g>
<!-- Node12&#45;&gt;Node13 -->
<g id="edge14_Node000012_Node000013" class="edge">
<title>Node12&#45;&gt;Node13</title>
<g id="a_edge14_Node000012_Node000013"><a xlink:title=" ">
<path fill="none" stroke="#63b8ff" d="M359.41,-114.24C374.39,-112.85 391.16,-111.32 406.5,-110 592.5,-93.98 813.61,-76.9 911.94,-69.4"/>
<polygon fill="#63b8ff" stroke="#63b8ff" points="912.21,-72.89 921.91,-68.65 911.67,-65.91 912.21,-72.89"/>
</a>
</g>
</g>
<!-- Node12&#45;&gt;Node14 -->
<g id="edge15_Node000012_Node000014" class="edge">
<title>Node12&#45;&gt;Node14</title>
<g id="a_edge15_Node000012_Node000014"><a xlink:title=" ">
<path fill="none" stroke="#63b8ff" d="M326.23,-109.98C337.23,-102 353.92,-89.88 367.1,-80.31"/>
<polygon fill="#63b8ff" stroke="#63b8ff" points="369.52,-82.88 375.56,-74.17 365.41,-77.21 369.52,-82.88"/>
</a>
</g>
</g>
<!-- Node20 -->
<g id="Node000020" class="node">
<title>Node20</title>
<g id="a_Node000020"><a xlink:title=" ">
<polygon fill="#e0e0e0" stroke="#999999" points="675.5,-129 625.5,-129 625.5,-110 675.5,-110 675.5,-129"/>
<text text-anchor="middle" x="650.5" y="-117" font-family="Helvetica,sans-Serif" font-size="10.00">format</text>
</a>
</g>
</g>
<!-- Node19&#45;&gt;Node20 -->
<g id="edge22_Node000019_Node000020" class="edge">
<title>Node19&#45;&gt;Node20</title>
<g id="a_edge22_Node000019_Node000020"><a xlink:title=" ">
<path fill="none" stroke="#63b8ff" d="M747.86,-164.98C729.2,-156.46 700.25,-143.23 678.76,-133.41"/>
<polygon fill="#63b8ff" stroke="#63b8ff" points="680.03,-130.14 669.48,-129.17 677.12,-136.51 680.03,-130.14"/>
</a>
</g>
</g>
<!-- Node21 -->
<g id="Node000021" class="node">
<title>Node21</title>
<g id="a_Node000021"><a xlink:title=" ">
<polygon fill="#e0e0e0" stroke="#999999" points="753.5,-129 693.5,-129 693.5,-110 753.5,-110 753.5,-129"/>
<text text-anchor="middle" x="723.5" y="-117" font-family="Helvetica,sans-Serif" font-size="10.00">iostream</text>
</a>
</g>
</g>
<!-- Node19&#45;&gt;Node21 -->
<g id="edge23_Node000019_Node000021" class="edge">
<title>Node19&#45;&gt;Node21</title>
<g id="a_edge23_Node000019_Node000021"><a xlink:title=" ">
<path fill="none" stroke="#63b8ff" d="M759.4,-164.75C753.33,-157.26 744.41,-146.28 736.99,-137.13"/>
<polygon fill="#63b8ff" stroke="#63b8ff" points="739.49,-134.65 730.47,-129.09 734.05,-139.06 739.49,-134.65"/>
</a>
</g>
</g>
<!-- Node22 -->
<g id="Node000022" class="node">
<title>Node22</title>
<g id="a_Node000022"><a xlink:title=" ">
<polygon fill="#e0e0e0" stroke="#999999" points="865,-129 772,-129 772,-110 865,-110 865,-129"/>
<text text-anchor="middle" x="818.5" y="-117" font-family="Helvetica,sans-Serif" font-size="10.00">source_location</text>
</a>
</g>
</g>
<!-- Node19&#45;&gt;Node22 -->
<g id="edge24_Node000019_Node000022" class="edge">
<title>Node19&#45;&gt;Node22</title>
<g id="a_edge24_Node000019_Node000022"><a xlink:title=" ">
<path fill="none" stroke="#63b8ff" d="M775.09,-164.75C782.66,-157.03 793.88,-145.6 803.01,-136.28"/>
<polygon fill="#63b8ff" stroke="#63b8ff" points="805.57,-138.68 810.07,-129.09 800.57,-133.78 805.57,-138.68"/>
</a>
</g>
</g>
<!-- Node23&#45;&gt;Node13 -->
<g id="edge26_Node000023_Node000013" class="edge">
<title>Node23&#45;&gt;Node13</title>
<g id="a_edge26_Node000023_Node000013"><a xlink:title=" ">
<path fill="none" stroke="#63b8ff" d="M990.13,-164.66C985.41,-147.09 974.76,-107.45 968.46,-83.95"/>
<polygon fill="#63b8ff" stroke="#63b8ff" points="971.8,-82.91 965.82,-74.16 965.04,-84.72 971.8,-82.91"/>
</a>
</g>
</g>
<!-- Node24 -->
<g id="Node000024" class="node">
<title>Node24</title>
<g id="a_Node000024"><a xlink:title=" ">
<polygon fill="#e0e0e0" stroke="#999999" points="1051,-129 992,-129 992,-110 1051,-110 1051,-129"/>
<text text-anchor="middle" x="1021.5" y="-117" font-family="Helvetica,sans-Serif" font-size="10.00">glad/gl.h</text>
</a>
</g>
</g>
<!-- Node23&#45;&gt;Node24 -->
<g id="edge27_Node000023_Node000024" class="edge">
<title>Node23&#45;&gt;Node24</title>
<g id="a_edge27_Node000023_Node000024"><a xlink:title=" ">
<path fill="none" stroke="#63b8ff" d="M997.29,-164.75C1001.26,-157.49 1007.03,-146.95 1011.93,-137.98"/>
<polygon fill="#63b8ff" stroke="#63b8ff" points="1015.07,-139.54 1016.8,-129.09 1008.93,-136.18 1015.07,-139.54"/>
</a>
</g>
</g>
<!-- Node25 -->
<g id="Node000025" class="node">
<title>Node25</title>
<g id="a_Node000025"><a xlink:title=" ">
<polygon fill="#e0e0e0" stroke="#999999" points="1159.5,-129 1091.5,-129 1091.5,-110 1159.5,-110 1159.5,-129"/>
<text text-anchor="middle" x="1125.5" y="-117" font-family="Helvetica,sans-Serif" font-size="10.00">filesystem</text>
</a>
</g>
</g>
<!-- Node23&#45;&gt;Node25 -->
<g id="edge28_Node000023_Node000025" class="edge">
<title>Node23&#45;&gt;Node25</title>
<g id="a_edge28_Node000023_Node000025"><a xlink:title=" ">
<path fill="none" stroke="#63b8ff" d="M1013.87,-164.98C1035.65,-156.3 1069.66,-142.75 1094.42,-132.88"/>
<polygon fill="#63b8ff" stroke="#63b8ff" points="1095.75,-136.12 1103.74,-129.17 1093.16,-129.62 1095.75,-136.12"/>
</a>
</g>
</g>
<!-- Node26&#45;&gt;Node25 -->
<g id="edge30_Node000026_Node000025" class="edge">
<title>Node26&#45;&gt;Node25</title>
<g id="a_edge30_Node000026_Node000025"><a xlink:title=" ">
<path fill="none" stroke="#63b8ff" d="M1143.87,-164.75C1140.92,-157.65 1136.67,-147.4 1132.99,-138.56"/>
<polygon fill="#63b8ff" stroke="#63b8ff" points="1136.13,-136.98 1129.07,-129.09 1129.67,-139.67 1136.13,-136.98"/>
</a>
</g>
</g>
</g>
</svg>
