<?xml version="1.0" encoding="UTF-8" standalone="no"?>
<!DOCTYPE svg PUBLIC "-//W3C//DTD SVG 1.1//EN"
 "http://www.w3.org/Graphics/SVG/1.1/DTD/svg11.dtd">
<!-- Generated by graphviz version 2.43.0 (0)
 -->
<!-- Title: Core/Source/Application.cpp Pages: 1 -->
<svg width="1312pt" height="247pt"
 viewBox="0.00 0.00 1312.00 247.00" xmlns="http://www.w3.org/2000/svg" xmlns:xlink="http://www.w3.org/1999/xlink">
<g id="graph0" class="graph" transform="scale(1 1) rotate(0) translate(4 243)">
<title>Core/Source/Application.cpp</title>
<!-- Node1 -->
<g id="Node000001" class="node">
<title>Node1</title>
<g id="a_Node000001"><a xlink:title=" ">
<polygon fill="#999999" stroke="#666666" points="857.5,-239 704.5,-239 704.5,-220 857.5,-220 857.5,-239"/>
<text text-anchor="middle" x="781" y="-227" font-family="Helvetica,sans-Serif" font-size="10.00">Core/Source/Application.cpp</text>
</a>
</g>
</g>
<!-- Node2 -->
<g id="Node000002" class="node">
<title>Node2</title>
<g id="a_Node000002"><a xlink:href="Application_8h.html" target="_top" xlink:title=" ">
<polygon fill="white" stroke="#666666" points="366,-184 260,-184 260,-165 366,-165 366,-184"/>
<text text-anchor="middle" x="313" y="-172" font-family="Helvetica,sans-Serif" font-size="10.00">Core/Application.h</text>
</a>
</g>
</g>
<!-- Node1&#45;&gt;Node2 -->
<g id="edge1_Node000001_Node000002" class="edge">
<title>Node1&#45;&gt;Node2</title>
<g id="a_edge1_Node000001_Node000002"><a xlink:title=" ">
<path fill="none" stroke="#63b8ff" d="M705.81,-219.98C614.44,-209.64 461.9,-192.36 376.27,-182.67"/>
<polygon fill="#63b8ff" stroke="#63b8ff" points="376.5,-179.17 366.17,-181.52 375.72,-186.12 376.5,-179.17"/>
</a>
</g>
</g>
<!-- Node4 -->
<g id="Node000004" class="node">
<title>Node4</title>
<g id="a_Node000004"><a xlink:title=" ">
<polygon fill="#e0e0e0" stroke="#999999" points="78,-19 0,-19 0,0 78,0 78,-19"/>
<text text-anchor="middle" x="39" y="-7" font-family="Helvetica,sans-Serif" font-size="10.00">glm/glm.hpp</text>
</a>
</g>
</g>
<!-- Node1&#45;&gt;Node4 -->
<g id="edge28_Node000001_Node000004" class="edge">
<title>Node1&#45;&gt;Node4</title>
<g id="a_edge28_Node000001_Node000004"><a xlink:title=" ">
<path fill="none" stroke="#63b8ff" d="M704.28,-227.36C553.33,-224.45 222.99,-214.7 114,-184 63.29,-169.72 36.27,-174.07 9,-129 -10.59,-96.62 11.67,-51.85 26.98,-27.66"/>
<polygon fill="#63b8ff" stroke="#63b8ff" points="29.99,-29.47 32.6,-19.2 24.15,-25.6 29.99,-29.47"/>
</a>
</g>
</g>
<!-- Node11 -->
<g id="Node000011" class="node">
<title>Node11</title>
<g id="a_Node000011"><a xlink:title=" ">
<polygon fill="#e0e0e0" stroke="#999999" points="159.5,-74 76.5,-74 76.5,-55 159.5,-55 159.5,-74"/>
<text text-anchor="middle" x="118" y="-62" font-family="Helvetica,sans-Serif" font-size="10.00">GLFW/glfw3.h</text>
</a>
</g>
</g>
<!-- Node1&#45;&gt;Node11 -->
<g id="edge27_Node000001_Node000011" class="edge">
<title>Node1&#45;&gt;Node11</title>
<g id="a_edge27_Node000001_Node000011"><a xlink:title=" ">
<path fill="none" stroke="#63b8ff" d="M704.24,-224.44C519.13,-213.85 60.25,-182.39 18,-129 -0.99,-105 35.89,-87.45 70.1,-76.95"/>
<polygon fill="#63b8ff" stroke="#63b8ff" points="71.47,-80.2 80.09,-74.05 69.52,-73.48 71.47,-80.2"/>
</a>
</g>
</g>
<!-- Node17 -->
<g id="Node000017" class="node">
<title>Node17</title>
<g id="a_Node000017"><a xlink:href="PrintHelpers_8h.html" target="_top" xlink:title=" ">
<polygon fill="white" stroke="#666666" points="705.5,-184 594.5,-184 594.5,-165 705.5,-165 705.5,-184"/>
<text text-anchor="middle" x="650" y="-172" font-family="Helvetica,sans-Serif" font-size="10.00">Core/PrintHelpers.h</text>
</a>
</g>
</g>
<!-- Node1&#45;&gt;Node17 -->
<g id="edge18_Node000001_Node000017" class="edge">
<title>Node1&#45;&gt;Node17</title>
<g id="a_edge18_Node000001_Node000017"><a xlink:title=" ">
<path fill="none" stroke="#63b8ff" d="M759.95,-219.98C738.59,-211.34 705.3,-197.87 680.94,-188.02"/>
<polygon fill="#63b8ff" stroke="#63b8ff" points="682.01,-184.68 671.43,-184.17 679.39,-191.17 682.01,-184.68"/>
</a>
</g>
</g>
<!-- Node19 -->
<g id="Node000019" class="node">
<title>Node19</title>
<g id="a_Node000019"><a xlink:title=" ">
<polygon fill="#e0e0e0" stroke="#999999" points="823,-129 763,-129 763,-110 823,-110 823,-129"/>
<text text-anchor="middle" x="793" y="-117" font-family="Helvetica,sans-Serif" font-size="10.00">iostream</text>
</a>
</g>
</g>
<!-- Node1&#45;&gt;Node19 -->
<g id="edge30_Node000001_Node000019" class="edge">
<title>Node1&#45;&gt;Node19</title>
<g id="a_edge30_Node000001_Node000019"><a xlink:title=" ">
<path fill="none" stroke="#63b8ff" d="M772.65,-219.98C761.86,-207.9 745.32,-185.03 753,-165 757.24,-153.94 765.64,-143.91 773.64,-136.18"/>
<polygon fill="#63b8ff" stroke="#63b8ff" points="776.25,-138.55 781.36,-129.27 771.58,-133.33 776.25,-138.55"/>
</a>
</g>
</g>
<!-- Node21 -->
<g id="Node000021" class="node">
<title>Node21</title>
<g id="a_Node000021"><a xlink:href="GLUtils_8h.html" target="_top" xlink:title=" ">
<polygon fill="white" stroke="#666666" points="896,-184 762,-184 762,-165 896,-165 896,-184"/>
<text text-anchor="middle" x="829" y="-172" font-family="Helvetica,sans-Serif" font-size="10.00">Core/Renderer/GLUtils.h</text>
</a>
</g>
</g>
<!-- Node1&#45;&gt;Node21 -->
<g id="edge22_Node000001_Node000021" class="edge">
<title>Node1&#45;&gt;Node21</title>
<g id="a_edge22_Node000001_Node000021"><a xlink:title=" ">
<path fill="none" stroke="#63b8ff" d="M788.93,-219.75C795.85,-212.11 806.07,-200.82 814.45,-191.56"/>
<polygon fill="#63b8ff" stroke="#63b8ff" points="817.1,-193.85 821.22,-184.09 811.91,-189.15 817.1,-193.85"/>
</a>
</g>
</g>
<!-- Node23 -->
<g id="Node000023" class="node">
<title>Node23</title>
<g id="a_Node000023"><a xlink:title=" ">
<polygon fill="#e0e0e0" stroke="#999999" points="967.5,-184 914.5,-184 914.5,-165 967.5,-165 967.5,-184"/>
<text text-anchor="middle" x="941" y="-172" font-family="Helvetica,sans-Serif" font-size="10.00">imgui.h</text>
</a>
</g>
</g>
<!-- Node1&#45;&gt;Node23 -->
<g id="edge24_Node000001_Node000023" class="edge">
<title>Node1&#45;&gt;Node23</title>
<g id="a_edge24_Node000001_Node000023"><a xlink:title=" ">
<path fill="none" stroke="#63b8ff" d="M806.71,-219.98C833.45,-211.13 875.53,-197.19 905.45,-187.28"/>
<polygon fill="#63b8ff" stroke="#63b8ff" points="906.7,-190.55 915.09,-184.08 904.5,-183.9 906.7,-190.55"/>
</a>
</g>
</g>
<!-- Node24 -->
<g id="Node000024" class="node">
<title>Node24</title>
<g id="a_Node000024"><a xlink:title=" ">
<polygon fill="#e0e0e0" stroke="#999999" points="1090.5,-184 985.5,-184 985.5,-165 1090.5,-165 1090.5,-184"/>
<text text-anchor="middle" x="1038" y="-172" font-family="Helvetica,sans-Serif" font-size="10.00">imgui_impl_glfw.h</text>
</a>
</g>
</g>
<!-- Node1&#45;&gt;Node24 -->
<g id="edge25_Node000001_Node000024" class="edge">
<title>Node1&#45;&gt;Node24</title>
<g id="a_edge25_Node000001_Node000024"><a xlink:title=" ">
<path fill="none" stroke="#63b8ff" d="M822.29,-219.98C866.93,-210.78 938.16,-196.09 986.45,-186.13"/>
<polygon fill="#63b8ff" stroke="#63b8ff" points="987.3,-189.53 996.38,-184.08 985.88,-182.67 987.3,-189.53"/>
</a>
</g>
</g>
<!-- Node25 -->
<g id="Node000025" class="node">
<title>Node25</title>
<g id="a_Node000025"><a xlink:title=" ">
<polygon fill="#e0e0e0" stroke="#999999" points="1233.5,-184 1108.5,-184 1108.5,-165 1233.5,-165 1233.5,-184"/>
<text text-anchor="middle" x="1171" y="-172" font-family="Helvetica,sans-Serif" font-size="10.00">imgui_impl_opengl3.h</text>
</a>
</g>
</g>
<!-- Node1&#45;&gt;Node25 -->
<g id="edge26_Node000001_Node000025" class="edge">
<title>Node1&#45;&gt;Node25</title>
<g id="a_edge26_Node000001_Node000025"><a xlink:title=" ">
<path fill="none" stroke="#63b8ff" d="M843.66,-219.98C913.17,-210.54 1025.15,-195.32 1098.42,-185.36"/>
<polygon fill="#63b8ff" stroke="#63b8ff" points="1099.06,-188.81 1108.5,-183.99 1098.11,-181.87 1099.06,-188.81"/>
</a>
</g>
</g>
<!-- Node26 -->
<g id="Node000026" class="node">
<title>Node26</title>
<g id="a_Node000026"><a xlink:title=" ">
<polygon fill="#e0e0e0" stroke="#999999" points="1304,-184 1252,-184 1252,-165 1304,-165 1304,-184"/>
<text text-anchor="middle" x="1278" y="-172" font-family="Helvetica,sans-Serif" font-size="10.00">cassert</text>
</a>
</g>
</g>
<!-- Node1&#45;&gt;Node26 -->
<g id="edge29_Node000001_Node000026" class="edge">
<title>Node1&#45;&gt;Node26</title>
<g id="a_edge29_Node000001_Node000026"><a xlink:title=" ">
<path fill="none" stroke="#63b8ff" d="M857.87,-224.45C947.76,-218.96 1101.12,-207.25 1241.62,-184"/>
<polygon fill="#63b8ff" stroke="#63b8ff" points="1242.43,-187.42 1251.71,-182.31 1241.27,-180.51 1242.43,-187.42"/>
</a>
</g>
</g>
<!-- Node3 -->
<g id="Node000003" class="node">
<title>Node3</title>
<g id="a_Node000003"><a xlink:href="BaseType_8h.html" target="_top" xlink:title=" ">
<polygon fill="white" stroke="#666666" points="362,-74 264,-74 264,-55 362,-55 362,-74"/>
<text text-anchor="middle" x="313" y="-62" font-family="Helvetica,sans-Serif" font-size="10.00">Core/BaseType.h</text>
</a>
</g>
</g>
<!-- Node2&#45;&gt;Node3 -->
<g id="edge2_Node000002_Node000003" class="edge">
<title>Node2&#45;&gt;Node3</title>
<g id="a_edge2_Node000002_Node000003"><a xlink:title=" ">
<path fill="none" stroke="#63b8ff" d="M313,-164.66C313,-147.17 313,-107.8 313,-84.27"/>
<polygon fill="#63b8ff" stroke="#63b8ff" points="316.5,-84.16 313,-74.16 309.5,-84.16 316.5,-84.16"/>
</a>
</g>
</g>
<!-- Node8 -->
<g id="Node000008" class="node">
<title>Node8</title>
<g id="a_Node000008"><a xlink:href="Layer_8h.html" target="_top" xlink:title=" ">
<polygon fill="white" stroke="#666666" points="564.5,-129 487.5,-129 487.5,-110 564.5,-110 564.5,-129"/>
<text text-anchor="middle" x="526" y="-117" font-family="Helvetica,sans-Serif" font-size="10.00">Core/Layer.h</text>
</a>
</g>
</g>
<!-- Node2&#45;&gt;Node8 -->
<g id="edge7_Node000002_Node000008" class="edge">
<title>Node2&#45;&gt;Node8</title>
<g id="a_edge7_Node000002_Node000008"><a xlink:title=" ">
<path fill="none" stroke="#63b8ff" d="M347.22,-164.98C383.76,-155.89 441.78,-141.46 481.76,-131.51"/>
<polygon fill="#63b8ff" stroke="#63b8ff" points="482.65,-134.89 491.51,-129.08 480.96,-128.1 482.65,-134.89"/>
</a>
</g>
</g>
<!-- Node10 -->
<g id="Node000010" class="node">
<title>Node10</title>
<g id="a_Node000010"><a xlink:href="Window_8h.html" target="_top" xlink:title=" ">
<polygon fill="white" stroke="#666666" points="430.5,-129 341.5,-129 341.5,-110 430.5,-110 430.5,-129"/>
<text text-anchor="middle" x="386" y="-117" font-family="Helvetica,sans-Serif" font-size="10.00">Core/Window.h</text>
</a>
</g>
</g>
<!-- Node2&#45;&gt;Node10 -->
<g id="edge9_Node000002_Node000010" class="edge">
<title>Node2&#45;&gt;Node10</title>
<g id="a_edge9_Node000002_Node000010"><a xlink:title=" ">
<path fill="none" stroke="#63b8ff" d="M324.73,-164.98C335.73,-157 352.42,-144.88 365.6,-135.31"/>
<polygon fill="#63b8ff" stroke="#63b8ff" points="368.02,-137.88 374.06,-129.17 363.91,-132.21 368.02,-137.88"/>
</a>
</g>
</g>
<!-- Node12 -->
<g id="Node000012" class="node">
<title>Node12</title>
<g id="a_Node000012"><a xlink:title=" ">
<polygon fill="#e0e0e0" stroke="#999999" points="453,-74 409,-74 409,-55 453,-55 453,-74"/>
<text text-anchor="middle" x="431" y="-62" font-family="Helvetica,sans-Serif" font-size="10.00">string</text>
</a>
</g>
</g>
<!-- Node2&#45;&gt;Node12 -->
<g id="edge16_Node000002_Node000012" class="edge">
<title>Node2&#45;&gt;Node12</title>
<g id="a_edge16_Node000002_Node000012"><a xlink:title=" ">
<path fill="none" stroke="#63b8ff" d="M366.02,-168.88C392.55,-163.57 422.45,-152.39 439,-129 448.31,-115.84 444.5,-97.21 439.45,-83.53"/>
<polygon fill="#63b8ff" stroke="#63b8ff" points="442.64,-82.08 435.55,-74.21 436.18,-84.79 442.64,-82.08"/>
</a>
</g>
</g>
<!-- Node13 -->
<g id="Node000013" class="node">
<title>Node13</title>
<g id="a_Node000013"><a xlink:title=" ">
<polygon fill="#e0e0e0" stroke="#999999" points="92.5,-129 27.5,-129 27.5,-110 92.5,-110 92.5,-129"/>
<text text-anchor="middle" x="60" y="-117" font-family="Helvetica,sans-Serif" font-size="10.00">functional</text>
</a>
</g>
</g>
<!-- Node2&#45;&gt;Node13 -->
<g id="edge13_Node000002_Node000013" class="edge">
<title>Node2&#45;&gt;Node13</title>
<g id="a_edge13_Node000002_Node000013"><a xlink:title=" ">
<path fill="none" stroke="#63b8ff" d="M272.35,-164.98C225.76,-155.23 149.76,-139.3 102.44,-129.39"/>
<polygon fill="#63b8ff" stroke="#63b8ff" points="103.01,-125.93 92.5,-127.31 101.57,-132.79 103.01,-125.93"/>
</a>
</g>
</g>
<!-- Node14 -->
<g id="Node000014" class="node">
<title>Node14</title>
<g id="a_Node000014"><a xlink:title=" ">
<polygon fill="#e0e0e0" stroke="#999999" points="169,-129 111,-129 111,-110 169,-110 169,-129"/>
<text text-anchor="middle" x="140" y="-117" font-family="Helvetica,sans-Serif" font-size="10.00">memory</text>
</a>
</g>
</g>
<!-- Node2&#45;&gt;Node14 -->
<g id="edge14_Node000002_Node000014" class="edge">
<title>Node2&#45;&gt;Node14</title>
<g id="a_edge14_Node000002_Node000014"><a xlink:title=" ">
<path fill="none" stroke="#63b8ff" d="M285.2,-164.98C256.03,-156.05 210,-141.94 177.6,-132.02"/>
<polygon fill="#63b8ff" stroke="#63b8ff" points="178.6,-128.66 168.01,-129.08 176.55,-135.36 178.6,-128.66"/>
</a>
</g>
</g>
<!-- Node15 -->
<g id="Node000015" class="node">
<title>Node15</title>
<g id="a_Node000015"><a xlink:title=" ">
<polygon fill="#e0e0e0" stroke="#999999" points="219,-129 187,-129 187,-110 219,-110 219,-129"/>
<text text-anchor="middle" x="203" y="-117" font-family="Helvetica,sans-Serif" font-size="10.00">set</text>
</a>
</g>
</g>
<!-- Node2&#45;&gt;Node15 -->
<g id="edge15_Node000002_Node000015" class="edge">
<title>Node2&#45;&gt;Node15</title>
<g id="a_edge15_Node000002_Node000015"><a xlink:title=" ">
<path fill="none" stroke="#63b8ff" d="M295.33,-164.98C277.19,-156.24 248.79,-142.56 228.28,-132.68"/>
<polygon fill="#63b8ff" stroke="#63b8ff" points="229.72,-129.49 219.2,-128.3 226.69,-135.8 229.72,-129.49"/>
</a>
</g>
</g>
<!-- Node16 -->
<g id="Node000016" class="node">
<title>Node16</title>
<g id="a_Node000016"><a xlink:title=" ">
<polygon fill="#e0e0e0" stroke="#999999" points="284.5,-129 237.5,-129 237.5,-110 284.5,-110 284.5,-129"/>
<text text-anchor="middle" x="261" y="-117" font-family="Helvetica,sans-Serif" font-size="10.00">vector</text>
</a>
</g>
</g>
<!-- Node2&#45;&gt;Node16 -->
<g id="edge17_Node000002_Node000016" class="edge">
<title>Node2&#45;&gt;Node16</title>
<g id="a_edge17_Node000002_Node000016"><a xlink:title=" ">
<path fill="none" stroke="#63b8ff" d="M304.41,-164.75C296.84,-157.03 285.62,-145.6 276.49,-136.28"/>
<polygon fill="#63b8ff" stroke="#63b8ff" points="278.93,-133.78 269.43,-129.09 273.93,-138.68 278.93,-133.78"/>
</a>
</g>
</g>
<!-- Node3&#45;&gt;Node4 -->
<g id="edge3_Node000003_Node000004" class="edge">
<title>Node3&#45;&gt;Node4</title>
<g id="a_edge3_Node000003_Node000004"><a xlink:title=" ">
<path fill="none" stroke="#63b8ff" d="M268.98,-54.98C219.48,-45.41 139.33,-29.91 87.91,-19.96"/>
<polygon fill="#63b8ff" stroke="#63b8ff" points="88.52,-16.51 78.03,-18.05 87.19,-23.39 88.52,-16.51"/>
</a>
</g>
</g>
<!-- Node5 -->
<g id="Node000005" class="node">
<title>Node5</title>
<g id="a_Node000005"><a xlink:title=" ">
<polygon fill="#e0e0e0" stroke="#999999" points="383.5,-19 242.5,-19 242.5,0 383.5,0 383.5,-19"/>
<text text-anchor="middle" x="313" y="-7" font-family="Helvetica,sans-Serif" font-size="10.00">glm/gtx/vector_angle.hpp</text>
</a>
</g>
</g>
<!-- Node3&#45;&gt;Node5 -->
<g id="edge4_Node000003_Node000005" class="edge">
<title>Node3&#45;&gt;Node5</title>
<g id="a_edge4_Node000003_Node000005"><a xlink:title=" ">
<path fill="none" stroke="#63b8ff" d="M313,-54.75C313,-47.8 313,-37.85 313,-29.13"/>
<polygon fill="#63b8ff" stroke="#63b8ff" points="316.5,-29.09 313,-19.09 309.5,-29.09 316.5,-29.09"/>
</a>
</g>
</g>
<!-- Node6 -->
<g id="Node000006" class="node">
<title>Node6</title>
<g id="a_Node000006"><a xlink:title=" ">
<polygon fill="#e0e0e0" stroke="#999999" points="446,-19 402,-19 402,0 446,0 446,-19"/>
<text text-anchor="middle" x="424" y="-7" font-family="Helvetica,sans-Serif" font-size="10.00">bitset</text>
</a>
</g>
</g>
<!-- Node3&#45;&gt;Node6 -->
<g id="edge5_Node000003_Node000006" class="edge">
<title>Node3&#45;&gt;Node6</title>
<g id="a_edge5_Node000003_Node000006"><a xlink:title=" ">
<path fill="none" stroke="#63b8ff" d="M330.83,-54.98C348.61,-46.5 376.15,-33.35 396.68,-23.54"/>
<polygon fill="#63b8ff" stroke="#63b8ff" points="398.33,-26.64 405.84,-19.17 395.31,-20.32 398.33,-26.64"/>
</a>
</g>
</g>
<!-- Node7 -->
<g id="Node000007" class="node">
<title>Node7</title>
<g id="a_Node000007"><a xlink:title=" ">
<polygon fill="#e0e0e0" stroke="#999999" points="224,-19 174,-19 174,0 224,0 224,-19"/>
<text text-anchor="middle" x="199" y="-7" font-family="Helvetica,sans-Serif" font-size="10.00">cstdint</text>
</a>
</g>
</g>
<!-- Node3&#45;&gt;Node7 -->
<g id="edge6_Node000003_Node000007" class="edge">
<title>Node3&#45;&gt;Node7</title>
<g id="a_edge6_Node000003_Node000007"><a xlink:title=" ">
<path fill="none" stroke="#63b8ff" d="M294.68,-54.98C276.34,-46.46 247.89,-33.23 226.77,-23.41"/>
<polygon fill="#63b8ff" stroke="#63b8ff" points="228.19,-20.21 217.65,-19.17 225.24,-26.56 228.19,-20.21"/>
</a>
</g>
</g>
<!-- Node9 -->
<g id="Node000009" class="node">
<title>Node9</title>
<g id="a_Node000009"><a xlink:href="Event_8h.html" target="_top" xlink:title=" ">
<polygon fill="white" stroke="#666666" points="552.5,-74 499.5,-74 499.5,-55 552.5,-55 552.5,-74"/>
<text text-anchor="middle" x="526" y="-62" font-family="Helvetica,sans-Serif" font-size="10.00">Event.h</text>
</a>
</g>
</g>
<!-- Node8&#45;&gt;Node9 -->
<g id="edge8_Node000008_Node000009" class="edge">
<title>Node8&#45;&gt;Node9</title>
<g id="a_edge8_Node000008_Node000009"><a xlink:title=" ">
<path fill="none" stroke="#63b8ff" d="M526,-109.75C526,-102.8 526,-92.85 526,-84.13"/>
<polygon fill="#63b8ff" stroke="#63b8ff" points="529.5,-84.09 526,-74.09 522.5,-84.09 529.5,-84.09"/>
</a>
</g>
</g>
<!-- Node10&#45;&gt;Node3 -->
<g id="edge10_Node000010_Node000003" class="edge">
<title>Node10&#45;&gt;Node3</title>
<g id="a_edge10_Node000010_Node000003"><a xlink:title=" ">
<path fill="none" stroke="#63b8ff" d="M374.27,-109.98C363.27,-102 346.58,-89.88 333.4,-80.31"/>
<polygon fill="#63b8ff" stroke="#63b8ff" points="335.09,-77.21 324.94,-74.17 330.98,-82.88 335.09,-77.21"/>
</a>
</g>
</g>
<!-- Node10&#45;&gt;Node11 -->
<g id="edge11_Node000010_Node000011" class="edge">
<title>Node10&#45;&gt;Node11</title>
<g id="a_edge11_Node000010_Node000011"><a xlink:title=" ">
<path fill="none" stroke="#63b8ff" d="M342.94,-109.98C295.74,-100.65 220.03,-85.68 169.66,-75.72"/>
<polygon fill="#63b8ff" stroke="#63b8ff" points="170.12,-72.24 159.63,-73.73 168.76,-79.11 170.12,-72.24"/>
</a>
</g>
</g>
<!-- Node10&#45;&gt;Node12 -->
<g id="edge12_Node000010_Node000012" class="edge">
<title>Node10&#45;&gt;Node12</title>
<g id="a_edge12_Node000010_Node000012"><a xlink:title=" ">
<path fill="none" stroke="#63b8ff" d="M393.43,-109.75C399.85,-102.18 409.31,-91.05 417.12,-81.84"/>
<polygon fill="#63b8ff" stroke="#63b8ff" points="419.9,-83.98 423.71,-74.09 414.57,-79.45 419.9,-83.98"/>
</a>
</g>
</g>
<!-- Node18 -->
<g id="Node000018" class="node">
<title>Node18</title>
<g id="a_Node000018"><a xlink:title=" ">
<polygon fill="#e0e0e0" stroke="#999999" points="633,-129 583,-129 583,-110 633,-110 633,-129"/>
<text text-anchor="middle" x="608" y="-117" font-family="Helvetica,sans-Serif" font-size="10.00">format</text>
</a>
</g>
</g>
<!-- Node17&#45;&gt;Node18 -->
<g id="edge19_Node000017_Node000018" class="edge">
<title>Node17&#45;&gt;Node18</title>
<g id="a_edge19_Node000017_Node000018"><a xlink:title=" ">
<path fill="none" stroke="#63b8ff" d="M643.06,-164.75C637.13,-157.26 628.43,-146.28 621.18,-137.13"/>
<polygon fill="#63b8ff" stroke="#63b8ff" points="623.76,-134.75 614.81,-129.09 618.27,-139.1 623.76,-134.75"/>
</a>
</g>
</g>
<!-- Node17&#45;&gt;Node19 -->
<g id="edge20_Node000017_Node000019" class="edge">
<title>Node17&#45;&gt;Node19</title>
<g id="a_edge20_Node000017_Node000019"><a xlink:title=" ">
<path fill="none" stroke="#63b8ff" d="M672.98,-164.98C696.5,-156.27 733.29,-142.63 759.94,-132.75"/>
<polygon fill="#63b8ff" stroke="#63b8ff" points="761.45,-135.93 769.61,-129.17 759.01,-129.36 761.45,-135.93"/>
</a>
</g>
</g>
<!-- Node20 -->
<g id="Node000020" class="node">
<title>Node20</title>
<g id="a_Node000020"><a xlink:title=" ">
<polygon fill="#e0e0e0" stroke="#999999" points="744.5,-129 651.5,-129 651.5,-110 744.5,-110 744.5,-129"/>
<text text-anchor="middle" x="698" y="-117" font-family="Helvetica,sans-Serif" font-size="10.00">source_location</text>
</a>
</g>
</g>
<!-- Node17&#45;&gt;Node20 -->
<g id="edge21_Node000017_Node000020" class="edge">
<title>Node17&#45;&gt;Node20</title>
<g id="a_edge21_Node000017_Node000020"><a xlink:title=" ">
<path fill="none" stroke="#63b8ff" d="M657.93,-164.75C664.85,-157.11 675.07,-145.82 683.45,-136.56"/>
<polygon fill="#63b8ff" stroke="#63b8ff" points="686.1,-138.85 690.22,-129.09 680.91,-134.15 686.1,-138.85"/>
</a>
</g>
</g>
<!-- Node22 -->
<g id="Node000022" class="node">
<title>Node22</title>
<g id="a_Node000022"><a xlink:title=" ">
<polygon fill="#e0e0e0" stroke="#999999" points="900.5,-129 841.5,-129 841.5,-110 900.5,-110 900.5,-129"/>
<text text-anchor="middle" x="871" y="-117" font-family="Helvetica,sans-Serif" font-size="10.00">glad/gl.h</text>
</a>
</g>
</g>
<!-- Node21&#45;&gt;Node22 -->
<g id="edge23_Node000021_Node000022" class="edge">
<title>Node21&#45;&gt;Node22</title>
<g id="a_edge23_Node000021_Node000022"><a xlink:title=" ">
<path fill="none" stroke="#63b8ff" d="M835.94,-164.75C841.87,-157.26 850.57,-146.28 857.82,-137.13"/>
<polygon fill="#63b8ff" stroke="#63b8ff" points="860.73,-139.1 864.19,-129.09 855.24,-134.75 860.73,-139.1"/>
</a>
</g>
</g>
</g>
</svg>
