<?xml version="1.0" encoding="UTF-8" standalone="no"?>
<!DOCTYPE svg PUBLIC "-//W3C//DTD SVG 1.1//EN"
 "http://www.w3.org/Graphics/SVG/1.1/DTD/svg11.dtd">
<!-- Generated by graphviz version 2.43.0 (0)
 -->
<!-- Title: Core/Source/Application.cpp Pages: 1 -->
<svg width="1257pt" height="192pt"
 viewBox="0.00 0.00 1256.50 192.00" xmlns="http://www.w3.org/2000/svg" xmlns:xlink="http://www.w3.org/1999/xlink">
<g id="graph0" class="graph" transform="scale(1 1) rotate(0) translate(4 188)">
<title>Core/Source/Application.cpp</title>
<!-- Node1 -->
<g id="Node000001" class="node">
<title>Node1</title>
<g id="a_Node000001"><a xlink:title=" ">
<polygon fill="#999999" stroke="#666666" points="884,-184 731,-184 731,-165 884,-165 884,-184"/>
<text text-anchor="middle" x="807.5" y="-172" font-family="Helvetica,sans-Serif" font-size="10.00">Core/Source/Application.cpp</text>
</a>
</g>
</g>
<!-- Node2 -->
<g id="Node000002" class="node">
<title>Node2</title>
<g id="a_Node000002"><a xlink:href="Application_8h.html" target="_top" xlink:title=" ">
<polygon fill="white" stroke="#666666" points="379.5,-129 273.5,-129 273.5,-110 379.5,-110 379.5,-129"/>
<text text-anchor="middle" x="326.5" y="-117" font-family="Helvetica,sans-Serif" font-size="10.00">Core/Application.h</text>
</a>
</g>
</g>
<!-- Node1&#45;&gt;Node2 -->
<g id="edge1_Node000001_Node000002" class="edge">
<title>Node1&#45;&gt;Node2</title>
<g id="a_edge1_Node000001_Node000002"><a xlink:title=" ">
<path fill="none" stroke="#63b8ff" d="M730.75,-165.04C636.23,-154.63 477.43,-137.13 389.63,-127.46"/>
<polygon fill="#63b8ff" stroke="#63b8ff" points="389.87,-123.96 379.55,-126.34 389.1,-130.92 389.87,-123.96"/>
</a>
</g>
</g>
<!-- Node6 -->
<g id="Node000006" class="node">
<title>Node6</title>
<g id="a_Node000006"><a xlink:title=" ">
<polygon fill="#e0e0e0" stroke="#999999" points="417,-19 334,-19 334,0 417,0 417,-19"/>
<text text-anchor="middle" x="375.5" y="-7" font-family="Helvetica,sans-Serif" font-size="10.00">GLFW/glfw3.h</text>
</a>
</g>
</g>
<!-- Node1&#45;&gt;Node6 -->
<g id="edge19_Node000001_Node000006" class="edge">
<title>Node1&#45;&gt;Node6</title>
<g id="a_edge19_Node000001_Node000006"><a xlink:title=" ">
<path fill="none" stroke="#63b8ff" d="M730.79,-165.79C690.03,-159.6 639.93,-148.55 598.5,-129 550.73,-106.46 551.83,-80.37 505.5,-55 478.81,-40.38 446.44,-29.29 420.68,-21.83"/>
<polygon fill="#63b8ff" stroke="#63b8ff" points="421.37,-18.39 410.79,-19.05 419.47,-25.13 421.37,-18.39"/>
</a>
</g>
</g>
<!-- Node7 -->
<g id="Node000007" class="node">
<title>Node7</title>
<g id="a_Node000007"><a xlink:title=" ">
<polygon fill="#e0e0e0" stroke="#999999" points="563.5,-19 485.5,-19 485.5,0 563.5,0 563.5,-19"/>
<text text-anchor="middle" x="524.5" y="-7" font-family="Helvetica,sans-Serif" font-size="10.00">glm/glm.hpp</text>
</a>
</g>
</g>
<!-- Node1&#45;&gt;Node7 -->
<g id="edge20_Node000001_Node000007" class="edge">
<title>Node1&#45;&gt;Node7</title>
<g id="a_edge20_Node000001_Node000007"><a xlink:title=" ">
<path fill="none" stroke="#63b8ff" d="M730.68,-169.28C694.07,-163.98 651.42,-152.69 619.5,-129 588.95,-106.33 600.85,-84.22 576.5,-55 567.23,-43.87 555,-33.26 544.73,-25.18"/>
<polygon fill="#63b8ff" stroke="#63b8ff" points="546.75,-22.32 536.67,-19.05 542.51,-27.89 546.75,-22.32"/>
</a>
</g>
</g>
<!-- Node13 -->
<g id="Node000013" class="node">
<title>Node13</title>
<g id="a_Node000013"><a xlink:href="GLUtils_8h.html" target="_top" xlink:title=" ">
<polygon fill="white" stroke="#666666" points="762.5,-129 628.5,-129 628.5,-110 762.5,-110 762.5,-129"/>
<text text-anchor="middle" x="695.5" y="-117" font-family="Helvetica,sans-Serif" font-size="10.00">Core/Renderer/GLUtils.h</text>
</a>
</g>
</g>
<!-- Node1&#45;&gt;Node13 -->
<g id="edge14_Node000001_Node000013" class="edge">
<title>Node1&#45;&gt;Node13</title>
<g id="a_edge14_Node000001_Node000013"><a xlink:title=" ">
<path fill="none" stroke="#63b8ff" d="M789.51,-164.98C771.57,-156.5 743.78,-143.35 723.07,-133.54"/>
<polygon fill="#63b8ff" stroke="#63b8ff" points="724.36,-130.28 713.82,-129.17 721.36,-136.61 724.36,-130.28"/>
</a>
</g>
</g>
<!-- Node15 -->
<g id="Node000015" class="node">
<title>Node15</title>
<g id="a_Node000015"><a xlink:title=" ">
<polygon fill="#e0e0e0" stroke="#999999" points="834,-129 781,-129 781,-110 834,-110 834,-129"/>
<text text-anchor="middle" x="807.5" y="-117" font-family="Helvetica,sans-Serif" font-size="10.00">imgui.h</text>
</a>
</g>
</g>
<!-- Node1&#45;&gt;Node15 -->
<g id="edge16_Node000001_Node000015" class="edge">
<title>Node1&#45;&gt;Node15</title>
<g id="a_edge16_Node000001_Node000015"><a xlink:title=" ">
<path fill="none" stroke="#63b8ff" d="M807.5,-164.75C807.5,-157.8 807.5,-147.85 807.5,-139.13"/>
<polygon fill="#63b8ff" stroke="#63b8ff" points="811,-139.09 807.5,-129.09 804,-139.09 811,-139.09"/>
</a>
</g>
</g>
<!-- Node16 -->
<g id="Node000016" class="node">
<title>Node16</title>
<g id="a_Node000016"><a xlink:title=" ">
<polygon fill="#e0e0e0" stroke="#999999" points="957,-129 852,-129 852,-110 957,-110 957,-129"/>
<text text-anchor="middle" x="904.5" y="-117" font-family="Helvetica,sans-Serif" font-size="10.00">imgui_impl_glfw.h</text>
</a>
</g>
</g>
<!-- Node1&#45;&gt;Node16 -->
<g id="edge17_Node000001_Node000016" class="edge">
<title>Node1&#45;&gt;Node16</title>
<g id="a_edge17_Node000001_Node000016"><a xlink:title=" ">
<path fill="none" stroke="#63b8ff" d="M823.08,-164.98C838.27,-156.69 861.6,-143.94 879.4,-134.22"/>
<polygon fill="#63b8ff" stroke="#63b8ff" points="881.53,-137.04 888.63,-129.17 878.18,-130.89 881.53,-137.04"/>
</a>
</g>
</g>
<!-- Node17 -->
<g id="Node000017" class="node">
<title>Node17</title>
<g id="a_Node000017"><a xlink:title=" ">
<polygon fill="#e0e0e0" stroke="#999999" points="1100,-129 975,-129 975,-110 1100,-110 1100,-129"/>
<text text-anchor="middle" x="1037.5" y="-117" font-family="Helvetica,sans-Serif" font-size="10.00">imgui_impl_opengl3.h</text>
</a>
</g>
</g>
<!-- Node1&#45;&gt;Node17 -->
<g id="edge18_Node000001_Node000017" class="edge">
<title>Node1&#45;&gt;Node17</title>
<g id="a_edge18_Node000001_Node000017"><a xlink:title=" ">
<path fill="none" stroke="#63b8ff" d="M844.45,-164.98C884.07,-155.86 947.09,-141.33 990.27,-131.38"/>
<polygon fill="#63b8ff" stroke="#63b8ff" points="991.3,-134.74 1000.26,-129.08 989.73,-127.92 991.3,-134.74"/>
</a>
</g>
</g>
<!-- Node18 -->
<g id="Node000018" class="node">
<title>Node18</title>
<g id="a_Node000018"><a xlink:title=" ">
<polygon fill="#e0e0e0" stroke="#999999" points="1170.5,-129 1118.5,-129 1118.5,-110 1170.5,-110 1170.5,-129"/>
<text text-anchor="middle" x="1144.5" y="-117" font-family="Helvetica,sans-Serif" font-size="10.00">cassert</text>
</a>
</g>
</g>
<!-- Node1&#45;&gt;Node18 -->
<g id="edge21_Node000001_Node000018" class="edge">
<title>Node1&#45;&gt;Node18</title>
<g id="a_edge21_Node000001_Node000018"><a xlink:title=" ">
<path fill="none" stroke="#63b8ff" d="M877.99,-164.98C937.05,-157.41 1023.78,-145.31 1108.17,-129.11"/>
<polygon fill="#63b8ff" stroke="#63b8ff" points="1109.03,-132.51 1118.18,-127.17 1107.7,-125.64 1109.03,-132.51"/>
</a>
</g>
</g>
<!-- Node19 -->
<g id="Node000019" class="node">
<title>Node19</title>
<g id="a_Node000019"><a xlink:title=" ">
<polygon fill="#e0e0e0" stroke="#999999" points="1248.5,-129 1188.5,-129 1188.5,-110 1248.5,-110 1248.5,-129"/>
<text text-anchor="middle" x="1218.5" y="-117" font-family="Helvetica,sans-Serif" font-size="10.00">iostream</text>
</a>
</g>
</g>
<!-- Node1&#45;&gt;Node19 -->
<g id="edge22_Node000001_Node000019" class="edge">
<title>Node1&#45;&gt;Node19</title>
<g id="a_edge22_Node000001_Node000019"><a xlink:title=" ">
<path fill="none" stroke="#63b8ff" d="M884.04,-166.5C957.18,-159.32 1070.71,-146.9 1178.27,-129.06"/>
<polygon fill="#63b8ff" stroke="#63b8ff" points="1179.04,-132.48 1188.32,-127.38 1177.88,-125.58 1179.04,-132.48"/>
</a>
</g>
</g>
<!-- Node3 -->
<g id="Node000003" class="node">
<title>Node3</title>
<g id="a_Node000003"><a xlink:href="Layer_8h.html" target="_top" xlink:title=" ">
<polygon fill="white" stroke="#666666" points="142,-74 65,-74 65,-55 142,-55 142,-74"/>
<text text-anchor="middle" x="103.5" y="-62" font-family="Helvetica,sans-Serif" font-size="10.00">Core/Layer.h</text>
</a>
</g>
</g>
<!-- Node2&#45;&gt;Node3 -->
<g id="edge2_Node000002_Node000003" class="edge">
<title>Node2&#45;&gt;Node3</title>
<g id="a_edge2_Node000002_Node000003"><a xlink:title=" ">
<path fill="none" stroke="#63b8ff" d="M290.67,-109.98C252.34,-100.87 191.42,-86.4 149.55,-76.45"/>
<polygon fill="#63b8ff" stroke="#63b8ff" points="150.15,-72.99 139.61,-74.08 148.53,-79.8 150.15,-72.99"/>
</a>
</g>
</g>
<!-- Node5 -->
<g id="Node000005" class="node">
<title>Node5</title>
<g id="a_Node000005"><a xlink:href="Window_8h.html" target="_top" xlink:title=" ">
<polygon fill="white" stroke="#666666" points="371,-74 282,-74 282,-55 371,-55 371,-74"/>
<text text-anchor="middle" x="326.5" y="-62" font-family="Helvetica,sans-Serif" font-size="10.00">Core/Window.h</text>
</a>
</g>
</g>
<!-- Node2&#45;&gt;Node5 -->
<g id="edge4_Node000002_Node000005" class="edge">
<title>Node2&#45;&gt;Node5</title>
<g id="a_edge4_Node000002_Node000005"><a xlink:title=" ">
<path fill="none" stroke="#63b8ff" d="M326.5,-109.75C326.5,-102.8 326.5,-92.85 326.5,-84.13"/>
<polygon fill="#63b8ff" stroke="#63b8ff" points="330,-84.09 326.5,-74.09 323,-84.09 330,-84.09"/>
</a>
</g>
</g>
<!-- Node2&#45;&gt;Node7 -->
<g id="edge8_Node000002_Node000007" class="edge">
<title>Node2&#45;&gt;Node7</title>
<g id="a_edge8_Node000002_Node000007"><a xlink:title=" ">
<path fill="none" stroke="#63b8ff" d="M379.72,-111.19C425.71,-103.83 487.54,-91.13 505.5,-74 517.59,-62.47 522.08,-43.59 523.7,-29.41"/>
<polygon fill="#63b8ff" stroke="#63b8ff" points="527.2,-29.51 524.47,-19.28 520.22,-28.98 527.2,-29.51"/>
</a>
</g>
</g>
<!-- Node8 -->
<g id="Node000008" class="node">
<title>Node8</title>
<g id="a_Node000008"><a xlink:title=" ">
<polygon fill="#e0e0e0" stroke="#999999" points="278.5,-19 234.5,-19 234.5,0 278.5,0 278.5,-19"/>
<text text-anchor="middle" x="256.5" y="-7" font-family="Helvetica,sans-Serif" font-size="10.00">string</text>
</a>
</g>
</g>
<!-- Node2&#45;&gt;Node8 -->
<g id="edge12_Node000002_Node000008" class="edge">
<title>Node2&#45;&gt;Node8</title>
<g id="a_edge12_Node000002_Node000008"><a xlink:title=" ">
<path fill="none" stroke="#63b8ff" d="M273.49,-115.89C243.64,-111.36 208.61,-100.3 189.5,-74 175.11,-54.2 201.74,-35.42 225.56,-23.5"/>
<polygon fill="#63b8ff" stroke="#63b8ff" points="227.26,-26.57 234.8,-19.12 224.26,-20.24 227.26,-26.57"/>
</a>
</g>
</g>
<!-- Node9 -->
<g id="Node000009" class="node">
<title>Node9</title>
<g id="a_Node000009"><a xlink:title=" ">
<polygon fill="#e0e0e0" stroke="#999999" points="264,-74 199,-74 199,-55 264,-55 264,-74"/>
<text text-anchor="middle" x="231.5" y="-62" font-family="Helvetica,sans-Serif" font-size="10.00">functional</text>
</a>
</g>
</g>
<!-- Node2&#45;&gt;Node9 -->
<g id="edge9_Node000002_Node000009" class="edge">
<title>Node2&#45;&gt;Node9</title>
<g id="a_edge9_Node000002_Node000009"><a xlink:title=" ">
<path fill="none" stroke="#63b8ff" d="M311.24,-109.98C296.37,-101.69 273.52,-88.94 256.08,-79.22"/>
<polygon fill="#63b8ff" stroke="#63b8ff" points="257.48,-75.99 247.04,-74.17 254.07,-82.1 257.48,-75.99"/>
</a>
</g>
</g>
<!-- Node10 -->
<g id="Node000010" class="node">
<title>Node10</title>
<g id="a_Node000010"><a xlink:title=" ">
<polygon fill="#e0e0e0" stroke="#999999" points="446.5,-74 388.5,-74 388.5,-55 446.5,-55 446.5,-74"/>
<text text-anchor="middle" x="417.5" y="-62" font-family="Helvetica,sans-Serif" font-size="10.00">memory</text>
</a>
</g>
</g>
<!-- Node2&#45;&gt;Node10 -->
<g id="edge10_Node000002_Node000010" class="edge">
<title>Node2&#45;&gt;Node10</title>
<g id="a_edge10_Node000002_Node000010"><a xlink:title=" ">
<path fill="none" stroke="#63b8ff" d="M341.12,-109.98C355.36,-101.69 377.25,-88.94 393.95,-79.22"/>
<polygon fill="#63b8ff" stroke="#63b8ff" points="395.73,-82.23 402.61,-74.17 392.21,-76.18 395.73,-82.23"/>
</a>
</g>
</g>
<!-- Node11 -->
<g id="Node000011" class="node">
<title>Node11</title>
<g id="a_Node000011"><a xlink:title=" ">
<polygon fill="#e0e0e0" stroke="#999999" points="496.5,-74 464.5,-74 464.5,-55 496.5,-55 496.5,-74"/>
<text text-anchor="middle" x="480.5" y="-62" font-family="Helvetica,sans-Serif" font-size="10.00">set</text>
</a>
</g>
</g>
<!-- Node2&#45;&gt;Node11 -->
<g id="edge11_Node000002_Node000011" class="edge">
<title>Node2&#45;&gt;Node11</title>
<g id="a_edge11_Node000002_Node000011"><a xlink:title=" ">
<path fill="none" stroke="#63b8ff" d="M351.24,-109.98C379.56,-100.24 425.74,-84.35 454.56,-74.43"/>
<polygon fill="#63b8ff" stroke="#63b8ff" points="456.01,-77.63 464.32,-71.07 453.73,-71.01 456.01,-77.63"/>
</a>
</g>
</g>
<!-- Node12 -->
<g id="Node000012" class="node">
<title>Node12</title>
<g id="a_Node000012"><a xlink:title=" ">
<polygon fill="#e0e0e0" stroke="#999999" points="47,-74 0,-74 0,-55 47,-55 47,-74"/>
<text text-anchor="middle" x="23.5" y="-62" font-family="Helvetica,sans-Serif" font-size="10.00">vector</text>
</a>
</g>
</g>
<!-- Node2&#45;&gt;Node12 -->
<g id="edge13_Node000002_Node000012" class="edge">
<title>Node2&#45;&gt;Node12</title>
<g id="a_edge13_Node000002_Node000012"><a xlink:title=" ">
<path fill="none" stroke="#63b8ff" d="M273.25,-111.31C220.54,-103.85 137.37,-91.13 56.99,-74.16"/>
<polygon fill="#63b8ff" stroke="#63b8ff" points="57.71,-70.74 47.2,-72.07 56.25,-77.58 57.71,-70.74"/>
</a>
</g>
</g>
<!-- Node4 -->
<g id="Node000004" class="node">
<title>Node4</title>
<g id="a_Node000004"><a xlink:href="Event_8h.html" target="_top" xlink:title=" ">
<polygon fill="white" stroke="#666666" points="130,-19 77,-19 77,0 130,0 130,-19"/>
<text text-anchor="middle" x="103.5" y="-7" font-family="Helvetica,sans-Serif" font-size="10.00">Event.h</text>
</a>
</g>
</g>
<!-- Node3&#45;&gt;Node4 -->
<g id="edge3_Node000003_Node000004" class="edge">
<title>Node3&#45;&gt;Node4</title>
<g id="a_edge3_Node000003_Node000004"><a xlink:title=" ">
<path fill="none" stroke="#63b8ff" d="M103.5,-54.75C103.5,-47.8 103.5,-37.85 103.5,-29.13"/>
<polygon fill="#63b8ff" stroke="#63b8ff" points="107,-29.09 103.5,-19.09 100,-29.09 107,-29.09"/>
</a>
</g>
</g>
<!-- Node5&#45;&gt;Node6 -->
<g id="edge5_Node000005_Node000006" class="edge">
<title>Node5&#45;&gt;Node6</title>
<g id="a_edge5_Node000005_Node000006"><a xlink:title=" ">
<path fill="none" stroke="#63b8ff" d="M334.59,-54.75C341.66,-47.11 352.09,-35.82 360.65,-26.56"/>
<polygon fill="#63b8ff" stroke="#63b8ff" points="363.34,-28.81 367.56,-19.09 358.2,-24.06 363.34,-28.81"/>
</a>
</g>
</g>
<!-- Node5&#45;&gt;Node7 -->
<g id="edge6_Node000005_Node000007" class="edge">
<title>Node5&#45;&gt;Node7</title>
<g id="a_edge6_Node000005_Node000007"><a xlink:title=" ">
<path fill="none" stroke="#63b8ff" d="M358.31,-54.98C391.99,-45.97 445.3,-31.7 482.42,-21.76"/>
<polygon fill="#63b8ff" stroke="#63b8ff" points="483.68,-25.05 492.44,-19.08 481.87,-18.29 483.68,-25.05"/>
</a>
</g>
</g>
<!-- Node5&#45;&gt;Node8 -->
<g id="edge7_Node000005_Node000008" class="edge">
<title>Node5&#45;&gt;Node8</title>
<g id="a_edge7_Node000005_Node000008"><a xlink:title=" ">
<path fill="none" stroke="#63b8ff" d="M315.25,-54.98C304.7,-47 288.7,-34.88 276.06,-25.31"/>
<polygon fill="#63b8ff" stroke="#63b8ff" points="278.04,-22.42 267.95,-19.17 273.81,-28 278.04,-22.42"/>
</a>
</g>
</g>
<!-- Node14 -->
<g id="Node000014" class="node">
<title>Node14</title>
<g id="a_Node000014"><a xlink:title=" ">
<polygon fill="#e0e0e0" stroke="#999999" points="725,-74 666,-74 666,-55 725,-55 725,-74"/>
<text text-anchor="middle" x="695.5" y="-62" font-family="Helvetica,sans-Serif" font-size="10.00">glad/gl.h</text>
</a>
</g>
</g>
<!-- Node13&#45;&gt;Node14 -->
<g id="edge15_Node000013_Node000014" class="edge">
<title>Node13&#45;&gt;Node14</title>
<g id="a_edge15_Node000013_Node000014"><a xlink:title=" ">
<path fill="none" stroke="#63b8ff" d="M695.5,-109.75C695.5,-102.8 695.5,-92.85 695.5,-84.13"/>
<polygon fill="#63b8ff" stroke="#63b8ff" points="699,-84.09 695.5,-74.09 692,-84.09 699,-84.09"/>
</a>
</g>
</g>
</g>
</svg>
