<?xml version="1.0" encoding="UTF-8" standalone="no"?>
<!DOCTYPE svg PUBLIC "-//W3C//DTD SVG 1.1//EN"
 "http://www.w3.org/Graphics/SVG/1.1/DTD/svg11.dtd">
<!-- Generated by graphviz version 2.43.0 (0)
 -->
<!-- Title: Core/Include/Core/Application.h Pages: 1 -->
<svg width="470pt" height="82pt"
 viewBox="0.00 0.00 469.50 82.00" xmlns="http://www.w3.org/2000/svg" xmlns:xlink="http://www.w3.org/1999/xlink">
<g id="graph0" class="graph" transform="scale(1 1) rotate(0) translate(4 78)">
<title>Core/Include/Core/Application.h</title>
<!-- Node1 -->
<g id="Node000001" class="node">
<title>Node1</title>
<g id="a_Node000001"><a xlink:title=" ">
<polygon fill="#999999" stroke="#666666" points="309,-74 139,-74 139,-55 309,-55 309,-74"/>
<text text-anchor="middle" x="224" y="-62" font-family="Helvetica,sans-Serif" font-size="10.00">Core/Include/Core/Application.h</text>
</a>
</g>
</g>
<!-- Node2 -->
<g id="Node000002" class="node">
<title>Node2</title>
<g id="a_Node000002"><a xlink:href="AppLayer_8cpp.html" target="_top" xlink:title=" ">
<polygon fill="white" stroke="#666666" points="140,-19 0,-19 0,0 140,0 140,-19"/>
<text text-anchor="middle" x="70" y="-7" font-family="Helvetica,sans-Serif" font-size="10.00">App/Source/AppLayer.cpp</text>
</a>
</g>
</g>
<!-- Node1&#45;&gt;Node2 -->
<g id="edge1_Node000001_Node000002" class="edge">
<title>Node1&#45;&gt;Node2</title>
<g id="a_edge1_Node000001_Node000002"><a xlink:title=" ">
<path fill="none" stroke="#63b8ff" d="M189.62,-51.67C160.91,-41.79 120.64,-27.93 94.94,-19.08"/>
<polygon fill="#63b8ff" stroke="#63b8ff" points="188.66,-55.04 199.26,-54.98 190.94,-48.42 188.66,-55.04"/>
</a>
</g>
</g>
<!-- Node3 -->
<g id="Node000003" class="node">
<title>Node3</title>
<g id="a_Node000003"><a xlink:href="RunApp_8cpp.html" target="_top" xlink:title=" ">
<polygon fill="white" stroke="#666666" points="290,-19 158,-19 158,0 290,0 290,-19"/>
<text text-anchor="middle" x="224" y="-7" font-family="Helvetica,sans-Serif" font-size="10.00">App/Source/RunApp.cpp</text>
</a>
</g>
</g>
<!-- Node1&#45;&gt;Node3 -->
<g id="edge2_Node000001_Node000003" class="edge">
<title>Node1&#45;&gt;Node3</title>
<g id="a_edge2_Node000001_Node000003"><a xlink:title=" ">
<path fill="none" stroke="#63b8ff" d="M224,-44.66C224,-35.93 224,-25.99 224,-19.09"/>
<polygon fill="#63b8ff" stroke="#63b8ff" points="220.5,-44.75 224,-54.75 227.5,-44.75 220.5,-44.75"/>
</a>
</g>
</g>
<!-- Node4 -->
<g id="Node000004" class="node">
<title>Node4</title>
<g id="a_Node000004"><a xlink:href="Application_8cpp.html" target="_top" xlink:title=" ">
<polygon fill="white" stroke="#666666" points="461.5,-19 308.5,-19 308.5,0 461.5,0 461.5,-19"/>
<text text-anchor="middle" x="385" y="-7" font-family="Helvetica,sans-Serif" font-size="10.00">Core/Source/Application.cpp</text>
</a>
</g>
</g>
<!-- Node1&#45;&gt;Node4 -->
<g id="edge3_Node000001_Node000004" class="edge">
<title>Node1&#45;&gt;Node4</title>
<g id="a_edge3_Node000001_Node000004"><a xlink:title=" ">
<path fill="none" stroke="#63b8ff" d="M259.55,-51.8C289.59,-41.91 331.94,-27.97 358.93,-19.08"/>
<polygon fill="#63b8ff" stroke="#63b8ff" points="258.27,-48.53 249.87,-54.98 260.46,-55.18 258.27,-48.53"/>
</a>
</g>
</g>
</g>
</svg>
