<?xml version="1.0" encoding="UTF-8" standalone="no"?>
<!DOCTYPE svg PUBLIC "-//W3C//DTD SVG 1.1//EN"
 "http://www.w3.org/Graphics/SVG/1.1/DTD/svg11.dtd">
<!-- Generated by graphviz version 2.43.0 (0)
 -->
<!-- Title: Core/Include/Core/Application.h Pages: 1 -->
<svg width="689pt" height="192pt"
 viewBox="0.00 0.00 688.50 192.00" xmlns="http://www.w3.org/2000/svg" xmlns:xlink="http://www.w3.org/1999/xlink">
<g id="graph0" class="graph" transform="scale(1 1) rotate(0) translate(4 188)">
<title>Core/Include/Core/Application.h</title>
<!-- Node1 -->
<g id="Node000001" class="node">
<title>Node1</title>
<g id="a_Node000001"><a xlink:title=" ">
<polygon fill="#999999" stroke="#666666" points="510,-184 340,-184 340,-165 510,-165 510,-184"/>
<text text-anchor="middle" x="425" y="-172" font-family="Helvetica,sans-Serif" font-size="10.00">Core/Include/Core/Application.h</text>
</a>
</g>
</g>
<!-- Node2 -->
<g id="Node000002" class="node">
<title>Node2</title>
<g id="a_Node000002"><a xlink:href="BaseType_8h.html" target="_top" xlink:title=" ">
<polygon fill="white" stroke="#666666" points="271,-74 173,-74 173,-55 271,-55 271,-74"/>
<text text-anchor="middle" x="222" y="-62" font-family="Helvetica,sans-Serif" font-size="10.00">Core/BaseType.h</text>
</a>
</g>
</g>
<!-- Node1&#45;&gt;Node2 -->
<g id="edge1_Node000001_Node000002" class="edge">
<title>Node1&#45;&gt;Node2</title>
<g id="a_edge1_Node000001_Node000002"><a xlink:title=" ">
<path fill="none" stroke="#63b8ff" d="M359.27,-164.94C329.4,-158.64 294.82,-147.75 268,-129 251.32,-117.34 238.43,-97.64 230.6,-83.27"/>
<polygon fill="#63b8ff" stroke="#63b8ff" points="233.69,-81.63 226,-74.34 227.46,-84.83 233.69,-81.63"/>
</a>
</g>
</g>
<!-- Node7 -->
<g id="Node000007" class="node">
<title>Node7</title>
<g id="a_Node000007"><a xlink:href="Layer_8h.html" target="_top" xlink:title=" ">
<polygon fill="white" stroke="#666666" points="189.5,-129 112.5,-129 112.5,-110 189.5,-110 189.5,-129"/>
<text text-anchor="middle" x="151" y="-117" font-family="Helvetica,sans-Serif" font-size="10.00">Core/Layer.h</text>
</a>
</g>
</g>
<!-- Node1&#45;&gt;Node7 -->
<g id="edge6_Node000001_Node000007" class="edge">
<title>Node1&#45;&gt;Node7</title>
<g id="a_edge6_Node000001_Node000007"><a xlink:title=" ">
<path fill="none" stroke="#63b8ff" d="M380.98,-164.98C331.34,-155.38 250.87,-139.82 199.47,-129.88"/>
<polygon fill="#63b8ff" stroke="#63b8ff" points="200.08,-126.43 189.6,-127.97 198.75,-133.3 200.08,-126.43"/>
</a>
</g>
</g>
<!-- Node9 -->
<g id="Node000009" class="node">
<title>Node9</title>
<g id="a_Node000009"><a xlink:href="Window_8h.html" target="_top" xlink:title=" ">
<polygon fill="white" stroke="#666666" points="366.5,-129 277.5,-129 277.5,-110 366.5,-110 366.5,-129"/>
<text text-anchor="middle" x="322" y="-117" font-family="Helvetica,sans-Serif" font-size="10.00">Core/Window.h</text>
</a>
</g>
</g>
<!-- Node1&#45;&gt;Node9 -->
<g id="edge8_Node000001_Node000009" class="edge">
<title>Node1&#45;&gt;Node9</title>
<g id="a_edge8_Node000001_Node000009"><a xlink:title=" ">
<path fill="none" stroke="#63b8ff" d="M408.45,-164.98C392.11,-156.57 366.87,-143.59 347.87,-133.81"/>
<polygon fill="#63b8ff" stroke="#63b8ff" points="349.34,-130.63 338.85,-129.17 346.14,-136.86 349.34,-130.63"/>
</a>
</g>
</g>
<!-- Node11 -->
<g id="Node000011" class="node">
<title>Node11</title>
<g id="a_Node000011"><a xlink:title=" ">
<polygon fill="#e0e0e0" stroke="#999999" points="435,-74 391,-74 391,-55 435,-55 435,-74"/>
<text text-anchor="middle" x="413" y="-62" font-family="Helvetica,sans-Serif" font-size="10.00">string</text>
</a>
</g>
</g>
<!-- Node1&#45;&gt;Node11 -->
<g id="edge15_Node000001_Node000011" class="edge">
<title>Node1&#45;&gt;Node11</title>
<g id="a_edge15_Node000001_Node000011"><a xlink:title=" ">
<path fill="none" stroke="#63b8ff" d="M422.51,-164.72C420.1,-155.81 416.6,-141.57 415,-129 413.11,-114.09 412.66,-97.06 412.66,-84.39"/>
<polygon fill="#63b8ff" stroke="#63b8ff" points="416.16,-84.2 412.76,-74.17 409.16,-84.14 416.16,-84.2"/>
</a>
</g>
</g>
<!-- Node12 -->
<g id="Node000012" class="node">
<title>Node12</title>
<g id="a_Node000012"><a xlink:title=" ">
<polygon fill="#e0e0e0" stroke="#999999" points="488.5,-129 423.5,-129 423.5,-110 488.5,-110 488.5,-129"/>
<text text-anchor="middle" x="456" y="-117" font-family="Helvetica,sans-Serif" font-size="10.00">functional</text>
</a>
</g>
</g>
<!-- Node1&#45;&gt;Node12 -->
<g id="edge12_Node000001_Node000012" class="edge">
<title>Node1&#45;&gt;Node12</title>
<g id="a_edge12_Node000001_Node000012"><a xlink:title=" ">
<path fill="none" stroke="#63b8ff" d="M430.12,-164.75C434.36,-157.49 440.53,-146.95 445.78,-137.98"/>
<polygon fill="#63b8ff" stroke="#63b8ff" points="448.95,-139.49 450.98,-129.09 442.91,-135.95 448.95,-139.49"/>
</a>
</g>
</g>
<!-- Node13 -->
<g id="Node000013" class="node">
<title>Node13</title>
<g id="a_Node000013"><a xlink:title=" ">
<polygon fill="#e0e0e0" stroke="#999999" points="565,-129 507,-129 507,-110 565,-110 565,-129"/>
<text text-anchor="middle" x="536" y="-117" font-family="Helvetica,sans-Serif" font-size="10.00">memory</text>
</a>
</g>
</g>
<!-- Node1&#45;&gt;Node13 -->
<g id="edge13_Node000001_Node000013" class="edge">
<title>Node1&#45;&gt;Node13</title>
<g id="a_edge13_Node000001_Node000013"><a xlink:title=" ">
<path fill="none" stroke="#63b8ff" d="M442.83,-164.98C460.61,-156.5 488.15,-143.35 508.68,-133.54"/>
<polygon fill="#63b8ff" stroke="#63b8ff" points="510.33,-136.64 517.84,-129.17 507.31,-130.32 510.33,-136.64"/>
</a>
</g>
</g>
<!-- Node14 -->
<g id="Node000014" class="node">
<title>Node14</title>
<g id="a_Node000014"><a xlink:title=" ">
<polygon fill="#e0e0e0" stroke="#999999" points="615,-129 583,-129 583,-110 615,-110 615,-129"/>
<text text-anchor="middle" x="599" y="-117" font-family="Helvetica,sans-Serif" font-size="10.00">set</text>
</a>
</g>
</g>
<!-- Node1&#45;&gt;Node14 -->
<g id="edge14_Node000001_Node000014" class="edge">
<title>Node1&#45;&gt;Node14</title>
<g id="a_edge14_Node000001_Node000014"><a xlink:title=" ">
<path fill="none" stroke="#63b8ff" d="M454.78,-164.96C482.99,-156.8 526.75,-143.93 573.25,-129.16"/>
<polygon fill="#63b8ff" stroke="#63b8ff" points="574.43,-132.45 582.89,-126.08 572.3,-125.78 574.43,-132.45"/>
</a>
</g>
</g>
<!-- Node15 -->
<g id="Node000015" class="node">
<title>Node15</title>
<g id="a_Node000015"><a xlink:title=" ">
<polygon fill="#e0e0e0" stroke="#999999" points="680.5,-129 633.5,-129 633.5,-110 680.5,-110 680.5,-129"/>
<text text-anchor="middle" x="657" y="-117" font-family="Helvetica,sans-Serif" font-size="10.00">vector</text>
</a>
</g>
</g>
<!-- Node1&#45;&gt;Node15 -->
<g id="edge16_Node000001_Node000015" class="edge">
<title>Node1&#45;&gt;Node15</title>
<g id="a_edge16_Node000001_Node000015"><a xlink:title=" ">
<path fill="none" stroke="#63b8ff" d="M465.11,-164.93C503.32,-156.67 562.69,-143.62 623.47,-129.07"/>
<polygon fill="#63b8ff" stroke="#63b8ff" points="624.32,-132.46 633.23,-126.72 622.69,-125.65 624.32,-132.46"/>
</a>
</g>
</g>
<!-- Node3 -->
<g id="Node000003" class="node">
<title>Node3</title>
<g id="a_Node000003"><a xlink:title=" ">
<polygon fill="#e0e0e0" stroke="#999999" points="78,-19 0,-19 0,0 78,0 78,-19"/>
<text text-anchor="middle" x="39" y="-7" font-family="Helvetica,sans-Serif" font-size="10.00">glm/glm.hpp</text>
</a>
</g>
</g>
<!-- Node2&#45;&gt;Node3 -->
<g id="edge2_Node000002_Node000003" class="edge">
<title>Node2&#45;&gt;Node3</title>
<g id="a_edge2_Node000002_Node000003"><a xlink:title=" ">
<path fill="none" stroke="#63b8ff" d="M192.6,-54.98C161.61,-46.01 112.62,-31.82 78.33,-21.89"/>
<polygon fill="#63b8ff" stroke="#63b8ff" points="79.21,-18.5 68.63,-19.08 77.26,-25.23 79.21,-18.5"/>
</a>
</g>
</g>
<!-- Node4 -->
<g id="Node000004" class="node">
<title>Node4</title>
<g id="a_Node000004"><a xlink:title=" ">
<polygon fill="#e0e0e0" stroke="#999999" points="237.5,-19 96.5,-19 96.5,0 237.5,0 237.5,-19"/>
<text text-anchor="middle" x="167" y="-7" font-family="Helvetica,sans-Serif" font-size="10.00">glm/gtx/vector_angle.hpp</text>
</a>
</g>
</g>
<!-- Node2&#45;&gt;Node4 -->
<g id="edge3_Node000002_Node000004" class="edge">
<title>Node2&#45;&gt;Node4</title>
<g id="a_edge3_Node000002_Node000004"><a xlink:title=" ">
<path fill="none" stroke="#63b8ff" d="M212.92,-54.75C204.91,-47.03 193.04,-35.6 183.38,-26.28"/>
<polygon fill="#63b8ff" stroke="#63b8ff" points="185.54,-23.51 175.91,-19.09 180.69,-28.55 185.54,-23.51"/>
</a>
</g>
</g>
<!-- Node5 -->
<g id="Node000005" class="node">
<title>Node5</title>
<g id="a_Node000005"><a xlink:title=" ">
<polygon fill="#e0e0e0" stroke="#999999" points="300,-19 256,-19 256,0 300,0 300,-19"/>
<text text-anchor="middle" x="278" y="-7" font-family="Helvetica,sans-Serif" font-size="10.00">bitset</text>
</a>
</g>
</g>
<!-- Node2&#45;&gt;Node5 -->
<g id="edge4_Node000002_Node000005" class="edge">
<title>Node2&#45;&gt;Node5</title>
<g id="a_edge4_Node000002_Node000005"><a xlink:title=" ">
<path fill="none" stroke="#63b8ff" d="M231,-54.98C239.19,-47.23 251.51,-35.58 261.47,-26.14"/>
<polygon fill="#63b8ff" stroke="#63b8ff" points="263.98,-28.59 268.84,-19.17 259.17,-23.5 263.98,-28.59"/>
</a>
</g>
</g>
<!-- Node6 -->
<g id="Node000006" class="node">
<title>Node6</title>
<g id="a_Node000006"><a xlink:title=" ">
<polygon fill="#e0e0e0" stroke="#999999" points="368,-19 318,-19 318,0 368,0 368,-19"/>
<text text-anchor="middle" x="343" y="-7" font-family="Helvetica,sans-Serif" font-size="10.00">cstdint</text>
</a>
</g>
</g>
<!-- Node2&#45;&gt;Node6 -->
<g id="edge5_Node000002_Node000006" class="edge">
<title>Node2&#45;&gt;Node6</title>
<g id="a_edge5_Node000002_Node000006"><a xlink:title=" ">
<path fill="none" stroke="#63b8ff" d="M241.44,-54.98C260.99,-46.42 291.38,-33.11 313.82,-23.28"/>
<polygon fill="#63b8ff" stroke="#63b8ff" points="315.45,-26.39 323.21,-19.17 312.64,-19.98 315.45,-26.39"/>
</a>
</g>
</g>
<!-- Node8 -->
<g id="Node000008" class="node">
<title>Node8</title>
<g id="a_Node000008"><a xlink:href="Event_8h.html" target="_top" xlink:title=" ">
<polygon fill="white" stroke="#666666" points="154.5,-74 101.5,-74 101.5,-55 154.5,-55 154.5,-74"/>
<text text-anchor="middle" x="128" y="-62" font-family="Helvetica,sans-Serif" font-size="10.00">Event.h</text>
</a>
</g>
</g>
<!-- Node7&#45;&gt;Node8 -->
<g id="edge7_Node000007_Node000008" class="edge">
<title>Node7&#45;&gt;Node8</title>
<g id="a_edge7_Node000007_Node000008"><a xlink:title=" ">
<path fill="none" stroke="#63b8ff" d="M147.2,-109.75C144.09,-102.57 139.58,-92.18 135.71,-83.27"/>
<polygon fill="#63b8ff" stroke="#63b8ff" points="138.92,-81.87 131.73,-74.09 132.5,-84.66 138.92,-81.87"/>
</a>
</g>
</g>
<!-- Node9&#45;&gt;Node2 -->
<g id="edge9_Node000009_Node000002" class="edge">
<title>Node9&#45;&gt;Node2</title>
<g id="a_edge9_Node000009_Node000002"><a xlink:title=" ">
<path fill="none" stroke="#63b8ff" d="M305.93,-109.98C290.14,-101.61 265.78,-88.7 247.37,-78.95"/>
<polygon fill="#63b8ff" stroke="#63b8ff" points="248.83,-75.76 238.36,-74.17 245.56,-81.95 248.83,-75.76"/>
</a>
</g>
</g>
<!-- Node10 -->
<g id="Node000010" class="node">
<title>Node10</title>
<g id="a_Node000010"><a xlink:title=" ">
<polygon fill="#e0e0e0" stroke="#999999" points="372.5,-74 289.5,-74 289.5,-55 372.5,-55 372.5,-74"/>
<text text-anchor="middle" x="331" y="-62" font-family="Helvetica,sans-Serif" font-size="10.00">GLFW/glfw3.h</text>
</a>
</g>
</g>
<!-- Node9&#45;&gt;Node10 -->
<g id="edge10_Node000009_Node000010" class="edge">
<title>Node9&#45;&gt;Node10</title>
<g id="a_edge10_Node000009_Node000010"><a xlink:title=" ">
<path fill="none" stroke="#63b8ff" d="M323.49,-109.75C324.67,-102.8 326.36,-92.85 327.84,-84.13"/>
<polygon fill="#63b8ff" stroke="#63b8ff" points="331.32,-84.53 329.54,-74.09 324.42,-83.36 331.32,-84.53"/>
</a>
</g>
</g>
<!-- Node9&#45;&gt;Node11 -->
<g id="edge11_Node000009_Node000011" class="edge">
<title>Node9&#45;&gt;Node11</title>
<g id="a_edge11_Node000009_Node000011"><a xlink:title=" ">
<path fill="none" stroke="#63b8ff" d="M336.62,-109.98C350.86,-101.69 372.75,-88.94 389.45,-79.22"/>
<polygon fill="#63b8ff" stroke="#63b8ff" points="391.23,-82.23 398.11,-74.17 387.71,-76.18 391.23,-82.23"/>
</a>
</g>
</g>
</g>
</svg>
