<?xml version="1.0" encoding="UTF-8" standalone="no"?>
<!DOCTYPE svg PUBLIC "-//W3C//DTD SVG 1.1//EN"
 "http://www.w3.org/Graphics/SVG/1.1/DTD/svg11.dtd">
<!-- Generated by graphviz version 2.43.0 (0)
 -->
<!-- Title: Core/Source/Application.cpp Pages: 1 -->
<svg width="1297pt" height="247pt"
 viewBox="0.00 0.00 1296.50 247.00" xmlns="http://www.w3.org/2000/svg" xmlns:xlink="http://www.w3.org/1999/xlink">
<g id="graph0" class="graph" transform="scale(1 1) rotate(0) translate(4 243)">
<title>Core/Source/Application.cpp</title>
<!-- Node1 -->
<g id="Node000001" class="node">
<title>Node1</title>
<g id="a_Node000001"><a xlink:title=" ">
<polygon fill="#999999" stroke="#666666" points="924,-239 771,-239 771,-220 924,-220 924,-239"/>
<text text-anchor="middle" x="847.5" y="-227" font-family="Helvetica,sans-Serif" font-size="10.00">Core/Source/Application.cpp</text>
</a>
</g>
</g>
<!-- Node2 -->
<g id="Node000002" class="node">
<title>Node2</title>
<g id="a_Node000002"><a xlink:href="Application_8h.html" target="_top" xlink:title=" ">
<polygon fill="white" stroke="#666666" points="381.5,-184 275.5,-184 275.5,-165 381.5,-165 381.5,-184"/>
<text text-anchor="middle" x="328.5" y="-172" font-family="Helvetica,sans-Serif" font-size="10.00">Core/Application.h</text>
</a>
</g>
</g>
<!-- Node1&#45;&gt;Node2 -->
<g id="edge1_Node000001_Node000002" class="edge">
<title>Node1&#45;&gt;Node2</title>
<g id="a_edge1_Node000001_Node000002"><a xlink:title=" ">
<path fill="none" stroke="#63b8ff" d="M770.92,-220.68C668.08,-210.18 487.26,-191.71 391.74,-181.96"/>
<polygon fill="#63b8ff" stroke="#63b8ff" points="391.95,-178.46 381.65,-180.93 391.24,-185.43 391.95,-178.46"/>
</a>
</g>
</g>
<!-- Node4 -->
<g id="Node000004" class="node">
<title>Node4</title>
<g id="a_Node000004"><a xlink:title=" ">
<polygon fill="#e0e0e0" stroke="#999999" points="679.5,-19 601.5,-19 601.5,0 679.5,0 679.5,-19"/>
<text text-anchor="middle" x="640.5" y="-7" font-family="Helvetica,sans-Serif" font-size="10.00">glm/glm.hpp</text>
</a>
</g>
</g>
<!-- Node1&#45;&gt;Node4 -->
<g id="edge24_Node000001_Node000004" class="edge">
<title>Node1&#45;&gt;Node4</title>
<g id="a_edge24_Node000001_Node000004"><a xlink:title=" ">
<path fill="none" stroke="#63b8ff" d="M774.76,-219.98C728.65,-213 674.88,-201.41 659.5,-184 620.92,-140.34 629.57,-64.4 636.27,-29.29"/>
<polygon fill="#63b8ff" stroke="#63b8ff" points="639.79,-29.56 638.4,-19.05 632.94,-28.13 639.79,-29.56"/>
</a>
</g>
</g>
<!-- Node11 -->
<g id="Node000011" class="node">
<title>Node11</title>
<g id="a_Node000011"><a xlink:title=" ">
<polygon fill="#e0e0e0" stroke="#999999" points="612,-74 529,-74 529,-55 612,-55 612,-74"/>
<text text-anchor="middle" x="570.5" y="-62" font-family="Helvetica,sans-Serif" font-size="10.00">GLFW/glfw3.h</text>
</a>
</g>
</g>
<!-- Node1&#45;&gt;Node11 -->
<g id="edge23_Node000001_Node000011" class="edge">
<title>Node1&#45;&gt;Node11</title>
<g id="a_edge23_Node000001_Node000011"><a xlink:title=" ">
<path fill="none" stroke="#63b8ff" d="M770.92,-220.45C716.31,-213.36 648.77,-201.43 626.5,-184 594.36,-158.85 579.76,-110.76 573.91,-84.23"/>
<polygon fill="#63b8ff" stroke="#63b8ff" points="577.32,-83.42 571.91,-74.31 570.45,-84.81 577.32,-83.42"/>
</a>
</g>
</g>
<!-- Node17 -->
<g id="Node000017" class="node">
<title>Node17</title>
<g id="a_Node000017"><a xlink:href="GLUtils_8h.html" target="_top" xlink:title=" ">
<polygon fill="white" stroke="#666666" points="802.5,-184 668.5,-184 668.5,-165 802.5,-165 802.5,-184"/>
<text text-anchor="middle" x="735.5" y="-172" font-family="Helvetica,sans-Serif" font-size="10.00">Core/Renderer/GLUtils.h</text>
</a>
</g>
</g>
<!-- Node1&#45;&gt;Node17 -->
<g id="edge18_Node000001_Node000017" class="edge">
<title>Node1&#45;&gt;Node17</title>
<g id="a_edge18_Node000001_Node000017"><a xlink:title=" ">
<path fill="none" stroke="#63b8ff" d="M829.51,-219.98C811.57,-211.5 783.78,-198.35 763.07,-188.54"/>
<polygon fill="#63b8ff" stroke="#63b8ff" points="764.36,-185.28 753.82,-184.17 761.36,-191.61 764.36,-185.28"/>
</a>
</g>
</g>
<!-- Node19 -->
<g id="Node000019" class="node">
<title>Node19</title>
<g id="a_Node000019"><a xlink:title=" ">
<polygon fill="#e0e0e0" stroke="#999999" points="874,-184 821,-184 821,-165 874,-165 874,-184"/>
<text text-anchor="middle" x="847.5" y="-172" font-family="Helvetica,sans-Serif" font-size="10.00">imgui.h</text>
</a>
</g>
</g>
<!-- Node1&#45;&gt;Node19 -->
<g id="edge20_Node000001_Node000019" class="edge">
<title>Node1&#45;&gt;Node19</title>
<g id="a_edge20_Node000001_Node000019"><a xlink:title=" ">
<path fill="none" stroke="#63b8ff" d="M847.5,-219.75C847.5,-212.8 847.5,-202.85 847.5,-194.13"/>
<polygon fill="#63b8ff" stroke="#63b8ff" points="851,-194.09 847.5,-184.09 844,-194.09 851,-194.09"/>
</a>
</g>
</g>
<!-- Node20 -->
<g id="Node000020" class="node">
<title>Node20</title>
<g id="a_Node000020"><a xlink:title=" ">
<polygon fill="#e0e0e0" stroke="#999999" points="997,-184 892,-184 892,-165 997,-165 997,-184"/>
<text text-anchor="middle" x="944.5" y="-172" font-family="Helvetica,sans-Serif" font-size="10.00">imgui_impl_glfw.h</text>
</a>
</g>
</g>
<!-- Node1&#45;&gt;Node20 -->
<g id="edge21_Node000001_Node000020" class="edge">
<title>Node1&#45;&gt;Node20</title>
<g id="a_edge21_Node000001_Node000020"><a xlink:title=" ">
<path fill="none" stroke="#63b8ff" d="M863.08,-219.98C878.27,-211.69 901.6,-198.94 919.4,-189.22"/>
<polygon fill="#63b8ff" stroke="#63b8ff" points="921.53,-192.04 928.63,-184.17 918.18,-185.89 921.53,-192.04"/>
</a>
</g>
</g>
<!-- Node21 -->
<g id="Node000021" class="node">
<title>Node21</title>
<g id="a_Node000021"><a xlink:title=" ">
<polygon fill="#e0e0e0" stroke="#999999" points="1140,-184 1015,-184 1015,-165 1140,-165 1140,-184"/>
<text text-anchor="middle" x="1077.5" y="-172" font-family="Helvetica,sans-Serif" font-size="10.00">imgui_impl_opengl3.h</text>
</a>
</g>
</g>
<!-- Node1&#45;&gt;Node21 -->
<g id="edge22_Node000001_Node000021" class="edge">
<title>Node1&#45;&gt;Node21</title>
<g id="a_edge22_Node000001_Node000021"><a xlink:title=" ">
<path fill="none" stroke="#63b8ff" d="M884.45,-219.98C924.07,-210.86 987.09,-196.33 1030.27,-186.38"/>
<polygon fill="#63b8ff" stroke="#63b8ff" points="1031.3,-189.74 1040.26,-184.08 1029.73,-182.92 1031.3,-189.74"/>
</a>
</g>
</g>
<!-- Node22 -->
<g id="Node000022" class="node">
<title>Node22</title>
<g id="a_Node000022"><a xlink:title=" ">
<polygon fill="#e0e0e0" stroke="#999999" points="1210.5,-184 1158.5,-184 1158.5,-165 1210.5,-165 1210.5,-184"/>
<text text-anchor="middle" x="1184.5" y="-172" font-family="Helvetica,sans-Serif" font-size="10.00">cassert</text>
</a>
</g>
</g>
<!-- Node1&#45;&gt;Node22 -->
<g id="edge25_Node000001_Node000022" class="edge">
<title>Node1&#45;&gt;Node22</title>
<g id="a_edge25_Node000001_Node000022"><a xlink:title=" ">
<path fill="none" stroke="#63b8ff" d="M917.99,-219.98C977.05,-212.41 1063.78,-200.31 1148.17,-184.11"/>
<polygon fill="#63b8ff" stroke="#63b8ff" points="1149.03,-187.51 1158.18,-182.17 1147.7,-180.64 1149.03,-187.51"/>
</a>
</g>
</g>
<!-- Node23 -->
<g id="Node000023" class="node">
<title>Node23</title>
<g id="a_Node000023"><a xlink:title=" ">
<polygon fill="#e0e0e0" stroke="#999999" points="1288.5,-184 1228.5,-184 1228.5,-165 1288.5,-165 1288.5,-184"/>
<text text-anchor="middle" x="1258.5" y="-172" font-family="Helvetica,sans-Serif" font-size="10.00">iostream</text>
</a>
</g>
</g>
<!-- Node1&#45;&gt;Node23 -->
<g id="edge26_Node000001_Node000023" class="edge">
<title>Node1&#45;&gt;Node23</title>
<g id="a_edge26_Node000001_Node000023"><a xlink:title=" ">
<path fill="none" stroke="#63b8ff" d="M924.04,-221.5C997.18,-214.32 1110.71,-201.9 1218.27,-184.06"/>
<polygon fill="#63b8ff" stroke="#63b8ff" points="1219.04,-187.48 1228.32,-182.38 1217.88,-180.58 1219.04,-187.48"/>
</a>
</g>
</g>
<!-- Node3 -->
<g id="Node000003" class="node">
<title>Node3</title>
<g id="a_Node000003"><a xlink:href="BaseType_8h.html" target="_top" xlink:title=" ">
<polygon fill="white" stroke="#666666" points="510.5,-74 412.5,-74 412.5,-55 510.5,-55 510.5,-74"/>
<text text-anchor="middle" x="461.5" y="-62" font-family="Helvetica,sans-Serif" font-size="10.00">Core/BaseType.h</text>
</a>
</g>
</g>
<!-- Node2&#45;&gt;Node3 -->
<g id="edge2_Node000002_Node000003" class="edge">
<title>Node2&#45;&gt;Node3</title>
<g id="a_edge2_Node000002_Node000003"><a xlink:title=" ">
<path fill="none" stroke="#63b8ff" d="M381.76,-167.4C428.46,-160.82 491.21,-148.58 506.5,-129 519.18,-112.77 500.8,-93.35 483.86,-80.3"/>
<polygon fill="#63b8ff" stroke="#63b8ff" points="485.46,-77.13 475.3,-74.1 481.35,-82.8 485.46,-77.13"/>
</a>
</g>
</g>
<!-- Node8 -->
<g id="Node000008" class="node">
<title>Node8</title>
<g id="a_Node000008"><a xlink:href="Layer_8h.html" target="_top" xlink:title=" ">
<polygon fill="white" stroke="#666666" points="77,-129 0,-129 0,-110 77,-110 77,-129"/>
<text text-anchor="middle" x="38.5" y="-117" font-family="Helvetica,sans-Serif" font-size="10.00">Core/Layer.h</text>
</a>
</g>
</g>
<!-- Node2&#45;&gt;Node8 -->
<g id="edge7_Node000002_Node000008" class="edge">
<title>Node2&#45;&gt;Node8</title>
<g id="a_edge7_Node000002_Node000008"><a xlink:title=" ">
<path fill="none" stroke="#63b8ff" d="M281.91,-164.98C228.51,-155.23 141.4,-139.31 87.15,-129.39"/>
<polygon fill="#63b8ff" stroke="#63b8ff" points="87.56,-125.91 77.09,-127.55 86.3,-132.79 87.56,-125.91"/>
</a>
</g>
</g>
<!-- Node10 -->
<g id="Node000010" class="node">
<title>Node10</title>
<g id="a_Node000010"><a xlink:href="Window_8h.html" target="_top" xlink:title=" ">
<polygon fill="white" stroke="#666666" points="498,-129 409,-129 409,-110 498,-110 498,-129"/>
<text text-anchor="middle" x="453.5" y="-117" font-family="Helvetica,sans-Serif" font-size="10.00">Core/Window.h</text>
</a>
</g>
</g>
<!-- Node2&#45;&gt;Node10 -->
<g id="edge9_Node000002_Node000010" class="edge">
<title>Node2&#45;&gt;Node10</title>
<g id="a_edge9_Node000002_Node000010"><a xlink:title=" ">
<path fill="none" stroke="#63b8ff" d="M348.58,-164.98C368.87,-156.38 400.46,-142.99 423.67,-133.15"/>
<polygon fill="#63b8ff" stroke="#63b8ff" points="425.21,-136.3 433.05,-129.17 422.48,-129.85 425.21,-136.3"/>
</a>
</g>
</g>
<!-- Node12 -->
<g id="Node000012" class="node">
<title>Node12</title>
<g id="a_Node000012"><a xlink:title=" ">
<polygon fill="#e0e0e0" stroke="#999999" points="394.5,-74 350.5,-74 350.5,-55 394.5,-55 394.5,-74"/>
<text text-anchor="middle" x="372.5" y="-62" font-family="Helvetica,sans-Serif" font-size="10.00">string</text>
</a>
</g>
</g>
<!-- Node2&#45;&gt;Node12 -->
<g id="edge16_Node000002_Node000012" class="edge">
<title>Node2&#45;&gt;Node12</title>
<g id="a_edge16_Node000002_Node000012"><a xlink:title=" ">
<path fill="none" stroke="#63b8ff" d="M336.66,-164.68C344.05,-156.18 354.65,-142.64 360.5,-129 366.66,-114.64 369.67,-97.12 371.13,-84.12"/>
<polygon fill="#63b8ff" stroke="#63b8ff" points="374.62,-84.34 372.06,-74.06 367.65,-83.69 374.62,-84.34"/>
</a>
</g>
</g>
<!-- Node13 -->
<g id="Node000013" class="node">
<title>Node13</title>
<g id="a_Node000013"><a xlink:title=" ">
<polygon fill="#e0e0e0" stroke="#999999" points="160,-129 95,-129 95,-110 160,-110 160,-129"/>
<text text-anchor="middle" x="127.5" y="-117" font-family="Helvetica,sans-Serif" font-size="10.00">functional</text>
</a>
</g>
</g>
<!-- Node2&#45;&gt;Node13 -->
<g id="edge13_Node000002_Node000013" class="edge">
<title>Node2&#45;&gt;Node13</title>
<g id="a_edge13_Node000002_Node000013"><a xlink:title=" ">
<path fill="none" stroke="#63b8ff" d="M296.21,-164.98C261.88,-155.93 207.44,-141.58 169.73,-131.64"/>
<polygon fill="#63b8ff" stroke="#63b8ff" points="170.61,-128.25 160.05,-129.08 168.82,-135.02 170.61,-128.25"/>
</a>
</g>
</g>
<!-- Node14 -->
<g id="Node000014" class="node">
<title>Node14</title>
<g id="a_Node000014"><a xlink:title=" ">
<polygon fill="#e0e0e0" stroke="#999999" points="236.5,-129 178.5,-129 178.5,-110 236.5,-110 236.5,-129"/>
<text text-anchor="middle" x="207.5" y="-117" font-family="Helvetica,sans-Serif" font-size="10.00">memory</text>
</a>
</g>
</g>
<!-- Node2&#45;&gt;Node14 -->
<g id="edge14_Node000002_Node000014" class="edge">
<title>Node2&#45;&gt;Node14</title>
<g id="a_edge14_Node000002_Node000014"><a xlink:title=" ">
<path fill="none" stroke="#63b8ff" d="M309.06,-164.98C289.51,-156.42 259.12,-143.11 236.68,-133.28"/>
<polygon fill="#63b8ff" stroke="#63b8ff" points="237.86,-129.98 227.29,-129.17 235.05,-136.39 237.86,-129.98"/>
</a>
</g>
</g>
<!-- Node15 -->
<g id="Node000015" class="node">
<title>Node15</title>
<g id="a_Node000015"><a xlink:title=" ">
<polygon fill="#e0e0e0" stroke="#999999" points="286.5,-129 254.5,-129 254.5,-110 286.5,-110 286.5,-129"/>
<text text-anchor="middle" x="270.5" y="-117" font-family="Helvetica,sans-Serif" font-size="10.00">set</text>
</a>
</g>
</g>
<!-- Node2&#45;&gt;Node15 -->
<g id="edge15_Node000002_Node000015" class="edge">
<title>Node2&#45;&gt;Node15</title>
<g id="a_edge15_Node000002_Node000015"><a xlink:title=" ">
<path fill="none" stroke="#63b8ff" d="M319.18,-164.98C310.69,-157.23 297.94,-145.58 287.62,-136.14"/>
<polygon fill="#63b8ff" stroke="#63b8ff" points="289.73,-133.33 279.99,-129.17 285.01,-138.5 289.73,-133.33"/>
</a>
</g>
</g>
<!-- Node16 -->
<g id="Node000016" class="node">
<title>Node16</title>
<g id="a_Node000016"><a xlink:title=" ">
<polygon fill="#e0e0e0" stroke="#999999" points="352,-129 305,-129 305,-110 352,-110 352,-129"/>
<text text-anchor="middle" x="328.5" y="-117" font-family="Helvetica,sans-Serif" font-size="10.00">vector</text>
</a>
</g>
</g>
<!-- Node2&#45;&gt;Node16 -->
<g id="edge17_Node000002_Node000016" class="edge">
<title>Node2&#45;&gt;Node16</title>
<g id="a_edge17_Node000002_Node000016"><a xlink:title=" ">
<path fill="none" stroke="#63b8ff" d="M328.5,-164.75C328.5,-157.8 328.5,-147.85 328.5,-139.13"/>
<polygon fill="#63b8ff" stroke="#63b8ff" points="332,-139.09 328.5,-129.09 325,-139.09 332,-139.09"/>
</a>
</g>
</g>
<!-- Node3&#45;&gt;Node4 -->
<g id="edge3_Node000003_Node000004" class="edge">
<title>Node3&#45;&gt;Node4</title>
<g id="a_edge3_Node000003_Node000004"><a xlink:title=" ">
<path fill="none" stroke="#63b8ff" d="M490.26,-54.98C520.44,-46.05 568.07,-31.94 601.6,-22.02"/>
<polygon fill="#63b8ff" stroke="#63b8ff" points="602.92,-25.28 611.52,-19.08 600.93,-18.57 602.92,-25.28"/>
</a>
</g>
</g>
<!-- Node5 -->
<g id="Node000005" class="node">
<title>Node5</title>
<g id="a_Node000005"><a xlink:title=" ">
<polygon fill="#e0e0e0" stroke="#999999" points="583,-19 442,-19 442,0 583,0 583,-19"/>
<text text-anchor="middle" x="512.5" y="-7" font-family="Helvetica,sans-Serif" font-size="10.00">glm/gtx/vector_angle.hpp</text>
</a>
</g>
</g>
<!-- Node3&#45;&gt;Node5 -->
<g id="edge4_Node000003_Node000005" class="edge">
<title>Node3&#45;&gt;Node5</title>
<g id="a_edge4_Node000003_Node000005"><a xlink:title=" ">
<path fill="none" stroke="#63b8ff" d="M469.92,-54.75C477.27,-47.11 488.13,-35.82 497.04,-26.56"/>
<polygon fill="#63b8ff" stroke="#63b8ff" points="499.82,-28.72 504.24,-19.09 494.78,-23.87 499.82,-28.72"/>
</a>
</g>
</g>
<!-- Node6 -->
<g id="Node000006" class="node">
<title>Node6</title>
<g id="a_Node000006"><a xlink:title=" ">
<polygon fill="#e0e0e0" stroke="#999999" points="355.5,-19 311.5,-19 311.5,0 355.5,0 355.5,-19"/>
<text text-anchor="middle" x="333.5" y="-7" font-family="Helvetica,sans-Serif" font-size="10.00">bitset</text>
</a>
</g>
</g>
<!-- Node3&#45;&gt;Node6 -->
<g id="edge5_Node000003_Node000006" class="edge">
<title>Node3&#45;&gt;Node6</title>
<g id="a_edge5_Node000003_Node000006"><a xlink:title=" ">
<path fill="none" stroke="#63b8ff" d="M440.93,-54.98C420.07,-46.34 387.53,-32.87 363.73,-23.02"/>
<polygon fill="#63b8ff" stroke="#63b8ff" points="365.02,-19.76 354.44,-19.17 362.34,-26.23 365.02,-19.76"/>
</a>
</g>
</g>
<!-- Node7 -->
<g id="Node000007" class="node">
<title>Node7</title>
<g id="a_Node000007"><a xlink:title=" ">
<polygon fill="#e0e0e0" stroke="#999999" points="423.5,-19 373.5,-19 373.5,0 423.5,0 423.5,-19"/>
<text text-anchor="middle" x="398.5" y="-7" font-family="Helvetica,sans-Serif" font-size="10.00">cstdint</text>
</a>
</g>
</g>
<!-- Node3&#45;&gt;Node7 -->
<g id="edge6_Node000003_Node000007" class="edge">
<title>Node3&#45;&gt;Node7</title>
<g id="a_edge6_Node000003_Node000007"><a xlink:title=" ">
<path fill="none" stroke="#63b8ff" d="M451.38,-54.98C442.06,-47.15 428.03,-35.34 416.76,-25.86"/>
<polygon fill="#63b8ff" stroke="#63b8ff" points="418.71,-22.93 408.81,-19.17 414.21,-28.29 418.71,-22.93"/>
</a>
</g>
</g>
<!-- Node9 -->
<g id="Node000009" class="node">
<title>Node9</title>
<g id="a_Node000009"><a xlink:href="Event_8h.html" target="_top" xlink:title=" ">
<polygon fill="white" stroke="#666666" points="65,-74 12,-74 12,-55 65,-55 65,-74"/>
<text text-anchor="middle" x="38.5" y="-62" font-family="Helvetica,sans-Serif" font-size="10.00">Event.h</text>
</a>
</g>
</g>
<!-- Node8&#45;&gt;Node9 -->
<g id="edge8_Node000008_Node000009" class="edge">
<title>Node8&#45;&gt;Node9</title>
<g id="a_edge8_Node000008_Node000009"><a xlink:title=" ">
<path fill="none" stroke="#63b8ff" d="M38.5,-109.75C38.5,-102.8 38.5,-92.85 38.5,-84.13"/>
<polygon fill="#63b8ff" stroke="#63b8ff" points="42,-84.09 38.5,-74.09 35,-84.09 42,-84.09"/>
</a>
</g>
</g>
<!-- Node10&#45;&gt;Node3 -->
<g id="edge10_Node000010_Node000003" class="edge">
<title>Node10&#45;&gt;Node3</title>
<g id="a_edge10_Node000010_Node000003"><a xlink:title=" ">
<path fill="none" stroke="#63b8ff" d="M454.82,-109.75C455.87,-102.8 457.37,-92.85 458.69,-84.13"/>
<polygon fill="#63b8ff" stroke="#63b8ff" points="462.17,-84.5 460.2,-74.09 455.25,-83.45 462.17,-84.5"/>
</a>
</g>
</g>
<!-- Node10&#45;&gt;Node11 -->
<g id="edge11_Node000010_Node000011" class="edge">
<title>Node10&#45;&gt;Node11</title>
<g id="a_edge11_Node000010_Node000011"><a xlink:title=" ">
<path fill="none" stroke="#63b8ff" d="M472.3,-109.98C491.12,-101.46 520.32,-88.23 542,-78.41"/>
<polygon fill="#63b8ff" stroke="#63b8ff" points="543.7,-81.48 551.36,-74.17 540.81,-75.11 543.7,-81.48"/>
</a>
</g>
</g>
<!-- Node10&#45;&gt;Node12 -->
<g id="edge12_Node000010_Node000012" class="edge">
<title>Node10&#45;&gt;Node12</title>
<g id="a_edge12_Node000010_Node000012"><a xlink:title=" ">
<path fill="none" stroke="#63b8ff" d="M440.49,-109.98C428.04,-101.84 409.04,-89.41 394.29,-79.76"/>
<polygon fill="#63b8ff" stroke="#63b8ff" points="396.04,-76.72 385.75,-74.17 392.2,-82.57 396.04,-76.72"/>
</a>
</g>
</g>
<!-- Node18 -->
<g id="Node000018" class="node">
<title>Node18</title>
<g id="a_Node000018"><a xlink:title=" ">
<polygon fill="#e0e0e0" stroke="#999999" points="765,-129 706,-129 706,-110 765,-110 765,-129"/>
<text text-anchor="middle" x="735.5" y="-117" font-family="Helvetica,sans-Serif" font-size="10.00">glad/gl.h</text>
</a>
</g>
</g>
<!-- Node17&#45;&gt;Node18 -->
<g id="edge19_Node000017_Node000018" class="edge">
<title>Node17&#45;&gt;Node18</title>
<g id="a_edge19_Node000017_Node000018"><a xlink:title=" ">
<path fill="none" stroke="#63b8ff" d="M735.5,-164.75C735.5,-157.8 735.5,-147.85 735.5,-139.13"/>
<polygon fill="#63b8ff" stroke="#63b8ff" points="739,-139.09 735.5,-129.09 732,-139.09 739,-139.09"/>
</a>
</g>
</g>
</g>
</svg>
