<?xml version="1.0" encoding="UTF-8" standalone="no"?>
<!DOCTYPE svg PUBLIC "-//W3C//DTD SVG 1.1//EN"
 "http://www.w3.org/Graphics/SVG/1.1/DTD/svg11.dtd">
<!-- Generated by graphviz version 2.43.0 (0)
 -->
<!-- Title: App/Source/AppLayer.cpp Pages: 1 -->
<svg width="1359pt" height="192pt"
 viewBox="0.00 0.00 1359.38 192.00" xmlns="http://www.w3.org/2000/svg" xmlns:xlink="http://www.w3.org/1999/xlink">
<g id="graph0" class="graph" transform="scale(1 1) rotate(0) translate(4 188)">
<title>App/Source/AppLayer.cpp</title>
<!-- Node1 -->
<g id="Node000001" class="node">
<title>Node1</title>
<g id="a_Node000001"><a xlink:title=" ">
<polygon fill="#999999" stroke="#666666" points="889.88,-184 749.88,-184 749.88,-165 889.88,-165 889.88,-184"/>
<text text-anchor="middle" x="819.88" y="-172" font-family="Helvetica,sans-Serif" font-size="10.00">App/Source/AppLayer.cpp</text>
</a>
</g>
</g>
<!-- Node2 -->
<g id="Node000002" class="node">
<title>Node2</title>
<g id="a_Node000002"><a xlink:href="AppLayer_8h.html" target="_top" xlink:title=" ">
<polygon fill="white" stroke="#666666" points="575.88,-129 447.88,-129 447.88,-110 575.88,-110 575.88,-129"/>
<text text-anchor="middle" x="511.88" y="-117" font-family="Helvetica,sans-Serif" font-size="10.00">Application/AppLayer.h</text>
</a>
</g>
</g>
<!-- Node1&#45;&gt;Node2 -->
<g id="edge1_Node000001_Node000002" class="edge">
<title>Node1&#45;&gt;Node2</title>
<g id="a_edge1_Node000001_Node000002"><a xlink:title=" ">
<path fill="none" stroke="#63b8ff" d="M770.39,-164.98C716.25,-155.67 629.48,-140.74 571.6,-130.78"/>
<polygon fill="#63b8ff" stroke="#63b8ff" points="571.95,-127.28 561.5,-129.04 570.76,-134.18 571.95,-127.28"/>
</a>
</g>
</g>
<!-- Node6 -->
<g id="Node000006" class="node">
<title>Node6</title>
<g id="a_Node000006"><a xlink:href="Application_8h.html" target="_top" xlink:title=" ">
<polygon fill="white" stroke="#666666" points="337.88,-129 231.88,-129 231.88,-110 337.88,-110 337.88,-129"/>
<text text-anchor="middle" x="284.88" y="-117" font-family="Helvetica,sans-Serif" font-size="10.00">Core/Application.h</text>
</a>
</g>
</g>
<!-- Node1&#45;&gt;Node6 -->
<g id="edge5_Node000001_Node000006" class="edge">
<title>Node1&#45;&gt;Node6</title>
<g id="a_edge5_Node000001_Node000006"><a xlink:title=" ">
<path fill="none" stroke="#63b8ff" d="M749.66,-166.54C644.83,-156.16 448.97,-136.76 348.26,-126.78"/>
<polygon fill="#63b8ff" stroke="#63b8ff" points="348.53,-123.29 338.23,-125.79 347.84,-130.25 348.53,-123.29"/>
</a>
</g>
</g>
<!-- Node9 -->
<g id="Node000009" class="node">
<title>Node9</title>
<g id="a_Node000009"><a xlink:title=" ">
<polygon fill="#e0e0e0" stroke="#999999" points="128.88,-19 50.88,-19 50.88,0 128.88,0 128.88,-19"/>
<text text-anchor="middle" x="89.88" y="-7" font-family="Helvetica,sans-Serif" font-size="10.00">glm/glm.hpp</text>
</a>
</g>
</g>
<!-- Node1&#45;&gt;Node9 -->
<g id="edge30_Node000001_Node000009" class="edge">
<title>Node1&#45;&gt;Node9</title>
<g id="a_edge30_Node000001_Node000009"><a xlink:title=" ">
<path fill="none" stroke="#63b8ff" d="M749.81,-170.5C560.6,-161.65 50.46,-132.51 4.88,-74 -12.38,-51.84 21.08,-33.55 50.97,-22.38"/>
<polygon fill="#63b8ff" stroke="#63b8ff" points="52.22,-25.65 60.47,-19.01 49.88,-19.05 52.22,-25.65"/>
</a>
</g>
</g>
<!-- Node15 -->
<g id="Node000015" class="node">
<title>Node15</title>
<g id="a_Node000015"><a xlink:href="PrintHelpers_8h.html" target="_top" xlink:title=" ">
<polygon fill="white" stroke="#666666" points="1014.38,-129 903.38,-129 903.38,-110 1014.38,-110 1014.38,-129"/>
<text text-anchor="middle" x="958.88" y="-117" font-family="Helvetica,sans-Serif" font-size="10.00">Core/PrintHelpers.h</text>
</a>
</g>
</g>
<!-- Node1&#45;&gt;Node15 -->
<g id="edge17_Node000001_Node000015" class="edge">
<title>Node1&#45;&gt;Node15</title>
<g id="a_edge17_Node000001_Node000015"><a xlink:title=" ">
<path fill="none" stroke="#63b8ff" d="M842.21,-164.98C865.08,-156.27 900.84,-142.63 926.74,-132.75"/>
<polygon fill="#63b8ff" stroke="#63b8ff" points="928.04,-136 936.14,-129.17 925.55,-129.46 928.04,-136"/>
</a>
</g>
</g>
<!-- Node19 -->
<g id="Node000019" class="node">
<title>Node19</title>
<g id="a_Node000019"><a xlink:href="Renderer_8h.html" target="_top" xlink:title=" ">
<polygon fill="white" stroke="#666666" points="735.88,-129 593.88,-129 593.88,-110 735.88,-110 735.88,-129"/>
<text text-anchor="middle" x="664.88" y="-117" font-family="Helvetica,sans-Serif" font-size="10.00">Core/Renderer/Renderer.h</text>
</a>
</g>
</g>
<!-- Node1&#45;&gt;Node19 -->
<g id="edge21_Node000001_Node000019" class="edge">
<title>Node1&#45;&gt;Node19</title>
<g id="a_edge21_Node000001_Node000019"><a xlink:title=" ">
<path fill="none" stroke="#63b8ff" d="M794.98,-164.98C769.18,-156.16 728.66,-142.31 699.7,-132.41"/>
<polygon fill="#63b8ff" stroke="#63b8ff" points="700.57,-129.01 689.98,-129.08 698.31,-135.63 700.57,-129.01"/>
</a>
</g>
</g>
<!-- Node22 -->
<g id="Node000022" class="node">
<title>Node22</title>
<g id="a_Node000022"><a xlink:href="Shader_8h.html" target="_top" xlink:title=" ">
<polygon fill="white" stroke="#666666" points="885.38,-129 754.38,-129 754.38,-110 885.38,-110 885.38,-129"/>
<text text-anchor="middle" x="819.88" y="-117" font-family="Helvetica,sans-Serif" font-size="10.00">Core/Renderer/Shader.h</text>
</a>
</g>
</g>
<!-- Node1&#45;&gt;Node22 -->
<g id="edge25_Node000001_Node000022" class="edge">
<title>Node1&#45;&gt;Node22</title>
<g id="a_edge25_Node000001_Node000022"><a xlink:title=" ">
<path fill="none" stroke="#63b8ff" d="M819.88,-164.75C819.88,-157.8 819.88,-147.85 819.88,-139.13"/>
<polygon fill="#63b8ff" stroke="#63b8ff" points="823.38,-139.09 819.88,-129.09 816.38,-139.09 823.38,-139.09"/>
</a>
</g>
</g>
<!-- Node23 -->
<g id="Node000023" class="node">
<title>Node23</title>
<g id="a_Node000023"><a xlink:title=" ">
<polygon fill="#e0e0e0" stroke="#999999" points="1085.38,-129 1032.38,-129 1032.38,-110 1085.38,-110 1085.38,-129"/>
<text text-anchor="middle" x="1058.88" y="-117" font-family="Helvetica,sans-Serif" font-size="10.00">imgui.h</text>
</a>
</g>
</g>
<!-- Node1&#45;&gt;Node23 -->
<g id="edge27_Node000001_Node000023" class="edge">
<title>Node1&#45;&gt;Node23</title>
<g id="a_edge27_Node000001_Node000023"><a xlink:title=" ">
<path fill="none" stroke="#63b8ff" d="M860.2,-165C899.3,-156.68 960.57,-143.49 1022.24,-129.34"/>
<polygon fill="#63b8ff" stroke="#63b8ff" points="1023.18,-132.72 1032.14,-127.06 1021.61,-125.89 1023.18,-132.72"/>
</a>
</g>
</g>
<!-- Node24 -->
<g id="Node000024" class="node">
<title>Node24</title>
<g id="a_Node000024"><a xlink:title=" ">
<polygon fill="#e0e0e0" stroke="#999999" points="1208.38,-129 1103.38,-129 1103.38,-110 1208.38,-110 1208.38,-129"/>
<text text-anchor="middle" x="1155.88" y="-117" font-family="Helvetica,sans-Serif" font-size="10.00">imgui_impl_glfw.h</text>
</a>
</g>
</g>
<!-- Node1&#45;&gt;Node24 -->
<g id="edge28_Node000001_Node000024" class="edge">
<title>Node1&#45;&gt;Node24</title>
<g id="a_edge28_Node000001_Node000024"><a xlink:title=" ">
<path fill="none" stroke="#63b8ff" d="M873.86,-164.98C933.61,-155.56 1029.78,-140.39 1092.91,-130.43"/>
<polygon fill="#63b8ff" stroke="#63b8ff" points="1093.81,-133.83 1103.14,-128.82 1092.71,-126.92 1093.81,-133.83"/>
</a>
</g>
</g>
<!-- Node25 -->
<g id="Node000025" class="node">
<title>Node25</title>
<g id="a_Node000025"><a xlink:title=" ">
<polygon fill="#e0e0e0" stroke="#999999" points="1351.38,-129 1226.38,-129 1226.38,-110 1351.38,-110 1351.38,-129"/>
<text text-anchor="middle" x="1288.88" y="-117" font-family="Helvetica,sans-Serif" font-size="10.00">imgui_impl_opengl3.h</text>
</a>
</g>
</g>
<!-- Node1&#45;&gt;Node25 -->
<g id="edge29_Node000001_Node000025" class="edge">
<title>Node1&#45;&gt;Node25</title>
<g id="a_edge29_Node000001_Node000025"><a xlink:title=" ">
<path fill="none" stroke="#63b8ff" d="M890,-165.83C967.34,-157.33 1095.79,-143.1 1216.04,-129.21"/>
<polygon fill="#63b8ff" stroke="#63b8ff" points="1216.63,-132.66 1226.16,-128.04 1215.83,-125.71 1216.63,-132.66"/>
</a>
</g>
</g>
<!-- Node3 -->
<g id="Node000003" class="node">
<title>Node3</title>
<g id="a_Node000003"><a xlink:href="Layer_8h.html" target="_top" xlink:title=" ">
<polygon fill="white" stroke="#666666" points="550.38,-74 473.38,-74 473.38,-55 550.38,-55 550.38,-74"/>
<text text-anchor="middle" x="511.88" y="-62" font-family="Helvetica,sans-Serif" font-size="10.00">Core/Layer.h</text>
</a>
</g>
</g>
<!-- Node2&#45;&gt;Node3 -->
<g id="edge2_Node000002_Node000003" class="edge">
<title>Node2&#45;&gt;Node3</title>
<g id="a_edge2_Node000002_Node000003"><a xlink:title=" ">
<path fill="none" stroke="#63b8ff" d="M511.88,-109.75C511.88,-102.8 511.88,-92.85 511.88,-84.13"/>
<polygon fill="#63b8ff" stroke="#63b8ff" points="515.38,-84.09 511.88,-74.09 508.38,-84.09 515.38,-84.09"/>
</a>
</g>
</g>
<!-- Node5 -->
<g id="Node000005" class="node">
<title>Node5</title>
<g id="a_Node000005"><a xlink:title=" ">
<polygon fill="#e0e0e0" stroke="#999999" points="621.38,-74 568.38,-74 568.38,-55 621.38,-55 621.38,-74"/>
<text text-anchor="middle" x="594.88" y="-62" font-family="Helvetica,sans-Serif" font-size="10.00">stdint.h</text>
</a>
</g>
</g>
<!-- Node2&#45;&gt;Node5 -->
<g id="edge4_Node000002_Node000005" class="edge">
<title>Node2&#45;&gt;Node5</title>
<g id="a_edge4_Node000002_Node000005"><a xlink:title=" ">
<path fill="none" stroke="#63b8ff" d="M525.22,-109.98C537.97,-101.84 557.43,-89.41 572.55,-79.76"/>
<polygon fill="#63b8ff" stroke="#63b8ff" points="574.76,-82.5 581.3,-74.17 570.99,-76.6 574.76,-82.5"/>
</a>
</g>
</g>
<!-- Node4 -->
<g id="Node000004" class="node">
<title>Node4</title>
<g id="a_Node000004"><a xlink:href="Event_8h.html" target="_top" xlink:title=" ">
<polygon fill="white" stroke="#666666" points="538.38,-19 485.38,-19 485.38,0 538.38,0 538.38,-19"/>
<text text-anchor="middle" x="511.88" y="-7" font-family="Helvetica,sans-Serif" font-size="10.00">Event.h</text>
</a>
</g>
</g>
<!-- Node3&#45;&gt;Node4 -->
<g id="edge3_Node000003_Node000004" class="edge">
<title>Node3&#45;&gt;Node4</title>
<g id="a_edge3_Node000003_Node000004"><a xlink:title=" ">
<path fill="none" stroke="#63b8ff" d="M511.88,-54.75C511.88,-47.8 511.88,-37.85 511.88,-29.13"/>
<polygon fill="#63b8ff" stroke="#63b8ff" points="515.38,-29.09 511.88,-19.09 508.38,-29.09 515.38,-29.09"/>
</a>
</g>
</g>
<!-- Node6&#45;&gt;Node3 -->
<g id="edge6_Node000006_Node000003" class="edge">
<title>Node6&#45;&gt;Node3</title>
<g id="a_edge6_Node000006_Node000003"><a xlink:title=" ">
<path fill="none" stroke="#63b8ff" d="M321.35,-109.98C360.45,-100.86 422.65,-86.33 465.27,-76.38"/>
<polygon fill="#63b8ff" stroke="#63b8ff" points="466.18,-79.76 475.12,-74.08 464.59,-72.95 466.18,-79.76"/>
</a>
</g>
</g>
<!-- Node7 -->
<g id="Node000007" class="node">
<title>Node7</title>
<g id="a_Node000007"><a xlink:href="Window_8h.html" target="_top" xlink:title=" ">
<polygon fill="white" stroke="#666666" points="329.38,-74 240.38,-74 240.38,-55 329.38,-55 329.38,-74"/>
<text text-anchor="middle" x="284.88" y="-62" font-family="Helvetica,sans-Serif" font-size="10.00">Core/Window.h</text>
</a>
</g>
</g>
<!-- Node6&#45;&gt;Node7 -->
<g id="edge7_Node000006_Node000007" class="edge">
<title>Node6&#45;&gt;Node7</title>
<g id="a_edge7_Node000006_Node000007"><a xlink:title=" ">
<path fill="none" stroke="#63b8ff" d="M284.88,-109.75C284.88,-102.8 284.88,-92.85 284.88,-84.13"/>
<polygon fill="#63b8ff" stroke="#63b8ff" points="288.38,-84.09 284.88,-74.09 281.38,-84.09 288.38,-84.09"/>
</a>
</g>
</g>
<!-- Node6&#45;&gt;Node9 -->
<g id="edge11_Node000006_Node000009" class="edge">
<title>Node6&#45;&gt;Node9</title>
<g id="a_edge11_Node000006_Node000009"><a xlink:title=" ">
<path fill="none" stroke="#63b8ff" d="M231.71,-118.4C192.89,-115.48 141.54,-105.28 108.88,-74 96.82,-62.44 92.32,-43.57 90.7,-29.4"/>
<polygon fill="#63b8ff" stroke="#63b8ff" points="94.17,-28.97 89.92,-19.27 87.19,-29.51 94.17,-28.97"/>
</a>
</g>
</g>
<!-- Node10 -->
<g id="Node000010" class="node">
<title>Node10</title>
<g id="a_Node000010"><a xlink:title=" ">
<polygon fill="#e0e0e0" stroke="#999999" points="266.88,-19 222.88,-19 222.88,0 266.88,0 266.88,-19"/>
<text text-anchor="middle" x="244.88" y="-7" font-family="Helvetica,sans-Serif" font-size="10.00">string</text>
</a>
</g>
</g>
<!-- Node6&#45;&gt;Node10 -->
<g id="edge15_Node000006_Node000010" class="edge">
<title>Node6&#45;&gt;Node10</title>
<g id="a_edge15_Node000006_Node000010"><a xlink:title=" ">
<path fill="none" stroke="#63b8ff" d="M267.99,-109.95C255.17,-102.43 238.5,-90.15 230.88,-74 224.04,-59.5 229.1,-41.54 234.96,-28.43"/>
<polygon fill="#63b8ff" stroke="#63b8ff" points="238.28,-29.62 239.62,-19.11 232.02,-26.49 238.28,-29.62"/>
</a>
</g>
</g>
<!-- Node11 -->
<g id="Node000011" class="node">
<title>Node11</title>
<g id="a_Node000011"><a xlink:title=" ">
<polygon fill="#e0e0e0" stroke="#999999" points="183.38,-74 118.38,-74 118.38,-55 183.38,-55 183.38,-74"/>
<text text-anchor="middle" x="150.88" y="-62" font-family="Helvetica,sans-Serif" font-size="10.00">functional</text>
</a>
</g>
</g>
<!-- Node6&#45;&gt;Node11 -->
<g id="edge12_Node000006_Node000011" class="edge">
<title>Node6&#45;&gt;Node11</title>
<g id="a_edge12_Node000006_Node000011"><a xlink:title=" ">
<path fill="none" stroke="#63b8ff" d="M263.35,-109.98C241.41,-101.3 207.14,-87.75 182.19,-77.88"/>
<polygon fill="#63b8ff" stroke="#63b8ff" points="183.39,-74.59 172.8,-74.17 180.81,-81.1 183.39,-74.59"/>
</a>
</g>
</g>
<!-- Node12 -->
<g id="Node000012" class="node">
<title>Node12</title>
<g id="a_Node000012"><a xlink:title=" ">
<polygon fill="#e0e0e0" stroke="#999999" points="404.88,-74 346.88,-74 346.88,-55 404.88,-55 404.88,-74"/>
<text text-anchor="middle" x="375.88" y="-62" font-family="Helvetica,sans-Serif" font-size="10.00">memory</text>
</a>
</g>
</g>
<!-- Node6&#45;&gt;Node12 -->
<g id="edge13_Node000006_Node000012" class="edge">
<title>Node6&#45;&gt;Node12</title>
<g id="a_edge13_Node000006_Node000012"><a xlink:title=" ">
<path fill="none" stroke="#63b8ff" d="M299.5,-109.98C313.74,-101.69 335.63,-88.94 352.33,-79.22"/>
<polygon fill="#63b8ff" stroke="#63b8ff" points="354.11,-82.23 360.99,-74.17 350.59,-76.18 354.11,-82.23"/>
</a>
</g>
</g>
<!-- Node13 -->
<g id="Node000013" class="node">
<title>Node13</title>
<g id="a_Node000013"><a xlink:title=" ">
<polygon fill="#e0e0e0" stroke="#999999" points="454.88,-74 422.88,-74 422.88,-55 454.88,-55 454.88,-74"/>
<text text-anchor="middle" x="438.88" y="-62" font-family="Helvetica,sans-Serif" font-size="10.00">set</text>
</a>
</g>
</g>
<!-- Node6&#45;&gt;Node13 -->
<g id="edge14_Node000006_Node000013" class="edge">
<title>Node6&#45;&gt;Node13</title>
<g id="a_edge14_Node000006_Node000013"><a xlink:title=" ">
<path fill="none" stroke="#63b8ff" d="M309.62,-109.98C337.94,-100.24 384.12,-84.35 412.94,-74.43"/>
<polygon fill="#63b8ff" stroke="#63b8ff" points="414.39,-77.63 422.7,-71.07 412.11,-71.01 414.39,-77.63"/>
</a>
</g>
</g>
<!-- Node14 -->
<g id="Node000014" class="node">
<title>Node14</title>
<g id="a_Node000014"><a xlink:title=" ">
<polygon fill="#e0e0e0" stroke="#999999" points="61.38,-74 14.38,-74 14.38,-55 61.38,-55 61.38,-74"/>
<text text-anchor="middle" x="37.88" y="-62" font-family="Helvetica,sans-Serif" font-size="10.00">vector</text>
</a>
</g>
</g>
<!-- Node6&#45;&gt;Node14 -->
<g id="edge16_Node000006_Node000014" class="edge">
<title>Node6&#45;&gt;Node14</title>
<g id="a_edge16_Node000006_Node000014"><a xlink:title=" ">
<path fill="none" stroke="#63b8ff" d="M244.01,-109.93C201.85,-101.06 134.23,-86.74 75.88,-74 74.44,-73.68 72.96,-73.36 71.47,-73.03"/>
<polygon fill="#63b8ff" stroke="#63b8ff" points="72.11,-69.59 61.59,-70.84 70.59,-76.42 72.11,-69.59"/>
</a>
</g>
</g>
<!-- Node8 -->
<g id="Node000008" class="node">
<title>Node8</title>
<g id="a_Node000008"><a xlink:title=" ">
<polygon fill="#e0e0e0" stroke="#999999" points="401.38,-19 318.38,-19 318.38,0 401.38,0 401.38,-19"/>
<text text-anchor="middle" x="359.88" y="-7" font-family="Helvetica,sans-Serif" font-size="10.00">GLFW/glfw3.h</text>
</a>
</g>
</g>
<!-- Node7&#45;&gt;Node8 -->
<g id="edge8_Node000007_Node000008" class="edge">
<title>Node7&#45;&gt;Node8</title>
<g id="a_edge8_Node000007_Node000008"><a xlink:title=" ">
<path fill="none" stroke="#63b8ff" d="M296.93,-54.98C308.34,-46.92 325.71,-34.65 339.32,-25.03"/>
<polygon fill="#63b8ff" stroke="#63b8ff" points="341.46,-27.8 347.61,-19.17 337.42,-22.08 341.46,-27.8"/>
</a>
</g>
</g>
<!-- Node7&#45;&gt;Node9 -->
<g id="edge9_Node000007_Node000009" class="edge">
<title>Node7&#45;&gt;Node9</title>
<g id="a_edge9_Node000007_Node000009"><a xlink:title=" ">
<path fill="none" stroke="#63b8ff" d="M253.55,-54.98C220.39,-45.97 167.88,-31.7 131.32,-21.76"/>
<polygon fill="#63b8ff" stroke="#63b8ff" points="132.02,-18.33 121.46,-19.08 130.19,-25.08 132.02,-18.33"/>
</a>
</g>
</g>
<!-- Node7&#45;&gt;Node10 -->
<g id="edge10_Node000007_Node000010" class="edge">
<title>Node7&#45;&gt;Node10</title>
<g id="a_edge10_Node000007_Node000010"><a xlink:title=" ">
<path fill="none" stroke="#63b8ff" d="M278.28,-54.75C272.63,-47.26 264.34,-36.28 257.43,-27.13"/>
<polygon fill="#63b8ff" stroke="#63b8ff" points="260.18,-24.96 251.36,-19.09 254.59,-29.18 260.18,-24.96"/>
</a>
</g>
</g>
<!-- Node16 -->
<g id="Node000016" class="node">
<title>Node16</title>
<g id="a_Node000016"><a xlink:title=" ">
<polygon fill="#e0e0e0" stroke="#999999" points="1003.88,-74 953.88,-74 953.88,-55 1003.88,-55 1003.88,-74"/>
<text text-anchor="middle" x="978.88" y="-62" font-family="Helvetica,sans-Serif" font-size="10.00">format</text>
</a>
</g>
</g>
<!-- Node15&#45;&gt;Node16 -->
<g id="edge18_Node000015_Node000016" class="edge">
<title>Node15&#45;&gt;Node16</title>
<g id="a_edge18_Node000015_Node000016"><a xlink:title=" ">
<path fill="none" stroke="#63b8ff" d="M962.18,-109.75C964.86,-102.65 968.73,-92.4 972.07,-83.56"/>
<polygon fill="#63b8ff" stroke="#63b8ff" points="975.38,-84.68 975.64,-74.09 968.83,-82.21 975.38,-84.68"/>
</a>
</g>
</g>
<!-- Node17 -->
<g id="Node000017" class="node">
<title>Node17</title>
<g id="a_Node000017"><a xlink:title=" ">
<polygon fill="#e0e0e0" stroke="#999999" points="1081.88,-74 1021.88,-74 1021.88,-55 1081.88,-55 1081.88,-74"/>
<text text-anchor="middle" x="1051.88" y="-62" font-family="Helvetica,sans-Serif" font-size="10.00">iostream</text>
</a>
</g>
</g>
<!-- Node15&#45;&gt;Node17 -->
<g id="edge19_Node000015_Node000017" class="edge">
<title>Node15&#45;&gt;Node17</title>
<g id="a_edge19_Node000015_Node000017"><a xlink:title=" ">
<path fill="none" stroke="#63b8ff" d="M973.82,-109.98C988.38,-101.69 1010.75,-88.94 1027.81,-79.22"/>
<polygon fill="#63b8ff" stroke="#63b8ff" points="1029.71,-82.16 1036.67,-74.17 1026.25,-76.08 1029.71,-82.16"/>
</a>
</g>
</g>
<!-- Node18 -->
<g id="Node000018" class="node">
<title>Node18</title>
<g id="a_Node000018"><a xlink:title=" ">
<polygon fill="#e0e0e0" stroke="#999999" points="935.38,-74 842.38,-74 842.38,-55 935.38,-55 935.38,-74"/>
<text text-anchor="middle" x="888.88" y="-62" font-family="Helvetica,sans-Serif" font-size="10.00">source_location</text>
</a>
</g>
</g>
<!-- Node15&#45;&gt;Node18 -->
<g id="edge20_Node000015_Node000018" class="edge">
<title>Node15&#45;&gt;Node18</title>
<g id="a_edge20_Node000015_Node000018"><a xlink:title=" ">
<path fill="none" stroke="#63b8ff" d="M947.63,-109.98C937.08,-102 921.08,-89.88 908.44,-80.31"/>
<polygon fill="#63b8ff" stroke="#63b8ff" points="910.42,-77.42 900.33,-74.17 906.19,-83 910.42,-77.42"/>
</a>
</g>
</g>
<!-- Node19&#45;&gt;Node8 -->
<g id="edge22_Node000019_Node000008" class="edge">
<title>Node19&#45;&gt;Node8</title>
<g id="a_edge22_Node000019_Node000008"><a xlink:title=" ">
<path fill="none" stroke="#63b8ff" d="M662.75,-109.88C658.81,-95.91 649,-68.51 629.88,-55 595.61,-30.78 480.04,-18.79 411.71,-13.69"/>
<polygon fill="#63b8ff" stroke="#63b8ff" points="411.8,-10.19 401.58,-12.96 411.3,-17.17 411.8,-10.19"/>
</a>
</g>
</g>
<!-- Node20 -->
<g id="Node000020" class="node">
<title>Node20</title>
<g id="a_Node000020"><a xlink:title=" ">
<polygon fill="#e0e0e0" stroke="#999999" points="737.38,-74 678.38,-74 678.38,-55 737.38,-55 737.38,-74"/>
<text text-anchor="middle" x="707.88" y="-62" font-family="Helvetica,sans-Serif" font-size="10.00">glad/gl.h</text>
</a>
</g>
</g>
<!-- Node19&#45;&gt;Node20 -->
<g id="edge23_Node000019_Node000020" class="edge">
<title>Node19&#45;&gt;Node20</title>
<g id="a_edge23_Node000019_Node000020"><a xlink:title=" ">
<path fill="none" stroke="#63b8ff" d="M671.98,-109.75C678.05,-102.26 686.97,-91.28 694.39,-82.13"/>
<polygon fill="#63b8ff" stroke="#63b8ff" points="697.33,-84.06 700.91,-74.09 691.89,-79.65 697.33,-84.06"/>
</a>
</g>
</g>
<!-- Node21 -->
<g id="Node000021" class="node">
<title>Node21</title>
<g id="a_Node000021"><a xlink:title=" ">
<polygon fill="#e0e0e0" stroke="#999999" points="823.88,-74 755.88,-74 755.88,-55 823.88,-55 823.88,-74"/>
<text text-anchor="middle" x="789.88" y="-62" font-family="Helvetica,sans-Serif" font-size="10.00">filesystem</text>
</a>
</g>
</g>
<!-- Node19&#45;&gt;Node21 -->
<g id="edge24_Node000019_Node000021" class="edge">
<title>Node19&#45;&gt;Node21</title>
<g id="a_edge24_Node000019_Node000021"><a xlink:title=" ">
<path fill="none" stroke="#63b8ff" d="M684.96,-109.98C705.25,-101.38 736.84,-87.99 760.05,-78.15"/>
<polygon fill="#63b8ff" stroke="#63b8ff" points="761.59,-81.3 769.43,-74.17 758.86,-74.85 761.59,-81.3"/>
</a>
</g>
</g>
<!-- Node22&#45;&gt;Node21 -->
<g id="edge26_Node000022_Node000021" class="edge">
<title>Node22&#45;&gt;Node21</title>
<g id="a_edge26_Node000022_Node000021"><a xlink:title=" ">
<path fill="none" stroke="#63b8ff" d="M814.93,-109.75C810.82,-102.49 804.85,-91.95 799.78,-82.98"/>
<polygon fill="#63b8ff" stroke="#63b8ff" points="802.71,-81.07 794.74,-74.09 796.62,-84.52 802.71,-81.07"/>
</a>
</g>
</g>
</g>
</svg>
