<?xml version="1.0" encoding="UTF-8" standalone="no"?>
<!DOCTYPE svg PUBLIC "-//W3C//DTD SVG 1.1//EN"
 "http://www.w3.org/Graphics/SVG/1.1/DTD/svg11.dtd">
<!-- Generated by graphviz version 2.43.0 (0)
 -->
<!-- Title: Core/Include/Core/BaseType.h Pages: 1 -->
<svg width="2402pt" height="357pt"
 viewBox="0.00 0.00 2401.64 357.00" xmlns="http://www.w3.org/2000/svg" xmlns:xlink="http://www.w3.org/1999/xlink">
<g id="graph0" class="graph" transform="scale(1 1) rotate(0) translate(4 353)">
<title>Core/Include/Core/BaseType.h</title>
<!-- Node1 -->
<g id="Node000001" class="node">
<title>Node1</title>
<g id="a_Node000001"><a xlink:title=" ">
<polygon fill="#999999" stroke="#666666" points="1092.14,-349 931.14,-349 931.14,-330 1092.14,-330 1092.14,-349"/>
<text text-anchor="middle" x="1011.64" y="-337" font-family="Helvetica,sans-Serif" font-size="10.00">Core/Include/Core/BaseType.h</text>
</a>
</g>
</g>
<!-- Node2 -->
<g id="Node000002" class="node">
<title>Node2</title>
<g id="a_Node000002"><a xlink:href="ExtraDataType_8h.html" target="_top" xlink:title=" ">
<polygon fill="white" stroke="#666666" points="834.14,-162 703.14,-162 703.14,-132 834.14,-132 834.14,-162"/>
<text text-anchor="start" x="711.14" y="-150" font-family="Helvetica,sans-Serif" font-size="10.00">App/Include/Application</text>
<text text-anchor="middle" x="768.64" y="-139" font-family="Helvetica,sans-Serif" font-size="10.00">/ExtraDataType.h</text>
</a>
</g>
</g>
<!-- Node1&#45;&gt;Node2 -->
<g id="edge1_Node000001_Node000002" class="edge">
<title>Node1&#45;&gt;Node2</title>
<g id="a_edge1_Node000001_Node000002"><a xlink:title=" ">
<path fill="none" stroke="#63b8ff" d="M992.64,-323.6C946.93,-287.77 831.33,-197.15 786.65,-162.12"/>
<polygon fill="#63b8ff" stroke="#63b8ff" points="990.53,-326.4 1000.56,-329.82 994.85,-320.9 990.53,-326.4"/>
</a>
</g>
</g>
<!-- Node10 -->
<g id="Node000010" class="node">
<title>Node10</title>
<g id="a_Node000010"><a xlink:href="MeshExporter_8cpp.html" target="_top" xlink:title=" ">
<polygon fill="white" stroke="#666666" points="177.14,-90.5 16.14,-90.5 16.14,-71.5 177.14,-71.5 177.14,-90.5"/>
<text text-anchor="middle" x="96.64" y="-78.5" font-family="Helvetica,sans-Serif" font-size="10.00">App/Source/MeshExporter.cpp</text>
</a>
</g>
</g>
<!-- Node1&#45;&gt;Node10 -->
<g id="edge53_Node000001_Node000010" class="edge">
<title>Node1&#45;&gt;Node10</title>
<g id="a_edge53_Node000001_Node000010"><a xlink:title=" ">
<path fill="none" stroke="#63b8ff" d="M939.56,-328.45C887.13,-320.58 814.59,-308.55 751.64,-294 548.15,-246.97 498.27,-229.53 300.64,-162 232.24,-138.63 153,-105.88 116.68,-90.55"/>
<polygon fill="#63b8ff" stroke="#63b8ff" points="939.37,-331.96 949.77,-329.96 940.4,-325.03 939.37,-331.96"/>
</a>
</g>
</g>
<!-- Node13 -->
<g id="Node000013" class="node">
<title>Node13</title>
<g id="a_Node000013"><a xlink:href="Mesh_8h.html" target="_top" xlink:title=" ">
<polygon fill="white" stroke="#666666" points="1077.14,-228 946.14,-228 946.14,-198 1077.14,-198 1077.14,-228"/>
<text text-anchor="start" x="954.14" y="-216" font-family="Helvetica,sans-Serif" font-size="10.00">App/Include/Application</text>
<text text-anchor="middle" x="1011.64" y="-205" font-family="Helvetica,sans-Serif" font-size="10.00">/Mesh.h</text>
</a>
</g>
</g>
<!-- Node1&#45;&gt;Node13 -->
<g id="edge14_Node000001_Node000013" class="edge">
<title>Node1&#45;&gt;Node13</title>
<g id="a_edge14_Node000001_Node000013"><a xlink:title=" ">
<path fill="none" stroke="#63b8ff" d="M1011.64,-319.91C1011.64,-294.83 1011.64,-250.72 1011.64,-228.16"/>
<polygon fill="#63b8ff" stroke="#63b8ff" points="1008.14,-319.94 1011.64,-329.94 1015.14,-319.94 1008.14,-319.94"/>
</a>
</g>
</g>
<!-- Node14 -->
<g id="Node000014" class="node">
<title>Node14</title>
<g id="a_Node000014"><a xlink:href="MeshExporter_8h.html" target="_top" xlink:title=" ">
<polygon fill="white" stroke="#666666" points="441.14,-162 310.14,-162 310.14,-132 441.14,-132 441.14,-162"/>
<text text-anchor="start" x="318.14" y="-150" font-family="Helvetica,sans-Serif" font-size="10.00">App/Include/Application</text>
<text text-anchor="middle" x="375.64" y="-139" font-family="Helvetica,sans-Serif" font-size="10.00">/MeshExporter.h</text>
</a>
</g>
</g>
<!-- Node1&#45;&gt;Node14 -->
<g id="edge42_Node000001_Node000014" class="edge">
<title>Node1&#45;&gt;Node14</title>
<g id="a_edge42_Node000001_Node000014"><a xlink:title=" ">
<path fill="none" stroke="#63b8ff" d="M969.05,-327.38C935.88,-318.62 888.72,-305.92 847.64,-294 689.27,-248.04 502.57,-188.77 419.41,-162.1"/>
<polygon fill="#63b8ff" stroke="#63b8ff" points="968.31,-330.81 978.87,-329.97 970.09,-324.04 968.31,-330.81"/>
</a>
</g>
</g>
<!-- Node18 -->
<g id="Node000018" class="node">
<title>Node18</title>
<g id="a_Node000018"><a xlink:href="PrimitiveProxy_8h.html" target="_top" xlink:title=" ">
<polygon fill="white" stroke="#666666" points="646.14,-162 515.14,-162 515.14,-132 646.14,-132 646.14,-162"/>
<text text-anchor="start" x="523.14" y="-150" font-family="Helvetica,sans-Serif" font-size="10.00">App/Include/Application</text>
<text text-anchor="middle" x="580.64" y="-139" font-family="Helvetica,sans-Serif" font-size="10.00">/PrimitiveProxy.h</text>
</a>
</g>
</g>
<!-- Node1&#45;&gt;Node18 -->
<g id="edge52_Node000001_Node000018" class="edge">
<title>Node1&#45;&gt;Node18</title>
<g id="a_edge52_Node000001_Node000018"><a xlink:title=" ">
<path fill="none" stroke="#63b8ff" d="M982.67,-325.7C905.08,-291.4 693.01,-197.67 612.35,-162.02"/>
<polygon fill="#63b8ff" stroke="#63b8ff" points="981.72,-329.1 992.28,-329.94 984.55,-322.7 981.72,-329.1"/>
</a>
</g>
</g>
<!-- Node21 -->
<g id="Node000021" class="node">
<title>Node21</title>
<g id="a_Node000021"><a xlink:href="Primitive_8h.html" target="_top" xlink:title=" ">
<polygon fill="white" stroke="#666666" points="1270.14,-294 1139.14,-294 1139.14,-264 1270.14,-264 1270.14,-294"/>
<text text-anchor="start" x="1147.14" y="-282" font-family="Helvetica,sans-Serif" font-size="10.00">App/Include/Application</text>
<text text-anchor="middle" x="1204.64" y="-271" font-family="Helvetica,sans-Serif" font-size="10.00">/Primitive.h</text>
</a>
</g>
</g>
<!-- Node1&#45;&gt;Node21 -->
<g id="edge43_Node000001_Node000021" class="edge">
<title>Node1&#45;&gt;Node21</title>
<g id="a_edge43_Node000001_Node000021"><a xlink:title=" ">
<path fill="none" stroke="#63b8ff" d="M1049.32,-327.08C1080.49,-317.63 1124.89,-304.17 1158.24,-294.06"/>
<polygon fill="#63b8ff" stroke="#63b8ff" points="1048.26,-323.74 1039.7,-329.99 1050.29,-330.44 1048.26,-323.74"/>
</a>
</g>
</g>
<!-- Node27 -->
<g id="Node000027" class="node">
<title>Node27</title>
<g id="a_Node000027"><a xlink:href="Application_8h.html" target="_top" xlink:title=" ">
<polygon fill="white" stroke="#666666" points="2082.64,-222.5 1912.64,-222.5 1912.64,-203.5 2082.64,-203.5 2082.64,-222.5"/>
<text text-anchor="middle" x="1997.64" y="-210.5" font-family="Helvetica,sans-Serif" font-size="10.00">Core/Include/Core/Application.h</text>
</a>
</g>
</g>
<!-- Node1&#45;&gt;Node27 -->
<g id="edge54_Node000001_Node000027" class="edge">
<title>Node1&#45;&gt;Node27</title>
<g id="a_edge54_Node000001_Node000027"><a xlink:title=" ">
<path fill="none" stroke="#63b8ff" d="M1089.08,-328.72C1276.78,-305.02 1753.49,-244.83 1930.3,-222.5"/>
<polygon fill="#63b8ff" stroke="#63b8ff" points="1088.5,-325.27 1079.02,-329.99 1089.38,-332.21 1088.5,-325.27"/>
</a>
</g>
</g>
<!-- Node31 -->
<g id="Node000031" class="node">
<title>Node31</title>
<g id="a_Node000031"><a xlink:href="MathHelpers_8h.html" target="_top" xlink:title=" ">
<polygon fill="white" stroke="#666666" points="1439.14,-156.5 1262.14,-156.5 1262.14,-137.5 1439.14,-137.5 1439.14,-156.5"/>
<text text-anchor="middle" x="1350.64" y="-144.5" font-family="Helvetica,sans-Serif" font-size="10.00">Core/Include/Core/MathHelpers.h</text>
</a>
</g>
</g>
<!-- Node1&#45;&gt;Node31 -->
<g id="edge58_Node000001_Node000031" class="edge">
<title>Node1&#45;&gt;Node31</title>
<g id="a_edge58_Node000001_Node000031"><a xlink:title=" ">
<path fill="none" stroke="#63b8ff" d="M1020.56,-320.92C1036.87,-290.7 1074.46,-229.15 1124.64,-198 1152.08,-180.96 1234.17,-165.61 1291.45,-156.54"/>
<polygon fill="#63b8ff" stroke="#63b8ff" points="1017.41,-319.4 1015.86,-329.88 1023.61,-322.65 1017.41,-319.4"/>
</a>
</g>
</g>
<!-- Node33 -->
<g id="Node000033" class="node">
<title>Node33</title>
<g id="a_Node000033"><a xlink:href="Window_8h.html" target="_top" xlink:title=" ">
<polygon fill="white" stroke="#666666" points="2074.14,-288.5 1921.14,-288.5 1921.14,-269.5 2074.14,-269.5 2074.14,-288.5"/>
<text text-anchor="middle" x="1997.64" y="-276.5" font-family="Helvetica,sans-Serif" font-size="10.00">Core/Include/Core/Window.h</text>
</a>
</g>
</g>
<!-- Node1&#45;&gt;Node33 -->
<g id="edge64_Node000001_Node000033" class="edge">
<title>Node1&#45;&gt;Node33</title>
<g id="a_edge64_Node000001_Node000033"><a xlink:title=" ">
<path fill="none" stroke="#63b8ff" d="M1102.42,-333.11C1295.01,-321.69 1741.55,-295.19 1920.97,-284.55"/>
<polygon fill="#63b8ff" stroke="#63b8ff" points="1102.1,-329.63 1092.32,-333.71 1102.51,-336.61 1102.1,-329.63"/>
</a>
</g>
</g>
<!-- Node3 -->
<g id="Node000003" class="node">
<title>Node3</title>
<g id="a_Node000003"><a xlink:href="TestHelpers_8h.html" target="_top" xlink:title=" ">
<polygon fill="white" stroke="#666666" points="663.14,-96 532.14,-96 532.14,-66 663.14,-66 663.14,-96"/>
<text text-anchor="start" x="540.14" y="-84" font-family="Helvetica,sans-Serif" font-size="10.00">App/Include/Application</text>
<text text-anchor="middle" x="597.64" y="-73" font-family="Helvetica,sans-Serif" font-size="10.00">/TestHelpers.h</text>
</a>
</g>
</g>
<!-- Node2&#45;&gt;Node3 -->
<g id="edge2_Node000002_Node000003" class="edge">
<title>Node2&#45;&gt;Node3</title>
<g id="a_edge2_Node000002_Node000003"><a xlink:title=" ">
<path fill="none" stroke="#63b8ff" d="M721.4,-128.32C694.19,-118.14 660.45,-105.51 635.08,-96.01"/>
<polygon fill="#63b8ff" stroke="#63b8ff" points="720.52,-131.73 731.11,-131.95 722.97,-125.17 720.52,-131.73"/>
</a>
</g>
</g>
<!-- Node5 -->
<g id="Node000005" class="node">
<title>Node5</title>
<g id="a_Node000005"><a xlink:href="MeshExporter__utest_8cpp.html" target="_top" xlink:title=" ">
<polygon fill="white" stroke="#666666" points="547.64,-30 383.64,-30 383.64,0 547.64,0 547.64,-30"/>
<text text-anchor="start" x="391.64" y="-18" font-family="Helvetica,sans-Serif" font-size="10.00">App/Test/Source/MeshExporter</text>
<text text-anchor="middle" x="465.64" y="-7" font-family="Helvetica,sans-Serif" font-size="10.00">_utest.cpp</text>
</a>
</g>
</g>
<!-- Node2&#45;&gt;Node5 -->
<g id="edge11_Node000002_Node000005" class="edge">
<title>Node2&#45;&gt;Node5</title>
<g id="a_edge11_Node000002_Node000005"><a xlink:title=" ">
<path fill="none" stroke="#63b8ff" d="M693.04,-136.81C631.46,-128.21 550.33,-113.99 522.64,-96 497.61,-79.74 480.16,-48.33 471.63,-30.08"/>
<polygon fill="#63b8ff" stroke="#63b8ff" points="692.75,-140.3 703.13,-138.19 693.7,-133.37 692.75,-140.3"/>
</a>
</g>
</g>
<!-- Node7 -->
<g id="Node000007" class="node">
<title>Node7</title>
<g id="a_Node000007"><a xlink:href="Mesh__utest_8cpp.html" target="_top" xlink:title=" ">
<polygon fill="white" stroke="#666666" points="963.14,-30 840.14,-30 840.14,0 963.14,0 963.14,-30"/>
<text text-anchor="start" x="848.14" y="-18" font-family="Helvetica,sans-Serif" font-size="10.00">App/Test/Source/Mesh</text>
<text text-anchor="middle" x="901.64" y="-7" font-family="Helvetica,sans-Serif" font-size="10.00">_utest.cpp</text>
</a>
</g>
</g>
<!-- Node2&#45;&gt;Node7 -->
<g id="edge13_Node000002_Node000007" class="edge">
<title>Node2&#45;&gt;Node7</title>
<g id="a_edge13_Node000002_Node000007"><a xlink:title=" ">
<path fill="none" stroke="#63b8ff" d="M737.85,-125.84C716.76,-109.51 695.18,-86.02 710.64,-66 726.5,-45.45 790.48,-31.71 840.07,-23.92"/>
<polygon fill="#63b8ff" stroke="#63b8ff" points="736,-128.83 746.13,-131.94 740.15,-123.19 736,-128.83"/>
</a>
</g>
</g>
<!-- Node9 -->
<g id="Node000009" class="node">
<title>Node9</title>
<g id="a_Node000009"><a xlink:href="Mesh_8cpp.html" target="_top" xlink:title=" ">
<polygon fill="white" stroke="#666666" points="1263.14,-90.5 1142.14,-90.5 1142.14,-71.5 1263.14,-71.5 1263.14,-90.5"/>
<text text-anchor="middle" x="1202.64" y="-78.5" font-family="Helvetica,sans-Serif" font-size="10.00">App/Source/Mesh.cpp</text>
</a>
</g>
</g>
<!-- Node2&#45;&gt;Node9 -->
<g id="edge8_Node000002_Node000009" class="edge">
<title>Node2&#45;&gt;Node9</title>
<g id="a_edge8_Node000002_Node000009"><a xlink:title=" ">
<path fill="none" stroke="#63b8ff" d="M844.45,-131.76C913.9,-120.75 1059,-101.14 1141.83,-90.08"/>
<polygon fill="#63b8ff" stroke="#63b8ff" points="843.69,-128.34 834.37,-133.39 844.8,-135.25 843.69,-128.34"/>
</a>
</g>
</g>
<!-- Node2&#45;&gt;Node10 -->
<g id="edge9_Node000002_Node000010" class="edge">
<title>Node2&#45;&gt;Node10</title>
<g id="a_edge9_Node000002_Node000010"><a xlink:title=" ">
<path fill="none" stroke="#63b8ff" d="M692.84,-136.34C680.1,-134.82 667,-133.31 654.64,-132 564.32,-122.41 308.83,-100.2 177.21,-88.89"/>
<polygon fill="#63b8ff" stroke="#63b8ff" points="692.62,-139.84 702.97,-137.56 693.46,-132.89 692.62,-139.84"/>
</a>
</g>
</g>
<!-- Node11 -->
<g id="Node000011" class="node">
<title>Node11</title>
<g id="a_Node000011"><a xlink:href="MeshLoader_8cpp.html" target="_top" xlink:title=" ">
<polygon fill="white" stroke="#666666" points="873.14,-90.5 720.14,-90.5 720.14,-71.5 873.14,-71.5 873.14,-90.5"/>
<text text-anchor="middle" x="796.64" y="-78.5" font-family="Helvetica,sans-Serif" font-size="10.00">App/Source/MeshLoader.cpp</text>
</a>
</g>
</g>
<!-- Node2&#45;&gt;Node11 -->
<g id="edge10_Node000002_Node000011" class="edge">
<title>Node2&#45;&gt;Node11</title>
<g id="a_edge10_Node000002_Node000011"><a xlink:title=" ">
<path fill="none" stroke="#63b8ff" d="M778.87,-122.61C783.7,-111.56 789.19,-99.03 792.77,-90.84"/>
<polygon fill="#63b8ff" stroke="#63b8ff" points="775.65,-121.23 774.85,-131.8 782.07,-124.04 775.65,-121.23"/>
</a>
</g>
</g>
<!-- Node12 -->
<g id="Node000012" class="node">
<title>Node12</title>
<g id="a_Node000012"><a xlink:href="MeshLoader__utest_8cpp.html" target="_top" xlink:title=" ">
<polygon fill="white" stroke="#666666" points="1085.64,-96 929.64,-96 929.64,-66 1085.64,-66 1085.64,-96"/>
<text text-anchor="start" x="937.64" y="-84" font-family="Helvetica,sans-Serif" font-size="10.00">App/Test/Source/MeshLoader</text>
<text text-anchor="middle" x="1007.64" y="-73" font-family="Helvetica,sans-Serif" font-size="10.00">_utest.cpp</text>
</a>
</g>
</g>
<!-- Node2&#45;&gt;Node12 -->
<g id="edge12_Node000002_Node000012" class="edge">
<title>Node2&#45;&gt;Node12</title>
<g id="a_edge12_Node000002_Node000012"><a xlink:title=" ">
<path fill="none" stroke="#63b8ff" d="M831.17,-129.25C869.79,-118.91 918.76,-105.8 955.31,-96.01"/>
<polygon fill="#63b8ff" stroke="#63b8ff" points="829.84,-125.99 821.09,-131.95 831.65,-132.75 829.84,-125.99"/>
</a>
</g>
</g>
<!-- Node4 -->
<g id="Node000004" class="node">
<title>Node4</title>
<g id="a_Node000004"><a xlink:href="MeshCirculator__utest_8cpp.html" target="_top" xlink:title=" ">
<polygon fill="white" stroke="#666666" points="1746.64,-30 1576.64,-30 1576.64,0 1746.64,0 1746.64,-30"/>
<text text-anchor="start" x="1584.64" y="-18" font-family="Helvetica,sans-Serif" font-size="10.00">App/Test/Source/MeshCirculator</text>
<text text-anchor="middle" x="1661.64" y="-7" font-family="Helvetica,sans-Serif" font-size="10.00">_utest.cpp</text>
</a>
</g>
</g>
<!-- Node3&#45;&gt;Node4 -->
<g id="edge3_Node000003_Node000004" class="edge">
<title>Node3&#45;&gt;Node4</title>
<g id="a_edge3_Node000003_Node000004"><a xlink:title=" ">
<path fill="none" stroke="#63b8ff" d="M673.57,-69.82C685.95,-68.38 698.64,-67.04 710.64,-66 1029.39,-38.31 1110.17,-47.64 1429.64,-30 1478.29,-27.31 1532.66,-24.05 1576.53,-21.35"/>
<polygon fill="#63b8ff" stroke="#63b8ff" points="672.8,-66.39 663.28,-71.04 673.62,-73.34 672.8,-66.39"/>
</a>
</g>
</g>
<!-- Node3&#45;&gt;Node5 -->
<g id="edge4_Node000003_Node000005" class="edge">
<title>Node3&#45;&gt;Node5</title>
<g id="a_edge4_Node000003_Node000005"><a xlink:title=" ">
<path fill="none" stroke="#63b8ff" d="M559.51,-61.51C538.8,-51.47 513.61,-39.26 494.54,-30.01"/>
<polygon fill="#63b8ff" stroke="#63b8ff" points="558.14,-64.74 568.67,-65.95 561.2,-58.44 558.14,-64.74"/>
</a>
</g>
</g>
<!-- Node6 -->
<g id="Node000006" class="node">
<title>Node6</title>
<g id="a_Node000006"><a xlink:href="MeshIntegrity__utest_8cpp.html" target="_top" xlink:title=" ">
<polygon fill="white" stroke="#666666" points="1420.64,-30 1256.64,-30 1256.64,0 1420.64,0 1420.64,-30"/>
<text text-anchor="start" x="1264.64" y="-18" font-family="Helvetica,sans-Serif" font-size="10.00">App/Test/Source/MeshIntegrity</text>
<text text-anchor="middle" x="1338.64" y="-7" font-family="Helvetica,sans-Serif" font-size="10.00">_utest.cpp</text>
</a>
</g>
</g>
<!-- Node3&#45;&gt;Node6 -->
<g id="edge5_Node000003_Node000006" class="edge">
<title>Node3&#45;&gt;Node6</title>
<g id="a_edge5_Node000003_Node000006"><a xlink:title=" ">
<path fill="none" stroke="#63b8ff" d="M673.6,-70.13C685.97,-68.65 698.65,-67.22 710.64,-66 906.09,-46.12 1136.44,-29.52 1256.49,-21.39"/>
<polygon fill="#63b8ff" stroke="#63b8ff" points="672.82,-66.69 663.31,-71.37 673.66,-73.64 672.82,-66.69"/>
</a>
</g>
</g>
<!-- Node3&#45;&gt;Node7 -->
<g id="edge6_Node000003_Node000007" class="edge">
<title>Node3&#45;&gt;Node7</title>
<g id="a_edge6_Node000003_Node000007"><a xlink:title=" ">
<path fill="none" stroke="#63b8ff" d="M673.29,-64.07C724.72,-53.25 791.89,-39.1 840.05,-28.97"/>
<polygon fill="#63b8ff" stroke="#63b8ff" points="672.29,-60.71 663.23,-66.19 673.73,-67.56 672.29,-60.71"/>
</a>
</g>
</g>
<!-- Node8 -->
<g id="Node000008" class="node">
<title>Node8</title>
<g id="a_Node000008"><a xlink:href="PrimitiveProxy__utest_8cpp.html" target="_top" xlink:title=" ">
<polygon fill="white" stroke="#666666" points="321.14,-30 180.14,-30 180.14,0 321.14,0 321.14,-30"/>
<text text-anchor="start" x="188.14" y="-18" font-family="Helvetica,sans-Serif" font-size="10.00">App/Test/Source/Primitive</text>
<text text-anchor="middle" x="250.64" y="-7" font-family="Helvetica,sans-Serif" font-size="10.00">Proxy_utest.cpp</text>
</a>
</g>
</g>
<!-- Node3&#45;&gt;Node8 -->
<g id="edge7_Node000003_Node000008" class="edge">
<title>Node3&#45;&gt;Node8</title>
<g id="a_edge7_Node000003_Node000008"><a xlink:title=" ">
<path fill="none" stroke="#63b8ff" d="M521.85,-66.02C462.21,-55.02 379.72,-39.81 321.41,-29.05"/>
<polygon fill="#63b8ff" stroke="#63b8ff" points="521.49,-69.51 531.96,-67.89 522.76,-62.63 521.49,-69.51"/>
</a>
</g>
</g>
<!-- Node13&#45;&gt;Node3 -->
<g id="edge37_Node000013_Node000003" class="edge">
<title>Node13&#45;&gt;Node3</title>
<g id="a_edge37_Node000013_Node000003"><a xlink:title=" ">
<path fill="none" stroke="#63b8ff" d="M936.01,-211.35C869.47,-208.2 771.35,-197.21 693.64,-162 684.5,-157.86 638.43,-117.92 613.58,-96.09"/>
<polygon fill="#63b8ff" stroke="#63b8ff" points="935.86,-214.84 946,-211.77 936.16,-207.85 935.86,-214.84"/>
</a>
</g>
</g>
<!-- Node13&#45;&gt;Node4 -->
<g id="edge40_Node000013_Node000004" class="edge">
<title>Node13&#45;&gt;Node4</title>
<g id="a_edge40_Node000013_Node000004"><a xlink:title=" ">
<path fill="none" stroke="#63b8ff" d="M1087.59,-201.96C1099.96,-200.51 1112.64,-199.12 1124.64,-198 1249.68,-186.27 1574,-213.3 1688.64,-162 1736.13,-140.75 1782.43,-110.6 1755.64,-66 1745.55,-49.2 1727.7,-37.75 1710.24,-30.08"/>
<polygon fill="#63b8ff" stroke="#63b8ff" points="1086.8,-198.53 1077.29,-203.2 1087.64,-205.48 1086.8,-198.53"/>
</a>
</g>
</g>
<!-- Node13&#45;&gt;Node7 -->
<g id="edge41_Node000013_Node000007" class="edge">
<title>Node13&#45;&gt;Node7</title>
<g id="a_edge41_Node000013_Node000007"><a xlink:title=" ">
<path fill="none" stroke="#63b8ff" d="M1014.68,-187.63C1017.83,-170.61 1024.14,-148.14 1036.64,-132 1055.22,-108.02 1079.89,-122.51 1094.64,-96 1101.12,-84.35 1102.8,-76.54 1094.64,-66 1078.54,-45.2 1013.51,-31.47 963.34,-23.75"/>
<polygon fill="#63b8ff" stroke="#63b8ff" points="1011.16,-187.48 1013.03,-197.9 1018.07,-188.58 1011.16,-187.48"/>
</a>
</g>
</g>
<!-- Node13&#45;&gt;Node9 -->
<g id="edge38_Node000013_Node000009" class="edge">
<title>Node13&#45;&gt;Node9</title>
<g id="a_edge38_Node000013_Node000009"><a xlink:title=" ">
<path fill="none" stroke="#63b8ff" d="M1022.92,-188.75C1032.59,-171.01 1048.05,-147.12 1067.64,-132 1095.04,-110.85 1132.3,-97.95 1160.74,-90.56"/>
<polygon fill="#63b8ff" stroke="#63b8ff" points="1019.68,-187.39 1018.16,-197.88 1025.89,-190.63 1019.68,-187.39"/>
</a>
</g>
</g>
<!-- Node13&#45;&gt;Node14 -->
<g id="edge15_Node000013_Node000014" class="edge">
<title>Node13&#45;&gt;Node14</title>
<g id="a_edge15_Node000013_Node000014"><a xlink:title=" ">
<path fill="none" stroke="#63b8ff" d="M935.92,-204.73C836.96,-195.17 658.29,-177.76 505.64,-162 484.75,-159.84 461.98,-157.42 441.43,-155.2"/>
<polygon fill="#63b8ff" stroke="#63b8ff" points="935.83,-208.23 946.12,-205.71 936.5,-201.27 935.83,-208.23"/>
</a>
</g>
</g>
<!-- Node15 -->
<g id="Node000015" class="node">
<title>Node15</title>
<g id="a_Node000015"><a xlink:href="MeshIntegrity_8h.html" target="_top" xlink:title=" ">
<polygon fill="white" stroke="#666666" points="1680.14,-162 1549.14,-162 1549.14,-132 1680.14,-132 1680.14,-162"/>
<text text-anchor="start" x="1557.14" y="-150" font-family="Helvetica,sans-Serif" font-size="10.00">App/Include/Application</text>
<text text-anchor="middle" x="1614.64" y="-139" font-family="Helvetica,sans-Serif" font-size="10.00">/MeshIntegrity.h</text>
</a>
</g>
</g>
<!-- Node13&#45;&gt;Node15 -->
<g id="edge18_Node000013_Node000015" class="edge">
<title>Node13&#45;&gt;Node15</title>
<g id="a_edge18_Node000013_Node000015"><a xlink:title=" ">
<path fill="none" stroke="#63b8ff" d="M1087.63,-202.36C1099.99,-200.85 1112.67,-199.35 1124.64,-198 1276.31,-180.87 1454.7,-163.32 1548.81,-154.26"/>
<polygon fill="#63b8ff" stroke="#63b8ff" points="1086.84,-198.93 1077.34,-203.62 1087.69,-205.88 1086.84,-198.93"/>
</a>
</g>
</g>
<!-- Node17 -->
<g id="Node000017" class="node">
<title>Node17</title>
<g id="a_Node000017"><a xlink:href="MeshLoader_8h.html" target="_top" xlink:title=" ">
<polygon fill="white" stroke="#666666" points="983.14,-162 852.14,-162 852.14,-132 983.14,-132 983.14,-162"/>
<text text-anchor="start" x="860.14" y="-150" font-family="Helvetica,sans-Serif" font-size="10.00">App/Include/Application</text>
<text text-anchor="middle" x="917.64" y="-139" font-family="Helvetica,sans-Serif" font-size="10.00">/MeshLoader.h</text>
</a>
</g>
</g>
<!-- Node13&#45;&gt;Node17 -->
<g id="edge23_Node000013_Node000017" class="edge">
<title>Node13&#45;&gt;Node17</title>
<g id="a_edge23_Node000013_Node000017"><a xlink:title=" ">
<path fill="none" stroke="#63b8ff" d="M982.3,-192.03C968.08,-182.34 951.33,-170.94 938.44,-162.16"/>
<polygon fill="#63b8ff" stroke="#63b8ff" points="980.54,-195.06 990.77,-197.8 984.48,-189.28 980.54,-195.06"/>
</a>
</g>
</g>
<!-- Node13&#45;&gt;Node18 -->
<g id="edge27_Node000013_Node000018" class="edge">
<title>Node13&#45;&gt;Node18</title>
<g id="a_edge27_Node000013_Node000018"><a xlink:title=" ">
<path fill="none" stroke="#63b8ff" d="M935.66,-201.89C864.5,-192.25 755.23,-177.01 660.64,-162 656.04,-161.27 651.3,-160.5 646.53,-159.7"/>
<polygon fill="#63b8ff" stroke="#63b8ff" points="935.5,-205.4 945.88,-203.27 936.44,-198.46 935.5,-205.4"/>
</a>
</g>
</g>
<!-- Node20 -->
<g id="Node000020" class="node">
<title>Node20</title>
<g id="a_Node000020"><a xlink:href="MeshCirculator_8cpp.html" target="_top" xlink:title=" ">
<polygon fill="white" stroke="#666666" points="1244.14,-156.5 1077.14,-156.5 1077.14,-137.5 1244.14,-137.5 1244.14,-156.5"/>
<text text-anchor="middle" x="1160.64" y="-144.5" font-family="Helvetica,sans-Serif" font-size="10.00">App/Source/MeshCirculator.cpp</text>
</a>
</g>
</g>
<!-- Node13&#45;&gt;Node20 -->
<g id="edge39_Node000013_Node000020" class="edge">
<title>Node13&#45;&gt;Node20</title>
<g id="a_edge39_Node000013_Node000020"><a xlink:title=" ">
<path fill="none" stroke="#63b8ff" d="M1053.68,-193.94C1082.23,-181.68 1118.68,-166.02 1140.81,-156.52"/>
<polygon fill="#63b8ff" stroke="#63b8ff" points="1052.14,-190.79 1044.34,-197.95 1054.9,-197.22 1052.14,-190.79"/>
</a>
</g>
</g>
<!-- Node14&#45;&gt;Node5 -->
<g id="edge17_Node000014_Node000005" class="edge">
<title>Node14&#45;&gt;Node5</title>
<g id="a_edge17_Node000014_Node000005"><a xlink:title=" ">
<path fill="none" stroke="#63b8ff" d="M299.86,-146.95C203.16,-146.35 43.92,-138.67 6.64,-96 -2.14,-85.96 -2.27,-75.93 6.64,-66 8.2,-64.26 251.74,-38.45 383.39,-24.61"/>
<polygon fill="#63b8ff" stroke="#63b8ff" points="299.87,-150.45 309.88,-146.99 299.89,-143.45 299.87,-150.45"/>
</a>
</g>
</g>
<!-- Node14&#45;&gt;Node10 -->
<g id="edge16_Node000014_Node000010" class="edge">
<title>Node14&#45;&gt;Node10</title>
<g id="a_edge16_Node000014_Node000010"><a xlink:title=" ">
<path fill="none" stroke="#63b8ff" d="M304.47,-129.68C250.05,-117.19 177.19,-100.48 133.77,-90.52"/>
<polygon fill="#63b8ff" stroke="#63b8ff" points="303.88,-133.13 314.41,-131.95 305.44,-126.31 303.88,-133.13"/>
</a>
</g>
</g>
<!-- Node15&#45;&gt;Node6 -->
<g id="edge20_Node000015_Node000006" class="edge">
<title>Node15&#45;&gt;Node6</title>
<g id="a_edge20_Node000015_Node000006"><a xlink:title=" ">
<path fill="none" stroke="#63b8ff" d="M1679.97,-128.79C1720.88,-114.89 1761.64,-93.2 1737.64,-66 1717.05,-42.67 1531.69,-27.59 1421,-20.58"/>
<polygon fill="#63b8ff" stroke="#63b8ff" points="1678.87,-125.47 1670.45,-131.9 1681.04,-132.13 1678.87,-125.47"/>
</a>
</g>
</g>
<!-- Node15&#45;&gt;Node7 -->
<g id="edge22_Node000015_Node000007" class="edge">
<title>Node15&#45;&gt;Node7</title>
<g id="a_edge22_Node000015_Node000007"><a xlink:title=" ">
<path fill="none" stroke="#63b8ff" d="M1659.51,-127.52C1691.29,-111.9 1724.81,-88.53 1703.64,-66 1690.98,-52.53 1149.28,-27.08 963.45,-18.73"/>
<polygon fill="#63b8ff" stroke="#63b8ff" points="1657.76,-124.48 1650.21,-131.91 1660.75,-130.81 1657.76,-124.48"/>
</a>
</g>
</g>
<!-- Node15&#45;&gt;Node12 -->
<g id="edge21_Node000015_Node000012" class="edge">
<title>Node15&#45;&gt;Node12</title>
<g id="a_edge21_Node000015_Node000012"><a xlink:title=" ">
<path fill="none" stroke="#63b8ff" d="M1539.05,-138.35C1444.13,-128.7 1276.29,-111.5 1132.64,-96 1117.44,-94.36 1101.21,-92.57 1085.64,-90.84"/>
<polygon fill="#63b8ff" stroke="#63b8ff" points="1538.83,-141.85 1549.13,-139.38 1539.54,-134.88 1538.83,-141.85"/>
</a>
</g>
</g>
<!-- Node16 -->
<g id="Node000016" class="node">
<title>Node16</title>
<g id="a_Node000016"><a xlink:href="MeshIntegrity_8cpp.html" target="_top" xlink:title=" ">
<polygon fill="white" stroke="#666666" points="1695.14,-90.5 1534.14,-90.5 1534.14,-71.5 1695.14,-71.5 1695.14,-90.5"/>
<text text-anchor="middle" x="1614.64" y="-78.5" font-family="Helvetica,sans-Serif" font-size="10.00">App/Source/MeshIntegrity.cpp</text>
</a>
</g>
</g>
<!-- Node15&#45;&gt;Node16 -->
<g id="edge19_Node000015_Node000016" class="edge">
<title>Node15&#45;&gt;Node16</title>
<g id="a_edge19_Node000015_Node000016"><a xlink:title=" ">
<path fill="none" stroke="#63b8ff" d="M1614.64,-121.6C1614.64,-110.8 1614.64,-98.78 1614.64,-90.84"/>
<polygon fill="#63b8ff" stroke="#63b8ff" points="1611.14,-121.8 1614.64,-131.8 1618.14,-121.8 1611.14,-121.8"/>
</a>
</g>
</g>
<!-- Node17&#45;&gt;Node7 -->
<g id="edge26_Node000017_Node000007" class="edge">
<title>Node17&#45;&gt;Node7</title>
<g id="a_edge26_Node000017_Node000007"><a xlink:title=" ">
<path fill="none" stroke="#63b8ff" d="M914.64,-121.68C911.32,-94.7 906.08,-52.11 903.38,-30.14"/>
<polygon fill="#63b8ff" stroke="#63b8ff" points="911.2,-122.34 915.89,-131.84 918.15,-121.49 911.2,-122.34"/>
</a>
</g>
</g>
<!-- Node17&#45;&gt;Node11 -->
<g id="edge24_Node000017_Node000011" class="edge">
<title>Node17&#45;&gt;Node11</title>
<g id="a_edge24_Node000017_Node000011"><a xlink:title=" ">
<path fill="none" stroke="#63b8ff" d="M881.97,-127.14C859.03,-115 830.32,-99.82 812.74,-90.52"/>
<polygon fill="#63b8ff" stroke="#63b8ff" points="880.61,-130.37 891.08,-131.95 883.88,-124.19 880.61,-130.37"/>
</a>
</g>
</g>
<!-- Node17&#45;&gt;Node12 -->
<g id="edge25_Node000017_Node000012" class="edge">
<title>Node17&#45;&gt;Node12</title>
<g id="a_edge25_Node000017_Node000012"><a xlink:title=" ">
<path fill="none" stroke="#63b8ff" d="M946.11,-125.75C959.64,-116.13 975.49,-104.86 987.72,-96.16"/>
<polygon fill="#63b8ff" stroke="#63b8ff" points="943.73,-123.15 937.61,-131.8 947.79,-128.85 943.73,-123.15"/>
</a>
</g>
</g>
<!-- Node18&#45;&gt;Node3 -->
<g id="edge28_Node000018_Node000003" class="edge">
<title>Node18&#45;&gt;Node3</title>
<g id="a_edge28_Node000018_Node000003"><a xlink:title=" ">
<path fill="none" stroke="#63b8ff" d="M586.98,-122.11C589.3,-113.38 591.85,-103.78 593.87,-96.16"/>
<polygon fill="#63b8ff" stroke="#63b8ff" points="583.59,-121.23 584.41,-131.8 590.36,-123.03 583.59,-121.23"/>
</a>
</g>
</g>
<!-- Node18&#45;&gt;Node5 -->
<g id="edge33_Node000018_Node000005" class="edge">
<title>Node18&#45;&gt;Node5</title>
<g id="a_edge33_Node000018_Node000005"><a xlink:title=" ">
<path fill="none" stroke="#63b8ff" d="M504.91,-136.59C413.37,-124.85 270.5,-105.2 262.64,-96 223.49,-50.22 311.28,-30.45 383.43,-22.04"/>
<polygon fill="#63b8ff" stroke="#63b8ff" points="504.62,-140.08 514.98,-137.88 505.5,-133.14 504.62,-140.08"/>
</a>
</g>
</g>
<!-- Node18&#45;&gt;Node7 -->
<g id="edge35_Node000018_Node000007" class="edge">
<title>Node18&#45;&gt;Node7</title>
<g id="a_edge35_Node000018_Node000007"><a xlink:title=" ">
<path fill="none" stroke="#63b8ff" d="M549.86,-125.82C528.19,-109.16 505.79,-85.22 522.64,-66 543.2,-42.54 737.96,-26.57 839.97,-19.74"/>
<polygon fill="#63b8ff" stroke="#63b8ff" points="547.92,-128.73 558.05,-131.82 552.06,-123.09 547.92,-128.73"/>
</a>
</g>
</g>
<!-- Node18&#45;&gt;Node8 -->
<g id="edge36_Node000018_Node000008" class="edge">
<title>Node18&#45;&gt;Node8</title>
<g id="a_edge36_Node000018_Node000008"><a xlink:title=" ">
<path fill="none" stroke="#63b8ff" d="M504.88,-137.07C409.77,-125.49 257.93,-105.64 249.64,-96 233.97,-77.78 239.93,-47.65 245.45,-30.03"/>
<polygon fill="#63b8ff" stroke="#63b8ff" points="504.69,-140.57 515.04,-138.3 505.53,-133.62 504.69,-140.57"/>
</a>
</g>
</g>
<!-- Node18&#45;&gt;Node9 -->
<g id="edge29_Node000018_Node000009" class="edge">
<title>Node18&#45;&gt;Node9</title>
<g id="a_edge29_Node000018_Node000009"><a xlink:title=" ">
<path fill="none" stroke="#63b8ff" d="M656.61,-136.23C668.98,-134.74 681.66,-133.28 693.64,-132 871.56,-113 916.76,-115.51 1094.64,-96 1109.95,-94.32 1126.46,-92.29 1141.86,-90.31"/>
<polygon fill="#63b8ff" stroke="#63b8ff" points="655.83,-132.8 646.32,-137.48 656.67,-139.75 655.83,-132.8"/>
</a>
</g>
</g>
<!-- Node18&#45;&gt;Node10 -->
<g id="edge30_Node000018_Node000010" class="edge">
<title>Node18&#45;&gt;Node10</title>
<g id="a_edge30_Node000018_Node000010"><a xlink:title=" ">
<path fill="none" stroke="#63b8ff" d="M504.58,-136.65C426.13,-126.9 300.25,-110.98 191.64,-96 179.17,-94.28 165.79,-92.36 153.13,-90.5"/>
<polygon fill="#63b8ff" stroke="#63b8ff" points="504.5,-140.16 514.86,-137.92 505.36,-133.22 504.5,-140.16"/>
</a>
</g>
</g>
<!-- Node18&#45;&gt;Node11 -->
<g id="edge31_Node000018_Node000011" class="edge">
<title>Node18&#45;&gt;Node11</title>
<g id="a_edge31_Node000018_Node000011"><a xlink:title=" ">
<path fill="none" stroke="#63b8ff" d="M637.84,-129.05C679.73,-116.64 734.83,-100.31 767.89,-90.52"/>
<polygon fill="#63b8ff" stroke="#63b8ff" points="636.63,-125.76 628.04,-131.95 638.62,-132.47 636.63,-125.76"/>
</a>
</g>
</g>
<!-- Node18&#45;&gt;Node12 -->
<g id="edge34_Node000018_Node000012" class="edge">
<title>Node18&#45;&gt;Node12</title>
<g id="a_edge34_Node000018_Node000012"><a xlink:title=" ">
<path fill="none" stroke="#63b8ff" d="M656.52,-134.63C733.39,-123.1 851.76,-105.36 929.45,-93.72"/>
<polygon fill="#63b8ff" stroke="#63b8ff" points="655.79,-131.2 646.42,-136.14 656.83,-138.12 655.79,-131.2"/>
</a>
</g>
</g>
<!-- Node19 -->
<g id="Node000019" class="node">
<title>Node19</title>
<g id="a_Node000019"><a xlink:href="PrimitiveProxy_8cpp.html" target="_top" xlink:title=" ">
<polygon fill="white" stroke="#666666" points="437.14,-90.5 272.14,-90.5 272.14,-71.5 437.14,-71.5 437.14,-90.5"/>
<text text-anchor="middle" x="354.64" y="-78.5" font-family="Helvetica,sans-Serif" font-size="10.00">App/Source/PrimitiveProxy.cpp</text>
</a>
</g>
</g>
<!-- Node18&#45;&gt;Node19 -->
<g id="edge32_Node000018_Node000019" class="edge">
<title>Node18&#45;&gt;Node19</title>
<g id="a_edge32_Node000018_Node000019"><a xlink:title=" ">
<path fill="none" stroke="#63b8ff" d="M521.34,-129.21C477.44,-116.78 419.45,-100.35 384.71,-90.52"/>
<polygon fill="#63b8ff" stroke="#63b8ff" points="520.46,-132.6 531.04,-131.95 522.37,-125.86 520.46,-132.6"/>
</a>
</g>
</g>
<!-- Node21&#45;&gt;Node13 -->
<g id="edge44_Node000021_Node000013" class="edge">
<title>Node21&#45;&gt;Node13</title>
<g id="a_edge44_Node000021_Node000013"><a xlink:title=" ">
<path fill="none" stroke="#63b8ff" d="M1152.54,-260.72C1121.61,-250.47 1082.91,-237.63 1053.89,-228.01"/>
<polygon fill="#63b8ff" stroke="#63b8ff" points="1151.69,-264.13 1162.28,-263.95 1153.89,-257.49 1151.69,-264.13"/>
</a>
</g>
</g>
<!-- Node22 -->
<g id="Node000022" class="node">
<title>Node22</title>
<g id="a_Node000022"><a xlink:href="VertexPair_8h.html" target="_top" xlink:title=" ">
<polygon fill="white" stroke="#666666" points="1913.14,-162 1782.14,-162 1782.14,-132 1913.14,-132 1913.14,-162"/>
<text text-anchor="start" x="1790.14" y="-150" font-family="Helvetica,sans-Serif" font-size="10.00">App/Include/Application</text>
<text text-anchor="middle" x="1847.64" y="-139" font-family="Helvetica,sans-Serif" font-size="10.00">/VertexPair.h</text>
</a>
</g>
</g>
<!-- Node21&#45;&gt;Node22 -->
<g id="edge45_Node000021_Node000022" class="edge">
<title>Node21&#45;&gt;Node22</title>
<g id="a_edge45_Node000021_Node000022"><a xlink:title=" ">
<path fill="none" stroke="#63b8ff" d="M1280.48,-262.67C1407.68,-236.95 1661.87,-185.56 1781.94,-161.28"/>
<polygon fill="#63b8ff" stroke="#63b8ff" points="1279.53,-259.29 1270.43,-264.7 1280.92,-266.15 1279.53,-259.29"/>
</a>
</g>
</g>
<!-- Node25 -->
<g id="Node000025" class="node">
<title>Node25</title>
<g id="a_Node000025"><a xlink:href="Primitive_8cpp.html" target="_top" xlink:title=" ">
<polygon fill="white" stroke="#666666" points="1432.14,-222.5 1293.14,-222.5 1293.14,-203.5 1432.14,-203.5 1432.14,-222.5"/>
<text text-anchor="middle" x="1362.64" y="-210.5" font-family="Helvetica,sans-Serif" font-size="10.00">App/Source/Primitive.cpp</text>
</a>
</g>
</g>
<!-- Node21&#45;&gt;Node25 -->
<g id="edge50_Node000021_Node000025" class="edge">
<title>Node21&#45;&gt;Node25</title>
<g id="a_edge50_Node000021_Node000025"><a xlink:title=" ">
<path fill="none" stroke="#63b8ff" d="M1248.83,-260.1C1279.15,-247.82 1318.04,-232.06 1341.61,-222.52"/>
<polygon fill="#63b8ff" stroke="#63b8ff" points="1247.26,-256.96 1239.31,-263.95 1249.89,-263.44 1247.26,-256.96"/>
</a>
</g>
</g>
<!-- Node26 -->
<g id="Node000026" class="node">
<title>Node26</title>
<g id="a_Node000026"><a xlink:href="Primitive__utest_8cpp.html" target="_top" xlink:title=" ">
<polygon fill="white" stroke="#666666" points="1275.14,-228 1134.14,-228 1134.14,-198 1275.14,-198 1275.14,-228"/>
<text text-anchor="start" x="1142.14" y="-216" font-family="Helvetica,sans-Serif" font-size="10.00">App/Test/Source/Primitive</text>
<text text-anchor="middle" x="1204.64" y="-205" font-family="Helvetica,sans-Serif" font-size="10.00">_utest.cpp</text>
</a>
</g>
</g>
<!-- Node21&#45;&gt;Node26 -->
<g id="edge51_Node000021_Node000026" class="edge">
<title>Node21&#45;&gt;Node26</title>
<g id="a_edge51_Node000021_Node000026"><a xlink:title=" ">
<path fill="none" stroke="#63b8ff" d="M1204.64,-253.54C1204.64,-244.96 1204.64,-235.61 1204.64,-228.16"/>
<polygon fill="#63b8ff" stroke="#63b8ff" points="1201.14,-253.8 1204.64,-263.8 1208.14,-253.8 1201.14,-253.8"/>
</a>
</g>
</g>
<!-- Node22&#45;&gt;Node9 -->
<g id="edge46_Node000022_Node000009" class="edge">
<title>Node22&#45;&gt;Node9</title>
<g id="a_edge46_Node000022_Node000009"><a xlink:title=" ">
<path fill="none" stroke="#63b8ff" d="M1771.72,-138.47C1642.33,-125.63 1381.63,-99.76 1263.4,-88.03"/>
<polygon fill="#63b8ff" stroke="#63b8ff" points="1771.64,-141.98 1781.94,-139.48 1772.34,-135.01 1771.64,-141.98"/>
</a>
</g>
</g>
<!-- Node22&#45;&gt;Node11 -->
<g id="edge47_Node000022_Node000011" class="edge">
<title>Node22&#45;&gt;Node11</title>
<g id="a_edge47_Node000022_Node000011"><a xlink:title=" ">
<path fill="none" stroke="#63b8ff" d="M1771.66,-138.67C1745.38,-136.31 1715.73,-133.83 1688.64,-132 1347.7,-109.01 1261.26,-123.18 920.64,-96 902.5,-94.55 882.91,-92.55 864.78,-90.51"/>
<polygon fill="#63b8ff" stroke="#63b8ff" points="1771.65,-142.19 1781.93,-139.61 1772.29,-135.21 1771.65,-142.19"/>
</a>
</g>
</g>
<!-- Node23 -->
<g id="Node000023" class="node">
<title>Node23</title>
<g id="a_Node000023"><a xlink:href="VertexPair_8cpp.html" target="_top" xlink:title=" ">
<polygon fill="white" stroke="#666666" points="2135.14,-90.5 1992.14,-90.5 1992.14,-71.5 2135.14,-71.5 2135.14,-90.5"/>
<text text-anchor="middle" x="2063.64" y="-78.5" font-family="Helvetica,sans-Serif" font-size="10.00">App/Source/VertexPair.cpp</text>
</a>
</g>
</g>
<!-- Node22&#45;&gt;Node23 -->
<g id="edge48_Node000022_Node000023" class="edge">
<title>Node22&#45;&gt;Node23</title>
<g id="a_edge48_Node000022_Node000023"><a xlink:title=" ">
<path fill="none" stroke="#63b8ff" d="M1904.84,-129.05C1946.73,-116.64 2001.83,-100.31 2034.89,-90.52"/>
<polygon fill="#63b8ff" stroke="#63b8ff" points="1903.63,-125.76 1895.04,-131.95 1905.62,-132.47 1903.63,-125.76"/>
</a>
</g>
</g>
<!-- Node24 -->
<g id="Node000024" class="node">
<title>Node24</title>
<g id="a_Node000024"><a xlink:href="VertexPair__utest_8cpp.html" target="_top" xlink:title=" ">
<polygon fill="white" stroke="#666666" points="1973.64,-96 1827.64,-96 1827.64,-66 1973.64,-66 1973.64,-96"/>
<text text-anchor="start" x="1835.64" y="-84" font-family="Helvetica,sans-Serif" font-size="10.00">App/Test/Source/VertexPair</text>
<text text-anchor="middle" x="1900.64" y="-73" font-family="Helvetica,sans-Serif" font-size="10.00">_utest.cpp</text>
</a>
</g>
</g>
<!-- Node22&#45;&gt;Node24 -->
<g id="edge49_Node000022_Node000024" class="edge">
<title>Node22&#45;&gt;Node24</title>
<g id="a_edge49_Node000022_Node000024"><a xlink:title=" ">
<path fill="none" stroke="#63b8ff" d="M1865.78,-124.09C1873.43,-114.85 1882.12,-104.36 1888.91,-96.16"/>
<polygon fill="#63b8ff" stroke="#63b8ff" points="1863.08,-121.86 1859.4,-131.8 1868.47,-126.33 1863.08,-121.86"/>
</a>
</g>
</g>
<!-- Node28 -->
<g id="Node000028" class="node">
<title>Node28</title>
<g id="a_Node000028"><a xlink:href="AppLayer_8cpp.html" target="_top" xlink:title=" ">
<polygon fill="white" stroke="#666666" points="2393.64,-156.5 2253.64,-156.5 2253.64,-137.5 2393.64,-137.5 2393.64,-156.5"/>
<text text-anchor="middle" x="2323.64" y="-144.5" font-family="Helvetica,sans-Serif" font-size="10.00">App/Source/AppLayer.cpp</text>
</a>
</g>
</g>
<!-- Node27&#45;&gt;Node28 -->
<g id="edge55_Node000027_Node000028" class="edge">
<title>Node27&#45;&gt;Node28</title>
<g id="a_edge55_Node000027_Node000028"><a xlink:title=" ">
<path fill="none" stroke="#63b8ff" d="M2051.17,-201.49C2115.19,-188.92 2221.11,-168.13 2280.27,-156.51"/>
<polygon fill="#63b8ff" stroke="#63b8ff" points="2050.4,-198.07 2041.26,-203.44 2051.75,-204.94 2050.4,-198.07"/>
</a>
</g>
</g>
<!-- Node29 -->
<g id="Node000029" class="node">
<title>Node29</title>
<g id="a_Node000029"><a xlink:href="RunApp_8cpp.html" target="_top" xlink:title=" ">
<polygon fill="white" stroke="#666666" points="2063.64,-156.5 1931.64,-156.5 1931.64,-137.5 2063.64,-137.5 2063.64,-156.5"/>
<text text-anchor="middle" x="1997.64" y="-144.5" font-family="Helvetica,sans-Serif" font-size="10.00">App/Source/RunApp.cpp</text>
</a>
</g>
</g>
<!-- Node27&#45;&gt;Node29 -->
<g id="edge56_Node000027_Node000029" class="edge">
<title>Node27&#45;&gt;Node29</title>
<g id="a_edge56_Node000027_Node000029"><a xlink:title=" ">
<path fill="none" stroke="#63b8ff" d="M1997.64,-193.08C1997.64,-181.13 1997.64,-166.22 1997.64,-156.91"/>
<polygon fill="#63b8ff" stroke="#63b8ff" points="1994.14,-193.37 1997.64,-203.37 2001.14,-193.37 1994.14,-193.37"/>
</a>
</g>
</g>
<!-- Node30 -->
<g id="Node000030" class="node">
<title>Node30</title>
<g id="a_Node000030"><a xlink:href="Application_8cpp.html" target="_top" xlink:title=" ">
<polygon fill="white" stroke="#666666" points="2235.14,-156.5 2082.14,-156.5 2082.14,-137.5 2235.14,-137.5 2235.14,-156.5"/>
<text text-anchor="middle" x="2158.64" y="-144.5" font-family="Helvetica,sans-Serif" font-size="10.00">Core/Source/Application.cpp</text>
</a>
</g>
</g>
<!-- Node27&#45;&gt;Node30 -->
<g id="edge57_Node000027_Node000030" class="edge">
<title>Node27&#45;&gt;Node30</title>
<g id="a_edge57_Node000027_Node000030"><a xlink:title=" ">
<path fill="none" stroke="#63b8ff" d="M2029.05,-199.51C2060.88,-186.86 2109.25,-167.63 2137.01,-156.6"/>
<polygon fill="#63b8ff" stroke="#63b8ff" points="2027.35,-196.42 2019.35,-203.37 2029.94,-202.93 2027.35,-196.42"/>
</a>
</g>
</g>
<!-- Node31&#45;&gt;Node5 -->
<g id="edge61_Node000031_Node000005" class="edge">
<title>Node31&#45;&gt;Node5</title>
<g id="a_edge61_Node000031_Node000005"><a xlink:title=" ">
<path fill="none" stroke="#63b8ff" d="M1335.96,-129.96C1315.4,-107.67 1279.63,-69.63 1271.64,-66 1239.09,-51.2 746.6,-28.24 547.86,-19.52"/>
<polygon fill="#63b8ff" stroke="#63b8ff" points="1333.43,-132.37 1342.77,-137.37 1338.58,-127.64 1333.43,-132.37"/>
</a>
</g>
</g>
<!-- Node31&#45;&gt;Node7 -->
<g id="edge63_Node000031_Node000007" class="edge">
<title>Node31&#45;&gt;Node7</title>
<g id="a_edge63_Node000031_Node000007"><a xlink:title=" ">
<path fill="none" stroke="#63b8ff" d="M1345.68,-127.73C1339.55,-108.95 1327.21,-80.47 1305.64,-66 1251.05,-29.39 1062.52,-19.58 963.49,-16.96"/>
<polygon fill="#63b8ff" stroke="#63b8ff" points="1342.37,-128.9 1348.58,-137.49 1349.08,-126.9 1342.37,-128.9"/>
</a>
</g>
</g>
<!-- Node31&#45;&gt;Node9 -->
<g id="edge59_Node000031_Node000009" class="edge">
<title>Node31&#45;&gt;Node9</title>
<g id="a_edge59_Node000031_Node000009"><a xlink:title=" ">
<path fill="none" stroke="#63b8ff" d="M1321.4,-133.36C1292.24,-120.75 1248.21,-101.71 1222.75,-90.7"/>
<polygon fill="#63b8ff" stroke="#63b8ff" points="1320.11,-136.61 1330.68,-137.37 1322.89,-130.19 1320.11,-136.61"/>
</a>
</g>
</g>
<!-- Node31&#45;&gt;Node12 -->
<g id="edge62_Node000031_Node000012" class="edge">
<title>Node31&#45;&gt;Node12</title>
<g id="a_edge62_Node000031_Node000012"><a xlink:title=" ">
<path fill="none" stroke="#63b8ff" d="M1294.71,-135.56C1237.02,-124.8 1146.7,-107.95 1082.8,-96.02"/>
<polygon fill="#63b8ff" stroke="#63b8ff" points="1294.26,-139.04 1304.73,-137.44 1295.55,-132.16 1294.26,-139.04"/>
</a>
</g>
</g>
<!-- Node32 -->
<g id="Node000032" class="node">
<title>Node32</title>
<g id="a_Node000032"><a xlink:href="MathHelpers__utest_8cpp.html" target="_top" xlink:title=" ">
<polygon fill="white" stroke="#666666" points="1516.14,-96 1357.14,-96 1357.14,-66 1516.14,-66 1516.14,-96"/>
<text text-anchor="start" x="1365.14" y="-84" font-family="Helvetica,sans-Serif" font-size="10.00">App/Test/Source/MathHelpers</text>
<text text-anchor="middle" x="1436.64" y="-73" font-family="Helvetica,sans-Serif" font-size="10.00">_utest.cpp</text>
</a>
</g>
</g>
<!-- Node31&#45;&gt;Node32 -->
<g id="edge60_Node000031_Node000032" class="edge">
<title>Node31&#45;&gt;Node32</title>
<g id="a_edge60_Node000031_Node000032"><a xlink:title=" ">
<path fill="none" stroke="#63b8ff" d="M1370.37,-131.32C1384.58,-120.74 1403.64,-106.56 1417.67,-96.12"/>
<polygon fill="#63b8ff" stroke="#63b8ff" points="1368.17,-128.59 1362.23,-137.37 1372.35,-134.21 1368.17,-128.59"/>
</a>
</g>
</g>
<!-- Node33&#45;&gt;Node27 -->
<g id="edge65_Node000033_Node000027" class="edge">
<title>Node33&#45;&gt;Node27</title>
<g id="a_edge65_Node000033_Node000027"><a xlink:title=" ">
<path fill="none" stroke="#63b8ff" d="M1997.64,-259.08C1997.64,-247.13 1997.64,-232.22 1997.64,-222.91"/>
<polygon fill="#63b8ff" stroke="#63b8ff" points="1994.14,-259.37 1997.64,-269.37 2001.14,-259.37 1994.14,-259.37"/>
</a>
</g>
</g>
<!-- Node34 -->
<g id="Node000034" class="node">
<title>Node34</title>
<g id="a_Node000034"><a xlink:href="Window_8cpp.html" target="_top" xlink:title=" ">
<polygon fill="white" stroke="#666666" points="2238.14,-222.5 2101.14,-222.5 2101.14,-203.5 2238.14,-203.5 2238.14,-222.5"/>
<text text-anchor="middle" x="2169.64" y="-210.5" font-family="Helvetica,sans-Serif" font-size="10.00">Core/Source/Window.cpp</text>
</a>
</g>
</g>
<!-- Node33&#45;&gt;Node34 -->
<g id="edge66_Node000033_Node000034" class="edge">
<title>Node33&#45;&gt;Node34</title>
<g id="a_edge66_Node000033_Node000034"><a xlink:title=" ">
<path fill="none" stroke="#63b8ff" d="M2030.32,-265.84C2064.3,-253.2 2116.62,-233.73 2146.53,-222.6"/>
<polygon fill="#63b8ff" stroke="#63b8ff" points="2028.98,-262.6 2020.83,-269.37 2031.43,-269.16 2028.98,-262.6"/>
</a>
</g>
</g>
</g>
</svg>
