<?xml version="1.0" encoding="UTF-8" standalone="no"?>
<!DOCTYPE svg PUBLIC "-//W3C//DTD SVG 1.1//EN"
 "http://www.w3.org/Graphics/SVG/1.1/DTD/svg11.dtd">
<!-- Generated by graphviz version 2.43.0 (0)
 -->
<!-- Title: App/Include/Application/BaseType.h Pages: 1 -->
<svg width="1799pt" height="368pt"
 viewBox="0.00 0.00 1799.00 368.00" xmlns="http://www.w3.org/2000/svg" xmlns:xlink="http://www.w3.org/1999/xlink">
<g id="graph0" class="graph" transform="scale(1 1) rotate(0) translate(4 364)">
<title>App/Include/Application/BaseType.h</title>
<!-- Node1 -->
<g id="Node000001" class="node">
<title>Node1</title>
<g id="a_Node000001"><a xlink:title=" ">
<polygon fill="#999999" stroke="#666666" points="571,-360 440,-360 440,-330 571,-330 571,-360"/>
<text text-anchor="start" x="448" y="-348" font-family="Helvetica,sans-Serif" font-size="10.00">App/Include/Application</text>
<text text-anchor="middle" x="505.5" y="-337" font-family="Helvetica,sans-Serif" font-size="10.00">/BaseType.h</text>
</a>
</g>
</g>
<!-- Node2 -->
<g id="Node000002" class="node">
<title>Node2</title>
<g id="a_Node000002"><a xlink:href="Mesh_8h.html" target="_top" xlink:title=" ">
<polygon fill="white" stroke="#666666" points="703,-228 572,-228 572,-198 703,-198 703,-228"/>
<text text-anchor="start" x="580" y="-216" font-family="Helvetica,sans-Serif" font-size="10.00">App/Include/Application</text>
<text text-anchor="middle" x="637.5" y="-205" font-family="Helvetica,sans-Serif" font-size="10.00">/Mesh.h</text>
</a>
</g>
</g>
<!-- Node1&#45;&gt;Node2 -->
<g id="edge1_Node000001_Node000002" class="edge">
<title>Node1&#45;&gt;Node2</title>
<g id="a_edge1_Node000001_Node000002"><a xlink:title=" ">
<path fill="none" stroke="#63b8ff" d="M527.34,-322.49C554.48,-295.76 600.04,-250.89 623.14,-228.14"/>
<polygon fill="#63b8ff" stroke="#63b8ff" points="524.55,-320.33 519.88,-329.84 529.46,-325.32 524.55,-320.33"/>
</a>
</g>
</g>
<!-- Node3 -->
<g id="Node000003" class="node">
<title>Node3</title>
<g id="a_Node000003"><a xlink:href="MeshExporter_8h.html" target="_top" xlink:title=" ">
<polygon fill="white" stroke="#666666" points="377,-162 246,-162 246,-132 377,-132 377,-162"/>
<text text-anchor="start" x="254" y="-150" font-family="Helvetica,sans-Serif" font-size="10.00">App/Include/Application</text>
<text text-anchor="middle" x="311.5" y="-139" font-family="Helvetica,sans-Serif" font-size="10.00">/MeshExporter.h</text>
</a>
</g>
</g>
<!-- Node1&#45;&gt;Node3 -->
<g id="edge30_Node000001_Node000003" class="edge">
<title>Node1&#45;&gt;Node3</title>
<g id="a_edge30_Node000001_Node000003"><a xlink:title=" ">
<path fill="none" stroke="#63b8ff" d="M484.19,-322.47C444.27,-282.14 359.2,-196.19 325.59,-162.23"/>
<polygon fill="#63b8ff" stroke="#63b8ff" points="482.03,-325.26 491.55,-329.9 487,-320.33 482.03,-325.26"/>
</a>
</g>
</g>
<!-- Node4 -->
<g id="Node000004" class="node">
<title>Node4</title>
<g id="a_Node000004"><a xlink:href="MeshExporter_8cpp.html" target="_top" xlink:title=" ">
<polygon fill="white" stroke="#666666" points="161,-90.5 0,-90.5 0,-71.5 161,-71.5 161,-90.5"/>
<text text-anchor="middle" x="80.5" y="-78.5" font-family="Helvetica,sans-Serif" font-size="10.00">App/Source/MeshExporter.cpp</text>
</a>
</g>
</g>
<!-- Node1&#45;&gt;Node4 -->
<g id="edge41_Node000001_Node000004" class="edge">
<title>Node1&#45;&gt;Node4</title>
<g id="a_edge41_Node000001_Node000004"><a xlink:title=" ">
<path fill="none" stroke="#63b8ff" d="M473.9,-324.52C388.3,-271.75 154.38,-127.54 94.57,-90.68"/>
<polygon fill="#63b8ff" stroke="#63b8ff" points="472.3,-327.65 482.65,-329.91 475.97,-321.69 472.3,-327.65"/>
</a>
</g>
</g>
<!-- Node13 -->
<g id="Node000013" class="node">
<title>Node13</title>
<g id="a_Node000013"><a xlink:href="PrimitiveProxy_8h.html" target="_top" xlink:title=" ">
<polygon fill="white" stroke="#666666" points="571,-162 440,-162 440,-132 571,-132 571,-162"/>
<text text-anchor="start" x="448" y="-150" font-family="Helvetica,sans-Serif" font-size="10.00">App/Include/Application</text>
<text text-anchor="middle" x="505.5" y="-139" font-family="Helvetica,sans-Serif" font-size="10.00">/PrimitiveProxy.h</text>
</a>
</g>
</g>
<!-- Node1&#45;&gt;Node13 -->
<g id="edge40_Node000001_Node000013" class="edge">
<title>Node1&#45;&gt;Node13</title>
<g id="a_edge40_Node000001_Node000013"><a xlink:title=" ">
<path fill="none" stroke="#63b8ff" d="M505.5,-319.89C505.5,-278.58 505.5,-195.48 505.5,-162.23"/>
<polygon fill="#63b8ff" stroke="#63b8ff" points="502,-319.9 505.5,-329.9 509,-319.9 502,-319.9"/>
</a>
</g>
</g>
<!-- Node19 -->
<g id="Node000019" class="node">
<title>Node19</title>
<g id="a_Node000019"><a xlink:href="Primitive_8h.html" target="_top" xlink:title=" ">
<polygon fill="white" stroke="#666666" points="857,-294 726,-294 726,-264 857,-264 857,-294"/>
<text text-anchor="start" x="734" y="-282" font-family="Helvetica,sans-Serif" font-size="10.00">App/Include/Application</text>
<text text-anchor="middle" x="791.5" y="-271" font-family="Helvetica,sans-Serif" font-size="10.00">/Primitive.h</text>
</a>
</g>
</g>
<!-- Node1&#45;&gt;Node19 -->
<g id="edge31_Node000001_Node000019" class="edge">
<title>Node1&#45;&gt;Node19</title>
<g id="a_edge31_Node000001_Node000019"><a xlink:title=" ">
<path fill="none" stroke="#63b8ff" d="M578.28,-327.71C624.79,-317.31 684.49,-303.95 728.88,-294.01"/>
<polygon fill="#63b8ff" stroke="#63b8ff" points="577.26,-324.36 568.26,-329.95 578.79,-331.19 577.26,-324.36"/>
</a>
</g>
</g>
<!-- Node2&#45;&gt;Node3 -->
<g id="edge2_Node000002_Node000003" class="edge">
<title>Node2&#45;&gt;Node3</title>
<g id="a_edge2_Node000002_Node000003"><a xlink:title=" ">
<path fill="none" stroke="#63b8ff" d="M562.07,-197.19C506.16,-186.22 430.71,-171.4 377.25,-160.91"/>
<polygon fill="#63b8ff" stroke="#63b8ff" points="561.43,-200.63 571.92,-199.13 562.78,-193.76 561.43,-200.63"/>
</a>
</g>
</g>
<!-- Node6 -->
<g id="Node000006" class="node">
<title>Node6</title>
<g id="a_Node000006"><a xlink:href="MeshIntegrity_8h.html" target="_top" xlink:title=" ">
<polygon fill="white" stroke="#666666" points="957,-162 826,-162 826,-132 957,-132 957,-162"/>
<text text-anchor="start" x="834" y="-150" font-family="Helvetica,sans-Serif" font-size="10.00">App/Include/Application</text>
<text text-anchor="middle" x="891.5" y="-139" font-family="Helvetica,sans-Serif" font-size="10.00">/MeshIntegrity.h</text>
</a>
</g>
</g>
<!-- Node2&#45;&gt;Node6 -->
<g id="edge5_Node000002_Node000006" class="edge">
<title>Node2&#45;&gt;Node6</title>
<g id="a_edge5_Node000002_Node000006"><a xlink:title=" ">
<path fill="none" stroke="#63b8ff" d="M703.18,-195.45C744.33,-185.08 796.79,-171.86 835.89,-162.01"/>
<polygon fill="#63b8ff" stroke="#63b8ff" points="702.08,-192.12 693.24,-197.95 703.79,-198.91 702.08,-192.12"/>
</a>
</g>
</g>
<!-- Node10 -->
<g id="Node000010" class="node">
<title>Node10</title>
<g id="a_Node000010"><a xlink:href="Mesh__utest_8cpp.html" target="_top" xlink:title=" ">
<polygon fill="white" stroke="#666666" points="1006,-30 883,-30 883,0 1006,0 1006,-30"/>
<text text-anchor="start" x="891" y="-18" font-family="Helvetica,sans-Serif" font-size="10.00">App/Test/Source/Mesh</text>
<text text-anchor="middle" x="944.5" y="-7" font-family="Helvetica,sans-Serif" font-size="10.00">_utest.cpp</text>
</a>
</g>
</g>
<!-- Node2&#45;&gt;Node10 -->
<g id="edge29_Node000002_Node000010" class="edge">
<title>Node2&#45;&gt;Node10</title>
<g id="a_edge29_Node000002_Node000010"><a xlink:title=" ">
<path fill="none" stroke="#63b8ff" d="M713.34,-198.11C891.44,-179.54 1344.78,-226.35 1436.5,-96 1444.17,-85.1 1445.44,-75.89 1436.5,-66 1408.15,-34.63 1132.08,-21.93 1006.34,-17.74"/>
<polygon fill="#63b8ff" stroke="#63b8ff" points="712.82,-194.65 703.28,-199.27 713.62,-201.6 712.82,-194.65"/>
</a>
</g>
</g>
<!-- Node11 -->
<g id="Node000011" class="node">
<title>Node11</title>
<g id="a_Node000011"><a xlink:href="MeshLoader_8h.html" target="_top" xlink:title=" ">
<polygon fill="white" stroke="#666666" points="1243,-162 1112,-162 1112,-132 1243,-132 1243,-162"/>
<text text-anchor="start" x="1120" y="-150" font-family="Helvetica,sans-Serif" font-size="10.00">App/Include/Application</text>
<text text-anchor="middle" x="1177.5" y="-139" font-family="Helvetica,sans-Serif" font-size="10.00">/MeshLoader.h</text>
</a>
</g>
</g>
<!-- Node2&#45;&gt;Node11 -->
<g id="edge10_Node000002_Node000011" class="edge">
<title>Node2&#45;&gt;Node11</title>
<g id="a_edge10_Node000002_Node000011"><a xlink:title=" ">
<path fill="none" stroke="#63b8ff" d="M713.5,-197.93C861.76,-176.47 1023.63,-161.12 1111.84,-153.45"/>
<polygon fill="#63b8ff" stroke="#63b8ff" points="712.69,-194.51 703.3,-199.42 713.7,-201.44 712.69,-194.51"/>
</a>
</g>
</g>
<!-- Node2&#45;&gt;Node13 -->
<g id="edge13_Node000002_Node000013" class="edge">
<title>Node2&#45;&gt;Node13</title>
<g id="a_edge13_Node000002_Node000013"><a xlink:title=" ">
<path fill="none" stroke="#63b8ff" d="M599.37,-193.51C578.66,-183.47 553.47,-171.26 534.4,-162.01"/>
<polygon fill="#63b8ff" stroke="#63b8ff" points="598.01,-196.74 608.53,-197.95 601.06,-190.44 598.01,-196.74"/>
</a>
</g>
</g>
<!-- Node14 -->
<g id="Node000014" class="node">
<title>Node14</title>
<g id="a_Node000014"><a xlink:href="TestHelpers_8h.html" target="_top" xlink:title=" ">
<polygon fill="white" stroke="#666666" points="609,-96 478,-96 478,-66 609,-66 609,-96"/>
<text text-anchor="start" x="486" y="-84" font-family="Helvetica,sans-Serif" font-size="10.00">App/Include/Application</text>
<text text-anchor="middle" x="543.5" y="-73" font-family="Helvetica,sans-Serif" font-size="10.00">/TestHelpers.h</text>
</a>
</g>
</g>
<!-- Node2&#45;&gt;Node14 -->
<g id="edge26_Node000002_Node000014" class="edge">
<title>Node2&#45;&gt;Node14</title>
<g id="a_edge26_Node000002_Node000014"><a xlink:title=" ">
<path fill="none" stroke="#63b8ff" d="M621.65,-189.53C610.27,-173.45 594.53,-151.33 580.5,-132 571.74,-119.94 561.68,-106.35 554.26,-96.39"/>
<polygon fill="#63b8ff" stroke="#63b8ff" points="618.86,-191.64 627.49,-197.78 624.57,-187.6 618.86,-191.64"/>
</a>
</g>
</g>
<!-- Node15 -->
<g id="Node000015" class="node">
<title>Node15</title>
<g id="a_Node000015"><a xlink:href="MeshCirculator__utest_8cpp.html" target="_top" xlink:title=" ">
<polygon fill="white" stroke="#666666" points="682.5,-30 512.5,-30 512.5,0 682.5,0 682.5,-30"/>
<text text-anchor="start" x="520.5" y="-18" font-family="Helvetica,sans-Serif" font-size="10.00">App/Test/Source/MeshCirculator</text>
<text text-anchor="middle" x="597.5" y="-7" font-family="Helvetica,sans-Serif" font-size="10.00">_utest.cpp</text>
</a>
</g>
</g>
<!-- Node2&#45;&gt;Node15 -->
<g id="edge28_Node000002_Node000015" class="edge">
<title>Node2&#45;&gt;Node15</title>
<g id="a_edge28_Node000002_Node000015"><a xlink:title=" ">
<path fill="none" stroke="#63b8ff" d="M636.32,-187.51C634.45,-158.19 629.78,-107.8 618.5,-66 615.12,-53.46 609.28,-39.91 604.61,-30.08"/>
<polygon fill="#63b8ff" stroke="#63b8ff" points="632.83,-187.88 636.91,-197.66 639.82,-187.47 632.83,-187.88"/>
</a>
</g>
</g>
<!-- Node17 -->
<g id="Node000017" class="node">
<title>Node17</title>
<g id="a_Node000017"><a xlink:href="Mesh_8cpp.html" target="_top" xlink:title=" ">
<polygon fill="white" stroke="#666666" points="825,-90.5 704,-90.5 704,-71.5 825,-71.5 825,-90.5"/>
<text text-anchor="middle" x="764.5" y="-78.5" font-family="Helvetica,sans-Serif" font-size="10.00">App/Source/Mesh.cpp</text>
</a>
</g>
</g>
<!-- Node2&#45;&gt;Node17 -->
<g id="edge27_Node000002_Node000017" class="edge">
<title>Node2&#45;&gt;Node17</title>
<g id="a_edge27_Node000002_Node000017"><a xlink:title=" ">
<path fill="none" stroke="#63b8ff" d="M658.4,-190.61C686.76,-161.58 736.17,-111 755.95,-90.75"/>
<polygon fill="#63b8ff" stroke="#63b8ff" points="655.82,-188.24 651.33,-197.84 660.82,-193.13 655.82,-188.24"/>
</a>
</g>
</g>
<!-- Node3&#45;&gt;Node4 -->
<g id="edge3_Node000003_Node000004" class="edge">
<title>Node3&#45;&gt;Node4</title>
<g id="a_edge3_Node000003_Node000004"><a xlink:title=" ">
<path fill="none" stroke="#63b8ff" d="M250.89,-129.21C206.02,-116.78 146.75,-100.35 111.24,-90.52"/>
<polygon fill="#63b8ff" stroke="#63b8ff" points="250.23,-132.66 260.81,-131.95 252.1,-125.91 250.23,-132.66"/>
</a>
</g>
</g>
<!-- Node5 -->
<g id="Node000005" class="node">
<title>Node5</title>
<g id="a_Node000005"><a xlink:href="MeshExporter__utest_8cpp.html" target="_top" xlink:title=" ">
<polygon fill="white" stroke="#666666" points="309.5,-30 145.5,-30 145.5,0 309.5,0 309.5,-30"/>
<text text-anchor="start" x="153.5" y="-18" font-family="Helvetica,sans-Serif" font-size="10.00">App/Test/Source/MeshExporter</text>
<text text-anchor="middle" x="227.5" y="-7" font-family="Helvetica,sans-Serif" font-size="10.00">_utest.cpp</text>
</a>
</g>
</g>
<!-- Node3&#45;&gt;Node5 -->
<g id="edge4_Node000003_Node000005" class="edge">
<title>Node3&#45;&gt;Node5</title>
<g id="a_edge4_Node000003_Node000005"><a xlink:title=" ">
<path fill="none" stroke="#63b8ff" d="M250.66,-127.7C235.99,-120.28 222.09,-110.03 213.5,-96 200.98,-75.56 211.26,-46.99 219.58,-30.1"/>
<polygon fill="#63b8ff" stroke="#63b8ff" points="249.31,-130.93 259.85,-131.97 252.26,-124.58 249.31,-130.93"/>
</a>
</g>
</g>
<!-- Node7 -->
<g id="Node000007" class="node">
<title>Node7</title>
<g id="a_Node000007"><a xlink:href="MeshIntegrity_8cpp.html" target="_top" xlink:title=" ">
<polygon fill="white" stroke="#666666" points="1081,-90.5 920,-90.5 920,-71.5 1081,-71.5 1081,-90.5"/>
<text text-anchor="middle" x="1000.5" y="-78.5" font-family="Helvetica,sans-Serif" font-size="10.00">App/Source/MeshIntegrity.cpp</text>
</a>
</g>
</g>
<!-- Node6&#45;&gt;Node7 -->
<g id="edge6_Node000006_Node000007" class="edge">
<title>Node6&#45;&gt;Node7</title>
<g id="a_edge6_Node000006_Node000007"><a xlink:title=" ">
<path fill="none" stroke="#63b8ff" d="M924.18,-126.81C944.75,-114.73 970.3,-99.73 985.99,-90.52"/>
<polygon fill="#63b8ff" stroke="#63b8ff" points="922.27,-123.87 915.42,-131.95 925.82,-129.91 922.27,-123.87"/>
</a>
</g>
</g>
<!-- Node8 -->
<g id="Node000008" class="node">
<title>Node8</title>
<g id="a_Node000008"><a xlink:href="MeshIntegrity__utest_8cpp.html" target="_top" xlink:title=" ">
<polygon fill="white" stroke="#666666" points="864.5,-30 700.5,-30 700.5,0 864.5,0 864.5,-30"/>
<text text-anchor="start" x="708.5" y="-18" font-family="Helvetica,sans-Serif" font-size="10.00">App/Test/Source/MeshIntegrity</text>
<text text-anchor="middle" x="782.5" y="-7" font-family="Helvetica,sans-Serif" font-size="10.00">_utest.cpp</text>
</a>
</g>
</g>
<!-- Node6&#45;&gt;Node8 -->
<g id="edge7_Node000006_Node000008" class="edge">
<title>Node6&#45;&gt;Node8</title>
<g id="a_edge7_Node000006_Node000008"><a xlink:title=" ">
<path fill="none" stroke="#63b8ff" d="M877.01,-123.36C866.07,-106.86 850.29,-84.3 834.5,-66 823.37,-53.11 809.39,-39.8 798.73,-30.16"/>
<polygon fill="#63b8ff" stroke="#63b8ff" points="874.15,-125.38 882.56,-131.83 880.01,-121.54 874.15,-125.38"/>
</a>
</g>
</g>
<!-- Node9 -->
<g id="Node000009" class="node">
<title>Node9</title>
<g id="a_Node000009"><a xlink:href="MeshLoader__utest_8cpp.html" target="_top" xlink:title=" ">
<polygon fill="white" stroke="#666666" points="1255.5,-96 1099.5,-96 1099.5,-66 1255.5,-66 1255.5,-96"/>
<text text-anchor="start" x="1107.5" y="-84" font-family="Helvetica,sans-Serif" font-size="10.00">App/Test/Source/MeshLoader</text>
<text text-anchor="middle" x="1177.5" y="-73" font-family="Helvetica,sans-Serif" font-size="10.00">_utest.cpp</text>
</a>
</g>
</g>
<!-- Node6&#45;&gt;Node9 -->
<g id="edge8_Node000006_Node000009" class="edge">
<title>Node6&#45;&gt;Node9</title>
<g id="a_edge8_Node000006_Node000009"><a xlink:title=" ">
<path fill="none" stroke="#63b8ff" d="M964.28,-129.71C1010.79,-119.31 1070.49,-105.95 1114.88,-96.01"/>
<polygon fill="#63b8ff" stroke="#63b8ff" points="963.26,-126.36 954.26,-131.95 964.79,-133.19 963.26,-126.36"/>
</a>
</g>
</g>
<!-- Node6&#45;&gt;Node10 -->
<g id="edge9_Node000006_Node000010" class="edge">
<title>Node6&#45;&gt;Node10</title>
<g id="a_edge9_Node000006_Node000010"><a xlink:title=" ">
<path fill="none" stroke="#63b8ff" d="M895.36,-121.67C898.47,-105.45 903.64,-83.89 911.5,-66 917.19,-53.05 926.15,-39.75 933.3,-30.12"/>
<polygon fill="#63b8ff" stroke="#63b8ff" points="891.84,-121.49 893.53,-131.94 898.73,-122.71 891.84,-121.49"/>
</a>
</g>
</g>
<!-- Node11&#45;&gt;Node9 -->
<g id="edge12_Node000011_Node000009" class="edge">
<title>Node11&#45;&gt;Node9</title>
<g id="a_edge12_Node000011_Node000009"><a xlink:title=" ">
<path fill="none" stroke="#63b8ff" d="M1177.5,-121.54C1177.5,-112.96 1177.5,-103.61 1177.5,-96.16"/>
<polygon fill="#63b8ff" stroke="#63b8ff" points="1174,-121.8 1177.5,-131.8 1181,-121.8 1174,-121.8"/>
</a>
</g>
</g>
<!-- Node12 -->
<g id="Node000012" class="node">
<title>Node12</title>
<g id="a_Node000012"><a xlink:href="MeshLoader_8cpp.html" target="_top" xlink:title=" ">
<polygon fill="white" stroke="#666666" points="1427,-90.5 1274,-90.5 1274,-71.5 1427,-71.5 1427,-90.5"/>
<text text-anchor="middle" x="1350.5" y="-78.5" font-family="Helvetica,sans-Serif" font-size="10.00">App/Source/MeshLoader.cpp</text>
</a>
</g>
</g>
<!-- Node11&#45;&gt;Node12 -->
<g id="edge11_Node000011_Node000012" class="edge">
<title>Node11&#45;&gt;Node12</title>
<g id="a_edge11_Node000011_Node000012"><a xlink:title=" ">
<path fill="none" stroke="#63b8ff" d="M1225.02,-128.42C1258.35,-116.09 1301.45,-100.15 1327.48,-90.52"/>
<polygon fill="#63b8ff" stroke="#63b8ff" points="1223.63,-125.2 1215.47,-131.95 1226.06,-131.77 1223.63,-125.2"/>
</a>
</g>
</g>
<!-- Node13&#45;&gt;Node5 -->
<g id="edge23_Node000013_Node000005" class="edge">
<title>Node13&#45;&gt;Node5</title>
<g id="a_edge23_Node000013_Node000005"><a xlink:title=" ">
<path fill="none" stroke="#63b8ff" d="M430.06,-135.66C358.44,-125.18 259.78,-108.73 246.5,-96 228.57,-78.81 226.23,-48.03 226.58,-30.08"/>
<polygon fill="#63b8ff" stroke="#63b8ff" points="429.57,-139.13 439.97,-137.1 430.58,-132.2 429.57,-139.13"/>
</a>
</g>
</g>
<!-- Node13&#45;&gt;Node10 -->
<g id="edge24_Node000013_Node000010" class="edge">
<title>Node13&#45;&gt;Node10</title>
<g id="a_edge24_Node000013_Node000010"><a xlink:title=" ">
<path fill="none" stroke="#63b8ff" d="M546.12,-127.76C592.76,-107.03 666.54,-74.91 695.5,-66 700.02,-64.61 810.55,-42.58 882.81,-28.23"/>
<polygon fill="#63b8ff" stroke="#63b8ff" points="544.61,-124.61 536.9,-131.88 547.46,-131 544.61,-124.61"/>
</a>
</g>
</g>
<!-- Node13&#45;&gt;Node12 -->
<g id="edge21_Node000013_Node000012" class="edge">
<title>Node13&#45;&gt;Node12</title>
<g id="a_edge21_Node000013_Node000012"><a xlink:title=" ">
<path fill="none" stroke="#63b8ff" d="M581.09,-141.94C745.98,-132.94 1133.66,-110.93 1264.5,-96 1277.12,-94.56 1290.72,-92.56 1303.3,-90.52"/>
<polygon fill="#63b8ff" stroke="#63b8ff" points="580.83,-138.45 571.03,-142.49 581.21,-145.44 580.83,-138.45"/>
</a>
</g>
</g>
<!-- Node13&#45;&gt;Node14 -->
<g id="edge14_Node000013_Node000014" class="edge">
<title>Node13&#45;&gt;Node14</title>
<g id="a_edge14_Node000013_Node000014"><a xlink:title=" ">
<path fill="none" stroke="#63b8ff" d="M519.18,-122.96C524.5,-114 530.42,-104.03 535.09,-96.16"/>
<polygon fill="#63b8ff" stroke="#63b8ff" points="516.03,-121.41 513.93,-131.8 522.05,-124.98 516.03,-121.41"/>
</a>
</g>
</g>
<!-- Node16 -->
<g id="Node000016" class="node">
<title>Node16</title>
<g id="a_Node000016"><a xlink:href="PrimitiveProxy__utest_8cpp.html" target="_top" xlink:title=" ">
<polygon fill="white" stroke="#666666" points="494,-30 353,-30 353,0 494,0 494,-30"/>
<text text-anchor="start" x="361" y="-18" font-family="Helvetica,sans-Serif" font-size="10.00">App/Test/Source/Primitive</text>
<text text-anchor="middle" x="423.5" y="-7" font-family="Helvetica,sans-Serif" font-size="10.00">Proxy_utest.cpp</text>
</a>
</g>
</g>
<!-- Node13&#45;&gt;Node16 -->
<g id="edge25_Node000013_Node000016" class="edge">
<title>Node13&#45;&gt;Node16</title>
<g id="a_edge25_Node000013_Node000016"><a xlink:title=" ">
<path fill="none" stroke="#63b8ff" d="M488.59,-123.55C482.39,-115.05 475.44,-105.21 469.5,-96 455,-73.52 439.84,-46.32 431.05,-30.13"/>
<polygon fill="#63b8ff" stroke="#63b8ff" points="485.95,-125.86 494.71,-131.83 491.58,-121.71 485.95,-125.86"/>
</a>
</g>
</g>
<!-- Node13&#45;&gt;Node17 -->
<g id="edge20_Node000013_Node000017" class="edge">
<title>Node13&#45;&gt;Node17</title>
<g id="a_edge20_Node000013_Node000017"><a xlink:title=" ">
<path fill="none" stroke="#63b8ff" d="M572.19,-129.52C622.65,-117.05 689.89,-100.44 730.03,-90.52"/>
<polygon fill="#63b8ff" stroke="#63b8ff" points="571.21,-126.16 562.34,-131.95 572.89,-132.95 571.21,-126.16"/>
</a>
</g>
</g>
<!-- Node18 -->
<g id="Node000018" class="node">
<title>Node18</title>
<g id="a_Node000018"><a xlink:href="PrimitiveProxy_8cpp.html" target="_top" xlink:title=" ">
<polygon fill="white" stroke="#666666" points="421,-90.5 256,-90.5 256,-71.5 421,-71.5 421,-90.5"/>
<text text-anchor="middle" x="338.5" y="-78.5" font-family="Helvetica,sans-Serif" font-size="10.00">App/Source/PrimitiveProxy.cpp</text>
</a>
</g>
</g>
<!-- Node13&#45;&gt;Node18 -->
<g id="edge22_Node000013_Node000018" class="edge">
<title>Node13&#45;&gt;Node18</title>
<g id="a_edge22_Node000013_Node000018"><a xlink:title=" ">
<path fill="none" stroke="#63b8ff" d="M459.21,-128.26C427.09,-115.95 385.75,-100.11 360.72,-90.52"/>
<polygon fill="#63b8ff" stroke="#63b8ff" points="458.26,-131.64 468.85,-131.95 460.77,-125.11 458.26,-131.64"/>
</a>
</g>
</g>
<!-- Node14&#45;&gt;Node5 -->
<g id="edge16_Node000014_Node000005" class="edge">
<title>Node14&#45;&gt;Node5</title>
<g id="a_edge16_Node000014_Node000005"><a xlink:title=" ">
<path fill="none" stroke="#63b8ff" d="M467.81,-64.67C415.84,-54.14 347.38,-40.28 296.83,-30.04"/>
<polygon fill="#63b8ff" stroke="#63b8ff" points="467.14,-68.11 477.64,-66.66 468.53,-61.25 467.14,-68.11"/>
</a>
</g>
</g>
<!-- Node14&#45;&gt;Node8 -->
<g id="edge17_Node000014_Node000008" class="edge">
<title>Node14&#45;&gt;Node8</title>
<g id="a_edge17_Node000014_Node000008"><a xlink:title=" ">
<path fill="none" stroke="#63b8ff" d="M606.04,-63.25C644.65,-52.91 693.62,-39.8 730.17,-30.01"/>
<polygon fill="#63b8ff" stroke="#63b8ff" points="604.7,-59.99 595.95,-65.95 606.51,-66.75 604.7,-59.99"/>
</a>
</g>
</g>
<!-- Node14&#45;&gt;Node10 -->
<g id="edge18_Node000014_Node000010" class="edge">
<title>Node14&#45;&gt;Node10</title>
<g id="a_edge18_Node000014_Node000010"><a xlink:title=" ">
<path fill="none" stroke="#63b8ff" d="M619.11,-69.52C686.1,-60 786.49,-45.16 873.5,-30 876.59,-29.46 879.76,-28.89 882.96,-28.31"/>
<polygon fill="#63b8ff" stroke="#63b8ff" points="618.48,-66.07 609.07,-70.94 619.46,-73 618.48,-66.07"/>
</a>
</g>
</g>
<!-- Node14&#45;&gt;Node15 -->
<g id="edge15_Node000014_Node000015" class="edge">
<title>Node14&#45;&gt;Node15</title>
<g id="a_edge15_Node000014_Node000015"><a xlink:title=" ">
<path fill="none" stroke="#63b8ff" d="M561.99,-58.09C569.78,-48.85 578.63,-38.36 585.55,-30.16"/>
<polygon fill="#63b8ff" stroke="#63b8ff" points="559.26,-55.9 555.48,-65.8 564.61,-60.41 559.26,-55.9"/>
</a>
</g>
</g>
<!-- Node14&#45;&gt;Node16 -->
<g id="edge19_Node000014_Node000016" class="edge">
<title>Node14&#45;&gt;Node16</title>
<g id="a_edge19_Node000014_Node000016"><a xlink:title=" ">
<path fill="none" stroke="#63b8ff" d="M508.33,-61.24C489.6,-51.25 466.95,-39.18 449.77,-30.01"/>
<polygon fill="#63b8ff" stroke="#63b8ff" points="506.69,-64.34 517.17,-65.95 509.99,-58.16 506.69,-64.34"/>
</a>
</g>
</g>
<!-- Node19&#45;&gt;Node2 -->
<g id="edge32_Node000019_Node000002" class="edge">
<title>Node19&#45;&gt;Node2</title>
<g id="a_edge32_Node000019_Node000002"><a xlink:title=" ">
<path fill="none" stroke="#63b8ff" d="M748.32,-260.05C723.92,-249.91 693.87,-237.43 671.22,-228.01"/>
<polygon fill="#63b8ff" stroke="#63b8ff" points="747.13,-263.35 757.7,-263.95 749.81,-256.89 747.13,-263.35"/>
</a>
</g>
</g>
<!-- Node20 -->
<g id="Node000020" class="node">
<title>Node20</title>
<g id="a_Node000020"><a xlink:href="VertexPair_8h.html" target="_top" xlink:title=" ">
<polygon fill="white" stroke="#666666" points="1615,-162 1484,-162 1484,-132 1615,-132 1615,-162"/>
<text text-anchor="start" x="1492" y="-150" font-family="Helvetica,sans-Serif" font-size="10.00">App/Include/Application</text>
<text text-anchor="middle" x="1549.5" y="-139" font-family="Helvetica,sans-Serif" font-size="10.00">/VertexPair.h</text>
</a>
</g>
</g>
<!-- Node19&#45;&gt;Node20 -->
<g id="edge33_Node000019_Node000020" class="edge">
<title>Node19&#45;&gt;Node20</title>
<g id="a_edge33_Node000019_Node000020"><a xlink:title=" ">
<path fill="none" stroke="#63b8ff" d="M824.09,-258.62C838.79,-249.63 856.24,-238.6 871.5,-228 889.46,-215.52 890.03,-205.7 910.5,-198 1027,-154.15 1345.9,-176.75 1469.5,-162 1474.12,-161.45 1478.88,-160.81 1483.66,-160.11"/>
<polygon fill="#63b8ff" stroke="#63b8ff" points="822.07,-255.75 815.34,-263.93 825.71,-261.73 822.07,-255.75"/>
</a>
</g>
</g>
<!-- Node23 -->
<g id="Node000023" class="node">
<title>Node23</title>
<g id="a_Node000023"><a xlink:href="Primitive_8cpp.html" target="_top" xlink:title=" ">
<polygon fill="white" stroke="#666666" points="1058,-222.5 919,-222.5 919,-203.5 1058,-203.5 1058,-222.5"/>
<text text-anchor="middle" x="988.5" y="-210.5" font-family="Helvetica,sans-Serif" font-size="10.00">App/Source/Primitive.cpp</text>
</a>
</g>
</g>
<!-- Node19&#45;&gt;Node23 -->
<g id="edge38_Node000019_Node000023" class="edge">
<title>Node19&#45;&gt;Node23</title>
<g id="a_edge38_Node000019_Node000023"><a xlink:title=" ">
<path fill="none" stroke="#63b8ff" d="M844.64,-260.74C882.73,-248.36 932.39,-232.23 962.28,-222.52"/>
<polygon fill="#63b8ff" stroke="#63b8ff" points="843.16,-257.54 834.73,-263.95 845.32,-264.19 843.16,-257.54"/>
</a>
</g>
</g>
<!-- Node24 -->
<g id="Node000024" class="node">
<title>Node24</title>
<g id="a_Node000024"><a xlink:href="Primitive__utest_8cpp.html" target="_top" xlink:title=" ">
<polygon fill="white" stroke="#666666" points="862,-228 721,-228 721,-198 862,-198 862,-228"/>
<text text-anchor="start" x="729" y="-216" font-family="Helvetica,sans-Serif" font-size="10.00">App/Test/Source/Primitive</text>
<text text-anchor="middle" x="791.5" y="-205" font-family="Helvetica,sans-Serif" font-size="10.00">_utest.cpp</text>
</a>
</g>
</g>
<!-- Node19&#45;&gt;Node24 -->
<g id="edge39_Node000019_Node000024" class="edge">
<title>Node19&#45;&gt;Node24</title>
<g id="a_edge39_Node000019_Node000024"><a xlink:title=" ">
<path fill="none" stroke="#63b8ff" d="M791.5,-253.54C791.5,-244.96 791.5,-235.61 791.5,-228.16"/>
<polygon fill="#63b8ff" stroke="#63b8ff" points="788,-253.8 791.5,-263.8 795,-253.8 788,-253.8"/>
</a>
</g>
</g>
<!-- Node20&#45;&gt;Node12 -->
<g id="edge35_Node000020_Node000012" class="edge">
<title>Node20&#45;&gt;Node12</title>
<g id="a_edge35_Node000020_Node000012"><a xlink:title=" ">
<path fill="none" stroke="#63b8ff" d="M1496.31,-128.89C1457.77,-116.5 1407.31,-100.27 1376.98,-90.52"/>
<polygon fill="#63b8ff" stroke="#63b8ff" points="1495.24,-132.23 1505.83,-131.95 1497.38,-125.56 1495.24,-132.23"/>
</a>
</g>
</g>
<!-- Node20&#45;&gt;Node17 -->
<g id="edge34_Node000020_Node000017" class="edge">
<title>Node20&#45;&gt;Node17</title>
<g id="a_edge34_Node000020_Node000017"><a xlink:title=" ">
<path fill="none" stroke="#63b8ff" d="M1473.66,-140.47C1354.1,-131.66 1114.51,-113.62 911.5,-96 883.15,-93.54 851.75,-90.58 825.27,-88.02"/>
<polygon fill="#63b8ff" stroke="#63b8ff" points="1473.57,-143.97 1483.8,-141.22 1474.09,-136.99 1473.57,-143.97"/>
</a>
</g>
</g>
<!-- Node21 -->
<g id="Node000021" class="node">
<title>Node21</title>
<g id="a_Node000021"><a xlink:href="VertexPair_8cpp.html" target="_top" xlink:title=" ">
<polygon fill="white" stroke="#666666" points="1791,-90.5 1648,-90.5 1648,-71.5 1791,-71.5 1791,-90.5"/>
<text text-anchor="middle" x="1719.5" y="-78.5" font-family="Helvetica,sans-Serif" font-size="10.00">App/Source/VertexPair.cpp</text>
</a>
</g>
</g>
<!-- Node20&#45;&gt;Node21 -->
<g id="edge36_Node000020_Node000021" class="edge">
<title>Node20&#45;&gt;Node21</title>
<g id="a_edge36_Node000020_Node000021"><a xlink:title=" ">
<path fill="none" stroke="#63b8ff" d="M1596.2,-128.42C1628.95,-116.09 1671.3,-100.15 1696.88,-90.52"/>
<polygon fill="#63b8ff" stroke="#63b8ff" points="1594.93,-125.16 1586.81,-131.95 1597.4,-131.71 1594.93,-125.16"/>
</a>
</g>
</g>
<!-- Node22 -->
<g id="Node000022" class="node">
<title>Node22</title>
<g id="a_Node000022"><a xlink:href="VertexPair__utest_8cpp.html" target="_top" xlink:title=" ">
<polygon fill="white" stroke="#666666" points="1629.5,-96 1483.5,-96 1483.5,-66 1629.5,-66 1629.5,-96"/>
<text text-anchor="start" x="1491.5" y="-84" font-family="Helvetica,sans-Serif" font-size="10.00">App/Test/Source/VertexPair</text>
<text text-anchor="middle" x="1556.5" y="-73" font-family="Helvetica,sans-Serif" font-size="10.00">_utest.cpp</text>
</a>
</g>
</g>
<!-- Node20&#45;&gt;Node22 -->
<g id="edge37_Node000020_Node000022" class="edge">
<title>Node20&#45;&gt;Node22</title>
<g id="a_edge37_Node000020_Node000022"><a xlink:title=" ">
<path fill="none" stroke="#63b8ff" d="M1552.14,-121.83C1553.09,-113.17 1554.13,-103.7 1554.95,-96.16"/>
<polygon fill="#63b8ff" stroke="#63b8ff" points="1548.66,-121.48 1551.05,-131.8 1555.62,-122.24 1548.66,-121.48"/>
</a>
</g>
</g>
</g>
</svg>
