<?xml version="1.0" encoding="UTF-8" standalone="no"?>
<!DOCTYPE svg PUBLIC "-//W3C//DTD SVG 1.1//EN"
 "http://www.w3.org/Graphics/SVG/1.1/DTD/svg11.dtd">
<!-- Generated by graphviz version 2.43.0 (0)
 -->
<!-- Title: App/Include/Application/BaseType.h Pages: 1 -->
<svg width="1831pt" height="368pt"
 viewBox="0.00 0.00 1831.00 368.00" xmlns="http://www.w3.org/2000/svg" xmlns:xlink="http://www.w3.org/1999/xlink">
<g id="graph0" class="graph" transform="scale(1 1) rotate(0) translate(4 364)">
<title>App/Include/Application/BaseType.h</title>
<!-- Node1 -->
<g id="Node000001" class="node">
<title>Node1</title>
<g id="a_Node000001"><a xlink:title=" ">
<polygon fill="#999999" stroke="#666666" points="714,-360 583,-360 583,-330 714,-330 714,-360"/>
<text text-anchor="start" x="591" y="-348" font-family="Helvetica,sans-Serif" font-size="10.00">App/Include/Application</text>
<text text-anchor="middle" x="648.5" y="-337" font-family="Helvetica,sans-Serif" font-size="10.00">/BaseType.h</text>
</a>
</g>
</g>
<!-- Node2 -->
<g id="Node000002" class="node">
<title>Node2</title>
<g id="a_Node000002"><a xlink:href="Mesh_8h.html" target="_top" xlink:title=" ">
<polygon fill="white" stroke="#666666" points="714,-228 583,-228 583,-198 714,-198 714,-228"/>
<text text-anchor="start" x="591" y="-216" font-family="Helvetica,sans-Serif" font-size="10.00">App/Include/Application</text>
<text text-anchor="middle" x="648.5" y="-205" font-family="Helvetica,sans-Serif" font-size="10.00">/Mesh.h</text>
</a>
</g>
</g>
<!-- Node1&#45;&gt;Node2 -->
<g id="edge1_Node000001_Node000002" class="edge">
<title>Node1&#45;&gt;Node2</title>
<g id="a_edge1_Node000001_Node000002"><a xlink:title=" ">
<path fill="none" stroke="#63b8ff" d="M648.5,-319.68C648.5,-292.7 648.5,-250.11 648.5,-228.14"/>
<polygon fill="#63b8ff" stroke="#63b8ff" points="645,-319.84 648.5,-329.84 652,-319.84 645,-319.84"/>
</a>
</g>
</g>
<!-- Node3 -->
<g id="Node000003" class="node">
<title>Node3</title>
<g id="a_Node000003"><a xlink:href="MeshExporter_8h.html" target="_top" xlink:title=" ">
<polygon fill="white" stroke="#666666" points="240,-162 109,-162 109,-132 240,-132 240,-162"/>
<text text-anchor="start" x="117" y="-150" font-family="Helvetica,sans-Serif" font-size="10.00">App/Include/Application</text>
<text text-anchor="middle" x="174.5" y="-139" font-family="Helvetica,sans-Serif" font-size="10.00">/MeshExporter.h</text>
</a>
</g>
</g>
<!-- Node1&#45;&gt;Node3 -->
<g id="edge30_Node000001_Node000003" class="edge">
<title>Node1&#45;&gt;Node3</title>
<g id="a_edge30_Node000001_Node000003"><a xlink:title=" ">
<path fill="none" stroke="#63b8ff" d="M604.96,-326C511.43,-287.32 292.97,-196.99 208.6,-162.1"/>
<polygon fill="#63b8ff" stroke="#63b8ff" points="603.83,-329.32 614.41,-329.9 606.51,-322.85 603.83,-329.32"/>
</a>
</g>
</g>
<!-- Node4 -->
<g id="Node000004" class="node">
<title>Node4</title>
<g id="a_Node000004"><a xlink:href="MeshExporter_8cpp.html" target="_top" xlink:title=" ">
<polygon fill="white" stroke="#666666" points="161,-90.5 0,-90.5 0,-71.5 161,-71.5 161,-90.5"/>
<text text-anchor="middle" x="80.5" y="-78.5" font-family="Helvetica,sans-Serif" font-size="10.00">App/Source/MeshExporter.cpp</text>
</a>
</g>
</g>
<!-- Node1&#45;&gt;Node4 -->
<g id="edge41_Node000001_Node000004" class="edge">
<title>Node1&#45;&gt;Node4</title>
<g id="a_edge41_Node000001_Node000004"><a xlink:title=" ">
<path fill="none" stroke="#63b8ff" d="M578.69,-327.46C542.32,-318.4 497.25,-306.5 457.5,-294 295.73,-243.13 212,-288.89 99.5,-162 81.32,-141.49 79.72,-106.75 80.06,-90.65"/>
<polygon fill="#63b8ff" stroke="#63b8ff" points="578.16,-330.93 588.71,-329.93 579.84,-324.14 578.16,-330.93"/>
</a>
</g>
</g>
<!-- Node13 -->
<g id="Node000013" class="node">
<title>Node13</title>
<g id="a_Node000013"><a xlink:href="PrimitiveProxy_8h.html" target="_top" xlink:title=" ">
<polygon fill="white" stroke="#666666" points="1021,-162 890,-162 890,-132 1021,-132 1021,-162"/>
<text text-anchor="start" x="898" y="-150" font-family="Helvetica,sans-Serif" font-size="10.00">App/Include/Application</text>
<text text-anchor="middle" x="955.5" y="-139" font-family="Helvetica,sans-Serif" font-size="10.00">/PrimitiveProxy.h</text>
</a>
</g>
</g>
<!-- Node1&#45;&gt;Node13 -->
<g id="edge40_Node000001_Node000013" class="edge">
<title>Node1&#45;&gt;Node13</title>
<g id="a_edge40_Node000001_Node000013"><a xlink:title=" ">
<path fill="none" stroke="#63b8ff" d="M660.31,-320.64C678,-288.07 714.5,-229.5 762.5,-198 800.56,-173.03 850.44,-160.52 889.96,-154.26"/>
<polygon fill="#63b8ff" stroke="#63b8ff" points="657.02,-319.37 655.43,-329.85 663.21,-322.65 657.02,-319.37"/>
</a>
</g>
</g>
<!-- Node19 -->
<g id="Node000019" class="node">
<title>Node19</title>
<g id="a_Node000019"><a xlink:href="Primitive_8h.html" target="_top" xlink:title=" ">
<polygon fill="white" stroke="#666666" points="906,-294 775,-294 775,-264 906,-264 906,-294"/>
<text text-anchor="start" x="783" y="-282" font-family="Helvetica,sans-Serif" font-size="10.00">App/Include/Application</text>
<text text-anchor="middle" x="840.5" y="-271" font-family="Helvetica,sans-Serif" font-size="10.00">/Primitive.h</text>
</a>
</g>
</g>
<!-- Node1&#45;&gt;Node19 -->
<g id="edge31_Node000001_Node000019" class="edge">
<title>Node1&#45;&gt;Node19</title>
<g id="a_edge31_Node000001_Node000019"><a xlink:title=" ">
<path fill="none" stroke="#63b8ff" d="M700.33,-326.72C731.09,-316.47 769.6,-303.63 798.46,-294.01"/>
<polygon fill="#63b8ff" stroke="#63b8ff" points="699.02,-323.47 690.64,-329.95 701.23,-330.11 699.02,-323.47"/>
</a>
</g>
</g>
<!-- Node2&#45;&gt;Node3 -->
<g id="edge2_Node000002_Node000003" class="edge">
<title>Node2&#45;&gt;Node3</title>
<g id="a_edge2_Node000002_Node000003"><a xlink:title=" ">
<path fill="none" stroke="#63b8ff" d="M572.44,-203.42C492.98,-194.21 364.77,-178.64 254.5,-162 249.9,-161.31 245.15,-160.56 240.38,-159.78"/>
<polygon fill="#63b8ff" stroke="#63b8ff" points="572.5,-206.95 582.84,-204.62 573.31,-200 572.5,-206.95"/>
</a>
</g>
</g>
<!-- Node6 -->
<g id="Node000006" class="node">
<title>Node6</title>
<g id="a_Node000006"><a xlink:href="MeshIntegrity_8h.html" target="_top" xlink:title=" ">
<polygon fill="white" stroke="#666666" points="518,-162 387,-162 387,-132 518,-132 518,-162"/>
<text text-anchor="start" x="395" y="-150" font-family="Helvetica,sans-Serif" font-size="10.00">App/Include/Application</text>
<text text-anchor="middle" x="452.5" y="-139" font-family="Helvetica,sans-Serif" font-size="10.00">/MeshIntegrity.h</text>
</a>
</g>
</g>
<!-- Node2&#45;&gt;Node6 -->
<g id="edge5_Node000002_Node000006" class="edge">
<title>Node2&#45;&gt;Node6</title>
<g id="a_edge5_Node000002_Node000006"><a xlink:title=" ">
<path fill="none" stroke="#63b8ff" d="M595.59,-194.72C564.18,-184.47 524.88,-171.63 495.41,-162.01"/>
<polygon fill="#63b8ff" stroke="#63b8ff" points="594.89,-198.18 605.49,-197.95 597.07,-191.52 594.89,-198.18"/>
</a>
</g>
</g>
<!-- Node10 -->
<g id="Node000010" class="node">
<title>Node10</title>
<g id="a_Node000010"><a xlink:href="Mesh__utest_8cpp.html" target="_top" xlink:title=" ">
<polygon fill="white" stroke="#666666" points="722,-30 599,-30 599,0 722,0 722,-30"/>
<text text-anchor="start" x="607" y="-18" font-family="Helvetica,sans-Serif" font-size="10.00">App/Test/Source/Mesh</text>
<text text-anchor="middle" x="660.5" y="-7" font-family="Helvetica,sans-Serif" font-size="10.00">_utest.cpp</text>
</a>
</g>
</g>
<!-- Node2&#45;&gt;Node10 -->
<g id="edge29_Node000002_Node000010" class="edge">
<title>Node2&#45;&gt;Node10</title>
<g id="a_edge29_Node000002_Node000010"><a xlink:title=" ">
<path fill="none" stroke="#63b8ff" d="M664.4,-189.36C669.28,-181.13 674.02,-171.51 676.5,-162 687.27,-120.72 683.08,-108.16 676.5,-66 674.56,-53.57 670.06,-40.01 666.33,-30.16"/>
<polygon fill="#63b8ff" stroke="#63b8ff" points="661.34,-187.65 658.94,-197.97 667.25,-191.4 661.34,-187.65"/>
</a>
</g>
</g>
<!-- Node11 -->
<g id="Node000011" class="node">
<title>Node11</title>
<g id="a_Node000011"><a xlink:href="MeshLoader_8h.html" target="_top" xlink:title=" ">
<polygon fill="white" stroke="#666666" points="667,-162 536,-162 536,-132 667,-132 667,-162"/>
<text text-anchor="start" x="544" y="-150" font-family="Helvetica,sans-Serif" font-size="10.00">App/Include/Application</text>
<text text-anchor="middle" x="601.5" y="-139" font-family="Helvetica,sans-Serif" font-size="10.00">/MeshLoader.h</text>
</a>
</g>
</g>
<!-- Node2&#45;&gt;Node11 -->
<g id="edge10_Node000002_Node000011" class="edge">
<title>Node2&#45;&gt;Node11</title>
<g id="a_edge10_Node000002_Node000011"><a xlink:title=" ">
<path fill="none" stroke="#63b8ff" d="M632,-189.53C625.31,-180.43 617.8,-170.19 611.9,-162.16"/>
<polygon fill="#63b8ff" stroke="#63b8ff" points="629.33,-191.81 638.07,-197.8 634.97,-187.66 629.33,-191.81"/>
</a>
</g>
</g>
<!-- Node2&#45;&gt;Node13 -->
<g id="edge13_Node000002_Node000013" class="edge">
<title>Node2&#45;&gt;Node13</title>
<g id="a_edge13_Node000002_Node000013"><a xlink:title=" ">
<path fill="none" stroke="#63b8ff" d="M724.3,-196.2C775.06,-185.62 841.22,-171.82 889.75,-161.71"/>
<polygon fill="#63b8ff" stroke="#63b8ff" points="723.43,-192.8 714.36,-198.27 724.86,-199.66 723.43,-192.8"/>
</a>
</g>
</g>
<!-- Node14 -->
<g id="Node000014" class="node">
<title>Node14</title>
<g id="a_Node000014"><a xlink:href="Mesh_8cpp.html" target="_top" xlink:title=" ">
<polygon fill="white" stroke="#666666" points="1497,-90.5 1376,-90.5 1376,-71.5 1497,-71.5 1497,-90.5"/>
<text text-anchor="middle" x="1436.5" y="-78.5" font-family="Helvetica,sans-Serif" font-size="10.00">App/Source/Mesh.cpp</text>
</a>
</g>
</g>
<!-- Node2&#45;&gt;Node14 -->
<g id="edge26_Node000002_Node000014" class="edge">
<title>Node2&#45;&gt;Node14</title>
<g id="a_edge26_Node000002_Node000014"><a xlink:title=" ">
<path fill="none" stroke="#63b8ff" d="M724.22,-202.67C818.25,-190.97 973.26,-171.34 1030.5,-162 1181.13,-137.42 1217.82,-125.84 1367.5,-96 1376.25,-94.26 1385.62,-92.37 1394.55,-90.56"/>
<polygon fill="#63b8ff" stroke="#63b8ff" points="723.68,-199.21 714.19,-203.91 724.55,-206.15 723.68,-199.21"/>
</a>
</g>
</g>
<!-- Node16 -->
<g id="Node000016" class="node">
<title>Node16</title>
<g id="a_Node000016"><a xlink:href="TestHelpers_8h.html" target="_top" xlink:title=" ">
<polygon fill="white" stroke="#666666" points="889,-90.5 724,-90.5 724,-71.5 889,-71.5 889,-90.5"/>
<text text-anchor="middle" x="806.5" y="-78.5" font-family="Helvetica,sans-Serif" font-size="10.00">App/Test/Include/TestHelpers.h</text>
</a>
</g>
</g>
<!-- Node2&#45;&gt;Node16 -->
<g id="edge27_Node000002_Node000016" class="edge">
<title>Node2&#45;&gt;Node16</title>
<g id="a_edge27_Node000002_Node000016"><a xlink:title=" ">
<path fill="none" stroke="#63b8ff" d="M673.81,-191.28C684.79,-182.29 697.78,-171.63 709.5,-162 741.03,-136.08 778.25,-105.34 796.03,-90.65"/>
<polygon fill="#63b8ff" stroke="#63b8ff" points="671.38,-188.75 665.87,-197.79 675.82,-194.16 671.38,-188.75"/>
</a>
</g>
</g>
<!-- Node17 -->
<g id="Node000017" class="node">
<title>Node17</title>
<g id="a_Node000017"><a xlink:href="MeshCirculator__utest_8cpp.html" target="_top" xlink:title=" ">
<polygon fill="white" stroke="#666666" points="305.5,-30 135.5,-30 135.5,0 305.5,0 305.5,-30"/>
<text text-anchor="start" x="143.5" y="-18" font-family="Helvetica,sans-Serif" font-size="10.00">App/Test/Source/MeshCirculator</text>
<text text-anchor="middle" x="220.5" y="-7" font-family="Helvetica,sans-Serif" font-size="10.00">_utest.cpp</text>
</a>
</g>
</g>
<!-- Node2&#45;&gt;Node17 -->
<g id="edge28_Node000002_Node000017" class="edge">
<title>Node2&#45;&gt;Node17</title>
<g id="a_edge28_Node000002_Node000017"><a xlink:title=" ">
<path fill="none" stroke="#63b8ff" d="M572.7,-205.69C517.4,-199.25 441.42,-186.56 378.5,-162 327.15,-141.96 312.94,-134.51 273.5,-96 253.12,-76.1 236.32,-47.09 227.41,-30.02"/>
<polygon fill="#63b8ff" stroke="#63b8ff" points="572.45,-209.18 582.78,-206.82 573.23,-202.22 572.45,-209.18"/>
</a>
</g>
</g>
<!-- Node3&#45;&gt;Node4 -->
<g id="edge3_Node000003_Node000004" class="edge">
<title>Node3&#45;&gt;Node4</title>
<g id="a_edge3_Node000003_Node000004"><a xlink:title=" ">
<path fill="none" stroke="#63b8ff" d="M144.94,-125.87C127.54,-114.03 106.42,-99.65 93.22,-90.66"/>
<polygon fill="#63b8ff" stroke="#63b8ff" points="143.4,-129.06 153.64,-131.8 147.34,-123.28 143.4,-129.06"/>
</a>
</g>
</g>
<!-- Node5 -->
<g id="Node000005" class="node">
<title>Node5</title>
<g id="a_Node000005"><a xlink:href="MeshExporter__utest_8cpp.html" target="_top" xlink:title=" ">
<polygon fill="white" stroke="#666666" points="904.5,-30 740.5,-30 740.5,0 904.5,0 904.5,-30"/>
<text text-anchor="start" x="748.5" y="-18" font-family="Helvetica,sans-Serif" font-size="10.00">App/Test/Source/MeshExporter</text>
<text text-anchor="middle" x="822.5" y="-7" font-family="Helvetica,sans-Serif" font-size="10.00">_utest.cpp</text>
</a>
</g>
</g>
<!-- Node3&#45;&gt;Node5 -->
<g id="edge4_Node000003_Node000005" class="edge">
<title>Node3&#45;&gt;Node5</title>
<g id="a_edge4_Node000003_Node000005"><a xlink:title=" ">
<path fill="none" stroke="#63b8ff" d="M195.55,-125.12C216.26,-106.03 249.74,-78.87 284.5,-66 471.41,3.2 533.54,-53.17 731.5,-30 734.36,-29.67 737.26,-29.31 740.2,-28.93"/>
<polygon fill="#63b8ff" stroke="#63b8ff" points="193.13,-122.58 188.26,-131.99 197.94,-127.68 193.13,-122.58"/>
</a>
</g>
</g>
<!-- Node7 -->
<g id="Node000007" class="node">
<title>Node7</title>
<g id="a_Node000007"><a xlink:href="MeshIntegrity_8cpp.html" target="_top" xlink:title=" ">
<polygon fill="white" stroke="#666666" points="455,-90.5 294,-90.5 294,-71.5 455,-71.5 455,-90.5"/>
<text text-anchor="middle" x="374.5" y="-78.5" font-family="Helvetica,sans-Serif" font-size="10.00">App/Source/MeshIntegrity.cpp</text>
</a>
</g>
</g>
<!-- Node6&#45;&gt;Node7 -->
<g id="edge6_Node000006_Node000007" class="edge">
<title>Node6&#45;&gt;Node7</title>
<g id="a_edge6_Node000006_Node000007"><a xlink:title=" ">
<path fill="none" stroke="#63b8ff" d="M427.22,-125.26C413.03,-113.61 396.06,-99.69 385.28,-90.84"/>
<polygon fill="#63b8ff" stroke="#63b8ff" points="425.24,-128.16 435.19,-131.8 429.68,-122.75 425.24,-128.16"/>
</a>
</g>
</g>
<!-- Node8 -->
<g id="Node000008" class="node">
<title>Node8</title>
<g id="a_Node000008"><a xlink:href="MeshIntegrity__utest_8cpp.html" target="_top" xlink:title=" ">
<polygon fill="white" stroke="#666666" points="549.5,-30 385.5,-30 385.5,0 549.5,0 549.5,-30"/>
<text text-anchor="start" x="393.5" y="-18" font-family="Helvetica,sans-Serif" font-size="10.00">App/Test/Source/MeshIntegrity</text>
<text text-anchor="middle" x="467.5" y="-7" font-family="Helvetica,sans-Serif" font-size="10.00">_utest.cpp</text>
</a>
</g>
</g>
<!-- Node6&#45;&gt;Node8 -->
<g id="edge7_Node000006_Node000008" class="edge">
<title>Node6&#45;&gt;Node8</title>
<g id="a_edge7_Node000006_Node000008"><a xlink:title=" ">
<path fill="none" stroke="#63b8ff" d="M377.05,-136.43C319.48,-125.9 254.71,-105.02 284.5,-66 297.24,-49.31 342.68,-36.84 385.09,-28.53"/>
<polygon fill="#63b8ff" stroke="#63b8ff" points="376.5,-139.89 386.95,-138.16 377.7,-132.99 376.5,-139.89"/>
</a>
</g>
</g>
<!-- Node9 -->
<g id="Node000009" class="node">
<title>Node9</title>
<g id="a_Node000009"><a xlink:href="MeshLoader__utest_8cpp.html" target="_top" xlink:title=" ">
<polygon fill="white" stroke="#666666" points="667.5,-96 511.5,-96 511.5,-66 667.5,-66 667.5,-96"/>
<text text-anchor="start" x="519.5" y="-84" font-family="Helvetica,sans-Serif" font-size="10.00">App/Test/Source/MeshLoader</text>
<text text-anchor="middle" x="589.5" y="-73" font-family="Helvetica,sans-Serif" font-size="10.00">_utest.cpp</text>
</a>
</g>
</g>
<!-- Node6&#45;&gt;Node9 -->
<g id="edge8_Node000006_Node000009" class="edge">
<title>Node6&#45;&gt;Node9</title>
<g id="a_edge8_Node000006_Node000009"><a xlink:title=" ">
<path fill="none" stroke="#63b8ff" d="M491.78,-127.65C513.33,-117.58 539.62,-105.3 559.5,-96.01"/>
<polygon fill="#63b8ff" stroke="#63b8ff" points="490.14,-124.55 482.57,-131.95 493.11,-130.89 490.14,-124.55"/>
</a>
</g>
</g>
<!-- Node6&#45;&gt;Node10 -->
<g id="edge9_Node000006_Node000010" class="edge">
<title>Node6&#45;&gt;Node10</title>
<g id="a_edge9_Node000006_Node000010"><a xlink:title=" ">
<path fill="none" stroke="#63b8ff" d="M461.8,-122.48C470,-104.6 483.6,-80.65 502.5,-66 530.24,-44.5 567.43,-32.13 598.75,-25.08"/>
<polygon fill="#63b8ff" stroke="#63b8ff" points="458.57,-121.13 457.8,-131.7 464.99,-123.92 458.57,-121.13"/>
</a>
</g>
</g>
<!-- Node11&#45;&gt;Node9 -->
<g id="edge12_Node000011_Node000009" class="edge">
<title>Node11&#45;&gt;Node9</title>
<g id="a_edge12_Node000011_Node000009"><a xlink:title=" ">
<path fill="none" stroke="#63b8ff" d="M596.97,-121.83C595.34,-113.17 593.57,-103.7 592.16,-96.16"/>
<polygon fill="#63b8ff" stroke="#63b8ff" points="593.55,-122.61 598.84,-131.8 600.43,-121.32 593.55,-122.61"/>
</a>
</g>
</g>
<!-- Node12 -->
<g id="Node000012" class="node">
<title>Node12</title>
<g id="a_Node000012"><a xlink:href="MeshLoader_8cpp.html" target="_top" xlink:title=" ">
<polygon fill="white" stroke="#666666" points="1358,-90.5 1205,-90.5 1205,-71.5 1358,-71.5 1358,-90.5"/>
<text text-anchor="middle" x="1281.5" y="-78.5" font-family="Helvetica,sans-Serif" font-size="10.00">App/Source/MeshLoader.cpp</text>
</a>
</g>
</g>
<!-- Node11&#45;&gt;Node12 -->
<g id="edge11_Node000011_Node000012" class="edge">
<title>Node11&#45;&gt;Node12</title>
<g id="a_edge11_Node000011_Node000012"><a xlink:title=" ">
<path fill="none" stroke="#63b8ff" d="M677.57,-141.55C790.91,-134.48 1010.7,-119.07 1196.5,-96 1208.67,-94.49 1221.76,-92.51 1233.94,-90.52"/>
<polygon fill="#63b8ff" stroke="#63b8ff" points="677.03,-138.07 667.27,-142.19 677.47,-145.06 677.03,-138.07"/>
</a>
</g>
</g>
<!-- Node13&#45;&gt;Node5 -->
<g id="edge23_Node000013_Node000005" class="edge">
<title>Node13&#45;&gt;Node5</title>
<g id="a_edge23_Node000013_Node000005"><a xlink:title=" ">
<path fill="none" stroke="#63b8ff" d="M953.53,-121.94C950.96,-104.59 945.06,-81.58 931.5,-66 916.88,-49.19 895.44,-37.7 875.43,-30.02"/>
<polygon fill="#63b8ff" stroke="#63b8ff" points="950.05,-122.38 954.73,-131.89 957,-121.54 950.05,-122.38"/>
</a>
</g>
</g>
<!-- Node13&#45;&gt;Node10 -->
<g id="edge24_Node000013_Node000010" class="edge">
<title>Node13&#45;&gt;Node10</title>
<g id="a_edge24_Node000013_Node000010"><a xlink:title=" ">
<path fill="none" stroke="#63b8ff" d="M944.97,-122.8C935.44,-104.51 919.67,-79.85 898.5,-66 894.75,-63.55 791.33,-42.36 722.07,-28.37"/>
<polygon fill="#63b8ff" stroke="#63b8ff" points="941.92,-124.54 949.49,-131.95 948.2,-121.43 941.92,-124.54"/>
</a>
</g>
</g>
<!-- Node13&#45;&gt;Node12 -->
<g id="edge15_Node000013_Node000012" class="edge">
<title>Node13&#45;&gt;Node12</title>
<g id="a_edge15_Node000013_Node000012"><a xlink:title=" ">
<path fill="none" stroke="#63b8ff" d="M1031.15,-131.15C1095.31,-118.55 1185.1,-100.92 1237.9,-90.56"/>
<polygon fill="#63b8ff" stroke="#63b8ff" points="1030.22,-127.76 1021.08,-133.13 1031.57,-134.63 1030.22,-127.76"/>
</a>
</g>
</g>
<!-- Node13&#45;&gt;Node14 -->
<g id="edge14_Node000013_Node000014" class="edge">
<title>Node13&#45;&gt;Node14</title>
<g id="a_edge14_Node000013_Node000014"><a xlink:title=" ">
<path fill="none" stroke="#63b8ff" d="M1031.09,-138.65C1113.92,-130.16 1250.57,-114.93 1367.5,-96 1377.15,-94.44 1387.51,-92.48 1397.19,-90.54"/>
<polygon fill="#63b8ff" stroke="#63b8ff" points="1030.61,-135.18 1021.02,-139.67 1031.32,-142.14 1030.61,-135.18"/>
</a>
</g>
</g>
<!-- Node15 -->
<g id="Node000015" class="node">
<title>Node15</title>
<g id="a_Node000015"><a xlink:href="PrimitiveProxy_8cpp.html" target="_top" xlink:title=" ">
<polygon fill="white" stroke="#666666" points="1187,-90.5 1022,-90.5 1022,-71.5 1187,-71.5 1187,-90.5"/>
<text text-anchor="middle" x="1104.5" y="-78.5" font-family="Helvetica,sans-Serif" font-size="10.00">App/Source/PrimitiveProxy.cpp</text>
</a>
</g>
</g>
<!-- Node13&#45;&gt;Node15 -->
<g id="edge16_Node000013_Node000015" class="edge">
<title>Node13&#45;&gt;Node15</title>
<g id="a_edge16_Node000013_Node000015"><a xlink:title=" ">
<path fill="none" stroke="#63b8ff" d="M997.54,-127.94C1026.09,-115.68 1062.54,-100.02 1084.67,-90.52"/>
<polygon fill="#63b8ff" stroke="#63b8ff" points="996.01,-124.79 988.2,-131.95 998.77,-131.22 996.01,-124.79"/>
</a>
</g>
</g>
<!-- Node13&#45;&gt;Node16 -->
<g id="edge17_Node000013_Node000016" class="edge">
<title>Node13&#45;&gt;Node16</title>
<g id="a_edge17_Node000013_Node000016"><a xlink:title=" ">
<path fill="none" stroke="#63b8ff" d="M913.46,-127.94C884.91,-115.68 848.46,-100.02 826.33,-90.52"/>
<polygon fill="#63b8ff" stroke="#63b8ff" points="912.23,-131.22 922.8,-131.95 914.99,-124.79 912.23,-131.22"/>
</a>
</g>
</g>
<!-- Node18 -->
<g id="Node000018" class="node">
<title>Node18</title>
<g id="a_Node000018"><a xlink:href="PrimitiveProxy__utest_8cpp.html" target="_top" xlink:title=" ">
<polygon fill="white" stroke="#666666" points="1064,-30 923,-30 923,0 1064,0 1064,-30"/>
<text text-anchor="start" x="931" y="-18" font-family="Helvetica,sans-Serif" font-size="10.00">App/Test/Source/Primitive</text>
<text text-anchor="middle" x="993.5" y="-7" font-family="Helvetica,sans-Serif" font-size="10.00">Proxy_utest.cpp</text>
</a>
</g>
</g>
<!-- Node13&#45;&gt;Node18 -->
<g id="edge25_Node000013_Node000018" class="edge">
<title>Node13&#45;&gt;Node18</title>
<g id="a_edge25_Node000013_Node000018"><a xlink:title=" ">
<path fill="none" stroke="#63b8ff" d="M962.51,-122.04C970.38,-95.08 982.92,-52.21 989.37,-30.14"/>
<polygon fill="#63b8ff" stroke="#63b8ff" points="959.09,-121.26 959.64,-131.84 965.8,-123.22 959.09,-121.26"/>
</a>
</g>
</g>
<!-- Node16&#45;&gt;Node5 -->
<g id="edge19_Node000016_Node000005" class="edge">
<title>Node16&#45;&gt;Node5</title>
<g id="a_edge19_Node000016_Node000005"><a xlink:title=" ">
<path fill="none" stroke="#63b8ff" d="M811.16,-61.35C813.63,-51.47 816.62,-39.51 818.91,-30.36"/>
<polygon fill="#63b8ff" stroke="#63b8ff" points="807.69,-60.82 808.66,-71.37 814.48,-62.52 807.69,-60.82"/>
</a>
</g>
</g>
<!-- Node16&#45;&gt;Node8 -->
<g id="edge20_Node000016_Node000008" class="edge">
<title>Node16&#45;&gt;Node8</title>
<g id="a_edge20_Node000016_Node000008"><a xlink:title=" ">
<path fill="none" stroke="#63b8ff" d="M751.22,-69.56C694.21,-58.8 604.95,-41.95 541.79,-30.02"/>
<polygon fill="#63b8ff" stroke="#63b8ff" points="750.66,-73.02 761.13,-71.44 751.96,-66.14 750.66,-73.02"/>
</a>
</g>
</g>
<!-- Node16&#45;&gt;Node10 -->
<g id="edge21_Node000016_Node000010" class="edge">
<title>Node16&#45;&gt;Node10</title>
<g id="a_edge21_Node000016_Node000010"><a xlink:title=" ">
<path fill="none" stroke="#63b8ff" d="M777.35,-67.22C752.88,-56.5 717.98,-41.2 692.7,-30.12"/>
<polygon fill="#63b8ff" stroke="#63b8ff" points="776.25,-70.56 786.81,-71.37 779.06,-64.15 776.25,-70.56"/>
</a>
</g>
</g>
<!-- Node16&#45;&gt;Node17 -->
<g id="edge18_Node000016_Node000017" class="edge">
<title>Node16&#45;&gt;Node17</title>
<g id="a_edge18_Node000016_Node000017"><a xlink:title=" ">
<path fill="none" stroke="#63b8ff" d="M718.16,-70.35C606.55,-58.16 415.77,-37.33 305.68,-25.3"/>
<polygon fill="#63b8ff" stroke="#63b8ff" points="718.06,-73.86 728.38,-71.47 718.82,-66.9 718.06,-73.86"/>
</a>
</g>
</g>
<!-- Node16&#45;&gt;Node18 -->
<g id="edge22_Node000016_Node000018" class="edge">
<title>Node16&#45;&gt;Node18</title>
<g id="a_edge22_Node000016_Node000018"><a xlink:title=" ">
<path fill="none" stroke="#63b8ff" d="M841.36,-68.07C872.78,-57.31 919.01,-41.49 952.26,-30.12"/>
<polygon fill="#63b8ff" stroke="#63b8ff" points="840.05,-64.82 831.72,-71.37 842.31,-71.44 840.05,-64.82"/>
</a>
</g>
</g>
<!-- Node19&#45;&gt;Node2 -->
<g id="edge32_Node000019_Node000002" class="edge">
<title>Node19&#45;&gt;Node2</title>
<g id="a_edge32_Node000019_Node000002"><a xlink:title=" ">
<path fill="none" stroke="#63b8ff" d="M788.67,-260.72C757.91,-250.47 719.4,-237.63 690.54,-228.01"/>
<polygon fill="#63b8ff" stroke="#63b8ff" points="787.77,-264.11 798.36,-263.95 789.98,-257.47 787.77,-264.11"/>
</a>
</g>
</g>
<!-- Node20 -->
<g id="Node000020" class="node">
<title>Node20</title>
<g id="a_Node000020"><a xlink:href="VertexPair_8h.html" target="_top" xlink:title=" ">
<polygon fill="white" stroke="#666666" points="1502,-162 1371,-162 1371,-132 1502,-132 1502,-162"/>
<text text-anchor="start" x="1379" y="-150" font-family="Helvetica,sans-Serif" font-size="10.00">App/Include/Application</text>
<text text-anchor="middle" x="1436.5" y="-139" font-family="Helvetica,sans-Serif" font-size="10.00">/VertexPair.h</text>
</a>
</g>
</g>
<!-- Node19&#45;&gt;Node20 -->
<g id="edge33_Node000019_Node000020" class="edge">
<title>Node19&#45;&gt;Node20</title>
<g id="a_edge33_Node000019_Node000020"><a xlink:title=" ">
<path fill="none" stroke="#63b8ff" d="M916.27,-262.34C963.05,-252.61 1024.3,-239.75 1078.5,-228 1182.6,-205.44 1303.48,-178.21 1374.79,-162.04"/>
<polygon fill="#63b8ff" stroke="#63b8ff" points="915.29,-258.97 906.21,-264.43 916.71,-265.82 915.29,-258.97"/>
</a>
</g>
</g>
<!-- Node23 -->
<g id="Node000023" class="node">
<title>Node23</title>
<g id="a_Node000023"><a xlink:href="Primitive_8cpp.html" target="_top" xlink:title=" ">
<polygon fill="white" stroke="#666666" points="910,-222.5 771,-222.5 771,-203.5 910,-203.5 910,-222.5"/>
<text text-anchor="middle" x="840.5" y="-210.5" font-family="Helvetica,sans-Serif" font-size="10.00">App/Source/Primitive.cpp</text>
</a>
</g>
</g>
<!-- Node19&#45;&gt;Node23 -->
<g id="edge38_Node000019_Node000023" class="edge">
<title>Node19&#45;&gt;Node23</title>
<g id="a_edge38_Node000019_Node000023"><a xlink:title=" ">
<path fill="none" stroke="#63b8ff" d="M840.5,-253.6C840.5,-242.8 840.5,-230.78 840.5,-222.84"/>
<polygon fill="#63b8ff" stroke="#63b8ff" points="837,-253.8 840.5,-263.8 844,-253.8 837,-253.8"/>
</a>
</g>
</g>
<!-- Node24 -->
<g id="Node000024" class="node">
<title>Node24</title>
<g id="a_Node000024"><a xlink:href="Primitive__utest_8cpp.html" target="_top" xlink:title=" ">
<polygon fill="white" stroke="#666666" points="1069,-228 928,-228 928,-198 1069,-198 1069,-228"/>
<text text-anchor="start" x="936" y="-216" font-family="Helvetica,sans-Serif" font-size="10.00">App/Test/Source/Primitive</text>
<text text-anchor="middle" x="998.5" y="-205" font-family="Helvetica,sans-Serif" font-size="10.00">_utest.cpp</text>
</a>
</g>
</g>
<!-- Node19&#45;&gt;Node24 -->
<g id="edge39_Node000019_Node000024" class="edge">
<title>Node19&#45;&gt;Node24</title>
<g id="a_edge39_Node000019_Node000024"><a xlink:title=" ">
<path fill="none" stroke="#63b8ff" d="M884.47,-260.19C909.56,-250.02 940.57,-237.47 963.91,-228.01"/>
<polygon fill="#63b8ff" stroke="#63b8ff" points="883.13,-256.96 875.17,-263.95 885.76,-263.44 883.13,-256.96"/>
</a>
</g>
</g>
<!-- Node20&#45;&gt;Node12 -->
<g id="edge35_Node000020_Node000012" class="edge">
<title>Node20&#45;&gt;Node12</title>
<g id="a_edge35_Node000020_Node000012"><a xlink:title=" ">
<path fill="none" stroke="#63b8ff" d="M1393.15,-128.1C1363.4,-115.82 1325.25,-100.06 1302.13,-90.52"/>
<polygon fill="#63b8ff" stroke="#63b8ff" points="1391.91,-131.37 1402.48,-131.95 1394.58,-124.9 1391.91,-131.37"/>
</a>
</g>
</g>
<!-- Node20&#45;&gt;Node14 -->
<g id="edge34_Node000020_Node000014" class="edge">
<title>Node20&#45;&gt;Node14</title>
<g id="a_edge34_Node000020_Node000014"><a xlink:title=" ">
<path fill="none" stroke="#63b8ff" d="M1436.5,-121.6C1436.5,-110.8 1436.5,-98.78 1436.5,-90.84"/>
<polygon fill="#63b8ff" stroke="#63b8ff" points="1433,-121.8 1436.5,-131.8 1440,-121.8 1433,-121.8"/>
</a>
</g>
</g>
<!-- Node21 -->
<g id="Node000021" class="node">
<title>Node21</title>
<g id="a_Node000021"><a xlink:href="VertexPair_8cpp.html" target="_top" xlink:title=" ">
<polygon fill="white" stroke="#666666" points="1823,-90.5 1680,-90.5 1680,-71.5 1823,-71.5 1823,-90.5"/>
<text text-anchor="middle" x="1751.5" y="-78.5" font-family="Helvetica,sans-Serif" font-size="10.00">App/Source/VertexPair.cpp</text>
</a>
</g>
</g>
<!-- Node20&#45;&gt;Node21 -->
<g id="edge36_Node000020_Node000021" class="edge">
<title>Node20&#45;&gt;Node21</title>
<g id="a_edge36_Node000020_Node000021"><a xlink:title=" ">
<path fill="none" stroke="#63b8ff" d="M1512.26,-130.61C1574.13,-118.04 1659.28,-100.74 1709.54,-90.53"/>
<polygon fill="#63b8ff" stroke="#63b8ff" points="1511.25,-127.24 1502.15,-132.66 1512.65,-134.1 1511.25,-127.24"/>
</a>
</g>
</g>
<!-- Node22 -->
<g id="Node000022" class="node">
<title>Node22</title>
<g id="a_Node000022"><a xlink:href="VertexPair__utest_8cpp.html" target="_top" xlink:title=" ">
<polygon fill="white" stroke="#666666" points="1661.5,-96 1515.5,-96 1515.5,-66 1661.5,-66 1661.5,-96"/>
<text text-anchor="start" x="1523.5" y="-84" font-family="Helvetica,sans-Serif" font-size="10.00">App/Test/Source/VertexPair</text>
<text text-anchor="middle" x="1588.5" y="-73" font-family="Helvetica,sans-Serif" font-size="10.00">_utest.cpp</text>
</a>
</g>
</g>
<!-- Node20&#45;&gt;Node22 -->
<g id="edge37_Node000020_Node000022" class="edge">
<title>Node20&#45;&gt;Node22</title>
<g id="a_edge37_Node000020_Node000022"><a xlink:title=" ">
<path fill="none" stroke="#63b8ff" d="M1479.12,-128.05C1503.2,-117.91 1532.86,-105.43 1555.22,-96.01"/>
<polygon fill="#63b8ff" stroke="#63b8ff" points="1477.72,-124.85 1469.86,-131.95 1480.43,-131.3 1477.72,-124.85"/>
</a>
</g>
</g>
</g>
</svg>
