<?xml version="1.0" encoding="UTF-8" standalone="no"?>
<!DOCTYPE svg PUBLIC "-//W3C//DTD SVG 1.1//EN"
 "http://www.w3.org/Graphics/SVG/1.1/DTD/svg11.dtd">
<!-- Generated by graphviz version 2.43.0 (0)
 -->
<!-- Title: Core/Include/Core/BaseType.h Pages: 1 -->
<svg width="2395pt" height="357pt"
 viewBox="0.00 0.00 2394.60 357.00" xmlns="http://www.w3.org/2000/svg" xmlns:xlink="http://www.w3.org/1999/xlink">
<g id="graph0" class="graph" transform="scale(1 1) rotate(0) translate(4 353)">
<title>Core/Include/Core/BaseType.h</title>
<!-- Node1 -->
<g id="Node000001" class="node">
<title>Node1</title>
<g id="a_Node000001"><a xlink:title=" ">
<polygon fill="#999999" stroke="#666666" points="1071.1,-349 910.1,-349 910.1,-330 1071.1,-330 1071.1,-349"/>
<text text-anchor="middle" x="990.6" y="-337" font-family="Helvetica,sans-Serif" font-size="10.00">Core/Include/Core/BaseType.h</text>
</a>
</g>
</g>
<!-- Node2 -->
<g id="Node000002" class="node">
<title>Node2</title>
<g id="a_Node000002"><a xlink:href="ExtraDataType_8h.html" target="_top" xlink:title=" ">
<polygon fill="white" stroke="#666666" points="1056.1,-162 925.1,-162 925.1,-132 1056.1,-132 1056.1,-162"/>
<text text-anchor="start" x="933.1" y="-150" font-family="Helvetica,sans-Serif" font-size="10.00">App/Include/Application</text>
<text text-anchor="middle" x="990.6" y="-139" font-family="Helvetica,sans-Serif" font-size="10.00">/ExtraDataType.h</text>
</a>
</g>
</g>
<!-- Node1&#45;&gt;Node2 -->
<g id="edge1_Node000001_Node000002" class="edge">
<title>Node1&#45;&gt;Node2</title>
<g id="a_edge1_Node000001_Node000002"><a xlink:title=" ">
<path fill="none" stroke="#63b8ff" d="M990.6,-319.6C990.6,-281.44 990.6,-195.91 990.6,-162.12"/>
<polygon fill="#63b8ff" stroke="#63b8ff" points="987.1,-319.82 990.6,-329.82 994.1,-319.82 987.1,-319.82"/>
</a>
</g>
</g>
<!-- Node10 -->
<g id="Node000010" class="node">
<title>Node10</title>
<g id="a_Node000010"><a xlink:href="MeshExporter_8cpp.html" target="_top" xlink:title=" ">
<polygon fill="white" stroke="#666666" points="392.1,-90.5 231.1,-90.5 231.1,-71.5 392.1,-71.5 392.1,-90.5"/>
<text text-anchor="middle" x="311.6" y="-78.5" font-family="Helvetica,sans-Serif" font-size="10.00">App/Source/MeshExporter.cpp</text>
</a>
</g>
</g>
<!-- Node1&#45;&gt;Node10 -->
<g id="edge59_Node000001_Node000010" class="edge">
<title>Node1&#45;&gt;Node10</title>
<g id="a_edge59_Node000001_Node000010"><a xlink:title=" ">
<path fill="none" stroke="#63b8ff" d="M953.5,-326.98C926.05,-318.3 887.82,-305.91 854.6,-294 648.83,-220.23 403.73,-120.02 332.16,-90.51"/>
<polygon fill="#63b8ff" stroke="#63b8ff" points="952.51,-330.33 963.1,-330 954.61,-323.66 952.51,-330.33"/>
</a>
</g>
</g>
<!-- Node13 -->
<g id="Node000013" class="node">
<title>Node13</title>
<g id="a_Node000013"><a xlink:href="MathHelpers_8h.html" target="_top" xlink:title=" ">
<polygon fill="white" stroke="#666666" points="700.1,-162 569.1,-162 569.1,-132 700.1,-132 700.1,-162"/>
<text text-anchor="start" x="577.1" y="-150" font-family="Helvetica,sans-Serif" font-size="10.00">App/Include/Application</text>
<text text-anchor="middle" x="634.6" y="-139" font-family="Helvetica,sans-Serif" font-size="10.00">/MathHelpers.h</text>
</a>
</g>
</g>
<!-- Node1&#45;&gt;Node13 -->
<g id="edge14_Node000001_Node000013" class="edge">
<title>Node1&#45;&gt;Node13</title>
<g id="a_edge14_Node000001_Node000013"><a xlink:title=" ">
<path fill="none" stroke="#63b8ff" d="M965.23,-324.92C900.05,-290.04 727.27,-197.59 660.99,-162.12"/>
<polygon fill="#63b8ff" stroke="#63b8ff" points="963.91,-328.19 974.38,-329.82 967.22,-322.02 963.91,-328.19"/>
</a>
</g>
</g>
<!-- Node15 -->
<g id="Node000015" class="node">
<title>Node15</title>
<g id="a_Node000015"><a xlink:href="Mesh_8h.html" target="_top" xlink:title=" ">
<polygon fill="white" stroke="#666666" points="1219.1,-228 1088.1,-228 1088.1,-198 1219.1,-198 1219.1,-228"/>
<text text-anchor="start" x="1096.1" y="-216" font-family="Helvetica,sans-Serif" font-size="10.00">App/Include/Application</text>
<text text-anchor="middle" x="1153.6" y="-205" font-family="Helvetica,sans-Serif" font-size="10.00">/Mesh.h</text>
</a>
</g>
</g>
<!-- Node1&#45;&gt;Node15 -->
<g id="edge20_Node000001_Node000015" class="edge">
<title>Node1&#45;&gt;Node15</title>
<g id="a_edge20_Node000001_Node000015"><a xlink:title=" ">
<path fill="none" stroke="#63b8ff" d="M1009.85,-323.8C1041.45,-299.66 1103.93,-251.94 1135.06,-228.16"/>
<polygon fill="#63b8ff" stroke="#63b8ff" points="1007.63,-321.09 1001.81,-329.94 1011.88,-326.65 1007.63,-321.09"/>
</a>
</g>
</g>
<!-- Node16 -->
<g id="Node000016" class="node">
<title>Node16</title>
<g id="a_Node000016"><a xlink:href="MeshExporter_8h.html" target="_top" xlink:title=" ">
<polygon fill="white" stroke="#666666" points="397.1,-162 266.1,-162 266.1,-132 397.1,-132 397.1,-162"/>
<text text-anchor="start" x="274.1" y="-150" font-family="Helvetica,sans-Serif" font-size="10.00">App/Include/Application</text>
<text text-anchor="middle" x="331.6" y="-139" font-family="Helvetica,sans-Serif" font-size="10.00">/MeshExporter.h</text>
</a>
</g>
</g>
<!-- Node1&#45;&gt;Node16 -->
<g id="edge48_Node000001_Node000016" class="edge">
<title>Node1&#45;&gt;Node16</title>
<g id="a_edge48_Node000001_Node000016"><a xlink:title=" ">
<path fill="none" stroke="#63b8ff" d="M899.76,-337.46C775.52,-334.85 559.89,-325.73 488.6,-294 420.93,-263.88 363.6,-192.37 341.42,-162.01"/>
<polygon fill="#63b8ff" stroke="#63b8ff" points="899.95,-340.96 910.02,-337.66 900.09,-333.96 899.95,-340.96"/>
</a>
</g>
</g>
<!-- Node20 -->
<g id="Node000020" class="node">
<title>Node20</title>
<g id="a_Node000020"><a xlink:href="PrimitiveProxy_8h.html" target="_top" xlink:title=" ">
<polygon fill="white" stroke="#666666" points="868.1,-162 737.1,-162 737.1,-132 868.1,-132 868.1,-162"/>
<text text-anchor="start" x="745.1" y="-150" font-family="Helvetica,sans-Serif" font-size="10.00">App/Include/Application</text>
<text text-anchor="middle" x="802.6" y="-139" font-family="Helvetica,sans-Serif" font-size="10.00">/PrimitiveProxy.h</text>
</a>
</g>
</g>
<!-- Node1&#45;&gt;Node20 -->
<g id="edge58_Node000001_Node000020" class="edge">
<title>Node1&#45;&gt;Node20</title>
<g id="a_edge58_Node000001_Node000020"><a xlink:title=" ">
<path fill="none" stroke="#63b8ff" d="M974.78,-322.47C938.69,-285.9 850.75,-196.78 816.54,-162.12"/>
<polygon fill="#63b8ff" stroke="#63b8ff" points="972.52,-325.16 982.04,-329.82 977.5,-320.24 972.52,-325.16"/>
</a>
</g>
</g>
<!-- Node23 -->
<g id="Node000023" class="node">
<title>Node23</title>
<g id="a_Node000023"><a xlink:href="Primitive_8h.html" target="_top" xlink:title=" ">
<polygon fill="white" stroke="#666666" points="1372.1,-294 1241.1,-294 1241.1,-264 1372.1,-264 1372.1,-294"/>
<text text-anchor="start" x="1249.1" y="-282" font-family="Helvetica,sans-Serif" font-size="10.00">App/Include/Application</text>
<text text-anchor="middle" x="1306.6" y="-271" font-family="Helvetica,sans-Serif" font-size="10.00">/Primitive.h</text>
</a>
</g>
</g>
<!-- Node1&#45;&gt;Node23 -->
<g id="edge49_Node000001_Node000023" class="edge">
<title>Node1&#45;&gt;Node23</title>
<g id="a_edge49_Node000001_Node000023"><a xlink:title=" ">
<path fill="none" stroke="#63b8ff" d="M1046.71,-328.11C1101.13,-318.04 1183.68,-302.76 1241.09,-292.13"/>
<polygon fill="#63b8ff" stroke="#63b8ff" points="1045.75,-324.73 1036.55,-329.99 1047.02,-331.61 1045.75,-324.73"/>
</a>
</g>
</g>
<!-- Node29 -->
<g id="Node000029" class="node">
<title>Node29</title>
<g id="a_Node000029"><a xlink:href="Application_8h.html" target="_top" xlink:title=" ">
<polygon fill="white" stroke="#666666" points="2086.6,-222.5 1916.6,-222.5 1916.6,-203.5 2086.6,-203.5 2086.6,-222.5"/>
<text text-anchor="middle" x="2001.6" y="-210.5" font-family="Helvetica,sans-Serif" font-size="10.00">Core/Include/Core/Application.h</text>
</a>
</g>
</g>
<!-- Node1&#45;&gt;Node29 -->
<g id="edge60_Node000001_Node000029" class="edge">
<title>Node1&#45;&gt;Node29</title>
<g id="a_edge60_Node000001_Node000029"><a xlink:title=" ">
<path fill="none" stroke="#63b8ff" d="M1078.74,-328.81C1157.82,-320.03 1277.01,-306.58 1380.6,-294 1584.29,-269.26 1825.2,-237.51 1937.72,-222.54"/>
<polygon fill="#63b8ff" stroke="#63b8ff" points="1077.89,-325.39 1068.34,-329.97 1078.66,-332.34 1077.89,-325.39"/>
</a>
</g>
</g>
<!-- Node33 -->
<g id="Node000033" class="node">
<title>Node33</title>
<g id="a_Node000033"><a xlink:href="Window_8h.html" target="_top" xlink:title=" ">
<polygon fill="white" stroke="#666666" points="2078.1,-288.5 1925.1,-288.5 1925.1,-269.5 2078.1,-269.5 2078.1,-288.5"/>
<text text-anchor="middle" x="2001.6" y="-276.5" font-family="Helvetica,sans-Serif" font-size="10.00">Core/Include/Core/Window.h</text>
</a>
</g>
</g>
<!-- Node1&#45;&gt;Node33 -->
<g id="edge64_Node000001_Node000033" class="edge">
<title>Node1&#45;&gt;Node33</title>
<g id="a_edge64_Node000001_Node000033"><a xlink:title=" ">
<path fill="none" stroke="#63b8ff" d="M1081.23,-333.26C1278.04,-321.87 1741.58,-295.05 1924.97,-284.43"/>
<polygon fill="#63b8ff" stroke="#63b8ff" points="1080.99,-329.76 1071.2,-333.84 1081.39,-336.75 1080.99,-329.76"/>
</a>
</g>
</g>
<!-- Node3 -->
<g id="Node000003" class="node">
<title>Node3</title>
<g id="a_Node000003"><a xlink:href="TestHelpers_8h.html" target="_top" xlink:title=" ">
<polygon fill="white" stroke="#666666" points="1056.1,-96 925.1,-96 925.1,-66 1056.1,-66 1056.1,-96"/>
<text text-anchor="start" x="933.1" y="-84" font-family="Helvetica,sans-Serif" font-size="10.00">App/Include/Application</text>
<text text-anchor="middle" x="990.6" y="-73" font-family="Helvetica,sans-Serif" font-size="10.00">/TestHelpers.h</text>
</a>
</g>
</g>
<!-- Node2&#45;&gt;Node3 -->
<g id="edge2_Node000002_Node000003" class="edge">
<title>Node2&#45;&gt;Node3</title>
<g id="a_edge2_Node000002_Node000003"><a xlink:title=" ">
<path fill="none" stroke="#63b8ff" d="M990.6,-121.54C990.6,-112.96 990.6,-103.61 990.6,-96.16"/>
<polygon fill="#63b8ff" stroke="#63b8ff" points="987.1,-121.8 990.6,-131.8 994.1,-121.8 987.1,-121.8"/>
</a>
</g>
</g>
<!-- Node5 -->
<g id="Node000005" class="node">
<title>Node5</title>
<g id="a_Node000005"><a xlink:href="MeshExporter__utest_8cpp.html" target="_top" xlink:title=" ">
<polygon fill="white" stroke="#666666" points="540.6,-30 376.6,-30 376.6,0 540.6,0 540.6,-30"/>
<text text-anchor="start" x="384.6" y="-18" font-family="Helvetica,sans-Serif" font-size="10.00">App/Test/Source/MeshExporter</text>
<text text-anchor="middle" x="458.6" y="-7" font-family="Helvetica,sans-Serif" font-size="10.00">_utest.cpp</text>
</a>
</g>
</g>
<!-- Node2&#45;&gt;Node5 -->
<g id="edge11_Node000002_Node000005" class="edge">
<title>Node2&#45;&gt;Node5</title>
<g id="a_edge11_Node000002_Node000005"><a xlink:title=" ">
<path fill="none" stroke="#63b8ff" d="M960.07,-126.32C946.33,-117.29 930,-106.32 915.6,-96 897.83,-83.26 896.85,-74.26 876.6,-66 817.56,-41.91 644.79,-27.43 540.77,-20.65"/>
<polygon fill="#63b8ff" stroke="#63b8ff" points="958.39,-129.4 968.68,-131.94 962.22,-123.54 958.39,-129.4"/>
</a>
</g>
</g>
<!-- Node7 -->
<g id="Node000007" class="node">
<title>Node7</title>
<g id="a_Node000007"><a xlink:href="Mesh__utest_8cpp.html" target="_top" xlink:title=" ">
<polygon fill="white" stroke="#666666" points="1320.1,-30 1197.1,-30 1197.1,0 1320.1,0 1320.1,-30"/>
<text text-anchor="start" x="1205.1" y="-18" font-family="Helvetica,sans-Serif" font-size="10.00">App/Test/Source/Mesh</text>
<text text-anchor="middle" x="1258.6" y="-7" font-family="Helvetica,sans-Serif" font-size="10.00">_utest.cpp</text>
</a>
</g>
</g>
<!-- Node2&#45;&gt;Node7 -->
<g id="edge13_Node000002_Node000007" class="edge">
<title>Node2&#45;&gt;Node7</title>
<g id="a_edge13_Node000002_Node000007"><a xlink:title=" ">
<path fill="none" stroke="#63b8ff" d="M1066.34,-134.99C1134.91,-124.35 1227.06,-108.11 1239.6,-96 1257.47,-78.75 1259.83,-47.99 1259.51,-30.06"/>
<polygon fill="#63b8ff" stroke="#63b8ff" points="1065.76,-131.54 1056.41,-136.52 1066.83,-138.46 1065.76,-131.54"/>
</a>
</g>
</g>
<!-- Node9 -->
<g id="Node000009" class="node">
<title>Node9</title>
<g id="a_Node000009"><a xlink:href="Mesh_8cpp.html" target="_top" xlink:title=" ">
<polygon fill="white" stroke="#666666" points="868.1,-90.5 747.1,-90.5 747.1,-71.5 868.1,-71.5 868.1,-90.5"/>
<text text-anchor="middle" x="807.6" y="-78.5" font-family="Helvetica,sans-Serif" font-size="10.00">App/Source/Mesh.cpp</text>
</a>
</g>
</g>
<!-- Node2&#45;&gt;Node9 -->
<g id="edge8_Node000002_Node000009" class="edge">
<title>Node2&#45;&gt;Node9</title>
<g id="a_edge8_Node000002_Node000009"><a xlink:title=" ">
<path fill="none" stroke="#63b8ff" d="M940.79,-128.58C905.47,-116.23 859.61,-100.19 831.96,-90.52"/>
<polygon fill="#63b8ff" stroke="#63b8ff" points="939.85,-131.96 950.44,-131.95 942.16,-125.35 939.85,-131.96"/>
</a>
</g>
</g>
<!-- Node2&#45;&gt;Node10 -->
<g id="edge9_Node000002_Node000010" class="edge">
<title>Node2&#45;&gt;Node10</title>
<g id="a_edge9_Node000002_Node000010"><a xlink:title=" ">
<path fill="none" stroke="#63b8ff" d="M914.81,-136.33C902.07,-134.81 888.97,-133.31 876.6,-132 784.92,-122.32 525.08,-100.05 392.13,-88.79"/>
<polygon fill="#63b8ff" stroke="#63b8ff" points="914.59,-139.83 924.94,-137.55 915.43,-132.88 914.59,-139.83"/>
</a>
</g>
</g>
<!-- Node11 -->
<g id="Node000011" class="node">
<title>Node11</title>
<g id="a_Node000011"><a xlink:href="MeshLoader_8cpp.html" target="_top" xlink:title=" ">
<polygon fill="white" stroke="#666666" points="1440.1,-90.5 1287.1,-90.5 1287.1,-71.5 1440.1,-71.5 1440.1,-90.5"/>
<text text-anchor="middle" x="1363.6" y="-78.5" font-family="Helvetica,sans-Serif" font-size="10.00">App/Source/MeshLoader.cpp</text>
</a>
</g>
</g>
<!-- Node2&#45;&gt;Node11 -->
<g id="edge10_Node000002_Node000011" class="edge">
<title>Node2&#45;&gt;Node11</title>
<g id="a_edge10_Node000002_Node000011"><a xlink:title=" ">
<path fill="none" stroke="#63b8ff" d="M1066.61,-132.96C1140.51,-120.28 1250.61,-101.39 1313.93,-90.52"/>
<polygon fill="#63b8ff" stroke="#63b8ff" points="1065.69,-129.56 1056.43,-134.71 1066.88,-136.46 1065.69,-129.56"/>
</a>
</g>
</g>
<!-- Node12 -->
<g id="Node000012" class="node">
<title>Node12</title>
<g id="a_Node000012"><a xlink:href="MeshLoader__utest_8cpp.html" target="_top" xlink:title=" ">
<polygon fill="white" stroke="#666666" points="1230.6,-96 1074.6,-96 1074.6,-66 1230.6,-66 1230.6,-96"/>
<text text-anchor="start" x="1082.6" y="-84" font-family="Helvetica,sans-Serif" font-size="10.00">App/Test/Source/MeshLoader</text>
<text text-anchor="middle" x="1152.6" y="-73" font-family="Helvetica,sans-Serif" font-size="10.00">_utest.cpp</text>
</a>
</g>
</g>
<!-- Node2&#45;&gt;Node12 -->
<g id="edge12_Node000002_Node000012" class="edge">
<title>Node2&#45;&gt;Node12</title>
<g id="a_edge12_Node000002_Node000012"><a xlink:title=" ">
<path fill="none" stroke="#63b8ff" d="M1035.69,-128.19C1061.42,-118.02 1093.2,-105.47 1117.14,-96.01"/>
<polygon fill="#63b8ff" stroke="#63b8ff" points="1034.17,-125.03 1026.16,-131.95 1036.74,-131.54 1034.17,-125.03"/>
</a>
</g>
</g>
<!-- Node4 -->
<g id="Node000004" class="node">
<title>Node4</title>
<g id="a_Node000004"><a xlink:href="MeshCirculator__utest_8cpp.html" target="_top" xlink:title=" ">
<polygon fill="white" stroke="#666666" points="1828.6,-30 1658.6,-30 1658.6,0 1828.6,0 1828.6,-30"/>
<text text-anchor="start" x="1666.6" y="-18" font-family="Helvetica,sans-Serif" font-size="10.00">App/Test/Source/MeshCirculator</text>
<text text-anchor="middle" x="1743.6" y="-7" font-family="Helvetica,sans-Serif" font-size="10.00">_utest.cpp</text>
</a>
</g>
</g>
<!-- Node3&#45;&gt;Node4 -->
<g id="edge3_Node000003_Node000004" class="edge">
<title>Node3&#45;&gt;Node4</title>
<g id="a_edge3_Node000003_Node000004"><a xlink:title=" ">
<path fill="none" stroke="#63b8ff" d="M1066.56,-65.99C1300.24,-36.76 1361.91,-48.57 1592.6,-30 1613.99,-28.28 1637.07,-26.23 1658.59,-24.25"/>
<polygon fill="#63b8ff" stroke="#63b8ff" points="1065.87,-62.55 1056.39,-67.27 1066.75,-69.49 1065.87,-62.55"/>
</a>
</g>
</g>
<!-- Node3&#45;&gt;Node5 -->
<g id="edge4_Node000003_Node000005" class="edge">
<title>Node3&#45;&gt;Node5</title>
<g id="a_edge4_Node000003_Node000005"><a xlink:title=" ">
<path fill="none" stroke="#63b8ff" d="M914.52,-66.57C913.21,-66.37 911.9,-66.18 910.6,-66 781.84,-47.63 631.61,-32.2 540.87,-23.53"/>
<polygon fill="#63b8ff" stroke="#63b8ff" points="914.32,-70.08 924.74,-68.13 915.38,-63.16 914.32,-70.08"/>
</a>
</g>
</g>
<!-- Node6 -->
<g id="Node000006" class="node">
<title>Node6</title>
<g id="a_Node000006"><a xlink:href="MeshIntegrity__utest_8cpp.html" target="_top" xlink:title=" ">
<polygon fill="white" stroke="#666666" points="1583.6,-30 1419.6,-30 1419.6,0 1583.6,0 1583.6,-30"/>
<text text-anchor="start" x="1427.6" y="-18" font-family="Helvetica,sans-Serif" font-size="10.00">App/Test/Source/MeshIntegrity</text>
<text text-anchor="middle" x="1501.6" y="-7" font-family="Helvetica,sans-Serif" font-size="10.00">_utest.cpp</text>
</a>
</g>
</g>
<!-- Node3&#45;&gt;Node6 -->
<g id="edge5_Node000003_Node000006" class="edge">
<title>Node3&#45;&gt;Node6</title>
<g id="a_edge5_Node000003_Node000006"><a xlink:title=" ">
<path fill="none" stroke="#63b8ff" d="M1066.49,-65.94C1195.65,-46.75 1333.82,-32.08 1419.41,-23.68"/>
<polygon fill="#63b8ff" stroke="#63b8ff" points="1065.78,-62.5 1056.41,-67.45 1066.82,-69.43 1065.78,-62.5"/>
</a>
</g>
</g>
<!-- Node3&#45;&gt;Node7 -->
<g id="edge6_Node000003_Node000007" class="edge">
<title>Node3&#45;&gt;Node7</title>
<g id="a_edge6_Node000003_Node000007"><a xlink:title=" ">
<path fill="none" stroke="#63b8ff" d="M1059.35,-63.58C1102.86,-53.19 1158.5,-39.9 1199.93,-30.01"/>
<polygon fill="#63b8ff" stroke="#63b8ff" points="1058.33,-60.23 1049.42,-65.95 1059.96,-67.04 1058.33,-60.23"/>
</a>
</g>
</g>
<!-- Node8 -->
<g id="Node000008" class="node">
<title>Node8</title>
<g id="a_Node000008"><a xlink:href="PrimitiveProxy__utest_8cpp.html" target="_top" xlink:title=" ">
<polygon fill="white" stroke="#666666" points="906.1,-30 765.1,-30 765.1,0 906.1,0 906.1,-30"/>
<text text-anchor="start" x="773.1" y="-18" font-family="Helvetica,sans-Serif" font-size="10.00">App/Test/Source/Primitive</text>
<text text-anchor="middle" x="835.6" y="-7" font-family="Helvetica,sans-Serif" font-size="10.00">Proxy_utest.cpp</text>
</a>
</g>
</g>
<!-- Node3&#45;&gt;Node8 -->
<g id="edge7_Node000003_Node000008" class="edge">
<title>Node3&#45;&gt;Node8</title>
<g id="a_edge7_Node000003_Node000008"><a xlink:title=" ">
<path fill="none" stroke="#63b8ff" d="M947.14,-62.05C922.58,-51.91 892.34,-39.43 869.54,-30.01"/>
<polygon fill="#63b8ff" stroke="#63b8ff" points="946.01,-65.37 956.59,-65.95 948.68,-58.9 946.01,-65.37"/>
</a>
</g>
</g>
<!-- Node13&#45;&gt;Node5 -->
<g id="edge17_Node000013_Node000005" class="edge">
<title>Node13&#45;&gt;Node5</title>
<g id="a_edge17_Node000013_Node000005"><a xlink:title=" ">
<path fill="none" stroke="#63b8ff" d="M558.76,-142.18C445.63,-135.69 243.55,-120.76 221.6,-96 173.29,-41.48 290.06,-24.06 376.3,-18.53"/>
<polygon fill="#63b8ff" stroke="#63b8ff" points="558.57,-145.67 568.76,-142.74 558.97,-138.68 558.57,-145.67"/>
</a>
</g>
</g>
<!-- Node13&#45;&gt;Node7 -->
<g id="edge19_Node000013_Node000007" class="edge">
<title>Node13&#45;&gt;Node7</title>
<g id="a_edge19_Node000013_Node000007"><a xlink:title=" ">
<path fill="none" stroke="#63b8ff" d="M558.88,-133.17C504.7,-120.88 446.42,-99.24 477.6,-66 489.88,-52.91 1014.34,-27.35 1196.8,-18.83"/>
<polygon fill="#63b8ff" stroke="#63b8ff" points="558.41,-136.65 568.93,-135.36 559.9,-129.81 558.41,-136.65"/>
</a>
</g>
</g>
<!-- Node13&#45;&gt;Node9 -->
<g id="edge15_Node000013_Node000009" class="edge">
<title>Node13&#45;&gt;Node9</title>
<g id="a_edge15_Node000013_Node000009"><a xlink:title=" ">
<path fill="none" stroke="#63b8ff" d="M682.13,-128.42C715.46,-116.09 758.55,-100.15 784.58,-90.52"/>
<polygon fill="#63b8ff" stroke="#63b8ff" points="680.73,-125.2 672.57,-131.95 683.16,-131.77 680.73,-125.2"/>
</a>
</g>
</g>
<!-- Node13&#45;&gt;Node12 -->
<g id="edge18_Node000013_Node000012" class="edge">
<title>Node13&#45;&gt;Node12</title>
<g id="a_edge18_Node000013_Node000012"><a xlink:title=" ">
<path fill="none" stroke="#63b8ff" d="M710.67,-134.28C716.39,-133.48 722.09,-132.71 727.6,-132 877,-112.78 915.29,-115.84 1064.6,-96 1067.82,-95.57 1071.11,-95.12 1074.42,-94.65"/>
<polygon fill="#63b8ff" stroke="#63b8ff" points="709.76,-130.87 700.35,-135.74 710.74,-137.8 709.76,-130.87"/>
</a>
</g>
</g>
<!-- Node14 -->
<g id="Node000014" class="node">
<title>Node14</title>
<g id="a_Node000014"><a xlink:href="MathHelpers__utest_8cpp.html" target="_top" xlink:title=" ">
<polygon fill="white" stroke="#666666" points="175.1,-96 16.1,-96 16.1,-66 175.1,-66 175.1,-96"/>
<text text-anchor="start" x="24.1" y="-84" font-family="Helvetica,sans-Serif" font-size="10.00">App/Test/Source/MathHelpers</text>
<text text-anchor="middle" x="95.6" y="-73" font-family="Helvetica,sans-Serif" font-size="10.00">_utest.cpp</text>
</a>
</g>
</g>
<!-- Node13&#45;&gt;Node14 -->
<g id="edge16_Node000013_Node000014" class="edge">
<title>Node13&#45;&gt;Node14</title>
<g id="a_edge16_Node000013_Node000014"><a xlink:title=" ">
<path fill="none" stroke="#63b8ff" d="M558.78,-138.38C469.95,-129.25 318.41,-113.04 188.6,-96 184.23,-95.43 179.75,-94.82 175.23,-94.19"/>
<polygon fill="#63b8ff" stroke="#63b8ff" points="558.46,-141.87 568.77,-139.4 559.17,-134.9 558.46,-141.87"/>
</a>
</g>
</g>
<!-- Node15&#45;&gt;Node3 -->
<g id="edge43_Node000015_Node000003" class="edge">
<title>Node15&#45;&gt;Node3</title>
<g id="a_edge43_Node000015_Node000003"><a xlink:title=" ">
<path fill="none" stroke="#63b8ff" d="M1131.56,-190.62C1113.98,-173.97 1088.46,-150.63 1064.6,-132 1047.99,-119.02 1028.14,-105.72 1013.19,-96.1"/>
<polygon fill="#63b8ff" stroke="#63b8ff" points="1129.38,-193.38 1139.04,-197.76 1134.22,-188.32 1129.38,-193.38"/>
</a>
</g>
</g>
<!-- Node15&#45;&gt;Node4 -->
<g id="edge46_Node000015_Node000004" class="edge">
<title>Node15&#45;&gt;Node4</title>
<g id="a_edge46_Node000015_Node000004"><a xlink:title=" ">
<path fill="none" stroke="#63b8ff" d="M1229.25,-197.9C1423.12,-173.38 1482.19,-219.04 1665.6,-162 1721.88,-144.5 1751.07,-147 1780.6,-96 1793.41,-73.89 1773.76,-46.58 1758.55,-30.27"/>
<polygon fill="#63b8ff" stroke="#63b8ff" points="1228.77,-194.43 1219.31,-199.2 1229.68,-201.37 1228.77,-194.43"/>
</a>
</g>
</g>
<!-- Node15&#45;&gt;Node7 -->
<g id="edge47_Node000015_Node000007" class="edge">
<title>Node15&#45;&gt;Node7</title>
<g id="a_edge47_Node000015_Node000007"><a xlink:title=" ">
<path fill="none" stroke="#63b8ff" d="M1229.23,-197.87C1323.18,-183.71 1364.82,-218.14 1436.6,-162 1461.84,-142.26 1459.02,-127.36 1465.6,-96 1468.34,-82.95 1473.85,-76.48 1465.6,-66 1447.74,-43.3 1374.57,-29.69 1320.26,-22.52"/>
<polygon fill="#63b8ff" stroke="#63b8ff" points="1228.65,-194.41 1219.36,-199.5 1229.8,-201.32 1228.65,-194.41"/>
</a>
</g>
</g>
<!-- Node15&#45;&gt;Node9 -->
<g id="edge44_Node000015_Node000009" class="edge">
<title>Node15&#45;&gt;Node9</title>
<g id="a_edge44_Node000015_Node000009"><a xlink:title=" ">
<path fill="none" stroke="#63b8ff" d="M1077.95,-204.87C1029.77,-198.24 966.99,-185.65 915.6,-162 895.74,-152.86 894.13,-145.08 876.6,-132 856.81,-117.22 833.48,-100.44 819.65,-90.57"/>
<polygon fill="#63b8ff" stroke="#63b8ff" points="1077.63,-208.36 1088,-206.2 1078.54,-201.42 1077.63,-208.36"/>
</a>
</g>
</g>
<!-- Node15&#45;&gt;Node16 -->
<g id="edge21_Node000015_Node000016" class="edge">
<title>Node15&#45;&gt;Node16</title>
<g id="a_edge21_Node000015_Node000016"><a xlink:title=" ">
<path fill="none" stroke="#63b8ff" d="M1077.84,-206.1C917.87,-193.65 548,-164.85 397.3,-153.11"/>
<polygon fill="#63b8ff" stroke="#63b8ff" points="1077.83,-209.61 1088.07,-206.9 1078.37,-202.63 1077.83,-209.61"/>
</a>
</g>
</g>
<!-- Node17 -->
<g id="Node000017" class="node">
<title>Node17</title>
<g id="a_Node000017"><a xlink:href="MeshIntegrity_8h.html" target="_top" xlink:title=" ">
<polygon fill="white" stroke="#666666" points="1657.1,-162 1526.1,-162 1526.1,-132 1657.1,-132 1657.1,-162"/>
<text text-anchor="start" x="1534.1" y="-150" font-family="Helvetica,sans-Serif" font-size="10.00">App/Include/Application</text>
<text text-anchor="middle" x="1591.6" y="-139" font-family="Helvetica,sans-Serif" font-size="10.00">/MeshIntegrity.h</text>
</a>
</g>
</g>
<!-- Node15&#45;&gt;Node17 -->
<g id="edge24_Node000015_Node000017" class="edge">
<title>Node15&#45;&gt;Node17</title>
<g id="a_edge24_Node000015_Node000017"><a xlink:title=" ">
<path fill="none" stroke="#63b8ff" d="M1229.35,-197.78C1354.99,-178.29 1388.99,-180.49 1511.6,-162 1516.21,-161.31 1520.95,-160.56 1525.72,-159.78"/>
<polygon fill="#63b8ff" stroke="#63b8ff" points="1228.67,-194.34 1219.34,-199.35 1229.76,-201.26 1228.67,-194.34"/>
</a>
</g>
</g>
<!-- Node19 -->
<g id="Node000019" class="node">
<title>Node19</title>
<g id="a_Node000019"><a xlink:href="MeshLoader_8h.html" target="_top" xlink:title=" ">
<polygon fill="white" stroke="#666666" points="1428.1,-162 1297.1,-162 1297.1,-132 1428.1,-132 1428.1,-162"/>
<text text-anchor="start" x="1305.1" y="-150" font-family="Helvetica,sans-Serif" font-size="10.00">App/Include/Application</text>
<text text-anchor="middle" x="1362.6" y="-139" font-family="Helvetica,sans-Serif" font-size="10.00">/MeshLoader.h</text>
</a>
</g>
</g>
<!-- Node15&#45;&gt;Node19 -->
<g id="edge29_Node000015_Node000019" class="edge">
<title>Node15&#45;&gt;Node19</title>
<g id="a_edge29_Node000015_Node000019"><a xlink:title=" ">
<path fill="none" stroke="#63b8ff" d="M1209.16,-194.99C1242.79,-184.69 1285.15,-171.72 1316.85,-162.01"/>
<polygon fill="#63b8ff" stroke="#63b8ff" points="1208.01,-191.68 1199.47,-197.95 1210.06,-198.37 1208.01,-191.68"/>
</a>
</g>
</g>
<!-- Node15&#45;&gt;Node20 -->
<g id="edge33_Node000015_Node000020" class="edge">
<title>Node15&#45;&gt;Node20</title>
<g id="a_edge33_Node000015_Node000020"><a xlink:title=" ">
<path fill="none" stroke="#63b8ff" d="M1077.81,-198.18C1015.35,-186.79 927.67,-170.8 868.19,-159.96"/>
<polygon fill="#63b8ff" stroke="#63b8ff" points="1077.53,-201.69 1088,-200.04 1078.79,-194.8 1077.53,-201.69"/>
</a>
</g>
</g>
<!-- Node22 -->
<g id="Node000022" class="node">
<title>Node22</title>
<g id="a_Node000022"><a xlink:href="MeshCirculator_8cpp.html" target="_top" xlink:title=" ">
<polygon fill="white" stroke="#666666" points="1279.1,-156.5 1112.1,-156.5 1112.1,-137.5 1279.1,-137.5 1279.1,-156.5"/>
<text text-anchor="middle" x="1195.6" y="-144.5" font-family="Helvetica,sans-Serif" font-size="10.00">App/Source/MeshCirculator.cpp</text>
</a>
</g>
</g>
<!-- Node15&#45;&gt;Node22 -->
<g id="edge45_Node000015_Node000022" class="edge">
<title>Node15&#45;&gt;Node22</title>
<g id="a_edge45_Node000015_Node000022"><a xlink:title=" ">
<path fill="none" stroke="#63b8ff" d="M1168.51,-189.28C1175.87,-178.07 1184.32,-165.19 1189.8,-156.84"/>
<polygon fill="#63b8ff" stroke="#63b8ff" points="1165.49,-187.52 1162.93,-197.8 1171.34,-191.36 1165.49,-187.52"/>
</a>
</g>
</g>
<!-- Node16&#45;&gt;Node5 -->
<g id="edge23_Node000016_Node000005" class="edge">
<title>Node16&#45;&gt;Node5</title>
<g id="a_edge23_Node000016_Node000005"><a xlink:title=" ">
<path fill="none" stroke="#63b8ff" d="M255.58,-145.29C169.79,-142.69 38.04,-132.64 6.6,-96 -2.08,-85.88 -2.29,-75.93 6.6,-66 30.78,-39 252.83,-25.01 376.45,-19.26"/>
<polygon fill="#63b8ff" stroke="#63b8ff" points="255.72,-148.8 265.81,-145.57 255.91,-141.8 255.72,-148.8"/>
</a>
</g>
</g>
<!-- Node16&#45;&gt;Node10 -->
<g id="edge22_Node000016_Node000010" class="edge">
<title>Node16&#45;&gt;Node10</title>
<g id="a_edge22_Node000016_Node000010"><a xlink:title=" ">
<path fill="none" stroke="#63b8ff" d="M324.09,-121.94C320.68,-111.06 316.87,-98.86 314.37,-90.84"/>
<polygon fill="#63b8ff" stroke="#63b8ff" points="320.84,-123.3 327.17,-131.8 327.52,-121.21 320.84,-123.3"/>
</a>
</g>
</g>
<!-- Node17&#45;&gt;Node6 -->
<g id="edge26_Node000017_Node000006" class="edge">
<title>Node17&#45;&gt;Node6</title>
<g id="a_edge26_Node000017_Node000006"><a xlink:title=" ">
<path fill="none" stroke="#63b8ff" d="M1584.95,-122.13C1579.56,-105.41 1570.84,-83.1 1558.6,-66 1548.57,-51.98 1533.88,-39.21 1521.93,-30.09"/>
<polygon fill="#63b8ff" stroke="#63b8ff" points="1581.61,-123.18 1587.88,-131.72 1588.31,-121.13 1581.61,-123.18"/>
</a>
</g>
</g>
<!-- Node17&#45;&gt;Node7 -->
<g id="edge28_Node000017_Node000007" class="edge">
<title>Node17&#45;&gt;Node7</title>
<g id="a_edge28_Node000017_Node000007"><a xlink:title=" ">
<path fill="none" stroke="#63b8ff" d="M1577.72,-123.43C1565.14,-104.99 1544.89,-79.8 1520.6,-66 1487.14,-46.98 1386.64,-31.58 1320.29,-23.12"/>
<polygon fill="#63b8ff" stroke="#63b8ff" points="1574.85,-125.43 1583.26,-131.86 1580.69,-121.58 1574.85,-125.43"/>
</a>
</g>
</g>
<!-- Node17&#45;&gt;Node12 -->
<g id="edge27_Node000017_Node000012" class="edge">
<title>Node17&#45;&gt;Node12</title>
<g id="a_edge27_Node000017_Node000012"><a xlink:title=" ">
<path fill="none" stroke="#63b8ff" d="M1515.91,-134.96C1436.18,-123.34 1311.25,-105.13 1230.65,-93.38"/>
<polygon fill="#63b8ff" stroke="#63b8ff" points="1515.48,-138.44 1525.88,-136.42 1516.49,-131.51 1515.48,-138.44"/>
</a>
</g>
</g>
<!-- Node18 -->
<g id="Node000018" class="node">
<title>Node18</title>
<g id="a_Node000018"><a xlink:href="MeshIntegrity_8cpp.html" target="_top" xlink:title=" ">
<polygon fill="white" stroke="#666666" points="1772.1,-90.5 1611.1,-90.5 1611.1,-71.5 1772.1,-71.5 1772.1,-90.5"/>
<text text-anchor="middle" x="1691.6" y="-78.5" font-family="Helvetica,sans-Serif" font-size="10.00">App/Source/MeshIntegrity.cpp</text>
</a>
</g>
</g>
<!-- Node17&#45;&gt;Node18 -->
<g id="edge25_Node000017_Node000018" class="edge">
<title>Node17&#45;&gt;Node18</title>
<g id="a_edge25_Node000017_Node000018"><a xlink:title=" ">
<path fill="none" stroke="#63b8ff" d="M1622.29,-126.36C1640.94,-114.42 1663.84,-99.77 1678.08,-90.66"/>
<polygon fill="#63b8ff" stroke="#63b8ff" points="1620.33,-123.46 1613.8,-131.8 1624.11,-129.35 1620.33,-123.46"/>
</a>
</g>
</g>
<!-- Node19&#45;&gt;Node7 -->
<g id="edge32_Node000019_Node000007" class="edge">
<title>Node19&#45;&gt;Node7</title>
<g id="a_edge32_Node000019_Node000007"><a xlink:title=" ">
<path fill="none" stroke="#63b8ff" d="M1414.31,-127.25C1427.86,-119.71 1440.83,-109.51 1448.6,-96 1455.25,-84.44 1456.74,-76.56 1448.6,-66 1432.88,-45.6 1369.6,-31.87 1320.34,-24.04"/>
<polygon fill="#63b8ff" stroke="#63b8ff" points="1412.67,-124.15 1405.37,-131.83 1415.87,-130.38 1412.67,-124.15"/>
</a>
</g>
</g>
<!-- Node19&#45;&gt;Node11 -->
<g id="edge30_Node000019_Node000011" class="edge">
<title>Node19&#45;&gt;Node11</title>
<g id="a_edge30_Node000019_Node000011"><a xlink:title=" ">
<path fill="none" stroke="#63b8ff" d="M1362.99,-121.6C1363.15,-110.8 1363.34,-98.78 1363.47,-90.84"/>
<polygon fill="#63b8ff" stroke="#63b8ff" points="1359.48,-121.74 1362.83,-131.8 1366.48,-121.85 1359.48,-121.74"/>
</a>
</g>
</g>
<!-- Node19&#45;&gt;Node12 -->
<g id="edge31_Node000019_Node000012" class="edge">
<title>Node19&#45;&gt;Node12</title>
<g id="a_edge31_Node000019_Node000012"><a xlink:title=" ">
<path fill="none" stroke="#63b8ff" d="M1306.79,-128.99C1273,-118.69 1230.43,-105.72 1198.58,-96.01"/>
<polygon fill="#63b8ff" stroke="#63b8ff" points="1305.93,-132.39 1316.52,-131.95 1307.97,-125.69 1305.93,-132.39"/>
</a>
</g>
</g>
<!-- Node20&#45;&gt;Node3 -->
<g id="edge34_Node000020_Node000003" class="edge">
<title>Node20&#45;&gt;Node3</title>
<g id="a_edge34_Node000020_Node000003"><a xlink:title=" ">
<path fill="none" stroke="#63b8ff" d="M853.35,-128.72C883.48,-118.47 921.18,-105.63 949.44,-96.01"/>
<polygon fill="#63b8ff" stroke="#63b8ff" points="852.2,-125.42 843.86,-131.95 854.46,-132.05 852.2,-125.42"/>
</a>
</g>
</g>
<!-- Node20&#45;&gt;Node5 -->
<g id="edge39_Node000020_Node000005" class="edge">
<title>Node20&#45;&gt;Node5</title>
<g id="a_edge39_Node000020_Node000005"><a xlink:title=" ">
<path fill="none" stroke="#63b8ff" d="M726.81,-134.6C631.14,-120.18 478.76,-97.06 477.6,-96 459.35,-79.16 457.13,-48.25 457.58,-30.18"/>
<polygon fill="#63b8ff" stroke="#63b8ff" points="726.33,-138.07 736.74,-136.1 727.38,-131.15 726.33,-138.07"/>
</a>
</g>
</g>
<!-- Node20&#45;&gt;Node7 -->
<g id="edge41_Node000020_Node000007" class="edge">
<title>Node20&#45;&gt;Node7</title>
<g id="a_edge41_Node000020_Node000007"><a xlink:title=" ">
<path fill="none" stroke="#63b8ff" d="M768.82,-126.23C744.76,-109.72 719.63,-85.79 737.6,-66 767.97,-32.58 1065.22,-20.92 1196.65,-17.37"/>
<polygon fill="#63b8ff" stroke="#63b8ff" points="766.93,-129.17 777.21,-131.74 770.77,-123.32 766.93,-129.17"/>
</a>
</g>
</g>
<!-- Node20&#45;&gt;Node8 -->
<g id="edge42_Node000020_Node000008" class="edge">
<title>Node20&#45;&gt;Node8</title>
<g id="a_edge42_Node000020_Node000008"><a xlink:title=" ">
<path fill="none" stroke="#63b8ff" d="M741.77,-127.7C727.1,-120.28 713.2,-110.03 704.6,-96 697.64,-84.63 697.04,-76.98 704.6,-66 718.55,-45.75 741.88,-33.7 765.02,-26.52"/>
<polygon fill="#63b8ff" stroke="#63b8ff" points="740.41,-130.93 750.96,-131.97 743.36,-124.58 740.41,-130.93"/>
</a>
</g>
</g>
<!-- Node20&#45;&gt;Node9 -->
<g id="edge35_Node000020_Node000009" class="edge">
<title>Node20&#45;&gt;Node9</title>
<g id="a_edge35_Node000020_Node000009"><a xlink:title=" ">
<path fill="none" stroke="#63b8ff" d="M804.51,-121.6C805.35,-110.8 806.29,-98.78 806.91,-90.84"/>
<polygon fill="#63b8ff" stroke="#63b8ff" points="801,-121.55 803.71,-131.8 807.98,-122.1 801,-121.55"/>
</a>
</g>
</g>
<!-- Node20&#45;&gt;Node10 -->
<g id="edge36_Node000020_Node000010" class="edge">
<title>Node20&#45;&gt;Node10</title>
<g id="a_edge36_Node000020_Node000010"><a xlink:title=" ">
<path fill="none" stroke="#63b8ff" d="M726.63,-134.54C720.54,-133.66 714.47,-132.81 708.6,-132 594.88,-116.37 462.55,-100.09 383.03,-90.5"/>
<polygon fill="#63b8ff" stroke="#63b8ff" points="726.49,-138.05 736.89,-136.02 727.5,-131.12 726.49,-138.05"/>
</a>
</g>
</g>
<!-- Node20&#45;&gt;Node11 -->
<g id="edge37_Node000020_Node000011" class="edge">
<title>Node20&#45;&gt;Node11</title>
<g id="a_edge37_Node000020_Node000011"><a xlink:title=" ">
<path fill="none" stroke="#63b8ff" d="M878.61,-136.45C890.97,-134.94 903.64,-133.41 915.6,-132 1059.5,-115.09 1095.62,-112.13 1239.6,-96 1255.32,-94.24 1272.16,-92.34 1288.2,-90.54"/>
<polygon fill="#63b8ff" stroke="#63b8ff" points="877.81,-133.02 868.32,-137.72 878.67,-139.97 877.81,-133.02"/>
</a>
</g>
</g>
<!-- Node20&#45;&gt;Node12 -->
<g id="edge40_Node000020_Node000012" class="edge">
<title>Node20&#45;&gt;Node12</title>
<g id="a_edge40_Node000020_Node000012"><a xlink:title=" ">
<path fill="none" stroke="#63b8ff" d="M878.34,-132.15C936.72,-121.48 1017.13,-106.77 1075.79,-96.05"/>
<polygon fill="#63b8ff" stroke="#63b8ff" points="877.64,-128.72 868.44,-133.96 878.9,-135.61 877.64,-128.72"/>
</a>
</g>
</g>
<!-- Node21 -->
<g id="Node000021" class="node">
<title>Node21</title>
<g id="a_Node000021"><a xlink:href="PrimitiveProxy_8cpp.html" target="_top" xlink:title=" ">
<polygon fill="white" stroke="#666666" points="652.1,-90.5 487.1,-90.5 487.1,-71.5 652.1,-71.5 652.1,-90.5"/>
<text text-anchor="middle" x="569.6" y="-78.5" font-family="Helvetica,sans-Serif" font-size="10.00">App/Source/PrimitiveProxy.cpp</text>
</a>
</g>
</g>
<!-- Node20&#45;&gt;Node21 -->
<g id="edge38_Node000020_Node000021" class="edge">
<title>Node20&#45;&gt;Node21</title>
<g id="a_edge38_Node000020_Node000021"><a xlink:title=" ">
<path fill="none" stroke="#63b8ff" d="M741.75,-129.29C696.46,-116.84 636.5,-100.37 600.61,-90.52"/>
<polygon fill="#63b8ff" stroke="#63b8ff" points="740.9,-132.68 751.47,-131.95 742.76,-125.93 740.9,-132.68"/>
</a>
</g>
</g>
<!-- Node23&#45;&gt;Node15 -->
<g id="edge50_Node000023_Node000015" class="edge">
<title>Node23&#45;&gt;Node15</title>
<g id="a_edge50_Node000023_Node000015"><a xlink:title=" ">
<path fill="none" stroke="#63b8ff" d="M1263.7,-260.05C1239.46,-249.91 1209.61,-237.43 1187.1,-228.01"/>
<polygon fill="#63b8ff" stroke="#63b8ff" points="1262.45,-263.32 1273.03,-263.95 1265.15,-256.87 1262.45,-263.32"/>
</a>
</g>
</g>
<!-- Node24 -->
<g id="Node000024" class="node">
<title>Node24</title>
<g id="a_Node000024"><a xlink:href="VertexPair_8h.html" target="_top" xlink:title=" ">
<polygon fill="white" stroke="#666666" points="1907.1,-162 1776.1,-162 1776.1,-132 1907.1,-132 1907.1,-162"/>
<text text-anchor="start" x="1784.1" y="-150" font-family="Helvetica,sans-Serif" font-size="10.00">App/Include/Application</text>
<text text-anchor="middle" x="1841.6" y="-139" font-family="Helvetica,sans-Serif" font-size="10.00">/VertexPair.h</text>
</a>
</g>
</g>
<!-- Node23&#45;&gt;Node24 -->
<g id="edge51_Node000023_Node000024" class="edge">
<title>Node23&#45;&gt;Node24</title>
<g id="a_edge51_Node000023_Node000024"><a xlink:title=" ">
<path fill="none" stroke="#63b8ff" d="M1382.24,-263.13C1428.89,-253.69 1489.88,-240.87 1543.6,-228 1631.77,-206.88 1733.61,-178.72 1792.51,-162.06"/>
<polygon fill="#63b8ff" stroke="#63b8ff" points="1381.32,-259.75 1372.21,-265.16 1382.7,-266.61 1381.32,-259.75"/>
</a>
</g>
</g>
<!-- Node27 -->
<g id="Node000027" class="node">
<title>Node27</title>
<g id="a_Node000027"><a xlink:href="Primitive_8cpp.html" target="_top" xlink:title=" ">
<polygon fill="white" stroke="#666666" points="1376.1,-222.5 1237.1,-222.5 1237.1,-203.5 1376.1,-203.5 1376.1,-222.5"/>
<text text-anchor="middle" x="1306.6" y="-210.5" font-family="Helvetica,sans-Serif" font-size="10.00">App/Source/Primitive.cpp</text>
</a>
</g>
</g>
<!-- Node23&#45;&gt;Node27 -->
<g id="edge56_Node000023_Node000027" class="edge">
<title>Node23&#45;&gt;Node27</title>
<g id="a_edge56_Node000023_Node000027"><a xlink:title=" ">
<path fill="none" stroke="#63b8ff" d="M1306.6,-253.6C1306.6,-242.8 1306.6,-230.78 1306.6,-222.84"/>
<polygon fill="#63b8ff" stroke="#63b8ff" points="1303.1,-253.8 1306.6,-263.8 1310.1,-253.8 1303.1,-253.8"/>
</a>
</g>
</g>
<!-- Node28 -->
<g id="Node000028" class="node">
<title>Node28</title>
<g id="a_Node000028"><a xlink:href="Primitive__utest_8cpp.html" target="_top" xlink:title=" ">
<polygon fill="white" stroke="#666666" points="1535.1,-228 1394.1,-228 1394.1,-198 1535.1,-198 1535.1,-228"/>
<text text-anchor="start" x="1402.1" y="-216" font-family="Helvetica,sans-Serif" font-size="10.00">App/Test/Source/Primitive</text>
<text text-anchor="middle" x="1464.6" y="-205" font-family="Helvetica,sans-Serif" font-size="10.00">_utest.cpp</text>
</a>
</g>
</g>
<!-- Node23&#45;&gt;Node28 -->
<g id="edge57_Node000023_Node000028" class="edge">
<title>Node23&#45;&gt;Node28</title>
<g id="a_edge57_Node000023_Node000028"><a xlink:title=" ">
<path fill="none" stroke="#63b8ff" d="M1350.58,-260.19C1375.67,-250.02 1406.67,-237.47 1430.01,-228.01"/>
<polygon fill="#63b8ff" stroke="#63b8ff" points="1349.23,-256.96 1341.28,-263.95 1351.86,-263.44 1349.23,-256.96"/>
</a>
</g>
</g>
<!-- Node24&#45;&gt;Node9 -->
<g id="edge52_Node000024_Node000009" class="edge">
<title>Node24&#45;&gt;Node9</title>
<g id="a_edge52_Node000024_Node000009"><a xlink:title=" ">
<path fill="none" stroke="#63b8ff" d="M1765.72,-139.44C1734.7,-136.89 1698.45,-134.09 1665.6,-132 1332.56,-110.77 1248.02,-125.47 915.6,-96 899.69,-94.59 882.52,-92.58 866.65,-90.53"/>
<polygon fill="#63b8ff" stroke="#63b8ff" points="1765.78,-142.96 1776.03,-140.29 1766.35,-135.98 1765.78,-142.96"/>
</a>
</g>
</g>
<!-- Node24&#45;&gt;Node11 -->
<g id="edge53_Node000024_Node000011" class="edge">
<title>Node24&#45;&gt;Node11</title>
<g id="a_edge53_Node000024_Node000011"><a xlink:title=" ">
<path fill="none" stroke="#63b8ff" d="M1765.94,-135.87C1672.46,-123.35 1515.1,-102.28 1427.44,-90.55"/>
<polygon fill="#63b8ff" stroke="#63b8ff" points="1765.52,-139.34 1775.89,-137.2 1766.45,-132.41 1765.52,-139.34"/>
</a>
</g>
</g>
<!-- Node25 -->
<g id="Node000025" class="node">
<title>Node25</title>
<g id="a_Node000025"><a xlink:href="VertexPair_8cpp.html" target="_top" xlink:title=" ">
<polygon fill="white" stroke="#666666" points="1972.1,-90.5 1829.1,-90.5 1829.1,-71.5 1972.1,-71.5 1972.1,-90.5"/>
<text text-anchor="middle" x="1900.6" y="-78.5" font-family="Helvetica,sans-Serif" font-size="10.00">App/Source/VertexPair.cpp</text>
</a>
</g>
</g>
<!-- Node24&#45;&gt;Node25 -->
<g id="edge54_Node000024_Node000025" class="edge">
<title>Node24&#45;&gt;Node25</title>
<g id="a_edge54_Node000024_Node000025"><a xlink:title=" ">
<path fill="none" stroke="#63b8ff" d="M1861.63,-124.27C1872.18,-112.84 1884.53,-99.44 1892.45,-90.84"/>
<polygon fill="#63b8ff" stroke="#63b8ff" points="1858.9,-122.07 1854.7,-131.8 1864.05,-126.82 1858.9,-122.07"/>
</a>
</g>
</g>
<!-- Node26 -->
<g id="Node000026" class="node">
<title>Node26</title>
<g id="a_Node000026"><a xlink:href="VertexPair__utest_8cpp.html" target="_top" xlink:title=" ">
<polygon fill="white" stroke="#666666" points="2136.6,-96 1990.6,-96 1990.6,-66 2136.6,-66 2136.6,-96"/>
<text text-anchor="start" x="1998.6" y="-84" font-family="Helvetica,sans-Serif" font-size="10.00">App/Test/Source/VertexPair</text>
<text text-anchor="middle" x="2063.6" y="-73" font-family="Helvetica,sans-Serif" font-size="10.00">_utest.cpp</text>
</a>
</g>
</g>
<!-- Node24&#45;&gt;Node26 -->
<g id="edge55_Node000024_Node000026" class="edge">
<title>Node24&#45;&gt;Node26</title>
<g id="a_edge55_Node000024_Node000026"><a xlink:title=" ">
<path fill="none" stroke="#63b8ff" d="M1900.15,-129.12C1935.95,-118.8 1981.19,-105.76 2015,-96.01"/>
<polygon fill="#63b8ff" stroke="#63b8ff" points="1898.96,-125.82 1890.32,-131.95 1900.9,-132.55 1898.96,-125.82"/>
</a>
</g>
</g>
<!-- Node30 -->
<g id="Node000030" class="node">
<title>Node30</title>
<g id="a_Node000030"><a xlink:href="AppLayer_8cpp.html" target="_top" xlink:title=" ">
<polygon fill="white" stroke="#666666" points="2236.6,-156.5 2096.6,-156.5 2096.6,-137.5 2236.6,-137.5 2236.6,-156.5"/>
<text text-anchor="middle" x="2166.6" y="-144.5" font-family="Helvetica,sans-Serif" font-size="10.00">App/Source/AppLayer.cpp</text>
</a>
</g>
</g>
<!-- Node29&#45;&gt;Node30 -->
<g id="edge61_Node000029_Node000030" class="edge">
<title>Node29&#45;&gt;Node30</title>
<g id="a_edge61_Node000029_Node000030"><a xlink:title=" ">
<path fill="none" stroke="#63b8ff" d="M2033.38,-199.68C2065.98,-187.03 2115.87,-167.68 2144.44,-156.6"/>
<polygon fill="#63b8ff" stroke="#63b8ff" points="2031.91,-196.49 2023.86,-203.37 2034.45,-203.02 2031.91,-196.49"/>
</a>
</g>
</g>
<!-- Node31 -->
<g id="Node000031" class="node">
<title>Node31</title>
<g id="a_Node000031"><a xlink:href="RunApp_8cpp.html" target="_top" xlink:title=" ">
<polygon fill="white" stroke="#666666" points="2386.6,-156.5 2254.6,-156.5 2254.6,-137.5 2386.6,-137.5 2386.6,-156.5"/>
<text text-anchor="middle" x="2320.6" y="-144.5" font-family="Helvetica,sans-Serif" font-size="10.00">App/Source/RunApp.cpp</text>
</a>
</g>
</g>
<!-- Node29&#45;&gt;Node31 -->
<g id="edge62_Node000029_Node000031" class="edge">
<title>Node29&#45;&gt;Node31</title>
<g id="a_edge62_Node000029_Node000031"><a xlink:title=" ">
<path fill="none" stroke="#63b8ff" d="M2054.37,-201.41C2117.06,-188.84 2220.4,-168.1 2278.17,-156.51"/>
<polygon fill="#63b8ff" stroke="#63b8ff" points="2053.41,-198.04 2044.3,-203.44 2054.79,-204.9 2053.41,-198.04"/>
</a>
</g>
</g>
<!-- Node32 -->
<g id="Node000032" class="node">
<title>Node32</title>
<g id="a_Node000032"><a xlink:href="Application_8cpp.html" target="_top" xlink:title=" ">
<polygon fill="white" stroke="#666666" points="2078.1,-156.5 1925.1,-156.5 1925.1,-137.5 2078.1,-137.5 2078.1,-156.5"/>
<text text-anchor="middle" x="2001.6" y="-144.5" font-family="Helvetica,sans-Serif" font-size="10.00">Core/Source/Application.cpp</text>
</a>
</g>
</g>
<!-- Node29&#45;&gt;Node32 -->
<g id="edge63_Node000029_Node000032" class="edge">
<title>Node29&#45;&gt;Node32</title>
<g id="a_edge63_Node000029_Node000032"><a xlink:title=" ">
<path fill="none" stroke="#63b8ff" d="M2001.6,-193.08C2001.6,-181.13 2001.6,-166.22 2001.6,-156.91"/>
<polygon fill="#63b8ff" stroke="#63b8ff" points="1998.1,-193.37 2001.6,-203.37 2005.1,-193.37 1998.1,-193.37"/>
</a>
</g>
</g>
<!-- Node33&#45;&gt;Node29 -->
<g id="edge65_Node000033_Node000029" class="edge">
<title>Node33&#45;&gt;Node29</title>
<g id="a_edge65_Node000033_Node000029"><a xlink:title=" ">
<path fill="none" stroke="#63b8ff" d="M2001.6,-259.08C2001.6,-247.13 2001.6,-232.22 2001.6,-222.91"/>
<polygon fill="#63b8ff" stroke="#63b8ff" points="1998.1,-259.37 2001.6,-269.37 2005.1,-259.37 1998.1,-259.37"/>
</a>
</g>
</g>
<!-- Node34 -->
<g id="Node000034" class="node">
<title>Node34</title>
<g id="a_Node000034"><a xlink:href="Window_8cpp.html" target="_top" xlink:title=" ">
<polygon fill="white" stroke="#666666" points="2242.1,-222.5 2105.1,-222.5 2105.1,-203.5 2242.1,-203.5 2242.1,-222.5"/>
<text text-anchor="middle" x="2173.6" y="-210.5" font-family="Helvetica,sans-Serif" font-size="10.00">Core/Source/Window.cpp</text>
</a>
</g>
</g>
<!-- Node33&#45;&gt;Node34 -->
<g id="edge66_Node000033_Node000034" class="edge">
<title>Node33&#45;&gt;Node34</title>
<g id="a_edge66_Node000033_Node000034"><a xlink:title=" ">
<path fill="none" stroke="#63b8ff" d="M2034.29,-265.84C2068.27,-253.2 2120.59,-233.73 2150.5,-222.6"/>
<polygon fill="#63b8ff" stroke="#63b8ff" points="2032.95,-262.6 2024.8,-269.37 2035.39,-269.16 2032.95,-262.6"/>
</a>
</g>
</g>
</g>
</svg>
