<?xml version="1.0" encoding="UTF-8" standalone="no"?>
<!DOCTYPE svg PUBLIC "-//W3C//DTD SVG 1.1//EN"
 "http://www.w3.org/Graphics/SVG/1.1/DTD/svg11.dtd">
<!-- Generated by graphviz version 2.43.0 (0)
 -->
<!-- Title: Core/Include/Core/BaseType.h Pages: 1 -->
<svg width="2141pt" height="357pt"
 viewBox="0.00 0.00 2141.11 357.00" xmlns="http://www.w3.org/2000/svg" xmlns:xlink="http://www.w3.org/1999/xlink">
<g id="graph0" class="graph" transform="scale(1 1) rotate(0) translate(4 353)">
<title>Core/Include/Core/BaseType.h</title>
<!-- Node1 -->
<g id="Node000001" class="node">
<title>Node1</title>
<g id="a_Node000001"><a xlink:title=" ">
<polygon fill="#999999" stroke="#666666" points="827.11,-349 666.11,-349 666.11,-330 827.11,-330 827.11,-349"/>
<text text-anchor="middle" x="746.61" y="-337" font-family="Helvetica,sans-Serif" font-size="10.00">Core/Include/Core/BaseType.h</text>
</a>
</g>
</g>
<!-- Node2 -->
<g id="Node000002" class="node">
<title>Node2</title>
<g id="a_Node000002"><a xlink:href="ExtraDataType_8h.html" target="_top" xlink:title=" ">
<polygon fill="white" stroke="#666666" points="812.11,-162 681.11,-162 681.11,-132 812.11,-132 812.11,-162"/>
<text text-anchor="start" x="689.11" y="-150" font-family="Helvetica,sans-Serif" font-size="10.00">App/Include/Application</text>
<text text-anchor="middle" x="746.61" y="-139" font-family="Helvetica,sans-Serif" font-size="10.00">/ExtraDataType.h</text>
</a>
</g>
</g>
<!-- Node1&#45;&gt;Node2 -->
<g id="edge1_Node000001_Node000002" class="edge">
<title>Node1&#45;&gt;Node2</title>
<g id="a_edge1_Node000001_Node000002"><a xlink:title=" ">
<path fill="none" stroke="#63b8ff" d="M746.61,-319.6C746.61,-281.44 746.61,-195.91 746.61,-162.12"/>
<polygon fill="#63b8ff" stroke="#63b8ff" points="743.11,-319.82 746.61,-329.82 750.11,-319.82 743.11,-319.82"/>
</a>
</g>
</g>
<!-- Node10 -->
<g id="Node000010" class="node">
<title>Node10</title>
<g id="a_Node000010"><a xlink:href="MeshExporter_8cpp.html" target="_top" xlink:title=" ">
<polygon fill="white" stroke="#666666" points="177.11,-90.5 16.11,-90.5 16.11,-71.5 177.11,-71.5 177.11,-90.5"/>
<text text-anchor="middle" x="96.61" y="-78.5" font-family="Helvetica,sans-Serif" font-size="10.00">App/Source/MeshExporter.cpp</text>
</a>
</g>
</g>
<!-- Node1&#45;&gt;Node10 -->
<g id="edge59_Node000001_Node000010" class="edge">
<title>Node1&#45;&gt;Node10</title>
<g id="a_edge59_Node000001_Node000010"><a xlink:title=" ">
<path fill="none" stroke="#63b8ff" d="M701.93,-327.41C669.63,-319.06 625.09,-306.89 586.61,-294 434.87,-243.16 397.34,-228.12 251.61,-162 199.48,-138.35 139.84,-106.02 112.19,-90.71"/>
<polygon fill="#63b8ff" stroke="#63b8ff" points="701.4,-330.88 711.96,-329.98 703.14,-324.1 701.4,-330.88"/>
</a>
</g>
</g>
<!-- Node13 -->
<g id="Node000013" class="node">
<title>Node13</title>
<g id="a_Node000013"><a xlink:href="MathHelpers_8h.html" target="_top" xlink:title=" ">
<polygon fill="white" stroke="#666666" points="1560.11,-162 1429.11,-162 1429.11,-132 1560.11,-132 1560.11,-162"/>
<text text-anchor="start" x="1437.11" y="-150" font-family="Helvetica,sans-Serif" font-size="10.00">App/Include/Application</text>
<text text-anchor="middle" x="1494.61" y="-139" font-family="Helvetica,sans-Serif" font-size="10.00">/MathHelpers.h</text>
</a>
</g>
</g>
<!-- Node1&#45;&gt;Node13 -->
<g id="edge14_Node000001_Node000013" class="edge">
<title>Node1&#45;&gt;Node13</title>
<g id="a_edge14_Node000001_Node000013"><a xlink:title=" ">
<path fill="none" stroke="#63b8ff" d="M771.73,-324.99C831.94,-292.86 983.56,-213.38 1038.61,-198 1198.58,-153.3 1245.92,-183.67 1410.61,-162 1416.62,-161.21 1422.85,-160.31 1429.1,-159.36"/>
<polygon fill="#63b8ff" stroke="#63b8ff" points="769.72,-322.1 762.56,-329.9 773.03,-328.27 769.72,-322.1"/>
</a>
</g>
</g>
<!-- Node15 -->
<g id="Node000015" class="node">
<title>Node15</title>
<g id="a_Node000015"><a xlink:href="Mesh_8h.html" target="_top" xlink:title=" ">
<polygon fill="white" stroke="#666666" points="938.11,-228 807.11,-228 807.11,-198 938.11,-198 938.11,-228"/>
<text text-anchor="start" x="815.11" y="-216" font-family="Helvetica,sans-Serif" font-size="10.00">App/Include/Application</text>
<text text-anchor="middle" x="872.61" y="-205" font-family="Helvetica,sans-Serif" font-size="10.00">/Mesh.h</text>
</a>
</g>
</g>
<!-- Node1&#45;&gt;Node15 -->
<g id="edge20_Node000001_Node000015" class="edge">
<title>Node1&#45;&gt;Node15</title>
<g id="a_edge20_Node000001_Node000015"><a xlink:title=" ">
<path fill="none" stroke="#63b8ff" d="M762.43,-322.86C787.15,-298.44 834.52,-251.64 858.27,-228.16"/>
<polygon fill="#63b8ff" stroke="#63b8ff" points="759.92,-320.42 755.27,-329.94 764.84,-325.4 759.92,-320.42"/>
</a>
</g>
</g>
<!-- Node16 -->
<g id="Node000016" class="node">
<title>Node16</title>
<g id="a_Node000016"><a xlink:href="MeshExporter_8h.html" target="_top" xlink:title=" ">
<polygon fill="white" stroke="#666666" points="392.11,-162 261.11,-162 261.11,-132 392.11,-132 392.11,-162"/>
<text text-anchor="start" x="269.11" y="-150" font-family="Helvetica,sans-Serif" font-size="10.00">App/Include/Application</text>
<text text-anchor="middle" x="326.61" y="-139" font-family="Helvetica,sans-Serif" font-size="10.00">/MeshExporter.h</text>
</a>
</g>
</g>
<!-- Node1&#45;&gt;Node16 -->
<g id="edge48_Node000001_Node000016" class="edge">
<title>Node1&#45;&gt;Node16</title>
<g id="a_edge48_Node000001_Node000016"><a xlink:title=" ">
<path fill="none" stroke="#63b8ff" d="M718.37,-325.7C642.77,-291.4 436.11,-197.67 357.51,-162.02"/>
<polygon fill="#63b8ff" stroke="#63b8ff" points="717.19,-329 727.74,-329.94 720.08,-322.63 717.19,-329"/>
</a>
</g>
</g>
<!-- Node20 -->
<g id="Node000020" class="node">
<title>Node20</title>
<g id="a_Node000020"><a xlink:href="PrimitiveProxy_8h.html" target="_top" xlink:title=" ">
<polygon fill="white" stroke="#666666" points="586.11,-162 455.11,-162 455.11,-132 586.11,-132 586.11,-162"/>
<text text-anchor="start" x="463.11" y="-150" font-family="Helvetica,sans-Serif" font-size="10.00">App/Include/Application</text>
<text text-anchor="middle" x="520.61" y="-139" font-family="Helvetica,sans-Serif" font-size="10.00">/PrimitiveProxy.h</text>
</a>
</g>
</g>
<!-- Node1&#45;&gt;Node20 -->
<g id="edge58_Node000001_Node000020" class="edge">
<title>Node1&#45;&gt;Node20</title>
<g id="a_edge58_Node000001_Node000020"><a xlink:title=" ">
<path fill="none" stroke="#63b8ff" d="M728.4,-323.15C685.53,-287.02 578.74,-197 537.36,-162.12"/>
<polygon fill="#63b8ff" stroke="#63b8ff" points="726.41,-326.05 736.31,-329.82 730.92,-320.7 726.41,-326.05"/>
</a>
</g>
</g>
<!-- Node23 -->
<g id="Node000023" class="node">
<title>Node23</title>
<g id="a_Node000023"><a xlink:href="Primitive_8h.html" target="_top" xlink:title=" ">
<polygon fill="white" stroke="#666666" points="1126.11,-294 995.11,-294 995.11,-264 1126.11,-264 1126.11,-294"/>
<text text-anchor="start" x="1003.11" y="-282" font-family="Helvetica,sans-Serif" font-size="10.00">App/Include/Application</text>
<text text-anchor="middle" x="1060.61" y="-271" font-family="Helvetica,sans-Serif" font-size="10.00">/Primitive.h</text>
</a>
</g>
</g>
<!-- Node1&#45;&gt;Node23 -->
<g id="edge49_Node000001_Node000023" class="edge">
<title>Node1&#45;&gt;Node23</title>
<g id="a_edge49_Node000001_Node000023"><a xlink:title=" ">
<path fill="none" stroke="#63b8ff" d="M802.32,-328.12C856.22,-318.08 937.89,-302.86 994.92,-292.24"/>
<polygon fill="#63b8ff" stroke="#63b8ff" points="801.45,-324.72 792.26,-329.99 802.74,-331.6 801.45,-324.72"/>
</a>
</g>
</g>
<!-- Node3 -->
<g id="Node000003" class="node">
<title>Node3</title>
<g id="a_Node000003"><a xlink:href="TestHelpers_8h.html" target="_top" xlink:title=" ">
<polygon fill="white" stroke="#666666" points="586.11,-96 455.11,-96 455.11,-66 586.11,-66 586.11,-96"/>
<text text-anchor="start" x="463.11" y="-84" font-family="Helvetica,sans-Serif" font-size="10.00">App/Include/Application</text>
<text text-anchor="middle" x="520.61" y="-73" font-family="Helvetica,sans-Serif" font-size="10.00">/TestHelpers.h</text>
</a>
</g>
</g>
<!-- Node2&#45;&gt;Node3 -->
<g id="edge2_Node000002_Node000003" class="edge">
<title>Node2&#45;&gt;Node3</title>
<g id="a_edge2_Node000002_Node000003"><a xlink:title=" ">
<path fill="none" stroke="#63b8ff" d="M687,-129.12C650.56,-118.8 604.5,-105.76 570.09,-96.01"/>
<polygon fill="#63b8ff" stroke="#63b8ff" points="686.43,-132.6 697.01,-131.95 688.34,-125.86 686.43,-132.6"/>
</a>
</g>
</g>
<!-- Node5 -->
<g id="Node000005" class="node">
<title>Node5</title>
<g id="a_Node000005"><a xlink:href="MeshExporter__utest_8cpp.html" target="_top" xlink:title=" ">
<polygon fill="white" stroke="#666666" points="549.61,-30 385.61,-30 385.61,0 549.61,0 549.61,-30"/>
<text text-anchor="start" x="393.61" y="-18" font-family="Helvetica,sans-Serif" font-size="10.00">App/Test/Source/MeshExporter</text>
<text text-anchor="middle" x="467.61" y="-7" font-family="Helvetica,sans-Serif" font-size="10.00">_utest.cpp</text>
</a>
</g>
</g>
<!-- Node2&#45;&gt;Node5 -->
<g id="edge11_Node000002_Node000005" class="edge">
<title>Node2&#45;&gt;Node5</title>
<g id="a_edge11_Node000002_Node000005"><a xlink:title=" ">
<path fill="none" stroke="#63b8ff" d="M713.09,-127C682.64,-110.07 636.25,-85.09 594.61,-66 565.53,-52.67 531.8,-39.5 506.41,-30.02"/>
<polygon fill="#63b8ff" stroke="#63b8ff" points="711.57,-130.16 722.01,-131.98 714.99,-124.05 711.57,-130.16"/>
</a>
</g>
</g>
<!-- Node7 -->
<g id="Node000007" class="node">
<title>Node7</title>
<g id="a_Node000007"><a xlink:href="Mesh__utest_8cpp.html" target="_top" xlink:title=" ">
<polygon fill="white" stroke="#666666" points="1174.11,-30 1051.11,-30 1051.11,0 1174.11,0 1174.11,-30"/>
<text text-anchor="start" x="1059.11" y="-18" font-family="Helvetica,sans-Serif" font-size="10.00">App/Test/Source/Mesh</text>
<text text-anchor="middle" x="1112.61" y="-7" font-family="Helvetica,sans-Serif" font-size="10.00">_utest.cpp</text>
</a>
</g>
</g>
<!-- Node2&#45;&gt;Node7 -->
<g id="edge13_Node000002_Node000007" class="edge">
<title>Node2&#45;&gt;Node7</title>
<g id="a_edge13_Node000002_Node000007"><a xlink:title=" ">
<path fill="none" stroke="#63b8ff" d="M739.35,-121.8C735.69,-104.19 734.43,-80.91 747.61,-66 752.59,-60.35 948.13,-35.91 1050.9,-23.42"/>
<polygon fill="#63b8ff" stroke="#63b8ff" points="736.05,-123.03 741.84,-131.9 742.85,-121.36 736.05,-123.03"/>
</a>
</g>
</g>
<!-- Node9 -->
<g id="Node000009" class="node">
<title>Node9</title>
<g id="a_Node000009"><a xlink:href="Mesh_8cpp.html" target="_top" xlink:title=" ">
<polygon fill="white" stroke="#666666" points="1517.11,-90.5 1396.11,-90.5 1396.11,-71.5 1517.11,-71.5 1517.11,-90.5"/>
<text text-anchor="middle" x="1456.61" y="-78.5" font-family="Helvetica,sans-Serif" font-size="10.00">App/Source/Mesh.cpp</text>
</a>
</g>
</g>
<!-- Node2&#45;&gt;Node9 -->
<g id="edge8_Node000002_Node000009" class="edge">
<title>Node2&#45;&gt;Node9</title>
<g id="a_edge8_Node000002_Node000009"><a xlink:title=" ">
<path fill="none" stroke="#63b8ff" d="M822.34,-136.77C837.64,-135.06 853.63,-133.38 868.61,-132 1098.85,-110.81 1158.48,-127.06 1387.61,-96 1397.9,-94.6 1408.97,-92.59 1419.16,-90.53"/>
<polygon fill="#63b8ff" stroke="#63b8ff" points="821.94,-133.3 812.4,-137.9 822.73,-140.25 821.94,-133.3"/>
</a>
</g>
</g>
<!-- Node2&#45;&gt;Node10 -->
<g id="edge9_Node000002_Node000010" class="edge">
<title>Node2&#45;&gt;Node10</title>
<g id="a_edge9_Node000002_Node000010"><a xlink:title=" ">
<path fill="none" stroke="#63b8ff" d="M670.88,-138.54C547.38,-126.38 303.71,-102.39 177.16,-89.93"/>
<polygon fill="#63b8ff" stroke="#63b8ff" points="670.71,-142.04 681,-139.54 671.4,-135.08 670.71,-142.04"/>
</a>
</g>
</g>
<!-- Node11 -->
<g id="Node000011" class="node">
<title>Node11</title>
<g id="a_Node000011"><a xlink:href="MeshLoader_8cpp.html" target="_top" xlink:title=" ">
<polygon fill="white" stroke="#666666" points="910.11,-90.5 757.11,-90.5 757.11,-71.5 910.11,-71.5 910.11,-90.5"/>
<text text-anchor="middle" x="833.61" y="-78.5" font-family="Helvetica,sans-Serif" font-size="10.00">App/Source/MeshLoader.cpp</text>
</a>
</g>
</g>
<!-- Node2&#45;&gt;Node11 -->
<g id="edge10_Node000002_Node000011" class="edge">
<title>Node2&#45;&gt;Node11</title>
<g id="a_edge10_Node000002_Node000011"><a xlink:title=" ">
<path fill="none" stroke="#63b8ff" d="M774.41,-125.55C790.43,-113.76 809.73,-99.57 821.84,-90.66"/>
<polygon fill="#63b8ff" stroke="#63b8ff" points="771.89,-123.05 765.91,-131.8 776.04,-128.69 771.89,-123.05"/>
</a>
</g>
</g>
<!-- Node12 -->
<g id="Node000012" class="node">
<title>Node12</title>
<g id="a_Node000012"><a xlink:href="MeshLoader__utest_8cpp.html" target="_top" xlink:title=" ">
<polygon fill="white" stroke="#666666" points="1084.61,-96 928.61,-96 928.61,-66 1084.61,-66 1084.61,-96"/>
<text text-anchor="start" x="936.61" y="-84" font-family="Helvetica,sans-Serif" font-size="10.00">App/Test/Source/MeshLoader</text>
<text text-anchor="middle" x="1006.61" y="-73" font-family="Helvetica,sans-Serif" font-size="10.00">_utest.cpp</text>
</a>
</g>
</g>
<!-- Node2&#45;&gt;Node12 -->
<g id="edge12_Node000002_Node000012" class="edge">
<title>Node2&#45;&gt;Node12</title>
<g id="a_edge12_Node000002_Node000012"><a xlink:title=" ">
<path fill="none" stroke="#63b8ff" d="M813.57,-129.52C855.73,-119.14 909.58,-105.88 949.68,-96.01"/>
<polygon fill="#63b8ff" stroke="#63b8ff" points="812.54,-126.17 803.66,-131.95 814.21,-132.96 812.54,-126.17"/>
</a>
</g>
</g>
<!-- Node4 -->
<g id="Node000004" class="node">
<title>Node4</title>
<g id="a_Node000004"><a xlink:href="MeshCirculator__utest_8cpp.html" target="_top" xlink:title=" ">
<polygon fill="white" stroke="#666666" points="737.61,-30 567.61,-30 567.61,0 737.61,0 737.61,-30"/>
<text text-anchor="start" x="575.61" y="-18" font-family="Helvetica,sans-Serif" font-size="10.00">App/Test/Source/MeshCirculator</text>
<text text-anchor="middle" x="652.61" y="-7" font-family="Helvetica,sans-Serif" font-size="10.00">_utest.cpp</text>
</a>
</g>
</g>
<!-- Node3&#45;&gt;Node4 -->
<g id="edge3_Node000003_Node000004" class="edge">
<title>Node3&#45;&gt;Node4</title>
<g id="a_edge3_Node000003_Node000004"><a xlink:title=" ">
<path fill="none" stroke="#63b8ff" d="M558.73,-61.51C579.44,-51.47 604.63,-39.26 623.71,-30.01"/>
<polygon fill="#63b8ff" stroke="#63b8ff" points="557.04,-58.44 549.57,-65.95 560.1,-64.74 557.04,-58.44"/>
</a>
</g>
</g>
<!-- Node3&#45;&gt;Node5 -->
<g id="edge4_Node000003_Node000005" class="edge">
<title>Node3&#45;&gt;Node5</title>
<g id="a_edge4_Node000003_Node000005"><a xlink:title=" ">
<path fill="none" stroke="#63b8ff" d="M502.46,-58.09C494.81,-48.85 486.12,-38.36 479.33,-30.16"/>
<polygon fill="#63b8ff" stroke="#63b8ff" points="499.77,-60.33 508.84,-65.8 505.16,-55.86 499.77,-60.33"/>
</a>
</g>
</g>
<!-- Node6 -->
<g id="Node000006" class="node">
<title>Node6</title>
<g id="a_Node000006"><a xlink:href="MeshIntegrity__utest_8cpp.html" target="_top" xlink:title=" ">
<polygon fill="white" stroke="#666666" points="976.61,-30 812.61,-30 812.61,0 976.61,0 976.61,-30"/>
<text text-anchor="start" x="820.61" y="-18" font-family="Helvetica,sans-Serif" font-size="10.00">App/Test/Source/MeshIntegrity</text>
<text text-anchor="middle" x="894.61" y="-7" font-family="Helvetica,sans-Serif" font-size="10.00">_utest.cpp</text>
</a>
</g>
</g>
<!-- Node3&#45;&gt;Node6 -->
<g id="edge5_Node000003_Node000006" class="edge">
<title>Node3&#45;&gt;Node6</title>
<g id="a_edge5_Node000003_Node000006"><a xlink:title=" ">
<path fill="none" stroke="#63b8ff" d="M596.42,-67.03C659.23,-56.28 748.34,-41.03 812.76,-30.01"/>
<polygon fill="#63b8ff" stroke="#63b8ff" points="595.45,-63.64 586.18,-68.78 596.63,-70.54 595.45,-63.64"/>
</a>
</g>
</g>
<!-- Node3&#45;&gt;Node7 -->
<g id="edge6_Node000003_Node000007" class="edge">
<title>Node3&#45;&gt;Node7</title>
<g id="a_edge6_Node000003_Node000007"><a xlink:title=" ">
<path fill="none" stroke="#63b8ff" d="M596.51,-71.9C688.58,-62.06 848.48,-44.93 985.61,-30 1006.89,-27.68 1030.17,-25.12 1050.92,-22.83"/>
<polygon fill="#63b8ff" stroke="#63b8ff" points="596.02,-68.43 586.45,-72.98 596.77,-75.39 596.02,-68.43"/>
</a>
</g>
</g>
<!-- Node8 -->
<g id="Node000008" class="node">
<title>Node8</title>
<g id="a_Node000008"><a xlink:href="PrimitiveProxy__utest_8cpp.html" target="_top" xlink:title=" ">
<polygon fill="white" stroke="#666666" points="322.11,-30 181.11,-30 181.11,0 322.11,0 322.11,-30"/>
<text text-anchor="start" x="189.11" y="-18" font-family="Helvetica,sans-Serif" font-size="10.00">App/Test/Source/Primitive</text>
<text text-anchor="middle" x="251.61" y="-7" font-family="Helvetica,sans-Serif" font-size="10.00">Proxy_utest.cpp</text>
</a>
</g>
</g>
<!-- Node3&#45;&gt;Node8 -->
<g id="edge7_Node000003_Node000008" class="edge">
<title>Node3&#45;&gt;Node8</title>
<g id="a_edge7_Node000003_Node000008"><a xlink:title=" ">
<path fill="none" stroke="#63b8ff" d="M451.6,-63.58C407.93,-53.19 352.08,-39.9 310.5,-30.01"/>
<polygon fill="#63b8ff" stroke="#63b8ff" points="451.03,-67.05 461.57,-65.95 452.65,-60.24 451.03,-67.05"/>
</a>
</g>
</g>
<!-- Node13&#45;&gt;Node5 -->
<g id="edge17_Node000013_Node000005" class="edge">
<title>Node13&#45;&gt;Node5</title>
<g id="a_edge17_Node000013_Node000005"><a xlink:title=" ">
<path fill="none" stroke="#63b8ff" d="M1515.14,-123.74C1528.9,-106.13 1541.95,-81.92 1526.61,-66 1489.27,-27.25 612.18,-35.1 558.61,-30 555.74,-29.73 552.83,-29.42 549.89,-29.1"/>
<polygon fill="#63b8ff" stroke="#63b8ff" points="1512.15,-121.87 1508.45,-131.8 1517.53,-126.34 1512.15,-121.87"/>
</a>
</g>
</g>
<!-- Node13&#45;&gt;Node7 -->
<g id="edge19_Node000013_Node000007" class="edge">
<title>Node13&#45;&gt;Node7</title>
<g id="a_edge19_Node000013_Node000007"><a xlink:title=" ">
<path fill="none" stroke="#63b8ff" d="M1570.43,-144.38C1661.25,-139.91 1794.89,-123.69 1741.61,-66 1703.61,-24.86 1324.93,-17.54 1174.12,-16.26"/>
<polygon fill="#63b8ff" stroke="#63b8ff" points="1570.24,-140.89 1560.41,-144.84 1570.56,-147.88 1570.24,-140.89"/>
</a>
</g>
</g>
<!-- Node13&#45;&gt;Node9 -->
<g id="edge15_Node000013_Node000009" class="edge">
<title>Node13&#45;&gt;Node9</title>
<g id="a_edge15_Node000013_Node000009"><a xlink:title=" ">
<path fill="none" stroke="#63b8ff" d="M1480.92,-122.95C1474.31,-111.81 1466.76,-99.11 1461.86,-90.84"/>
<polygon fill="#63b8ff" stroke="#63b8ff" points="1478.06,-124.98 1486.17,-131.8 1484.08,-121.41 1478.06,-124.98"/>
</a>
</g>
</g>
<!-- Node13&#45;&gt;Node12 -->
<g id="edge18_Node000013_Node000012" class="edge">
<title>Node13&#45;&gt;Node12</title>
<g id="a_edge18_Node000013_Node000012"><a xlink:title=" ">
<path fill="none" stroke="#63b8ff" d="M1419.17,-133.27C1416.28,-132.83 1413.42,-132.41 1410.61,-132 1297.65,-115.6 1166.43,-100 1084.94,-90.71"/>
<polygon fill="#63b8ff" stroke="#63b8ff" points="1418.65,-136.73 1429.07,-134.8 1419.73,-129.82 1418.65,-136.73"/>
</a>
</g>
</g>
<!-- Node14 -->
<g id="Node000014" class="node">
<title>Node14</title>
<g id="a_Node000014"><a xlink:href="MathHelpers__utest_8cpp.html" target="_top" xlink:title=" ">
<polygon fill="white" stroke="#666666" points="1732.11,-96 1573.11,-96 1573.11,-66 1732.11,-66 1732.11,-96"/>
<text text-anchor="start" x="1581.11" y="-84" font-family="Helvetica,sans-Serif" font-size="10.00">App/Test/Source/MathHelpers</text>
<text text-anchor="middle" x="1652.61" y="-73" font-family="Helvetica,sans-Serif" font-size="10.00">_utest.cpp</text>
</a>
</g>
</g>
<!-- Node13&#45;&gt;Node14 -->
<g id="edge16_Node000013_Node000014" class="edge">
<title>Node13&#45;&gt;Node14</title>
<g id="a_edge16_Node000013_Node000014"><a xlink:title=" ">
<path fill="none" stroke="#63b8ff" d="M1538.58,-128.19C1563.67,-118.02 1594.67,-105.47 1618.01,-96.01"/>
<polygon fill="#63b8ff" stroke="#63b8ff" points="1537.23,-124.96 1529.28,-131.95 1539.86,-131.44 1537.23,-124.96"/>
</a>
</g>
</g>
<!-- Node15&#45;&gt;Node3 -->
<g id="edge43_Node000015_Node000003" class="edge">
<title>Node15&#45;&gt;Node3</title>
<g id="a_edge43_Node000015_Node000003"><a xlink:title=" ">
<path fill="none" stroke="#63b8ff" d="M796.88,-203.41C749.92,-196.25 689.13,-183.63 638.61,-162 616.85,-152.69 614.19,-145.29 594.61,-132 576.77,-119.9 556.49,-106.2 541.67,-96.2"/>
<polygon fill="#63b8ff" stroke="#63b8ff" points="796.58,-206.9 806.99,-204.9 797.6,-199.98 796.58,-206.9"/>
</a>
</g>
</g>
<!-- Node15&#45;&gt;Node4 -->
<g id="edge46_Node000015_Node000004" class="edge">
<title>Node15&#45;&gt;Node4</title>
<g id="a_edge46_Node000015_Node000004"><a xlink:title=" ">
<path fill="none" stroke="#63b8ff" d="M796.87,-202.14C747.18,-194.04 688.4,-180.83 671.61,-162 638.26,-124.61 644.84,-58.89 649.75,-30.14"/>
<polygon fill="#63b8ff" stroke="#63b8ff" points="796.57,-205.63 806.99,-203.74 797.66,-198.72 796.57,-205.63"/>
</a>
</g>
</g>
<!-- Node15&#45;&gt;Node7 -->
<g id="edge47_Node000015_Node000007" class="edge">
<title>Node15&#45;&gt;Node7</title>
<g id="a_edge47_Node000015_Node000007"><a xlink:title=" ">
<path fill="none" stroke="#63b8ff" d="M948.63,-205.32C976.88,-202.91 1009.2,-200.24 1038.61,-198 1200.4,-185.69 1667.35,-228.07 1761.61,-96 1769.35,-85.15 1770.66,-75.78 1761.61,-66 1722.21,-23.45 1328.8,-16.99 1174.36,-16.1"/>
<polygon fill="#63b8ff" stroke="#63b8ff" points="948.09,-201.86 938.42,-206.2 948.69,-208.83 948.09,-201.86"/>
</a>
</g>
</g>
<!-- Node15&#45;&gt;Node9 -->
<g id="edge44_Node000015_Node000009" class="edge">
<title>Node15&#45;&gt;Node9</title>
<g id="a_edge44_Node000015_Node000009"><a xlink:title=" ">
<path fill="none" stroke="#63b8ff" d="M948.7,-198.64C950.01,-198.43 951.31,-198.21 952.61,-198 1056.87,-180.89 1090.71,-204.13 1187.61,-162 1207.34,-153.42 1206.14,-141.18 1225.61,-132 1234.18,-127.96 1350.69,-103.71 1414.88,-90.52"/>
<polygon fill="#63b8ff" stroke="#63b8ff" points="947.79,-195.25 938.51,-200.35 948.95,-202.15 947.79,-195.25"/>
</a>
</g>
</g>
<!-- Node15&#45;&gt;Node16 -->
<g id="edge21_Node000015_Node000016" class="edge">
<title>Node15&#45;&gt;Node16</title>
<g id="a_edge21_Node000015_Node000016"><a xlink:title=" ">
<path fill="none" stroke="#63b8ff" d="M796.65,-203.12C711.26,-193.13 568.48,-176.42 445.61,-162 428.35,-159.98 409.7,-157.78 392.38,-155.75"/>
<polygon fill="#63b8ff" stroke="#63b8ff" points="796.43,-206.62 806.77,-204.3 797.24,-199.66 796.43,-206.62"/>
</a>
</g>
</g>
<!-- Node17 -->
<g id="Node000017" class="node">
<title>Node17</title>
<g id="a_Node000017"><a xlink:href="MeshIntegrity_8h.html" target="_top" xlink:title=" ">
<polygon fill="white" stroke="#666666" points="1178.11,-162 1047.11,-162 1047.11,-132 1178.11,-132 1178.11,-162"/>
<text text-anchor="start" x="1055.11" y="-150" font-family="Helvetica,sans-Serif" font-size="10.00">App/Include/Application</text>
<text text-anchor="middle" x="1112.61" y="-139" font-family="Helvetica,sans-Serif" font-size="10.00">/MeshIntegrity.h</text>
</a>
</g>
</g>
<!-- Node15&#45;&gt;Node17 -->
<g id="edge24_Node000015_Node000017" class="edge">
<title>Node15&#45;&gt;Node17</title>
<g id="a_edge24_Node000015_Node000017"><a xlink:title=" ">
<path fill="none" stroke="#63b8ff" d="M935.4,-195.25C974.18,-184.91 1023.35,-171.8 1060.06,-162.01"/>
<polygon fill="#63b8ff" stroke="#63b8ff" points="934.03,-192 925.27,-197.95 935.84,-198.76 934.03,-192"/>
</a>
</g>
</g>
<!-- Node19 -->
<g id="Node000019" class="node">
<title>Node19</title>
<g id="a_Node000019"><a xlink:href="MeshLoader_8h.html" target="_top" xlink:title=" ">
<polygon fill="white" stroke="#666666" points="1009.11,-162 878.11,-162 878.11,-132 1009.11,-132 1009.11,-162"/>
<text text-anchor="start" x="886.11" y="-150" font-family="Helvetica,sans-Serif" font-size="10.00">App/Include/Application</text>
<text text-anchor="middle" x="943.61" y="-139" font-family="Helvetica,sans-Serif" font-size="10.00">/MeshLoader.h</text>
</a>
</g>
</g>
<!-- Node15&#45;&gt;Node19 -->
<g id="edge29_Node000015_Node000019" class="edge">
<title>Node15&#45;&gt;Node19</title>
<g id="a_edge29_Node000015_Node000019"><a xlink:title=" ">
<path fill="none" stroke="#63b8ff" d="M895.99,-190.92C906.46,-181.49 918.52,-170.61 927.89,-162.16"/>
<polygon fill="#63b8ff" stroke="#63b8ff" points="893.45,-188.5 888.36,-197.8 898.13,-193.7 893.45,-188.5"/>
</a>
</g>
</g>
<!-- Node15&#45;&gt;Node20 -->
<g id="edge33_Node000015_Node000020" class="edge">
<title>Node15&#45;&gt;Node20</title>
<g id="a_edge33_Node000015_Node000020"><a xlink:title=" ">
<path fill="none" stroke="#63b8ff" d="M796.59,-198.18C733.95,-186.79 646.03,-170.8 586.38,-159.96"/>
<polygon fill="#63b8ff" stroke="#63b8ff" points="796.34,-201.69 806.81,-200.04 797.6,-194.8 796.34,-201.69"/>
</a>
</g>
</g>
<!-- Node22 -->
<g id="Node000022" class="node">
<title>Node22</title>
<g id="a_Node000022"><a xlink:href="MeshCirculator_8cpp.html" target="_top" xlink:title=" ">
<polygon fill="white" stroke="#666666" points="1401.11,-156.5 1234.11,-156.5 1234.11,-137.5 1401.11,-137.5 1401.11,-156.5"/>
<text text-anchor="middle" x="1317.61" y="-144.5" font-family="Helvetica,sans-Serif" font-size="10.00">App/Source/MeshCirculator.cpp</text>
</a>
</g>
</g>
<!-- Node15&#45;&gt;Node22 -->
<g id="edge45_Node000015_Node000022" class="edge">
<title>Node15&#45;&gt;Node22</title>
<g id="a_edge45_Node000015_Node000022"><a xlink:title=" ">
<path fill="none" stroke="#63b8ff" d="M948.69,-198.61C950.01,-198.4 951.31,-198.2 952.61,-198 1071.38,-179.64 1101.57,-178.58 1220.61,-162 1233.08,-160.26 1246.44,-158.36 1259.14,-156.53"/>
<polygon fill="#63b8ff" stroke="#63b8ff" points="947.81,-195.21 938.49,-200.26 948.92,-202.12 947.81,-195.21"/>
</a>
</g>
</g>
<!-- Node16&#45;&gt;Node5 -->
<g id="edge23_Node000016_Node000005" class="edge">
<title>Node16&#45;&gt;Node5</title>
<g id="a_edge23_Node000016_Node000005"><a xlink:title=" ">
<path fill="none" stroke="#63b8ff" d="M251.02,-145.09C166.52,-142.28 37.44,-132.02 6.61,-96 -2.06,-85.87 -2.3,-75.92 6.61,-66 8.18,-64.25 253.43,-38.38 385.53,-24.56"/>
<polygon fill="#63b8ff" stroke="#63b8ff" points="251,-148.59 261.1,-145.4 251.21,-141.59 251,-148.59"/>
</a>
</g>
</g>
<!-- Node16&#45;&gt;Node10 -->
<g id="edge22_Node000016_Node000010" class="edge">
<title>Node16&#45;&gt;Node10</title>
<g id="a_edge22_Node000016_Node000010"><a xlink:title=" ">
<path fill="none" stroke="#63b8ff" d="M266.26,-129.21C221.58,-116.78 162.56,-100.35 127.21,-90.52"/>
<polygon fill="#63b8ff" stroke="#63b8ff" points="265.56,-132.65 276.13,-131.95 267.44,-125.9 265.56,-132.65"/>
</a>
</g>
</g>
<!-- Node17&#45;&gt;Node6 -->
<g id="edge26_Node000017_Node000006" class="edge">
<title>Node17&#45;&gt;Node6</title>
<g id="a_edge26_Node000017_Node000006"><a xlink:title=" ">
<path fill="none" stroke="#63b8ff" d="M1113.16,-121.59C1112.21,-103.87 1107.97,-80.55 1093.61,-66 1076.96,-49.14 1023.9,-36.3 976.75,-27.86"/>
<polygon fill="#63b8ff" stroke="#63b8ff" points="1109.66,-121.85 1113.38,-131.77 1116.66,-121.69 1109.66,-121.85"/>
</a>
</g>
</g>
<!-- Node17&#45;&gt;Node7 -->
<g id="edge28_Node000017_Node000007" class="edge">
<title>Node17&#45;&gt;Node7</title>
<g id="a_edge28_Node000017_Node000007"><a xlink:title=" ">
<path fill="none" stroke="#63b8ff" d="M1142.02,-125.33C1151.01,-117.31 1159.79,-107.32 1164.61,-96 1169.83,-83.73 1169.83,-78.27 1164.61,-66 1158.37,-51.37 1145.53,-38.95 1134.16,-30.14"/>
<polygon fill="#63b8ff" stroke="#63b8ff" points="1139.62,-122.78 1134.16,-131.86 1144.09,-128.16 1139.62,-122.78"/>
</a>
</g>
</g>
<!-- Node17&#45;&gt;Node12 -->
<g id="edge27_Node000017_Node000012" class="edge">
<title>Node17&#45;&gt;Node12</title>
<g id="a_edge27_Node000017_Node000012"><a xlink:title=" ">
<path fill="none" stroke="#63b8ff" d="M1080.63,-126.69C1064.27,-116.82 1044.71,-105.01 1029.81,-96.01"/>
<polygon fill="#63b8ff" stroke="#63b8ff" points="1078.97,-129.78 1089.34,-131.95 1082.59,-123.79 1078.97,-129.78"/>
</a>
</g>
</g>
<!-- Node18 -->
<g id="Node000018" class="node">
<title>Node18</title>
<g id="a_Node000018"><a xlink:href="MeshIntegrity_8cpp.html" target="_top" xlink:title=" ">
<polygon fill="white" stroke="#666666" points="1378.11,-90.5 1217.11,-90.5 1217.11,-71.5 1378.11,-71.5 1378.11,-90.5"/>
<text text-anchor="middle" x="1297.61" y="-78.5" font-family="Helvetica,sans-Serif" font-size="10.00">App/Source/MeshIntegrity.cpp</text>
</a>
</g>
</g>
<!-- Node17&#45;&gt;Node18 -->
<g id="edge25_Node000017_Node000018" class="edge">
<title>Node17&#45;&gt;Node18</title>
<g id="a_edge25_Node000017_Node000018"><a xlink:title=" ">
<path fill="none" stroke="#63b8ff" d="M1162.97,-128.58C1198.67,-116.23 1245.03,-100.19 1272.99,-90.52"/>
<polygon fill="#63b8ff" stroke="#63b8ff" points="1161.51,-125.38 1153.2,-131.95 1163.8,-131.99 1161.51,-125.38"/>
</a>
</g>
</g>
<!-- Node19&#45;&gt;Node7 -->
<g id="edge32_Node000019_Node000007" class="edge">
<title>Node19&#45;&gt;Node7</title>
<g id="a_edge32_Node000019_Node000007"><a xlink:title=" ">
<path fill="none" stroke="#63b8ff" d="M1019.26,-136.28C1046.09,-129.2 1074.38,-117.01 1093.61,-96 1110.28,-77.78 1113.09,-47.65 1113.17,-30.03"/>
<polygon fill="#63b8ff" stroke="#63b8ff" points="1018.34,-132.9 1009.45,-138.66 1020,-139.7 1018.34,-132.9"/>
</a>
</g>
</g>
<!-- Node19&#45;&gt;Node11 -->
<g id="edge30_Node000019_Node000011" class="edge">
<title>Node19&#45;&gt;Node11</title>
<g id="a_edge30_Node000019_Node000011"><a xlink:title=" ">
<path fill="none" stroke="#63b8ff" d="M910.63,-126.81C889.86,-114.73 864.09,-99.73 848.24,-90.52"/>
<polygon fill="#63b8ff" stroke="#63b8ff" points="909.06,-129.95 919.47,-131.95 912.58,-123.9 909.06,-129.95"/>
</a>
</g>
</g>
<!-- Node19&#45;&gt;Node12 -->
<g id="edge31_Node000019_Node000012" class="edge">
<title>Node19&#45;&gt;Node12</title>
<g id="a_edge31_Node000019_Node000012"><a xlink:title=" ">
<path fill="none" stroke="#63b8ff" d="M964.63,-124.65C973.85,-115.27 984.43,-104.53 992.66,-96.16"/>
<polygon fill="#63b8ff" stroke="#63b8ff" points="962.11,-122.21 957.59,-131.8 967.1,-127.13 962.11,-122.21"/>
</a>
</g>
</g>
<!-- Node20&#45;&gt;Node3 -->
<g id="edge34_Node000020_Node000003" class="edge">
<title>Node20&#45;&gt;Node3</title>
<g id="a_edge34_Node000020_Node000003"><a xlink:title=" ">
<path fill="none" stroke="#63b8ff" d="M520.61,-121.54C520.61,-112.96 520.61,-103.61 520.61,-96.16"/>
<polygon fill="#63b8ff" stroke="#63b8ff" points="517.11,-121.8 520.61,-131.8 524.11,-121.8 517.11,-121.8"/>
</a>
</g>
</g>
<!-- Node20&#45;&gt;Node5 -->
<g id="edge39_Node000020_Node000005" class="edge">
<title>Node20&#45;&gt;Node5</title>
<g id="a_edge39_Node000020_Node000005"><a xlink:title=" ">
<path fill="none" stroke="#63b8ff" d="M445.12,-136.29C373.24,-126.28 274.29,-110.16 262.61,-96 254.12,-85.71 254.37,-76.49 262.61,-66 278.05,-46.34 335.31,-33.43 385.4,-25.66"/>
<polygon fill="#63b8ff" stroke="#63b8ff" points="444.69,-139.77 455.07,-137.67 445.64,-132.83 444.69,-139.77"/>
</a>
</g>
</g>
<!-- Node20&#45;&gt;Node7 -->
<g id="edge41_Node000020_Node000007" class="edge">
<title>Node20&#45;&gt;Node7</title>
<g id="a_edge41_Node000020_Node000007"><a xlink:title=" ">
<path fill="none" stroke="#63b8ff" d="M560.65,-127.81C602.81,-109.41 671.57,-81.53 733.61,-66 763.66,-58.48 951.56,-35.32 1051.01,-23.35"/>
<polygon fill="#63b8ff" stroke="#63b8ff" points="559.04,-124.69 551.29,-131.93 561.86,-131.1 559.04,-124.69"/>
</a>
</g>
</g>
<!-- Node20&#45;&gt;Node8 -->
<g id="edge42_Node000020_Node000008" class="edge">
<title>Node20&#45;&gt;Node8</title>
<g id="a_edge42_Node000020_Node000008"><a xlink:title=" ">
<path fill="none" stroke="#63b8ff" d="M444.56,-136.77C369.76,-126.91 264.99,-110.72 252.61,-96 237.23,-77.72 242.06,-47.89 246.89,-30.28"/>
<polygon fill="#63b8ff" stroke="#63b8ff" points="444.54,-140.3 454.91,-138.12 445.44,-133.35 444.54,-140.3"/>
</a>
</g>
</g>
<!-- Node20&#45;&gt;Node9 -->
<g id="edge35_Node000020_Node000009" class="edge">
<title>Node20&#45;&gt;Node9</title>
<g id="a_edge35_Node000020_Node000009"><a xlink:title=" ">
<path fill="none" stroke="#63b8ff" d="M596.45,-138.34C620.47,-136.08 647.13,-133.75 671.61,-132 989.42,-109.29 1071.48,-135.79 1387.61,-96 1398.16,-94.67 1409.51,-92.63 1419.89,-90.51"/>
<polygon fill="#63b8ff" stroke="#63b8ff" points="595.96,-134.87 586.33,-139.3 596.62,-141.84 595.96,-134.87"/>
</a>
</g>
</g>
<!-- Node20&#45;&gt;Node10 -->
<g id="edge36_Node000020_Node000010" class="edge">
<title>Node20&#45;&gt;Node10</title>
<g id="a_edge36_Node000020_Node000010"><a xlink:title=" ">
<path fill="none" stroke="#63b8ff" d="M444.86,-134.57C361.11,-121.92 228.13,-101.85 153.04,-90.52"/>
<polygon fill="#63b8ff" stroke="#63b8ff" points="444.41,-138.04 454.82,-136.07 445.46,-131.12 444.41,-138.04"/>
</a>
</g>
</g>
<!-- Node20&#45;&gt;Node11 -->
<g id="edge37_Node000020_Node000011" class="edge">
<title>Node20&#45;&gt;Node11</title>
<g id="a_edge37_Node000020_Node000011"><a xlink:title=" ">
<path fill="none" stroke="#63b8ff" d="M596.27,-130.53C657.75,-117.96 742.19,-100.69 792.01,-90.5"/>
<polygon fill="#63b8ff" stroke="#63b8ff" points="595.32,-127.15 586.22,-132.58 596.72,-134.01 595.32,-127.15"/>
</a>
</g>
</g>
<!-- Node20&#45;&gt;Node12 -->
<g id="edge40_Node000020_Node000012" class="edge">
<title>Node20&#45;&gt;Node12</title>
<g id="a_edge40_Node000020_Node000012"><a xlink:title=" ">
<path fill="none" stroke="#63b8ff" d="M596.39,-137.3C676.73,-127.89 807.27,-112.07 919.61,-96 922.48,-95.59 925.41,-95.16 928.37,-94.72"/>
<polygon fill="#63b8ff" stroke="#63b8ff" points="595.89,-133.84 586.36,-138.47 596.7,-140.79 595.89,-133.84"/>
</a>
</g>
</g>
<!-- Node21 -->
<g id="Node000021" class="node">
<title>Node21</title>
<g id="a_Node000021"><a xlink:href="PrimitiveProxy_8cpp.html" target="_top" xlink:title=" ">
<polygon fill="white" stroke="#666666" points="437.11,-90.5 272.11,-90.5 272.11,-71.5 437.11,-71.5 437.11,-90.5"/>
<text text-anchor="middle" x="354.61" y="-78.5" font-family="Helvetica,sans-Serif" font-size="10.00">App/Source/PrimitiveProxy.cpp</text>
</a>
</g>
</g>
<!-- Node20&#45;&gt;Node21 -->
<g id="edge38_Node000020_Node000021" class="edge">
<title>Node20&#45;&gt;Node21</title>
<g id="a_edge38_Node000020_Node000021"><a xlink:title=" ">
<path fill="none" stroke="#63b8ff" d="M474.59,-128.26C442.67,-115.95 401.57,-100.11 376.7,-90.52"/>
<polygon fill="#63b8ff" stroke="#63b8ff" points="473.59,-131.62 484.18,-131.95 476.1,-125.09 473.59,-131.62"/>
</a>
</g>
</g>
<!-- Node23&#45;&gt;Node15 -->
<g id="edge50_Node000023_Node000015" class="edge">
<title>Node23&#45;&gt;Node15</title>
<g id="a_edge50_Node000023_Node000015"><a xlink:title=" ">
<path fill="none" stroke="#63b8ff" d="M1009.86,-260.72C979.73,-250.47 942.03,-237.63 913.77,-228.01"/>
<polygon fill="#63b8ff" stroke="#63b8ff" points="1008.75,-264.05 1019.35,-263.95 1011.01,-257.42 1008.75,-264.05"/>
</a>
</g>
</g>
<!-- Node24 -->
<g id="Node000024" class="node">
<title>Node24</title>
<g id="a_Node000024"><a xlink:href="VertexPair_8h.html" target="_top" xlink:title=" ">
<polygon fill="white" stroke="#666666" points="1957.11,-162 1826.11,-162 1826.11,-132 1957.11,-132 1957.11,-162"/>
<text text-anchor="start" x="1834.11" y="-150" font-family="Helvetica,sans-Serif" font-size="10.00">App/Include/Application</text>
<text text-anchor="middle" x="1891.61" y="-139" font-family="Helvetica,sans-Serif" font-size="10.00">/VertexPair.h</text>
</a>
</g>
</g>
<!-- Node23&#45;&gt;Node24 -->
<g id="edge51_Node000023_Node000024" class="edge">
<title>Node23&#45;&gt;Node24</title>
<g id="a_edge51_Node000023_Node000024"><a xlink:title=" ">
<path fill="none" stroke="#63b8ff" d="M1049.56,-254.29C1043.08,-236.46 1038.61,-212.68 1052.61,-198 1081.74,-167.45 1769.65,-166.65 1811.61,-162 1816.23,-161.49 1820.99,-160.87 1825.78,-160.2"/>
<polygon fill="#63b8ff" stroke="#63b8ff" points="1046.38,-255.77 1053.37,-263.74 1052.87,-253.15 1046.38,-255.77"/>
</a>
</g>
</g>
<!-- Node27 -->
<g id="Node000027" class="node">
<title>Node27</title>
<g id="a_Node000027"><a xlink:href="Primitive_8cpp.html" target="_top" xlink:title=" ">
<polygon fill="white" stroke="#666666" points="1200.11,-222.5 1061.11,-222.5 1061.11,-203.5 1200.11,-203.5 1200.11,-222.5"/>
<text text-anchor="middle" x="1130.61" y="-210.5" font-family="Helvetica,sans-Serif" font-size="10.00">App/Source/Primitive.cpp</text>
</a>
</g>
</g>
<!-- Node23&#45;&gt;Node27 -->
<g id="edge56_Node000023_Node000027" class="edge">
<title>Node23&#45;&gt;Node27</title>
<g id="a_edge56_Node000023_Node000027"><a xlink:title=" ">
<path fill="none" stroke="#63b8ff" d="M1083.65,-256.93C1096.31,-245.35 1111.35,-231.61 1120.93,-222.84"/>
<polygon fill="#63b8ff" stroke="#63b8ff" points="1081.16,-254.47 1076.14,-263.8 1085.88,-259.63 1081.16,-254.47"/>
</a>
</g>
</g>
<!-- Node28 -->
<g id="Node000028" class="node">
<title>Node28</title>
<g id="a_Node000028"><a xlink:href="Primitive__utest_8cpp.html" target="_top" xlink:title=" ">
<polygon fill="white" stroke="#666666" points="1359.11,-228 1218.11,-228 1218.11,-198 1359.11,-198 1359.11,-228"/>
<text text-anchor="start" x="1226.11" y="-216" font-family="Helvetica,sans-Serif" font-size="10.00">App/Test/Source/Primitive</text>
<text text-anchor="middle" x="1288.61" y="-205" font-family="Helvetica,sans-Serif" font-size="10.00">_utest.cpp</text>
</a>
</g>
</g>
<!-- Node23&#45;&gt;Node28 -->
<g id="edge57_Node000023_Node000028" class="edge">
<title>Node23&#45;&gt;Node28</title>
<g id="a_edge57_Node000023_Node000028"><a xlink:title=" ">
<path fill="none" stroke="#63b8ff" d="M1120.73,-261.12C1157.5,-250.8 1203.97,-237.76 1238.69,-228.01"/>
<polygon fill="#63b8ff" stroke="#63b8ff" points="1119.32,-257.88 1110.64,-263.95 1121.21,-264.62 1119.32,-257.88"/>
</a>
</g>
</g>
<!-- Node24&#45;&gt;Node9 -->
<g id="edge52_Node000024_Node000009" class="edge">
<title>Node24&#45;&gt;Node9</title>
<g id="a_edge52_Node000024_Node000009"><a xlink:title=" ">
<path fill="none" stroke="#63b8ff" d="M1816.08,-134.89C1730.38,-122.28 1592.44,-101.99 1514.72,-90.55"/>
<polygon fill="#63b8ff" stroke="#63b8ff" points="1815.61,-138.36 1826.01,-136.35 1816.63,-131.43 1815.61,-138.36"/>
</a>
</g>
</g>
<!-- Node24&#45;&gt;Node11 -->
<g id="edge53_Node000024_Node000011" class="edge">
<title>Node24&#45;&gt;Node11</title>
<g id="a_edge53_Node000024_Node000011"><a xlink:title=" ">
<path fill="none" stroke="#63b8ff" d="M1815.59,-142.57C1602.22,-132.88 1007.58,-105.39 919.61,-96 906.82,-94.63 893.04,-92.63 880.34,-90.57"/>
<polygon fill="#63b8ff" stroke="#63b8ff" points="1815.61,-146.08 1825.76,-143.03 1815.93,-139.08 1815.61,-146.08"/>
</a>
</g>
</g>
<!-- Node25 -->
<g id="Node000025" class="node">
<title>Node25</title>
<g id="a_Node000025"><a xlink:href="VertexPair_8cpp.html" target="_top" xlink:title=" ">
<polygon fill="white" stroke="#666666" points="2133.11,-90.5 1990.11,-90.5 1990.11,-71.5 2133.11,-71.5 2133.11,-90.5"/>
<text text-anchor="middle" x="2061.61" y="-78.5" font-family="Helvetica,sans-Serif" font-size="10.00">App/Source/VertexPair.cpp</text>
</a>
</g>
</g>
<!-- Node24&#45;&gt;Node25 -->
<g id="edge54_Node000024_Node000025" class="edge">
<title>Node24&#45;&gt;Node25</title>
<g id="a_edge54_Node000024_Node000025"><a xlink:title=" ">
<path fill="none" stroke="#63b8ff" d="M1938.31,-128.42C1971.06,-116.09 2013.4,-100.15 2038.98,-90.52"/>
<polygon fill="#63b8ff" stroke="#63b8ff" points="1937.04,-125.16 1928.91,-131.95 1939.5,-131.71 1937.04,-125.16"/>
</a>
</g>
</g>
<!-- Node26 -->
<g id="Node000026" class="node">
<title>Node26</title>
<g id="a_Node000026"><a xlink:href="VertexPair__utest_8cpp.html" target="_top" xlink:title=" ">
<polygon fill="white" stroke="#666666" points="1971.61,-96 1825.61,-96 1825.61,-66 1971.61,-66 1971.61,-96"/>
<text text-anchor="start" x="1833.61" y="-84" font-family="Helvetica,sans-Serif" font-size="10.00">App/Test/Source/VertexPair</text>
<text text-anchor="middle" x="1898.61" y="-73" font-family="Helvetica,sans-Serif" font-size="10.00">_utest.cpp</text>
</a>
</g>
</g>
<!-- Node24&#45;&gt;Node26 -->
<g id="edge55_Node000024_Node000026" class="edge">
<title>Node24&#45;&gt;Node26</title>
<g id="a_edge55_Node000024_Node000026"><a xlink:title=" ">
<path fill="none" stroke="#63b8ff" d="M1894.25,-121.83C1895.2,-113.17 1896.23,-103.7 1897.06,-96.16"/>
<polygon fill="#63b8ff" stroke="#63b8ff" points="1890.77,-121.48 1893.16,-131.8 1897.73,-122.24 1890.77,-121.48"/>
</a>
</g>
</g>
</g>
</svg>
