<?xml version="1.0" encoding="UTF-8" standalone="no"?>
<!DOCTYPE svg PUBLIC "-//W3C//DTD SVG 1.1//EN"
 "http://www.w3.org/Graphics/SVG/1.1/DTD/svg11.dtd">
<!-- Generated by graphviz version 2.43.0 (0)
 -->
<!-- Title: App/Include/Application/BaseType.h Pages: 1 -->
<svg width="2152pt" height="368pt"
 viewBox="0.00 0.00 2152.00 368.00" xmlns="http://www.w3.org/2000/svg" xmlns:xlink="http://www.w3.org/1999/xlink">
<g id="graph0" class="graph" transform="scale(1 1) rotate(0) translate(4 364)">
<title>App/Include/Application/BaseType.h</title>
<!-- Node1 -->
<g id="Node000001" class="node">
<title>Node1</title>
<g id="a_Node000001"><a xlink:title=" ">
<polygon fill="#999999" stroke="#666666" points="829.5,-360 698.5,-360 698.5,-330 829.5,-330 829.5,-360"/>
<text text-anchor="start" x="706.5" y="-348" font-family="Helvetica,sans-Serif" font-size="10.00">App/Include/Application</text>
<text text-anchor="middle" x="764" y="-337" font-family="Helvetica,sans-Serif" font-size="10.00">/BaseType.h</text>
</a>
</g>
</g>
<!-- Node2 -->
<g id="Node000002" class="node">
<title>Node2</title>
<g id="a_Node000002"><a xlink:href="ExtraDataType_8h.html" target="_top" xlink:title=" ">
<polygon fill="white" stroke="#666666" points="1017.5,-162 886.5,-162 886.5,-132 1017.5,-132 1017.5,-162"/>
<text text-anchor="start" x="894.5" y="-150" font-family="Helvetica,sans-Serif" font-size="10.00">App/Include/Application</text>
<text text-anchor="middle" x="952" y="-139" font-family="Helvetica,sans-Serif" font-size="10.00">/ExtraDataType.h</text>
</a>
</g>
</g>
<!-- Node1&#45;&gt;Node2 -->
<g id="edge1_Node000001_Node000002" class="edge">
<title>Node1&#45;&gt;Node2</title>
<g id="a_edge1_Node000001_Node000002"><a xlink:title=" ">
<path fill="none" stroke="#63b8ff" d="M784.65,-322.47C823.34,-282.14 905.78,-196.19 938.35,-162.23"/>
<polygon fill="#63b8ff" stroke="#63b8ff" points="781.92,-320.26 777.52,-329.9 786.97,-325.11 781.92,-320.26"/>
</a>
</g>
</g>
<!-- Node10 -->
<g id="Node000010" class="node">
<title>Node10</title>
<g id="a_Node000010"><a xlink:href="MeshExporter_8cpp.html" target="_top" xlink:title=" ">
<polygon fill="white" stroke="#666666" points="437.5,-90.5 276.5,-90.5 276.5,-71.5 437.5,-71.5 437.5,-90.5"/>
<text text-anchor="middle" x="357" y="-78.5" font-family="Helvetica,sans-Serif" font-size="10.00">App/Source/MeshExporter.cpp</text>
</a>
</g>
</g>
<!-- Node1&#45;&gt;Node10 -->
<g id="edge58_Node000001_Node000010" class="edge">
<title>Node1&#45;&gt;Node10</title>
<g id="a_edge58_Node000001_Node000010"><a xlink:title=" ">
<path fill="none" stroke="#63b8ff" d="M733.28,-324.33C718.91,-315.13 701.58,-304.01 686,-294 563.39,-215.2 415.27,-119.61 370.47,-90.69"/>
<polygon fill="#63b8ff" stroke="#63b8ff" points="731.49,-327.34 741.8,-329.79 735.27,-321.45 731.49,-327.34"/>
</a>
</g>
</g>
<!-- Node13 -->
<g id="Node000013" class="node">
<title>Node13</title>
<g id="a_Node000013"><a xlink:href="MathUtils_8h.html" target="_top" xlink:title=" ">
<polygon fill="white" stroke="#666666" points="313.5,-162 182.5,-162 182.5,-132 313.5,-132 313.5,-162"/>
<text text-anchor="start" x="190.5" y="-150" font-family="Helvetica,sans-Serif" font-size="10.00">App/Include/Application</text>
<text text-anchor="middle" x="248" y="-139" font-family="Helvetica,sans-Serif" font-size="10.00">/MathUtils.h</text>
</a>
</g>
</g>
<!-- Node1&#45;&gt;Node13 -->
<g id="edge14_Node000001_Node000013" class="edge">
<title>Node1&#45;&gt;Node13</title>
<g id="a_edge14_Node000001_Node000013"><a xlink:title=" ">
<path fill="none" stroke="#63b8ff" d="M688.11,-340.07C592.8,-334.11 435.51,-320.54 384,-294 323.03,-262.58 275.02,-192.43 256.39,-162.25"/>
<polygon fill="#63b8ff" stroke="#63b8ff" points="688.07,-343.58 698.27,-340.7 688.5,-336.59 688.07,-343.58"/>
</a>
</g>
</g>
<!-- Node15 -->
<g id="Node000015" class="node">
<title>Node15</title>
<g id="a_Node000015"><a xlink:href="Mesh_8h.html" target="_top" xlink:title=" ">
<polygon fill="white" stroke="#666666" points="1343.5,-228 1212.5,-228 1212.5,-198 1343.5,-198 1343.5,-228"/>
<text text-anchor="start" x="1220.5" y="-216" font-family="Helvetica,sans-Serif" font-size="10.00">App/Include/Application</text>
<text text-anchor="middle" x="1278" y="-205" font-family="Helvetica,sans-Serif" font-size="10.00">/Mesh.h</text>
</a>
</g>
</g>
<!-- Node1&#45;&gt;Node15 -->
<g id="edge19_Node000001_Node000015" class="edge">
<title>Node1&#45;&gt;Node15</title>
<g id="a_edge19_Node000001_Node000015"><a xlink:title=" ">
<path fill="none" stroke="#63b8ff" d="M829.37,-327.47C931.38,-301.67 1126.65,-252.28 1222.35,-228.08"/>
<polygon fill="#63b8ff" stroke="#63b8ff" points="828.33,-324.12 819.5,-329.96 830.05,-330.91 828.33,-324.12"/>
</a>
</g>
</g>
<!-- Node16 -->
<g id="Node000016" class="node">
<title>Node16</title>
<g id="a_Node000016"><a xlink:href="MeshExporter_8h.html" target="_top" xlink:title=" ">
<polygon fill="white" stroke="#666666" points="639.5,-162 508.5,-162 508.5,-132 639.5,-132 639.5,-162"/>
<text text-anchor="start" x="516.5" y="-150" font-family="Helvetica,sans-Serif" font-size="10.00">App/Include/Application</text>
<text text-anchor="middle" x="574" y="-139" font-family="Helvetica,sans-Serif" font-size="10.00">/MeshExporter.h</text>
</a>
</g>
</g>
<!-- Node1&#45;&gt;Node16 -->
<g id="edge47_Node000001_Node000016" class="edge">
<title>Node1&#45;&gt;Node16</title>
<g id="a_edge47_Node000001_Node000016"><a xlink:title=" ">
<path fill="none" stroke="#63b8ff" d="M743.13,-322.47C704.03,-282.14 620.72,-196.19 587.8,-162.23"/>
<polygon fill="#63b8ff" stroke="#63b8ff" points="740.86,-325.16 750.34,-329.9 745.89,-320.29 740.86,-325.16"/>
</a>
</g>
</g>
<!-- Node20 -->
<g id="Node000020" class="node">
<title>Node20</title>
<g id="a_Node000020"><a xlink:href="PrimitiveProxy_8h.html" target="_top" xlink:title=" ">
<polygon fill="white" stroke="#666666" points="829.5,-162 698.5,-162 698.5,-132 829.5,-132 829.5,-162"/>
<text text-anchor="start" x="706.5" y="-150" font-family="Helvetica,sans-Serif" font-size="10.00">App/Include/Application</text>
<text text-anchor="middle" x="764" y="-139" font-family="Helvetica,sans-Serif" font-size="10.00">/PrimitiveProxy.h</text>
</a>
</g>
</g>
<!-- Node1&#45;&gt;Node20 -->
<g id="edge57_Node000001_Node000020" class="edge">
<title>Node1&#45;&gt;Node20</title>
<g id="a_edge57_Node000001_Node000020"><a xlink:title=" ">
<path fill="none" stroke="#63b8ff" d="M764,-319.89C764,-278.58 764,-195.48 764,-162.23"/>
<polygon fill="#63b8ff" stroke="#63b8ff" points="760.5,-319.9 764,-329.9 767.5,-319.9 760.5,-319.9"/>
</a>
</g>
</g>
<!-- Node23 -->
<g id="Node000023" class="node">
<title>Node23</title>
<g id="a_Node000023"><a xlink:href="Primitive_8h.html" target="_top" xlink:title=" ">
<polygon fill="white" stroke="#666666" points="1437.5,-294 1306.5,-294 1306.5,-264 1437.5,-264 1437.5,-294"/>
<text text-anchor="start" x="1314.5" y="-282" font-family="Helvetica,sans-Serif" font-size="10.00">App/Include/Application</text>
<text text-anchor="middle" x="1372" y="-271" font-family="Helvetica,sans-Serif" font-size="10.00">/Primitive.h</text>
</a>
</g>
</g>
<!-- Node1&#45;&gt;Node23 -->
<g id="edge48_Node000001_Node000023" class="edge">
<title>Node1&#45;&gt;Node23</title>
<g id="a_edge48_Node000001_Node000023"><a xlink:title=" ">
<path fill="none" stroke="#63b8ff" d="M839.87,-336.01C960.13,-323.35 1192.51,-298.89 1306.17,-286.93"/>
<polygon fill="#63b8ff" stroke="#63b8ff" points="839.22,-332.56 829.64,-337.09 839.96,-339.52 839.22,-332.56"/>
</a>
</g>
</g>
<!-- Node3 -->
<g id="Node000003" class="node">
<title>Node3</title>
<g id="a_Node000003"><a xlink:href="TestHelpers_8h.html" target="_top" xlink:title=" ">
<polygon fill="white" stroke="#666666" points="923.5,-96 792.5,-96 792.5,-66 923.5,-66 923.5,-96"/>
<text text-anchor="start" x="800.5" y="-84" font-family="Helvetica,sans-Serif" font-size="10.00">App/Include/Application</text>
<text text-anchor="middle" x="858" y="-73" font-family="Helvetica,sans-Serif" font-size="10.00">/TestHelpers.h</text>
</a>
</g>
</g>
<!-- Node2&#45;&gt;Node3 -->
<g id="edge2_Node000002_Node000003" class="edge">
<title>Node2&#45;&gt;Node3</title>
<g id="a_edge2_Node000002_Node000003"><a xlink:title=" ">
<path fill="none" stroke="#63b8ff" d="M922.67,-126.03C908.44,-116.34 891.69,-104.94 878.8,-96.16"/>
<polygon fill="#63b8ff" stroke="#63b8ff" points="920.9,-129.06 931.14,-131.8 924.84,-123.28 920.9,-129.06"/>
</a>
</g>
</g>
<!-- Node5 -->
<g id="Node000005" class="node">
<title>Node5</title>
<g id="a_Node000005"><a xlink:href="MeshExporter__utest_8cpp.html" target="_top" xlink:title=" ">
<polygon fill="white" stroke="#666666" points="548,-30 384,-30 384,0 548,0 548,-30"/>
<text text-anchor="start" x="392" y="-18" font-family="Helvetica,sans-Serif" font-size="10.00">App/Test/Source/MeshExporter</text>
<text text-anchor="middle" x="466" y="-7" font-family="Helvetica,sans-Serif" font-size="10.00">_utest.cpp</text>
</a>
</g>
</g>
<!-- Node2&#45;&gt;Node5 -->
<g id="edge11_Node000002_Node000005" class="edge">
<title>Node2&#45;&gt;Node5</title>
<g id="a_edge11_Node000002_Node000005"><a xlink:title=" ">
<path fill="none" stroke="#63b8ff" d="M890.51,-129.15C858.29,-119.98 818.29,-108.07 783,-96 748.25,-84.11 741.21,-76.45 706,-66 654.28,-50.65 594.94,-38.25 548.21,-29.63"/>
<polygon fill="#63b8ff" stroke="#63b8ff" points="889.67,-132.55 900.24,-131.9 891.57,-125.81 889.67,-132.55"/>
</a>
</g>
</g>
<!-- Node7 -->
<g id="Node000007" class="node">
<title>Node7</title>
<g id="a_Node000007"><a xlink:href="Mesh__utest_8cpp.html" target="_top" xlink:title=" ">
<polygon fill="white" stroke="#666666" points="1013.5,-30 890.5,-30 890.5,0 1013.5,0 1013.5,-30"/>
<text text-anchor="start" x="898.5" y="-18" font-family="Helvetica,sans-Serif" font-size="10.00">App/Test/Source/Mesh</text>
<text text-anchor="middle" x="952" y="-7" font-family="Helvetica,sans-Serif" font-size="10.00">_utest.cpp</text>
</a>
</g>
</g>
<!-- Node2&#45;&gt;Node7 -->
<g id="edge13_Node000002_Node000007" class="edge">
<title>Node2&#45;&gt;Node7</title>
<g id="a_edge13_Node000002_Node000007"><a xlink:title=" ">
<path fill="none" stroke="#63b8ff" d="M952,-121.68C952,-94.7 952,-52.11 952,-30.14"/>
<polygon fill="#63b8ff" stroke="#63b8ff" points="948.5,-121.84 952,-131.84 955.5,-121.84 948.5,-121.84"/>
</a>
</g>
</g>
<!-- Node9 -->
<g id="Node000009" class="node">
<title>Node9</title>
<g id="a_Node000009"><a xlink:href="Mesh_8cpp.html" target="_top" xlink:title=" ">
<polygon fill="white" stroke="#666666" points="1485.5,-90.5 1364.5,-90.5 1364.5,-71.5 1485.5,-71.5 1485.5,-90.5"/>
<text text-anchor="middle" x="1425" y="-78.5" font-family="Helvetica,sans-Serif" font-size="10.00">App/Source/Mesh.cpp</text>
</a>
</g>
</g>
<!-- Node2&#45;&gt;Node9 -->
<g id="edge8_Node000002_Node000009" class="edge">
<title>Node2&#45;&gt;Node9</title>
<g id="a_edge8_Node000002_Node000009"><a xlink:title=" ">
<path fill="none" stroke="#63b8ff" d="M1027.73,-135.75C1121.2,-123.11 1278.32,-101.85 1364.28,-90.22"/>
<polygon fill="#63b8ff" stroke="#63b8ff" points="1027.21,-132.29 1017.77,-137.1 1028.15,-139.23 1027.21,-132.29"/>
</a>
</g>
</g>
<!-- Node2&#45;&gt;Node10 -->
<g id="edge9_Node000002_Node000010" class="edge">
<title>Node2&#45;&gt;Node10</title>
<g id="a_edge9_Node000002_Node000010"><a xlink:title=" ">
<path fill="none" stroke="#63b8ff" d="M876.19,-136.49C863.45,-134.95 850.35,-133.4 838,-132 697.43,-116.06 533.53,-99.44 437.9,-89.95"/>
<polygon fill="#63b8ff" stroke="#63b8ff" points="875.97,-139.99 886.32,-137.72 876.81,-133.04 875.97,-139.99"/>
</a>
</g>
</g>
<!-- Node11 -->
<g id="Node000011" class="node">
<title>Node11</title>
<g id="a_Node000011"><a xlink:href="MeshLoader_8cpp.html" target="_top" xlink:title=" ">
<polygon fill="white" stroke="#666666" points="1307.5,-90.5 1154.5,-90.5 1154.5,-71.5 1307.5,-71.5 1307.5,-90.5"/>
<text text-anchor="middle" x="1231" y="-78.5" font-family="Helvetica,sans-Serif" font-size="10.00">App/Source/MeshLoader.cpp</text>
</a>
</g>
</g>
<!-- Node2&#45;&gt;Node11 -->
<g id="edge10_Node000002_Node000011" class="edge">
<title>Node2&#45;&gt;Node11</title>
<g id="a_edge10_Node000002_Node000011"><a xlink:title=" ">
<path fill="none" stroke="#63b8ff" d="M1023.16,-129.68C1077.59,-117.19 1150.45,-100.48 1193.87,-90.52"/>
<polygon fill="#63b8ff" stroke="#63b8ff" points="1022.19,-126.31 1013.23,-131.95 1023.76,-133.13 1022.19,-126.31"/>
</a>
</g>
</g>
<!-- Node12 -->
<g id="Node000012" class="node">
<title>Node12</title>
<g id="a_Node000012"><a xlink:href="MeshLoader__utest_8cpp.html" target="_top" xlink:title=" ">
<polygon fill="white" stroke="#666666" points="1136,-96 980,-96 980,-66 1136,-66 1136,-96"/>
<text text-anchor="start" x="988" y="-84" font-family="Helvetica,sans-Serif" font-size="10.00">App/Test/Source/MeshLoader</text>
<text text-anchor="middle" x="1058" y="-73" font-family="Helvetica,sans-Serif" font-size="10.00">_utest.cpp</text>
</a>
</g>
</g>
<!-- Node2&#45;&gt;Node12 -->
<g id="edge12_Node000002_Node000012" class="edge">
<title>Node2&#45;&gt;Node12</title>
<g id="a_edge12_Node000002_Node000012"><a xlink:title=" ">
<path fill="none" stroke="#63b8ff" d="M983.97,-126.69C1000.34,-116.82 1019.89,-105.01 1034.79,-96.01"/>
<polygon fill="#63b8ff" stroke="#63b8ff" points="982.01,-123.79 975.26,-131.95 985.63,-129.78 982.01,-123.79"/>
</a>
</g>
</g>
<!-- Node4 -->
<g id="Node000004" class="node">
<title>Node4</title>
<g id="a_Node000004"><a xlink:href="MeshCirculator__utest_8cpp.html" target="_top" xlink:title=" ">
<polygon fill="white" stroke="#666666" points="1757,-30 1587,-30 1587,0 1757,0 1757,-30"/>
<text text-anchor="start" x="1595" y="-18" font-family="Helvetica,sans-Serif" font-size="10.00">App/Test/Source/MeshCirculator</text>
<text text-anchor="middle" x="1672" y="-7" font-family="Helvetica,sans-Serif" font-size="10.00">_utest.cpp</text>
</a>
</g>
</g>
<!-- Node3&#45;&gt;Node4 -->
<g id="edge3_Node000003_Node000004" class="edge">
<title>Node3&#45;&gt;Node4</title>
<g id="a_edge3_Node000003_Node000004"><a xlink:title=" ">
<path fill="none" stroke="#63b8ff" d="M933.96,-70.04C946.33,-68.58 959.01,-67.17 971,-66 1088.18,-54.57 1427.11,-31.96 1586.82,-21.52"/>
<polygon fill="#63b8ff" stroke="#63b8ff" points="933.17,-66.61 923.66,-71.28 934.01,-73.56 933.17,-66.61"/>
</a>
</g>
</g>
<!-- Node3&#45;&gt;Node5 -->
<g id="edge4_Node000003_Node000005" class="edge">
<title>Node3&#45;&gt;Node5</title>
<g id="a_edge4_Node000003_Node000005"><a xlink:title=" ">
<path fill="none" stroke="#63b8ff" d="M782.3,-67.64C715.13,-56.67 617.24,-40.69 548.18,-29.42"/>
<polygon fill="#63b8ff" stroke="#63b8ff" points="781.95,-71.13 792.39,-69.29 783.08,-64.22 781.95,-71.13"/>
</a>
</g>
</g>
<!-- Node6 -->
<g id="Node000006" class="node">
<title>Node6</title>
<g id="a_Node000006"><a xlink:href="MeshIntegrity__utest_8cpp.html" target="_top" xlink:title=" ">
<polygon fill="white" stroke="#666666" points="1434,-30 1270,-30 1270,0 1434,0 1434,-30"/>
<text text-anchor="start" x="1278" y="-18" font-family="Helvetica,sans-Serif" font-size="10.00">App/Test/Source/MeshIntegrity</text>
<text text-anchor="middle" x="1352" y="-7" font-family="Helvetica,sans-Serif" font-size="10.00">_utest.cpp</text>
</a>
</g>
</g>
<!-- Node3&#45;&gt;Node6 -->
<g id="edge5_Node000003_Node000006" class="edge">
<title>Node3&#45;&gt;Node6</title>
<g id="a_edge5_Node000003_Node000006"><a xlink:title=" ">
<path fill="none" stroke="#63b8ff" d="M933.54,-70.21C1024.29,-58.46 1175.98,-38.8 1269.65,-26.67"/>
<polygon fill="#63b8ff" stroke="#63b8ff" points="933.07,-66.75 923.6,-71.5 933.97,-73.69 933.07,-66.75"/>
</a>
</g>
</g>
<!-- Node3&#45;&gt;Node7 -->
<g id="edge6_Node000003_Node000007" class="edge">
<title>Node3&#45;&gt;Node7</title>
<g id="a_edge6_Node000003_Node000007"><a xlink:title=" ">
<path fill="none" stroke="#63b8ff" d="M887.33,-60.03C901.56,-50.34 918.31,-38.94 931.2,-30.16"/>
<polygon fill="#63b8ff" stroke="#63b8ff" points="885.16,-57.28 878.86,-65.8 889.1,-63.06 885.16,-57.28"/>
</a>
</g>
</g>
<!-- Node8 -->
<g id="Node000008" class="node">
<title>Node8</title>
<g id="a_Node000008"><a xlink:href="PrimitiveProxy__utest_8cpp.html" target="_top" xlink:title=" ">
<polygon fill="white" stroke="#666666" points="790.5,-30 649.5,-30 649.5,0 790.5,0 790.5,-30"/>
<text text-anchor="start" x="657.5" y="-18" font-family="Helvetica,sans-Serif" font-size="10.00">App/Test/Source/Primitive</text>
<text text-anchor="middle" x="720" y="-7" font-family="Helvetica,sans-Serif" font-size="10.00">Proxy_utest.cpp</text>
</a>
</g>
</g>
<!-- Node3&#45;&gt;Node8 -->
<g id="edge7_Node000003_Node000008" class="edge">
<title>Node3&#45;&gt;Node8</title>
<g id="a_edge7_Node000003_Node000008"><a xlink:title=" ">
<path fill="none" stroke="#63b8ff" d="M818.43,-61.65C796.73,-51.58 770.24,-39.3 750.21,-30.01"/>
<polygon fill="#63b8ff" stroke="#63b8ff" points="817.17,-64.92 827.72,-65.95 820.12,-58.57 817.17,-64.92"/>
</a>
</g>
</g>
<!-- Node13&#45;&gt;Node5 -->
<g id="edge16_Node000013_Node000005" class="edge">
<title>Node13&#45;&gt;Node5</title>
<g id="a_edge16_Node000013_Node000005"><a xlink:title=" ">
<path fill="none" stroke="#63b8ff" d="M242.89,-121.64C240.71,-104.15 241.11,-81.08 254,-66 271.01,-46.09 331.67,-33.09 383.76,-25.35"/>
<polygon fill="#63b8ff" stroke="#63b8ff" points="239.46,-122.37 244.49,-131.7 246.37,-121.27 239.46,-122.37"/>
</a>
</g>
</g>
<!-- Node13&#45;&gt;Node7 -->
<g id="edge18_Node000013_Node000007" class="edge">
<title>Node13&#45;&gt;Node7</title>
<g id="a_edge18_Node000013_Node000007"><a xlink:title=" ">
<path fill="none" stroke="#63b8ff" d="M246.7,-121.69C247.17,-103.46 251.14,-79.43 267,-66 312.22,-27.72 739.94,-34.7 799,-30 829.05,-27.61 862.38,-24.6 890.24,-21.99"/>
<polygon fill="#63b8ff" stroke="#63b8ff" points="243.2,-121.92 246.78,-131.89 250.2,-121.86 243.2,-121.92"/>
</a>
</g>
</g>
<!-- Node13&#45;&gt;Node12 -->
<g id="edge17_Node000013_Node000012" class="edge">
<title>Node13&#45;&gt;Node12</title>
<g id="a_edge17_Node000013_Node000012"><a xlink:title=" ">
<path fill="none" stroke="#63b8ff" d="M323.95,-141.39C450.26,-133.5 711.44,-116.31 932,-96 947.45,-94.58 963.95,-92.88 979.74,-91.16"/>
<polygon fill="#63b8ff" stroke="#63b8ff" points="323.38,-137.91 313.62,-142.03 323.82,-144.9 323.38,-137.91"/>
</a>
</g>
</g>
<!-- Node14 -->
<g id="Node000014" class="node">
<title>Node14</title>
<g id="a_Node000014"><a xlink:href="MathUtils__utest_8cpp.html" target="_top" xlink:title=" ">
<polygon fill="white" stroke="#666666" points="144,-96 0,-96 0,-66 144,-66 144,-96"/>
<text text-anchor="start" x="8" y="-84" font-family="Helvetica,sans-Serif" font-size="10.00">App/Test/Source/MathUtils</text>
<text text-anchor="middle" x="72" y="-73" font-family="Helvetica,sans-Serif" font-size="10.00">_utest.cpp</text>
</a>
</g>
</g>
<!-- Node13&#45;&gt;Node14 -->
<g id="edge15_Node000013_Node000014" class="edge">
<title>Node13&#45;&gt;Node14</title>
<g id="a_edge15_Node000013_Node000014"><a xlink:title=" ">
<path fill="none" stroke="#63b8ff" d="M199.76,-128.46C171.68,-118.25 136.76,-105.55 110.53,-96.01"/>
<polygon fill="#63b8ff" stroke="#63b8ff" points="198.78,-131.83 209.38,-131.95 201.17,-125.25 198.78,-131.83"/>
</a>
</g>
</g>
<!-- Node15&#45;&gt;Node3 -->
<g id="edge42_Node000015_Node000003" class="edge">
<title>Node15&#45;&gt;Node3</title>
<g id="a_edge42_Node000015_Node000003"><a xlink:title=" ">
<path fill="none" stroke="#63b8ff" d="M1202.49,-212.52C1099.82,-211.6 923.58,-203.75 877,-162 858.5,-145.42 856.37,-114.42 856.91,-96.26"/>
<polygon fill="#63b8ff" stroke="#63b8ff" points="1202.47,-216.02 1212.5,-212.59 1202.52,-209.02 1202.47,-216.02"/>
</a>
</g>
</g>
<!-- Node15&#45;&gt;Node4 -->
<g id="edge45_Node000015_Node000004" class="edge">
<title>Node15&#45;&gt;Node4</title>
<g id="a_edge45_Node000015_Node000004"><a xlink:title=" ">
<path fill="none" stroke="#63b8ff" d="M1353.71,-200.19C1359.22,-199.42 1364.69,-198.68 1370,-198 1523.36,-178.36 1574.79,-224.96 1716,-162 1764.96,-140.17 1818.53,-110.73 1789,-66 1777.62,-48.76 1758.95,-37.45 1739.82,-30.03"/>
<polygon fill="#63b8ff" stroke="#63b8ff" points="1353.19,-196.73 1343.78,-201.6 1354.17,-203.66 1353.19,-196.73"/>
</a>
</g>
</g>
<!-- Node15&#45;&gt;Node7 -->
<g id="edge46_Node000015_Node000007" class="edge">
<title>Node15&#45;&gt;Node7</title>
<g id="a_edge46_Node000015_Node000007"><a xlink:title=" ">
<path fill="none" stroke="#63b8ff" d="M1307.33,-192.05C1320.06,-183.15 1334.99,-172.34 1348,-162 1363.78,-149.46 1364.47,-141.94 1382,-132 1427.85,-106.01 1463.9,-138.55 1495,-96 1502.87,-85.24 1503.99,-75.85 1495,-66 1478.95,-48.4 1152.56,-27.57 1013.68,-19.47"/>
<polygon fill="#63b8ff" stroke="#63b8ff" points="1305.15,-189.31 1298.93,-197.89 1309.14,-195.06 1305.15,-189.31"/>
</a>
</g>
</g>
<!-- Node15&#45;&gt;Node9 -->
<g id="edge43_Node000015_Node000009" class="edge">
<title>Node15&#45;&gt;Node9</title>
<g id="a_edge43_Node000015_Node000009"><a xlink:title=" ">
<path fill="none" stroke="#63b8ff" d="M1295.05,-189.78C1308.63,-172.87 1328.67,-149.59 1349,-132 1368.35,-115.26 1393.64,-99.68 1409.61,-90.5"/>
<polygon fill="#63b8ff" stroke="#63b8ff" points="1292.03,-187.96 1288.57,-197.98 1297.52,-192.3 1292.03,-187.96"/>
</a>
</g>
</g>
<!-- Node15&#45;&gt;Node16 -->
<g id="edge20_Node000015_Node000016" class="edge">
<title>Node15&#45;&gt;Node16</title>
<g id="a_edge20_Node000015_Node000016"><a xlink:title=" ">
<path fill="none" stroke="#63b8ff" d="M1201.91,-206.43C1089.6,-198.01 872.88,-180.99 689,-162 672.99,-160.35 655.76,-158.36 639.63,-156.41"/>
<polygon fill="#63b8ff" stroke="#63b8ff" points="1201.88,-209.94 1212.12,-207.2 1202.41,-202.96 1201.88,-209.94"/>
</a>
</g>
</g>
<!-- Node17 -->
<g id="Node000017" class="node">
<title>Node17</title>
<g id="a_Node000017"><a xlink:href="MeshIntegrity_8h.html" target="_top" xlink:title=" ">
<polygon fill="white" stroke="#666666" points="1706.5,-162 1575.5,-162 1575.5,-132 1706.5,-132 1706.5,-162"/>
<text text-anchor="start" x="1583.5" y="-150" font-family="Helvetica,sans-Serif" font-size="10.00">App/Include/Application</text>
<text text-anchor="middle" x="1641" y="-139" font-family="Helvetica,sans-Serif" font-size="10.00">/MeshIntegrity.h</text>
</a>
</g>
</g>
<!-- Node15&#45;&gt;Node17 -->
<g id="edge23_Node000015_Node000017" class="edge">
<title>Node15&#45;&gt;Node17</title>
<g id="a_edge23_Node000015_Node000017"><a xlink:title=" ">
<path fill="none" stroke="#63b8ff" d="M1354.1,-198.68C1355.41,-198.45 1356.71,-198.22 1358,-198 1450.87,-181.88 1474.25,-178.76 1567,-162 1569.7,-161.51 1572.46,-161.01 1575.24,-160.5"/>
<polygon fill="#63b8ff" stroke="#63b8ff" points="1353.17,-195.29 1343.92,-200.45 1354.37,-202.18 1353.17,-195.29"/>
</a>
</g>
</g>
<!-- Node19 -->
<g id="Node000019" class="node">
<title>Node19</title>
<g id="a_Node000019"><a xlink:href="MeshLoader_8h.html" target="_top" xlink:title=" ">
<polygon fill="white" stroke="#666666" points="1296.5,-162 1165.5,-162 1165.5,-132 1296.5,-132 1296.5,-162"/>
<text text-anchor="start" x="1173.5" y="-150" font-family="Helvetica,sans-Serif" font-size="10.00">App/Include/Application</text>
<text text-anchor="middle" x="1231" y="-139" font-family="Helvetica,sans-Serif" font-size="10.00">/MeshLoader.h</text>
</a>
</g>
</g>
<!-- Node15&#45;&gt;Node19 -->
<g id="edge28_Node000015_Node000019" class="edge">
<title>Node15&#45;&gt;Node19</title>
<g id="a_edge28_Node000015_Node000019"><a xlink:title=" ">
<path fill="none" stroke="#63b8ff" d="M1261.5,-189.53C1254.81,-180.43 1247.3,-170.19 1241.4,-162.16"/>
<polygon fill="#63b8ff" stroke="#63b8ff" points="1258.83,-191.81 1267.57,-197.8 1264.47,-187.66 1258.83,-191.81"/>
</a>
</g>
</g>
<!-- Node15&#45;&gt;Node20 -->
<g id="edge32_Node000015_Node000020" class="edge">
<title>Node15&#45;&gt;Node20</title>
<g id="a_edge32_Node000015_Node000020"><a xlink:title=" ">
<path fill="none" stroke="#63b8ff" d="M1202.39,-204.64C1115.66,-195.89 969.27,-180.16 844,-162 839.4,-161.33 834.65,-160.6 829.87,-159.84"/>
<polygon fill="#63b8ff" stroke="#63b8ff" points="1202.11,-208.13 1212.41,-205.65 1202.81,-201.17 1202.11,-208.13"/>
</a>
</g>
</g>
<!-- Node22 -->
<g id="Node000022" class="node">
<title>Node22</title>
<g id="a_Node000022"><a xlink:href="MeshCirculator_8cpp.html" target="_top" xlink:title=" ">
<polygon fill="white" stroke="#666666" points="1557.5,-156.5 1390.5,-156.5 1390.5,-137.5 1557.5,-137.5 1557.5,-156.5"/>
<text text-anchor="middle" x="1474" y="-144.5" font-family="Helvetica,sans-Serif" font-size="10.00">App/Source/MeshCirculator.cpp</text>
</a>
</g>
</g>
<!-- Node15&#45;&gt;Node22 -->
<g id="edge44_Node000015_Node000022" class="edge">
<title>Node15&#45;&gt;Node22</title>
<g id="a_edge44_Node000015_Node000022"><a xlink:title=" ">
<path fill="none" stroke="#63b8ff" d="M1330.87,-194.74C1368.76,-182.36 1418.17,-166.23 1447.92,-156.52"/>
<polygon fill="#63b8ff" stroke="#63b8ff" points="1329.43,-191.52 1321.01,-197.95 1331.61,-198.18 1329.43,-191.52"/>
</a>
</g>
</g>
<!-- Node16&#45;&gt;Node5 -->
<g id="edge22_Node000016_Node000005" class="edge">
<title>Node16&#45;&gt;Node5</title>
<g id="a_edge22_Node000016_Node000005"><a xlink:title=" ">
<path fill="none" stroke="#63b8ff" d="M498.17,-144.49C417.06,-141.08 296.1,-130.22 267,-96 228.95,-51.25 313.36,-31.27 383.75,-22.53"/>
<polygon fill="#63b8ff" stroke="#63b8ff" points="498.23,-147.99 508.35,-144.89 498.5,-141 498.23,-147.99"/>
</a>
</g>
</g>
<!-- Node16&#45;&gt;Node10 -->
<g id="edge21_Node000016_Node000010" class="edge">
<title>Node16&#45;&gt;Node10</title>
<g id="a_edge21_Node000016_Node000010"><a xlink:title=" ">
<path fill="none" stroke="#63b8ff" d="M516.53,-129.05C474.44,-116.64 419.09,-100.31 385.88,-90.52"/>
<polygon fill="#63b8ff" stroke="#63b8ff" points="515.8,-132.48 526.38,-131.95 517.78,-125.77 515.8,-132.48"/>
</a>
</g>
</g>
<!-- Node17&#45;&gt;Node6 -->
<g id="edge25_Node000017_Node000006" class="edge">
<title>Node17&#45;&gt;Node6</title>
<g id="a_edge25_Node000017_Node000006"><a xlink:title=" ">
<path fill="none" stroke="#63b8ff" d="M1625.67,-123.38C1612.1,-105.13 1590.65,-80.23 1566,-66 1525.94,-42.87 1475.82,-30.43 1434.16,-23.75"/>
<polygon fill="#63b8ff" stroke="#63b8ff" points="1622.99,-125.66 1631.67,-131.73 1628.67,-121.57 1622.99,-125.66"/>
</a>
</g>
</g>
<!-- Node17&#45;&gt;Node7 -->
<g id="edge27_Node000017_Node000007" class="edge">
<title>Node17&#45;&gt;Node7</title>
<g id="a_edge27_Node000017_Node000007"><a xlink:title=" ">
<path fill="none" stroke="#63b8ff" d="M1610.11,-126.21C1596.42,-117.23 1580.23,-106.33 1566,-96 1548.59,-83.36 1548,-73.93 1528,-66 1481.08,-47.4 1152.36,-27.16 1013.58,-19.34"/>
<polygon fill="#63b8ff" stroke="#63b8ff" points="1608.4,-129.27 1618.69,-131.8 1612.23,-123.41 1608.4,-129.27"/>
</a>
</g>
</g>
<!-- Node17&#45;&gt;Node12 -->
<g id="edge26_Node000017_Node000012" class="edge">
<title>Node17&#45;&gt;Node12</title>
<g id="a_edge26_Node000017_Node000012"><a xlink:title=" ">
<path fill="none" stroke="#63b8ff" d="M1565.17,-131.84C1379.19,-106.93 1329.13,-118.37 1146,-96 1142.78,-95.61 1139.49,-95.18 1136.17,-94.74"/>
<polygon fill="#63b8ff" stroke="#63b8ff" points="1564.91,-135.33 1575.29,-133.21 1565.85,-128.4 1564.91,-135.33"/>
</a>
</g>
</g>
<!-- Node18 -->
<g id="Node000018" class="node">
<title>Node18</title>
<g id="a_Node000018"><a xlink:href="MeshIntegrity_8cpp.html" target="_top" xlink:title=" ">
<polygon fill="white" stroke="#666666" points="1779.5,-90.5 1618.5,-90.5 1618.5,-71.5 1779.5,-71.5 1779.5,-90.5"/>
<text text-anchor="middle" x="1699" y="-78.5" font-family="Helvetica,sans-Serif" font-size="10.00">App/Source/MeshIntegrity.cpp</text>
</a>
</g>
</g>
<!-- Node17&#45;&gt;Node18 -->
<g id="edge24_Node000017_Node000018" class="edge">
<title>Node17&#45;&gt;Node18</title>
<g id="a_edge24_Node000017_Node000018"><a xlink:title=" ">
<path fill="none" stroke="#63b8ff" d="M1660.69,-124.27C1671.05,-112.84 1683.19,-99.44 1690.98,-90.84"/>
<polygon fill="#63b8ff" stroke="#63b8ff" points="1657.99,-122.04 1653.87,-131.8 1663.18,-126.74 1657.99,-122.04"/>
</a>
</g>
</g>
<!-- Node19&#45;&gt;Node7 -->
<g id="edge31_Node000019_Node000007" class="edge">
<title>Node19&#45;&gt;Node7</title>
<g id="a_edge31_Node000019_Node000007"><a xlink:title=" ">
<path fill="none" stroke="#63b8ff" d="M1274.77,-127.35C1305.12,-111.84 1336.8,-88.7 1317,-66 1278.37,-21.72 1107.15,-15.25 1013.58,-15.12"/>
<polygon fill="#63b8ff" stroke="#63b8ff" points="1272.9,-124.37 1265.45,-131.91 1275.97,-130.66 1272.9,-124.37"/>
</a>
</g>
</g>
<!-- Node19&#45;&gt;Node11 -->
<g id="edge29_Node000019_Node000011" class="edge">
<title>Node19&#45;&gt;Node11</title>
<g id="a_edge29_Node000019_Node000011"><a xlink:title=" ">
<path fill="none" stroke="#63b8ff" d="M1231,-121.6C1231,-110.8 1231,-98.78 1231,-90.84"/>
<polygon fill="#63b8ff" stroke="#63b8ff" points="1227.5,-121.8 1231,-131.8 1234.5,-121.8 1227.5,-121.8"/>
</a>
</g>
</g>
<!-- Node19&#45;&gt;Node12 -->
<g id="edge30_Node000019_Node000012" class="edge">
<title>Node19&#45;&gt;Node12</title>
<g id="a_edge30_Node000019_Node000012"><a xlink:title=" ">
<path fill="none" stroke="#63b8ff" d="M1183.58,-128.46C1155.98,-118.25 1121.66,-105.55 1095.88,-96.01"/>
<polygon fill="#63b8ff" stroke="#63b8ff" points="1182.44,-131.77 1193.03,-131.95 1184.87,-125.2 1182.44,-131.77"/>
</a>
</g>
</g>
<!-- Node20&#45;&gt;Node3 -->
<g id="edge33_Node000020_Node000003" class="edge">
<title>Node20&#45;&gt;Node3</title>
<g id="a_edge33_Node000020_Node000003"><a xlink:title=" ">
<path fill="none" stroke="#63b8ff" d="M793.33,-126.03C807.56,-116.34 824.31,-104.94 837.2,-96.16"/>
<polygon fill="#63b8ff" stroke="#63b8ff" points="791.16,-123.28 784.86,-131.8 795.1,-129.06 791.16,-123.28"/>
</a>
</g>
</g>
<!-- Node20&#45;&gt;Node5 -->
<g id="edge38_Node000020_Node000005" class="edge">
<title>Node20&#45;&gt;Node5</title>
<g id="a_edge38_Node000020_Node000005"><a xlink:title=" ">
<path fill="none" stroke="#63b8ff" d="M688.37,-134.34C619.16,-123.13 525.39,-106.42 511,-96 488.41,-79.64 475.68,-48.27 469.88,-30.05"/>
<polygon fill="#63b8ff" stroke="#63b8ff" points="687.96,-137.82 698.39,-135.95 689.07,-130.9 687.96,-137.82"/>
</a>
</g>
</g>
<!-- Node20&#45;&gt;Node7 -->
<g id="edge40_Node000020_Node000007" class="edge">
<title>Node20&#45;&gt;Node7</title>
<g id="a_edge40_Node000020_Node000007"><a xlink:title=" ">
<path fill="none" stroke="#63b8ff" d="M763.63,-121.76C764.66,-104.13 768.94,-80.85 783,-66 810.56,-36.9 854.17,-24.49 890.18,-19.3"/>
<polygon fill="#63b8ff" stroke="#63b8ff" points="760.13,-121.78 763.34,-131.88 767.12,-121.98 760.13,-121.78"/>
</a>
</g>
</g>
<!-- Node20&#45;&gt;Node8 -->
<g id="edge41_Node000020_Node000008" class="edge">
<title>Node20&#45;&gt;Node8</title>
<g id="a_edge41_Node000020_Node000008"><a xlink:title=" ">
<path fill="none" stroke="#63b8ff" d="M688.12,-135.13C621.5,-124.81 533.57,-108.98 523,-96 484.38,-48.54 578.35,-29 649.41,-21.12"/>
<polygon fill="#63b8ff" stroke="#63b8ff" points="687.79,-138.62 698.2,-136.67 688.85,-131.7 687.79,-138.62"/>
</a>
</g>
</g>
<!-- Node20&#45;&gt;Node9 -->
<g id="edge34_Node000020_Node000009" class="edge">
<title>Node20&#45;&gt;Node9</title>
<g id="a_edge34_Node000020_Node000009"><a xlink:title=" ">
<path fill="none" stroke="#63b8ff" d="M839.97,-136.15C852.34,-134.67 865.02,-133.23 877,-132 1072.18,-111.93 1121.88,-116.62 1317,-96 1332.32,-94.38 1348.84,-92.37 1364.23,-90.39"/>
<polygon fill="#63b8ff" stroke="#63b8ff" points="839.18,-132.72 829.68,-137.39 840.02,-139.67 839.18,-132.72"/>
</a>
</g>
</g>
<!-- Node20&#45;&gt;Node10 -->
<g id="edge35_Node000020_Node000010" class="edge">
<title>Node20&#45;&gt;Node10</title>
<g id="a_edge35_Node000020_Node000010"><a xlink:title=" ">
<path fill="none" stroke="#63b8ff" d="M688.08,-134.06C607.6,-121.41 482.5,-101.73 411.35,-90.55"/>
<polygon fill="#63b8ff" stroke="#63b8ff" points="687.73,-137.55 698.16,-135.65 688.82,-130.64 687.73,-137.55"/>
</a>
</g>
</g>
<!-- Node20&#45;&gt;Node11 -->
<g id="edge36_Node000020_Node000011" class="edge">
<title>Node20&#45;&gt;Node11</title>
<g id="a_edge36_Node000020_Node000011"><a xlink:title=" ">
<path fill="none" stroke="#63b8ff" d="M839.87,-136.33C933.65,-124.32 1087.84,-104.4 1145,-96 1156.37,-94.33 1168.57,-92.42 1180.11,-90.55"/>
<polygon fill="#63b8ff" stroke="#63b8ff" points="839.34,-132.87 829.86,-137.61 840.23,-139.81 839.34,-132.87"/>
</a>
</g>
</g>
<!-- Node20&#45;&gt;Node12 -->
<g id="edge39_Node000020_Node000012" class="edge">
<title>Node20&#45;&gt;Node12</title>
<g id="a_edge39_Node000020_Node000012"><a xlink:title=" ">
<path fill="none" stroke="#63b8ff" d="M838.51,-129.78C886.37,-119.36 947.9,-105.97 993.63,-96.01"/>
<polygon fill="#63b8ff" stroke="#63b8ff" points="837.55,-126.41 828.52,-131.95 839.04,-133.25 837.55,-126.41"/>
</a>
</g>
</g>
<!-- Node21 -->
<g id="Node000021" class="node">
<title>Node21</title>
<g id="a_Node000021"><a xlink:href="PrimitiveProxy_8cpp.html" target="_top" xlink:title=" ">
<polygon fill="white" stroke="#666666" points="697.5,-90.5 532.5,-90.5 532.5,-71.5 697.5,-71.5 697.5,-90.5"/>
<text text-anchor="middle" x="615" y="-78.5" font-family="Helvetica,sans-Serif" font-size="10.00">App/Source/PrimitiveProxy.cpp</text>
</a>
</g>
</g>
<!-- Node20&#45;&gt;Node21 -->
<g id="edge37_Node000020_Node000021" class="edge">
<title>Node20&#45;&gt;Node21</title>
<g id="a_edge37_Node000020_Node000021"><a xlink:title=" ">
<path fill="none" stroke="#63b8ff" d="M721.96,-127.94C693.41,-115.68 656.96,-100.02 634.83,-90.52"/>
<polygon fill="#63b8ff" stroke="#63b8ff" points="720.73,-131.22 731.3,-131.95 723.49,-124.79 720.73,-131.22"/>
</a>
</g>
</g>
<!-- Node23&#45;&gt;Node15 -->
<g id="edge49_Node000023_Node000015" class="edge">
<title>Node23&#45;&gt;Node15</title>
<g id="a_edge49_Node000023_Node000015"><a xlink:title=" ">
<path fill="none" stroke="#63b8ff" d="M1342.67,-258.03C1328.44,-248.34 1311.69,-236.94 1298.8,-228.16"/>
<polygon fill="#63b8ff" stroke="#63b8ff" points="1340.9,-261.06 1351.14,-263.8 1344.84,-255.28 1340.9,-261.06"/>
</a>
</g>
</g>
<!-- Node24 -->
<g id="Node000024" class="node">
<title>Node24</title>
<g id="a_Node000024"><a xlink:href="VertexPair_8h.html" target="_top" xlink:title=" ">
<polygon fill="white" stroke="#666666" points="1967.5,-162 1836.5,-162 1836.5,-132 1967.5,-132 1967.5,-162"/>
<text text-anchor="start" x="1844.5" y="-150" font-family="Helvetica,sans-Serif" font-size="10.00">App/Include/Application</text>
<text text-anchor="middle" x="1902" y="-139" font-family="Helvetica,sans-Serif" font-size="10.00">/VertexPair.h</text>
</a>
</g>
</g>
<!-- Node23&#45;&gt;Node24 -->
<g id="edge50_Node000023_Node000024" class="edge">
<title>Node23&#45;&gt;Node24</title>
<g id="a_edge50_Node000023_Node000024"><a xlink:title=" ">
<path fill="none" stroke="#63b8ff" d="M1371.09,-253.73C1371.83,-235.53 1376.12,-211.5 1392,-198 1428.53,-166.94 1774.45,-168.14 1822,-162 1826.61,-161.4 1831.37,-160.73 1836.15,-160.01"/>
<polygon fill="#63b8ff" stroke="#63b8ff" points="1367.59,-253.89 1371.01,-263.92 1374.59,-253.94 1367.59,-253.89"/>
</a>
</g>
</g>
<!-- Node27 -->
<g id="Node000027" class="node">
<title>Node27</title>
<g id="a_Node000027"><a xlink:href="Primitive_8cpp.html" target="_top" xlink:title=" ">
<polygon fill="white" stroke="#666666" points="1539.5,-222.5 1400.5,-222.5 1400.5,-203.5 1539.5,-203.5 1539.5,-222.5"/>
<text text-anchor="middle" x="1470" y="-210.5" font-family="Helvetica,sans-Serif" font-size="10.00">App/Source/Primitive.cpp</text>
</a>
</g>
</g>
<!-- Node23&#45;&gt;Node27 -->
<g id="edge55_Node000023_Node000027" class="edge">
<title>Node23&#45;&gt;Node27</title>
<g id="a_edge55_Node000023_Node000027"><a xlink:title=" ">
<path fill="none" stroke="#63b8ff" d="M1402.32,-258.2C1420.56,-246.29 1442.85,-231.73 1456.74,-222.66"/>
<polygon fill="#63b8ff" stroke="#63b8ff" points="1400.21,-255.4 1393.75,-263.8 1404.04,-261.26 1400.21,-255.4"/>
</a>
</g>
</g>
<!-- Node28 -->
<g id="Node000028" class="node">
<title>Node28</title>
<g id="a_Node000028"><a xlink:href="Primitive__utest_8cpp.html" target="_top" xlink:title=" ">
<polygon fill="white" stroke="#666666" points="1698.5,-228 1557.5,-228 1557.5,-198 1698.5,-198 1698.5,-228"/>
<text text-anchor="start" x="1565.5" y="-216" font-family="Helvetica,sans-Serif" font-size="10.00">App/Test/Source/Primitive</text>
<text text-anchor="middle" x="1628" y="-205" font-family="Helvetica,sans-Serif" font-size="10.00">_utest.cpp</text>
</a>
</g>
</g>
<!-- Node23&#45;&gt;Node28 -->
<g id="edge56_Node000023_Node000028" class="edge">
<title>Node23&#45;&gt;Node28</title>
<g id="a_edge56_Node000023_Node000028"><a xlink:title=" ">
<path fill="none" stroke="#63b8ff" d="M1437.93,-261.52C1479.45,-251.14 1532.47,-237.88 1571.95,-228.01"/>
<polygon fill="#63b8ff" stroke="#63b8ff" points="1437.03,-258.13 1428.18,-263.95 1438.73,-264.92 1437.03,-258.13"/>
</a>
</g>
</g>
<!-- Node24&#45;&gt;Node9 -->
<g id="edge51_Node000024_Node000009" class="edge">
<title>Node24&#45;&gt;Node9</title>
<g id="a_edge51_Node000024_Node000009"><a xlink:title=" ">
<path fill="none" stroke="#63b8ff" d="M1826.12,-135.82C1731.69,-123.15 1572.34,-101.77 1485.63,-90.13"/>
<polygon fill="#63b8ff" stroke="#63b8ff" points="1825.8,-139.31 1836.18,-137.17 1826.73,-132.37 1825.8,-139.31"/>
</a>
</g>
</g>
<!-- Node24&#45;&gt;Node11 -->
<g id="edge52_Node000024_Node000011" class="edge">
<title>Node24&#45;&gt;Node11</title>
<g id="a_edge52_Node000024_Node000011"><a xlink:title=" ">
<path fill="none" stroke="#63b8ff" d="M1826.17,-139.54C1720.69,-130.45 1523.71,-113.07 1356,-96 1339.38,-94.31 1321.53,-92.38 1304.67,-90.5"/>
<polygon fill="#63b8ff" stroke="#63b8ff" points="1826.14,-143.05 1836.4,-140.42 1826.74,-136.08 1826.14,-143.05"/>
</a>
</g>
</g>
<!-- Node25 -->
<g id="Node000025" class="node">
<title>Node25</title>
<g id="a_Node000025"><a xlink:href="VertexPair_8cpp.html" target="_top" xlink:title=" ">
<polygon fill="white" stroke="#666666" points="1979.5,-90.5 1836.5,-90.5 1836.5,-71.5 1979.5,-71.5 1979.5,-90.5"/>
<text text-anchor="middle" x="1908" y="-78.5" font-family="Helvetica,sans-Serif" font-size="10.00">App/Source/VertexPair.cpp</text>
</a>
</g>
</g>
<!-- Node24&#45;&gt;Node25 -->
<g id="edge53_Node000024_Node000025" class="edge">
<title>Node24&#45;&gt;Node25</title>
<g id="a_edge53_Node000024_Node000025"><a xlink:title=" ">
<path fill="none" stroke="#63b8ff" d="M1904.29,-121.6C1905.3,-110.8 1906.43,-98.78 1907.17,-90.84"/>
<polygon fill="#63b8ff" stroke="#63b8ff" points="1900.78,-121.51 1903.33,-131.8 1907.75,-122.17 1900.78,-121.51"/>
</a>
</g>
</g>
<!-- Node26 -->
<g id="Node000026" class="node">
<title>Node26</title>
<g id="a_Node000026"><a xlink:href="VertexPair__utest_8cpp.html" target="_top" xlink:title=" ">
<polygon fill="white" stroke="#666666" points="2144,-96 1998,-96 1998,-66 2144,-66 2144,-96"/>
<text text-anchor="start" x="2006" y="-84" font-family="Helvetica,sans-Serif" font-size="10.00">App/Test/Source/VertexPair</text>
<text text-anchor="middle" x="2071" y="-73" font-family="Helvetica,sans-Serif" font-size="10.00">_utest.cpp</text>
</a>
</g>
</g>
<!-- Node24&#45;&gt;Node26 -->
<g id="edge54_Node000024_Node000026" class="edge">
<title>Node24&#45;&gt;Node26</title>
<g id="a_edge54_Node000024_Node000026"><a xlink:title=" ">
<path fill="none" stroke="#63b8ff" d="M1948.68,-128.32C1975.58,-118.14 2008.92,-105.51 2034,-96.01"/>
<polygon fill="#63b8ff" stroke="#63b8ff" points="1947.2,-125.14 1939.09,-131.95 1949.68,-131.69 1947.2,-125.14"/>
</a>
</g>
</g>
</g>
</svg>
