<?xml version="1.0" encoding="UTF-8" standalone="no"?>
<!DOCTYPE svg PUBLIC "-//W3C//DTD SVG 1.1//EN"
 "http://www.w3.org/Graphics/SVG/1.1/DTD/svg11.dtd">
<!-- Generated by graphviz version 2.43.0 (0)
 -->
<!-- Title: App/Include/Application/BaseType.h Pages: 1 -->
<svg width="1972pt" height="368pt"
 viewBox="0.00 0.00 1972.10 368.00" xmlns="http://www.w3.org/2000/svg" xmlns:xlink="http://www.w3.org/1999/xlink">
<g id="graph0" class="graph" transform="scale(1 1) rotate(0) translate(4 364)">
<title>App/Include/Application/BaseType.h</title>
<!-- Node1 -->
<g id="Node000001" class="node">
<title>Node1</title>
<g id="a_Node000001"><a xlink:title=" ">
<polygon fill="#999999" stroke="#666666" points="501.6,-360 370.6,-360 370.6,-330 501.6,-330 501.6,-360"/>
<text text-anchor="start" x="378.6" y="-348" font-family="Helvetica,sans-Serif" font-size="10.00">App/Include/Application</text>
<text text-anchor="middle" x="436.1" y="-337" font-family="Helvetica,sans-Serif" font-size="10.00">/BaseType.h</text>
</a>
</g>
</g>
<!-- Node2 -->
<g id="Node000002" class="node">
<title>Node2</title>
<g id="a_Node000002"><a xlink:href="ExtraDataType_8h.html" target="_top" xlink:title=" ">
<polygon fill="white" stroke="#666666" points="501.6,-162 370.6,-162 370.6,-132 501.6,-132 501.6,-162"/>
<text text-anchor="start" x="378.6" y="-150" font-family="Helvetica,sans-Serif" font-size="10.00">App/Include/Application</text>
<text text-anchor="middle" x="436.1" y="-139" font-family="Helvetica,sans-Serif" font-size="10.00">/ExtraDataType.h</text>
</a>
</g>
</g>
<!-- Node1&#45;&gt;Node2 -->
<g id="edge1_Node000001_Node000002" class="edge">
<title>Node1&#45;&gt;Node2</title>
<g id="a_edge1_Node000001_Node000002"><a xlink:title=" ">
<path fill="none" stroke="#63b8ff" d="M436.1,-319.89C436.1,-278.58 436.1,-195.48 436.1,-162.23"/>
<polygon fill="#63b8ff" stroke="#63b8ff" points="432.6,-319.9 436.1,-329.9 439.6,-319.9 432.6,-319.9"/>
</a>
</g>
</g>
<!-- Node5 -->
<g id="Node000005" class="node">
<title>Node5</title>
<g id="a_Node000005"><a xlink:href="MathUtils_8h.html" target="_top" xlink:title=" ">
<polygon fill="white" stroke="#666666" points="158.6,-294 27.6,-294 27.6,-264 158.6,-264 158.6,-294"/>
<text text-anchor="start" x="35.6" y="-282" font-family="Helvetica,sans-Serif" font-size="10.00">App/Include/Application</text>
<text text-anchor="middle" x="93.1" y="-271" font-family="Helvetica,sans-Serif" font-size="10.00">/MathUtils.h</text>
</a>
</g>
</g>
<!-- Node1&#45;&gt;Node5 -->
<g id="edge4_Node000001_Node000005" class="edge">
<title>Node1&#45;&gt;Node5</title>
<g id="a_edge4_Node000001_Node000005"><a xlink:title=" ">
<path fill="none" stroke="#63b8ff" d="M360.51,-329.89C300.07,-318.62 216.22,-302.97 158.61,-292.22"/>
<polygon fill="#63b8ff" stroke="#63b8ff" points="359.9,-333.34 370.38,-331.74 361.19,-326.46 359.9,-333.34"/>
</a>
</g>
</g>
<!-- Node7 -->
<g id="Node000007" class="node">
<title>Node7</title>
<g id="a_Node000007"><a xlink:href="Mesh_8h.html" target="_top" xlink:title=" ">
<polygon fill="white" stroke="#666666" points="894.6,-228 763.6,-228 763.6,-198 894.6,-198 894.6,-228"/>
<text text-anchor="start" x="771.6" y="-216" font-family="Helvetica,sans-Serif" font-size="10.00">App/Include/Application</text>
<text text-anchor="middle" x="829.1" y="-205" font-family="Helvetica,sans-Serif" font-size="10.00">/Mesh.h</text>
</a>
</g>
</g>
<!-- Node1&#45;&gt;Node7 -->
<g id="edge7_Node000001_Node000007" class="edge">
<title>Node1&#45;&gt;Node7</title>
<g id="a_edge7_Node000001_Node000007"><a xlink:title=" ">
<path fill="none" stroke="#63b8ff" d="M488.23,-326.76C566.79,-300.77 714.05,-252.06 786.55,-228.08"/>
<polygon fill="#63b8ff" stroke="#63b8ff" points="486.93,-323.5 478.54,-329.96 489.13,-330.15 486.93,-323.5"/>
</a>
</g>
</g>
<!-- Node8 -->
<g id="Node000008" class="node">
<title>Node8</title>
<g id="a_Node000008"><a xlink:href="MeshExporter_8h.html" target="_top" xlink:title=" ">
<polygon fill="white" stroke="#666666" points="352.6,-162 221.6,-162 221.6,-132 352.6,-132 352.6,-162"/>
<text text-anchor="start" x="229.6" y="-150" font-family="Helvetica,sans-Serif" font-size="10.00">App/Include/Application</text>
<text text-anchor="middle" x="287.1" y="-139" font-family="Helvetica,sans-Serif" font-size="10.00">/MeshExporter.h</text>
</a>
</g>
</g>
<!-- Node1&#45;&gt;Node8 -->
<g id="edge38_Node000001_Node000008" class="edge">
<title>Node1&#45;&gt;Node8</title>
<g id="a_edge38_Node000001_Node000008"><a xlink:title=" ">
<path fill="none" stroke="#63b8ff" d="M419.16,-321.71C388.26,-281.07 323.58,-195.98 297.92,-162.23"/>
<polygon fill="#63b8ff" stroke="#63b8ff" points="416.55,-324.06 425.39,-329.9 422.12,-319.83 416.55,-324.06"/>
</a>
</g>
</g>
<!-- Node9 -->
<g id="Node000009" class="node">
<title>Node9</title>
<g id="a_Node000009"><a xlink:href="MeshExporter_8cpp.html" target="_top" xlink:title=" ">
<polygon fill="white" stroke="#666666" points="258.6,-90.5 97.6,-90.5 97.6,-71.5 258.6,-71.5 258.6,-90.5"/>
<text text-anchor="middle" x="178.1" y="-78.5" font-family="Helvetica,sans-Serif" font-size="10.00">App/Source/MeshExporter.cpp</text>
</a>
</g>
</g>
<!-- Node1&#45;&gt;Node9 -->
<g id="edge49_Node000001_Node000009" class="edge">
<title>Node1&#45;&gt;Node9</title>
<g id="a_edge49_Node000001_Node000009"><a xlink:title=" ">
<path fill="none" stroke="#63b8ff" d="M403.23,-324.65C355.39,-295.04 266.4,-234.25 212.1,-162 194.88,-139.08 184.49,-106.11 180.28,-90.64"/>
<polygon fill="#63b8ff" stroke="#63b8ff" points="401.59,-327.75 411.94,-329.98 405.24,-321.78 401.59,-327.75"/>
</a>
</g>
</g>
<!-- Node17 -->
<g id="Node000017" class="node">
<title>Node17</title>
<g id="a_Node000017"><a xlink:href="PrimitiveProxy_8h.html" target="_top" xlink:title=" ">
<polygon fill="white" stroke="#666666" points="1257.6,-162 1126.6,-162 1126.6,-132 1257.6,-132 1257.6,-162"/>
<text text-anchor="start" x="1134.6" y="-150" font-family="Helvetica,sans-Serif" font-size="10.00">App/Include/Application</text>
<text text-anchor="middle" x="1192.1" y="-139" font-family="Helvetica,sans-Serif" font-size="10.00">/PrimitiveProxy.h</text>
</a>
</g>
</g>
<!-- Node1&#45;&gt;Node17 -->
<g id="edge48_Node000001_Node000017" class="edge">
<title>Node1&#45;&gt;Node17</title>
<g id="a_edge48_Node000001_Node000017"><a xlink:title=" ">
<path fill="none" stroke="#63b8ff" d="M506.57,-327.67C547.62,-318.06 600.35,-305.57 647.1,-294 761.17,-265.79 790.25,-260.72 903.1,-228 944.82,-215.91 954.38,-210.04 996.1,-198 1041.82,-184.81 1094.06,-171.57 1133.1,-162.04"/>
<polygon fill="#63b8ff" stroke="#63b8ff" points="505.61,-324.3 496.66,-329.98 507.2,-331.11 505.61,-324.3"/>
</a>
</g>
</g>
<!-- Node23 -->
<g id="Node000023" class="node">
<title>Node23</title>
<g id="a_Node000023"><a xlink:href="Primitive_8h.html" target="_top" xlink:title=" ">
<polygon fill="white" stroke="#666666" points="1082.6,-294 951.6,-294 951.6,-264 1082.6,-264 1082.6,-294"/>
<text text-anchor="start" x="959.6" y="-282" font-family="Helvetica,sans-Serif" font-size="10.00">App/Include/Application</text>
<text text-anchor="middle" x="1017.1" y="-271" font-family="Helvetica,sans-Serif" font-size="10.00">/Primitive.h</text>
</a>
</g>
</g>
<!-- Node1&#45;&gt;Node23 -->
<g id="edge39_Node000001_Node000023" class="edge">
<title>Node1&#45;&gt;Node23</title>
<g id="a_edge39_Node000001_Node000023"><a xlink:title=" ">
<path fill="none" stroke="#63b8ff" d="M512.08,-338.17C610.42,-330.23 786.97,-314.6 937.1,-294 941.71,-293.37 946.47,-292.67 951.24,-291.92"/>
<polygon fill="#63b8ff" stroke="#63b8ff" points="511.63,-334.7 501.94,-338.99 512.19,-341.68 511.63,-334.7"/>
</a>
</g>
</g>
<!-- Node3 -->
<g id="Node000003" class="node">
<title>Node3</title>
<g id="a_Node000003"><a xlink:href="Mesh_8cpp.html" target="_top" xlink:title=" ">
<polygon fill="white" stroke="#666666" points="980.6,-90.5 859.6,-90.5 859.6,-71.5 980.6,-71.5 980.6,-90.5"/>
<text text-anchor="middle" x="920.1" y="-78.5" font-family="Helvetica,sans-Serif" font-size="10.00">App/Source/Mesh.cpp</text>
</a>
</g>
</g>
<!-- Node2&#45;&gt;Node3 -->
<g id="edge2_Node000002_Node000003" class="edge">
<title>Node2&#45;&gt;Node3</title>
<g id="a_edge2_Node000002_Node000003"><a xlink:title=" ">
<path fill="none" stroke="#63b8ff" d="M511.55,-136.02C607.44,-123.34 771.08,-101.71 859.36,-90.03"/>
<polygon fill="#63b8ff" stroke="#63b8ff" points="511.09,-132.55 501.63,-137.34 512,-139.49 511.09,-132.55"/>
</a>
</g>
</g>
<!-- Node4 -->
<g id="Node000004" class="node">
<title>Node4</title>
<g id="a_Node000004"><a xlink:href="Mesh__utest_8cpp.html" target="_top" xlink:title=" ">
<polygon fill="white" stroke="#666666" points="424.6,-30 301.6,-30 301.6,0 424.6,0 424.6,-30"/>
<text text-anchor="start" x="309.6" y="-18" font-family="Helvetica,sans-Serif" font-size="10.00">App/Test/Source/Mesh</text>
<text text-anchor="middle" x="363.1" y="-7" font-family="Helvetica,sans-Serif" font-size="10.00">_utest.cpp</text>
</a>
</g>
</g>
<!-- Node2&#45;&gt;Node4 -->
<g id="edge3_Node000002_Node000004" class="edge">
<title>Node2&#45;&gt;Node4</title>
<g id="a_edge3_Node000002_Node000004"><a xlink:title=" ">
<path fill="none" stroke="#63b8ff" d="M375.24,-128.77C347.49,-119.56 319.05,-107.73 311.1,-96 295.69,-73.23 322.13,-46.35 342.63,-30.27"/>
<polygon fill="#63b8ff" stroke="#63b8ff" points="374.4,-132.17 384.99,-131.91 376.55,-125.51 374.4,-132.17"/>
</a>
</g>
</g>
<!-- Node5&#45;&gt;Node4 -->
<g id="edge6_Node000005_Node000004" class="edge">
<title>Node5&#45;&gt;Node4</title>
<g id="a_edge6_Node000005_Node000004"><a xlink:title=" ">
<path fill="none" stroke="#63b8ff" d="M45.01,-259.03C32.01,-251.43 19.5,-241.25 12.1,-228 -22.23,-166.46 21.77,-112.77 88.1,-66 121.67,-42.34 231.05,-28.11 301.33,-21.18"/>
<polygon fill="#63b8ff" stroke="#63b8ff" points="43.57,-262.23 54.03,-263.89 46.89,-256.07 43.57,-262.23"/>
</a>
</g>
</g>
<!-- Node6 -->
<g id="Node000006" class="node">
<title>Node6</title>
<g id="a_Node000006"><a xlink:href="MathUtils__utest_8cpp.html" target="_top" xlink:title=" ">
<polygon fill="white" stroke="#666666" points="165.1,-228 21.1,-228 21.1,-198 165.1,-198 165.1,-228"/>
<text text-anchor="start" x="29.1" y="-216" font-family="Helvetica,sans-Serif" font-size="10.00">App/Test/Source/MathUtils</text>
<text text-anchor="middle" x="93.1" y="-205" font-family="Helvetica,sans-Serif" font-size="10.00">_utest.cpp</text>
</a>
</g>
</g>
<!-- Node5&#45;&gt;Node6 -->
<g id="edge5_Node000005_Node000006" class="edge">
<title>Node5&#45;&gt;Node6</title>
<g id="a_edge5_Node000005_Node000006"><a xlink:title=" ">
<path fill="none" stroke="#63b8ff" d="M93.1,-253.54C93.1,-244.96 93.1,-235.61 93.1,-228.16"/>
<polygon fill="#63b8ff" stroke="#63b8ff" points="89.6,-253.8 93.1,-263.8 96.6,-253.8 89.6,-253.8"/>
</a>
</g>
</g>
<!-- Node7&#45;&gt;Node3 -->
<g id="edge34_Node000007_Node000003" class="edge">
<title>Node7&#45;&gt;Node3</title>
<g id="a_edge34_Node000007_Node000003"><a xlink:title=" ">
<path fill="none" stroke="#63b8ff" d="M844.86,-189.49C865.3,-160.29 899.99,-110.74 913.98,-90.75"/>
<polygon fill="#63b8ff" stroke="#63b8ff" points="841.88,-187.64 839.02,-197.84 847.62,-191.66 841.88,-187.64"/>
</a>
</g>
</g>
<!-- Node7&#45;&gt;Node4 -->
<g id="edge37_Node000007_Node000004" class="edge">
<title>Node7&#45;&gt;Node4</title>
<g id="a_edge37_Node000007_Node000004"><a xlink:title=" ">
<path fill="none" stroke="#63b8ff" d="M753.25,-208.23C695.24,-203.07 614.4,-190.86 549.1,-162 529.1,-153.16 529.59,-141.93 510.1,-132 459.73,-106.33 428.4,-135.66 388.1,-96 370.16,-78.34 365.05,-48.02 363.63,-30.21"/>
<polygon fill="#63b8ff" stroke="#63b8ff" points="753.19,-211.74 763.44,-209.09 753.77,-204.76 753.19,-211.74"/>
</a>
</g>
</g>
<!-- Node7&#45;&gt;Node8 -->
<g id="edge8_Node000007_Node000008" class="edge">
<title>Node7&#45;&gt;Node8</title>
<g id="a_edge8_Node000007_Node000008"><a xlink:title=" ">
<path fill="none" stroke="#63b8ff" d="M753.26,-205.79C660.5,-197.76 498.82,-182.35 361.1,-162 358.39,-161.6 355.62,-161.17 352.83,-160.72"/>
<polygon fill="#63b8ff" stroke="#63b8ff" points="753.14,-209.29 763.4,-206.66 753.74,-202.32 753.14,-209.29"/>
</a>
</g>
</g>
<!-- Node11 -->
<g id="Node000011" class="node">
<title>Node11</title>
<g id="a_Node000011"><a xlink:href="MeshIntegrity_8h.html" target="_top" xlink:title=" ">
<polygon fill="white" stroke="#666666" points="689.6,-162 558.6,-162 558.6,-132 689.6,-132 689.6,-162"/>
<text text-anchor="start" x="566.6" y="-150" font-family="Helvetica,sans-Serif" font-size="10.00">App/Include/Application</text>
<text text-anchor="middle" x="624.1" y="-139" font-family="Helvetica,sans-Serif" font-size="10.00">/MeshIntegrity.h</text>
</a>
</g>
</g>
<!-- Node7&#45;&gt;Node11 -->
<g id="edge11_Node000007_Node000011" class="edge">
<title>Node7&#45;&gt;Node11</title>
<g id="a_edge11_Node000007_Node000011"><a xlink:title=" ">
<path fill="none" stroke="#63b8ff" d="M774.19,-194.86C741.27,-184.58 699.94,-171.68 668.99,-162.01"/>
<polygon fill="#63b8ff" stroke="#63b8ff" points="773.53,-198.32 784.12,-197.95 775.61,-191.63 773.53,-198.32"/>
</a>
</g>
</g>
<!-- Node15 -->
<g id="Node000015" class="node">
<title>Node15</title>
<g id="a_Node000015"><a xlink:href="MeshLoader_8h.html" target="_top" xlink:title=" ">
<polygon fill="white" stroke="#666666" points="847.6,-162 716.6,-162 716.6,-132 847.6,-132 847.6,-162"/>
<text text-anchor="start" x="724.6" y="-150" font-family="Helvetica,sans-Serif" font-size="10.00">App/Include/Application</text>
<text text-anchor="middle" x="782.1" y="-139" font-family="Helvetica,sans-Serif" font-size="10.00">/MeshLoader.h</text>
</a>
</g>
</g>
<!-- Node7&#45;&gt;Node15 -->
<g id="edge16_Node000007_Node000015" class="edge">
<title>Node7&#45;&gt;Node15</title>
<g id="a_edge16_Node000007_Node000015"><a xlink:title=" ">
<path fill="none" stroke="#63b8ff" d="M812.6,-189.53C805.92,-180.43 798.4,-170.19 792.51,-162.16"/>
<polygon fill="#63b8ff" stroke="#63b8ff" points="809.93,-191.81 818.67,-197.8 815.58,-187.66 809.93,-191.81"/>
</a>
</g>
</g>
<!-- Node7&#45;&gt;Node17 -->
<g id="edge20_Node000007_Node000017" class="edge">
<title>Node7&#45;&gt;Node17</title>
<g id="a_edge20_Node000007_Node000017"><a xlink:title=" ">
<path fill="none" stroke="#63b8ff" d="M904.7,-198.67C970.25,-187.12 1064.13,-170.56 1126.55,-159.56"/>
<polygon fill="#63b8ff" stroke="#63b8ff" points="904.08,-195.23 894.84,-200.41 905.3,-202.12 904.08,-195.23"/>
</a>
</g>
</g>
<!-- Node18 -->
<g id="Node000018" class="node">
<title>Node18</title>
<g id="a_Node000018"><a xlink:href="TestHelpers_8h.html" target="_top" xlink:title=" ">
<polygon fill="white" stroke="#666666" points="1168.6,-96 1037.6,-96 1037.6,-66 1168.6,-66 1168.6,-96"/>
<text text-anchor="start" x="1045.6" y="-84" font-family="Helvetica,sans-Serif" font-size="10.00">App/Include/Application</text>
<text text-anchor="middle" x="1103.1" y="-73" font-family="Helvetica,sans-Serif" font-size="10.00">/TestHelpers.h</text>
</a>
</g>
</g>
<!-- Node7&#45;&gt;Node18 -->
<g id="edge33_Node000007_Node000018" class="edge">
<title>Node7&#45;&gt;Node18</title>
<g id="a_edge33_Node000007_Node000018"><a xlink:title=" ">
<path fill="none" stroke="#63b8ff" d="M904.93,-197.8C977.28,-184.1 1075.8,-165.01 1079.1,-162 1097.76,-145.02 1102.15,-114.16 1103.04,-96.14"/>
<polygon fill="#63b8ff" stroke="#63b8ff" points="904.08,-194.39 894.9,-199.69 905.38,-201.27 904.08,-194.39"/>
</a>
</g>
</g>
<!-- Node19 -->
<g id="Node000019" class="node">
<title>Node19</title>
<g id="a_Node000019"><a xlink:href="MeshCirculator__utest_8cpp.html" target="_top" xlink:title=" ">
<polygon fill="white" stroke="#666666" points="1656.1,-30 1486.1,-30 1486.1,0 1656.1,0 1656.1,-30"/>
<text text-anchor="start" x="1494.1" y="-18" font-family="Helvetica,sans-Serif" font-size="10.00">App/Test/Source/MeshCirculator</text>
<text text-anchor="middle" x="1571.1" y="-7" font-family="Helvetica,sans-Serif" font-size="10.00">_utest.cpp</text>
</a>
</g>
</g>
<!-- Node7&#45;&gt;Node19 -->
<g id="edge36_Node000007_Node000019" class="edge">
<title>Node7&#45;&gt;Node19</title>
<g id="a_edge36_Node000007_Node000019"><a xlink:title=" ">
<path fill="none" stroke="#63b8ff" d="M904.92,-205.09C992.26,-196.73 1139.95,-181.33 1266.1,-162 1419.56,-138.49 1510.25,-215.69 1609.1,-96 1625.75,-75.85 1603.53,-47.18 1586.72,-30.2"/>
<polygon fill="#63b8ff" stroke="#63b8ff" points="904.46,-201.62 894.83,-206.05 905.12,-208.59 904.46,-201.62"/>
</a>
</g>
</g>
<!-- Node22 -->
<g id="Node000022" class="node">
<title>Node22</title>
<g id="a_Node000022"><a xlink:href="MeshCirculator_8cpp.html" target="_top" xlink:title=" ">
<polygon fill="white" stroke="#666666" points="1070.6,-156.5 903.6,-156.5 903.6,-137.5 1070.6,-137.5 1070.6,-156.5"/>
<text text-anchor="middle" x="987.1" y="-144.5" font-family="Helvetica,sans-Serif" font-size="10.00">App/Source/MeshCirculator.cpp</text>
</a>
</g>
</g>
<!-- Node7&#45;&gt;Node22 -->
<g id="edge35_Node000007_Node000022" class="edge">
<title>Node7&#45;&gt;Node22</title>
<g id="a_edge35_Node000007_Node000022"><a xlink:title=" ">
<path fill="none" stroke="#63b8ff" d="M873.29,-194.1C903.62,-181.82 942.51,-166.06 966.08,-156.52"/>
<polygon fill="#63b8ff" stroke="#63b8ff" points="871.73,-190.96 863.78,-197.95 874.36,-197.44 871.73,-190.96"/>
</a>
</g>
</g>
<!-- Node8&#45;&gt;Node9 -->
<g id="edge9_Node000008_Node000009" class="edge">
<title>Node8&#45;&gt;Node9</title>
<g id="a_edge9_Node000008_Node000009"><a xlink:title=" ">
<path fill="none" stroke="#63b8ff" d="M254.43,-126.81C233.85,-114.73 208.31,-99.73 192.61,-90.52"/>
<polygon fill="#63b8ff" stroke="#63b8ff" points="252.79,-129.91 263.18,-131.95 256.33,-123.87 252.79,-129.91"/>
</a>
</g>
</g>
<!-- Node10 -->
<g id="Node000010" class="node">
<title>Node10</title>
<g id="a_Node000010"><a xlink:href="MeshExporter__utest_8cpp.html" target="_top" xlink:title=" ">
<polygon fill="white" stroke="#666666" points="1185.1,-30 1021.1,-30 1021.1,0 1185.1,0 1185.1,-30"/>
<text text-anchor="start" x="1029.1" y="-18" font-family="Helvetica,sans-Serif" font-size="10.00">App/Test/Source/MeshExporter</text>
<text text-anchor="middle" x="1103.1" y="-7" font-family="Helvetica,sans-Serif" font-size="10.00">_utest.cpp</text>
</a>
</g>
</g>
<!-- Node8&#45;&gt;Node10 -->
<g id="edge10_Node000008_Node000010" class="edge">
<title>Node8&#45;&gt;Node10</title>
<g id="a_edge10_Node000008_Node000010"><a xlink:title=" ">
<path fill="none" stroke="#63b8ff" d="M312.32,-125.84C337.84,-106.69 379.26,-78.96 420.1,-66 448.29,-57.05 845.37,-31.8 1020.79,-21"/>
<polygon fill="#63b8ff" stroke="#63b8ff" points="310.12,-123.12 304.3,-131.97 314.37,-128.68 310.12,-123.12"/>
</a>
</g>
</g>
<!-- Node11&#45;&gt;Node4 -->
<g id="edge15_Node000011_Node000004" class="edge">
<title>Node11&#45;&gt;Node4</title>
<g id="a_edge15_Node000011_Node000004"><a xlink:title=" ">
<path fill="none" stroke="#63b8ff" d="M548.71,-130.19C495.22,-118.52 431.06,-103.43 420.1,-96 395.55,-79.34 378.04,-48.37 369.34,-30.24"/>
<polygon fill="#63b8ff" stroke="#63b8ff" points="548.04,-133.62 558.56,-132.32 549.53,-126.78 548.04,-133.62"/>
</a>
</g>
</g>
<!-- Node12 -->
<g id="Node000012" class="node">
<title>Node12</title>
<g id="a_Node000012"><a xlink:href="MeshIntegrity_8cpp.html" target="_top" xlink:title=" ">
<polygon fill="white" stroke="#666666" points="590.6,-90.5 429.6,-90.5 429.6,-71.5 590.6,-71.5 590.6,-90.5"/>
<text text-anchor="middle" x="510.1" y="-78.5" font-family="Helvetica,sans-Serif" font-size="10.00">App/Source/MeshIntegrity.cpp</text>
</a>
</g>
</g>
<!-- Node11&#45;&gt;Node12 -->
<g id="edge12_Node000011_Node000012" class="edge">
<title>Node11&#45;&gt;Node12</title>
<g id="a_edge12_Node000011_Node000012"><a xlink:title=" ">
<path fill="none" stroke="#63b8ff" d="M590.22,-126.97C568.65,-114.87 541.77,-99.78 525.28,-90.52"/>
<polygon fill="#63b8ff" stroke="#63b8ff" points="588.65,-130.11 599.09,-131.95 592.08,-124.01 588.65,-130.11"/>
</a>
</g>
</g>
<!-- Node13 -->
<g id="Node000013" class="node">
<title>Node13</title>
<g id="a_Node000013"><a xlink:href="MeshIntegrity__utest_8cpp.html" target="_top" xlink:title=" ">
<polygon fill="white" stroke="#666666" points="852.1,-30 688.1,-30 688.1,0 852.1,0 852.1,-30"/>
<text text-anchor="start" x="696.1" y="-18" font-family="Helvetica,sans-Serif" font-size="10.00">App/Test/Source/MeshIntegrity</text>
<text text-anchor="middle" x="770.1" y="-7" font-family="Helvetica,sans-Serif" font-size="10.00">_utest.cpp</text>
</a>
</g>
</g>
<!-- Node11&#45;&gt;Node13 -->
<g id="edge13_Node000011_Node000013" class="edge">
<title>Node11&#45;&gt;Node13</title>
<g id="a_edge13_Node000011_Node000013"><a xlink:title=" ">
<path fill="none" stroke="#63b8ff" d="M622.37,-121.38C622.47,-104.06 625.43,-81.33 638.1,-66 652.32,-48.82 673.1,-37.53 694,-30.12"/>
<polygon fill="#63b8ff" stroke="#63b8ff" points="618.88,-121.94 622.65,-131.85 625.88,-121.76 618.88,-121.94"/>
</a>
</g>
</g>
<!-- Node14 -->
<g id="Node000014" class="node">
<title>Node14</title>
<g id="a_Node000014"><a xlink:href="MeshLoader__utest_8cpp.html" target="_top" xlink:title=" ">
<polygon fill="white" stroke="#666666" points="803.1,-96 647.1,-96 647.1,-66 803.1,-66 803.1,-96"/>
<text text-anchor="start" x="655.1" y="-84" font-family="Helvetica,sans-Serif" font-size="10.00">App/Test/Source/MeshLoader</text>
<text text-anchor="middle" x="725.1" y="-73" font-family="Helvetica,sans-Serif" font-size="10.00">_utest.cpp</text>
</a>
</g>
</g>
<!-- Node11&#45;&gt;Node14 -->
<g id="edge14_Node000011_Node000014" class="edge">
<title>Node11&#45;&gt;Node14</title>
<g id="a_edge14_Node000011_Node000014"><a xlink:title=" ">
<path fill="none" stroke="#63b8ff" d="M655.19,-126.3C670.57,-116.56 688.77,-105.02 702.75,-96.16"/>
<polygon fill="#63b8ff" stroke="#63b8ff" points="653.09,-123.49 646.52,-131.8 656.84,-129.4 653.09,-123.49"/>
</a>
</g>
</g>
<!-- Node15&#45;&gt;Node4 -->
<g id="edge19_Node000015_Node000004" class="edge">
<title>Node15&#45;&gt;Node4</title>
<g id="a_edge19_Node000015_Node000004"><a xlink:title=" ">
<path fill="none" stroke="#63b8ff" d="M801.48,-123.97C814.46,-106.48 826.73,-82.34 812.1,-66 786.74,-37.65 541.97,-23.56 424.89,-18.39"/>
<polygon fill="#63b8ff" stroke="#63b8ff" points="798.63,-121.94 795.17,-131.95 804.12,-126.28 798.63,-121.94"/>
</a>
</g>
</g>
<!-- Node15&#45;&gt;Node14 -->
<g id="edge18_Node000015_Node000014" class="edge">
<title>Node15&#45;&gt;Node14</title>
<g id="a_edge18_Node000015_Node000014"><a xlink:title=" ">
<path fill="none" stroke="#63b8ff" d="M762.59,-124.09C754.36,-114.85 745.02,-104.36 737.72,-96.16"/>
<polygon fill="#63b8ff" stroke="#63b8ff" points="760.19,-126.66 769.45,-131.8 765.42,-122 760.19,-126.66"/>
</a>
</g>
</g>
<!-- Node16 -->
<g id="Node000016" class="node">
<title>Node16</title>
<g id="a_Node000016"><a xlink:href="MeshLoader_8cpp.html" target="_top" xlink:title=" ">
<polygon fill="white" stroke="#666666" points="1339.6,-90.5 1186.6,-90.5 1186.6,-71.5 1339.6,-71.5 1339.6,-90.5"/>
<text text-anchor="middle" x="1263.1" y="-78.5" font-family="Helvetica,sans-Serif" font-size="10.00">App/Source/MeshLoader.cpp</text>
</a>
</g>
</g>
<!-- Node15&#45;&gt;Node16 -->
<g id="edge17_Node000015_Node000016" class="edge">
<title>Node15&#45;&gt;Node16</title>
<g id="a_edge17_Node000015_Node000016"><a xlink:title=" ">
<path fill="none" stroke="#63b8ff" d="M858.02,-136.46C968.32,-122.59 1161.54,-98.25 1177.1,-96 1188.63,-94.33 1201.01,-92.4 1212.67,-90.52"/>
<polygon fill="#63b8ff" stroke="#63b8ff" points="857.42,-133.01 847.94,-137.73 858.3,-139.95 857.42,-133.01"/>
</a>
</g>
</g>
<!-- Node17&#45;&gt;Node3 -->
<g id="edge27_Node000017_Node000003" class="edge">
<title>Node17&#45;&gt;Node3</title>
<g id="a_edge27_Node000017_Node000003"><a xlink:title=" ">
<path fill="none" stroke="#63b8ff" d="M1122.4,-129.6C1069.37,-117.12 998.55,-100.46 956.3,-90.52"/>
<polygon fill="#63b8ff" stroke="#63b8ff" points="1121.88,-133.07 1132.41,-131.95 1123.48,-126.26 1121.88,-133.07"/>
</a>
</g>
</g>
<!-- Node17&#45;&gt;Node4 -->
<g id="edge31_Node000017_Node000004" class="edge">
<title>Node17&#45;&gt;Node4</title>
<g id="a_edge31_Node000017_Node000004"><a xlink:title=" ">
<path fill="none" stroke="#63b8ff" d="M1117.33,-129.3C1088.54,-121.32 1055.92,-110.33 1028.1,-96 1008.67,-85.98 1009.51,-73.86 989.1,-66 937.35,-46.06 572.31,-26.23 424.76,-18.93"/>
<polygon fill="#63b8ff" stroke="#63b8ff" points="1116.77,-132.78 1127.34,-132 1118.59,-126.02 1116.77,-132.78"/>
</a>
</g>
</g>
<!-- Node17&#45;&gt;Node10 -->
<g id="edge30_Node000017_Node000010" class="edge">
<title>Node17&#45;&gt;Node10</title>
<g id="a_edge30_Node000017_Node000010"><a xlink:title=" ">
<path fill="none" stroke="#63b8ff" d="M1267.4,-133.88C1320.16,-122.12 1376.56,-100.85 1348.1,-66 1327.68,-40.99 1248.28,-28.16 1185.33,-21.81"/>
<polygon fill="#63b8ff" stroke="#63b8ff" points="1266.66,-130.46 1257.61,-135.97 1268.12,-137.31 1266.66,-130.46"/>
</a>
</g>
</g>
<!-- Node17&#45;&gt;Node16 -->
<g id="edge28_Node000017_Node000016" class="edge">
<title>Node17&#45;&gt;Node16</title>
<g id="a_edge28_Node000017_Node000016"><a xlink:title=" ">
<path fill="none" stroke="#63b8ff" d="M1215.48,-124.93C1228.32,-113.35 1243.57,-99.61 1253.29,-90.84"/>
<polygon fill="#63b8ff" stroke="#63b8ff" points="1212.95,-122.5 1207.86,-131.8 1217.63,-127.7 1212.95,-122.5"/>
</a>
</g>
</g>
<!-- Node17&#45;&gt;Node18 -->
<g id="edge21_Node000017_Node000018" class="edge">
<title>Node17&#45;&gt;Node18</title>
<g id="a_edge21_Node000017_Node000018"><a xlink:title=" ">
<path fill="none" stroke="#63b8ff" d="M1163.95,-125.75C1150.56,-116.13 1134.89,-104.86 1122.8,-96.16"/>
<polygon fill="#63b8ff" stroke="#63b8ff" points="1162.19,-128.8 1172.35,-131.8 1166.28,-123.12 1162.19,-128.8"/>
</a>
</g>
</g>
<!-- Node20 -->
<g id="Node000020" class="node">
<title>Node20</title>
<g id="a_Node000020"><a xlink:href="PrimitiveProxy__utest_8cpp.html" target="_top" xlink:title=" ">
<polygon fill="white" stroke="#666666" points="1410.6,-30 1269.6,-30 1269.6,0 1410.6,0 1410.6,-30"/>
<text text-anchor="start" x="1277.6" y="-18" font-family="Helvetica,sans-Serif" font-size="10.00">App/Test/Source/Primitive</text>
<text text-anchor="middle" x="1340.1" y="-7" font-family="Helvetica,sans-Serif" font-size="10.00">Proxy_utest.cpp</text>
</a>
</g>
</g>
<!-- Node17&#45;&gt;Node20 -->
<g id="edge32_Node000017_Node000020" class="edge">
<title>Node17&#45;&gt;Node20</title>
<g id="a_edge32_Node000017_Node000020"><a xlink:title=" ">
<path fill="none" stroke="#63b8ff" d="M1267.89,-133.5C1308.96,-125.01 1353.79,-112.35 1366.1,-96 1381.13,-76.05 1364.48,-47.06 1351.77,-30"/>
<polygon fill="#63b8ff" stroke="#63b8ff" points="1266.94,-130.12 1257.83,-135.51 1268.32,-136.98 1266.94,-130.12"/>
</a>
</g>
</g>
<!-- Node21 -->
<g id="Node000021" class="node">
<title>Node21</title>
<g id="a_Node000021"><a xlink:href="PrimitiveProxy_8cpp.html" target="_top" xlink:title=" ">
<polygon fill="white" stroke="#666666" points="1599.6,-90.5 1434.6,-90.5 1434.6,-71.5 1599.6,-71.5 1599.6,-90.5"/>
<text text-anchor="middle" x="1517.1" y="-78.5" font-family="Helvetica,sans-Serif" font-size="10.00">App/Source/PrimitiveProxy.cpp</text>
</a>
</g>
</g>
<!-- Node17&#45;&gt;Node21 -->
<g id="edge29_Node000017_Node000021" class="edge">
<title>Node17&#45;&gt;Node21</title>
<g id="a_edge29_Node000017_Node000021"><a xlink:title=" ">
<path fill="none" stroke="#63b8ff" d="M1267.92,-131.07C1331.9,-118.47 1421.24,-100.88 1473.74,-90.54"/>
<polygon fill="#63b8ff" stroke="#63b8ff" points="1267.01,-127.68 1257.87,-133.05 1268.36,-134.55 1267.01,-127.68"/>
</a>
</g>
</g>
<!-- Node18&#45;&gt;Node4 -->
<g id="edge25_Node000018_Node000004" class="edge">
<title>Node18&#45;&gt;Node4</title>
<g id="a_edge25_Node000018_Node000004"><a xlink:title=" ">
<path fill="none" stroke="#63b8ff" d="M1027.03,-66.51C1025.71,-66.33 1024.4,-66.16 1023.1,-66 803.9,-38.58 541.71,-24.15 424.72,-18.66"/>
<polygon fill="#63b8ff" stroke="#63b8ff" points="1026.87,-70.02 1037.26,-67.95 1027.85,-63.09 1026.87,-70.02"/>
</a>
</g>
</g>
<!-- Node18&#45;&gt;Node10 -->
<g id="edge23_Node000018_Node000010" class="edge">
<title>Node18&#45;&gt;Node10</title>
<g id="a_edge23_Node000018_Node000010"><a xlink:title=" ">
<path fill="none" stroke="#63b8ff" d="M1103.1,-55.54C1103.1,-46.96 1103.1,-37.61 1103.1,-30.16"/>
<polygon fill="#63b8ff" stroke="#63b8ff" points="1099.6,-55.8 1103.1,-65.8 1106.6,-55.8 1099.6,-55.8"/>
</a>
</g>
</g>
<!-- Node18&#45;&gt;Node13 -->
<g id="edge24_Node000018_Node000013" class="edge">
<title>Node18&#45;&gt;Node13</title>
<g id="a_edge24_Node000018_Node000013"><a xlink:title=" ">
<path fill="none" stroke="#63b8ff" d="M1027.23,-65.42C971.96,-54.8 897.54,-40.49 842.99,-30.01"/>
<polygon fill="#63b8ff" stroke="#63b8ff" points="1026.83,-68.91 1037.31,-67.36 1028.16,-62.03 1026.83,-68.91"/>
</a>
</g>
</g>
<!-- Node18&#45;&gt;Node19 -->
<g id="edge22_Node000018_Node000019" class="edge">
<title>Node18&#45;&gt;Node19</title>
<g id="a_edge22_Node000018_Node000019"><a xlink:title=" ">
<path fill="none" stroke="#63b8ff" d="M1178.91,-65.77C1290.34,-48.38 1408.37,-34.11 1485.97,-25.29"/>
<polygon fill="#63b8ff" stroke="#63b8ff" points="1178.17,-62.34 1168.84,-67.35 1179.26,-69.26 1178.17,-62.34"/>
</a>
</g>
</g>
<!-- Node18&#45;&gt;Node20 -->
<g id="edge26_Node000018_Node000020" class="edge">
<title>Node18&#45;&gt;Node20</title>
<g id="a_edge26_Node000018_Node000020"><a xlink:title=" ">
<path fill="none" stroke="#63b8ff" d="M1165.12,-63.25C1203.41,-52.91 1251.97,-39.8 1288.22,-30.01"/>
<polygon fill="#63b8ff" stroke="#63b8ff" points="1163.86,-59.97 1155.12,-65.95 1165.68,-66.73 1163.86,-59.97"/>
</a>
</g>
</g>
<!-- Node23&#45;&gt;Node7 -->
<g id="edge40_Node000023_Node000007" class="edge">
<title>Node23&#45;&gt;Node7</title>
<g id="a_edge40_Node000023_Node000007"><a xlink:title=" ">
<path fill="none" stroke="#63b8ff" d="M966.35,-260.72C936.23,-250.47 898.53,-237.63 870.27,-228.01"/>
<polygon fill="#63b8ff" stroke="#63b8ff" points="965.25,-264.05 975.85,-263.95 967.51,-257.42 965.25,-264.05"/>
</a>
</g>
</g>
<!-- Node24 -->
<g id="Node000024" class="node">
<title>Node24</title>
<g id="a_Node000024"><a xlink:href="VertexPair_8h.html" target="_top" xlink:title=" ">
<polygon fill="white" stroke="#666666" points="1787.6,-162 1656.6,-162 1656.6,-132 1787.6,-132 1787.6,-162"/>
<text text-anchor="start" x="1664.6" y="-150" font-family="Helvetica,sans-Serif" font-size="10.00">App/Include/Application</text>
<text text-anchor="middle" x="1722.1" y="-139" font-family="Helvetica,sans-Serif" font-size="10.00">/VertexPair.h</text>
</a>
</g>
</g>
<!-- Node23&#45;&gt;Node24 -->
<g id="edge41_Node000023_Node000024" class="edge">
<title>Node23&#45;&gt;Node24</title>
<g id="a_edge41_Node000023_Node000024"><a xlink:title=" ">
<path fill="none" stroke="#63b8ff" d="M1005.59,-254.09C998.9,-236.31 994.22,-212.69 1008.1,-198 1056.56,-146.71 1572.01,-170.1 1642.1,-162 1646.73,-161.47 1651.49,-160.84 1656.27,-160.15"/>
<polygon fill="#63b8ff" stroke="#63b8ff" points="1002.55,-255.89 1009.64,-263.77 1009.01,-253.19 1002.55,-255.89"/>
</a>
</g>
</g>
<!-- Node27 -->
<g id="Node000027" class="node">
<title>Node27</title>
<g id="a_Node000027"><a xlink:href="Primitive_8cpp.html" target="_top" xlink:title=" ">
<polygon fill="white" stroke="#666666" points="1156.6,-222.5 1017.6,-222.5 1017.6,-203.5 1156.6,-203.5 1156.6,-222.5"/>
<text text-anchor="middle" x="1087.1" y="-210.5" font-family="Helvetica,sans-Serif" font-size="10.00">App/Source/Primitive.cpp</text>
</a>
</g>
</g>
<!-- Node23&#45;&gt;Node27 -->
<g id="edge46_Node000023_Node000027" class="edge">
<title>Node23&#45;&gt;Node27</title>
<g id="a_edge46_Node000023_Node000027"><a xlink:title=" ">
<path fill="none" stroke="#63b8ff" d="M1040.15,-256.93C1052.81,-245.35 1067.85,-231.61 1077.43,-222.84"/>
<polygon fill="#63b8ff" stroke="#63b8ff" points="1037.66,-254.47 1032.64,-263.8 1042.38,-259.63 1037.66,-254.47"/>
</a>
</g>
</g>
<!-- Node28 -->
<g id="Node000028" class="node">
<title>Node28</title>
<g id="a_Node000028"><a xlink:href="Primitive__utest_8cpp.html" target="_top" xlink:title=" ">
<polygon fill="white" stroke="#666666" points="1315.6,-228 1174.6,-228 1174.6,-198 1315.6,-198 1315.6,-228"/>
<text text-anchor="start" x="1182.6" y="-216" font-family="Helvetica,sans-Serif" font-size="10.00">App/Test/Source/Primitive</text>
<text text-anchor="middle" x="1245.1" y="-205" font-family="Helvetica,sans-Serif" font-size="10.00">_utest.cpp</text>
</a>
</g>
</g>
<!-- Node23&#45;&gt;Node28 -->
<g id="edge47_Node000023_Node000028" class="edge">
<title>Node23&#45;&gt;Node28</title>
<g id="a_edge47_Node000023_Node000028"><a xlink:title=" ">
<path fill="none" stroke="#63b8ff" d="M1077.23,-261.12C1114,-250.8 1160.46,-237.76 1195.19,-228.01"/>
<polygon fill="#63b8ff" stroke="#63b8ff" points="1075.82,-257.88 1067.14,-263.95 1077.71,-264.62 1075.82,-257.88"/>
</a>
</g>
</g>
<!-- Node24&#45;&gt;Node3 -->
<g id="edge42_Node000024_Node000003" class="edge">
<title>Node24&#45;&gt;Node3</title>
<g id="a_edge42_Node000024_Node000003"><a xlink:title=" ">
<path fill="none" stroke="#63b8ff" d="M1646.39,-141.96C1518.7,-134.83 1252.49,-118.61 1028.1,-96 1012.77,-94.46 996.26,-92.48 980.87,-90.49"/>
<polygon fill="#63b8ff" stroke="#63b8ff" points="1646.28,-145.46 1656.45,-142.52 1646.66,-138.47 1646.28,-145.46"/>
</a>
</g>
</g>
<!-- Node24&#45;&gt;Node16 -->
<g id="edge43_Node000024_Node000016" class="edge">
<title>Node24&#45;&gt;Node16</title>
<g id="a_edge43_Node000024_Node000016"><a xlink:title=" ">
<path fill="none" stroke="#63b8ff" d="M1646.19,-135.41C1556.05,-122.85 1407.5,-102.13 1324.35,-90.54"/>
<polygon fill="#63b8ff" stroke="#63b8ff" points="1645.95,-138.92 1656.34,-136.83 1646.92,-131.98 1645.95,-138.92"/>
</a>
</g>
</g>
<!-- Node25 -->
<g id="Node000025" class="node">
<title>Node25</title>
<g id="a_Node000025"><a xlink:href="VertexPair_8cpp.html" target="_top" xlink:title=" ">
<polygon fill="white" stroke="#666666" points="1799.6,-90.5 1656.6,-90.5 1656.6,-71.5 1799.6,-71.5 1799.6,-90.5"/>
<text text-anchor="middle" x="1728.1" y="-78.5" font-family="Helvetica,sans-Serif" font-size="10.00">App/Source/VertexPair.cpp</text>
</a>
</g>
</g>
<!-- Node24&#45;&gt;Node25 -->
<g id="edge44_Node000024_Node000025" class="edge">
<title>Node24&#45;&gt;Node25</title>
<g id="a_edge44_Node000024_Node000025"><a xlink:title=" ">
<path fill="none" stroke="#63b8ff" d="M1724.39,-121.6C1725.4,-110.8 1726.53,-98.78 1727.28,-90.84"/>
<polygon fill="#63b8ff" stroke="#63b8ff" points="1720.89,-121.51 1723.44,-131.8 1727.85,-122.17 1720.89,-121.51"/>
</a>
</g>
</g>
<!-- Node26 -->
<g id="Node000026" class="node">
<title>Node26</title>
<g id="a_Node000026"><a xlink:href="VertexPair__utest_8cpp.html" target="_top" xlink:title=" ">
<polygon fill="white" stroke="#666666" points="1964.1,-96 1818.1,-96 1818.1,-66 1964.1,-66 1964.1,-96"/>
<text text-anchor="start" x="1826.1" y="-84" font-family="Helvetica,sans-Serif" font-size="10.00">App/Test/Source/VertexPair</text>
<text text-anchor="middle" x="1891.1" y="-73" font-family="Helvetica,sans-Serif" font-size="10.00">_utest.cpp</text>
</a>
</g>
</g>
<!-- Node24&#45;&gt;Node26 -->
<g id="edge45_Node000024_Node000026" class="edge">
<title>Node24&#45;&gt;Node26</title>
<g id="a_edge45_Node000024_Node000026"><a xlink:title=" ">
<path fill="none" stroke="#63b8ff" d="M1768.78,-128.32C1795.68,-118.14 1829.03,-105.51 1854.1,-96.01"/>
<polygon fill="#63b8ff" stroke="#63b8ff" points="1767.3,-125.14 1759.19,-131.95 1769.78,-131.69 1767.3,-125.14"/>
</a>
</g>
</g>
</g>
</svg>
