<?xml version="1.0" encoding="UTF-8" standalone="no"?>
<!DOCTYPE svg PUBLIC "-//W3C//DTD SVG 1.1//EN"
 "http://www.w3.org/Graphics/SVG/1.1/DTD/svg11.dtd">
<!-- Generated by graphviz version 2.43.0 (0)
 -->
<!-- Title: Data::ExtraData::TriangleNormalExtraData Pages: 1 -->
<svg width="172pt" height="170pt"
 viewBox="0.00 0.00 172.00 170.00" xmlns="http://www.w3.org/2000/svg" xmlns:xlink="http://www.w3.org/1999/xlink">
<g id="graph0" class="graph" transform="scale(1 1) rotate(0) translate(4 166)">
<title>Data::ExtraData::TriangleNormalExtraData</title>
<!-- Node1 -->
<g id="Node000001" class="node">
<title>Node1</title>
<g id="a_Node000001"><a xlink:title="Extra data type to store a triangle normal.">
<polygon fill="#999999" stroke="#666666" points="151.5,-30 12.5,-30 12.5,0 151.5,0 151.5,-30"/>
<text text-anchor="start" x="20.5" y="-18" font-family="Helvetica,sans-Serif" font-size="10.00">Data::ExtraData::Triangle</text>
<text text-anchor="middle" x="82" y="-7" font-family="Helvetica,sans-Serif" font-size="10.00">NormalExtraData</text>
</a>
</g>
</g>
<!-- Node2 -->
<g id="Node000002" class="node">
<title>Node2</title>
<g id="a_Node000002"><a xlink:href="classData_1_1ExtraData_1_1SingleDataExtraData.html" target="_top" xlink:title=" ">
<polygon fill="white" stroke="#666666" points="164,-96 0,-96 0,-66 164,-66 164,-96"/>
<text text-anchor="start" x="8" y="-84" font-family="Helvetica,sans-Serif" font-size="10.00">Data::ExtraData::SingleData</text>
<text text-anchor="middle" x="82" y="-73" font-family="Helvetica,sans-Serif" font-size="10.00">ExtraData&lt; BaseType::Vec3 &gt;</text>
</a>
</g>
</g>
<!-- Node2&#45;&gt;Node1 -->
<g id="edge1_Node000001_Node000002" class="edge">
<title>Node2&#45;&gt;Node1</title>
<g id="a_edge1_Node000001_Node000002"><a xlink:title=" ">
<path fill="none" stroke="#63b8ff" d="M82,-55.54C82,-46.96 82,-37.61 82,-30.16"/>
<polygon fill="#63b8ff" stroke="#63b8ff" points="78.5,-55.8 82,-65.8 85.5,-55.8 78.5,-55.8"/>
</a>
</g>
</g>
<!-- Node3 -->
<g id="Node000003" class="node">
<title>Node3</title>
<g id="a_Node000003"><a xlink:href="classData_1_1ExtraData_1_1BaseExtraDataType.html" target="_top" xlink:title="Base class for extra data type.">
<polygon fill="white" stroke="#666666" points="157,-162 7,-162 7,-132 157,-132 157,-162"/>
<text text-anchor="start" x="15" y="-150" font-family="Helvetica,sans-Serif" font-size="10.00">Data::ExtraData::BaseExtra</text>
<text text-anchor="middle" x="82" y="-139" font-family="Helvetica,sans-Serif" font-size="10.00">DataType</text>
</a>
</g>
</g>
<!-- Node3&#45;&gt;Node2 -->
<g id="edge2_Node000002_Node000003" class="edge">
<title>Node3&#45;&gt;Node2</title>
<g id="a_edge2_Node000002_Node000003"><a xlink:title=" ">
<path fill="none" stroke="#63b8ff" d="M82,-121.54C82,-112.96 82,-103.61 82,-96.16"/>
<polygon fill="#63b8ff" stroke="#63b8ff" points="78.5,-121.8 82,-131.8 85.5,-121.8 78.5,-121.8"/>
</a>
</g>
</g>
</g>
</svg>
