<?xml version="1.0" encoding="UTF-8" standalone="no"?>
<!DOCTYPE svg PUBLIC "-//W3C//DTD SVG 1.1//EN"
 "http://www.w3.org/Graphics/SVG/1.1/DTD/svg11.dtd">
<!-- Generated by graphviz version 2.43.0 (0)
 -->
<!-- Title: Data::ExtraData::FlatVertexNormalsExtraData Pages: 1 -->
<svg width="162pt" height="181pt"
 viewBox="0.00 0.00 162.00 181.00" xmlns="http://www.w3.org/2000/svg" xmlns:xlink="http://www.w3.org/1999/xlink">
<g id="graph0" class="graph" transform="scale(1 1) rotate(0) translate(4 177)">
<title>Data::ExtraData::FlatVertexNormalsExtraData</title>
<!-- Node1 -->
<g id="Node000001" class="node">
<title>Node1</title>
<g id="a_Node000001"><a xlink:title=" ">
<polygon fill="#999999" stroke="#666666" points="152.5,-30 1.5,-30 1.5,0 152.5,0 152.5,-30"/>
<text text-anchor="start" x="9.5" y="-18" font-family="Helvetica,sans-Serif" font-size="10.00">Data::ExtraData::FlatVertex</text>
<text text-anchor="middle" x="77" y="-7" font-family="Helvetica,sans-Serif" font-size="10.00">NormalsExtraData</text>
</a>
</g>
</g>
<!-- Node2 -->
<g id="Node000002" class="node">
<title>Node2</title>
<g id="a_Node000002"><a xlink:href="classData_1_1ExtraData_1_1SingleDataExtraData.html" target="_top" xlink:title=" ">
<polygon fill="white" stroke="#666666" points="154,-107 0,-107 0,-66 154,-66 154,-107"/>
<text text-anchor="start" x="8" y="-95" font-family="Helvetica,sans-Serif" font-size="10.00">Data::ExtraData::SingleData</text>
<text text-anchor="start" x="8" y="-84" font-family="Helvetica,sans-Serif" font-size="10.00">ExtraData&lt; std::vector&lt;</text>
<text text-anchor="middle" x="77" y="-73" font-family="Helvetica,sans-Serif" font-size="10.00"> BaseType::Vec3 &gt; &gt;</text>
</a>
</g>
</g>
<!-- Node2&#45;&gt;Node1 -->
<g id="edge1_Node000001_Node000002" class="edge">
<title>Node2&#45;&gt;Node1</title>
<g id="a_edge1_Node000001_Node000002"><a xlink:title=" ">
<path fill="none" stroke="#63b8ff" d="M77,-55.66C77,-46.76 77,-37.42 77,-30.04"/>
<polygon fill="#63b8ff" stroke="#63b8ff" points="73.5,-55.77 77,-65.77 80.5,-55.77 73.5,-55.77"/>
</a>
</g>
</g>
<!-- Node3 -->
<g id="Node000003" class="node">
<title>Node3</title>
<g id="a_Node000003"><a xlink:href="classData_1_1ExtraData_1_1BaseExtraDataType.html" target="_top" xlink:title=" ">
<polygon fill="white" stroke="#666666" points="152,-173 2,-173 2,-143 152,-143 152,-173"/>
<text text-anchor="start" x="10" y="-161" font-family="Helvetica,sans-Serif" font-size="10.00">Data::ExtraData::BaseExtra</text>
<text text-anchor="middle" x="77" y="-150" font-family="Helvetica,sans-Serif" font-size="10.00">DataType</text>
</a>
</g>
</g>
<!-- Node3&#45;&gt;Node2 -->
<g id="edge2_Node000002_Node000003" class="edge">
<title>Node3&#45;&gt;Node2</title>
<g id="a_edge2_Node000002_Node000003"><a xlink:title=" ">
<path fill="none" stroke="#63b8ff" d="M77,-132.91C77,-124.47 77,-115.1 77,-107.07"/>
<polygon fill="#63b8ff" stroke="#63b8ff" points="73.5,-132.94 77,-142.94 80.5,-132.94 73.5,-132.94"/>
</a>
</g>
</g>
</g>
</svg>
