<?xml version="1.0" encoding="UTF-8" standalone="no"?>
<!DOCTYPE svg PUBLIC "-//W3C//DTD SVG 1.1//EN"
 "http://www.w3.org/Graphics/SVG/1.1/DTD/svg11.dtd">
<!-- Generated by graphviz version 2.43.0 (0)
 -->
<!-- Title: Data::ExtraData::BaseExtraDataType Pages: 1 -->
<svg width="596pt" height="324pt"
 viewBox="0.00 0.00 596.00 324.00" xmlns="http://www.w3.org/2000/svg" xmlns:xlink="http://www.w3.org/1999/xlink">
<g id="graph0" class="graph" transform="scale(1 1) rotate(0) translate(4 320)">
<title>Data::ExtraData::BaseExtraDataType</title>
<!-- Node1 -->
<g id="Node000001" class="node">
<title>Node1</title>
<g id="a_Node000001"><a xlink:title="Base class for extra data type.">
<polygon fill="#999999" stroke="#666666" points="150,-148 0,-148 0,-118 150,-118 150,-148"/>
<text text-anchor="start" x="8" y="-136" font-family="Helvetica,sans-Serif" font-size="10.00">Data::ExtraData::BaseExtra</text>
<text text-anchor="middle" x="75" y="-125" font-family="Helvetica,sans-Serif" font-size="10.00">DataType</text>
</a>
</g>
</g>
<!-- Node2 -->
<g id="Node000002" class="node">
<title>Node2</title>
<g id="a_Node000002"><a xlink:href="classData_1_1ExtraData_1_1SingleDataExtraData.html" target="_top" xlink:title=" ">
<polygon fill="white" stroke="#666666" points="361,-301.5 207,-301.5 207,-260.5 361,-260.5 361,-301.5"/>
<text text-anchor="start" x="215" y="-289.5" font-family="Helvetica,sans-Serif" font-size="10.00">Data::ExtraData::SingleData</text>
<text text-anchor="start" x="215" y="-278.5" font-family="Helvetica,sans-Serif" font-size="10.00">ExtraData&lt; std::vector&lt;</text>
<text text-anchor="middle" x="284" y="-267.5" font-family="Helvetica,sans-Serif" font-size="10.00"> BaseType::Vec3 &gt; &gt;</text>
</a>
</g>
</g>
<!-- Node1&#45;&gt;Node2 -->
<g id="edge1_Node000001_Node000002" class="edge">
<title>Node1&#45;&gt;Node2</title>
<g id="a_edge1_Node000001_Node000002"><a xlink:title=" ">
<path fill="none" stroke="#63b8ff" d="M97.44,-155.48C118.61,-176.88 152.58,-209.12 186,-232 201.57,-242.66 219.78,-252.47 236.18,-260.46"/>
<polygon fill="#63b8ff" stroke="#63b8ff" points="99.74,-152.83 90.24,-148.13 94.73,-157.72 99.74,-152.83"/>
</a>
</g>
</g>
<!-- Node4 -->
<g id="Node000004" class="node">
<title>Node4</title>
<g id="a_Node000004"><a xlink:href="classData_1_1ExtraData_1_1SingleDataExtraData.html" target="_top" xlink:title=" ">
<polygon fill="white" stroke="#666666" points="366,-223 202,-223 202,-193 366,-193 366,-223"/>
<text text-anchor="start" x="210" y="-211" font-family="Helvetica,sans-Serif" font-size="10.00">Data::ExtraData::SingleData</text>
<text text-anchor="middle" x="284" y="-200" font-family="Helvetica,sans-Serif" font-size="10.00">ExtraData&lt; BaseType::Vec3 &gt;</text>
</a>
</g>
</g>
<!-- Node1&#45;&gt;Node4 -->
<g id="edge3_Node000001_Node000004" class="edge">
<title>Node1&#45;&gt;Node4</title>
<g id="a_edge3_Node000001_Node000004"><a xlink:title=" ">
<path fill="none" stroke="#63b8ff" d="M113.93,-152.78C134.8,-163.1 161.38,-175.34 186,-184 195.33,-187.28 205.31,-190.29 215.19,-192.99"/>
<polygon fill="#63b8ff" stroke="#63b8ff" points="115.29,-149.55 104.78,-148.2 112.15,-155.81 115.29,-149.55"/>
</a>
</g>
</g>
<!-- Node7 -->
<g id="Node000007" class="node">
<title>Node7</title>
<g id="a_Node000007"><a xlink:href="classData_1_1ExtraData_1_1SingleDataExtraData.html" target="_top" xlink:title=" ">
<polygon fill="white" stroke="#666666" points="361,-175 207,-175 207,-145 361,-145 361,-175"/>
<text text-anchor="start" x="215" y="-163" font-family="Helvetica,sans-Serif" font-size="10.00">Data::ExtraData::SingleData</text>
<text text-anchor="middle" x="284" y="-152" font-family="Helvetica,sans-Serif" font-size="10.00">ExtraData&lt; std::string &gt;</text>
</a>
</g>
</g>
<!-- Node1&#45;&gt;Node7 -->
<g id="edge6_Node000001_Node000007" class="edge">
<title>Node1&#45;&gt;Node7</title>
<g id="a_edge6_Node000001_Node000007"><a xlink:title=" ">
<path fill="none" stroke="#63b8ff" d="M160.21,-143.98C175.67,-146 191.72,-148.09 206.93,-150.08"/>
<polygon fill="#63b8ff" stroke="#63b8ff" points="160.52,-140.49 150.15,-142.67 159.61,-147.44 160.52,-140.49"/>
</a>
</g>
</g>
<!-- Node9 -->
<g id="Node000009" class="node">
<title>Node9</title>
<g id="a_Node000009"><a xlink:href="classData_1_1ExtraData_1_1SingleDataExtraData.html" target="_top" xlink:title=" ">
<polygon fill="white" stroke="#666666" points="374.5,-126.5 193.5,-126.5 193.5,-85.5 374.5,-85.5 374.5,-126.5"/>
<text text-anchor="start" x="201.5" y="-114.5" font-family="Helvetica,sans-Serif" font-size="10.00">Data::ExtraData::SingleData</text>
<text text-anchor="start" x="201.5" y="-103.5" font-family="Helvetica,sans-Serif" font-size="10.00">ExtraData&lt; std::array&lt; BaseType</text>
<text text-anchor="middle" x="284" y="-92.5" font-family="Helvetica,sans-Serif" font-size="10.00">::Vec2, 3 &gt; &gt;</text>
</a>
</g>
</g>
<!-- Node1&#45;&gt;Node9 -->
<g id="edge8_Node000001_Node000009" class="edge">
<title>Node1&#45;&gt;Node9</title>
<g id="a_edge8_Node000001_Node000009"><a xlink:title=" ">
<path fill="none" stroke="#63b8ff" d="M160.13,-122.03C171.11,-120.59 182.39,-119.12 193.46,-117.68"/>
<polygon fill="#63b8ff" stroke="#63b8ff" points="159.61,-118.56 150.15,-123.33 160.52,-125.51 159.61,-118.56"/>
</a>
</g>
</g>
<!-- Node11 -->
<g id="Node000011" class="node">
<title>Node11</title>
<g id="a_Node000011"><a xlink:href="classData_1_1ExtraData_1_1ObjectMaterialData.html" target="_top" xlink:title="Store object material data defined within a MTL file.">
<polygon fill="white" stroke="#666666" points="382,-67.5 186,-67.5 186,-48.5 382,-48.5 382,-67.5"/>
<text text-anchor="middle" x="284" y="-55.5" font-family="Helvetica,sans-Serif" font-size="10.00">Data::ExtraData::ObjectMaterialData</text>
</a>
</g>
</g>
<!-- Node1&#45;&gt;Node11 -->
<g id="edge10_Node000001_Node000011" class="edge">
<title>Node1&#45;&gt;Node11</title>
<g id="a_edge10_Node000001_Node000011"><a xlink:title=" ">
<path fill="none" stroke="#63b8ff" d="M108.62,-112.85C129.93,-100.51 158.77,-85.35 186,-76 195.88,-72.61 206.56,-69.81 217.1,-67.51"/>
<polygon fill="#63b8ff" stroke="#63b8ff" points="106.82,-109.85 99.98,-117.93 110.37,-115.88 106.82,-109.85"/>
</a>
</g>
</g>
<!-- Node12 -->
<g id="Node000012" class="node">
<title>Node12</title>
<g id="a_Node000012"><a xlink:href="classData_1_1ExtraData_1_1SingleDataExtraData.html" target="_top" xlink:title="Base class for extra data type with only one attribute.">
<polygon fill="white" stroke="#666666" points="361,-30 207,-30 207,0 361,0 361,-30"/>
<text text-anchor="start" x="215" y="-18" font-family="Helvetica,sans-Serif" font-size="10.00">Data::ExtraData::SingleData</text>
<text text-anchor="middle" x="284" y="-7" font-family="Helvetica,sans-Serif" font-size="10.00">ExtraData&lt; T &gt;</text>
</a>
</g>
</g>
<!-- Node1&#45;&gt;Node12 -->
<g id="edge11_Node000001_Node000012" class="edge">
<title>Node1&#45;&gt;Node12</title>
<g id="a_edge11_Node000001_Node000012"><a xlink:title=" ">
<path fill="none" stroke="#63b8ff" d="M96.29,-110.42C116.85,-88.91 150.58,-57.21 186,-39 192.71,-35.55 199.94,-32.58 207.32,-30.02"/>
<polygon fill="#63b8ff" stroke="#63b8ff" points="93.62,-108.14 89.34,-117.83 98.73,-112.93 93.62,-108.14"/>
</a>
</g>
</g>
<!-- Node3 -->
<g id="Node000003" class="node">
<title>Node3</title>
<g id="a_Node000003"><a xlink:href="classData_1_1ExtraData_1_1FlatVertexNormalsExtraData.html" target="_top" xlink:title="Extra data type to store vertex flat normals.">
<polygon fill="white" stroke="#666666" points="578.5,-316 427.5,-316 427.5,-286 578.5,-286 578.5,-316"/>
<text text-anchor="start" x="435.5" y="-304" font-family="Helvetica,sans-Serif" font-size="10.00">Data::ExtraData::FlatVertex</text>
<text text-anchor="middle" x="503" y="-293" font-family="Helvetica,sans-Serif" font-size="10.00">NormalsExtraData</text>
</a>
</g>
</g>
<!-- Node2&#45;&gt;Node3 -->
<g id="edge2_Node000002_Node000003" class="edge">
<title>Node2&#45;&gt;Node3</title>
<g id="a_edge2_Node000002_Node000003"><a xlink:title=" ">
<path fill="none" stroke="#63b8ff" d="M371.4,-288.96C389.94,-290.67 409.39,-292.46 427.44,-294.13"/>
<polygon fill="#63b8ff" stroke="#63b8ff" points="371.48,-285.46 361.2,-288.02 370.84,-292.43 371.48,-285.46"/>
</a>
</g>
</g>
<!-- Node5 -->
<g id="Node000005" class="node">
<title>Node5</title>
<g id="a_Node000005"><a xlink:href="classData_1_1ExtraData_1_1SmoothVertexNormalExtraData.html" target="_top" xlink:title="Extra data type to store a smooth vertex normal.">
<polygon fill="white" stroke="#666666" points="588,-268 418,-268 418,-238 588,-238 588,-268"/>
<text text-anchor="start" x="426" y="-256" font-family="Helvetica,sans-Serif" font-size="10.00">Data::ExtraData::SmoothVertex</text>
<text text-anchor="middle" x="503" y="-245" font-family="Helvetica,sans-Serif" font-size="10.00">NormalExtraData</text>
</a>
</g>
</g>
<!-- Node4&#45;&gt;Node5 -->
<g id="edge4_Node000004_Node000005" class="edge">
<title>Node4&#45;&gt;Node5</title>
<g id="a_edge4_Node000004_Node000005"><a xlink:title=" ">
<path fill="none" stroke="#63b8ff" d="M367.46,-225.1C387.88,-229.33 409.61,-233.84 429.51,-237.97"/>
<polygon fill="#63b8ff" stroke="#63b8ff" points="368.06,-221.65 357.56,-223.05 366.64,-228.5 368.06,-221.65"/>
</a>
</g>
</g>
<!-- Node6 -->
<g id="Node000006" class="node">
<title>Node6</title>
<g id="a_Node000006"><a xlink:href="classData_1_1ExtraData_1_1TriangleNormalExtraData.html" target="_top" xlink:title="Extra data type to store a triangle normal.">
<polygon fill="white" stroke="#666666" points="572.5,-220 433.5,-220 433.5,-190 572.5,-190 572.5,-220"/>
<text text-anchor="start" x="441.5" y="-208" font-family="Helvetica,sans-Serif" font-size="10.00">Data::ExtraData::Triangle</text>
<text text-anchor="middle" x="503" y="-197" font-family="Helvetica,sans-Serif" font-size="10.00">NormalExtraData</text>
</a>
</g>
</g>
<!-- Node4&#45;&gt;Node6 -->
<g id="edge5_Node000004_Node000006" class="edge">
<title>Node4&#45;&gt;Node6</title>
<g id="a_edge5_Node000004_Node000006"><a xlink:title=" ">
<path fill="none" stroke="#63b8ff" d="M376.33,-206.74C395.45,-206.47 415.3,-206.2 433.42,-205.95"/>
<polygon fill="#63b8ff" stroke="#63b8ff" points="376.06,-203.24 366.11,-206.88 376.16,-210.24 376.06,-203.24"/>
</a>
</g>
</g>
<!-- Node8 -->
<g id="Node000008" class="node">
<title>Node8</title>
<g id="a_Node000008"><a xlink:href="classData_1_1ExtraData_1_1TriangleMaterialName.html" target="_top" xlink:title="Extra data type to store a triangle material name.">
<polygon fill="white" stroke="#666666" points="572.5,-172 433.5,-172 433.5,-142 572.5,-142 572.5,-172"/>
<text text-anchor="start" x="441.5" y="-160" font-family="Helvetica,sans-Serif" font-size="10.00">Data::ExtraData::Triangle</text>
<text text-anchor="middle" x="503" y="-149" font-family="Helvetica,sans-Serif" font-size="10.00">MaterialName</text>
</a>
</g>
</g>
<!-- Node7&#45;&gt;Node8 -->
<g id="edge7_Node000007_Node000008" class="edge">
<title>Node7&#45;&gt;Node8</title>
<g id="a_edge7_Node000007_Node000008"><a xlink:title=" ">
<path fill="none" stroke="#63b8ff" d="M371.21,-158.81C391.81,-158.52 413.53,-158.22 433.23,-157.95"/>
<polygon fill="#63b8ff" stroke="#63b8ff" points="371.15,-155.31 361.2,-158.95 371.25,-162.31 371.15,-155.31"/>
</a>
</g>
</g>
<!-- Node10 -->
<g id="Node000010" class="node">
<title>Node10</title>
<g id="a_Node000010"><a xlink:href="classData_1_1ExtraData_1_1VerticesTexCoordsExtraData.html" target="_top" xlink:title="Extra data type to store texture coordinates for each vertex of a triangle.">
<polygon fill="white" stroke="#666666" points="573,-121 433,-121 433,-91 573,-91 573,-121"/>
<text text-anchor="start" x="441" y="-109" font-family="Helvetica,sans-Serif" font-size="10.00">Data::ExtraData::Vertices</text>
<text text-anchor="middle" x="503" y="-98" font-family="Helvetica,sans-Serif" font-size="10.00">TexCoordsExtraData</text>
</a>
</g>
</g>
<!-- Node9&#45;&gt;Node10 -->
<g id="edge9_Node000009_Node000010" class="edge">
<title>Node9&#45;&gt;Node10</title>
<g id="a_edge9_Node000009_Node000010"><a xlink:title=" ">
<path fill="none" stroke="#63b8ff" d="M384.63,-106C400.95,-106 417.54,-106 432.91,-106"/>
<polygon fill="#63b8ff" stroke="#63b8ff" points="384.52,-102.5 374.52,-106 384.52,-109.5 384.52,-102.5"/>
</a>
</g>
</g>
</g>
</svg>
