<?xml version="1.0" encoding="UTF-8" standalone="no"?>
<!DOCTYPE svg PUBLIC "-//W3C//DTD SVG 1.1//EN"
 "http://www.w3.org/Graphics/SVG/1.1/DTD/svg11.dtd">
<!-- Generated by graphviz version 2.43.0 (0)
 -->
<!-- Title: Data::ExtraData::BaseExtraDataType Pages: 1 -->
<svg width="562pt" height="191pt"
 viewBox="0.00 0.00 562.00 191.00" xmlns="http://www.w3.org/2000/svg" xmlns:xlink="http://www.w3.org/1999/xlink">
<g id="graph0" class="graph" transform="scale(1 1) rotate(0) translate(4 187)">
<title>Data::ExtraData::BaseExtraDataType</title>
<!-- Node1 -->
<g id="Node000001" class="node">
<title>Node1</title>
<g id="a_Node000001"><a xlink:title=" ">
<polygon fill="#999999" stroke="#666666" points="150,-84 0,-84 0,-54 150,-54 150,-84"/>
<text text-anchor="start" x="8" y="-72" font-family="Helvetica,sans-Serif" font-size="10.00">Data::ExtraData::BaseExtra</text>
<text text-anchor="middle" x="75" y="-61" font-family="Helvetica,sans-Serif" font-size="10.00">DataType</text>
</a>
</g>
</g>
<!-- Node2 -->
<g id="Node000002" class="node">
<title>Node2</title>
<g id="a_Node000002"><a xlink:href="classData_1_1ExtraData_1_1SingleDataExtraData.html" target="_top" xlink:title=" ">
<polygon fill="white" stroke="#666666" points="350,-138 186,-138 186,-108 350,-108 350,-138"/>
<text text-anchor="start" x="194" y="-126" font-family="Helvetica,sans-Serif" font-size="10.00">Data::ExtraData::SingleData</text>
<text text-anchor="middle" x="268" y="-115" font-family="Helvetica,sans-Serif" font-size="10.00">ExtraData&lt; BaseType::Vec3 &gt;</text>
</a>
</g>
</g>
<!-- Node1&#45;&gt;Node2 -->
<g id="edge1_Node000001_Node000002" class="edge">
<title>Node1&#45;&gt;Node2</title>
<g id="a_edge1_Node000001_Node000002"><a xlink:title=" ">
<path fill="none" stroke="#63b8ff" d="M139.01,-86.81C163.2,-93.65 190.56,-101.39 213.75,-107.95"/>
<polygon fill="#63b8ff" stroke="#63b8ff" points="139.78,-83.39 129.2,-84.04 137.87,-90.13 139.78,-83.39"/>
</a>
</g>
</g>
<!-- Node5 -->
<g id="Node000005" class="node">
<title>Node5</title>
<g id="a_Node000005"><a xlink:href="classData_1_1ExtraData_1_1SingleDataExtraData.html" target="_top" xlink:title=" ">
<polygon fill="white" stroke="#666666" points="345,-89.5 191,-89.5 191,-48.5 345,-48.5 345,-89.5"/>
<text text-anchor="start" x="199" y="-77.5" font-family="Helvetica,sans-Serif" font-size="10.00">Data::ExtraData::SingleData</text>
<text text-anchor="start" x="199" y="-66.5" font-family="Helvetica,sans-Serif" font-size="10.00">ExtraData&lt; std::vector&lt;</text>
<text text-anchor="middle" x="268" y="-55.5" font-family="Helvetica,sans-Serif" font-size="10.00"> BaseType::Vec3 &gt; &gt;</text>
</a>
</g>
</g>
<!-- Node1&#45;&gt;Node5 -->
<g id="edge4_Node000001_Node000005" class="edge">
<title>Node1&#45;&gt;Node5</title>
<g id="a_edge4_Node000001_Node000005"><a xlink:title=" ">
<path fill="none" stroke="#63b8ff" d="M160.2,-69C170.35,-69 180.68,-69 190.72,-69"/>
<polygon fill="#63b8ff" stroke="#63b8ff" points="160.12,-65.5 150.12,-69 160.12,-72.5 160.12,-65.5"/>
</a>
</g>
</g>
<!-- Node7 -->
<g id="Node000007" class="node">
<title>Node7</title>
<g id="a_Node000007"><a xlink:href="classData_1_1ExtraData_1_1SingleDataExtraData.html" target="_top" xlink:title=" ">
<polygon fill="white" stroke="#666666" points="345,-30 191,-30 191,0 345,0 345,-30"/>
<text text-anchor="start" x="199" y="-18" font-family="Helvetica,sans-Serif" font-size="10.00">Data::ExtraData::SingleData</text>
<text text-anchor="middle" x="268" y="-7" font-family="Helvetica,sans-Serif" font-size="10.00">ExtraData&lt; T &gt;</text>
</a>
</g>
</g>
<!-- Node1&#45;&gt;Node7 -->
<g id="edge6_Node000001_Node000007" class="edge">
<title>Node1&#45;&gt;Node7</title>
<g id="a_edge6_Node000001_Node000007"><a xlink:title=" ">
<path fill="none" stroke="#63b8ff" d="M139.01,-51.19C163.2,-44.35 190.56,-36.61 213.75,-30.05"/>
<polygon fill="#63b8ff" stroke="#63b8ff" points="137.87,-47.87 129.2,-53.96 139.78,-54.61 137.87,-47.87"/>
</a>
</g>
</g>
<!-- Node3 -->
<g id="Node000003" class="node">
<title>Node3</title>
<g id="a_Node000003"><a xlink:href="classData_1_1ExtraData_1_1FaceNormalExtraData.html" target="_top" xlink:title=" ">
<polygon fill="white" stroke="#666666" points="549,-183 391,-183 391,-153 549,-153 549,-183"/>
<text text-anchor="start" x="399" y="-171" font-family="Helvetica,sans-Serif" font-size="10.00">Data::ExtraData::FaceNormal</text>
<text text-anchor="middle" x="470" y="-160" font-family="Helvetica,sans-Serif" font-size="10.00">ExtraData</text>
</a>
</g>
</g>
<!-- Node2&#45;&gt;Node3 -->
<g id="edge2_Node000002_Node000003" class="edge">
<title>Node2&#45;&gt;Node3</title>
<g id="a_edge2_Node000002_Node000003"><a xlink:title=" ">
<path fill="none" stroke="#63b8ff" d="M345.77,-140.27C364.37,-144.46 384.1,-148.9 402.19,-152.97"/>
<polygon fill="#63b8ff" stroke="#63b8ff" points="346.4,-136.83 335.88,-138.05 344.86,-143.66 346.4,-136.83"/>
</a>
</g>
</g>
<!-- Node4 -->
<g id="Node000004" class="node">
<title>Node4</title>
<g id="a_Node000004"><a xlink:href="classData_1_1ExtraData_1_1VertexNormalExtraData.html" target="_top" xlink:title=" ">
<polygon fill="white" stroke="#666666" points="554,-135 386,-135 386,-105 554,-105 554,-135"/>
<text text-anchor="start" x="394" y="-123" font-family="Helvetica,sans-Serif" font-size="10.00">Data::ExtraData::VertexNormal</text>
<text text-anchor="middle" x="470" y="-112" font-family="Helvetica,sans-Serif" font-size="10.00">ExtraData</text>
</a>
</g>
</g>
<!-- Node2&#45;&gt;Node4 -->
<g id="edge3_Node000002_Node000004" class="edge">
<title>Node2&#45;&gt;Node4</title>
<g id="a_edge3_Node000002_Node000004"><a xlink:title=" ">
<path fill="none" stroke="#63b8ff" d="M360.09,-121.63C368.68,-121.5 377.36,-121.37 385.87,-121.25"/>
<polygon fill="#63b8ff" stroke="#63b8ff" points="360.01,-118.13 350.06,-121.78 360.11,-125.13 360.01,-118.13"/>
</a>
</g>
</g>
<!-- Node6 -->
<g id="Node000006" class="node">
<title>Node6</title>
<g id="a_Node000006"><a xlink:href="classData_1_1ExtraData_1_1FlatVertexNormalsExtraData.html" target="_top" xlink:title=" ">
<polygon fill="white" stroke="#666666" points="545.5,-84 394.5,-84 394.5,-54 545.5,-54 545.5,-84"/>
<text text-anchor="start" x="402.5" y="-72" font-family="Helvetica,sans-Serif" font-size="10.00">Data::ExtraData::FlatVertex</text>
<text text-anchor="middle" x="470" y="-61" font-family="Helvetica,sans-Serif" font-size="10.00">NormalsExtraData</text>
</a>
</g>
</g>
<!-- Node5&#45;&gt;Node6 -->
<g id="edge5_Node000005_Node000006" class="edge">
<title>Node5&#45;&gt;Node6</title>
<g id="a_edge5_Node000005_Node000006"><a xlink:title=" ">
<path fill="none" stroke="#63b8ff" d="M355.48,-69C368.43,-69 381.68,-69 394.35,-69"/>
<polygon fill="#63b8ff" stroke="#63b8ff" points="355.18,-65.5 345.18,-69 355.18,-72.5 355.18,-65.5"/>
</a>
</g>
</g>
</g>
</svg>
