<?xml version="1.0" encoding="UTF-8" standalone="no"?>
<!DOCTYPE svg PUBLIC "-//W3C//DTD SVG 1.1//EN"
 "http://www.w3.org/Graphics/SVG/1.1/DTD/svg11.dtd">
<!-- Generated by graphviz version 2.43.0 (0)
 -->
<!-- Title: Data::ExtraData::VerticesTexCoordsExtraData Pages: 1 -->
<svg width="165pt" height="181pt"
 viewBox="0.00 0.00 165.00 181.00" xmlns="http://www.w3.org/2000/svg" xmlns:xlink="http://www.w3.org/1999/xlink">
<g id="graph0" class="graph" transform="scale(1 1) rotate(0) translate(4 177)">
<title>Data::ExtraData::VerticesTexCoordsExtraData</title>
<!-- Node1 -->
<g id="Node000001" class="node">
<title>Node1</title>
<g id="a_Node000001"><a xlink:title="Extra data type to store texture coordinates for each vertex of a triangle.">
<polygon fill="#999999" stroke="#666666" points="148.5,-30 8.5,-30 8.5,0 148.5,0 148.5,-30"/>
<text text-anchor="start" x="16.5" y="-18" font-family="Helvetica,sans-Serif" font-size="10.00">Data::ExtraData::Vertices</text>
<text text-anchor="middle" x="78.5" y="-7" font-family="Helvetica,sans-Serif" font-size="10.00">TexCoordsExtraData</text>
</a>
</g>
</g>
<!-- Node2 -->
<g id="Node000002" class="node">
<title>Node2</title>
<g id="a_Node000002"><a xlink:href="classData_1_1ExtraData_1_1SingleDataExtraData.html" target="_top" xlink:title=" ">
<polygon fill="white" stroke="#666666" points="157,-107 0,-107 0,-66 157,-66 157,-107"/>
<text text-anchor="start" x="8" y="-95" font-family="Helvetica,sans-Serif" font-size="10.00">Data::ExtraData::SingleData</text>
<text text-anchor="start" x="8" y="-84" font-family="Helvetica,sans-Serif" font-size="10.00">ExtraData&lt; std::array&lt; Core</text>
<text text-anchor="middle" x="78.5" y="-73" font-family="Helvetica,sans-Serif" font-size="10.00">::BaseType::Vec2, 3 &gt; &gt;</text>
</a>
</g>
</g>
<!-- Node2&#45;&gt;Node1 -->
<g id="edge1_Node000001_Node000002" class="edge">
<title>Node2&#45;&gt;Node1</title>
<g id="a_edge1_Node000001_Node000002"><a xlink:title=" ">
<path fill="none" stroke="#63b8ff" d="M78.5,-55.66C78.5,-46.76 78.5,-37.42 78.5,-30.04"/>
<polygon fill="#63b8ff" stroke="#63b8ff" points="75,-55.77 78.5,-65.77 82,-55.77 75,-55.77"/>
</a>
</g>
</g>
<!-- Node3 -->
<g id="Node000003" class="node">
<title>Node3</title>
<g id="a_Node000003"><a xlink:href="classData_1_1ExtraData_1_1BaseExtraDataType.html" target="_top" xlink:title="Base class for extra data type.">
<polygon fill="white" stroke="#666666" points="153.5,-173 3.5,-173 3.5,-143 153.5,-143 153.5,-173"/>
<text text-anchor="start" x="11.5" y="-161" font-family="Helvetica,sans-Serif" font-size="10.00">Data::ExtraData::BaseExtra</text>
<text text-anchor="middle" x="78.5" y="-150" font-family="Helvetica,sans-Serif" font-size="10.00">DataType</text>
</a>
</g>
</g>
<!-- Node3&#45;&gt;Node2 -->
<g id="edge2_Node000002_Node000003" class="edge">
<title>Node3&#45;&gt;Node2</title>
<g id="a_edge2_Node000002_Node000003"><a xlink:title=" ">
<path fill="none" stroke="#63b8ff" d="M78.5,-132.91C78.5,-124.47 78.5,-115.1 78.5,-107.07"/>
<polygon fill="#63b8ff" stroke="#63b8ff" points="75,-132.94 78.5,-142.94 82,-132.94 75,-132.94"/>
</a>
</g>
</g>
</g>
</svg>
