<?xml version="1.0" encoding="UTF-8" standalone="no"?>
<!DOCTYPE svg PUBLIC "-//W3C//DTD SVG 1.1//EN"
 "http://www.w3.org/Graphics/SVG/1.1/DTD/svg11.dtd">
<!-- Generated by graphviz version 2.43.0 (0)
 -->
<!-- Title: Core::Application Pages: 1 -->
<svg width="170pt" height="159pt"
 viewBox="0.00 0.00 170.00 159.00" xmlns="http://www.w3.org/2000/svg" xmlns:xlink="http://www.w3.org/1999/xlink">
<g id="graph0" class="graph" transform="scale(1 1) rotate(0) translate(4 155)">
<title>Core::Application</title>
<!-- Node1 -->
<g id="Node000001" class="node">
<title>Node1</title>
<g id="a_Node000001"><a xlink:title=" ">
<polygon fill="#999999" stroke="#666666" points="131,-19 31,-19 31,0 131,0 131,-19"/>
<text text-anchor="middle" x="81" y="-7" font-family="Helvetica,sans-Serif" font-size="10.00">Core::Application</text>
</a>
</g>
</g>
<!-- Node2 -->
<g id="Node000002" class="node">
<title>Node2</title>
<g id="a_Node000002"><a xlink:href="structCore_1_1ApplicationSpecification.html" target="_top" xlink:title=" ">
<polygon fill="white" stroke="#666666" points="162,-85 0,-85 0,-66 162,-66 162,-85"/>
<text text-anchor="middle" x="81" y="-73" font-family="Helvetica,sans-Serif" font-size="10.00">Core::ApplicationSpecification</text>
</a>
</g>
</g>
<!-- Node2&#45;&gt;Node1 -->
<g id="edge1_Node000001_Node000002" class="edge">
<title>Node2&#45;&gt;Node1</title>
<g id="a_edge1_Node000001_Node000002"><a xlink:title=" ">
<path fill="none" stroke="#9a32cd" stroke-dasharray="5,2" d="M81,-55.58C81,-43.63 81,-28.72 81,-19.41"/>
<polygon fill="#9a32cd" stroke="#9a32cd" points="77.5,-55.87 81,-65.87 84.5,-55.87 77.5,-55.87"/>
</a>
</g>
<text text-anchor="middle" x="121.5" y="-40" font-family="Helvetica,sans-Serif" font-size="10.00" fill="grey"> m_Specification</text>
</g>
<!-- Node3 -->
<g id="Node000003" class="node">
<title>Node3</title>
<g id="a_Node000003"><a xlink:href="structCore_1_1WindowSpecification.html" target="_top" xlink:title=" ">
<polygon fill="white" stroke="#666666" points="154,-151 8,-151 8,-132 154,-132 154,-151"/>
<text text-anchor="middle" x="81" y="-139" font-family="Helvetica,sans-Serif" font-size="10.00">Core::WindowSpecification</text>
</a>
</g>
</g>
<!-- Node3&#45;&gt;Node2 -->
<g id="edge2_Node000002_Node000003" class="edge">
<title>Node3&#45;&gt;Node2</title>
<g id="a_edge2_Node000002_Node000003"><a xlink:title=" ">
<path fill="none" stroke="#9a32cd" stroke-dasharray="5,2" d="M81,-121.58C81,-109.63 81,-94.72 81,-85.41"/>
<polygon fill="#9a32cd" stroke="#9a32cd" points="77.5,-121.87 81,-131.87 84.5,-121.87 77.5,-121.87"/>
</a>
</g>
<text text-anchor="middle" x="114" y="-106" font-family="Helvetica,sans-Serif" font-size="10.00" fill="grey"> WindowSpec</text>
</g>
</g>
</svg>
