<?xml version="1.0" encoding="UTF-8" standalone="no"?>
<!DOCTYPE svg PUBLIC "-//W3C//DTD SVG 1.1//EN"
 "http://www.w3.org/Graphics/SVG/1.1/DTD/svg11.dtd">
<!-- Generated by graphviz version 2.43.0 (0)
 -->
<!-- Title: App/Test Pages: 1 -->
<svg width="200pt" height="196pt"
 viewBox="0.00 0.00 199.50 196.00" xmlns="http://www.w3.org/2000/svg" xmlns:xlink="http://www.w3.org/1999/xlink">
<g id="graph0" class="graph" transform="scale(1 1) rotate(0) translate(4 192)">
<title>App/Test</title>
<g id="clust1" class="cluster">
<title>clusterdir_b1617d756d2224e91d37255e84e89ba2</title>
<g id="a_clust1"><a xlink:href="dir_b1617d756d2224e91d37255e84e89ba2.html" target="_top" xlink:title="App">
<polygon fill="#edf0f7" stroke="#404040" stroke-dasharray="5,2" points="8,-8 8,-180 144,-180 144,-8 8,-8"/>
<text text-anchor="middle" x="76" y="-168" font-family="Helvetica,sans-Serif" font-size="10.00">App</text>
</a>
</g>
</g>
<g id="clust2" class="cluster">
<title>clusterdir_5e289734afcfea783635eece142cb070</title>
<g id="a_clust2"><a xlink:href="dir_5e289734afcfea783635eece142cb070.html" target="_top">
<polygon fill="#edf0f7" stroke="#404040" stroke-width="2" points="16,-63 16,-153 136,-153 136,-63 16,-63"/>
</a>
</g>
</g>
<!-- dir_8375c9afe14e2d6744036dd32af5f2a6 -->
<g id="node1" class="node">
<title>dir_8375c9afe14e2d6744036dd32af5f2a6</title>
<g id="a_node1"><a xlink:href="dir_8375c9afe14e2d6744036dd32af5f2a6.html" target="_top" xlink:title="Include">
<polygon fill="#a2b4d6" stroke="red" points="98,-35 46,-35 46,-16 98,-16 98,-35"/>
<text text-anchor="middle" x="72" y="-23" font-family="Helvetica,sans-Serif" font-size="10.00">Include</text>
</a>
</g>
</g>
<!-- dir_5e289734afcfea783635eece142cb070 -->
<g id="node2" class="node">
<title>dir_5e289734afcfea783635eece142cb070</title>
<text text-anchor="middle" x="110" y="-133" font-family="Helvetica,sans-Serif" font-size="10.00">Test</text>
</g>
<!-- dir_72fed6c1f0b58b2adb9751e8795fd2ad -->
<g id="node3" class="node">
<title>dir_72fed6c1f0b58b2adb9751e8795fd2ad</title>
<g id="a_node3"><a xlink:href="dir_72fed6c1f0b58b2adb9751e8795fd2ad.html" target="_top" xlink:title="Include">
<polygon fill="#a2b4d6" stroke="#404040" points="76,-90 24,-90 24,-71 76,-71 76,-90"/>
<text text-anchor="middle" x="50" y="-78" font-family="Helvetica,sans-Serif" font-size="10.00">Include</text>
</a>
</g>
</g>
<!-- dir_72fed6c1f0b58b2adb9751e8795fd2ad&#45;&gt;dir_8375c9afe14e2d6744036dd32af5f2a6 -->
<g id="edge1" class="edge">
<title>dir_72fed6c1f0b58b2adb9751e8795fd2ad&#45;&gt;dir_8375c9afe14e2d6744036dd32af5f2a6</title>
<g id="a_edge1"><a xlink:href="dir_000005_000004.html" target="_top">
<path fill="none" stroke="#63b8ff" d="M53.63,-70.75C56.58,-63.65 60.83,-53.4 64.51,-44.56"/>
<polygon fill="#63b8ff" stroke="#63b8ff" points="67.83,-45.67 68.43,-35.09 61.37,-42.98 67.83,-45.67"/>
</a>
</g>
<g id="a_edge1&#45;headlabel"><a xlink:href="dir_000005_000004.html" target="_top" xlink:title="2">
<text text-anchor="middle" x="69.08" y="-47.58" font-family="Helvetica,sans-Serif" font-size="10.00" fill="#63b8ff">2</text>
</a>
</g>
</g>
<!-- dir_8e86fe097a34bad52a8ab5cc81cd4832 -->
<g id="node4" class="node">
<title>dir_8e86fe097a34bad52a8ab5cc81cd4832</title>
<g id="a_node4"><a xlink:href="dir_8e86fe097a34bad52a8ab5cc81cd4832.html" target="_top" xlink:title="Source">
<polygon fill="#a2b4d6" stroke="#404040" points="74,-145 24,-145 24,-126 74,-126 74,-145"/>
<text text-anchor="middle" x="49" y="-133" font-family="Helvetica,sans-Serif" font-size="10.00">Source</text>
</a>
</g>
</g>
<!-- dir_8e86fe097a34bad52a8ab5cc81cd4832&#45;&gt;dir_8375c9afe14e2d6744036dd32af5f2a6 -->
<g id="edge3" class="edge">
<title>dir_8e86fe097a34bad52a8ab5cc81cd4832&#45;&gt;dir_8375c9afe14e2d6744036dd32af5f2a6</title>
<g id="a_edge3"><a xlink:href="dir_000010_000004.html" target="_top">
<path fill="none" stroke="#63b8ff" d="M59.16,-125.81C67.9,-117.6 79.9,-104.43 85,-90 90.27,-75.1 85.85,-57.44 80.78,-44.52"/>
<polygon fill="#63b8ff" stroke="#63b8ff" points="83.97,-43.09 76.75,-35.33 77.56,-45.9 83.97,-43.09"/>
</a>
</g>
<g id="a_edge3&#45;headlabel"><a xlink:href="dir_000010_000004.html" target="_top" xlink:title="12">
<text text-anchor="middle" x="88.01" y="-42.74" font-family="Helvetica,sans-Serif" font-size="10.00" fill="#63b8ff">12</text>
</a>
</g>
</g>
<!-- dir_8e86fe097a34bad52a8ab5cc81cd4832&#45;&gt;dir_72fed6c1f0b58b2adb9751e8795fd2ad -->
<g id="edge2" class="edge">
<title>dir_8e86fe097a34bad52a8ab5cc81cd4832&#45;&gt;dir_72fed6c1f0b58b2adb9751e8795fd2ad</title>
<g id="a_edge2"><a xlink:href="dir_000010_000005.html" target="_top">
<path fill="none" stroke="#63b8ff" d="M49.17,-125.75C49.3,-118.8 49.48,-108.85 49.65,-100.13"/>
<polygon fill="#63b8ff" stroke="#63b8ff" points="53.15,-100.15 49.84,-90.09 46.15,-100.02 53.15,-100.15"/>
</a>
</g>
<g id="a_edge2&#45;headlabel"><a xlink:href="dir_000010_000005.html" target="_top" xlink:title="5">
<text text-anchor="middle" x="55.92" y="-101.3" font-family="Helvetica,sans-Serif" font-size="10.00" fill="#63b8ff">5</text>
</a>
</g>
</g>
<!-- dir_c6310732a22f63c0c2fc5595561e68f1 -->
<g id="node5" class="node">
<title>dir_c6310732a22f63c0c2fc5595561e68f1</title>
<g id="a_node5"><a xlink:href="dir_c6310732a22f63c0c2fc5595561e68f1.html" target="_top" xlink:title="Core">
<polygon fill="#edf0f7" stroke="red" points="191.5,-90 152.5,-90 152.5,-71 191.5,-71 191.5,-90"/>
<text text-anchor="middle" x="172" y="-78" font-family="Helvetica,sans-Serif" font-size="10.00">Core</text>
</a>
</g>
</g>
<!-- dir_8e86fe097a34bad52a8ab5cc81cd4832&#45;&gt;dir_c6310732a22f63c0c2fc5595561e68f1 -->
<g id="edge4" class="edge">
<title>dir_8e86fe097a34bad52a8ab5cc81cd4832&#45;&gt;dir_c6310732a22f63c0c2fc5595561e68f1</title>
<g id="a_edge4"><a xlink:href="dir_000010_000002.html" target="_top">
<path fill="none" stroke="#63b8ff" d="M68.76,-125.98C88.85,-117.33 120.17,-103.83 143.06,-93.97"/>
<polygon fill="#63b8ff" stroke="#63b8ff" points="144.49,-97.17 152.29,-89.99 141.72,-90.74 144.49,-97.17"/>
</a>
</g>
<g id="a_edge4&#45;headlabel"><a xlink:href="dir_000010_000002.html" target="_top" xlink:title="1">
<text text-anchor="middle" x="142.31" y="-98.7" font-family="Helvetica,sans-Serif" font-size="10.00" fill="#63b8ff">1</text>
</a>
</g>
</g>
</g>
</svg>
