<?xml version="1.0" encoding="UTF-8" standalone="no"?>
<!DOCTYPE svg PUBLIC "-//W3C//DTD SVG 1.1//EN"
 "http://www.w3.org/Graphics/SVG/1.1/DTD/svg11.dtd">
<!-- Generated by graphviz version 2.43.0 (0)
 -->
<!-- Title: App/Include/Application/ExtraDataContainer.h Pages: 1 -->
<svg width="1490pt" height="302pt"
 viewBox="0.00 0.00 1490.37 302.00" xmlns="http://www.w3.org/2000/svg" xmlns:xlink="http://www.w3.org/1999/xlink">
<g id="graph0" class="graph" transform="scale(1 1) rotate(0) translate(4 298)">
<title>App/Include/Application/ExtraDataContainer.h</title>
<!-- Node1 -->
<g id="Node000001" class="node">
<title>Node1</title>
<g id="a_Node000001"><a xlink:title=" ">
<polygon fill="#999999" stroke="#666666" points="1219.37,-294 1088.37,-294 1088.37,-264 1219.37,-264 1219.37,-294"/>
<text text-anchor="start" x="1096.37" y="-282" font-family="Helvetica,sans-Serif" font-size="10.00">App/Include/Application</text>
<text text-anchor="middle" x="1153.87" y="-271" font-family="Helvetica,sans-Serif" font-size="10.00">/ExtraDataContainer.h</text>
</a>
</g>
</g>
<!-- Node2 -->
<g id="Node000002" class="node">
<title>Node2</title>
<g id="a_Node000002"><a xlink:href="Mesh_8h.html" target="_top" xlink:title=" ">
<polygon fill="white" stroke="#666666" points="1001.37,-228 870.37,-228 870.37,-198 1001.37,-198 1001.37,-228"/>
<text text-anchor="start" x="878.37" y="-216" font-family="Helvetica,sans-Serif" font-size="10.00">App/Include/Application</text>
<text text-anchor="middle" x="935.87" y="-205" font-family="Helvetica,sans-Serif" font-size="10.00">/Mesh.h</text>
</a>
</g>
</g>
<!-- Node1&#45;&gt;Node2 -->
<g id="edge1_Node000001_Node000002" class="edge">
<title>Node1&#45;&gt;Node2</title>
<g id="a_edge1_Node000001_Node000002"><a xlink:title=" ">
<path fill="none" stroke="#63b8ff" d="M1096.38,-261.12C1061.23,-250.8 1016.8,-237.76 983.6,-228.01"/>
<polygon fill="#63b8ff" stroke="#63b8ff" points="1095.45,-264.5 1106.03,-263.95 1097.42,-257.78 1095.45,-264.5"/>
</a>
</g>
</g>
<!-- Node4 -->
<g id="Node000004" class="node">
<title>Node4</title>
<g id="a_Node000004"><a xlink:href="MeshExporter_8cpp.html" target="_top" xlink:title=" ">
<polygon fill="white" stroke="#666666" points="1482.37,-90.5 1321.37,-90.5 1321.37,-71.5 1482.37,-71.5 1482.37,-90.5"/>
<text text-anchor="middle" x="1401.87" y="-78.5" font-family="Helvetica,sans-Serif" font-size="10.00">App/Source/MeshExporter.cpp</text>
</a>
</g>
</g>
<!-- Node1&#45;&gt;Node4 -->
<g id="edge30_Node000001_Node000004" class="edge">
<title>Node1&#45;&gt;Node4</title>
<g id="a_edge30_Node000001_Node000004"><a xlink:title=" ">
<path fill="none" stroke="#63b8ff" d="M1225.79,-261.1C1278.92,-244.77 1348.58,-214.57 1387.87,-162 1404,-140.43 1403.86,-106.51 1402.74,-90.68"/>
<polygon fill="#63b8ff" stroke="#63b8ff" points="1224.66,-257.78 1216.07,-263.99 1226.65,-264.49 1224.66,-257.78"/>
</a>
</g>
</g>
<!-- Node3 -->
<g id="Node000003" class="node">
<title>Node3</title>
<g id="a_Node000003"><a xlink:href="MeshExporter_8h.html" target="_top" xlink:title=" ">
<polygon fill="white" stroke="#666666" points="1378.37,-162 1247.37,-162 1247.37,-132 1378.37,-132 1378.37,-162"/>
<text text-anchor="start" x="1255.37" y="-150" font-family="Helvetica,sans-Serif" font-size="10.00">App/Include/Application</text>
<text text-anchor="middle" x="1312.87" y="-139" font-family="Helvetica,sans-Serif" font-size="10.00">/MeshExporter.h</text>
</a>
</g>
</g>
<!-- Node2&#45;&gt;Node3 -->
<g id="edge2_Node000002_Node000003" class="edge">
<title>Node2&#45;&gt;Node3</title>
<g id="a_edge2_Node000002_Node000003"><a xlink:title=" ">
<path fill="none" stroke="#63b8ff" d="M1011.81,-199.35C1071.83,-189.33 1157.73,-174.9 1232.87,-162 1237.46,-161.21 1242.19,-160.4 1246.96,-159.57"/>
<polygon fill="#63b8ff" stroke="#63b8ff" points="1010.95,-195.95 1001.66,-201.05 1012.1,-202.85 1010.95,-195.95"/>
</a>
</g>
</g>
<!-- Node6 -->
<g id="Node000006" class="node">
<title>Node6</title>
<g id="a_Node000006"><a xlink:href="MeshIntegrity_8h.html" target="_top" xlink:title=" ">
<polygon fill="white" stroke="#666666" points="284.37,-162 153.37,-162 153.37,-132 284.37,-132 284.37,-162"/>
<text text-anchor="start" x="161.37" y="-150" font-family="Helvetica,sans-Serif" font-size="10.00">App/Include/Application</text>
<text text-anchor="middle" x="218.87" y="-139" font-family="Helvetica,sans-Serif" font-size="10.00">/MeshIntegrity.h</text>
</a>
</g>
</g>
<!-- Node2&#45;&gt;Node6 -->
<g id="edge5_Node000002_Node000006" class="edge">
<title>Node2&#45;&gt;Node6</title>
<g id="a_edge5_Node000002_Node000006"><a xlink:title=" ">
<path fill="none" stroke="#63b8ff" d="M860.04,-205.23C718.79,-192.62 417.65,-165.74 284.51,-153.86"/>
<polygon fill="#63b8ff" stroke="#63b8ff" points="860.07,-208.75 870.34,-206.15 860.69,-201.78 860.07,-208.75"/>
</a>
</g>
</g>
<!-- Node10 -->
<g id="Node000010" class="node">
<title>Node10</title>
<g id="a_Node000010"><a xlink:href="Mesh__utest_8cpp.html" target="_top" xlink:title=" ">
<polygon fill="white" stroke="#666666" points="307.37,-30 184.37,-30 184.37,0 307.37,0 307.37,-30"/>
<text text-anchor="start" x="192.37" y="-18" font-family="Helvetica,sans-Serif" font-size="10.00">App/Test/Source/Mesh</text>
<text text-anchor="middle" x="245.87" y="-7" font-family="Helvetica,sans-Serif" font-size="10.00">_utest.cpp</text>
</a>
</g>
</g>
<!-- Node2&#45;&gt;Node10 -->
<g id="edge29_Node000002_Node000010" class="edge">
<title>Node2&#45;&gt;Node10</title>
<g id="a_edge29_Node000002_Node000010"><a xlink:title=" ">
<path fill="none" stroke="#63b8ff" d="M860.19,-210.94C689.23,-207.96 277.7,-197.23 143.87,-162 78.9,-144.89 43.53,-152.94 7.87,-96 -33.71,-29.59 100.44,-17 184.04,-15.39"/>
<polygon fill="#63b8ff" stroke="#63b8ff" points="860.3,-214.45 870.36,-211.12 860.42,-207.45 860.3,-214.45"/>
</a>
</g>
</g>
<!-- Node11 -->
<g id="Node000011" class="node">
<title>Node11</title>
<g id="a_Node000011"><a xlink:href="MeshLoader_8h.html" target="_top" xlink:title=" ">
<polygon fill="white" stroke="#666666" points="563.37,-162 432.37,-162 432.37,-132 563.37,-132 563.37,-162"/>
<text text-anchor="start" x="440.37" y="-150" font-family="Helvetica,sans-Serif" font-size="10.00">App/Include/Application</text>
<text text-anchor="middle" x="497.87" y="-139" font-family="Helvetica,sans-Serif" font-size="10.00">/MeshLoader.h</text>
</a>
</g>
</g>
<!-- Node2&#45;&gt;Node11 -->
<g id="edge10_Node000002_Node000011" class="edge">
<title>Node2&#45;&gt;Node11</title>
<g id="a_edge10_Node000002_Node000011"><a xlink:title=" ">
<path fill="none" stroke="#63b8ff" d="M860.35,-200.96C776.66,-188.74 643.04,-169.21 563.54,-157.59"/>
<polygon fill="#63b8ff" stroke="#63b8ff" points="859.9,-204.44 870.3,-202.42 860.91,-197.51 859.9,-204.44"/>
</a>
</g>
</g>
<!-- Node13 -->
<g id="Node000013" class="node">
<title>Node13</title>
<g id="a_Node000013"><a xlink:href="PrimitiveProxy_8h.html" target="_top" xlink:title=" ">
<polygon fill="white" stroke="#666666" points="898.37,-162 767.37,-162 767.37,-132 898.37,-132 898.37,-162"/>
<text text-anchor="start" x="775.37" y="-150" font-family="Helvetica,sans-Serif" font-size="10.00">App/Include/Application</text>
<text text-anchor="middle" x="832.87" y="-139" font-family="Helvetica,sans-Serif" font-size="10.00">/PrimitiveProxy.h</text>
</a>
</g>
</g>
<!-- Node2&#45;&gt;Node13 -->
<g id="edge13_Node000002_Node000013" class="edge">
<title>Node2&#45;&gt;Node13</title>
<g id="a_edge13_Node000002_Node000013"><a xlink:title=" ">
<path fill="none" stroke="#63b8ff" d="M904.36,-192.42C888.55,-182.6 869.77,-170.93 855.42,-162.01"/>
<polygon fill="#63b8ff" stroke="#63b8ff" points="902.93,-195.65 913.27,-197.95 906.62,-189.7 902.93,-195.65"/>
</a>
</g>
</g>
<!-- Node14 -->
<g id="Node000014" class="node">
<title>Node14</title>
<g id="a_Node000014"><a xlink:href="Mesh_8cpp.html" target="_top" xlink:title=" ">
<polygon fill="white" stroke="#666666" points="1196.37,-90.5 1075.37,-90.5 1075.37,-71.5 1196.37,-71.5 1196.37,-90.5"/>
<text text-anchor="middle" x="1135.87" y="-78.5" font-family="Helvetica,sans-Serif" font-size="10.00">App/Source/Mesh.cpp</text>
</a>
</g>
</g>
<!-- Node2&#45;&gt;Node14 -->
<g id="edge26_Node000002_Node000014" class="edge">
<title>Node2&#45;&gt;Node14</title>
<g id="a_edge26_Node000002_Node000014"><a xlink:title=" ">
<path fill="none" stroke="#63b8ff" d="M966.25,-192.25C1010.45,-163.53 1090.67,-111.39 1122.42,-90.75"/>
<polygon fill="#63b8ff" stroke="#63b8ff" points="964.14,-189.46 957.66,-197.84 967.95,-195.32 964.14,-189.46"/>
</a>
</g>
</g>
<!-- Node16 -->
<g id="Node000016" class="node">
<title>Node16</title>
<g id="a_Node000016"><a xlink:href="TestHelpers_8h.html" target="_top" xlink:title=" ">
<polygon fill="white" stroke="#666666" points="1018.37,-90.5 853.37,-90.5 853.37,-71.5 1018.37,-71.5 1018.37,-90.5"/>
<text text-anchor="middle" x="935.87" y="-78.5" font-family="Helvetica,sans-Serif" font-size="10.00">App/Test/Include/TestHelpers.h</text>
</a>
</g>
</g>
<!-- Node2&#45;&gt;Node16 -->
<g id="edge27_Node000002_Node000016" class="edge">
<title>Node2&#45;&gt;Node16</title>
<g id="a_edge27_Node000002_Node000016"><a xlink:title=" ">
<path fill="none" stroke="#63b8ff" d="M935.87,-187.57C935.87,-158.17 935.87,-110.31 935.87,-90.75"/>
<polygon fill="#63b8ff" stroke="#63b8ff" points="932.37,-187.84 935.87,-197.84 939.37,-187.84 932.37,-187.84"/>
</a>
</g>
</g>
<!-- Node17 -->
<g id="Node000017" class="node">
<title>Node17</title>
<g id="a_Node000017"><a xlink:href="MeshCirculator__utest_8cpp.html" target="_top" xlink:title=" ">
<polygon fill="white" stroke="#666666" points="1083.87,-30 913.87,-30 913.87,0 1083.87,0 1083.87,-30"/>
<text text-anchor="start" x="921.87" y="-18" font-family="Helvetica,sans-Serif" font-size="10.00">App/Test/Source/MeshCirculator</text>
<text text-anchor="middle" x="998.87" y="-7" font-family="Helvetica,sans-Serif" font-size="10.00">_utest.cpp</text>
</a>
</g>
</g>
<!-- Node2&#45;&gt;Node17 -->
<g id="edge28_Node000002_Node000017" class="edge">
<title>Node2&#45;&gt;Node17</title>
<g id="a_edge28_Node000002_Node000017"><a xlink:title=" ">
<path fill="none" stroke="#63b8ff" d="M1011.49,-202.33C1075.35,-189.73 1163.05,-161.01 1205.87,-96 1213.21,-84.87 1214.12,-76.48 1205.87,-66 1197.57,-55.45 1132.05,-40.78 1076.92,-30.05"/>
<polygon fill="#63b8ff" stroke="#63b8ff" points="1010.64,-198.93 1001.46,-204.22 1011.93,-205.81 1010.64,-198.93"/>
</a>
</g>
</g>
<!-- Node3&#45;&gt;Node4 -->
<g id="edge3_Node000003_Node000004" class="edge">
<title>Node3&#45;&gt;Node4</title>
<g id="a_edge3_Node000003_Node000004"><a xlink:title=" ">
<path fill="none" stroke="#63b8ff" d="M1340.86,-125.87C1357.34,-114.03 1377.33,-99.65 1389.83,-90.66"/>
<polygon fill="#63b8ff" stroke="#63b8ff" points="1338.7,-123.12 1332.63,-131.8 1342.79,-128.8 1338.7,-123.12"/>
</a>
</g>
</g>
<!-- Node5 -->
<g id="Node000005" class="node">
<title>Node5</title>
<g id="a_Node000005"><a xlink:href="MeshExporter__utest_8cpp.html" target="_top" xlink:title=" ">
<polygon fill="white" stroke="#666666" points="1265.87,-30 1101.87,-30 1101.87,0 1265.87,0 1265.87,-30"/>
<text text-anchor="start" x="1109.87" y="-18" font-family="Helvetica,sans-Serif" font-size="10.00">App/Test/Source/MeshExporter</text>
<text text-anchor="middle" x="1183.87" y="-7" font-family="Helvetica,sans-Serif" font-size="10.00">_utest.cpp</text>
</a>
</g>
</g>
<!-- Node3&#45;&gt;Node5 -->
<g id="edge4_Node000003_Node000005" class="edge">
<title>Node3&#45;&gt;Node5</title>
<g id="a_edge4_Node000003_Node000005"><a xlink:title=" ">
<path fill="none" stroke="#63b8ff" d="M1293.74,-124.31C1279.08,-107.94 1258.16,-85.12 1238.87,-66 1226.23,-53.46 1211.23,-39.91 1200.1,-30.08"/>
<polygon fill="#63b8ff" stroke="#63b8ff" points="1291.13,-126.65 1300.4,-131.78 1296.36,-121.99 1291.13,-126.65"/>
</a>
</g>
</g>
<!-- Node7 -->
<g id="Node000007" class="node">
<title>Node7</title>
<g id="a_Node000007"><a xlink:href="MeshIntegrity_8cpp.html" target="_top" xlink:title=" ">
<polygon fill="white" stroke="#666666" points="190.37,-90.5 29.37,-90.5 29.37,-71.5 190.37,-71.5 190.37,-90.5"/>
<text text-anchor="middle" x="109.87" y="-78.5" font-family="Helvetica,sans-Serif" font-size="10.00">App/Source/MeshIntegrity.cpp</text>
</a>
</g>
</g>
<!-- Node6&#45;&gt;Node7 -->
<g id="edge6_Node000006_Node000007" class="edge">
<title>Node6&#45;&gt;Node7</title>
<g id="a_edge6_Node000006_Node000007"><a xlink:title=" ">
<path fill="none" stroke="#63b8ff" d="M186.19,-126.81C165.62,-114.73 140.08,-99.73 124.38,-90.52"/>
<polygon fill="#63b8ff" stroke="#63b8ff" points="184.56,-129.91 194.95,-131.95 188.1,-123.87 184.56,-129.91"/>
</a>
</g>
</g>
<!-- Node8 -->
<g id="Node000008" class="node">
<title>Node8</title>
<g id="a_Node000008"><a xlink:href="MeshIntegrity__utest_8cpp.html" target="_top" xlink:title=" ">
<polygon fill="white" stroke="#666666" points="517.87,-30 353.87,-30 353.87,0 517.87,0 517.87,-30"/>
<text text-anchor="start" x="361.87" y="-18" font-family="Helvetica,sans-Serif" font-size="10.00">App/Test/Source/MeshIntegrity</text>
<text text-anchor="middle" x="435.87" y="-7" font-family="Helvetica,sans-Serif" font-size="10.00">_utest.cpp</text>
</a>
</g>
</g>
<!-- Node6&#45;&gt;Node8 -->
<g id="edge7_Node000006_Node000008" class="edge">
<title>Node6&#45;&gt;Node8</title>
<g id="a_edge7_Node000006_Node000008"><a xlink:title=" ">
<path fill="none" stroke="#63b8ff" d="M218.33,-121.59C219.28,-103.88 223.52,-80.56 237.87,-66 254.4,-49.24 307.02,-36.42 353.87,-27.96"/>
<polygon fill="#63b8ff" stroke="#63b8ff" points="214.83,-121.7 218.1,-131.77 221.82,-121.85 214.83,-121.7"/>
</a>
</g>
</g>
<!-- Node9 -->
<g id="Node000009" class="node">
<title>Node9</title>
<g id="a_Node000009"><a xlink:href="MeshLoader__utest_8cpp.html" target="_top" xlink:title=" ">
<polygon fill="white" stroke="#666666" points="402.87,-96 246.87,-96 246.87,-66 402.87,-66 402.87,-96"/>
<text text-anchor="start" x="254.87" y="-84" font-family="Helvetica,sans-Serif" font-size="10.00">App/Test/Source/MeshLoader</text>
<text text-anchor="middle" x="324.87" y="-73" font-family="Helvetica,sans-Serif" font-size="10.00">_utest.cpp</text>
</a>
</g>
</g>
<!-- Node6&#45;&gt;Node9 -->
<g id="edge8_Node000006_Node000009" class="edge">
<title>Node6&#45;&gt;Node9</title>
<g id="a_edge8_Node000006_Node000009"><a xlink:title=" ">
<path fill="none" stroke="#63b8ff" d="M250.85,-126.69C267.21,-116.82 286.77,-105.01 301.67,-96.01"/>
<polygon fill="#63b8ff" stroke="#63b8ff" points="248.89,-123.79 242.14,-131.95 252.51,-129.78 248.89,-123.79"/>
</a>
</g>
</g>
<!-- Node6&#45;&gt;Node10 -->
<g id="edge9_Node000006_Node000010" class="edge">
<title>Node6&#45;&gt;Node10</title>
<g id="a_edge9_Node000006_Node000010"><a xlink:title=" ">
<path fill="none" stroke="#63b8ff" d="M142.85,-140.59C71.86,-132.59 -17.9,-113.05 19.87,-66 40.16,-40.74 124.56,-27.46 184.25,-21.1"/>
<polygon fill="#63b8ff" stroke="#63b8ff" points="142.86,-144.11 153.17,-141.69 143.6,-137.15 142.86,-144.11"/>
</a>
</g>
</g>
<!-- Node11&#45;&gt;Node9 -->
<g id="edge12_Node000011_Node000009" class="edge">
<title>Node11&#45;&gt;Node9</title>
<g id="a_edge12_Node000011_Node000009"><a xlink:title=" ">
<path fill="none" stroke="#63b8ff" d="M450.45,-128.46C422.85,-118.25 388.53,-105.55 362.75,-96.01"/>
<polygon fill="#63b8ff" stroke="#63b8ff" points="449.32,-131.77 459.91,-131.95 451.74,-125.2 449.32,-131.77"/>
</a>
</g>
</g>
<!-- Node12 -->
<g id="Node000012" class="node">
<title>Node12</title>
<g id="a_Node000012"><a xlink:href="MeshLoader_8cpp.html" target="_top" xlink:title=" ">
<polygon fill="white" stroke="#666666" points="574.37,-90.5 421.37,-90.5 421.37,-71.5 574.37,-71.5 574.37,-90.5"/>
<text text-anchor="middle" x="497.87" y="-78.5" font-family="Helvetica,sans-Serif" font-size="10.00">App/Source/MeshLoader.cpp</text>
</a>
</g>
</g>
<!-- Node11&#45;&gt;Node12 -->
<g id="edge11_Node000011_Node000012" class="edge">
<title>Node11&#45;&gt;Node12</title>
<g id="a_edge11_Node000011_Node000012"><a xlink:title=" ">
<path fill="none" stroke="#63b8ff" d="M497.87,-121.6C497.87,-110.8 497.87,-98.78 497.87,-90.84"/>
<polygon fill="#63b8ff" stroke="#63b8ff" points="494.37,-121.8 497.87,-131.8 501.37,-121.8 494.37,-121.8"/>
</a>
</g>
</g>
<!-- Node13&#45;&gt;Node5 -->
<g id="edge23_Node000013_Node000005" class="edge">
<title>Node13&#45;&gt;Node5</title>
<g id="a_edge23_Node000013_Node000005"><a xlink:title=" ">
<path fill="none" stroke="#63b8ff" d="M908.68,-133.98C945.85,-126.27 990.54,-114.19 1027.87,-96 1047.53,-86.42 1048,-77.05 1066.87,-66 1091.46,-51.6 1120.98,-39.02 1144.21,-30.08"/>
<polygon fill="#63b8ff" stroke="#63b8ff" points="907.52,-130.65 898.41,-136.05 908.9,-137.51 907.52,-130.65"/>
</a>
</g>
</g>
<!-- Node13&#45;&gt;Node10 -->
<g id="edge24_Node000013_Node000010" class="edge">
<title>Node13&#45;&gt;Node10</title>
<g id="a_edge24_Node000013_Node000010"><a xlink:title=" ">
<path fill="none" stroke="#63b8ff" d="M757.22,-136.04C715.81,-128.65 664.43,-116.25 621.87,-96 602.13,-86.6 603,-74.55 582.87,-66 576.57,-63.32 402.92,-38.34 307.42,-24.73"/>
<polygon fill="#63b8ff" stroke="#63b8ff" points="756.8,-139.52 767.25,-137.76 757.99,-132.62 756.8,-139.52"/>
</a>
</g>
</g>
<!-- Node13&#45;&gt;Node12 -->
<g id="edge15_Node000013_Node000012" class="edge">
<title>Node13&#45;&gt;Node12</title>
<g id="a_edge15_Node000013_Node000012"><a xlink:title=" ">
<path fill="none" stroke="#63b8ff" d="M757.14,-131.53C691.06,-118.91 597.42,-101.02 542.63,-90.55"/>
<polygon fill="#63b8ff" stroke="#63b8ff" points="756.61,-134.99 767.09,-133.43 757.92,-128.12 756.61,-134.99"/>
</a>
</g>
</g>
<!-- Node13&#45;&gt;Node14 -->
<g id="edge14_Node000013_Node000014" class="edge">
<title>Node13&#45;&gt;Node14</title>
<g id="a_edge14_Node000013_Node000014"><a xlink:title=" ">
<path fill="none" stroke="#63b8ff" d="M908.67,-129.99C967.85,-117.49 1047.77,-100.61 1095.34,-90.56"/>
<polygon fill="#63b8ff" stroke="#63b8ff" points="907.68,-126.62 898.62,-132.11 909.13,-133.47 907.68,-126.62"/>
</a>
</g>
</g>
<!-- Node15 -->
<g id="Node000015" class="node">
<title>Node15</title>
<g id="a_Node000015"><a xlink:href="PrimitiveProxy_8cpp.html" target="_top" xlink:title=" ">
<polygon fill="white" stroke="#666666" points="796.37,-90.5 631.37,-90.5 631.37,-71.5 796.37,-71.5 796.37,-90.5"/>
<text text-anchor="middle" x="713.87" y="-78.5" font-family="Helvetica,sans-Serif" font-size="10.00">App/Source/PrimitiveProxy.cpp</text>
</a>
</g>
</g>
<!-- Node13&#45;&gt;Node15 -->
<g id="edge16_Node000013_Node000015" class="edge">
<title>Node13&#45;&gt;Node15</title>
<g id="a_edge16_Node000013_Node000015"><a xlink:title=" ">
<path fill="none" stroke="#63b8ff" d="M797.8,-127.14C775.24,-115 747,-99.82 729.71,-90.52"/>
<polygon fill="#63b8ff" stroke="#63b8ff" points="796.29,-130.3 806.76,-131.95 799.61,-124.14 796.29,-130.3"/>
</a>
</g>
</g>
<!-- Node13&#45;&gt;Node16 -->
<g id="edge17_Node000013_Node000016" class="edge">
<title>Node13&#45;&gt;Node16</title>
<g id="a_edge17_Node000013_Node000016"><a xlink:title=" ">
<path fill="none" stroke="#63b8ff" d="M864.02,-126.65C883.41,-114.6 907.4,-99.69 922.17,-90.52"/>
<polygon fill="#63b8ff" stroke="#63b8ff" points="862.12,-123.7 855.48,-131.95 865.82,-129.65 862.12,-123.7"/>
</a>
</g>
</g>
<!-- Node18 -->
<g id="Node000018" class="node">
<title>Node18</title>
<g id="a_Node000018"><a xlink:href="PrimitiveProxy__utest_8cpp.html" target="_top" xlink:title=" ">
<polygon fill="white" stroke="#666666" points="895.37,-30 754.37,-30 754.37,0 895.37,0 895.37,-30"/>
<text text-anchor="start" x="762.37" y="-18" font-family="Helvetica,sans-Serif" font-size="10.00">App/Test/Source/Primitive</text>
<text text-anchor="middle" x="824.87" y="-7" font-family="Helvetica,sans-Serif" font-size="10.00">Proxy_utest.cpp</text>
</a>
</g>
</g>
<!-- Node13&#45;&gt;Node18 -->
<g id="edge25_Node000013_Node000018" class="edge">
<title>Node13&#45;&gt;Node18</title>
<g id="a_edge25_Node000013_Node000018"><a xlink:title=" ">
<path fill="none" stroke="#63b8ff" d="M831.38,-121.68C829.72,-94.7 827.1,-52.11 825.74,-30.14"/>
<polygon fill="#63b8ff" stroke="#63b8ff" points="827.89,-122.07 832,-131.84 834.88,-121.64 827.89,-122.07"/>
</a>
</g>
</g>
<!-- Node16&#45;&gt;Node5 -->
<g id="edge19_Node000016_Node000005" class="edge">
<title>Node16&#45;&gt;Node5</title>
<g id="a_edge19_Node000016_Node000005"><a xlink:title=" ">
<path fill="none" stroke="#63b8ff" d="M978.93,-68.89C1020.72,-58.1 1084.28,-41.7 1129.53,-30.02"/>
<polygon fill="#63b8ff" stroke="#63b8ff" points="977.87,-65.55 969.06,-71.44 979.62,-72.33 977.87,-65.55"/>
</a>
</g>
</g>
<!-- Node16&#45;&gt;Node8 -->
<g id="edge20_Node000016_Node000008" class="edge">
<title>Node16&#45;&gt;Node8</title>
<g id="a_edge20_Node000016_Node000008"><a xlink:title=" ">
<path fill="none" stroke="#63b8ff" d="M859.12,-70.18C766.92,-58.37 612.89,-38.66 518.26,-26.55"/>
<polygon fill="#63b8ff" stroke="#63b8ff" points="858.86,-73.67 869.22,-71.47 859.74,-66.73 858.86,-73.67"/>
</a>
</g>
</g>
<!-- Node16&#45;&gt;Node10 -->
<g id="edge21_Node000016_Node000010" class="edge">
<title>Node16&#45;&gt;Node10</title>
<g id="a_edge21_Node000016_Node000010"><a xlink:title=" ">
<path fill="none" stroke="#63b8ff" d="M850.16,-70.41C835.4,-68.86 820.2,-67.33 805.87,-66 601.24,-47 549.16,-52.4 344.87,-30 332.8,-28.68 319.92,-27.03 307.59,-25.33"/>
<polygon fill="#63b8ff" stroke="#63b8ff" points="849.98,-73.91 860.3,-71.48 850.72,-66.95 849.98,-73.91"/>
</a>
</g>
</g>
<!-- Node16&#45;&gt;Node17 -->
<g id="edge18_Node000016_Node000017" class="edge">
<title>Node16&#45;&gt;Node17</title>
<g id="a_edge18_Node000016_Node000017"><a xlink:title=" ">
<path fill="none" stroke="#63b8ff" d="M951.47,-64.16C961.66,-53.81 974.86,-40.4 984.74,-30.36"/>
<polygon fill="#63b8ff" stroke="#63b8ff" points="948.89,-61.79 944.37,-71.37 953.88,-66.7 948.89,-61.79"/>
</a>
</g>
</g>
<!-- Node16&#45;&gt;Node18 -->
<g id="edge22_Node000016_Node000018" class="edge">
<title>Node16&#45;&gt;Node18</title>
<g id="a_edge22_Node000016_Node000018"><a xlink:title=" ">
<path fill="none" stroke="#63b8ff" d="M912.2,-66.35C893.7,-55.68 868.06,-40.9 849.36,-30.12"/>
<polygon fill="#63b8ff" stroke="#63b8ff" points="910.49,-69.41 920.9,-71.37 913.99,-63.34 910.49,-69.41"/>
</a>
</g>
</g>
</g>
</svg>
