<?xml version="1.0" encoding="UTF-8" standalone="no"?>
<!DOCTYPE svg PUBLIC "-//W3C//DTD SVG 1.1//EN"
 "http://www.w3.org/Graphics/SVG/1.1/DTD/svg11.dtd">
<!-- Generated by graphviz version 2.43.0 (0)
 -->
<!-- Title: App/Include/Application/ExtraDataContainer.h Pages: 1 -->
<svg width="1454pt" height="302pt"
 viewBox="0.00 0.00 1453.94 302.00" xmlns="http://www.w3.org/2000/svg" xmlns:xlink="http://www.w3.org/1999/xlink">
<g id="graph0" class="graph" transform="scale(1 1) rotate(0) translate(4 298)">
<title>App/Include/Application/ExtraDataContainer.h</title>
<!-- Node1 -->
<g id="Node000001" class="node">
<title>Node1</title>
<g id="a_Node000001"><a xlink:title=" ">
<polygon fill="#999999" stroke="#666666" points="1126.94,-294 995.94,-294 995.94,-264 1126.94,-264 1126.94,-294"/>
<text text-anchor="start" x="1003.94" y="-282" font-family="Helvetica,sans-Serif" font-size="10.00">App/Include/Application</text>
<text text-anchor="middle" x="1061.44" y="-271" font-family="Helvetica,sans-Serif" font-size="10.00">/ExtraDataContainer.h</text>
</a>
</g>
</g>
<!-- Node2 -->
<g id="Node000002" class="node">
<title>Node2</title>
<g id="a_Node000002"><a xlink:href="Mesh_8h.html" target="_top" xlink:title=" ">
<polygon fill="white" stroke="#666666" points="853.94,-228 722.94,-228 722.94,-198 853.94,-198 853.94,-228"/>
<text text-anchor="start" x="730.94" y="-216" font-family="Helvetica,sans-Serif" font-size="10.00">App/Include/Application</text>
<text text-anchor="middle" x="788.44" y="-205" font-family="Helvetica,sans-Serif" font-size="10.00">/Mesh.h</text>
</a>
</g>
</g>
<!-- Node1&#45;&gt;Node2 -->
<g id="edge1_Node000001_Node000002" class="edge">
<title>Node1&#45;&gt;Node2</title>
<g id="a_edge1_Node000001_Node000002"><a xlink:title=" ">
<path fill="none" stroke="#63b8ff" d="M991.69,-261.65C947.33,-251.25 890.49,-237.93 848.21,-228.01"/>
<polygon fill="#63b8ff" stroke="#63b8ff" points="990.99,-265.08 1001.52,-263.95 992.59,-258.26 990.99,-265.08"/>
</a>
</g>
</g>
<!-- Node4 -->
<g id="Node000004" class="node">
<title>Node4</title>
<g id="a_Node000004"><a xlink:href="MeshExporter_8cpp.html" target="_top" xlink:title=" ">
<polygon fill="white" stroke="#666666" points="1445.94,-90.5 1284.94,-90.5 1284.94,-71.5 1445.94,-71.5 1445.94,-90.5"/>
<text text-anchor="middle" x="1365.44" y="-78.5" font-family="Helvetica,sans-Serif" font-size="10.00">App/Source/MeshExporter.cpp</text>
</a>
</g>
</g>
<!-- Node1&#45;&gt;Node4 -->
<g id="edge30_Node000001_Node000004" class="edge">
<title>Node1&#45;&gt;Node4</title>
<g id="a_edge30_Node000001_Node000004"><a xlink:title=" ">
<path fill="none" stroke="#63b8ff" d="M1137.07,-268.45C1203.86,-255.86 1298.62,-227.08 1351.44,-162 1368.5,-140.98 1367.84,-106.49 1366.45,-90.56"/>
<polygon fill="#63b8ff" stroke="#63b8ff" points="1136.23,-265.04 1127.01,-270.26 1137.47,-271.93 1136.23,-265.04"/>
</a>
</g>
</g>
<!-- Node3 -->
<g id="Node000003" class="node">
<title>Node3</title>
<g id="a_Node000003"><a xlink:href="MeshExporter_8h.html" target="_top" xlink:title=" ">
<polygon fill="white" stroke="#666666" points="1341.94,-162 1210.94,-162 1210.94,-132 1341.94,-132 1341.94,-162"/>
<text text-anchor="start" x="1218.94" y="-150" font-family="Helvetica,sans-Serif" font-size="10.00">App/Include/Application</text>
<text text-anchor="middle" x="1276.44" y="-139" font-family="Helvetica,sans-Serif" font-size="10.00">/MeshExporter.h</text>
</a>
</g>
</g>
<!-- Node2&#45;&gt;Node3 -->
<g id="edge2_Node000002_Node000003" class="edge">
<title>Node2&#45;&gt;Node3</title>
<g id="a_edge2_Node000002_Node000003"><a xlink:title=" ">
<path fill="none" stroke="#63b8ff" d="M863.92,-203.92C945.93,-194.87 1080.73,-179.2 1196.44,-162 1201.04,-161.32 1205.78,-160.58 1210.56,-159.8"/>
<polygon fill="#63b8ff" stroke="#63b8ff" points="863.5,-200.45 853.94,-205.02 864.26,-207.41 863.5,-200.45"/>
</a>
</g>
</g>
<!-- Node6 -->
<g id="Node000006" class="node">
<title>Node6</title>
<g id="a_Node000006"><a xlink:href="MeshIntegrity_8h.html" target="_top" xlink:title=" ">
<polygon fill="white" stroke="#666666" points="281.94,-162 150.94,-162 150.94,-132 281.94,-132 281.94,-162"/>
<text text-anchor="start" x="158.94" y="-150" font-family="Helvetica,sans-Serif" font-size="10.00">App/Include/Application</text>
<text text-anchor="middle" x="216.44" y="-139" font-family="Helvetica,sans-Serif" font-size="10.00">/MeshIntegrity.h</text>
</a>
</g>
</g>
<!-- Node2&#45;&gt;Node6 -->
<g id="edge5_Node000002_Node000006" class="edge">
<title>Node2&#45;&gt;Node6</title>
<g id="a_edge5_Node000002_Node000006"><a xlink:title=" ">
<path fill="none" stroke="#63b8ff" d="M712.87,-203.55C599.95,-190.91 389.06,-167.31 282.16,-155.35"/>
<polygon fill="#63b8ff" stroke="#63b8ff" points="712.49,-207.02 722.82,-204.66 713.27,-200.07 712.49,-207.02"/>
</a>
</g>
</g>
<!-- Node10 -->
<g id="Node000010" class="node">
<title>Node10</title>
<g id="a_Node000010"><a xlink:href="Mesh__utest_8cpp.html" target="_top" xlink:title=" ">
<polygon fill="white" stroke="#666666" points="240.94,-30 117.94,-30 117.94,0 240.94,0 240.94,-30"/>
<text text-anchor="start" x="125.94" y="-18" font-family="Helvetica,sans-Serif" font-size="10.00">App/Test/Source/Mesh</text>
<text text-anchor="middle" x="179.44" y="-7" font-family="Helvetica,sans-Serif" font-size="10.00">_utest.cpp</text>
</a>
</g>
</g>
<!-- Node2&#45;&gt;Node10 -->
<g id="edge29_Node000002_Node000010" class="edge">
<title>Node2&#45;&gt;Node10</title>
<g id="a_edge29_Node000002_Node000010"><a xlink:title=" ">
<path fill="none" stroke="#63b8ff" d="M712.56,-209.71C565.57,-204.69 247.12,-190.79 141.44,-162 77,-144.45 41.8,-152.65 6.44,-96 -22.39,-49.82 57.26,-29.96 117.88,-21.66"/>
<polygon fill="#63b8ff" stroke="#63b8ff" points="712.73,-213.22 722.85,-210.06 712.97,-206.22 712.73,-213.22"/>
</a>
</g>
</g>
<!-- Node11 -->
<g id="Node000011" class="node">
<title>Node11</title>
<g id="a_Node000011"><a xlink:href="MeshLoader_8h.html" target="_top" xlink:title=" ">
<polygon fill="white" stroke="#666666" points="560.94,-162 429.94,-162 429.94,-132 560.94,-132 560.94,-162"/>
<text text-anchor="start" x="437.94" y="-150" font-family="Helvetica,sans-Serif" font-size="10.00">App/Include/Application</text>
<text text-anchor="middle" x="495.44" y="-139" font-family="Helvetica,sans-Serif" font-size="10.00">/MeshLoader.h</text>
</a>
</g>
</g>
<!-- Node2&#45;&gt;Node11 -->
<g id="edge10_Node000002_Node000011" class="edge">
<title>Node2&#45;&gt;Node11</title>
<g id="a_edge10_Node000002_Node000011"><a xlink:title=" ">
<path fill="none" stroke="#63b8ff" d="M714.18,-195.78C666.48,-185.36 605.16,-171.97 559.59,-162.01"/>
<polygon fill="#63b8ff" stroke="#63b8ff" points="713.62,-199.24 724.14,-197.95 715.11,-192.4 713.62,-199.24"/>
</a>
</g>
</g>
<!-- Node13 -->
<g id="Node000013" class="node">
<title>Node13</title>
<g id="a_Node000013"><a xlink:href="PrimitiveProxy_8h.html" target="_top" xlink:title=" ">
<polygon fill="white" stroke="#666666" points="853.94,-162 722.94,-162 722.94,-132 853.94,-132 853.94,-162"/>
<text text-anchor="start" x="730.94" y="-150" font-family="Helvetica,sans-Serif" font-size="10.00">App/Include/Application</text>
<text text-anchor="middle" x="788.44" y="-139" font-family="Helvetica,sans-Serif" font-size="10.00">/PrimitiveProxy.h</text>
</a>
</g>
</g>
<!-- Node2&#45;&gt;Node13 -->
<g id="edge13_Node000002_Node000013" class="edge">
<title>Node2&#45;&gt;Node13</title>
<g id="a_edge13_Node000002_Node000013"><a xlink:title=" ">
<path fill="none" stroke="#63b8ff" d="M788.44,-187.54C788.44,-178.96 788.44,-169.61 788.44,-162.16"/>
<polygon fill="#63b8ff" stroke="#63b8ff" points="784.94,-187.8 788.44,-197.8 791.94,-187.8 784.94,-187.8"/>
</a>
</g>
</g>
<!-- Node14 -->
<g id="Node000014" class="node">
<title>Node14</title>
<g id="a_Node000014"><a xlink:href="TestHelpers_8h.html" target="_top" xlink:title=" ">
<polygon fill="white" stroke="#666666" points="759.94,-96 628.94,-96 628.94,-66 759.94,-66 759.94,-96"/>
<text text-anchor="start" x="636.94" y="-84" font-family="Helvetica,sans-Serif" font-size="10.00">App/Include/Application</text>
<text text-anchor="middle" x="694.44" y="-73" font-family="Helvetica,sans-Serif" font-size="10.00">/TestHelpers.h</text>
</a>
</g>
</g>
<!-- Node2&#45;&gt;Node14 -->
<g id="edge26_Node000002_Node000014" class="edge">
<title>Node2&#45;&gt;Node14</title>
<g id="a_edge26_Node000002_Node000014"><a xlink:title=" ">
<path fill="none" stroke="#63b8ff" d="M749.06,-192.87C736.33,-184.93 723.25,-174.59 714.44,-162 700.48,-142.06 696.24,-113.33 694.96,-96.27"/>
<polygon fill="#63b8ff" stroke="#63b8ff" points="747.36,-195.93 757.75,-197.98 750.91,-189.89 747.36,-195.93"/>
</a>
</g>
</g>
<!-- Node15 -->
<g id="Node000015" class="node">
<title>Node15</title>
<g id="a_Node000015"><a xlink:href="MeshCirculator__utest_8cpp.html" target="_top" xlink:title=" ">
<polygon fill="white" stroke="#666666" points="953.44,-30 783.44,-30 783.44,0 953.44,0 953.44,-30"/>
<text text-anchor="start" x="791.44" y="-18" font-family="Helvetica,sans-Serif" font-size="10.00">App/Test/Source/MeshCirculator</text>
<text text-anchor="middle" x="868.44" y="-7" font-family="Helvetica,sans-Serif" font-size="10.00">_utest.cpp</text>
</a>
</g>
</g>
<!-- Node2&#45;&gt;Node15 -->
<g id="edge28_Node000002_Node000015" class="edge">
<title>Node2&#45;&gt;Node15</title>
<g id="a_edge28_Node000002_Node000015"><a xlink:title=" ">
<path fill="none" stroke="#63b8ff" d="M864.25,-199.81C964.6,-181.94 1133.13,-145.33 1169.44,-96 1177.34,-85.26 1178.06,-76.17 1169.44,-66 1165.9,-61.83 1041.51,-42.21 953.76,-28.82"/>
<polygon fill="#63b8ff" stroke="#63b8ff" points="863.4,-196.4 854.16,-201.58 864.61,-203.3 863.4,-196.4"/>
</a>
</g>
</g>
<!-- Node17 -->
<g id="Node000017" class="node">
<title>Node17</title>
<g id="a_Node000017"><a xlink:href="Mesh_8cpp.html" target="_top" xlink:title=" ">
<polygon fill="white" stroke="#666666" points="1159.94,-90.5 1038.94,-90.5 1038.94,-71.5 1159.94,-71.5 1159.94,-90.5"/>
<text text-anchor="middle" x="1099.44" y="-78.5" font-family="Helvetica,sans-Serif" font-size="10.00">App/Source/Mesh.cpp</text>
</a>
</g>
</g>
<!-- Node2&#45;&gt;Node17 -->
<g id="edge27_Node000002_Node000017" class="edge">
<title>Node2&#45;&gt;Node17</title>
<g id="a_edge27_Node000002_Node000017"><a xlink:title=" ">
<path fill="none" stroke="#63b8ff" d="M831.57,-193.97C899.47,-165.59 1028.71,-111.56 1078.84,-90.61"/>
<polygon fill="#63b8ff" stroke="#63b8ff" points="829.89,-190.88 822.01,-197.96 832.59,-197.34 829.89,-190.88"/>
</a>
</g>
</g>
<!-- Node3&#45;&gt;Node4 -->
<g id="edge3_Node000003_Node000004" class="edge">
<title>Node3&#45;&gt;Node4</title>
<g id="a_edge3_Node000003_Node000004"><a xlink:title=" ">
<path fill="none" stroke="#63b8ff" d="M1304.42,-125.87C1320.9,-114.03 1340.89,-99.65 1353.39,-90.66"/>
<polygon fill="#63b8ff" stroke="#63b8ff" points="1302.26,-123.12 1296.19,-131.8 1306.35,-128.8 1302.26,-123.12"/>
</a>
</g>
</g>
<!-- Node5 -->
<g id="Node000005" class="node">
<title>Node5</title>
<g id="a_Node000005"><a xlink:href="MeshExporter__utest_8cpp.html" target="_top" xlink:title=" ">
<polygon fill="white" stroke="#666666" points="1135.44,-30 971.44,-30 971.44,0 1135.44,0 1135.44,-30"/>
<text text-anchor="start" x="979.44" y="-18" font-family="Helvetica,sans-Serif" font-size="10.00">App/Test/Source/MeshExporter</text>
<text text-anchor="middle" x="1053.44" y="-7" font-family="Helvetica,sans-Serif" font-size="10.00">_utest.cpp</text>
</a>
</g>
</g>
<!-- Node3&#45;&gt;Node5 -->
<g id="edge4_Node000003_Node000005" class="edge">
<title>Node3&#45;&gt;Node5</title>
<g id="a_edge4_Node000003_Node000005"><a xlink:title=" ">
<path fill="none" stroke="#63b8ff" d="M1260.78,-123.66C1247.2,-105.79 1226.05,-81.27 1202.44,-66 1176.89,-49.48 1145.33,-37.86 1117.84,-30.02"/>
<polygon fill="#63b8ff" stroke="#63b8ff" points="1258.05,-125.87 1266.81,-131.83 1263.68,-121.71 1258.05,-125.87"/>
</a>
</g>
</g>
<!-- Node7 -->
<g id="Node000007" class="node">
<title>Node7</title>
<g id="a_Node000007"><a xlink:href="MeshIntegrity_8cpp.html" target="_top" xlink:title=" ">
<polygon fill="white" stroke="#666666" points="187.94,-90.5 26.94,-90.5 26.94,-71.5 187.94,-71.5 187.94,-90.5"/>
<text text-anchor="middle" x="107.44" y="-78.5" font-family="Helvetica,sans-Serif" font-size="10.00">App/Source/MeshIntegrity.cpp</text>
</a>
</g>
</g>
<!-- Node6&#45;&gt;Node7 -->
<g id="edge6_Node000006_Node000007" class="edge">
<title>Node6&#45;&gt;Node7</title>
<g id="a_edge6_Node000006_Node000007"><a xlink:title=" ">
<path fill="none" stroke="#63b8ff" d="M183.76,-126.81C163.18,-114.73 137.64,-99.73 121.94,-90.52"/>
<polygon fill="#63b8ff" stroke="#63b8ff" points="182.12,-129.91 192.51,-131.95 185.66,-123.87 182.12,-129.91"/>
</a>
</g>
</g>
<!-- Node8 -->
<g id="Node000008" class="node">
<title>Node8</title>
<g id="a_Node000008"><a xlink:href="MeshIntegrity__utest_8cpp.html" target="_top" xlink:title=" ">
<polygon fill="white" stroke="#666666" points="451.44,-30 287.44,-30 287.44,0 451.44,0 451.44,-30"/>
<text text-anchor="start" x="295.44" y="-18" font-family="Helvetica,sans-Serif" font-size="10.00">App/Test/Source/MeshIntegrity</text>
<text text-anchor="middle" x="369.44" y="-7" font-family="Helvetica,sans-Serif" font-size="10.00">_utest.cpp</text>
</a>
</g>
</g>
<!-- Node6&#45;&gt;Node8 -->
<g id="edge7_Node000006_Node000008" class="edge">
<title>Node6&#45;&gt;Node8</title>
<g id="a_edge7_Node000006_Node000008"><a xlink:title=" ">
<path fill="none" stroke="#63b8ff" d="M216.39,-121.74C217.61,-104.29 221.98,-81.24 235.44,-66 250.64,-48.78 272.35,-37.48 293.88,-30.07"/>
<polygon fill="#63b8ff" stroke="#63b8ff" points="212.89,-121.62 215.98,-131.76 219.88,-121.91 212.89,-121.62"/>
</a>
</g>
</g>
<!-- Node9 -->
<g id="Node000009" class="node">
<title>Node9</title>
<g id="a_Node000009"><a xlink:href="MeshLoader__utest_8cpp.html" target="_top" xlink:title=" ">
<polygon fill="white" stroke="#666666" points="400.44,-96 244.44,-96 244.44,-66 400.44,-66 400.44,-96"/>
<text text-anchor="start" x="252.44" y="-84" font-family="Helvetica,sans-Serif" font-size="10.00">App/Test/Source/MeshLoader</text>
<text text-anchor="middle" x="322.44" y="-73" font-family="Helvetica,sans-Serif" font-size="10.00">_utest.cpp</text>
</a>
</g>
</g>
<!-- Node6&#45;&gt;Node9 -->
<g id="edge8_Node000006_Node000009" class="edge">
<title>Node6&#45;&gt;Node9</title>
<g id="a_edge8_Node000006_Node000009"><a xlink:title=" ">
<path fill="none" stroke="#63b8ff" d="M248.41,-126.69C264.77,-116.82 284.33,-105.01 299.23,-96.01"/>
<polygon fill="#63b8ff" stroke="#63b8ff" points="246.45,-123.79 239.7,-131.95 250.07,-129.78 246.45,-123.79"/>
</a>
</g>
</g>
<!-- Node6&#45;&gt;Node10 -->
<g id="edge9_Node000006_Node000010" class="edge">
<title>Node6&#45;&gt;Node10</title>
<g id="a_edge9_Node000006_Node000010"><a xlink:title=" ">
<path fill="none" stroke="#63b8ff" d="M140.68,-136.67C91.12,-128.84 32.81,-115.71 17.44,-96 -13.91,-55.8 59.81,-34.4 117.85,-24.13"/>
<polygon fill="#63b8ff" stroke="#63b8ff" points="140.37,-140.17 150.79,-138.22 141.43,-133.25 140.37,-140.17"/>
</a>
</g>
</g>
<!-- Node11&#45;&gt;Node9 -->
<g id="edge12_Node000011_Node000009" class="edge">
<title>Node11&#45;&gt;Node9</title>
<g id="a_edge12_Node000011_Node000009"><a xlink:title=" ">
<path fill="none" stroke="#63b8ff" d="M448.01,-128.46C420.41,-118.25 386.1,-105.55 360.31,-96.01"/>
<polygon fill="#63b8ff" stroke="#63b8ff" points="446.88,-131.77 457.47,-131.95 449.31,-125.2 446.88,-131.77"/>
</a>
</g>
</g>
<!-- Node12 -->
<g id="Node000012" class="node">
<title>Node12</title>
<g id="a_Node000012"><a xlink:href="MeshLoader_8cpp.html" target="_top" xlink:title=" ">
<polygon fill="white" stroke="#666666" points="571.94,-90.5 418.94,-90.5 418.94,-71.5 571.94,-71.5 571.94,-90.5"/>
<text text-anchor="middle" x="495.44" y="-78.5" font-family="Helvetica,sans-Serif" font-size="10.00">App/Source/MeshLoader.cpp</text>
</a>
</g>
</g>
<!-- Node11&#45;&gt;Node12 -->
<g id="edge11_Node000011_Node000012" class="edge">
<title>Node11&#45;&gt;Node12</title>
<g id="a_edge11_Node000011_Node000012"><a xlink:title=" ">
<path fill="none" stroke="#63b8ff" d="M495.44,-121.6C495.44,-110.8 495.44,-98.78 495.44,-90.84"/>
<polygon fill="#63b8ff" stroke="#63b8ff" points="491.94,-121.8 495.44,-131.8 498.94,-121.8 491.94,-121.8"/>
</a>
</g>
</g>
<!-- Node13&#45;&gt;Node5 -->
<g id="edge23_Node000013_Node000005" class="edge">
<title>Node13&#45;&gt;Node5</title>
<g id="a_edge23_Node000013_Node000005"><a xlink:title=" ">
<path fill="none" stroke="#63b8ff" d="M864.15,-139.47C904.54,-133.12 953.56,-120.62 991.44,-96 1017.07,-79.33 1036.5,-48.37 1046.32,-30.24"/>
<polygon fill="#63b8ff" stroke="#63b8ff" points="863.47,-136.03 854.08,-140.95 864.49,-142.95 863.47,-136.03"/>
</a>
</g>
</g>
<!-- Node13&#45;&gt;Node10 -->
<g id="edge24_Node000013_Node000010" class="edge">
<title>Node13&#45;&gt;Node10</title>
<g id="a_edge24_Node000013_Node000010"><a xlink:title=" ">
<path fill="none" stroke="#63b8ff" d="M712.89,-130C682.85,-122.03 648.58,-110.86 619.44,-96 599.95,-86.06 600.69,-74.26 580.44,-66 455.27,-14.96 412.47,-47.46 278.44,-30 266.39,-28.43 253.52,-26.67 241.2,-24.95"/>
<polygon fill="#63b8ff" stroke="#63b8ff" points="712.35,-133.48 722.91,-132.58 714.1,-126.7 712.35,-133.48"/>
</a>
</g>
</g>
<!-- Node13&#45;&gt;Node12 -->
<g id="edge21_Node000013_Node000012" class="edge">
<title>Node13&#45;&gt;Node12</title>
<g id="a_edge21_Node000013_Node000012"><a xlink:title=" ">
<path fill="none" stroke="#63b8ff" d="M714.06,-129.75C656.86,-117.26 580.12,-100.5 534.43,-90.52"/>
<polygon fill="#63b8ff" stroke="#63b8ff" points="713.62,-133.24 724.14,-131.95 715.11,-126.4 713.62,-133.24"/>
</a>
</g>
</g>
<!-- Node13&#45;&gt;Node14 -->
<g id="edge14_Node000013_Node000014" class="edge">
<title>Node13&#45;&gt;Node14</title>
<g id="a_edge14_Node000013_Node000014"><a xlink:title=" ">
<path fill="none" stroke="#63b8ff" d="M759.1,-126.03C744.88,-116.34 728.13,-104.94 715.24,-96.16"/>
<polygon fill="#63b8ff" stroke="#63b8ff" points="757.34,-129.06 767.57,-131.8 761.28,-123.28 757.34,-129.06"/>
</a>
</g>
</g>
<!-- Node16 -->
<g id="Node000016" class="node">
<title>Node16</title>
<g id="a_Node000016"><a xlink:href="PrimitiveProxy__utest_8cpp.html" target="_top" xlink:title=" ">
<polygon fill="white" stroke="#666666" points="764.94,-30 623.94,-30 623.94,0 764.94,0 764.94,-30"/>
<text text-anchor="start" x="631.94" y="-18" font-family="Helvetica,sans-Serif" font-size="10.00">App/Test/Source/Primitive</text>
<text text-anchor="middle" x="694.44" y="-7" font-family="Helvetica,sans-Serif" font-size="10.00">Proxy_utest.cpp</text>
</a>
</g>
</g>
<!-- Node13&#45;&gt;Node16 -->
<g id="edge25_Node000013_Node000016" class="edge">
<title>Node13&#45;&gt;Node16</title>
<g id="a_edge25_Node000013_Node000016"><a xlink:title=" ">
<path fill="none" stroke="#63b8ff" d="M787.28,-121.51C785.43,-104.62 780.81,-82.34 769.44,-66 758.62,-50.46 741.27,-38.44 725.98,-30.08"/>
<polygon fill="#63b8ff" stroke="#63b8ff" points="783.81,-122.05 788.14,-131.72 790.79,-121.47 783.81,-122.05"/>
</a>
</g>
</g>
<!-- Node13&#45;&gt;Node17 -->
<g id="edge20_Node000013_Node000017" class="edge">
<title>Node13&#45;&gt;Node17</title>
<g id="a_edge20_Node000013_Node000017"><a xlink:title=" ">
<path fill="none" stroke="#63b8ff" d="M863.97,-130.46C924.89,-117.92 1008.31,-100.75 1057.76,-90.58"/>
<polygon fill="#63b8ff" stroke="#63b8ff" points="863.1,-127.06 854.01,-132.51 864.51,-133.92 863.1,-127.06"/>
</a>
</g>
</g>
<!-- Node18 -->
<g id="Node000018" class="node">
<title>Node18</title>
<g id="a_Node000018"><a xlink:href="PrimitiveProxy_8cpp.html" target="_top" xlink:title=" ">
<polygon fill="white" stroke="#666666" points="981.94,-90.5 816.94,-90.5 816.94,-71.5 981.94,-71.5 981.94,-90.5"/>
<text text-anchor="middle" x="899.44" y="-78.5" font-family="Helvetica,sans-Serif" font-size="10.00">App/Source/PrimitiveProxy.cpp</text>
</a>
</g>
</g>
<!-- Node13&#45;&gt;Node18 -->
<g id="edge22_Node000013_Node000018" class="edge">
<title>Node13&#45;&gt;Node18</title>
<g id="a_edge22_Node000013_Node000018"><a xlink:title=" ">
<path fill="none" stroke="#63b8ff" d="M821.71,-126.81C842.67,-114.73 868.68,-99.73 884.66,-90.52"/>
<polygon fill="#63b8ff" stroke="#63b8ff" points="819.71,-123.93 812.79,-131.95 823.21,-129.99 819.71,-123.93"/>
</a>
</g>
</g>
<!-- Node14&#45;&gt;Node5 -->
<g id="edge16_Node000014_Node000005" class="edge">
<title>Node14&#45;&gt;Node5</title>
<g id="a_edge16_Node000014_Node000005"><a xlink:title=" ">
<path fill="none" stroke="#63b8ff" d="M770.47,-66.45C830.55,-55.73 914.13,-40.83 974.87,-30.01"/>
<polygon fill="#63b8ff" stroke="#63b8ff" points="769.51,-63.06 760.28,-68.26 770.74,-69.95 769.51,-63.06"/>
</a>
</g>
</g>
<!-- Node14&#45;&gt;Node8 -->
<g id="edge17_Node000014_Node000008" class="edge">
<title>Node14&#45;&gt;Node8</title>
<g id="a_edge17_Node000014_Node000008"><a xlink:title=" ">
<path fill="none" stroke="#63b8ff" d="M618.85,-65.12C565.14,-54.54 493.47,-40.43 440.75,-30.04"/>
<polygon fill="#63b8ff" stroke="#63b8ff" points="618.18,-68.55 628.67,-67.05 619.53,-61.68 618.18,-68.55"/>
</a>
</g>
</g>
<!-- Node14&#45;&gt;Node10 -->
<g id="edge18_Node000014_Node000010" class="edge">
<title>Node14&#45;&gt;Node10</title>
<g id="a_edge18_Node000014_Node000010"><a xlink:title=" ">
<path fill="none" stroke="#63b8ff" d="M618.35,-66.56C617.04,-66.37 615.73,-66.18 614.44,-66 465.72,-45.04 427.48,-48.52 278.44,-30 266.38,-28.5 253.51,-26.78 241.18,-25.06"/>
<polygon fill="#63b8ff" stroke="#63b8ff" points="618.16,-70.07 628.57,-68.12 619.21,-63.15 618.16,-70.07"/>
</a>
</g>
</g>
<!-- Node14&#45;&gt;Node15 -->
<g id="edge15_Node000014_Node000015" class="edge">
<title>Node14&#45;&gt;Node15</title>
<g id="a_edge15_Node000014_Node000015"><a xlink:title=" ">
<path fill="none" stroke="#63b8ff" d="M742.13,-62.46C769.89,-52.25 804.41,-39.55 830.34,-30.01"/>
<polygon fill="#63b8ff" stroke="#63b8ff" points="740.8,-59.22 732.62,-65.95 743.21,-65.79 740.8,-59.22"/>
</a>
</g>
</g>
<!-- Node14&#45;&gt;Node16 -->
<g id="edge19_Node000014_Node000016" class="edge">
<title>Node14&#45;&gt;Node16</title>
<g id="a_edge19_Node000014_Node000016"><a xlink:title=" ">
<path fill="none" stroke="#63b8ff" d="M694.44,-55.54C694.44,-46.96 694.44,-37.61 694.44,-30.16"/>
<polygon fill="#63b8ff" stroke="#63b8ff" points="690.94,-55.8 694.44,-65.8 697.94,-55.8 690.94,-55.8"/>
</a>
</g>
</g>
</g>
</svg>
