<?xml version="1.0" encoding="UTF-8" standalone="no"?>
<!DOCTYPE svg PUBLIC "-//W3C//DTD SVG 1.1//EN"
 "http://www.w3.org/Graphics/SVG/1.1/DTD/svg11.dtd">
<!-- Generated by graphviz version 2.43.0 (0)
 -->
<!-- Title: App/Include/Application/ExtraDataContainer.h Pages: 1 -->
<svg width="1464pt" height="302pt"
 viewBox="0.00 0.00 1464.15 302.00" xmlns="http://www.w3.org/2000/svg" xmlns:xlink="http://www.w3.org/1999/xlink">
<g id="graph0" class="graph" transform="scale(1 1) rotate(0) translate(4 298)">
<title>App/Include/Application/ExtraDataContainer.h</title>
<!-- Node1 -->
<g id="Node000001" class="node">
<title>Node1</title>
<g id="a_Node000001"><a xlink:title=" ">
<polygon fill="#999999" stroke="#666666" points="1309.71,-294 1178.71,-294 1178.71,-264 1309.71,-264 1309.71,-294"/>
<text text-anchor="start" x="1186.71" y="-282" font-family="Helvetica,sans-Serif" font-size="10.00">App/Include/Application</text>
<text text-anchor="middle" x="1244.21" y="-271" font-family="Helvetica,sans-Serif" font-size="10.00">/ExtraDataContainer.h</text>
</a>
</g>
</g>
<!-- Node2 -->
<g id="Node000002" class="node">
<title>Node2</title>
<g id="a_Node000002"><a xlink:href="Mesh_8h.html" target="_top" xlink:title=" ">
<polygon fill="white" stroke="#666666" points="1042.71,-228 911.71,-228 911.71,-198 1042.71,-198 1042.71,-228"/>
<text text-anchor="start" x="919.71" y="-216" font-family="Helvetica,sans-Serif" font-size="10.00">App/Include/Application</text>
<text text-anchor="middle" x="977.21" y="-205" font-family="Helvetica,sans-Serif" font-size="10.00">/Mesh.h</text>
</a>
</g>
</g>
<!-- Node1&#45;&gt;Node2 -->
<g id="edge1_Node000001_Node000002" class="edge">
<title>Node1&#45;&gt;Node2</title>
<g id="a_edge1_Node000001_Node000002"><a xlink:title=" ">
<path fill="none" stroke="#63b8ff" d="M1175.72,-261.58C1132.38,-251.19 1076.94,-237.9 1035.67,-228.01"/>
<polygon fill="#63b8ff" stroke="#63b8ff" points="1175.08,-265.03 1185.62,-263.95 1176.71,-258.22 1175.08,-265.03"/>
</a>
</g>
</g>
<!-- Node4 -->
<g id="Node000004" class="node">
<title>Node4</title>
<g id="a_Node000004"><a xlink:href="MeshExporter_8cpp.html" target="_top" xlink:title=" ">
<polygon fill="white" stroke="#666666" points="1441.71,-90.5 1280.71,-90.5 1280.71,-71.5 1441.71,-71.5 1441.71,-90.5"/>
<text text-anchor="middle" x="1361.21" y="-78.5" font-family="Helvetica,sans-Serif" font-size="10.00">App/Source/MeshExporter.cpp</text>
</a>
</g>
</g>
<!-- Node1&#45;&gt;Node4 -->
<g id="edge34_Node000001_Node000004" class="edge">
<title>Node1&#45;&gt;Node4</title>
<g id="a_edge34_Node000001_Node000004"><a xlink:title=" ">
<path fill="none" stroke="#63b8ff" d="M1270.46,-257.12C1295.1,-235.94 1330.83,-200.82 1349.21,-162 1360.52,-138.14 1361.69,-106.18 1361.52,-90.88"/>
<polygon fill="#63b8ff" stroke="#63b8ff" points="1267.97,-254.64 1262.57,-263.75 1272.48,-260 1267.97,-254.64"/>
</a>
</g>
</g>
<!-- Node3 -->
<g id="Node000003" class="node">
<title>Node3</title>
<g id="a_Node000003"><a xlink:href="MeshExporter_8h.html" target="_top" xlink:title=" ">
<polygon fill="white" stroke="#666666" points="1339.71,-162 1208.71,-162 1208.71,-132 1339.71,-132 1339.71,-162"/>
<text text-anchor="start" x="1216.71" y="-150" font-family="Helvetica,sans-Serif" font-size="10.00">App/Include/Application</text>
<text text-anchor="middle" x="1274.21" y="-139" font-family="Helvetica,sans-Serif" font-size="10.00">/MeshExporter.h</text>
</a>
</g>
</g>
<!-- Node2&#45;&gt;Node3 -->
<g id="edge2_Node000002_Node000003" class="edge">
<title>Node2&#45;&gt;Node3</title>
<g id="a_edge2_Node000002_Node000003"><a xlink:title=" ">
<path fill="none" stroke="#63b8ff" d="M1052.19,-195.84C1100.57,-185.42 1162.9,-171.99 1209.19,-162.01"/>
<polygon fill="#63b8ff" stroke="#63b8ff" points="1051.43,-192.43 1042.39,-197.95 1052.91,-199.27 1051.43,-192.43"/>
</a>
</g>
</g>
<!-- Node6 -->
<g id="Node000006" class="node">
<title>Node6</title>
<g id="a_Node000006"><a xlink:href="MeshIntegrity_8h.html" target="_top" xlink:title=" ">
<polygon fill="white" stroke="#666666" points="308.71,-162 177.71,-162 177.71,-132 308.71,-132 308.71,-162"/>
<text text-anchor="start" x="185.71" y="-150" font-family="Helvetica,sans-Serif" font-size="10.00">App/Include/Application</text>
<text text-anchor="middle" x="243.21" y="-139" font-family="Helvetica,sans-Serif" font-size="10.00">/MeshIntegrity.h</text>
</a>
</g>
</g>
<!-- Node2&#45;&gt;Node6 -->
<g id="edge5_Node000002_Node000006" class="edge">
<title>Node2&#45;&gt;Node6</title>
<g id="a_edge5_Node000002_Node000006"><a xlink:title=" ">
<path fill="none" stroke="#63b8ff" d="M901.33,-205.38C756.92,-192.79 444.89,-165.58 308.85,-153.72"/>
<polygon fill="#63b8ff" stroke="#63b8ff" points="901.16,-208.88 911.43,-206.26 901.77,-201.91 901.16,-208.88"/>
</a>
</g>
</g>
<!-- Node10 -->
<g id="Node000010" class="node">
<title>Node10</title>
<g id="a_Node000010"><a xlink:href="Mesh__utest_8cpp.html" target="_top" xlink:title=" ">
<polygon fill="white" stroke="#666666" points="516.71,-30 393.71,-30 393.71,0 516.71,0 516.71,-30"/>
<text text-anchor="start" x="401.71" y="-18" font-family="Helvetica,sans-Serif" font-size="10.00">App/Test/Source/Mesh</text>
<text text-anchor="middle" x="455.21" y="-7" font-family="Helvetica,sans-Serif" font-size="10.00">_utest.cpp</text>
</a>
</g>
</g>
<!-- Node2&#45;&gt;Node10 -->
<g id="edge33_Node000002_Node000010" class="edge">
<title>Node2&#45;&gt;Node10</title>
<g id="a_edge33_Node000002_Node000010"><a xlink:title=" ">
<path fill="none" stroke="#63b8ff" d="M901.59,-210.45C728.22,-206.4 306.43,-193.53 168.21,-162 92.42,-144.71 49.6,-160.52 6.21,-96 -1.23,-84.94 -2.68,-75.94 6.21,-66 31.58,-37.65 276.35,-23.56 393.43,-18.39"/>
<polygon fill="#63b8ff" stroke="#63b8ff" points="901.57,-213.95 911.65,-210.68 901.73,-206.96 901.57,-213.95"/>
</a>
</g>
</g>
<!-- Node11 -->
<g id="Node000011" class="node">
<title>Node11</title>
<g id="a_Node000011"><a xlink:href="MeshLoader_8h.html" target="_top" xlink:title=" ">
<polygon fill="white" stroke="#666666" points="572.71,-162 441.71,-162 441.71,-132 572.71,-132 572.71,-162"/>
<text text-anchor="start" x="449.71" y="-150" font-family="Helvetica,sans-Serif" font-size="10.00">App/Include/Application</text>
<text text-anchor="middle" x="507.21" y="-139" font-family="Helvetica,sans-Serif" font-size="10.00">/MeshLoader.h</text>
</a>
</g>
</g>
<!-- Node2&#45;&gt;Node11 -->
<g id="edge10_Node000002_Node000011" class="edge">
<title>Node2&#45;&gt;Node11</title>
<g id="a_edge10_Node000002_Node000011"><a xlink:title=" ">
<path fill="none" stroke="#63b8ff" d="M901.39,-201.68C810.39,-189.28 659.28,-168.71 572.99,-156.96"/>
<polygon fill="#63b8ff" stroke="#63b8ff" points="900.99,-205.15 911.37,-203.03 901.93,-198.22 900.99,-205.15"/>
</a>
</g>
</g>
<!-- Node13 -->
<g id="Node000013" class="node">
<title>Node13</title>
<g id="a_Node000013"><a xlink:href="PrimitiveProxy_8h.html" target="_top" xlink:title=" ">
<polygon fill="white" stroke="#666666" points="904.71,-162 773.71,-162 773.71,-132 904.71,-132 904.71,-162"/>
<text text-anchor="start" x="781.71" y="-150" font-family="Helvetica,sans-Serif" font-size="10.00">App/Include/Application</text>
<text text-anchor="middle" x="839.21" y="-139" font-family="Helvetica,sans-Serif" font-size="10.00">/PrimitiveProxy.h</text>
</a>
</g>
</g>
<!-- Node2&#45;&gt;Node13 -->
<g id="edge14_Node000002_Node000013" class="edge">
<title>Node2&#45;&gt;Node13</title>
<g id="a_edge14_Node000002_Node000013"><a xlink:title=" ">
<path fill="none" stroke="#63b8ff" d="M937.65,-193.65C915.94,-183.58 889.46,-171.3 869.43,-162.01"/>
<polygon fill="#63b8ff" stroke="#63b8ff" points="936.39,-196.92 946.93,-197.95 939.33,-190.57 936.39,-196.92"/>
</a>
</g>
</g>
<!-- Node14 -->
<g id="Node000014" class="node">
<title>Node14</title>
<g id="a_Node000014"><a xlink:href="TestHelpers_8h.html" target="_top" xlink:title=" ">
<polygon fill="white" stroke="#666666" points="1045.71,-96 914.71,-96 914.71,-66 1045.71,-66 1045.71,-96"/>
<text text-anchor="start" x="922.71" y="-84" font-family="Helvetica,sans-Serif" font-size="10.00">App/Include/Application</text>
<text text-anchor="middle" x="980.21" y="-73" font-family="Helvetica,sans-Serif" font-size="10.00">/TestHelpers.h</text>
</a>
</g>
</g>
<!-- Node2&#45;&gt;Node14 -->
<g id="edge29_Node000002_Node000014" class="edge">
<title>Node2&#45;&gt;Node14</title>
<g id="a_edge29_Node000002_Node000014"><a xlink:title=" ">
<path fill="none" stroke="#63b8ff" d="M977.78,-187.68C978.4,-160.7 979.38,-118.11 979.89,-96.14"/>
<polygon fill="#63b8ff" stroke="#63b8ff" points="974.27,-187.76 977.54,-197.84 981.27,-187.92 974.27,-187.76"/>
</a>
</g>
</g>
<!-- Node15 -->
<g id="Node000015" class="node">
<title>Node15</title>
<g id="a_Node000015"><a xlink:href="MeshCirculator__utest_8cpp.html" target="_top" xlink:title=" ">
<polygon fill="white" stroke="#666666" points="1449.21,-30 1279.21,-30 1279.21,0 1449.21,0 1449.21,-30"/>
<text text-anchor="start" x="1287.21" y="-18" font-family="Helvetica,sans-Serif" font-size="10.00">App/Test/Source/MeshCirculator</text>
<text text-anchor="middle" x="1364.21" y="-7" font-family="Helvetica,sans-Serif" font-size="10.00">_utest.cpp</text>
</a>
</g>
</g>
<!-- Node2&#45;&gt;Node15 -->
<g id="edge32_Node000002_Node000015" class="edge">
<title>Node2&#45;&gt;Node15</title>
<g id="a_edge32_Node000002_Node000015"><a xlink:title=" ">
<path fill="none" stroke="#63b8ff" d="M1052.88,-211.45C1129.73,-208.71 1251.08,-198.26 1349.21,-162 1399.86,-143.28 1425.41,-143.43 1451.21,-96 1457.59,-84.29 1457.89,-77.54 1451.21,-66 1441.62,-49.41 1424.2,-37.85 1407.46,-30.05"/>
<polygon fill="#63b8ff" stroke="#63b8ff" points="1052.68,-207.96 1042.8,-211.78 1052.91,-214.95 1052.68,-207.96"/>
</a>
</g>
</g>
<!-- Node17 -->
<g id="Node000017" class="node">
<title>Node17</title>
<g id="a_Node000017"><a xlink:href="Mesh_8cpp.html" target="_top" xlink:title=" ">
<polygon fill="white" stroke="#666666" points="1223.71,-90.5 1102.71,-90.5 1102.71,-71.5 1223.71,-71.5 1223.71,-90.5"/>
<text text-anchor="middle" x="1163.21" y="-78.5" font-family="Helvetica,sans-Serif" font-size="10.00">App/Source/Mesh.cpp</text>
</a>
</g>
</g>
<!-- Node2&#45;&gt;Node17 -->
<g id="edge30_Node000002_Node000017" class="edge">
<title>Node2&#45;&gt;Node17</title>
<g id="a_edge30_Node000002_Node000017"><a xlink:title=" ">
<path fill="none" stroke="#63b8ff" d="M983.1,-188.13C988.63,-170.38 998.59,-146.77 1015.21,-132 1032.09,-117 1089.62,-100.36 1127.78,-90.56"/>
<polygon fill="#63b8ff" stroke="#63b8ff" points="979.72,-187.22 980.34,-197.8 986.45,-189.14 979.72,-187.22"/>
</a>
</g>
</g>
<!-- Node19 -->
<g id="Node000019" class="node">
<title>Node19</title>
<g id="a_Node000019"><a xlink:href="MeshCirculator_8cpp.html" target="_top" xlink:title=" ">
<polygon fill="white" stroke="#666666" points="1190.71,-156.5 1023.71,-156.5 1023.71,-137.5 1190.71,-137.5 1190.71,-156.5"/>
<text text-anchor="middle" x="1107.21" y="-144.5" font-family="Helvetica,sans-Serif" font-size="10.00">App/Source/MeshCirculator.cpp</text>
</a>
</g>
</g>
<!-- Node2&#45;&gt;Node19 -->
<g id="edge31_Node000002_Node000019" class="edge">
<title>Node2&#45;&gt;Node19</title>
<g id="a_edge31_Node000002_Node000019"><a xlink:title=" ">
<path fill="none" stroke="#63b8ff" d="M1014.88,-193.46C1039.63,-181.27 1070.86,-165.9 1089.91,-156.52"/>
<polygon fill="#63b8ff" stroke="#63b8ff" points="1013.17,-190.4 1005.74,-197.95 1016.26,-196.68 1013.17,-190.4"/>
</a>
</g>
</g>
<!-- Node3&#45;&gt;Node4 -->
<g id="edge3_Node000003_Node000004" class="edge">
<title>Node3&#45;&gt;Node4</title>
<g id="a_edge3_Node000003_Node000004"><a xlink:title=" ">
<path fill="none" stroke="#63b8ff" d="M1302.02,-125.55C1318.04,-113.76 1337.34,-99.57 1349.44,-90.66"/>
<polygon fill="#63b8ff" stroke="#63b8ff" points="1299.5,-123.05 1293.52,-131.8 1303.65,-128.69 1299.5,-123.05"/>
</a>
</g>
</g>
<!-- Node5 -->
<g id="Node000005" class="node">
<title>Node5</title>
<g id="a_Node000005"><a xlink:href="MeshExporter__utest_8cpp.html" target="_top" xlink:title=" ">
<polygon fill="white" stroke="#666666" points="1156.21,-30 992.21,-30 992.21,0 1156.21,0 1156.21,-30"/>
<text text-anchor="start" x="1000.21" y="-18" font-family="Helvetica,sans-Serif" font-size="10.00">App/Test/Source/MeshExporter</text>
<text text-anchor="middle" x="1074.21" y="-7" font-family="Helvetica,sans-Serif" font-size="10.00">_utest.cpp</text>
</a>
</g>
</g>
<!-- Node3&#45;&gt;Node5 -->
<g id="edge4_Node000003_Node000005" class="edge">
<title>Node3&#45;&gt;Node5</title>
<g id="a_edge4_Node000003_Node000005"><a xlink:title=" ">
<path fill="none" stroke="#63b8ff" d="M1267.48,-122.01C1261.31,-104.2 1250.46,-80.56 1233.21,-66 1211.54,-47.71 1183.16,-36.1 1156.39,-28.73"/>
<polygon fill="#63b8ff" stroke="#63b8ff" points="1264.2,-123.26 1270.59,-131.72 1270.87,-121.12 1264.2,-123.26"/>
</a>
</g>
</g>
<!-- Node7 -->
<g id="Node000007" class="node">
<title>Node7</title>
<g id="a_Node000007"><a xlink:href="MeshIntegrity_8cpp.html" target="_top" xlink:title=" ">
<polygon fill="white" stroke="#666666" points="176.71,-90.5 15.71,-90.5 15.71,-71.5 176.71,-71.5 176.71,-90.5"/>
<text text-anchor="middle" x="96.21" y="-78.5" font-family="Helvetica,sans-Serif" font-size="10.00">App/Source/MeshIntegrity.cpp</text>
</a>
</g>
</g>
<!-- Node6&#45;&gt;Node7 -->
<g id="edge6_Node000006_Node000007" class="edge">
<title>Node6&#45;&gt;Node7</title>
<g id="a_edge6_Node000006_Node000007"><a xlink:title=" ">
<path fill="none" stroke="#63b8ff" d="M201.73,-127.94C173.57,-115.68 137.61,-100.02 115.78,-90.52"/>
<polygon fill="#63b8ff" stroke="#63b8ff" points="200.39,-131.17 210.96,-131.95 203.18,-124.75 200.39,-131.17"/>
</a>
</g>
</g>
<!-- Node8 -->
<g id="Node000008" class="node">
<title>Node8</title>
<g id="a_Node000008"><a xlink:href="MeshIntegrity__utest_8cpp.html" target="_top" xlink:title=" ">
<polygon fill="white" stroke="#666666" points="728.21,-30 564.21,-30 564.21,0 728.21,0 728.21,-30"/>
<text text-anchor="start" x="572.21" y="-18" font-family="Helvetica,sans-Serif" font-size="10.00">App/Test/Source/MeshIntegrity</text>
<text text-anchor="middle" x="646.21" y="-7" font-family="Helvetica,sans-Serif" font-size="10.00">_utest.cpp</text>
</a>
</g>
</g>
<!-- Node6&#45;&gt;Node8 -->
<g id="edge7_Node000006_Node000008" class="edge">
<title>Node6&#45;&gt;Node8</title>
<g id="a_edge7_Node000006_Node000008"><a xlink:title=" ">
<path fill="none" stroke="#63b8ff" d="M242.16,-121.65C242.8,-103.61 246.86,-79.84 262.21,-66 267.79,-60.97 452.8,-38.59 563.94,-25.54"/>
<polygon fill="#63b8ff" stroke="#63b8ff" points="238.66,-121.74 242.14,-131.75 245.66,-121.76 238.66,-121.74"/>
</a>
</g>
</g>
<!-- Node9 -->
<g id="Node000009" class="node">
<title>Node9</title>
<g id="a_Node000009"><a xlink:href="MeshLoader__utest_8cpp.html" target="_top" xlink:title=" ">
<polygon fill="white" stroke="#666666" points="427.21,-96 271.21,-96 271.21,-66 427.21,-66 427.21,-96"/>
<text text-anchor="start" x="279.21" y="-84" font-family="Helvetica,sans-Serif" font-size="10.00">App/Test/Source/MeshLoader</text>
<text text-anchor="middle" x="349.21" y="-73" font-family="Helvetica,sans-Serif" font-size="10.00">_utest.cpp</text>
</a>
</g>
</g>
<!-- Node6&#45;&gt;Node9 -->
<g id="edge8_Node000006_Node000009" class="edge">
<title>Node6&#45;&gt;Node9</title>
<g id="a_edge8_Node000006_Node000009"><a xlink:title=" ">
<path fill="none" stroke="#63b8ff" d="M275.19,-126.69C291.55,-116.82 311.11,-105.01 326.01,-96.01"/>
<polygon fill="#63b8ff" stroke="#63b8ff" points="273.23,-123.79 266.48,-131.95 276.85,-129.78 273.23,-123.79"/>
</a>
</g>
</g>
<!-- Node6&#45;&gt;Node10 -->
<g id="edge9_Node000006_Node000010" class="edge">
<title>Node6&#45;&gt;Node10</title>
<g id="a_edge9_Node000006_Node000010"><a xlink:title=" ">
<path fill="none" stroke="#63b8ff" d="M230.19,-122.47C222.5,-105.09 216.52,-81.81 229.21,-66 249.5,-40.74 333.9,-27.46 393.59,-21.1"/>
<polygon fill="#63b8ff" stroke="#63b8ff" points="227.26,-124.46 234.78,-131.92 233.55,-121.4 227.26,-124.46"/>
</a>
</g>
</g>
<!-- Node11&#45;&gt;Node9 -->
<g id="edge12_Node000011_Node000009" class="edge">
<title>Node11&#45;&gt;Node9</title>
<g id="a_edge12_Node000011_Node000009"><a xlink:title=" ">
<path fill="none" stroke="#63b8ff" d="M463.24,-128.19C438.15,-118.02 407.15,-105.47 383.81,-96.01"/>
<polygon fill="#63b8ff" stroke="#63b8ff" points="461.96,-131.44 472.54,-131.95 464.59,-124.96 461.96,-131.44"/>
</a>
</g>
</g>
<!-- Node11&#45;&gt;Node10 -->
<g id="edge13_Node000011_Node000010" class="edge">
<title>Node11&#45;&gt;Node10</title>
<g id="a_edge13_Node000011_Node000010"><a xlink:title=" ">
<path fill="none" stroke="#63b8ff" d="M489.97,-123.53C484.27,-115.24 478.34,-105.53 474.21,-96 464.69,-73.99 459.49,-46.41 457.03,-30.06"/>
<polygon fill="#63b8ff" stroke="#63b8ff" points="487.29,-125.81 495.96,-131.9 492.98,-121.73 487.29,-125.81"/>
</a>
</g>
</g>
<!-- Node12 -->
<g id="Node000012" class="node">
<title>Node12</title>
<g id="a_Node000012"><a xlink:href="MeshLoader_8cpp.html" target="_top" xlink:title=" ">
<polygon fill="white" stroke="#666666" points="636.71,-90.5 483.71,-90.5 483.71,-71.5 636.71,-71.5 636.71,-90.5"/>
<text text-anchor="middle" x="560.21" y="-78.5" font-family="Helvetica,sans-Serif" font-size="10.00">App/Source/MeshLoader.cpp</text>
</a>
</g>
</g>
<!-- Node11&#45;&gt;Node12 -->
<g id="edge11_Node000011_Node000012" class="edge">
<title>Node11&#45;&gt;Node12</title>
<g id="a_edge11_Node000011_Node000012"><a xlink:title=" ">
<path fill="none" stroke="#63b8ff" d="M525.48,-123.94C534.89,-112.58 545.84,-99.36 552.89,-90.84"/>
<polygon fill="#63b8ff" stroke="#63b8ff" points="522.66,-121.86 518.98,-131.8 528.05,-126.33 522.66,-121.86"/>
</a>
</g>
</g>
<!-- Node13&#45;&gt;Node4 -->
<g id="edge22_Node000013_Node000004" class="edge">
<title>Node13&#45;&gt;Node4</title>
<g id="a_edge22_Node000013_Node000004"><a xlink:title=" ">
<path fill="none" stroke="#63b8ff" d="M914.94,-136.72C1016.09,-124.31 1193.88,-102.52 1291.75,-90.52"/>
<polygon fill="#63b8ff" stroke="#63b8ff" points="914.3,-133.27 904.8,-137.96 915.15,-140.22 914.3,-133.27"/>
</a>
</g>
</g>
<!-- Node13&#45;&gt;Node5 -->
<g id="edge25_Node000013_Node000005" class="edge">
<title>Node13&#45;&gt;Node5</title>
<g id="a_edge25_Node000013_Node000005"><a xlink:title=" ">
<path fill="none" stroke="#63b8ff" d="M914.69,-137.05C968.78,-129.1 1035.43,-115.67 1055.21,-96 1072.73,-78.59 1075.25,-48.17 1075.04,-30.28"/>
<polygon fill="#63b8ff" stroke="#63b8ff" points="914.16,-133.59 904.75,-138.47 915.15,-140.52 914.16,-133.59"/>
</a>
</g>
</g>
<!-- Node13&#45;&gt;Node9 -->
<g id="edge26_Node000013_Node000009" class="edge">
<title>Node13&#45;&gt;Node9</title>
<g id="a_edge26_Node000013_Node000009"><a xlink:title=" ">
<path fill="none" stroke="#63b8ff" d="M763.64,-136.13C672.4,-124.21 519.71,-104.27 427.34,-92.2"/>
<polygon fill="#63b8ff" stroke="#63b8ff" points="763.27,-139.61 773.64,-137.44 764.18,-132.67 763.27,-139.61"/>
</a>
</g>
</g>
<!-- Node13&#45;&gt;Node10 -->
<g id="edge27_Node000013_Node000010" class="edge">
<title>Node13&#45;&gt;Node10</title>
<g id="a_edge27_Node000013_Node000010"><a xlink:title=" ">
<path fill="none" stroke="#63b8ff" d="M793.14,-128.2C769.21,-118.83 739.54,-107.03 713.21,-96 682.75,-83.24 676.4,-76.9 645.21,-66 603.2,-51.31 554.64,-38.6 517.14,-29.67"/>
<polygon fill="#63b8ff" stroke="#63b8ff" points="792.09,-131.54 802.68,-131.92 794.63,-125.02 792.09,-131.54"/>
</a>
</g>
</g>
<!-- Node13&#45;&gt;Node12 -->
<g id="edge23_Node000013_Node000012" class="edge">
<title>Node13&#45;&gt;Node12</title>
<g id="a_edge23_Node000013_Node000012"><a xlink:title=" ">
<path fill="none" stroke="#63b8ff" d="M768.05,-129.68C713.62,-117.19 640.77,-100.48 597.34,-90.52"/>
<polygon fill="#63b8ff" stroke="#63b8ff" points="767.46,-133.13 777.99,-131.95 769.02,-126.31 767.46,-133.13"/>
</a>
</g>
</g>
<!-- Node13&#45;&gt;Node14 -->
<g id="edge15_Node000013_Node000014" class="edge">
<title>Node13&#45;&gt;Node14</title>
<g id="a_edge15_Node000013_Node000014"><a xlink:title=" ">
<path fill="none" stroke="#63b8ff" d="M879.35,-127.78C901.58,-117.69 928.79,-105.34 949.34,-96.01"/>
<polygon fill="#63b8ff" stroke="#63b8ff" points="877.82,-124.63 870.16,-131.95 880.71,-131.01 877.82,-124.63"/>
</a>
</g>
</g>
<!-- Node16 -->
<g id="Node000016" class="node">
<title>Node16</title>
<g id="a_Node000016"><a xlink:href="PrimitiveProxy__utest_8cpp.html" target="_top" xlink:title=" ">
<polygon fill="white" stroke="#666666" points="944.71,-30 803.71,-30 803.71,0 944.71,0 944.71,-30"/>
<text text-anchor="start" x="811.71" y="-18" font-family="Helvetica,sans-Serif" font-size="10.00">App/Test/Source/Primitive</text>
<text text-anchor="middle" x="874.21" y="-7" font-family="Helvetica,sans-Serif" font-size="10.00">Proxy_utest.cpp</text>
</a>
</g>
</g>
<!-- Node13&#45;&gt;Node16 -->
<g id="edge28_Node000013_Node000016" class="edge">
<title>Node13&#45;&gt;Node16</title>
<g id="a_edge28_Node000013_Node000016"><a xlink:title=" ">
<path fill="none" stroke="#63b8ff" d="M776.21,-128.7C738.72,-115.11 702.07,-93.84 722.21,-66 740.86,-40.23 773.24,-27.51 803.33,-21.32"/>
<polygon fill="#63b8ff" stroke="#63b8ff" points="775.12,-132.03 785.72,-131.99 777.41,-125.41 775.12,-132.03"/>
</a>
</g>
</g>
<!-- Node13&#45;&gt;Node17 -->
<g id="edge21_Node000013_Node000017" class="edge">
<title>Node13&#45;&gt;Node17</title>
<g id="a_edge21_Node000013_Node000017"><a xlink:title=" ">
<path fill="none" stroke="#63b8ff" d="M914.79,-131.07C978.58,-118.47 1067.64,-100.88 1119.99,-90.54"/>
<polygon fill="#63b8ff" stroke="#63b8ff" points="913.91,-127.68 904.78,-133.05 915.27,-134.54 913.91,-127.68"/>
</a>
</g>
</g>
<!-- Node18 -->
<g id="Node000018" class="node">
<title>Node18</title>
<g id="a_Node000018"><a xlink:href="PrimitiveProxy_8cpp.html" target="_top" xlink:title=" ">
<polygon fill="white" stroke="#666666" points="896.71,-90.5 731.71,-90.5 731.71,-71.5 896.71,-71.5 896.71,-90.5"/>
<text text-anchor="middle" x="814.21" y="-78.5" font-family="Helvetica,sans-Serif" font-size="10.00">App/Source/PrimitiveProxy.cpp</text>
</a>
</g>
</g>
<!-- Node13&#45;&gt;Node18 -->
<g id="edge24_Node000013_Node000018" class="edge">
<title>Node13&#45;&gt;Node18</title>
<g id="a_edge24_Node000013_Node000018"><a xlink:title=" ">
<path fill="none" stroke="#63b8ff" d="M829.95,-122.28C825.66,-111.31 820.83,-98.94 817.67,-90.84"/>
<polygon fill="#63b8ff" stroke="#63b8ff" points="826.77,-123.76 833.67,-131.8 833.29,-121.21 826.77,-123.76"/>
</a>
</g>
</g>
<!-- Node14&#45;&gt;Node5 -->
<g id="edge17_Node000014_Node000005" class="edge">
<title>Node14&#45;&gt;Node5</title>
<g id="a_edge17_Node000014_Node000005"><a xlink:title=" ">
<path fill="none" stroke="#63b8ff" d="M1009.55,-60.03C1023.77,-50.34 1040.52,-38.94 1053.41,-30.16"/>
<polygon fill="#63b8ff" stroke="#63b8ff" points="1007.37,-57.28 1001.08,-65.8 1011.31,-63.06 1007.37,-57.28"/>
</a>
</g>
</g>
<!-- Node14&#45;&gt;Node8 -->
<g id="edge18_Node000014_Node000008" class="edge">
<title>Node14&#45;&gt;Node8</title>
<g id="a_edge18_Node000014_Node000008"><a xlink:title=" ">
<path fill="none" stroke="#63b8ff" d="M904.51,-65.49C849.1,-54.88 774.33,-40.55 719.49,-30.04"/>
<polygon fill="#63b8ff" stroke="#63b8ff" points="904.15,-68.99 914.63,-67.43 905.46,-62.11 904.15,-68.99"/>
</a>
</g>
</g>
<!-- Node14&#45;&gt;Node10 -->
<g id="edge19_Node000014_Node000010" class="edge">
<title>Node14&#45;&gt;Node10</title>
<g id="a_edge19_Node000014_Node000010"><a xlink:title=" ">
<path fill="none" stroke="#63b8ff" d="M904.48,-65.98C748.76,-43.84 707.27,-48.46 555.21,-30 542.77,-28.49 529.48,-26.73 516.78,-24.98"/>
<polygon fill="#63b8ff" stroke="#63b8ff" points="904.02,-69.44 914.42,-67.4 905.01,-62.52 904.02,-69.44"/>
</a>
</g>
</g>
<!-- Node14&#45;&gt;Node15 -->
<g id="edge16_Node000014_Node000015" class="edge">
<title>Node14&#45;&gt;Node15</title>
<g id="a_edge16_Node000014_Node000015"><a xlink:title=" ">
<path fill="none" stroke="#63b8ff" d="M1055.9,-67.39C1120.48,-56.62 1213.22,-41.17 1280.1,-30.02"/>
<polygon fill="#63b8ff" stroke="#63b8ff" points="1055.08,-63.97 1045.79,-69.07 1056.23,-70.88 1055.08,-63.97"/>
</a>
</g>
</g>
<!-- Node14&#45;&gt;Node16 -->
<g id="edge20_Node000014_Node000016" class="edge">
<title>Node14&#45;&gt;Node16</title>
<g id="a_edge20_Node000014_Node000016"><a xlink:title=" ">
<path fill="none" stroke="#63b8ff" d="M948.24,-60.69C931.88,-50.82 912.32,-39.01 897.42,-30.01"/>
<polygon fill="#63b8ff" stroke="#63b8ff" points="946.58,-63.78 956.95,-65.95 950.2,-57.79 946.58,-63.78"/>
</a>
</g>
</g>
</g>
</svg>
