<?xml version="1.0" encoding="UTF-8" standalone="no"?>
<!DOCTYPE svg PUBLIC "-//W3C//DTD SVG 1.1//EN"
 "http://www.w3.org/Graphics/SVG/1.1/DTD/svg11.dtd">
<!-- Generated by graphviz version 2.43.0 (0)
 -->
<!-- Title: App/Include/Application/ExtraDataContainer.h Pages: 1 -->
<svg width="1514pt" height="302pt"
 viewBox="0.00 0.00 1513.77 302.00" xmlns="http://www.w3.org/2000/svg" xmlns:xlink="http://www.w3.org/1999/xlink">
<g id="graph0" class="graph" transform="scale(1 1) rotate(0) translate(4 298)">
<title>App/Include/Application/ExtraDataContainer.h</title>
<!-- Node1 -->
<g id="Node000001" class="node">
<title>Node1</title>
<g id="a_Node000001"><a xlink:title=" ">
<polygon fill="#999999" stroke="#666666" points="1269.77,-294 1138.77,-294 1138.77,-264 1269.77,-264 1269.77,-294"/>
<text text-anchor="start" x="1146.77" y="-282" font-family="Helvetica,sans-Serif" font-size="10.00">App/Include/Application</text>
<text text-anchor="middle" x="1204.27" y="-271" font-family="Helvetica,sans-Serif" font-size="10.00">/ExtraDataContainer.h</text>
</a>
</g>
</g>
<!-- Node2 -->
<g id="Node000002" class="node">
<title>Node2</title>
<g id="a_Node000002"><a xlink:href="Mesh_8h.html" target="_top" xlink:title=" ">
<polygon fill="white" stroke="#666666" points="1064.77,-228 933.77,-228 933.77,-198 1064.77,-198 1064.77,-228"/>
<text text-anchor="start" x="941.77" y="-216" font-family="Helvetica,sans-Serif" font-size="10.00">App/Include/Application</text>
<text text-anchor="middle" x="999.27" y="-205" font-family="Helvetica,sans-Serif" font-size="10.00">/Mesh.h</text>
</a>
</g>
</g>
<!-- Node1&#45;&gt;Node2 -->
<g id="edge1_Node000001_Node000002" class="edge">
<title>Node1&#45;&gt;Node2</title>
<g id="a_edge1_Node000001_Node000002"><a xlink:title=" ">
<path fill="none" stroke="#63b8ff" d="M1149.36,-260.86C1116.44,-250.58 1075.11,-237.68 1044.16,-228.01"/>
<polygon fill="#63b8ff" stroke="#63b8ff" points="1148.7,-264.32 1159.29,-263.95 1150.78,-257.63 1148.7,-264.32"/>
</a>
</g>
</g>
<!-- Node4 -->
<g id="Node000004" class="node">
<title>Node4</title>
<g id="a_Node000004"><a xlink:href="MeshExporter_8cpp.html" target="_top" xlink:title=" ">
<polygon fill="white" stroke="#666666" points="1505.77,-90.5 1344.77,-90.5 1344.77,-71.5 1505.77,-71.5 1505.77,-90.5"/>
<text text-anchor="middle" x="1425.27" y="-78.5" font-family="Helvetica,sans-Serif" font-size="10.00">App/Source/MeshExporter.cpp</text>
</a>
</g>
</g>
<!-- Node1&#45;&gt;Node4 -->
<g id="edge32_Node000001_Node000004" class="edge">
<title>Node1&#45;&gt;Node4</title>
<g id="a_edge32_Node000001_Node000004"><a xlink:title=" ">
<path fill="none" stroke="#63b8ff" d="M1267.04,-260.7C1315.74,-243.82 1380.61,-213.07 1415.27,-162 1430.29,-139.88 1428.46,-106.23 1426.57,-90.58"/>
<polygon fill="#63b8ff" stroke="#63b8ff" points="1265.89,-257.39 1257.53,-263.89 1268.12,-264.03 1265.89,-257.39"/>
</a>
</g>
</g>
<!-- Node3 -->
<g id="Node000003" class="node">
<title>Node3</title>
<g id="a_Node000003"><a xlink:href="MeshExporter_8h.html" target="_top" xlink:title=" ">
<polygon fill="white" stroke="#666666" points="1405.77,-162 1274.77,-162 1274.77,-132 1405.77,-132 1405.77,-162"/>
<text text-anchor="start" x="1282.77" y="-150" font-family="Helvetica,sans-Serif" font-size="10.00">App/Include/Application</text>
<text text-anchor="middle" x="1340.27" y="-139" font-family="Helvetica,sans-Serif" font-size="10.00">/MeshExporter.h</text>
</a>
</g>
</g>
<!-- Node2&#45;&gt;Node3 -->
<g id="edge2_Node000002_Node000003" class="edge">
<title>Node2&#45;&gt;Node3</title>
<g id="a_edge2_Node000002_Node000003"><a xlink:title=" ">
<path fill="none" stroke="#63b8ff" d="M1075.18,-197.75C1135.05,-186.52 1217.71,-171 1274.73,-160.3"/>
<polygon fill="#63b8ff" stroke="#63b8ff" points="1074.2,-194.38 1065.02,-199.66 1075.5,-201.26 1074.2,-194.38"/>
</a>
</g>
</g>
<!-- Node6 -->
<g id="Node000006" class="node">
<title>Node6</title>
<g id="a_Node000006"><a xlink:href="MeshIntegrity_8h.html" target="_top" xlink:title=" ">
<polygon fill="white" stroke="#666666" points="214.77,-162 83.77,-162 83.77,-132 214.77,-132 214.77,-162"/>
<text text-anchor="start" x="91.77" y="-150" font-family="Helvetica,sans-Serif" font-size="10.00">App/Include/Application</text>
<text text-anchor="middle" x="149.27" y="-139" font-family="Helvetica,sans-Serif" font-size="10.00">/MeshIntegrity.h</text>
</a>
</g>
</g>
<!-- Node2&#45;&gt;Node6 -->
<g id="edge5_Node000002_Node000006" class="edge">
<title>Node2&#45;&gt;Node6</title>
<g id="a_edge5_Node000002_Node000006"><a xlink:title=" ">
<path fill="none" stroke="#63b8ff" d="M923.57,-209.81C785.27,-205.19 482.64,-192.31 229.27,-162 224.65,-161.45 219.9,-160.8 215.11,-160.1"/>
<polygon fill="#63b8ff" stroke="#63b8ff" points="923.54,-213.31 933.64,-210.14 923.77,-206.31 923.54,-213.31"/>
</a>
</g>
</g>
<!-- Node10 -->
<g id="Node000010" class="node">
<title>Node10</title>
<g id="a_Node000010"><a xlink:href="Mesh__utest_8cpp.html" target="_top" xlink:title=" ">
<polygon fill="white" stroke="#666666" points="516.77,-30 393.77,-30 393.77,0 516.77,0 516.77,-30"/>
<text text-anchor="start" x="401.77" y="-18" font-family="Helvetica,sans-Serif" font-size="10.00">App/Test/Source/Mesh</text>
<text text-anchor="middle" x="455.27" y="-7" font-family="Helvetica,sans-Serif" font-size="10.00">_utest.cpp</text>
</a>
</g>
</g>
<!-- Node2&#45;&gt;Node10 -->
<g id="edge31_Node000002_Node000010" class="edge">
<title>Node2&#45;&gt;Node10</title>
<g id="a_edge31_Node000002_Node000010"><a xlink:title=" ">
<path fill="none" stroke="#63b8ff" d="M923.1,-211.99C813.41,-210.48 605.25,-201.95 433.27,-162 353.92,-143.57 308.35,-163.18 262.27,-96 227.24,-44.93 324.8,-26.39 393.67,-19.71"/>
<polygon fill="#63b8ff" stroke="#63b8ff" points="923.36,-215.5 933.4,-212.12 923.45,-208.5 923.36,-215.5"/>
</a>
</g>
</g>
<!-- Node11 -->
<g id="Node000011" class="node">
<title>Node11</title>
<g id="a_Node000011"><a xlink:href="MeshLoader_8h.html" target="_top" xlink:title=" ">
<polygon fill="white" stroke="#666666" points="573.77,-162 442.77,-162 442.77,-132 573.77,-132 573.77,-162"/>
<text text-anchor="start" x="450.77" y="-150" font-family="Helvetica,sans-Serif" font-size="10.00">App/Include/Application</text>
<text text-anchor="middle" x="508.27" y="-139" font-family="Helvetica,sans-Serif" font-size="10.00">/MeshLoader.h</text>
</a>
</g>
</g>
<!-- Node2&#45;&gt;Node11 -->
<g id="edge10_Node000002_Node000011" class="edge">
<title>Node2&#45;&gt;Node11</title>
<g id="a_edge10_Node000002_Node000011"><a xlink:title=" ">
<path fill="none" stroke="#63b8ff" d="M923.38,-202.11C827.65,-189.63 664.63,-168.38 573.99,-156.57"/>
<polygon fill="#63b8ff" stroke="#63b8ff" points="923.2,-205.61 933.56,-203.44 924.1,-198.67 923.2,-205.61"/>
</a>
</g>
</g>
<!-- Node13 -->
<g id="Node000013" class="node">
<title>Node13</title>
<g id="a_Node000013"><a xlink:href="PrimitiveProxy_8h.html" target="_top" xlink:title=" ">
<polygon fill="white" stroke="#666666" points="915.77,-162 784.77,-162 784.77,-132 915.77,-132 915.77,-162"/>
<text text-anchor="start" x="792.77" y="-150" font-family="Helvetica,sans-Serif" font-size="10.00">App/Include/Application</text>
<text text-anchor="middle" x="850.27" y="-139" font-family="Helvetica,sans-Serif" font-size="10.00">/PrimitiveProxy.h</text>
</a>
</g>
</g>
<!-- Node2&#45;&gt;Node13 -->
<g id="edge14_Node000002_Node000013" class="edge">
<title>Node2&#45;&gt;Node13</title>
<g id="a_edge14_Node000002_Node000013"><a xlink:title=" ">
<path fill="none" stroke="#63b8ff" d="M957.18,-193.92C933.63,-183.8 904.71,-171.38 882.9,-162.01"/>
<polygon fill="#63b8ff" stroke="#63b8ff" points="956.01,-197.22 966.58,-197.95 958.77,-190.79 956.01,-197.22"/>
</a>
</g>
</g>
<!-- Node14 -->
<g id="Node000014" class="node">
<title>Node14</title>
<g id="a_Node000014"><a xlink:href="TestHelpers_8h.html" target="_top" xlink:title=" ">
<polygon fill="white" stroke="#666666" points="1045.77,-96 914.77,-96 914.77,-66 1045.77,-66 1045.77,-96"/>
<text text-anchor="start" x="922.77" y="-84" font-family="Helvetica,sans-Serif" font-size="10.00">App/Include/Application</text>
<text text-anchor="middle" x="980.27" y="-73" font-family="Helvetica,sans-Serif" font-size="10.00">/TestHelpers.h</text>
</a>
</g>
</g>
<!-- Node2&#45;&gt;Node14 -->
<g id="edge27_Node000002_Node000014" class="edge">
<title>Node2&#45;&gt;Node14</title>
<g id="a_edge27_Node000002_Node000014"><a xlink:title=" ">
<path fill="none" stroke="#63b8ff" d="M995.72,-187.68C991.78,-160.7 985.55,-118.11 982.34,-96.14"/>
<polygon fill="#63b8ff" stroke="#63b8ff" points="992.29,-188.45 997.2,-197.84 999.22,-187.44 992.29,-188.45"/>
</a>
</g>
</g>
<!-- Node15 -->
<g id="Node000015" class="node">
<title>Node15</title>
<g id="a_Node000015"><a xlink:href="MeshCirculator__utest_8cpp.html" target="_top" xlink:title=" ">
<polygon fill="white" stroke="#666666" points="1065.27,-30 895.27,-30 895.27,0 1065.27,0 1065.27,-30"/>
<text text-anchor="start" x="903.27" y="-18" font-family="Helvetica,sans-Serif" font-size="10.00">App/Test/Source/MeshCirculator</text>
<text text-anchor="middle" x="980.27" y="-7" font-family="Helvetica,sans-Serif" font-size="10.00">_utest.cpp</text>
</a>
</g>
</g>
<!-- Node2&#45;&gt;Node15 -->
<g id="edge30_Node000002_Node000015" class="edge">
<title>Node2&#45;&gt;Node15</title>
<g id="a_edge30_Node000002_Node000015"><a xlink:title=" ">
<path fill="none" stroke="#63b8ff" d="M1075.04,-204.07C1131.52,-196.56 1202.21,-183.21 1222.27,-162 1251.79,-130.8 1260.54,-99.18 1233.27,-66 1227.76,-59.29 1135.88,-42.33 1064.42,-30.02"/>
<polygon fill="#63b8ff" stroke="#63b8ff" points="1074.51,-200.61 1065.04,-205.36 1075.4,-207.55 1074.51,-200.61"/>
</a>
</g>
</g>
<!-- Node17 -->
<g id="Node000017" class="node">
<title>Node17</title>
<g id="a_Node000017"><a xlink:href="Mesh_8cpp.html" target="_top" xlink:title=" ">
<polygon fill="white" stroke="#666666" points="1223.77,-90.5 1102.77,-90.5 1102.77,-71.5 1223.77,-71.5 1223.77,-90.5"/>
<text text-anchor="middle" x="1163.27" y="-78.5" font-family="Helvetica,sans-Serif" font-size="10.00">App/Source/Mesh.cpp</text>
</a>
</g>
</g>
<!-- Node2&#45;&gt;Node17 -->
<g id="edge28_Node000002_Node000017" class="edge">
<title>Node2&#45;&gt;Node17</title>
<g id="a_edge28_Node000002_Node000017"><a xlink:title=" ">
<path fill="none" stroke="#63b8ff" d="M1005.54,-187.88C1011.21,-170.32 1021.19,-147.06 1037.27,-132 1060.29,-110.44 1093.74,-97.76 1120.38,-90.56"/>
<polygon fill="#63b8ff" stroke="#63b8ff" points="1002.04,-187.38 1002.54,-197.96 1008.75,-189.37 1002.04,-187.38"/>
</a>
</g>
</g>
<!-- Node19 -->
<g id="Node000019" class="node">
<title>Node19</title>
<g id="a_Node000019"><a xlink:href="MeshCirculator_8cpp.html" target="_top" xlink:title=" ">
<polygon fill="white" stroke="#666666" points="1212.77,-156.5 1045.77,-156.5 1045.77,-137.5 1212.77,-137.5 1212.77,-156.5"/>
<text text-anchor="middle" x="1129.27" y="-144.5" font-family="Helvetica,sans-Serif" font-size="10.00">App/Source/MeshCirculator.cpp</text>
</a>
</g>
</g>
<!-- Node2&#45;&gt;Node19 -->
<g id="edge29_Node000002_Node000019" class="edge">
<title>Node2&#45;&gt;Node19</title>
<g id="a_edge29_Node000002_Node000019"><a xlink:title=" ">
<path fill="none" stroke="#63b8ff" d="M1036.94,-193.46C1061.69,-181.27 1092.92,-165.9 1111.97,-156.52"/>
<polygon fill="#63b8ff" stroke="#63b8ff" points="1035.23,-190.4 1027.8,-197.95 1038.32,-196.68 1035.23,-190.4"/>
</a>
</g>
</g>
<!-- Node3&#45;&gt;Node4 -->
<g id="edge3_Node000003_Node000004" class="edge">
<title>Node3&#45;&gt;Node4</title>
<g id="a_edge3_Node000003_Node000004"><a xlink:title=" ">
<path fill="none" stroke="#63b8ff" d="M1367.39,-125.58C1382.94,-113.87 1401.67,-99.77 1413.53,-90.84"/>
<polygon fill="#63b8ff" stroke="#63b8ff" points="1365.02,-122.99 1359.14,-131.8 1369.23,-128.58 1365.02,-122.99"/>
</a>
</g>
</g>
<!-- Node5 -->
<g id="Node000005" class="node">
<title>Node5</title>
<g id="a_Node000005"><a xlink:href="MeshExporter__utest_8cpp.html" target="_top" xlink:title=" ">
<polygon fill="white" stroke="#666666" points="1247.27,-30 1083.27,-30 1083.27,0 1247.27,0 1247.27,-30"/>
<text text-anchor="start" x="1091.27" y="-18" font-family="Helvetica,sans-Serif" font-size="10.00">App/Test/Source/MeshExporter</text>
<text text-anchor="middle" x="1165.27" y="-7" font-family="Helvetica,sans-Serif" font-size="10.00">_utest.cpp</text>
</a>
</g>
</g>
<!-- Node3&#45;&gt;Node5 -->
<g id="edge4_Node000003_Node000005" class="edge">
<title>Node3&#45;&gt;Node5</title>
<g id="a_edge4_Node000003_Node000005"><a xlink:title=" ">
<path fill="none" stroke="#63b8ff" d="M1323.55,-123.88C1309.63,-106.54 1288.54,-82.65 1266.27,-66 1246.53,-51.24 1221.75,-38.89 1201.68,-30.17"/>
<polygon fill="#63b8ff" stroke="#63b8ff" points="1320.85,-126.11 1329.79,-131.81 1326.35,-121.78 1320.85,-126.11"/>
</a>
</g>
</g>
<!-- Node7 -->
<g id="Node000007" class="node">
<title>Node7</title>
<g id="a_Node000007"><a xlink:href="MeshIntegrity_8cpp.html" target="_top" xlink:title=" ">
<polygon fill="white" stroke="#666666" points="176.77,-90.5 15.77,-90.5 15.77,-71.5 176.77,-71.5 176.77,-90.5"/>
<text text-anchor="middle" x="96.27" y="-78.5" font-family="Helvetica,sans-Serif" font-size="10.00">App/Source/MeshIntegrity.cpp</text>
</a>
</g>
</g>
<!-- Node6&#45;&gt;Node7 -->
<g id="edge6_Node000006_Node000007" class="edge">
<title>Node6&#45;&gt;Node7</title>
<g id="a_edge6_Node000006_Node000007"><a xlink:title=" ">
<path fill="none" stroke="#63b8ff" d="M131.01,-123.94C121.6,-112.58 110.65,-99.36 103.6,-90.84"/>
<polygon fill="#63b8ff" stroke="#63b8ff" points="128.44,-126.33 137.51,-131.8 133.83,-121.86 128.44,-126.33"/>
</a>
</g>
</g>
<!-- Node8 -->
<g id="Node000008" class="node">
<title>Node8</title>
<g id="a_Node000008"><a xlink:href="MeshIntegrity__utest_8cpp.html" target="_top" xlink:title=" ">
<polygon fill="white" stroke="#666666" points="222.27,-30 58.27,-30 58.27,0 222.27,0 222.27,-30"/>
<text text-anchor="start" x="66.27" y="-18" font-family="Helvetica,sans-Serif" font-size="10.00">App/Test/Source/MeshIntegrity</text>
<text text-anchor="middle" x="140.27" y="-7" font-family="Helvetica,sans-Serif" font-size="10.00">_utest.cpp</text>
</a>
</g>
</g>
<!-- Node6&#45;&gt;Node8 -->
<g id="edge7_Node000006_Node000008" class="edge">
<title>Node6&#45;&gt;Node8</title>
<g id="a_edge7_Node000006_Node000008"><a xlink:title=" ">
<path fill="none" stroke="#63b8ff" d="M73.79,-137.41C48.09,-130.47 21.93,-118.06 6.27,-96 -16.46,-63.96 29.55,-42.55 73.72,-30.01"/>
<polygon fill="#63b8ff" stroke="#63b8ff" points="73.05,-140.83 83.59,-139.82 74.71,-134.04 73.05,-140.83"/>
</a>
</g>
</g>
<!-- Node9 -->
<g id="Node000009" class="node">
<title>Node9</title>
<g id="a_Node000009"><a xlink:href="MeshLoader__utest_8cpp.html" target="_top" xlink:title=" ">
<polygon fill="white" stroke="#666666" points="427.27,-96 271.27,-96 271.27,-66 427.27,-66 427.27,-96"/>
<text text-anchor="start" x="279.27" y="-84" font-family="Helvetica,sans-Serif" font-size="10.00">App/Test/Source/MeshLoader</text>
<text text-anchor="middle" x="349.27" y="-73" font-family="Helvetica,sans-Serif" font-size="10.00">_utest.cpp</text>
</a>
</g>
</g>
<!-- Node6&#45;&gt;Node9 -->
<g id="edge8_Node000006_Node000009" class="edge">
<title>Node6&#45;&gt;Node9</title>
<g id="a_edge8_Node000006_Node000009"><a xlink:title=" ">
<path fill="none" stroke="#63b8ff" d="M202.85,-128.86C234.96,-118.58 275.29,-105.68 305.49,-96.01"/>
<polygon fill="#63b8ff" stroke="#63b8ff" points="201.62,-125.57 193.16,-131.95 203.76,-132.24 201.62,-125.57"/>
</a>
</g>
</g>
<!-- Node6&#45;&gt;Node10 -->
<g id="edge9_Node000006_Node000010" class="edge">
<title>Node6&#45;&gt;Node10</title>
<g id="a_edge9_Node000006_Node000010"><a xlink:title=" ">
<path fill="none" stroke="#63b8ff" d="M165.91,-123.33C180.56,-105.04 203.52,-80.12 229.27,-66 280.37,-37.98 346.08,-25.66 393.47,-20.25"/>
<polygon fill="#63b8ff" stroke="#63b8ff" points="162.78,-121.65 159.42,-131.69 168.31,-125.94 162.78,-121.65"/>
</a>
</g>
</g>
<!-- Node11&#45;&gt;Node9 -->
<g id="edge12_Node000011_Node000009" class="edge">
<title>Node11&#45;&gt;Node9</title>
<g id="a_edge12_Node000011_Node000009"><a xlink:title=" ">
<path fill="none" stroke="#63b8ff" d="M464.02,-128.19C438.77,-118.02 407.58,-105.47 384.09,-96.01"/>
<polygon fill="#63b8ff" stroke="#63b8ff" points="462.8,-131.47 473.38,-131.95 465.41,-124.97 462.8,-131.47"/>
</a>
</g>
</g>
<!-- Node11&#45;&gt;Node10 -->
<g id="edge13_Node000011_Node000010" class="edge">
<title>Node11&#45;&gt;Node10</title>
<g id="a_edge13_Node000011_Node000010"><a xlink:title=" ">
<path fill="none" stroke="#63b8ff" d="M490.67,-123.86C484.74,-115.52 478.55,-105.7 474.27,-96 464.6,-74.06 459.44,-46.46 457.04,-30.08"/>
<polygon fill="#63b8ff" stroke="#63b8ff" points="487.9,-126 496.66,-131.95 493.52,-121.83 487.9,-126"/>
</a>
</g>
</g>
<!-- Node12 -->
<g id="Node000012" class="node">
<title>Node12</title>
<g id="a_Node000012"><a xlink:href="MeshLoader_8cpp.html" target="_top" xlink:title=" ">
<polygon fill="white" stroke="#666666" points="636.77,-90.5 483.77,-90.5 483.77,-71.5 636.77,-71.5 636.77,-90.5"/>
<text text-anchor="middle" x="560.27" y="-78.5" font-family="Helvetica,sans-Serif" font-size="10.00">App/Source/MeshLoader.cpp</text>
</a>
</g>
</g>
<!-- Node11&#45;&gt;Node12 -->
<g id="edge11_Node000011_Node000012" class="edge">
<title>Node11&#45;&gt;Node12</title>
<g id="a_edge11_Node000011_Node000012"><a xlink:title=" ">
<path fill="none" stroke="#63b8ff" d="M526.19,-123.94C535.43,-112.58 546.17,-99.36 553.09,-90.84"/>
<polygon fill="#63b8ff" stroke="#63b8ff" points="523.4,-121.83 519.81,-131.8 528.84,-126.24 523.4,-121.83"/>
</a>
</g>
</g>
<!-- Node13&#45;&gt;Node5 -->
<g id="edge24_Node000013_Node000005" class="edge">
<title>Node13&#45;&gt;Node5</title>
<g id="a_edge24_Node000013_Node000005"><a xlink:title=" ">
<path fill="none" stroke="#63b8ff" d="M925.81,-135.34C965.68,-127.81 1014.63,-115.51 1055.27,-96 1074.99,-86.54 1076.66,-78.97 1094.27,-66 1111.03,-53.67 1130.35,-40.1 1144.6,-30.21"/>
<polygon fill="#63b8ff" stroke="#63b8ff" points="925.09,-131.91 915.88,-137.15 926.35,-138.8 925.09,-131.91"/>
</a>
</g>
</g>
<!-- Node13&#45;&gt;Node10 -->
<g id="edge25_Node000013_Node000010" class="edge">
<title>Node13&#45;&gt;Node10</title>
<g id="a_edge25_Node000013_Node000010"><a xlink:title=" ">
<path fill="none" stroke="#63b8ff" d="M799.89,-128.5C773.87,-119.24 741.7,-107.44 713.27,-96 682.63,-83.66 676.45,-76.9 645.27,-66 603.26,-51.31 554.7,-38.6 517.2,-29.67"/>
<polygon fill="#63b8ff" stroke="#63b8ff" points="798.95,-131.88 809.54,-131.92 801.29,-125.29 798.95,-131.88"/>
</a>
</g>
</g>
<!-- Node13&#45;&gt;Node12 -->
<g id="edge22_Node000013_Node000012" class="edge">
<title>Node13&#45;&gt;Node12</title>
<g id="a_edge22_Node000013_Node000012"><a xlink:title=" ">
<path fill="none" stroke="#63b8ff" d="M776.66,-129.75C720.05,-117.26 644.1,-100.5 598.87,-90.52"/>
<polygon fill="#63b8ff" stroke="#63b8ff" points="776.11,-133.22 786.63,-131.95 777.62,-126.38 776.11,-133.22"/>
</a>
</g>
</g>
<!-- Node13&#45;&gt;Node14 -->
<g id="edge15_Node000013_Node000014" class="edge">
<title>Node13&#45;&gt;Node14</title>
<g id="a_edge15_Node000013_Node000014"><a xlink:title=" ">
<path fill="none" stroke="#63b8ff" d="M887.82,-127.51C908.22,-117.47 933.03,-105.26 951.81,-96.01"/>
<polygon fill="#63b8ff" stroke="#63b8ff" points="886.23,-124.4 878.8,-131.95 889.32,-130.68 886.23,-124.4"/>
</a>
</g>
</g>
<!-- Node16 -->
<g id="Node000016" class="node">
<title>Node16</title>
<g id="a_Node000016"><a xlink:href="PrimitiveProxy__utest_8cpp.html" target="_top" xlink:title=" ">
<polygon fill="white" stroke="#666666" points="824.77,-30 683.77,-30 683.77,0 824.77,0 824.77,-30"/>
<text text-anchor="start" x="691.77" y="-18" font-family="Helvetica,sans-Serif" font-size="10.00">App/Test/Source/Primitive</text>
<text text-anchor="middle" x="754.27" y="-7" font-family="Helvetica,sans-Serif" font-size="10.00">Proxy_utest.cpp</text>
</a>
</g>
</g>
<!-- Node13&#45;&gt;Node16 -->
<g id="edge26_Node000013_Node000016" class="edge">
<title>Node13&#45;&gt;Node16</title>
<g id="a_edge26_Node000013_Node000016"><a xlink:title=" ">
<path fill="none" stroke="#63b8ff" d="M774.9,-132.59C754.81,-125.2 735.36,-113.75 723.27,-96 709.1,-75.19 727.15,-46.99 741.06,-30.23"/>
<polygon fill="#63b8ff" stroke="#63b8ff" points="773.87,-135.93 784.46,-135.8 776.09,-129.3 773.87,-135.93"/>
</a>
</g>
</g>
<!-- Node13&#45;&gt;Node17 -->
<g id="edge21_Node000013_Node000017" class="edge">
<title>Node13&#45;&gt;Node17</title>
<g id="a_edge21_Node000013_Node000017"><a xlink:title=" ">
<path fill="none" stroke="#63b8ff" d="M925.93,-130.53C987.42,-117.96 1071.86,-100.69 1121.68,-90.5"/>
<polygon fill="#63b8ff" stroke="#63b8ff" points="924.99,-127.15 915.89,-132.58 926.39,-134.01 924.99,-127.15"/>
</a>
</g>
</g>
<!-- Node18 -->
<g id="Node000018" class="node">
<title>Node18</title>
<g id="a_Node000018"><a xlink:href="PrimitiveProxy_8cpp.html" target="_top" xlink:title=" ">
<polygon fill="white" stroke="#666666" points="896.77,-90.5 731.77,-90.5 731.77,-71.5 896.77,-71.5 896.77,-90.5"/>
<text text-anchor="middle" x="814.27" y="-78.5" font-family="Helvetica,sans-Serif" font-size="10.00">App/Source/PrimitiveProxy.cpp</text>
</a>
</g>
</g>
<!-- Node13&#45;&gt;Node18 -->
<g id="edge23_Node000013_Node000018" class="edge">
<title>Node13&#45;&gt;Node18</title>
<g id="a_edge23_Node000013_Node000018"><a xlink:title=" ">
<path fill="none" stroke="#63b8ff" d="M837.31,-122.95C831.04,-111.81 823.9,-99.11 819.25,-90.84"/>
<polygon fill="#63b8ff" stroke="#63b8ff" points="834.33,-124.8 842.28,-131.8 840.43,-121.36 834.33,-124.8"/>
</a>
</g>
</g>
<!-- Node14&#45;&gt;Node5 -->
<g id="edge17_Node000014_Node000005" class="edge">
<title>Node14&#45;&gt;Node5</title>
<g id="a_edge17_Node000014_Node000005"><a xlink:title=" ">
<path fill="none" stroke="#63b8ff" d="M1030.6,-62.59C1060.18,-52.36 1097.08,-39.59 1124.77,-30.01"/>
<polygon fill="#63b8ff" stroke="#63b8ff" points="1029.18,-59.38 1020.87,-65.95 1031.47,-65.99 1029.18,-59.38"/>
</a>
</g>
</g>
<!-- Node14&#45;&gt;Node8 -->
<g id="edge18_Node000014_Node000008" class="edge">
<title>Node14&#45;&gt;Node8</title>
<g id="a_edge18_Node000014_Node000008"><a xlink:title=" ">
<path fill="none" stroke="#63b8ff" d="M904.51,-65.98C807.2,-55.63 399.05,-31.18 222.3,-20.79"/>
<polygon fill="#63b8ff" stroke="#63b8ff" points="904.24,-69.47 914.57,-67.14 905.04,-62.52 904.24,-69.47"/>
</a>
</g>
</g>
<!-- Node14&#45;&gt;Node10 -->
<g id="edge19_Node000014_Node000010" class="edge">
<title>Node14&#45;&gt;Node10</title>
<g id="a_edge19_Node000014_Node000010"><a xlink:title=" ">
<path fill="none" stroke="#63b8ff" d="M904.64,-65.82C760.48,-44.54 602.23,-29.04 517.11,-21.34"/>
<polygon fill="#63b8ff" stroke="#63b8ff" points="904.14,-69.28 914.55,-67.3 905.18,-62.36 904.14,-69.28"/>
</a>
</g>
</g>
<!-- Node14&#45;&gt;Node15 -->
<g id="edge16_Node000014_Node000015" class="edge">
<title>Node14&#45;&gt;Node15</title>
<g id="a_edge16_Node000014_Node000015"><a xlink:title=" ">
<path fill="none" stroke="#63b8ff" d="M980.27,-55.54C980.27,-46.96 980.27,-37.61 980.27,-30.16"/>
<polygon fill="#63b8ff" stroke="#63b8ff" points="976.77,-55.8 980.27,-65.8 983.77,-55.8 976.77,-55.8"/>
</a>
</g>
</g>
<!-- Node14&#45;&gt;Node16 -->
<g id="edge20_Node000014_Node000016" class="edge">
<title>Node14&#45;&gt;Node16</title>
<g id="a_edge20_Node000014_Node000016"><a xlink:title=" ">
<path fill="none" stroke="#63b8ff" d="M920.67,-63.12C884.23,-52.8 838.17,-39.76 803.75,-30.01"/>
<polygon fill="#63b8ff" stroke="#63b8ff" points="920.1,-66.6 930.68,-65.95 922.01,-59.86 920.1,-66.6"/>
</a>
</g>
</g>
</g>
</svg>
