<?xml version="1.0" encoding="UTF-8" standalone="no"?>
<!DOCTYPE svg PUBLIC "-//W3C//DTD SVG 1.1//EN"
 "http://www.w3.org/Graphics/SVG/1.1/DTD/svg11.dtd">
<!-- Generated by graphviz version 2.43.0 (0)
 -->
<!-- Title: Graphical Class Hierarchy Pages: 1 -->
<svg width="596pt" height="366pt"
 viewBox="0.00 0.00 596.00 365.50" xmlns="http://www.w3.org/2000/svg" xmlns:xlink="http://www.w3.org/1999/xlink">
<g id="graph0" class="graph" transform="scale(1 1) rotate(0) translate(4 361.5)">
<title>Graphical Class Hierarchy</title>
<!-- Node0 -->
<g id="Node000000" class="node">
<title>Node0</title>
<g id="a_Node000000"><a xlink:href="classData_1_1ExtraData_1_1BaseExtraDataType.html" target="_top" xlink:title="Base class for extra data type.">
<polygon fill="white" stroke="#666666" points="150,-175 0,-175 0,-145 150,-145 150,-175"/>
<text text-anchor="start" x="8" y="-163" font-family="Helvetica,sans-Serif" font-size="10.00">Data::ExtraData::BaseExtra</text>
<text text-anchor="middle" x="75" y="-152" font-family="Helvetica,sans-Serif" font-size="10.00">DataType</text>
</a>
</g>
</g>
<!-- Node1 -->
<g id="Node000001" class="node">
<title>Node1</title>
<g id="a_Node000001"><a xlink:href="classData_1_1ExtraData_1_1SingleDataExtraData.html" target="_top" xlink:title=" ">
<polygon fill="white" stroke="#666666" points="361,-357.5 207,-357.5 207,-316.5 361,-316.5 361,-357.5"/>
<text text-anchor="start" x="215" y="-345.5" font-family="Helvetica,sans-Serif" font-size="10.00">Data::ExtraData::SingleData</text>
<text text-anchor="start" x="215" y="-334.5" font-family="Helvetica,sans-Serif" font-size="10.00">ExtraData&lt; std::vector&lt;</text>
<text text-anchor="middle" x="284" y="-323.5" font-family="Helvetica,sans-Serif" font-size="10.00"> BaseType::Vec3 &gt; &gt;</text>
</a>
</g>
</g>
<!-- Node0&#45;&gt;Node1 -->
<g id="edge2_Node000000_Node000001" class="edge">
<title>Node0&#45;&gt;Node1</title>
<g id="a_edge2_Node000000_Node000001"><a xlink:title=" ">
<path fill="none" stroke="#63b8ff" d="M89.75,-184.08C108.16,-214.39 143.46,-266.33 186,-298 195.75,-305.26 207.05,-311.4 218.4,-316.49"/>
<polygon fill="#63b8ff" stroke="#63b8ff" points="92.72,-182.22 84.6,-175.41 86.7,-185.8 92.72,-182.22"/>
</a>
</g>
</g>
<!-- Node3 -->
<g id="Node000003" class="node">
<title>Node3</title>
<g id="a_Node000003"><a xlink:href="classData_1_1ExtraData_1_1SingleDataExtraData.html" target="_top" xlink:title=" ">
<polygon fill="white" stroke="#666666" points="361,-289 207,-289 207,-259 361,-259 361,-289"/>
<text text-anchor="start" x="215" y="-277" font-family="Helvetica,sans-Serif" font-size="10.00">Data::ExtraData::SingleData</text>
<text text-anchor="middle" x="284" y="-266" font-family="Helvetica,sans-Serif" font-size="10.00">ExtraData&lt; bool &gt;</text>
</a>
</g>
</g>
<!-- Node0&#45;&gt;Node3 -->
<g id="edge4_Node000000_Node000003" class="edge">
<title>Node0&#45;&gt;Node3</title>
<g id="a_edge4_Node000000_Node000003"><a xlink:title=" ">
<path fill="none" stroke="#63b8ff" d="M105.26,-181.13C126.96,-196.3 157.57,-216.68 186,-232 204.58,-242.01 226.04,-251.5 244.05,-258.92"/>
<polygon fill="#63b8ff" stroke="#63b8ff" points="107.03,-178.09 96.84,-175.19 102.99,-183.81 107.03,-178.09"/>
</a>
</g>
</g>
<!-- Node5 -->
<g id="Node000005" class="node">
<title>Node5</title>
<g id="a_Node000005"><a xlink:href="classData_1_1ExtraData_1_1SingleDataExtraData.html" target="_top" xlink:title=" ">
<polygon fill="white" stroke="#666666" points="366,-223 202,-223 202,-193 366,-193 366,-223"/>
<text text-anchor="start" x="210" y="-211" font-family="Helvetica,sans-Serif" font-size="10.00">Data::ExtraData::SingleData</text>
<text text-anchor="middle" x="284" y="-200" font-family="Helvetica,sans-Serif" font-size="10.00">ExtraData&lt; BaseType::Vec3 &gt;</text>
</a>
</g>
</g>
<!-- Node0&#45;&gt;Node5 -->
<g id="edge6_Node000000_Node000005" class="edge">
<title>Node0&#45;&gt;Node5</title>
<g id="a_edge6_Node000000_Node000005"><a xlink:title=" ">
<path fill="none" stroke="#63b8ff" d="M150.92,-177.37C172.99,-182.49 196.93,-188.04 218.3,-193"/>
<polygon fill="#63b8ff" stroke="#63b8ff" points="151.46,-173.91 140.93,-175.06 149.88,-180.72 151.46,-173.91"/>
</a>
</g>
</g>
<!-- Node8 -->
<g id="Node000008" class="node">
<title>Node8</title>
<g id="a_Node000008"><a xlink:href="classData_1_1ExtraData_1_1SingleDataExtraData.html" target="_top" xlink:title=" ">
<polygon fill="white" stroke="#666666" points="361,-175 207,-175 207,-145 361,-145 361,-175"/>
<text text-anchor="start" x="215" y="-163" font-family="Helvetica,sans-Serif" font-size="10.00">Data::ExtraData::SingleData</text>
<text text-anchor="middle" x="284" y="-152" font-family="Helvetica,sans-Serif" font-size="10.00">ExtraData&lt; std::string &gt;</text>
</a>
</g>
</g>
<!-- Node0&#45;&gt;Node8 -->
<g id="edge9_Node000000_Node000008" class="edge">
<title>Node0&#45;&gt;Node8</title>
<g id="a_edge9_Node000000_Node000008"><a xlink:title=" ">
<path fill="none" stroke="#63b8ff" d="M160.21,-160C175.67,-160 191.72,-160 206.93,-160"/>
<polygon fill="#63b8ff" stroke="#63b8ff" points="160.15,-156.5 150.15,-160 160.15,-163.5 160.15,-156.5"/>
</a>
</g>
</g>
<!-- Node10 -->
<g id="Node000010" class="node">
<title>Node10</title>
<g id="a_Node000010"><a xlink:href="classData_1_1ExtraData_1_1SingleDataExtraData.html" target="_top" xlink:title=" ">
<polygon fill="white" stroke="#666666" points="374.5,-126.5 193.5,-126.5 193.5,-85.5 374.5,-85.5 374.5,-126.5"/>
<text text-anchor="start" x="201.5" y="-114.5" font-family="Helvetica,sans-Serif" font-size="10.00">Data::ExtraData::SingleData</text>
<text text-anchor="start" x="201.5" y="-103.5" font-family="Helvetica,sans-Serif" font-size="10.00">ExtraData&lt; std::array&lt; BaseType</text>
<text text-anchor="middle" x="284" y="-92.5" font-family="Helvetica,sans-Serif" font-size="10.00">::Vec2, 3 &gt; &gt;</text>
</a>
</g>
</g>
<!-- Node0&#45;&gt;Node10 -->
<g id="edge11_Node000000_Node000010" class="edge">
<title>Node0&#45;&gt;Node10</title>
<g id="a_edge11_Node000000_Node000010"><a xlink:title=" ">
<path fill="none" stroke="#63b8ff" d="M143.35,-142.43C162.83,-137.35 184.27,-131.76 204.38,-126.51"/>
<polygon fill="#63b8ff" stroke="#63b8ff" points="142.45,-139.05 133.66,-144.96 144.22,-145.82 142.45,-139.05"/>
</a>
</g>
</g>
<!-- Node12 -->
<g id="Node000012" class="node">
<title>Node12</title>
<g id="a_Node000012"><a xlink:href="classData_1_1ExtraData_1_1ObjectMaterialData.html" target="_top" xlink:title="Store object material data defined within a MTL file.">
<polygon fill="white" stroke="#666666" points="382,-67.5 186,-67.5 186,-48.5 382,-48.5 382,-67.5"/>
<text text-anchor="middle" x="284" y="-55.5" font-family="Helvetica,sans-Serif" font-size="10.00">Data::ExtraData::ObjectMaterialData</text>
</a>
</g>
</g>
<!-- Node0&#45;&gt;Node12 -->
<g id="edge13_Node000000_Node000012" class="edge">
<title>Node0&#45;&gt;Node12</title>
<g id="a_edge13_Node000000_Node000012"><a xlink:title=" ">
<path fill="none" stroke="#63b8ff" d="M98.25,-137.88C119.12,-118.47 152.12,-91.04 186,-76 193.75,-72.56 202.13,-69.78 210.6,-67.53"/>
<polygon fill="#63b8ff" stroke="#63b8ff" points="95.71,-135.46 90.87,-144.89 100.53,-140.54 95.71,-135.46"/>
</a>
</g>
</g>
<!-- Node13 -->
<g id="Node000013" class="node">
<title>Node13</title>
<g id="a_Node000013"><a xlink:href="classData_1_1ExtraData_1_1SingleDataExtraData.html" target="_top" xlink:title="Base class for extra data type with only one attribute.">
<polygon fill="white" stroke="#666666" points="361,-30 207,-30 207,0 361,0 361,-30"/>
<text text-anchor="start" x="215" y="-18" font-family="Helvetica,sans-Serif" font-size="10.00">Data::ExtraData::SingleData</text>
<text text-anchor="middle" x="284" y="-7" font-family="Helvetica,sans-Serif" font-size="10.00">ExtraData&lt; T &gt;</text>
</a>
</g>
</g>
<!-- Node0&#45;&gt;Node13 -->
<g id="edge14_Node000000_Node000013" class="edge">
<title>Node0&#45;&gt;Node13</title>
<g id="a_edge14_Node000000_Node000013"><a xlink:title=" ">
<path fill="none" stroke="#63b8ff" d="M91.23,-136.04C110.09,-108.39 144.82,-63.56 186,-39 192.48,-35.13 199.56,-31.89 206.85,-29.17"/>
<polygon fill="#63b8ff" stroke="#63b8ff" points="88.09,-134.45 85.46,-144.71 93.91,-138.33 88.09,-134.45"/>
</a>
</g>
</g>
<!-- Node2 -->
<g id="Node000002" class="node">
<title>Node2</title>
<g id="a_Node000002"><a xlink:href="classData_1_1ExtraData_1_1FlatVertexNormalsExtraData.html" target="_top" xlink:title="Extra data type to store vertex flat normals.">
<polygon fill="white" stroke="#666666" points="578.5,-357 427.5,-357 427.5,-327 578.5,-327 578.5,-357"/>
<text text-anchor="start" x="435.5" y="-345" font-family="Helvetica,sans-Serif" font-size="10.00">Data::ExtraData::FlatVertex</text>
<text text-anchor="middle" x="503" y="-334" font-family="Helvetica,sans-Serif" font-size="10.00">NormalsExtraData</text>
</a>
</g>
</g>
<!-- Node1&#45;&gt;Node2 -->
<g id="edge3_Node000001_Node000002" class="edge">
<title>Node1&#45;&gt;Node2</title>
<g id="a_edge3_Node000001_Node000002"><a xlink:title=" ">
<path fill="none" stroke="#63b8ff" d="M371.4,-338.99C389.94,-339.42 409.39,-339.87 427.44,-340.28"/>
<polygon fill="#63b8ff" stroke="#63b8ff" points="371.28,-335.49 361.2,-338.76 371.12,-342.49 371.28,-335.49"/>
</a>
</g>
</g>
<!-- Node4 -->
<g id="Node000004" class="node">
<title>Node4</title>
<g id="a_Node000004"><a xlink:href="classData_1_1ExtraData_1_1IsBoundaryVertexExtraData.html" target="_top" xlink:title="Extra data type to store a boolean that tells if the vertex is ona boundary of the mesh.">
<polygon fill="white" stroke="#666666" points="580.5,-309 425.5,-309 425.5,-279 580.5,-279 580.5,-309"/>
<text text-anchor="start" x="433.5" y="-297" font-family="Helvetica,sans-Serif" font-size="10.00">Data::ExtraData::IsBoundary</text>
<text text-anchor="middle" x="503" y="-286" font-family="Helvetica,sans-Serif" font-size="10.00">VertexExtraData</text>
</a>
</g>
</g>
<!-- Node3&#45;&gt;Node4 -->
<g id="edge5_Node000003_Node000004" class="edge">
<title>Node3&#45;&gt;Node4</title>
<g id="a_edge5_Node000003_Node000004"><a xlink:title=" ">
<path fill="none" stroke="#63b8ff" d="M371.54,-281.98C389.3,-283.61 407.87,-285.32 425.25,-286.93"/>
<polygon fill="#63b8ff" stroke="#63b8ff" points="371.48,-278.46 361.2,-281.02 370.84,-285.43 371.48,-278.46"/>
</a>
</g>
</g>
<!-- Node6 -->
<g id="Node000006" class="node">
<title>Node6</title>
<g id="a_Node000006"><a xlink:href="classData_1_1ExtraData_1_1SmoothVertexNormalExtraData.html" target="_top" xlink:title="Extra data type to store a smooth vertex normal.">
<polygon fill="white" stroke="#666666" points="588,-261 418,-261 418,-231 588,-231 588,-261"/>
<text text-anchor="start" x="426" y="-249" font-family="Helvetica,sans-Serif" font-size="10.00">Data::ExtraData::SmoothVertex</text>
<text text-anchor="middle" x="503" y="-238" font-family="Helvetica,sans-Serif" font-size="10.00">NormalExtraData</text>
</a>
</g>
</g>
<!-- Node5&#45;&gt;Node6 -->
<g id="edge7_Node000005_Node000006" class="edge">
<title>Node5&#45;&gt;Node6</title>
<g id="a_edge7_Node000005_Node000006"><a xlink:title=" ">
<path fill="none" stroke="#63b8ff" d="M376.08,-223.95C389.89,-226.37 404.08,-228.85 417.73,-231.24"/>
<polygon fill="#63b8ff" stroke="#63b8ff" points="376.57,-220.48 366.11,-222.2 375.36,-227.38 376.57,-220.48"/>
</a>
</g>
</g>
<!-- Node7 -->
<g id="Node000007" class="node">
<title>Node7</title>
<g id="a_Node000007"><a xlink:href="classData_1_1ExtraData_1_1TriangleNormalExtraData.html" target="_top" xlink:title="Extra data type to store a triangle normal.">
<polygon fill="white" stroke="#666666" points="572.5,-213 433.5,-213 433.5,-183 572.5,-183 572.5,-213"/>
<text text-anchor="start" x="441.5" y="-201" font-family="Helvetica,sans-Serif" font-size="10.00">Data::ExtraData::Triangle</text>
<text text-anchor="middle" x="503" y="-190" font-family="Helvetica,sans-Serif" font-size="10.00">NormalExtraData</text>
</a>
</g>
</g>
<!-- Node5&#45;&gt;Node7 -->
<g id="edge8_Node000005_Node000007" class="edge">
<title>Node5&#45;&gt;Node7</title>
<g id="a_edge8_Node000005_Node000007"><a xlink:title=" ">
<path fill="none" stroke="#63b8ff" d="M376.33,-203.79C395.45,-202.91 415.3,-202 433.42,-201.16"/>
<polygon fill="#63b8ff" stroke="#63b8ff" points="375.94,-200.31 366.11,-204.26 376.26,-207.3 375.94,-200.31"/>
</a>
</g>
</g>
<!-- Node9 -->
<g id="Node000009" class="node">
<title>Node9</title>
<g id="a_Node000009"><a xlink:href="classData_1_1ExtraData_1_1TriangleMaterialName.html" target="_top" xlink:title="Extra data type to store a triangle material name.">
<polygon fill="white" stroke="#666666" points="572.5,-165 433.5,-165 433.5,-135 572.5,-135 572.5,-165"/>
<text text-anchor="start" x="441.5" y="-153" font-family="Helvetica,sans-Serif" font-size="10.00">Data::ExtraData::Triangle</text>
<text text-anchor="middle" x="503" y="-142" font-family="Helvetica,sans-Serif" font-size="10.00">MaterialName</text>
</a>
</g>
</g>
<!-- Node8&#45;&gt;Node9 -->
<g id="edge10_Node000008_Node000009" class="edge">
<title>Node8&#45;&gt;Node9</title>
<g id="a_edge10_Node000008_Node000009"><a xlink:title=" ">
<path fill="none" stroke="#63b8ff" d="M371.21,-156.03C391.81,-155.08 413.53,-154.08 433.23,-153.17"/>
<polygon fill="#63b8ff" stroke="#63b8ff" points="371.03,-152.53 361.2,-156.49 371.35,-159.52 371.03,-152.53"/>
</a>
</g>
</g>
<!-- Node11 -->
<g id="Node000011" class="node">
<title>Node11</title>
<g id="a_Node000011"><a xlink:href="classData_1_1ExtraData_1_1VerticesTexCoordsExtraData.html" target="_top" xlink:title="Extra data type to store texture coordinates for each vertex of a triangle.">
<polygon fill="white" stroke="#666666" points="573,-117 433,-117 433,-87 573,-87 573,-117"/>
<text text-anchor="start" x="441" y="-105" font-family="Helvetica,sans-Serif" font-size="10.00">Data::ExtraData::Vertices</text>
<text text-anchor="middle" x="503" y="-94" font-family="Helvetica,sans-Serif" font-size="10.00">TexCoordsExtraData</text>
</a>
</g>
</g>
<!-- Node10&#45;&gt;Node11 -->
<g id="edge12_Node000010_Node000011" class="edge">
<title>Node10&#45;&gt;Node11</title>
<g id="a_edge12_Node000010_Node000011"><a xlink:title=" ">
<path fill="none" stroke="#63b8ff" d="M384.63,-104.16C400.95,-103.86 417.54,-103.56 432.91,-103.27"/>
<polygon fill="#63b8ff" stroke="#63b8ff" points="384.45,-100.67 374.52,-104.35 384.58,-107.66 384.45,-100.67"/>
</a>
</g>
</g>
</g>
</svg>
