<?xml version="1.0" encoding="UTF-8" standalone="no"?>
<!DOCTYPE svg PUBLIC "-//W3C//DTD SVG 1.1//EN"
 "http://www.w3.org/Graphics/SVG/1.1/DTD/svg11.dtd">
<!-- Generated by graphviz version 2.43.0 (0)
 -->
<!-- Title: App/Include/Application/MathHelpers.h Pages: 1 -->
<svg width="804pt" height="104pt"
 viewBox="0.00 0.00 804.00 104.00" xmlns="http://www.w3.org/2000/svg" xmlns:xlink="http://www.w3.org/1999/xlink">
<g id="graph0" class="graph" transform="scale(1 1) rotate(0) translate(4 100)">
<title>App/Include/Application/MathHelpers.h</title>
<!-- Node1 -->
<g id="Node000001" class="node">
<title>Node1</title>
<g id="a_Node000001"><a xlink:title=" ">
<polygon fill="#999999" stroke="#666666" points="464,-96 333,-96 333,-66 464,-66 464,-96"/>
<text text-anchor="start" x="341" y="-84" font-family="Helvetica,sans-Serif" font-size="10.00">App/Include/Application</text>
<text text-anchor="middle" x="398.5" y="-73" font-family="Helvetica,sans-Serif" font-size="10.00">/MathHelpers.h</text>
</a>
</g>
</g>
<!-- Node2 -->
<g id="Node000002" class="node">
<title>Node2</title>
<g id="a_Node000002"><a xlink:href="Mesh_8cpp.html" target="_top" xlink:title=" ">
<polygon fill="white" stroke="#666666" points="121,-24.5 0,-24.5 0,-5.5 121,-5.5 121,-24.5"/>
<text text-anchor="middle" x="60.5" y="-12.5" font-family="Helvetica,sans-Serif" font-size="10.00">App/Source/Mesh.cpp</text>
</a>
</g>
</g>
<!-- Node1&#45;&gt;Node2 -->
<g id="edge1_Node000001_Node000002" class="edge">
<title>Node1&#45;&gt;Node2</title>
<g id="a_edge1_Node000001_Node000002"><a xlink:title=" ">
<path fill="none" stroke="#63b8ff" d="M322.77,-66.27C268.84,-56.4 194.66,-42.67 129.5,-30 120.62,-28.27 111.11,-26.38 102.07,-24.55"/>
<polygon fill="#63b8ff" stroke="#63b8ff" points="322.47,-69.77 332.94,-68.12 323.73,-62.88 322.47,-69.77"/>
</a>
</g>
</g>
<!-- Node3 -->
<g id="Node000003" class="node">
<title>Node3</title>
<g id="a_Node000003"><a xlink:href="MathHelpers__utest_8cpp.html" target="_top" xlink:title=" ">
<polygon fill="white" stroke="#666666" points="298,-30 139,-30 139,0 298,0 298,-30"/>
<text text-anchor="start" x="147" y="-18" font-family="Helvetica,sans-Serif" font-size="10.00">App/Test/Source/MathHelpers</text>
<text text-anchor="middle" x="218.5" y="-7" font-family="Helvetica,sans-Serif" font-size="10.00">_utest.cpp</text>
</a>
</g>
</g>
<!-- Node1&#45;&gt;Node3 -->
<g id="edge2_Node000001_Node000003" class="edge">
<title>Node1&#45;&gt;Node3</title>
<g id="a_edge2_Node000001_Node000003"><a xlink:title=" ">
<path fill="none" stroke="#63b8ff" d="M349.53,-62.59C320.76,-52.36 284.85,-39.59 257.91,-30.01"/>
<polygon fill="#63b8ff" stroke="#63b8ff" points="348.4,-65.9 359,-65.95 350.75,-59.31 348.4,-65.9"/>
</a>
</g>
</g>
<!-- Node4 -->
<g id="Node000004" class="node">
<title>Node4</title>
<g id="a_Node000004"><a xlink:href="MeshExporter__utest_8cpp.html" target="_top" xlink:title=" ">
<polygon fill="white" stroke="#666666" points="480.5,-30 316.5,-30 316.5,0 480.5,0 480.5,-30"/>
<text text-anchor="start" x="324.5" y="-18" font-family="Helvetica,sans-Serif" font-size="10.00">App/Test/Source/MeshExporter</text>
<text text-anchor="middle" x="398.5" y="-7" font-family="Helvetica,sans-Serif" font-size="10.00">_utest.cpp</text>
</a>
</g>
</g>
<!-- Node1&#45;&gt;Node4 -->
<g id="edge3_Node000001_Node000004" class="edge">
<title>Node1&#45;&gt;Node4</title>
<g id="a_edge3_Node000001_Node000004"><a xlink:title=" ">
<path fill="none" stroke="#63b8ff" d="M398.5,-55.54C398.5,-46.96 398.5,-37.61 398.5,-30.16"/>
<polygon fill="#63b8ff" stroke="#63b8ff" points="395,-55.8 398.5,-65.8 402,-55.8 395,-55.8"/>
</a>
</g>
</g>
<!-- Node5 -->
<g id="Node000005" class="node">
<title>Node5</title>
<g id="a_Node000005"><a xlink:href="MeshLoader__utest_8cpp.html" target="_top" xlink:title=" ">
<polygon fill="white" stroke="#666666" points="654.5,-30 498.5,-30 498.5,0 654.5,0 654.5,-30"/>
<text text-anchor="start" x="506.5" y="-18" font-family="Helvetica,sans-Serif" font-size="10.00">App/Test/Source/MeshLoader</text>
<text text-anchor="middle" x="576.5" y="-7" font-family="Helvetica,sans-Serif" font-size="10.00">_utest.cpp</text>
</a>
</g>
</g>
<!-- Node1&#45;&gt;Node5 -->
<g id="edge4_Node000001_Node000005" class="edge">
<title>Node1&#45;&gt;Node5</title>
<g id="a_edge4_Node000001_Node000005"><a xlink:title=" ">
<path fill="none" stroke="#63b8ff" d="M447.29,-62.46C475.69,-52.25 511,-39.55 537.53,-30.01"/>
<polygon fill="#63b8ff" stroke="#63b8ff" points="445.79,-59.28 437.56,-65.95 448.16,-65.86 445.79,-59.28"/>
</a>
</g>
</g>
<!-- Node6 -->
<g id="Node000006" class="node">
<title>Node6</title>
<g id="a_Node000006"><a xlink:href="Mesh__utest_8cpp.html" target="_top" xlink:title=" ">
<polygon fill="white" stroke="#666666" points="796,-30 673,-30 673,0 796,0 796,-30"/>
<text text-anchor="start" x="681" y="-18" font-family="Helvetica,sans-Serif" font-size="10.00">App/Test/Source/Mesh</text>
<text text-anchor="middle" x="734.5" y="-7" font-family="Helvetica,sans-Serif" font-size="10.00">_utest.cpp</text>
</a>
</g>
</g>
<!-- Node1&#45;&gt;Node6 -->
<g id="edge5_Node000001_Node000006" class="edge">
<title>Node1&#45;&gt;Node6</title>
<g id="a_edge5_Node000001_Node000006"><a xlink:title=" ">
<path fill="none" stroke="#63b8ff" d="M474.14,-65.9C527.17,-55.97 599.69,-42.31 663.5,-30 666.58,-29.4 669.74,-28.79 672.93,-28.17"/>
<polygon fill="#63b8ff" stroke="#63b8ff" points="473.33,-62.49 464.14,-67.77 474.62,-69.37 473.33,-62.49"/>
</a>
</g>
</g>
</g>
</svg>
