<?xml version="1.0" encoding="UTF-8" standalone="no"?>
<!DOCTYPE svg PUBLIC "-//W3C//DTD SVG 1.1//EN"
 "http://www.w3.org/Graphics/SVG/1.1/DTD/svg11.dtd">
<!-- Generated by graphviz version 2.43.0 (0)
 -->
<!-- Title: App/Source/Mesh.cpp Pages: 1 -->
<svg width="885pt" height="302pt"
 viewBox="0.00 0.00 884.50 302.00" xmlns="http://www.w3.org/2000/svg" xmlns:xlink="http://www.w3.org/1999/xlink">
<g id="graph0" class="graph" transform="scale(1 1) rotate(0) translate(4 298)">
<title>App/Source/Mesh.cpp</title>
<!-- Node1 -->
<g id="Node000001" class="node">
<title>Node1</title>
<g id="a_Node000001"><a xlink:title=" ">
<polygon fill="#999999" stroke="#666666" points="607,-294 486,-294 486,-275 607,-275 607,-294"/>
<text text-anchor="middle" x="546.5" y="-282" font-family="Helvetica,sans-Serif" font-size="10.00">App/Source/Mesh.cpp</text>
</a>
</g>
</g>
<!-- Node2 -->
<g id="Node000002" class="node">
<title>Node2</title>
<g id="a_Node000002"><a xlink:href="Mesh_8h.html" target="_top" xlink:title=" ">
<polygon fill="white" stroke="#666666" points="376.5,-184 266.5,-184 266.5,-165 376.5,-165 376.5,-184"/>
<text text-anchor="middle" x="321.5" y="-172" font-family="Helvetica,sans-Serif" font-size="10.00">Application/Mesh.h</text>
</a>
</g>
</g>
<!-- Node1&#45;&gt;Node2 -->
<g id="edge1_Node000001_Node000002" class="edge">
<title>Node1&#45;&gt;Node2</title>
<g id="a_edge1_Node000001_Node000002"><a xlink:title=" ">
<path fill="none" stroke="#63b8ff" d="M512.95,-274.94C485.65,-267.34 446.54,-254.96 414.5,-239 386.98,-225.29 358.17,-204.46 340.05,-190.43"/>
<polygon fill="#63b8ff" stroke="#63b8ff" points="342.09,-187.58 332.06,-184.15 337.76,-193.09 342.09,-187.58"/>
</a>
</g>
</g>
<!-- Node16 -->
<g id="Node000016" class="node">
<title>Node16</title>
<g id="a_Node000016"><a xlink:href="ExtraDataType_8h.html" target="_top" xlink:title=" ">
<polygon fill="white" stroke="#666666" points="726,-184 571,-184 571,-165 726,-165 726,-184"/>
<text text-anchor="middle" x="648.5" y="-172" font-family="Helvetica,sans-Serif" font-size="10.00">Application/ExtraDataType.h</text>
</a>
</g>
</g>
<!-- Node1&#45;&gt;Node16 -->
<g id="edge16_Node000001_Node000016" class="edge">
<title>Node1&#45;&gt;Node16</title>
<g id="a_edge16_Node000001_Node000016"><a xlink:title=" ">
<path fill="none" stroke="#63b8ff" d="M554.85,-274.66C572.04,-256.46 611.62,-214.55 633.42,-191.47"/>
<polygon fill="#63b8ff" stroke="#63b8ff" points="636,-193.83 640.32,-184.16 630.91,-189.03 636,-193.83"/>
</a>
</g>
</g>
<!-- Node18 -->
<g id="Node000018" class="node">
<title>Node18</title>
<g id="a_Node000018"><a xlink:href="MathHelpers_8h.html" target="_top" xlink:title=" ">
<polygon fill="white" stroke="#666666" points="569.5,-239 423.5,-239 423.5,-220 569.5,-220 569.5,-239"/>
<text text-anchor="middle" x="496.5" y="-227" font-family="Helvetica,sans-Serif" font-size="10.00">Application/MathHelpers.h</text>
</a>
</g>
</g>
<!-- Node1&#45;&gt;Node18 -->
<g id="edge21_Node000001_Node000018" class="edge">
<title>Node1&#45;&gt;Node18</title>
<g id="a_edge21_Node000001_Node000018"><a xlink:title=" ">
<path fill="none" stroke="#63b8ff" d="M538.24,-274.75C531.04,-267.11 520.39,-255.82 511.65,-246.56"/>
<polygon fill="#63b8ff" stroke="#63b8ff" points="514.01,-243.96 504.6,-239.09 508.92,-248.76 514.01,-243.96"/>
</a>
</g>
</g>
<!-- Node21 -->
<g id="Node000021" class="node">
<title>Node21</title>
<g id="a_Node000021"><a xlink:href="PrimitiveProxy_8h.html" target="_top" xlink:title=" ">
<polygon fill="white" stroke="#666666" points="367.5,-239 213.5,-239 213.5,-220 367.5,-220 367.5,-239"/>
<text text-anchor="middle" x="290.5" y="-227" font-family="Helvetica,sans-Serif" font-size="10.00">Application/PrimitiveProxy.h</text>
</a>
</g>
</g>
<!-- Node1&#45;&gt;Node21 -->
<g id="edge25_Node000001_Node000021" class="edge">
<title>Node1&#45;&gt;Node21</title>
<g id="a_edge25_Node000001_Node000021"><a xlink:title=" ">
<path fill="none" stroke="#63b8ff" d="M505.37,-274.98C460.9,-265.78 389.95,-251.09 341.85,-241.13"/>
<polygon fill="#63b8ff" stroke="#63b8ff" points="342.46,-237.68 331.95,-239.08 341.04,-244.54 342.46,-237.68"/>
</a>
</g>
</g>
<!-- Node22 -->
<g id="Node000022" class="node">
<title>Node22</title>
<g id="a_Node000022"><a xlink:href="VertexPair_8h.html" target="_top" xlink:title=" ">
<polygon fill="white" stroke="#666666" points="876.5,-184 744.5,-184 744.5,-165 876.5,-165 876.5,-184"/>
<text text-anchor="middle" x="810.5" y="-172" font-family="Helvetica,sans-Serif" font-size="10.00">Application/VertexPair.h</text>
</a>
</g>
</g>
<!-- Node1&#45;&gt;Node22 -->
<g id="edge28_Node000001_Node000022" class="edge">
<title>Node1&#45;&gt;Node22</title>
<g id="a_edge28_Node000001_Node000022"><a xlink:title=" ">
<path fill="none" stroke="#63b8ff" d="M558.59,-275C578.01,-261.67 617.71,-235.76 654.5,-220 688.72,-205.34 729.2,-193.96 760.34,-186.37"/>
<polygon fill="#63b8ff" stroke="#63b8ff" points="761.19,-189.77 770.11,-184.04 759.57,-182.96 761.19,-189.77"/>
</a>
</g>
</g>
<!-- Node24 -->
<g id="Node000024" class="node">
<title>Node24</title>
<g id="a_Node000024"><a xlink:title=" ">
<polygon fill="#e0e0e0" stroke="#999999" points="719.5,-239 663.5,-239 663.5,-220 719.5,-220 719.5,-239"/>
<text text-anchor="middle" x="691.5" y="-227" font-family="Helvetica,sans-Serif" font-size="10.00">numeric</text>
</a>
</g>
</g>
<!-- Node1&#45;&gt;Node24 -->
<g id="edge32_Node000001_Node000024" class="edge">
<title>Node1&#45;&gt;Node24</title>
<g id="a_edge32_Node000001_Node000024"><a xlink:title=" ">
<path fill="none" stroke="#63b8ff" d="M569.8,-274.98C593.75,-266.23 631.28,-252.51 658.33,-242.62"/>
<polygon fill="#63b8ff" stroke="#63b8ff" points="659.59,-245.89 667.78,-239.17 657.19,-239.32 659.59,-245.89"/>
</a>
</g>
</g>
<!-- Node3 -->
<g id="Node000003" class="node">
<title>Node3</title>
<g id="a_Node000003"><a xlink:href="BaseType_8h.html" target="_top" xlink:title=" ">
<polygon fill="white" stroke="#666666" points="532.5,-74 402.5,-74 402.5,-55 532.5,-55 532.5,-74"/>
<text text-anchor="middle" x="467.5" y="-62" font-family="Helvetica,sans-Serif" font-size="10.00">Application/BaseType.h</text>
</a>
</g>
</g>
<!-- Node2&#45;&gt;Node3 -->
<g id="edge2_Node000002_Node000003" class="edge">
<title>Node2&#45;&gt;Node3</title>
<g id="a_edge2_Node000002_Node000003"><a xlink:title=" ">
<path fill="none" stroke="#63b8ff" d="M321.85,-164.89C322.86,-151.41 326.72,-125.29 341.5,-110 357.23,-93.72 379.27,-83.39 400.52,-76.83"/>
<polygon fill="#63b8ff" stroke="#63b8ff" points="401.55,-80.18 410.21,-74.08 399.63,-73.45 401.55,-80.18"/>
</a>
</g>
</g>
<!-- Node8 -->
<g id="Node000008" class="node">
<title>Node8</title>
<g id="a_Node000008"><a xlink:href="ExtraDataContainer_8h.html" target="_top" xlink:title=" ">
<polygon fill="white" stroke="#666666" points="179,-129 0,-129 0,-110 179,-110 179,-129"/>
<text text-anchor="middle" x="89.5" y="-117" font-family="Helvetica,sans-Serif" font-size="10.00">Application/ExtraDataContainer.h</text>
</a>
</g>
</g>
<!-- Node2&#45;&gt;Node8 -->
<g id="edge7_Node000002_Node000008" class="edge">
<title>Node2&#45;&gt;Node8</title>
<g id="a_edge7_Node000002_Node000008"><a xlink:title=" ">
<path fill="none" stroke="#63b8ff" d="M284.23,-164.98C244.18,-155.84 180.43,-141.27 136.86,-131.32"/>
<polygon fill="#63b8ff" stroke="#63b8ff" points="137.6,-127.9 127.07,-129.08 136.04,-134.72 137.6,-127.9"/>
</a>
</g>
</g>
<!-- Node12 -->
<g id="Node000012" class="node">
<title>Node12</title>
<g id="a_Node000012"><a xlink:href="Primitive_8h.html" target="_top" xlink:title=" ">
<polygon fill="white" stroke="#666666" points="681.5,-129 553.5,-129 553.5,-110 681.5,-110 681.5,-129"/>
<text text-anchor="middle" x="617.5" y="-117" font-family="Helvetica,sans-Serif" font-size="10.00">Application/Primitive.h</text>
</a>
</g>
</g>
<!-- Node2&#45;&gt;Node12 -->
<g id="edge11_Node000002_Node000012" class="edge">
<title>Node2&#45;&gt;Node12</title>
<g id="a_edge11_Node000002_Node000012"><a xlink:title=" ">
<path fill="none" stroke="#63b8ff" d="M369.06,-164.98C420.9,-155.7 503.89,-140.84 559.51,-130.88"/>
<polygon fill="#63b8ff" stroke="#63b8ff" points="560.34,-134.29 569.57,-129.08 559.11,-127.4 560.34,-134.29"/>
</a>
</g>
</g>
<!-- Node14 -->
<g id="Node000014" class="node">
<title>Node14</title>
<g id="a_Node000014"><a xlink:title=" ">
<polygon fill="#e0e0e0" stroke="#999999" points="293.5,-129 235.5,-129 235.5,-110 293.5,-110 293.5,-129"/>
<text text-anchor="middle" x="264.5" y="-117" font-family="Helvetica,sans-Serif" font-size="10.00">memory</text>
</a>
</g>
</g>
<!-- Node2&#45;&gt;Node14 -->
<g id="edge14_Node000002_Node000014" class="edge">
<title>Node2&#45;&gt;Node14</title>
<g id="a_edge14_Node000002_Node000014"><a xlink:title=" ">
<path fill="none" stroke="#63b8ff" d="M312.34,-164.98C304,-157.23 291.47,-145.58 281.32,-136.14"/>
<polygon fill="#63b8ff" stroke="#63b8ff" points="283.53,-133.42 273.82,-129.17 278.76,-138.54 283.53,-133.42"/>
</a>
</g>
</g>
<!-- Node15 -->
<g id="Node000015" class="node">
<title>Node15</title>
<g id="a_Node000015"><a xlink:title=" ">
<polygon fill="#e0e0e0" stroke="#999999" points="397,-129 350,-129 350,-110 397,-110 397,-129"/>
<text text-anchor="middle" x="373.5" y="-117" font-family="Helvetica,sans-Serif" font-size="10.00">vector</text>
</a>
</g>
</g>
<!-- Node2&#45;&gt;Node15 -->
<g id="edge15_Node000002_Node000015" class="edge">
<title>Node2&#45;&gt;Node15</title>
<g id="a_edge15_Node000002_Node000015"><a xlink:title=" ">
<path fill="none" stroke="#63b8ff" d="M330.09,-164.75C337.66,-157.03 348.88,-145.6 358.01,-136.28"/>
<polygon fill="#63b8ff" stroke="#63b8ff" points="360.57,-138.68 365.07,-129.09 355.57,-133.78 360.57,-138.68"/>
</a>
</g>
</g>
<!-- Node4 -->
<g id="Node000004" class="node">
<title>Node4</title>
<g id="a_Node000004"><a xlink:title=" ">
<polygon fill="#e0e0e0" stroke="#999999" points="506.5,-19 428.5,-19 428.5,0 506.5,0 506.5,-19"/>
<text text-anchor="middle" x="467.5" y="-7" font-family="Helvetica,sans-Serif" font-size="10.00">glm/glm.hpp</text>
</a>
</g>
</g>
<!-- Node3&#45;&gt;Node4 -->
<g id="edge3_Node000003_Node000004" class="edge">
<title>Node3&#45;&gt;Node4</title>
<g id="a_edge3_Node000003_Node000004"><a xlink:title=" ">
<path fill="none" stroke="#63b8ff" d="M467.5,-54.75C467.5,-47.8 467.5,-37.85 467.5,-29.13"/>
<polygon fill="#63b8ff" stroke="#63b8ff" points="471,-29.09 467.5,-19.09 464,-29.09 471,-29.09"/>
</a>
</g>
</g>
<!-- Node5 -->
<g id="Node000005" class="node">
<title>Node5</title>
<g id="a_Node000005"><a xlink:title=" ">
<polygon fill="#e0e0e0" stroke="#999999" points="666,-19 525,-19 525,0 666,0 666,-19"/>
<text text-anchor="middle" x="595.5" y="-7" font-family="Helvetica,sans-Serif" font-size="10.00">glm/gtx/vector_angle.hpp</text>
</a>
</g>
</g>
<!-- Node3&#45;&gt;Node5 -->
<g id="edge4_Node000003_Node000005" class="edge">
<title>Node3&#45;&gt;Node5</title>
<g id="a_edge4_Node000003_Node000005"><a xlink:title=" ">
<path fill="none" stroke="#63b8ff" d="M488.07,-54.98C508.93,-46.34 541.47,-32.87 565.27,-23.02"/>
<polygon fill="#63b8ff" stroke="#63b8ff" points="566.66,-26.23 574.56,-19.17 563.98,-19.76 566.66,-26.23"/>
</a>
</g>
</g>
<!-- Node6 -->
<g id="Node000006" class="node">
<title>Node6</title>
<g id="a_Node000006"><a xlink:title=" ">
<polygon fill="#e0e0e0" stroke="#999999" points="811.5,-19 767.5,-19 767.5,0 811.5,0 811.5,-19"/>
<text text-anchor="middle" x="789.5" y="-7" font-family="Helvetica,sans-Serif" font-size="10.00">bitset</text>
</a>
</g>
</g>
<!-- Node3&#45;&gt;Node6 -->
<g id="edge5_Node000003_Node000006" class="edge">
<title>Node3&#45;&gt;Node6</title>
<g id="a_edge5_Node000003_Node000006"><a xlink:title=" ">
<path fill="none" stroke="#63b8ff" d="M519.23,-54.98C586.37,-43.93 701.51,-24.98 757.31,-15.8"/>
<polygon fill="#63b8ff" stroke="#63b8ff" points="758.03,-19.23 767.33,-14.15 756.9,-12.32 758.03,-19.23"/>
</a>
</g>
</g>
<!-- Node7 -->
<g id="Node000007" class="node">
<title>Node7</title>
<g id="a_Node000007"><a xlink:title=" ">
<polygon fill="#e0e0e0" stroke="#999999" points="410.5,-19 360.5,-19 360.5,0 410.5,0 410.5,-19"/>
<text text-anchor="middle" x="385.5" y="-7" font-family="Helvetica,sans-Serif" font-size="10.00">cstdint</text>
</a>
</g>
</g>
<!-- Node3&#45;&gt;Node7 -->
<g id="edge6_Node000003_Node000007" class="edge">
<title>Node3&#45;&gt;Node7</title>
<g id="a_edge6_Node000003_Node000007"><a xlink:title=" ">
<path fill="none" stroke="#63b8ff" d="M454.33,-54.98C441.73,-46.84 422.5,-34.41 407.56,-24.76"/>
<polygon fill="#63b8ff" stroke="#63b8ff" points="409.21,-21.66 398.91,-19.17 405.41,-27.54 409.21,-21.66"/>
</a>
</g>
</g>
<!-- Node9 -->
<g id="Node000009" class="node">
<title>Node9</title>
<g id="a_Node000009"><a xlink:title=" ">
<polygon fill="#e0e0e0" stroke="#999999" points="39,-74 4,-74 4,-55 39,-55 39,-74"/>
<text text-anchor="middle" x="21.5" y="-62" font-family="Helvetica,sans-Serif" font-size="10.00">any</text>
</a>
</g>
</g>
<!-- Node8&#45;&gt;Node9 -->
<g id="edge8_Node000008_Node000009" class="edge">
<title>Node8&#45;&gt;Node9</title>
<g id="a_edge8_Node000008_Node000009"><a xlink:title=" ">
<path fill="none" stroke="#63b8ff" d="M78.57,-109.98C68.42,-102.07 53.08,-90.11 40.85,-80.58"/>
<polygon fill="#63b8ff" stroke="#63b8ff" points="42.66,-77.56 32.62,-74.17 38.36,-83.08 42.66,-77.56"/>
</a>
</g>
</g>
<!-- Node10 -->
<g id="Node000010" class="node">
<title>Node10</title>
<g id="a_Node000010"><a xlink:title=" ">
<polygon fill="#e0e0e0" stroke="#999999" points="122,-74 57,-74 57,-55 122,-55 122,-74"/>
<text text-anchor="middle" x="89.5" y="-62" font-family="Helvetica,sans-Serif" font-size="10.00">typeindex</text>
</a>
</g>
</g>
<!-- Node8&#45;&gt;Node10 -->
<g id="edge9_Node000008_Node000010" class="edge">
<title>Node8&#45;&gt;Node10</title>
<g id="a_edge9_Node000008_Node000010"><a xlink:title=" ">
<path fill="none" stroke="#63b8ff" d="M89.5,-109.75C89.5,-102.8 89.5,-92.85 89.5,-84.13"/>
<polygon fill="#63b8ff" stroke="#63b8ff" points="93,-84.09 89.5,-74.09 86,-84.09 93,-84.09"/>
</a>
</g>
</g>
<!-- Node11 -->
<g id="Node000011" class="node">
<title>Node11</title>
<g id="a_Node000011"><a xlink:title=" ">
<polygon fill="#e0e0e0" stroke="#999999" points="233,-74 140,-74 140,-55 233,-55 233,-74"/>
<text text-anchor="middle" x="186.5" y="-62" font-family="Helvetica,sans-Serif" font-size="10.00">unordered_map</text>
</a>
</g>
</g>
<!-- Node8&#45;&gt;Node11 -->
<g id="edge10_Node000008_Node000011" class="edge">
<title>Node8&#45;&gt;Node11</title>
<g id="a_edge10_Node000008_Node000011"><a xlink:title=" ">
<path fill="none" stroke="#63b8ff" d="M105.08,-109.98C120.27,-101.69 143.6,-88.94 161.4,-79.22"/>
<polygon fill="#63b8ff" stroke="#63b8ff" points="163.53,-82.04 170.63,-74.17 160.18,-75.89 163.53,-82.04"/>
</a>
</g>
</g>
<!-- Node12&#45;&gt;Node3 -->
<g id="edge12_Node000012_Node000003" class="edge">
<title>Node12&#45;&gt;Node3</title>
<g id="a_edge12_Node000012_Node000003"><a xlink:title=" ">
<path fill="none" stroke="#63b8ff" d="M593.4,-109.98C568.62,-101.23 529.8,-87.51 501.81,-77.62"/>
<polygon fill="#63b8ff" stroke="#63b8ff" points="502.63,-74.2 492.04,-74.17 500.3,-80.8 502.63,-74.2"/>
</a>
</g>
</g>
<!-- Node13 -->
<g id="Node000013" class="node">
<title>Node13</title>
<g id="a_Node000013"><a xlink:title=" ">
<polygon fill="#e0e0e0" stroke="#999999" points="684.5,-74 642.5,-74 642.5,-55 684.5,-55 684.5,-74"/>
<text text-anchor="middle" x="663.5" y="-62" font-family="Helvetica,sans-Serif" font-size="10.00">array</text>
</a>
</g>
</g>
<!-- Node12&#45;&gt;Node13 -->
<g id="edge13_Node000012_Node000013" class="edge">
<title>Node12&#45;&gt;Node13</title>
<g id="a_edge13_Node000012_Node000013"><a xlink:title=" ">
<path fill="none" stroke="#63b8ff" d="M625.1,-109.75C631.66,-102.18 641.32,-91.05 649.31,-81.84"/>
<polygon fill="#63b8ff" stroke="#63b8ff" points="652.13,-83.94 656.05,-74.09 646.85,-79.35 652.13,-83.94"/>
</a>
</g>
</g>
<!-- Node16&#45;&gt;Node3 -->
<g id="edge17_Node000016_Node000003" class="edge">
<title>Node16&#45;&gt;Node3</title>
<g id="a_edge17_Node000016_Node000003"><a xlink:title=" ">
<path fill="none" stroke="#63b8ff" d="M623.15,-164.97C601.46,-157.13 569.83,-144.42 544.5,-129 521.77,-115.16 498.61,-95.08 483.7,-81.22"/>
<polygon fill="#63b8ff" stroke="#63b8ff" points="486,-78.57 476.33,-74.24 481.19,-83.65 486,-78.57"/>
</a>
</g>
</g>
<!-- Node16&#45;&gt;Node13 -->
<g id="edge18_Node000016_Node000013" class="edge">
<title>Node16&#45;&gt;Node13</title>
<g id="a_edge18_Node000016_Node000013"><a xlink:title=" ">
<path fill="none" stroke="#63b8ff" d="M660.71,-164.86C670.85,-156.88 684.54,-144.01 690.5,-129 696.9,-112.9 687.45,-94.72 678.02,-81.96"/>
<polygon fill="#63b8ff" stroke="#63b8ff" points="680.68,-79.68 671.69,-74.07 675.22,-84.06 680.68,-79.68"/>
</a>
</g>
</g>
<!-- Node16&#45;&gt;Node15 -->
<g id="edge20_Node000016_Node000015" class="edge">
<title>Node16&#45;&gt;Node15</title>
<g id="a_edge20_Node000016_Node000015"><a xlink:title=" ">
<path fill="none" stroke="#63b8ff" d="M604.32,-164.98C549.32,-154.39 456.61,-136.52 407.08,-126.97"/>
<polygon fill="#63b8ff" stroke="#63b8ff" points="407.67,-123.52 397.19,-125.07 406.35,-130.4 407.67,-123.52"/>
</a>
</g>
</g>
<!-- Node17 -->
<g id="Node000017" class="node">
<title>Node17</title>
<g id="a_Node000017"><a xlink:title=" ">
<polygon fill="#e0e0e0" stroke="#999999" points="497.5,-129 453.5,-129 453.5,-110 497.5,-110 497.5,-129"/>
<text text-anchor="middle" x="475.5" y="-117" font-family="Helvetica,sans-Serif" font-size="10.00">string</text>
</a>
</g>
</g>
<!-- Node16&#45;&gt;Node17 -->
<g id="edge19_Node000016_Node000017" class="edge">
<title>Node16&#45;&gt;Node17</title>
<g id="a_edge19_Node000016_Node000017"><a xlink:title=" ">
<path fill="none" stroke="#63b8ff" d="M620.7,-164.98C589.85,-155.53 540.13,-140.3 507.63,-130.34"/>
<polygon fill="#63b8ff" stroke="#63b8ff" points="508.31,-126.89 497.73,-127.31 506.26,-133.59 508.31,-126.89"/>
</a>
</g>
</g>
<!-- Node18&#45;&gt;Node3 -->
<g id="edge22_Node000018_Node000003" class="edge">
<title>Node18&#45;&gt;Node3</title>
<g id="a_edge22_Node000018_Node000003"><a xlink:title=" ">
<path fill="none" stroke="#63b8ff" d="M475.98,-220C461.48,-212.77 443.15,-200.86 434.5,-184 417.2,-150.29 439.74,-106.38 455.2,-82.6"/>
<polygon fill="#63b8ff" stroke="#63b8ff" points="458.14,-84.51 460.87,-74.27 452.35,-80.57 458.14,-84.51"/>
</a>
</g>
</g>
<!-- Node19 -->
<g id="Node000019" class="node">
<title>Node19</title>
<g id="a_Node000019"><a xlink:title=" ">
<polygon fill="#e0e0e0" stroke="#999999" points="490,-184 443,-184 443,-165 490,-165 490,-184"/>
<text text-anchor="middle" x="466.5" y="-172" font-family="Helvetica,sans-Serif" font-size="10.00">cmath</text>
</a>
</g>
</g>
<!-- Node18&#45;&gt;Node19 -->
<g id="edge23_Node000018_Node000019" class="edge">
<title>Node18&#45;&gt;Node19</title>
<g id="a_edge23_Node000018_Node000019"><a xlink:title=" ">
<path fill="none" stroke="#63b8ff" d="M491.55,-219.75C487.44,-212.49 481.47,-201.95 476.4,-192.98"/>
<polygon fill="#63b8ff" stroke="#63b8ff" points="479.33,-191.07 471.36,-184.09 473.24,-194.52 479.33,-191.07"/>
</a>
</g>
</g>
<!-- Node20 -->
<g id="Node000020" class="node">
<title>Node20</title>
<g id="a_Node000020"><a xlink:title=" ">
<polygon fill="#e0e0e0" stroke="#999999" points="552.5,-184 508.5,-184 508.5,-165 552.5,-165 552.5,-184"/>
<text text-anchor="middle" x="530.5" y="-172" font-family="Helvetica,sans-Serif" font-size="10.00">limits</text>
</a>
</g>
</g>
<!-- Node18&#45;&gt;Node20 -->
<g id="edge24_Node000018_Node000020" class="edge">
<title>Node18&#45;&gt;Node20</title>
<g id="a_edge24_Node000018_Node000020"><a xlink:title=" ">
<path fill="none" stroke="#63b8ff" d="M502.11,-219.75C506.82,-212.42 513.67,-201.73 519.47,-192.7"/>
<polygon fill="#63b8ff" stroke="#63b8ff" points="522.54,-194.4 524.99,-184.09 516.64,-190.62 522.54,-194.4"/>
</a>
</g>
</g>
<!-- Node21&#45;&gt;Node2 -->
<g id="edge27_Node000021_Node000002" class="edge">
<title>Node21&#45;&gt;Node2</title>
<g id="a_edge27_Node000021_Node000002"><a xlink:title=" ">
<path fill="none" stroke="#63b8ff" d="M295.62,-219.75C299.86,-212.49 306.03,-201.95 311.28,-192.98"/>
<polygon fill="#63b8ff" stroke="#63b8ff" points="314.45,-194.49 316.48,-184.09 308.41,-190.95 314.45,-194.49"/>
</a>
</g>
</g>
<!-- Node21&#45;&gt;Node3 -->
<g id="edge26_Node000021_Node000003" class="edge">
<title>Node21&#45;&gt;Node3</title>
<g id="a_edge26_Node000021_Node000003"><a xlink:title=" ">
<path fill="none" stroke="#63b8ff" d="M279.13,-219.75C253.6,-199.1 196.29,-146.3 226.5,-110 247.32,-84.98 329.32,-73.98 391.95,-69.17"/>
<polygon fill="#63b8ff" stroke="#63b8ff" points="392.49,-72.64 402.21,-68.42 391.98,-65.65 392.49,-72.64"/>
</a>
</g>
</g>
<!-- Node22&#45;&gt;Node6 -->
<g id="edge30_Node000022_Node000006" class="edge">
<title>Node22&#45;&gt;Node6</title>
<g id="a_edge30_Node000022_Node000006"><a xlink:title=" ">
<path fill="none" stroke="#63b8ff" d="M811,-164.97C811.49,-156.02 812.22,-141.53 812.5,-129 812.69,-120.56 813.46,-118.39 812.5,-110 809.23,-81.3 800.8,-48.83 795.11,-29.01"/>
<polygon fill="#63b8ff" stroke="#63b8ff" points="798.39,-27.77 792.21,-19.17 791.68,-29.75 798.39,-27.77"/>
</a>
</g>
</g>
<!-- Node22&#45;&gt;Node12 -->
<g id="edge29_Node000022_Node000012" class="edge">
<title>Node22&#45;&gt;Node12</title>
<g id="a_edge29_Node000022_Node000012"><a xlink:title=" ">
<path fill="none" stroke="#63b8ff" d="M779.49,-164.98C746.67,-155.97 694.7,-141.7 658.51,-131.76"/>
<polygon fill="#63b8ff" stroke="#63b8ff" points="659.32,-128.36 648.75,-129.08 657.47,-135.11 659.32,-128.36"/>
</a>
</g>
</g>
<!-- Node23 -->
<g id="Node000023" class="node">
<title>Node23</title>
<g id="a_Node000023"><a xlink:title=" ">
<polygon fill="#e0e0e0" stroke="#999999" points="803,-129 738,-129 738,-110 803,-110 803,-129"/>
<text text-anchor="middle" x="770.5" y="-117" font-family="Helvetica,sans-Serif" font-size="10.00">stdexcept</text>
</a>
</g>
</g>
<!-- Node22&#45;&gt;Node23 -->
<g id="edge31_Node000022_Node000023" class="edge">
<title>Node22&#45;&gt;Node23</title>
<g id="a_edge31_Node000022_Node000023"><a xlink:title=" ">
<path fill="none" stroke="#63b8ff" d="M803.89,-164.75C798.24,-157.26 789.96,-146.28 783.05,-137.13"/>
<polygon fill="#63b8ff" stroke="#63b8ff" points="785.8,-134.96 776.98,-129.09 780.21,-139.18 785.8,-134.96"/>
</a>
</g>
</g>
</g>
</svg>
