<?xml version="1.0" encoding="UTF-8" standalone="no"?>
<!DOCTYPE svg PUBLIC "-//W3C//DTD SVG 1.1//EN"
 "http://www.w3.org/Graphics/SVG/1.1/DTD/svg11.dtd">
<!-- Generated by graphviz version 2.43.0 (0)
 -->
<!-- Title: App/Test/Source/Mesh_utest.cpp Pages: 1 -->
<svg width="586pt" height="368pt"
 viewBox="0.00 0.00 586.35 368.00" xmlns="http://www.w3.org/2000/svg" xmlns:xlink="http://www.w3.org/1999/xlink">
<g id="graph0" class="graph" transform="scale(1 1) rotate(0) translate(4 364)">
<title>App/Test/Source/Mesh_utest.cpp</title>
<!-- Node1 -->
<g id="Node000001" class="node">
<title>Node1</title>
<g id="a_Node000001"><a xlink:title=" ">
<polygon fill="#999999" stroke="#666666" points="427.85,-360 304.85,-360 304.85,-330 427.85,-330 427.85,-360"/>
<text text-anchor="start" x="312.85" y="-348" font-family="Helvetica,sans-Serif" font-size="10.00">App/Test/Source/Mesh</text>
<text text-anchor="middle" x="366.35" y="-337" font-family="Helvetica,sans-Serif" font-size="10.00">_utest.cpp</text>
</a>
</g>
</g>
<!-- Node2 -->
<g id="Node000002" class="node">
<title>Node2</title>
<g id="a_Node000002"><a xlink:href="Mesh_8h.html" target="_top" xlink:title=" ">
<polygon fill="white" stroke="#666666" points="370.35,-184 260.35,-184 260.35,-165 370.35,-165 370.35,-184"/>
<text text-anchor="middle" x="315.35" y="-172" font-family="Helvetica,sans-Serif" font-size="10.00">Application/Mesh.h</text>
</a>
</g>
</g>
<!-- Node1&#45;&gt;Node2 -->
<g id="edge1_Node000001_Node000002" class="edge">
<title>Node1&#45;&gt;Node2</title>
<g id="a_edge1_Node000001_Node000002"><a xlink:title=" ">
<path fill="none" stroke="#63b8ff" d="M345.9,-329.87C334.92,-320.99 322.42,-308.49 316.35,-294 302.55,-261.08 307,-218.34 311.29,-194.22"/>
<polygon fill="#63b8ff" stroke="#63b8ff" points="314.75,-194.77 313.25,-184.28 307.89,-193.41 314.75,-194.77"/>
</a>
</g>
</g>
<!-- Node14 -->
<g id="Node000014" class="node">
<title>Node14</title>
<g id="a_Node000014"><a xlink:href="MeshIntegrity_8h.html" target="_top" xlink:title=" ">
<polygon fill="white" stroke="#666666" points="268.85,-239 119.85,-239 119.85,-220 268.85,-220 268.85,-239"/>
<text text-anchor="middle" x="194.35" y="-227" font-family="Helvetica,sans-Serif" font-size="10.00">Application/MeshIntegrity.h</text>
</a>
</g>
</g>
<!-- Node1&#45;&gt;Node14 -->
<g id="edge14_Node000001_Node000014" class="edge">
<title>Node1&#45;&gt;Node14</title>
<g id="a_edge14_Node000001_Node000014"><a xlink:title=" ">
<path fill="none" stroke="#63b8ff" d="M341.37,-329.9C324.47,-320.18 301.78,-306.76 282.35,-294 258.21,-278.15 231.43,-258.52 213.82,-245.31"/>
<polygon fill="#63b8ff" stroke="#63b8ff" points="215.61,-242.27 205.51,-239.05 211.39,-247.86 215.61,-242.27"/>
</a>
</g>
</g>
<!-- Node15 -->
<g id="Node000015" class="node">
<title>Node15</title>
<g id="a_Node000015"><a xlink:href="PrimitiveProxy_8h.html" target="_top" xlink:title=" ">
<polygon fill="white" stroke="#666666" points="516.35,-239 362.35,-239 362.35,-220 516.35,-220 516.35,-239"/>
<text text-anchor="middle" x="439.35" y="-227" font-family="Helvetica,sans-Serif" font-size="10.00">Application/PrimitiveProxy.h</text>
</a>
</g>
</g>
<!-- Node1&#45;&gt;Node15 -->
<g id="edge17_Node000001_Node000015" class="edge">
<title>Node1&#45;&gt;Node15</title>
<g id="a_edge17_Node000001_Node000015"><a xlink:title=" ">
<path fill="none" stroke="#63b8ff" d="M384.49,-329.91C395.31,-320.69 408.59,-307.83 417.35,-294 426.12,-280.14 431.9,-262.34 435.32,-249.12"/>
<polygon fill="#63b8ff" stroke="#63b8ff" points="438.75,-249.81 437.65,-239.28 431.94,-248.2 438.75,-249.81"/>
</a>
</g>
</g>
<!-- Node16 -->
<g id="Node000016" class="node">
<title>Node16</title>
<g id="a_Node000016"><a xlink:href="TestHelpers_8h.html" target="_top" xlink:title=" ">
<polygon fill="white" stroke="#666666" points="407.85,-294 324.85,-294 324.85,-275 407.85,-275 407.85,-294"/>
<text text-anchor="middle" x="366.35" y="-282" font-family="Helvetica,sans-Serif" font-size="10.00">TestHelpers.h</text>
</a>
</g>
</g>
<!-- Node1&#45;&gt;Node16 -->
<g id="edge20_Node000001_Node000016" class="edge">
<title>Node1&#45;&gt;Node16</title>
<g id="a_edge20_Node000001_Node000016"><a xlink:title=" ">
<path fill="none" stroke="#63b8ff" d="M366.35,-329.84C366.35,-322.21 366.35,-312.7 366.35,-304.45"/>
<polygon fill="#63b8ff" stroke="#63b8ff" points="369.85,-304.27 366.35,-294.27 362.85,-304.27 369.85,-304.27"/>
</a>
</g>
</g>
<!-- Node17 -->
<g id="Node000017" class="node">
<title>Node17</title>
<g id="a_Node000017"><a xlink:title=" ">
<polygon fill="#e0e0e0" stroke="#999999" points="542.35,-294 464.35,-294 464.35,-275 542.35,-275 542.35,-294"/>
<text text-anchor="middle" x="503.35" y="-282" font-family="Helvetica,sans-Serif" font-size="10.00">gtest/gtest.h</text>
</a>
</g>
</g>
<!-- Node1&#45;&gt;Node17 -->
<g id="edge23_Node000001_Node000017" class="edge">
<title>Node1&#45;&gt;Node17</title>
<g id="a_edge23_Node000001_Node000017"><a xlink:title=" ">
<path fill="none" stroke="#63b8ff" d="M399.16,-329.99C421.82,-320.31 451.69,-307.56 473.64,-298.18"/>
<polygon fill="#63b8ff" stroke="#63b8ff" points="475.29,-301.29 483.12,-294.14 472.54,-294.85 475.29,-301.29"/>
</a>
</g>
</g>
<!-- Node3 -->
<g id="Node000003" class="node">
<title>Node3</title>
<g id="a_Node000003"><a xlink:href="BaseType_8h.html" target="_top" xlink:title=" ">
<polygon fill="white" stroke="#666666" points="578.35,-74 448.35,-74 448.35,-55 578.35,-55 578.35,-74"/>
<text text-anchor="middle" x="513.35" y="-62" font-family="Helvetica,sans-Serif" font-size="10.00">Application/BaseType.h</text>
</a>
</g>
</g>
<!-- Node2&#45;&gt;Node3 -->
<g id="edge2_Node000002_Node000003" class="edge">
<title>Node2&#45;&gt;Node3</title>
<g id="a_edge2_Node000002_Node000003"><a xlink:title=" ">
<path fill="none" stroke="#63b8ff" d="M370.35,-165.9C416.15,-158.5 476.62,-145.91 494.35,-129 506.44,-117.47 510.92,-98.59 512.54,-84.41"/>
<polygon fill="#63b8ff" stroke="#63b8ff" points="516.05,-84.51 513.32,-74.28 509.07,-83.98 516.05,-84.51"/>
</a>
</g>
</g>
<!-- Node6 -->
<g id="Node000006" class="node">
<title>Node6</title>
<g id="a_Node000006"><a xlink:href="ExtraDataContainer_8h.html" target="_top" xlink:title=" ">
<polygon fill="white" stroke="#666666" points="196.85,-129 17.85,-129 17.85,-110 196.85,-110 196.85,-129"/>
<text text-anchor="middle" x="107.35" y="-117" font-family="Helvetica,sans-Serif" font-size="10.00">Application/ExtraDataContainer.h</text>
</a>
</g>
</g>
<!-- Node2&#45;&gt;Node6 -->
<g id="edge5_Node000002_Node000006" class="edge">
<title>Node2&#45;&gt;Node6</title>
<g id="a_edge5_Node000002_Node000006"><a xlink:title=" ">
<path fill="none" stroke="#63b8ff" d="M281.93,-164.98C246.4,-155.93 190.07,-141.58 151.05,-131.64"/>
<polygon fill="#63b8ff" stroke="#63b8ff" points="151.58,-128.16 141.03,-129.08 149.85,-134.94 151.58,-128.16"/>
</a>
</g>
</g>
<!-- Node10 -->
<g id="Node000010" class="node">
<title>Node10</title>
<g id="a_Node000010"><a xlink:href="Primitive_8h.html" target="_top" xlink:title=" ">
<polygon fill="white" stroke="#666666" points="485.35,-129 357.35,-129 357.35,-110 485.35,-110 485.35,-129"/>
<text text-anchor="middle" x="421.35" y="-117" font-family="Helvetica,sans-Serif" font-size="10.00">Application/Primitive.h</text>
</a>
</g>
</g>
<!-- Node2&#45;&gt;Node10 -->
<g id="edge9_Node000002_Node000010" class="edge">
<title>Node2&#45;&gt;Node10</title>
<g id="a_edge9_Node000002_Node000010"><a xlink:title=" ">
<path fill="none" stroke="#63b8ff" d="M332.38,-164.98C349.28,-156.54 375.41,-143.47 394.99,-133.68"/>
<polygon fill="#63b8ff" stroke="#63b8ff" points="396.63,-136.77 404.01,-129.17 393.5,-130.51 396.63,-136.77"/>
</a>
</g>
</g>
<!-- Node12 -->
<g id="Node000012" class="node">
<title>Node12</title>
<g id="a_Node000012"><a xlink:title=" ">
<polygon fill="#e0e0e0" stroke="#999999" points="273.35,-129 215.35,-129 215.35,-110 273.35,-110 273.35,-129"/>
<text text-anchor="middle" x="244.35" y="-117" font-family="Helvetica,sans-Serif" font-size="10.00">memory</text>
</a>
</g>
</g>
<!-- Node2&#45;&gt;Node12 -->
<g id="edge12_Node000002_Node000012" class="edge">
<title>Node2&#45;&gt;Node12</title>
<g id="a_edge12_Node000002_Node000012"><a xlink:title=" ">
<path fill="none" stroke="#63b8ff" d="M303.94,-164.98C293.24,-157 277.01,-144.88 264.18,-135.31"/>
<polygon fill="#63b8ff" stroke="#63b8ff" points="266.07,-132.35 255.96,-129.17 261.88,-137.96 266.07,-132.35"/>
</a>
</g>
</g>
<!-- Node13 -->
<g id="Node000013" class="node">
<title>Node13</title>
<g id="a_Node000013"><a xlink:title=" ">
<polygon fill="#e0e0e0" stroke="#999999" points="338.85,-129 291.85,-129 291.85,-110 338.85,-110 338.85,-129"/>
<text text-anchor="middle" x="315.35" y="-117" font-family="Helvetica,sans-Serif" font-size="10.00">vector</text>
</a>
</g>
</g>
<!-- Node2&#45;&gt;Node13 -->
<g id="edge13_Node000002_Node000013" class="edge">
<title>Node2&#45;&gt;Node13</title>
<g id="a_edge13_Node000002_Node000013"><a xlink:title=" ">
<path fill="none" stroke="#63b8ff" d="M315.35,-164.75C315.35,-157.8 315.35,-147.85 315.35,-139.13"/>
<polygon fill="#63b8ff" stroke="#63b8ff" points="318.85,-139.09 315.35,-129.09 311.85,-139.09 318.85,-139.09"/>
</a>
</g>
</g>
<!-- Node4 -->
<g id="Node000004" class="node">
<title>Node4</title>
<g id="a_Node000004"><a xlink:title=" ">
<polygon fill="#e0e0e0" stroke="#999999" points="552.35,-19 474.35,-19 474.35,0 552.35,0 552.35,-19"/>
<text text-anchor="middle" x="513.35" y="-7" font-family="Helvetica,sans-Serif" font-size="10.00">glm/glm.hpp</text>
</a>
</g>
</g>
<!-- Node3&#45;&gt;Node4 -->
<g id="edge3_Node000003_Node000004" class="edge">
<title>Node3&#45;&gt;Node4</title>
<g id="a_edge3_Node000003_Node000004"><a xlink:title=" ">
<path fill="none" stroke="#63b8ff" d="M513.35,-54.75C513.35,-47.8 513.35,-37.85 513.35,-29.13"/>
<polygon fill="#63b8ff" stroke="#63b8ff" points="516.85,-29.09 513.35,-19.09 509.85,-29.09 516.85,-29.09"/>
</a>
</g>
</g>
<!-- Node5 -->
<g id="Node000005" class="node">
<title>Node5</title>
<g id="a_Node000005"><a xlink:title=" ">
<polygon fill="#e0e0e0" stroke="#999999" points="235.35,-19 185.35,-19 185.35,0 235.35,0 235.35,-19"/>
<text text-anchor="middle" x="210.35" y="-7" font-family="Helvetica,sans-Serif" font-size="10.00">cstdint</text>
</a>
</g>
</g>
<!-- Node3&#45;&gt;Node5 -->
<g id="edge4_Node000003_Node000005" class="edge">
<title>Node3&#45;&gt;Node5</title>
<g id="a_edge4_Node000003_Node000005"><a xlink:title=" ">
<path fill="none" stroke="#63b8ff" d="M464.67,-54.98C403.5,-44.29 300,-26.18 245.82,-16.71"/>
<polygon fill="#63b8ff" stroke="#63b8ff" points="246.13,-13.21 235.67,-14.93 244.92,-20.1 246.13,-13.21"/>
</a>
</g>
</g>
<!-- Node7 -->
<g id="Node000007" class="node">
<title>Node7</title>
<g id="a_Node000007"><a xlink:title=" ">
<polygon fill="#e0e0e0" stroke="#999999" points="56.85,-74 21.85,-74 21.85,-55 56.85,-55 56.85,-74"/>
<text text-anchor="middle" x="39.35" y="-62" font-family="Helvetica,sans-Serif" font-size="10.00">any</text>
</a>
</g>
</g>
<!-- Node6&#45;&gt;Node7 -->
<g id="edge6_Node000006_Node000007" class="edge">
<title>Node6&#45;&gt;Node7</title>
<g id="a_edge6_Node000006_Node000007"><a xlink:title=" ">
<path fill="none" stroke="#63b8ff" d="M96.42,-109.98C86.27,-102.07 70.93,-90.11 58.7,-80.58"/>
<polygon fill="#63b8ff" stroke="#63b8ff" points="60.51,-77.56 50.47,-74.17 56.21,-83.08 60.51,-77.56"/>
</a>
</g>
</g>
<!-- Node8 -->
<g id="Node000008" class="node">
<title>Node8</title>
<g id="a_Node000008"><a xlink:title=" ">
<polygon fill="#e0e0e0" stroke="#999999" points="139.85,-74 74.85,-74 74.85,-55 139.85,-55 139.85,-74"/>
<text text-anchor="middle" x="107.35" y="-62" font-family="Helvetica,sans-Serif" font-size="10.00">typeindex</text>
</a>
</g>
</g>
<!-- Node6&#45;&gt;Node8 -->
<g id="edge7_Node000006_Node000008" class="edge">
<title>Node6&#45;&gt;Node8</title>
<g id="a_edge7_Node000006_Node000008"><a xlink:title=" ">
<path fill="none" stroke="#63b8ff" d="M107.35,-109.75C107.35,-102.8 107.35,-92.85 107.35,-84.13"/>
<polygon fill="#63b8ff" stroke="#63b8ff" points="110.85,-84.09 107.35,-74.09 103.85,-84.09 110.85,-84.09"/>
</a>
</g>
</g>
<!-- Node9 -->
<g id="Node000009" class="node">
<title>Node9</title>
<g id="a_Node000009"><a xlink:title=" ">
<polygon fill="#e0e0e0" stroke="#999999" points="250.85,-74 157.85,-74 157.85,-55 250.85,-55 250.85,-74"/>
<text text-anchor="middle" x="204.35" y="-62" font-family="Helvetica,sans-Serif" font-size="10.00">unordered_map</text>
</a>
</g>
</g>
<!-- Node6&#45;&gt;Node9 -->
<g id="edge8_Node000006_Node000009" class="edge">
<title>Node6&#45;&gt;Node9</title>
<g id="a_edge8_Node000006_Node000009"><a xlink:title=" ">
<path fill="none" stroke="#63b8ff" d="M122.93,-109.98C138.11,-101.69 161.45,-88.94 179.25,-79.22"/>
<polygon fill="#63b8ff" stroke="#63b8ff" points="181.38,-82.04 188.48,-74.17 178.03,-75.89 181.38,-82.04"/>
</a>
</g>
</g>
<!-- Node10&#45;&gt;Node3 -->
<g id="edge10_Node000010_Node000003" class="edge">
<title>Node10&#45;&gt;Node3</title>
<g id="a_edge10_Node000010_Node000003"><a xlink:title=" ">
<path fill="none" stroke="#63b8ff" d="M436.13,-109.98C450.53,-101.69 472.66,-88.94 489.54,-79.22"/>
<polygon fill="#63b8ff" stroke="#63b8ff" points="491.38,-82.19 498.3,-74.17 487.89,-76.13 491.38,-82.19"/>
</a>
</g>
</g>
<!-- Node11 -->
<g id="Node000011" class="node">
<title>Node11</title>
<g id="a_Node000011"><a xlink:title=" ">
<polygon fill="#e0e0e0" stroke="#999999" points="430.35,-74 388.35,-74 388.35,-55 430.35,-55 430.35,-74"/>
<text text-anchor="middle" x="409.35" y="-62" font-family="Helvetica,sans-Serif" font-size="10.00">array</text>
</a>
</g>
</g>
<!-- Node10&#45;&gt;Node11 -->
<g id="edge11_Node000010_Node000011" class="edge">
<title>Node10&#45;&gt;Node11</title>
<g id="a_edge11_Node000010_Node000011"><a xlink:title=" ">
<path fill="none" stroke="#63b8ff" d="M419.37,-109.75C417.78,-102.72 415.49,-92.62 413.5,-83.84"/>
<polygon fill="#63b8ff" stroke="#63b8ff" points="416.91,-83.07 411.29,-74.09 410.09,-84.62 416.91,-83.07"/>
</a>
</g>
</g>
<!-- Node14&#45;&gt;Node2 -->
<g id="edge15_Node000014_Node000002" class="edge">
<title>Node14&#45;&gt;Node2</title>
<g id="a_edge15_Node000014_Node000002"><a xlink:title=" ">
<path fill="none" stroke="#63b8ff" d="M213.79,-219.98C233.34,-211.42 263.73,-198.11 286.17,-188.28"/>
<polygon fill="#63b8ff" stroke="#63b8ff" points="287.8,-191.39 295.55,-184.17 284.99,-184.98 287.8,-191.39"/>
</a>
</g>
</g>
<!-- Node14&#45;&gt;Node5 -->
<g id="edge16_Node000014_Node000005" class="edge">
<title>Node14&#45;&gt;Node5</title>
<g id="a_edge16_Node000014_Node000005"><a xlink:title=" ">
<path fill="none" stroke="#63b8ff" d="M154.33,-219.91C109.77,-207.98 39.87,-181.62 8.35,-129 -0.15,-114.81 -6.38,-76.73 12.35,-55 33.22,-30.78 124.02,-18.53 175.1,-13.46"/>
<polygon fill="#63b8ff" stroke="#63b8ff" points="175.43,-16.94 185.06,-12.51 174.77,-9.97 175.43,-16.94"/>
</a>
</g>
</g>
<!-- Node15&#45;&gt;Node2 -->
<g id="edge19_Node000015_Node000002" class="edge">
<title>Node15&#45;&gt;Node2</title>
<g id="a_edge19_Node000015_Node000002"><a xlink:title=" ">
<path fill="none" stroke="#63b8ff" d="M419.42,-219.98C399.3,-211.38 367.97,-197.99 344.94,-188.15"/>
<polygon fill="#63b8ff" stroke="#63b8ff" points="346.2,-184.88 335.63,-184.17 343.45,-191.32 346.2,-184.88"/>
</a>
</g>
</g>
<!-- Node15&#45;&gt;Node3 -->
<g id="edge18_Node000015_Node000003" class="edge">
<title>Node15&#45;&gt;Node3</title>
<g id="a_edge18_Node000015_Node000003"><a xlink:title=" ">
<path fill="none" stroke="#63b8ff" d="M449,-219.81C465.96,-203.83 500.49,-167.83 513.35,-129 518.12,-114.59 517.76,-97.32 516.41,-84.42"/>
<polygon fill="#63b8ff" stroke="#63b8ff" points="519.86,-83.85 515.07,-74.4 512.92,-84.78 519.86,-83.85"/>
</a>
</g>
</g>
<!-- Node16&#45;&gt;Node2 -->
<g id="edge21_Node000016_Node000002" class="edge">
<title>Node16&#45;&gt;Node2</title>
<g id="a_edge21_Node000016_Node000002"><a xlink:title=" ">
<path fill="none" stroke="#63b8ff" d="M362.17,-274.66C353.8,-256.93 334.82,-216.73 323.76,-193.32"/>
<polygon fill="#63b8ff" stroke="#63b8ff" points="326.87,-191.71 319.44,-184.16 320.54,-194.7 326.87,-191.71"/>
</a>
</g>
</g>
<!-- Node16&#45;&gt;Node15 -->
<g id="edge22_Node000016_Node000015" class="edge">
<title>Node16&#45;&gt;Node15</title>
<g id="a_edge22_Node000016_Node000015"><a xlink:title=" ">
<path fill="none" stroke="#63b8ff" d="M378.08,-274.98C389.08,-267 405.77,-254.88 418.95,-245.31"/>
<polygon fill="#63b8ff" stroke="#63b8ff" points="421.37,-247.88 427.41,-239.17 417.26,-242.21 421.37,-247.88"/>
</a>
</g>
</g>
</g>
</svg>
