<?xml version="1.0" encoding="UTF-8" standalone="no"?>
<!DOCTYPE svg PUBLIC "-//W3C//DTD SVG 1.1//EN"
 "http://www.w3.org/Graphics/SVG/1.1/DTD/svg11.dtd">
<!-- Generated by graphviz version 2.43.0 (0)
 -->
<!-- Title: App/Test/Source/MeshLoader_utest.cpp Pages: 1 -->
<svg width="813pt" height="313pt"
 viewBox="0.00 0.00 813.00 313.00" xmlns="http://www.w3.org/2000/svg" xmlns:xlink="http://www.w3.org/1999/xlink">
<g id="graph0" class="graph" transform="scale(1 1) rotate(0) translate(4 309)">
<title>App/Test/Source/MeshLoader_utest.cpp</title>
<!-- Node1 -->
<g id="Node000001" class="node">
<title>Node1</title>
<g id="a_Node000001"><a xlink:title=" ">
<polygon fill="#999999" stroke="#666666" points="436.5,-305 280.5,-305 280.5,-275 436.5,-275 436.5,-305"/>
<text text-anchor="start" x="288.5" y="-293" font-family="Helvetica,sans-Serif" font-size="10.00">App/Test/Source/MeshLoader</text>
<text text-anchor="middle" x="358.5" y="-282" font-family="Helvetica,sans-Serif" font-size="10.00">_utest.cpp</text>
</a>
</g>
</g>
<!-- Node2 -->
<g id="Node000002" class="node">
<title>Node2</title>
<g id="a_Node000002"><a xlink:href="ExtraDataType_8h.html" target="_top" xlink:title=" ">
<polygon fill="white" stroke="#666666" points="219,-184 64,-184 64,-165 219,-165 219,-184"/>
<text text-anchor="middle" x="141.5" y="-172" font-family="Helvetica,sans-Serif" font-size="10.00">Application/ExtraDataType.h</text>
</a>
</g>
</g>
<!-- Node1&#45;&gt;Node2 -->
<g id="edge1_Node000001_Node000002" class="edge">
<title>Node1&#45;&gt;Node2</title>
<g id="a_edge1_Node000001_Node000002"><a xlink:title=" ">
<path fill="none" stroke="#63b8ff" d="M281.55,-274.94C252.94,-267.34 221.22,-255.92 195.5,-239 177.25,-227 161.75,-207.07 152.1,-192.74"/>
<polygon fill="#63b8ff" stroke="#63b8ff" points="155,-190.78 146.63,-184.27 149.11,-194.57 155,-190.78"/>
</a>
</g>
</g>
<!-- Node11 -->
<g id="Node000011" class="node">
<title>Node11</title>
<g id="a_Node000011"><a xlink:href="MeshIntegrity_8h.html" target="_top" xlink:title=" ">
<polygon fill="white" stroke="#666666" points="149,-239 0,-239 0,-220 149,-220 149,-239"/>
<text text-anchor="middle" x="74.5" y="-227" font-family="Helvetica,sans-Serif" font-size="10.00">Application/MeshIntegrity.h</text>
</a>
</g>
</g>
<!-- Node1&#45;&gt;Node11 -->
<g id="edge10_Node000001_Node000011" class="edge">
<title>Node1&#45;&gt;Node11</title>
<g id="a_edge10_Node000001_Node000011"><a xlink:title=" ">
<path fill="none" stroke="#63b8ff" d="M290.47,-274.99C239.98,-264.59 172.16,-250.62 126.09,-241.13"/>
<polygon fill="#63b8ff" stroke="#63b8ff" points="126.53,-237.64 116.03,-239.05 125.11,-244.5 126.53,-237.64"/>
</a>
</g>
</g>
<!-- Node19 -->
<g id="Node000019" class="node">
<title>Node19</title>
<g id="a_Node000019"><a xlink:href="MeshLoader_8h.html" target="_top" xlink:title=" ">
<polygon fill="white" stroke="#666666" points="346.5,-239 204.5,-239 204.5,-220 346.5,-220 346.5,-239"/>
<text text-anchor="middle" x="275.5" y="-227" font-family="Helvetica,sans-Serif" font-size="10.00">Application/MeshLoader.h</text>
</a>
</g>
</g>
<!-- Node1&#45;&gt;Node19 -->
<g id="edge23_Node000001_Node000019" class="edge">
<title>Node1&#45;&gt;Node19</title>
<g id="a_edge23_Node000001_Node000019"><a xlink:title=" ">
<path fill="none" stroke="#63b8ff" d="M338.41,-274.84C325.62,-265.83 309.1,-254.18 296.2,-245.09"/>
<polygon fill="#63b8ff" stroke="#63b8ff" points="298.13,-242.17 287.94,-239.27 294.09,-247.89 298.13,-242.17"/>
</a>
</g>
</g>
<!-- Node21 -->
<g id="Node000021" class="node">
<title>Node21</title>
<g id="a_Node000021"><a xlink:href="PrimitiveProxy_8h.html" target="_top" xlink:title=" ">
<polygon fill="white" stroke="#666666" points="518.5,-239 364.5,-239 364.5,-220 518.5,-220 518.5,-239"/>
<text text-anchor="middle" x="441.5" y="-227" font-family="Helvetica,sans-Serif" font-size="10.00">Application/PrimitiveProxy.h</text>
</a>
</g>
</g>
<!-- Node1&#45;&gt;Node21 -->
<g id="edge26_Node000001_Node000021" class="edge">
<title>Node1&#45;&gt;Node21</title>
<g id="a_edge26_Node000001_Node000021"><a xlink:title=" ">
<path fill="none" stroke="#63b8ff" d="M378.59,-274.84C391.38,-265.83 407.9,-254.18 420.8,-245.09"/>
<polygon fill="#63b8ff" stroke="#63b8ff" points="422.91,-247.89 429.06,-239.27 418.87,-242.17 422.91,-247.89"/>
</a>
</g>
</g>
<!-- Node22 -->
<g id="Node000022" class="node">
<title>Node22</title>
<g id="a_Node000022"><a xlink:href="MathHelpers_8h.html" target="_top" xlink:title=" ">
<polygon fill="white" stroke="#666666" points="650,-239 537,-239 537,-220 650,-220 650,-239"/>
<text text-anchor="middle" x="593.5" y="-227" font-family="Helvetica,sans-Serif" font-size="10.00">Core/MathHelpers.h</text>
</a>
</g>
</g>
<!-- Node1&#45;&gt;Node22 -->
<g id="edge29_Node000001_Node000022" class="edge">
<title>Node1&#45;&gt;Node22</title>
<g id="a_edge29_Node000001_Node000022"><a xlink:title=" ">
<path fill="none" stroke="#63b8ff" d="M414.79,-274.99C456.05,-264.72 511.28,-250.97 549.36,-241.49"/>
<polygon fill="#63b8ff" stroke="#63b8ff" points="550.28,-244.87 559.14,-239.05 548.59,-238.07 550.28,-244.87"/>
</a>
</g>
</g>
<!-- Node25 -->
<g id="Node000025" class="node">
<title>Node25</title>
<g id="a_Node000025"><a xlink:title=" ">
<polygon fill="#e0e0e0" stroke="#999999" points="746.5,-239 668.5,-239 668.5,-220 746.5,-220 746.5,-239"/>
<text text-anchor="middle" x="707.5" y="-227" font-family="Helvetica,sans-Serif" font-size="10.00">gtest/gtest.h</text>
</a>
</g>
</g>
<!-- Node1&#45;&gt;Node25 -->
<g id="edge33_Node000001_Node000025" class="edge">
<title>Node1&#45;&gt;Node25</title>
<g id="a_edge33_Node000001_Node000025"><a xlink:title=" ">
<path fill="none" stroke="#63b8ff" d="M436.81,-276.23C495.21,-266.65 577.22,-253.08 658.56,-239.15"/>
<polygon fill="#63b8ff" stroke="#63b8ff" points="659.21,-242.59 668.47,-237.45 658.03,-235.69 659.21,-242.59"/>
</a>
</g>
</g>
<!-- Node3 -->
<g id="Node000003" class="node">
<title>Node3</title>
<g id="a_Node000003"><a xlink:href="BaseType_8h.html" target="_top" xlink:title=" ">
<polygon fill="white" stroke="#666666" points="432.5,-74 334.5,-74 334.5,-55 432.5,-55 432.5,-74"/>
<text text-anchor="middle" x="383.5" y="-62" font-family="Helvetica,sans-Serif" font-size="10.00">Core/BaseType.h</text>
</a>
</g>
</g>
<!-- Node2&#45;&gt;Node3 -->
<g id="edge2_Node000002_Node000003" class="edge">
<title>Node2&#45;&gt;Node3</title>
<g id="a_edge2_Node000002_Node000003"><a xlink:title=" ">
<path fill="none" stroke="#63b8ff" d="M141.45,-164.64C141.88,-150.82 144.84,-124.25 160.5,-110 184.05,-88.56 266.46,-76.47 324.21,-70.46"/>
<polygon fill="#63b8ff" stroke="#63b8ff" points="324.73,-73.93 334.33,-69.44 324.03,-66.96 324.73,-73.93"/>
</a>
</g>
</g>
<!-- Node8 -->
<g id="Node000008" class="node">
<title>Node8</title>
<g id="a_Node000008"><a xlink:title=" ">
<polygon fill="#e0e0e0" stroke="#999999" points="220.5,-74 178.5,-74 178.5,-55 220.5,-55 220.5,-74"/>
<text text-anchor="middle" x="199.5" y="-62" font-family="Helvetica,sans-Serif" font-size="10.00">array</text>
</a>
</g>
</g>
<!-- Node2&#45;&gt;Node8 -->
<g id="edge7_Node000002_Node000008" class="edge">
<title>Node2&#45;&gt;Node8</title>
<g id="a_edge7_Node000002_Node000008"><a xlink:title=" ">
<path fill="none" stroke="#63b8ff" d="M135.91,-164.73C128.55,-151.93 117.6,-127.75 127.5,-110 136.39,-94.06 153.6,-83.11 168.97,-76.06"/>
<polygon fill="#63b8ff" stroke="#63b8ff" points="170.35,-79.28 178.21,-72.17 167.64,-72.83 170.35,-79.28"/>
</a>
</g>
</g>
<!-- Node9 -->
<g id="Node000009" class="node">
<title>Node9</title>
<g id="a_Node000009"><a xlink:title=" ">
<polygon fill="#e0e0e0" stroke="#999999" points="75.5,-129 31.5,-129 31.5,-110 75.5,-110 75.5,-129"/>
<text text-anchor="middle" x="53.5" y="-117" font-family="Helvetica,sans-Serif" font-size="10.00">string</text>
</a>
</g>
</g>
<!-- Node2&#45;&gt;Node9 -->
<g id="edge8_Node000002_Node000009" class="edge">
<title>Node2&#45;&gt;Node9</title>
<g id="a_edge8_Node000002_Node000009"><a xlink:title=" ">
<path fill="none" stroke="#63b8ff" d="M127.36,-164.98C113.71,-156.77 92.81,-144.18 76.72,-134.49"/>
<polygon fill="#63b8ff" stroke="#63b8ff" points="78.27,-131.33 67.9,-129.17 74.66,-137.33 78.27,-131.33"/>
</a>
</g>
</g>
<!-- Node10 -->
<g id="Node000010" class="node">
<title>Node10</title>
<g id="a_Node000010"><a xlink:title=" ">
<polygon fill="#e0e0e0" stroke="#999999" points="217,-129 170,-129 170,-110 217,-110 217,-129"/>
<text text-anchor="middle" x="193.5" y="-117" font-family="Helvetica,sans-Serif" font-size="10.00">vector</text>
</a>
</g>
</g>
<!-- Node2&#45;&gt;Node10 -->
<g id="edge9_Node000002_Node000010" class="edge">
<title>Node2&#45;&gt;Node10</title>
<g id="a_edge9_Node000002_Node000010"><a xlink:title=" ">
<path fill="none" stroke="#63b8ff" d="M150.09,-164.75C157.66,-157.03 168.88,-145.6 178.01,-136.28"/>
<polygon fill="#63b8ff" stroke="#63b8ff" points="180.57,-138.68 185.07,-129.09 175.57,-133.78 180.57,-138.68"/>
</a>
</g>
</g>
<!-- Node4 -->
<g id="Node000004" class="node">
<title>Node4</title>
<g id="a_Node000004"><a xlink:title=" ">
<polygon fill="#e0e0e0" stroke="#999999" points="501.5,-19 423.5,-19 423.5,0 501.5,0 501.5,-19"/>
<text text-anchor="middle" x="462.5" y="-7" font-family="Helvetica,sans-Serif" font-size="10.00">glm/glm.hpp</text>
</a>
</g>
</g>
<!-- Node3&#45;&gt;Node4 -->
<g id="edge3_Node000003_Node000004" class="edge">
<title>Node3&#45;&gt;Node4</title>
<g id="a_edge3_Node000003_Node000004"><a xlink:title=" ">
<path fill="none" stroke="#63b8ff" d="M396.19,-54.98C408.33,-46.84 426.86,-34.41 441.25,-24.76"/>
<polygon fill="#63b8ff" stroke="#63b8ff" points="443.22,-27.65 449.58,-19.17 439.32,-21.84 443.22,-27.65"/>
</a>
</g>
</g>
<!-- Node5 -->
<g id="Node000005" class="node">
<title>Node5</title>
<g id="a_Node000005"><a xlink:title=" ">
<polygon fill="#e0e0e0" stroke="#999999" points="343,-19 202,-19 202,0 343,0 343,-19"/>
<text text-anchor="middle" x="272.5" y="-7" font-family="Helvetica,sans-Serif" font-size="10.00">glm/gtx/vector_angle.hpp</text>
</a>
</g>
</g>
<!-- Node3&#45;&gt;Node5 -->
<g id="edge4_Node000003_Node000005" class="edge">
<title>Node3&#45;&gt;Node5</title>
<g id="a_edge4_Node000003_Node000005"><a xlink:title=" ">
<path fill="none" stroke="#63b8ff" d="M365.67,-54.98C347.89,-46.5 320.35,-33.35 299.82,-23.54"/>
<polygon fill="#63b8ff" stroke="#63b8ff" points="301.19,-20.32 290.66,-19.17 298.17,-26.64 301.19,-20.32"/>
</a>
</g>
</g>
<!-- Node6 -->
<g id="Node000006" class="node">
<title>Node6</title>
<g id="a_Node000006"><a xlink:title=" ">
<polygon fill="#e0e0e0" stroke="#999999" points="405.5,-19 361.5,-19 361.5,0 405.5,0 405.5,-19"/>
<text text-anchor="middle" x="383.5" y="-7" font-family="Helvetica,sans-Serif" font-size="10.00">bitset</text>
</a>
</g>
</g>
<!-- Node3&#45;&gt;Node6 -->
<g id="edge5_Node000003_Node000006" class="edge">
<title>Node3&#45;&gt;Node6</title>
<g id="a_edge5_Node000003_Node000006"><a xlink:title=" ">
<path fill="none" stroke="#63b8ff" d="M383.5,-54.75C383.5,-47.8 383.5,-37.85 383.5,-29.13"/>
<polygon fill="#63b8ff" stroke="#63b8ff" points="387,-29.09 383.5,-19.09 380,-29.09 387,-29.09"/>
</a>
</g>
</g>
<!-- Node7 -->
<g id="Node000007" class="node">
<title>Node7</title>
<g id="a_Node000007"><a xlink:title=" ">
<polygon fill="#e0e0e0" stroke="#999999" points="148.5,-19 98.5,-19 98.5,0 148.5,0 148.5,-19"/>
<text text-anchor="middle" x="123.5" y="-7" font-family="Helvetica,sans-Serif" font-size="10.00">cstdint</text>
</a>
</g>
</g>
<!-- Node3&#45;&gt;Node7 -->
<g id="edge6_Node000003_Node000007" class="edge">
<title>Node3&#45;&gt;Node7</title>
<g id="a_edge6_Node000003_Node000007"><a xlink:title=" ">
<path fill="none" stroke="#63b8ff" d="M341.73,-54.98C290.91,-44.63 206.03,-27.32 158.49,-17.63"/>
<polygon fill="#63b8ff" stroke="#63b8ff" points="159.16,-14.2 148.66,-15.63 157.76,-21.06 159.16,-14.2"/>
</a>
</g>
</g>
<!-- Node11&#45;&gt;Node7 -->
<g id="edge22_Node000011_Node000007" class="edge">
<title>Node11&#45;&gt;Node7</title>
<g id="a_edge22_Node000011_Node000007"><a xlink:title=" ">
<path fill="none" stroke="#63b8ff" d="M65.63,-219.92C46.65,-200.46 5.15,-151.45 22.5,-110 38.33,-72.18 76.31,-41.46 100.92,-24.6"/>
<polygon fill="#63b8ff" stroke="#63b8ff" points="102.92,-27.48 109.32,-19.04 99.05,-21.65 102.92,-27.48"/>
</a>
</g>
</g>
<!-- Node12 -->
<g id="Node000012" class="node">
<title>Node12</title>
<g id="a_Node000012"><a xlink:href="Mesh_8h.html" target="_top" xlink:title=" ">
<polygon fill="white" stroke="#666666" points="451.5,-184 341.5,-184 341.5,-165 451.5,-165 451.5,-184"/>
<text text-anchor="middle" x="396.5" y="-172" font-family="Helvetica,sans-Serif" font-size="10.00">Application/Mesh.h</text>
</a>
</g>
</g>
<!-- Node11&#45;&gt;Node12 -->
<g id="edge11_Node000011_Node000012" class="edge">
<title>Node11&#45;&gt;Node12</title>
<g id="a_edge11_Node000011_Node000012"><a xlink:title=" ">
<path fill="none" stroke="#63b8ff" d="M126.23,-219.98C182.95,-210.65 273.93,-195.67 334.44,-185.71"/>
<polygon fill="#63b8ff" stroke="#63b8ff" points="335.33,-189.12 344.63,-184.04 334.19,-182.21 335.33,-189.12"/>
</a>
</g>
</g>
<!-- Node12&#45;&gt;Node3 -->
<g id="edge19_Node000012_Node000003" class="edge">
<title>Node12&#45;&gt;Node3</title>
<g id="a_edge19_Node000012_Node000003"><a xlink:title=" ">
<path fill="none" stroke="#63b8ff" d="M412.65,-164.88C431.89,-153.39 460.06,-131.93 448.5,-110 441.26,-96.27 427.67,-85.97 414.78,-78.76"/>
<polygon fill="#63b8ff" stroke="#63b8ff" points="416.11,-75.51 405.62,-74.05 412.91,-81.73 416.11,-75.51"/>
</a>
</g>
</g>
<!-- Node12&#45;&gt;Node10 -->
<g id="edge21_Node000012_Node000010" class="edge">
<title>Node12&#45;&gt;Node10</title>
<g id="a_edge21_Node000012_Node000010"><a xlink:title=" ">
<path fill="none" stroke="#63b8ff" d="M363.88,-164.98C326.39,-155.2 265.15,-139.21 227.2,-129.3"/>
<polygon fill="#63b8ff" stroke="#63b8ff" points="227.72,-125.82 217.16,-126.68 225.95,-132.59 227.72,-125.82"/>
</a>
</g>
</g>
<!-- Node13 -->
<g id="Node000013" class="node">
<title>Node13</title>
<g id="a_Node000013"><a xlink:href="ExtraDataContainer_8h.html" target="_top" xlink:title=" ">
<polygon fill="white" stroke="#666666" points="751,-129 572,-129 572,-110 751,-110 751,-129"/>
<text text-anchor="middle" x="661.5" y="-117" font-family="Helvetica,sans-Serif" font-size="10.00">Application/ExtraDataContainer.h</text>
</a>
</g>
</g>
<!-- Node12&#45;&gt;Node13 -->
<g id="edge12_Node000012_Node000013" class="edge">
<title>Node12&#45;&gt;Node13</title>
<g id="a_edge12_Node000012_Node000013"><a xlink:title=" ">
<path fill="none" stroke="#63b8ff" d="M439.08,-164.98C485.2,-155.76 558.86,-141.03 608.66,-131.07"/>
<polygon fill="#63b8ff" stroke="#63b8ff" points="609.47,-134.48 618.59,-129.08 608.1,-127.61 609.47,-134.48"/>
</a>
</g>
</g>
<!-- Node17 -->
<g id="Node000017" class="node">
<title>Node17</title>
<g id="a_Node000017"><a xlink:href="Primitive_8h.html" target="_top" xlink:title=" ">
<polygon fill="white" stroke="#666666" points="363.5,-129 235.5,-129 235.5,-110 363.5,-110 363.5,-129"/>
<text text-anchor="middle" x="299.5" y="-117" font-family="Helvetica,sans-Serif" font-size="10.00">Application/Primitive.h</text>
</a>
</g>
</g>
<!-- Node12&#45;&gt;Node17 -->
<g id="edge16_Node000012_Node000017" class="edge">
<title>Node12&#45;&gt;Node17</title>
<g id="a_edge16_Node000012_Node000017"><a xlink:title=" ">
<path fill="none" stroke="#63b8ff" d="M380.92,-164.98C365.73,-156.69 342.4,-143.94 324.6,-134.22"/>
<polygon fill="#63b8ff" stroke="#63b8ff" points="325.82,-130.89 315.37,-129.17 322.47,-137.04 325.82,-130.89"/>
</a>
</g>
</g>
<!-- Node18 -->
<g id="Node000018" class="node">
<title>Node18</title>
<g id="a_Node000018"><a xlink:title=" ">
<polygon fill="#e0e0e0" stroke="#999999" points="439.5,-129 381.5,-129 381.5,-110 439.5,-110 439.5,-129"/>
<text text-anchor="middle" x="410.5" y="-117" font-family="Helvetica,sans-Serif" font-size="10.00">memory</text>
</a>
</g>
</g>
<!-- Node12&#45;&gt;Node18 -->
<g id="edge20_Node000012_Node000018" class="edge">
<title>Node12&#45;&gt;Node18</title>
<g id="a_edge20_Node000012_Node000018"><a xlink:title=" ">
<path fill="none" stroke="#63b8ff" d="M398.81,-164.75C400.67,-157.72 403.34,-147.62 405.65,-138.84"/>
<polygon fill="#63b8ff" stroke="#63b8ff" points="409.06,-139.65 408.23,-129.09 402.29,-137.86 409.06,-139.65"/>
</a>
</g>
</g>
<!-- Node14 -->
<g id="Node000014" class="node">
<title>Node14</title>
<g id="a_Node000014"><a xlink:title=" ">
<polygon fill="#e0e0e0" stroke="#999999" points="611,-74 576,-74 576,-55 611,-55 611,-74"/>
<text text-anchor="middle" x="593.5" y="-62" font-family="Helvetica,sans-Serif" font-size="10.00">any</text>
</a>
</g>
</g>
<!-- Node13&#45;&gt;Node14 -->
<g id="edge13_Node000013_Node000014" class="edge">
<title>Node13&#45;&gt;Node14</title>
<g id="a_edge13_Node000013_Node000014"><a xlink:title=" ">
<path fill="none" stroke="#63b8ff" d="M650.57,-109.98C640.42,-102.07 625.08,-90.11 612.85,-80.58"/>
<polygon fill="#63b8ff" stroke="#63b8ff" points="614.66,-77.56 604.62,-74.17 610.36,-83.08 614.66,-77.56"/>
</a>
</g>
</g>
<!-- Node15 -->
<g id="Node000015" class="node">
<title>Node15</title>
<g id="a_Node000015"><a xlink:title=" ">
<polygon fill="#e0e0e0" stroke="#999999" points="694,-74 629,-74 629,-55 694,-55 694,-74"/>
<text text-anchor="middle" x="661.5" y="-62" font-family="Helvetica,sans-Serif" font-size="10.00">typeindex</text>
</a>
</g>
</g>
<!-- Node13&#45;&gt;Node15 -->
<g id="edge14_Node000013_Node000015" class="edge">
<title>Node13&#45;&gt;Node15</title>
<g id="a_edge14_Node000013_Node000015"><a xlink:title=" ">
<path fill="none" stroke="#63b8ff" d="M661.5,-109.75C661.5,-102.8 661.5,-92.85 661.5,-84.13"/>
<polygon fill="#63b8ff" stroke="#63b8ff" points="665,-84.09 661.5,-74.09 658,-84.09 665,-84.09"/>
</a>
</g>
</g>
<!-- Node16 -->
<g id="Node000016" class="node">
<title>Node16</title>
<g id="a_Node000016"><a xlink:title=" ">
<polygon fill="#e0e0e0" stroke="#999999" points="805,-74 712,-74 712,-55 805,-55 805,-74"/>
<text text-anchor="middle" x="758.5" y="-62" font-family="Helvetica,sans-Serif" font-size="10.00">unordered_map</text>
</a>
</g>
</g>
<!-- Node13&#45;&gt;Node16 -->
<g id="edge15_Node000013_Node000016" class="edge">
<title>Node13&#45;&gt;Node16</title>
<g id="a_edge15_Node000013_Node000016"><a xlink:title=" ">
<path fill="none" stroke="#63b8ff" d="M677.08,-109.98C692.27,-101.69 715.6,-88.94 733.4,-79.22"/>
<polygon fill="#63b8ff" stroke="#63b8ff" points="735.53,-82.04 742.63,-74.17 732.18,-75.89 735.53,-82.04"/>
</a>
</g>
</g>
<!-- Node17&#45;&gt;Node3 -->
<g id="edge17_Node000017_Node000003" class="edge">
<title>Node17&#45;&gt;Node3</title>
<g id="a_edge17_Node000017_Node000003"><a xlink:title=" ">
<path fill="none" stroke="#63b8ff" d="M313,-109.98C325.9,-101.84 345.6,-89.41 360.9,-79.76"/>
<polygon fill="#63b8ff" stroke="#63b8ff" points="363.17,-82.47 369.76,-74.17 359.43,-76.55 363.17,-82.47"/>
</a>
</g>
</g>
<!-- Node17&#45;&gt;Node8 -->
<g id="edge18_Node000017_Node000008" class="edge">
<title>Node17&#45;&gt;Node8</title>
<g id="a_edge18_Node000017_Node000008"><a xlink:title=" ">
<path fill="none" stroke="#63b8ff" d="M283.43,-109.98C267.64,-101.61 243.28,-88.7 224.87,-78.95"/>
<polygon fill="#63b8ff" stroke="#63b8ff" points="226.33,-75.76 215.86,-74.17 223.06,-81.95 226.33,-75.76"/>
</a>
</g>
</g>
<!-- Node19&#45;&gt;Node12 -->
<g id="edge24_Node000019_Node000012" class="edge">
<title>Node19&#45;&gt;Node12</title>
<g id="a_edge24_Node000019_Node000012"><a xlink:title=" ">
<path fill="none" stroke="#63b8ff" d="M294.94,-219.98C314.49,-211.42 344.88,-198.11 367.32,-188.28"/>
<polygon fill="#63b8ff" stroke="#63b8ff" points="368.95,-191.39 376.71,-184.17 366.14,-184.98 368.95,-191.39"/>
</a>
</g>
</g>
<!-- Node20 -->
<g id="Node000020" class="node">
<title>Node20</title>
<g id="a_Node000020"><a xlink:title=" ">
<polygon fill="#e0e0e0" stroke="#999999" points="309.5,-184 241.5,-184 241.5,-165 309.5,-165 309.5,-184"/>
<text text-anchor="middle" x="275.5" y="-172" font-family="Helvetica,sans-Serif" font-size="10.00">filesystem</text>
</a>
</g>
</g>
<!-- Node19&#45;&gt;Node20 -->
<g id="edge25_Node000019_Node000020" class="edge">
<title>Node19&#45;&gt;Node20</title>
<g id="a_edge25_Node000019_Node000020"><a xlink:title=" ">
<path fill="none" stroke="#63b8ff" d="M275.5,-219.75C275.5,-212.8 275.5,-202.85 275.5,-194.13"/>
<polygon fill="#63b8ff" stroke="#63b8ff" points="279,-194.09 275.5,-184.09 272,-194.09 279,-194.09"/>
</a>
</g>
</g>
<!-- Node21&#45;&gt;Node3 -->
<g id="edge28_Node000021_Node000003" class="edge">
<title>Node21&#45;&gt;Node3</title>
<g id="a_edge28_Node000021_Node000003"><a xlink:title=" ">
<path fill="none" stroke="#63b8ff" d="M447.02,-219.77C459.27,-199.15 486.05,-146.43 464.5,-110 455.64,-95.02 439.74,-84.74 424.36,-77.88"/>
<polygon fill="#63b8ff" stroke="#63b8ff" points="425.5,-74.56 414.92,-74.03 422.86,-81.04 425.5,-74.56"/>
</a>
</g>
</g>
<!-- Node21&#45;&gt;Node12 -->
<g id="edge27_Node000021_Node000012" class="edge">
<title>Node21&#45;&gt;Node12</title>
<g id="a_edge27_Node000021_Node000012"><a xlink:title=" ">
<path fill="none" stroke="#63b8ff" d="M434.07,-219.75C427.65,-212.18 418.19,-201.05 410.38,-191.84"/>
<polygon fill="#63b8ff" stroke="#63b8ff" points="412.93,-189.45 403.79,-184.09 407.6,-193.98 412.93,-189.45"/>
</a>
</g>
</g>
<!-- Node22&#45;&gt;Node3 -->
<g id="edge30_Node000022_Node000003" class="edge">
<title>Node22&#45;&gt;Node3</title>
<g id="a_edge30_Node000022_Node000003"><a xlink:title=" ">
<path fill="none" stroke="#63b8ff" d="M587.41,-219.96C572,-198.83 529.29,-143.42 482.5,-110 463.22,-96.23 438.99,-85.25 419.33,-77.64"/>
<polygon fill="#63b8ff" stroke="#63b8ff" points="420.39,-74.3 409.8,-74.08 417.94,-80.86 420.39,-74.3"/>
</a>
</g>
</g>
<!-- Node23 -->
<g id="Node000023" class="node">
<title>Node23</title>
<g id="a_Node000023"><a xlink:title=" ">
<polygon fill="#e0e0e0" stroke="#999999" points="681,-184 634,-184 634,-165 681,-165 681,-184"/>
<text text-anchor="middle" x="657.5" y="-172" font-family="Helvetica,sans-Serif" font-size="10.00">cmath</text>
</a>
</g>
</g>
<!-- Node22&#45;&gt;Node23 -->
<g id="edge31_Node000022_Node000023" class="edge">
<title>Node22&#45;&gt;Node23</title>
<g id="a_edge31_Node000022_Node000023"><a xlink:title=" ">
<path fill="none" stroke="#63b8ff" d="M603.78,-219.98C613.34,-212.07 627.78,-200.11 639.28,-190.58"/>
<polygon fill="#63b8ff" stroke="#63b8ff" points="641.56,-193.24 647.03,-184.17 637.1,-187.85 641.56,-193.24"/>
</a>
</g>
</g>
<!-- Node24 -->
<g id="Node000024" class="node">
<title>Node24</title>
<g id="a_Node000024"><a xlink:title=" ">
<polygon fill="#e0e0e0" stroke="#999999" points="615.5,-184 571.5,-184 571.5,-165 615.5,-165 615.5,-184"/>
<text text-anchor="middle" x="593.5" y="-172" font-family="Helvetica,sans-Serif" font-size="10.00">limits</text>
</a>
</g>
</g>
<!-- Node22&#45;&gt;Node24 -->
<g id="edge32_Node000022_Node000024" class="edge">
<title>Node22&#45;&gt;Node24</title>
<g id="a_edge32_Node000022_Node000024"><a xlink:title=" ">
<path fill="none" stroke="#63b8ff" d="M593.5,-219.75C593.5,-212.8 593.5,-202.85 593.5,-194.13"/>
<polygon fill="#63b8ff" stroke="#63b8ff" points="597,-194.09 593.5,-184.09 590,-194.09 597,-194.09"/>
</a>
</g>
</g>
</g>
</svg>
