<?xml version="1.0" encoding="UTF-8" standalone="no"?>
<!DOCTYPE svg PUBLIC "-//W3C//DTD SVG 1.1//EN"
 "http://www.w3.org/Graphics/SVG/1.1/DTD/svg11.dtd">
<!-- Generated by graphviz version 2.43.0 (0)
 -->
<!-- Title: App/Source/Mesh.cpp Pages: 1 -->
<svg width="683pt" height="302pt"
 viewBox="0.00 0.00 683.00 302.00" xmlns="http://www.w3.org/2000/svg" xmlns:xlink="http://www.w3.org/1999/xlink">
<g id="graph0" class="graph" transform="scale(1 1) rotate(0) translate(4 298)">
<title>App/Source/Mesh.cpp</title>
<!-- Node1 -->
<g id="Node000001" class="node">
<title>Node1</title>
<g id="a_Node000001"><a xlink:title=" ">
<polygon fill="#999999" stroke="#666666" points="470,-294 349,-294 349,-275 470,-275 470,-294"/>
<text text-anchor="middle" x="409.5" y="-282" font-family="Helvetica,sans-Serif" font-size="10.00">App/Source/Mesh.cpp</text>
</a>
</g>
</g>
<!-- Node2 -->
<g id="Node000002" class="node">
<title>Node2</title>
<g id="a_Node000002"><a xlink:href="Mesh_8h.html" target="_top" xlink:title=" ">
<polygon fill="white" stroke="#666666" points="359.5,-184 249.5,-184 249.5,-165 359.5,-165 359.5,-184"/>
<text text-anchor="middle" x="304.5" y="-172" font-family="Helvetica,sans-Serif" font-size="10.00">Application/Mesh.h</text>
</a>
</g>
</g>
<!-- Node1&#45;&gt;Node2 -->
<g id="edge1_Node000001_Node000002" class="edge">
<title>Node1&#45;&gt;Node2</title>
<g id="a_edge1_Node000001_Node000002"><a xlink:title=" ">
<path fill="none" stroke="#63b8ff" d="M380.14,-274.94C361.45,-268.06 338.09,-256.6 323.5,-239 313.06,-226.4 308.36,-208.21 306.24,-194.52"/>
<polygon fill="#63b8ff" stroke="#63b8ff" points="309.68,-193.81 305,-184.31 302.73,-194.66 309.68,-193.81"/>
</a>
</g>
</g>
<!-- Node14 -->
<g id="Node000014" class="node">
<title>Node14</title>
<g id="a_Node000014"><a xlink:href="PrimitiveProxy_8h.html" target="_top" xlink:title=" ">
<polygon fill="white" stroke="#666666" points="486.5,-239 332.5,-239 332.5,-220 486.5,-220 486.5,-239"/>
<text text-anchor="middle" x="409.5" y="-227" font-family="Helvetica,sans-Serif" font-size="10.00">Application/PrimitiveProxy.h</text>
</a>
</g>
</g>
<!-- Node1&#45;&gt;Node14 -->
<g id="edge14_Node000001_Node000014" class="edge">
<title>Node1&#45;&gt;Node14</title>
<g id="a_edge14_Node000001_Node000014"><a xlink:title=" ">
<path fill="none" stroke="#63b8ff" d="M409.5,-274.75C409.5,-267.8 409.5,-257.85 409.5,-249.13"/>
<polygon fill="#63b8ff" stroke="#63b8ff" points="413,-249.09 409.5,-239.09 406,-249.09 413,-249.09"/>
</a>
</g>
</g>
<!-- Node15 -->
<g id="Node000015" class="node">
<title>Node15</title>
<g id="a_Node000015"><a xlink:href="VertexPair_8h.html" target="_top" xlink:title=" ">
<polygon fill="white" stroke="#666666" points="636.5,-239 504.5,-239 504.5,-220 636.5,-220 636.5,-239"/>
<text text-anchor="middle" x="570.5" y="-227" font-family="Helvetica,sans-Serif" font-size="10.00">Application/VertexPair.h</text>
</a>
</g>
</g>
<!-- Node1&#45;&gt;Node15 -->
<g id="edge17_Node000001_Node000015" class="edge">
<title>Node1&#45;&gt;Node15</title>
<g id="a_edge17_Node000001_Node000015"><a xlink:title=" ">
<path fill="none" stroke="#63b8ff" d="M435.37,-274.98C462.28,-266.13 504.62,-252.19 534.73,-242.28"/>
<polygon fill="#63b8ff" stroke="#63b8ff" points="536.03,-245.53 544.43,-239.08 533.84,-238.88 536.03,-245.53"/>
</a>
</g>
</g>
<!-- Node3 -->
<g id="Node000003" class="node">
<title>Node3</title>
<g id="a_Node000003"><a xlink:href="BaseType_8h.html" target="_top" xlink:title=" ">
<polygon fill="white" stroke="#666666" points="486.5,-74 356.5,-74 356.5,-55 486.5,-55 486.5,-74"/>
<text text-anchor="middle" x="421.5" y="-62" font-family="Helvetica,sans-Serif" font-size="10.00">Application/BaseType.h</text>
</a>
</g>
</g>
<!-- Node2&#45;&gt;Node3 -->
<g id="edge2_Node000002_Node000003" class="edge">
<title>Node2&#45;&gt;Node3</title>
<g id="a_edge2_Node000002_Node000003"><a xlink:title=" ">
<path fill="none" stroke="#63b8ff" d="M292.76,-164.92C277.03,-152.36 252.59,-128.47 266.5,-110 277.79,-95.01 319.74,-83.52 357.15,-75.97"/>
<polygon fill="#63b8ff" stroke="#63b8ff" points="357.91,-79.39 367.05,-74.05 356.57,-72.52 357.91,-79.39"/>
</a>
</g>
</g>
<!-- Node6 -->
<g id="Node000006" class="node">
<title>Node6</title>
<g id="a_Node000006"><a xlink:href="ExtraDataContainer_8h.html" target="_top" xlink:title=" ">
<polygon fill="white" stroke="#666666" points="219,-129 40,-129 40,-110 219,-110 219,-129"/>
<text text-anchor="middle" x="129.5" y="-117" font-family="Helvetica,sans-Serif" font-size="10.00">Application/ExtraDataContainer.h</text>
</a>
</g>
</g>
<!-- Node2&#45;&gt;Node6 -->
<g id="edge5_Node000002_Node000006" class="edge">
<title>Node2&#45;&gt;Node6</title>
<g id="a_edge5_Node000002_Node000006"><a xlink:title=" ">
<path fill="none" stroke="#63b8ff" d="M276.38,-164.98C246.88,-156.05 200.31,-141.94 167.53,-132.02"/>
<polygon fill="#63b8ff" stroke="#63b8ff" points="168.42,-128.63 157.84,-129.08 166.39,-135.33 168.42,-128.63"/>
</a>
</g>
</g>
<!-- Node10 -->
<g id="Node000010" class="node">
<title>Node10</title>
<g id="a_Node000010"><a xlink:href="Primitive_8h.html" target="_top" xlink:title=" ">
<polygon fill="white" stroke="#666666" points="583.5,-129 455.5,-129 455.5,-110 583.5,-110 583.5,-129"/>
<text text-anchor="middle" x="519.5" y="-117" font-family="Helvetica,sans-Serif" font-size="10.00">Application/Primitive.h</text>
</a>
</g>
</g>
<!-- Node2&#45;&gt;Node10 -->
<g id="edge9_Node000002_Node000010" class="edge">
<title>Node2&#45;&gt;Node10</title>
<g id="a_edge9_Node000002_Node000010"><a xlink:title=" ">
<path fill="none" stroke="#63b8ff" d="M339.04,-164.98C375.92,-155.89 434.49,-141.46 474.84,-131.51"/>
<polygon fill="#63b8ff" stroke="#63b8ff" points="475.81,-134.87 484.69,-129.08 474.14,-128.08 475.81,-134.87"/>
</a>
</g>
</g>
<!-- Node12 -->
<g id="Node000012" class="node">
<title>Node12</title>
<g id="a_Node000012"><a xlink:title=" ">
<polygon fill="#e0e0e0" stroke="#999999" points="333.5,-129 275.5,-129 275.5,-110 333.5,-110 333.5,-129"/>
<text text-anchor="middle" x="304.5" y="-117" font-family="Helvetica,sans-Serif" font-size="10.00">memory</text>
</a>
</g>
</g>
<!-- Node2&#45;&gt;Node12 -->
<g id="edge12_Node000002_Node000012" class="edge">
<title>Node2&#45;&gt;Node12</title>
<g id="a_edge12_Node000002_Node000012"><a xlink:title=" ">
<path fill="none" stroke="#63b8ff" d="M304.5,-164.75C304.5,-157.8 304.5,-147.85 304.5,-139.13"/>
<polygon fill="#63b8ff" stroke="#63b8ff" points="308,-139.09 304.5,-129.09 301,-139.09 308,-139.09"/>
</a>
</g>
</g>
<!-- Node13 -->
<g id="Node000013" class="node">
<title>Node13</title>
<g id="a_Node000013"><a xlink:title=" ">
<polygon fill="#e0e0e0" stroke="#999999" points="399,-129 352,-129 352,-110 399,-110 399,-129"/>
<text text-anchor="middle" x="375.5" y="-117" font-family="Helvetica,sans-Serif" font-size="10.00">vector</text>
</a>
</g>
</g>
<!-- Node2&#45;&gt;Node13 -->
<g id="edge13_Node000002_Node000013" class="edge">
<title>Node2&#45;&gt;Node13</title>
<g id="a_edge13_Node000002_Node000013"><a xlink:title=" ">
<path fill="none" stroke="#63b8ff" d="M315.91,-164.98C326.61,-157 342.84,-144.88 355.66,-135.31"/>
<polygon fill="#63b8ff" stroke="#63b8ff" points="357.97,-137.96 363.89,-129.17 353.78,-132.35 357.97,-137.96"/>
</a>
</g>
</g>
<!-- Node4 -->
<g id="Node000004" class="node">
<title>Node4</title>
<g id="a_Node000004"><a xlink:title=" ">
<polygon fill="#e0e0e0" stroke="#999999" points="419.5,-19 341.5,-19 341.5,0 419.5,0 419.5,-19"/>
<text text-anchor="middle" x="380.5" y="-7" font-family="Helvetica,sans-Serif" font-size="10.00">glm/glm.hpp</text>
</a>
</g>
</g>
<!-- Node3&#45;&gt;Node4 -->
<g id="edge3_Node000003_Node000004" class="edge">
<title>Node3&#45;&gt;Node4</title>
<g id="a_edge3_Node000003_Node000004"><a xlink:title=" ">
<path fill="none" stroke="#63b8ff" d="M414.73,-54.75C408.94,-47.26 400.44,-36.28 393.36,-27.13"/>
<polygon fill="#63b8ff" stroke="#63b8ff" points="396.03,-24.86 387.14,-19.09 390.49,-29.14 396.03,-24.86"/>
</a>
</g>
</g>
<!-- Node5 -->
<g id="Node000005" class="node">
<title>Node5</title>
<g id="a_Node000005"><a xlink:title=" ">
<polygon fill="#e0e0e0" stroke="#999999" points="487.5,-19 437.5,-19 437.5,0 487.5,0 487.5,-19"/>
<text text-anchor="middle" x="462.5" y="-7" font-family="Helvetica,sans-Serif" font-size="10.00">cstdint</text>
</a>
</g>
</g>
<!-- Node3&#45;&gt;Node5 -->
<g id="edge4_Node000003_Node000005" class="edge">
<title>Node3&#45;&gt;Node5</title>
<g id="a_edge4_Node000003_Node000005"><a xlink:title=" ">
<path fill="none" stroke="#63b8ff" d="M428.27,-54.75C434.06,-47.26 442.56,-36.28 449.64,-27.13"/>
<polygon fill="#63b8ff" stroke="#63b8ff" points="452.51,-29.14 455.86,-19.09 446.97,-24.86 452.51,-29.14"/>
</a>
</g>
</g>
<!-- Node7 -->
<g id="Node000007" class="node">
<title>Node7</title>
<g id="a_Node000007"><a xlink:title=" ">
<polygon fill="#e0e0e0" stroke="#999999" points="229,-74 194,-74 194,-55 229,-55 229,-74"/>
<text text-anchor="middle" x="211.5" y="-62" font-family="Helvetica,sans-Serif" font-size="10.00">any</text>
</a>
</g>
</g>
<!-- Node6&#45;&gt;Node7 -->
<g id="edge6_Node000006_Node000007" class="edge">
<title>Node6&#45;&gt;Node7</title>
<g id="a_edge6_Node000006_Node000007"><a xlink:title=" ">
<path fill="none" stroke="#63b8ff" d="M142.67,-109.98C155.27,-101.84 174.5,-89.41 189.44,-79.76"/>
<polygon fill="#63b8ff" stroke="#63b8ff" points="191.59,-82.54 198.09,-74.17 187.79,-76.66 191.59,-82.54"/>
</a>
</g>
</g>
<!-- Node8 -->
<g id="Node000008" class="node">
<title>Node8</title>
<g id="a_Node000008"><a xlink:title=" ">
<polygon fill="#e0e0e0" stroke="#999999" points="65,-74 0,-74 0,-55 65,-55 65,-74"/>
<text text-anchor="middle" x="32.5" y="-62" font-family="Helvetica,sans-Serif" font-size="10.00">typeindex</text>
</a>
</g>
</g>
<!-- Node6&#45;&gt;Node8 -->
<g id="edge7_Node000006_Node000008" class="edge">
<title>Node6&#45;&gt;Node8</title>
<g id="a_edge7_Node000006_Node000008"><a xlink:title=" ">
<path fill="none" stroke="#63b8ff" d="M113.92,-109.98C98.73,-101.69 75.4,-88.94 57.6,-79.22"/>
<polygon fill="#63b8ff" stroke="#63b8ff" points="58.82,-75.89 48.37,-74.17 55.47,-82.04 58.82,-75.89"/>
</a>
</g>
</g>
<!-- Node9 -->
<g id="Node000009" class="node">
<title>Node9</title>
<g id="a_Node000009"><a xlink:title=" ">
<polygon fill="#e0e0e0" stroke="#999999" points="176,-74 83,-74 83,-55 176,-55 176,-74"/>
<text text-anchor="middle" x="129.5" y="-62" font-family="Helvetica,sans-Serif" font-size="10.00">unordered_map</text>
</a>
</g>
</g>
<!-- Node6&#45;&gt;Node9 -->
<g id="edge8_Node000006_Node000009" class="edge">
<title>Node6&#45;&gt;Node9</title>
<g id="a_edge8_Node000006_Node000009"><a xlink:title=" ">
<path fill="none" stroke="#63b8ff" d="M129.5,-109.75C129.5,-102.8 129.5,-92.85 129.5,-84.13"/>
<polygon fill="#63b8ff" stroke="#63b8ff" points="133,-84.09 129.5,-74.09 126,-84.09 133,-84.09"/>
</a>
</g>
</g>
<!-- Node10&#45;&gt;Node3 -->
<g id="edge10_Node000010_Node000003" class="edge">
<title>Node10&#45;&gt;Node3</title>
<g id="a_edge10_Node000010_Node000003"><a xlink:title=" ">
<path fill="none" stroke="#63b8ff" d="M503.75,-109.98C488.27,-101.61 464.41,-88.7 446.36,-78.95"/>
<polygon fill="#63b8ff" stroke="#63b8ff" points="447.99,-75.85 437.53,-74.17 444.66,-82.01 447.99,-75.85"/>
</a>
</g>
</g>
<!-- Node11 -->
<g id="Node000011" class="node">
<title>Node11</title>
<g id="a_Node000011"><a xlink:title=" ">
<polygon fill="#e0e0e0" stroke="#999999" points="546.5,-74 504.5,-74 504.5,-55 546.5,-55 546.5,-74"/>
<text text-anchor="middle" x="525.5" y="-62" font-family="Helvetica,sans-Serif" font-size="10.00">array</text>
</a>
</g>
</g>
<!-- Node10&#45;&gt;Node11 -->
<g id="edge11_Node000010_Node000011" class="edge">
<title>Node10&#45;&gt;Node11</title>
<g id="a_edge11_Node000010_Node000011"><a xlink:title=" ">
<path fill="none" stroke="#63b8ff" d="M520.49,-109.75C521.28,-102.8 522.4,-92.85 523.39,-84.13"/>
<polygon fill="#63b8ff" stroke="#63b8ff" points="526.88,-84.42 524.53,-74.09 519.92,-83.63 526.88,-84.42"/>
</a>
</g>
</g>
<!-- Node14&#45;&gt;Node2 -->
<g id="edge16_Node000014_Node000002" class="edge">
<title>Node14&#45;&gt;Node2</title>
<g id="a_edge16_Node000014_Node000002"><a xlink:title=" ">
<path fill="none" stroke="#63b8ff" d="M392.63,-219.98C375.89,-211.54 350,-198.47 330.61,-188.68"/>
<polygon fill="#63b8ff" stroke="#63b8ff" points="332.18,-185.55 321.68,-184.17 329.03,-191.8 332.18,-185.55"/>
</a>
</g>
</g>
<!-- Node14&#45;&gt;Node3 -->
<g id="edge15_Node000014_Node000003" class="edge">
<title>Node14&#45;&gt;Node3</title>
<g id="a_edge15_Node000014_Node000003"><a xlink:title=" ">
<path fill="none" stroke="#63b8ff" d="M410.15,-219.74C412.02,-194.31 417.48,-120.08 420.09,-84.69"/>
<polygon fill="#63b8ff" stroke="#63b8ff" points="423.61,-84.54 420.85,-74.31 416.63,-84.02 423.61,-84.54"/>
</a>
</g>
</g>
<!-- Node15&#45;&gt;Node10 -->
<g id="edge18_Node000015_Node000010" class="edge">
<title>Node15&#45;&gt;Node10</title>
<g id="a_edge18_Node000015_Node000010"><a xlink:title=" ">
<path fill="none" stroke="#63b8ff" d="M562.94,-219.86C555.77,-211.28 545.14,-197.49 538.5,-184 531.43,-169.62 526.43,-152.1 523.34,-139.11"/>
<polygon fill="#63b8ff" stroke="#63b8ff" points="526.69,-138.06 521.11,-129.05 519.86,-139.57 526.69,-138.06"/>
</a>
</g>
</g>
<!-- Node16 -->
<g id="Node000016" class="node">
<title>Node16</title>
<g id="a_Node000016"><a xlink:title=" ">
<polygon fill="#e0e0e0" stroke="#999999" points="591.5,-184 547.5,-184 547.5,-165 591.5,-165 591.5,-184"/>
<text text-anchor="middle" x="569.5" y="-172" font-family="Helvetica,sans-Serif" font-size="10.00">bitset</text>
</a>
</g>
</g>
<!-- Node15&#45;&gt;Node16 -->
<g id="edge19_Node000015_Node000016" class="edge">
<title>Node15&#45;&gt;Node16</title>
<g id="a_edge19_Node000015_Node000016"><a xlink:title=" ">
<path fill="none" stroke="#63b8ff" d="M570.33,-219.75C570.2,-212.8 570.02,-202.85 569.85,-194.13"/>
<polygon fill="#63b8ff" stroke="#63b8ff" points="573.35,-194.02 569.66,-184.09 566.35,-194.15 573.35,-194.02"/>
</a>
</g>
</g>
<!-- Node17 -->
<g id="Node000017" class="node">
<title>Node17</title>
<g id="a_Node000017"><a xlink:title=" ">
<polygon fill="#e0e0e0" stroke="#999999" points="675,-184 610,-184 610,-165 675,-165 675,-184"/>
<text text-anchor="middle" x="642.5" y="-172" font-family="Helvetica,sans-Serif" font-size="10.00">stdexcept</text>
</a>
</g>
</g>
<!-- Node15&#45;&gt;Node17 -->
<g id="edge20_Node000015_Node000017" class="edge">
<title>Node15&#45;&gt;Node17</title>
<g id="a_edge20_Node000015_Node000017"><a xlink:title=" ">
<path fill="none" stroke="#63b8ff" d="M582.07,-219.98C592.92,-212 609.38,-199.88 622.38,-190.31"/>
<polygon fill="#63b8ff" stroke="#63b8ff" points="624.74,-192.92 630.72,-184.17 620.59,-187.28 624.74,-192.92"/>
</a>
</g>
</g>
</g>
</svg>
