<?xml version="1.0" encoding="UTF-8" standalone="no"?>
<!DOCTYPE svg PUBLIC "-//W3C//DTD SVG 1.1//EN"
 "http://www.w3.org/Graphics/SVG/1.1/DTD/svg11.dtd">
<!-- Generated by graphviz version 2.43.0 (0)
 -->
<!-- Title: App/Test/Source/MeshExporter_utest.cpp Pages: 1 -->
<svg width="854pt" height="368pt"
 viewBox="0.00 0.00 853.50 368.00" xmlns="http://www.w3.org/2000/svg" xmlns:xlink="http://www.w3.org/1999/xlink">
<g id="graph0" class="graph" transform="scale(1 1) rotate(0) translate(4 364)">
<title>App/Test/Source/MeshExporter_utest.cpp</title>
<!-- Node1 -->
<g id="Node000001" class="node">
<title>Node1</title>
<g id="a_Node000001"><a xlink:title=" ">
<polygon fill="#999999" stroke="#666666" points="590,-360 426,-360 426,-330 590,-330 590,-360"/>
<text text-anchor="start" x="434" y="-348" font-family="Helvetica,sans-Serif" font-size="10.00">App/Test/Source/MeshExporter</text>
<text text-anchor="middle" x="508" y="-337" font-family="Helvetica,sans-Serif" font-size="10.00">_utest.cpp</text>
</a>
</g>
</g>
<!-- Node2 -->
<g id="Node000002" class="node">
<title>Node2</title>
<g id="a_Node000002"><a xlink:href="MeshExporter_8h.html" target="_top" xlink:title=" ">
<polygon fill="white" stroke="#666666" points="150,-239 0,-239 0,-220 150,-220 150,-239"/>
<text text-anchor="middle" x="75" y="-227" font-family="Helvetica,sans-Serif" font-size="10.00">Application/MeshExporter.h</text>
</a>
</g>
</g>
<!-- Node1&#45;&gt;Node2 -->
<g id="edge1_Node000001_Node000002" class="edge">
<title>Node1&#45;&gt;Node2</title>
<g id="a_edge1_Node000001_Node000002"><a xlink:title=" ">
<path fill="none" stroke="#63b8ff" d="M426.92,-329.95C379.16,-321.04 317.76,-308.48 264,-294 208.09,-278.94 144.55,-256.45 107.22,-242.67"/>
<polygon fill="#63b8ff" stroke="#63b8ff" points="108.01,-239.23 97.42,-239.03 105.57,-245.79 108.01,-239.23"/>
</a>
</g>
</g>
<!-- Node15 -->
<g id="Node000015" class="node">
<title>Node15</title>
<g id="a_Node000015"><a xlink:title=" ">
<polygon fill="#e0e0e0" stroke="#999999" points="259,-184 191,-184 191,-165 259,-165 259,-184"/>
<text text-anchor="middle" x="225" y="-172" font-family="Helvetica,sans-Serif" font-size="10.00">filesystem</text>
</a>
</g>
</g>
<!-- Node1&#45;&gt;Node15 -->
<g id="edge29_Node000001_Node000015" class="edge">
<title>Node1&#45;&gt;Node15</title>
<g id="a_edge29_Node000001_Node000015"><a xlink:title=" ">
<path fill="none" stroke="#63b8ff" d="M501.69,-329.92C489.27,-303.87 459.03,-248.23 416,-220 371.52,-190.81 310.18,-180.68 269.13,-177.21"/>
<polygon fill="#63b8ff" stroke="#63b8ff" points="269.39,-173.72 259.16,-176.46 268.87,-180.7 269.39,-173.72"/>
</a>
</g>
</g>
<!-- Node16 -->
<g id="Node000016" class="node">
<title>Node16</title>
<g id="a_Node000016"><a xlink:href="PrimitiveProxy_8h.html" target="_top" xlink:title=" ">
<polygon fill="white" stroke="#666666" points="617,-239 463,-239 463,-220 617,-220 617,-239"/>
<text text-anchor="middle" x="540" y="-227" font-family="Helvetica,sans-Serif" font-size="10.00">Application/PrimitiveProxy.h</text>
</a>
</g>
</g>
<!-- Node1&#45;&gt;Node16 -->
<g id="edge18_Node000001_Node000016" class="edge">
<title>Node1&#45;&gt;Node16</title>
<g id="a_edge18_Node000001_Node000016"><a xlink:title=" ">
<path fill="none" stroke="#63b8ff" d="M499.98,-329.77C493.04,-315.47 485.25,-293.02 493,-275 498.15,-263.03 508.29,-252.76 517.83,-245.12"/>
<polygon fill="#63b8ff" stroke="#63b8ff" points="519.99,-247.88 525.93,-239.11 515.81,-242.26 519.99,-247.88"/>
</a>
</g>
</g>
<!-- Node17 -->
<g id="Node000017" class="node">
<title>Node17</title>
<g id="a_Node000017"><a xlink:href="PrintHelpers_8h.html" target="_top" xlink:title=" ">
<polygon fill="white" stroke="#666666" points="383.5,-294 272.5,-294 272.5,-275 383.5,-275 383.5,-294"/>
<text text-anchor="middle" x="328" y="-282" font-family="Helvetica,sans-Serif" font-size="10.00">Core/PrintHelpers.h</text>
</a>
</g>
</g>
<!-- Node1&#45;&gt;Node17 -->
<g id="edge21_Node000001_Node000017" class="edge">
<title>Node1&#45;&gt;Node17</title>
<g id="a_edge21_Node000001_Node000017"><a xlink:title=" ">
<path fill="none" stroke="#63b8ff" d="M464.89,-329.99C434.09,-319.98 393.13,-306.67 364.07,-297.22"/>
<polygon fill="#63b8ff" stroke="#63b8ff" points="364.91,-293.82 354.32,-294.05 362.75,-300.47 364.91,-293.82"/>
</a>
</g>
</g>
<!-- Node21 -->
<g id="Node000021" class="node">
<title>Node21</title>
<g id="a_Node000021"><a xlink:href="TestHelpers_8h.html" target="_top" xlink:title=" ">
<polygon fill="white" stroke="#666666" points="584.5,-294 501.5,-294 501.5,-275 584.5,-275 584.5,-294"/>
<text text-anchor="middle" x="543" y="-282" font-family="Helvetica,sans-Serif" font-size="10.00">TestHelpers.h</text>
</a>
</g>
</g>
<!-- Node1&#45;&gt;Node21 -->
<g id="edge25_Node000001_Node000021" class="edge">
<title>Node1&#45;&gt;Node21</title>
<g id="a_edge25_Node000001_Node000021"><a xlink:title=" ">
<path fill="none" stroke="#63b8ff" d="M516.47,-329.84C521.29,-321.78 527.37,-311.62 532.5,-303.06"/>
<polygon fill="#63b8ff" stroke="#63b8ff" points="535.62,-304.64 537.76,-294.27 529.62,-301.05 535.62,-304.64"/>
</a>
</g>
</g>
<!-- Node22 -->
<g id="Node000022" class="node">
<title>Node22</title>
<g id="a_Node000022"><a xlink:title=" ">
<polygon fill="#e0e0e0" stroke="#999999" points="681,-294 603,-294 603,-275 681,-275 681,-294"/>
<text text-anchor="middle" x="642" y="-282" font-family="Helvetica,sans-Serif" font-size="10.00">gtest/gtest.h</text>
</a>
</g>
</g>
<!-- Node1&#45;&gt;Node22 -->
<g id="edge28_Node000001_Node000022" class="edge">
<title>Node1&#45;&gt;Node22</title>
<g id="a_edge28_Node000001_Node000022"><a xlink:title=" ">
<path fill="none" stroke="#63b8ff" d="M540.1,-329.99C562.25,-320.31 591.48,-307.56 612.95,-298.18"/>
<polygon fill="#63b8ff" stroke="#63b8ff" points="614.45,-301.35 622.21,-294.14 611.65,-294.93 614.45,-301.35"/>
</a>
</g>
</g>
<!-- Node23 -->
<g id="Node000023" class="node">
<title>Node23</title>
<g id="a_Node000023"><a xlink:title=" ">
<polygon fill="#e0e0e0" stroke="#999999" points="754.5,-294 699.5,-294 699.5,-275 754.5,-275 754.5,-294"/>
<text text-anchor="middle" x="727" y="-282" font-family="Helvetica,sans-Serif" font-size="10.00">fstream</text>
</a>
</g>
</g>
<!-- Node1&#45;&gt;Node23 -->
<g id="edge30_Node000001_Node000023" class="edge">
<title>Node1&#45;&gt;Node23</title>
<g id="a_edge30_Node000001_Node000023"><a xlink:title=" ">
<path fill="none" stroke="#63b8ff" d="M560.46,-329.99C600.19,-319.37 653.83,-305.05 689.37,-295.55"/>
<polygon fill="#63b8ff" stroke="#63b8ff" points="690.58,-298.85 699.34,-292.89 688.77,-292.09 690.58,-298.85"/>
</a>
</g>
</g>
<!-- Node24 -->
<g id="Node000024" class="node">
<title>Node24</title>
<g id="a_Node000024"><a xlink:title=" ">
<polygon fill="#e0e0e0" stroke="#999999" points="845.5,-294 772.5,-294 772.5,-275 845.5,-275 845.5,-294"/>
<text text-anchor="middle" x="809" y="-282" font-family="Helvetica,sans-Serif" font-size="10.00">string_view</text>
</a>
</g>
</g>
<!-- Node1&#45;&gt;Node24 -->
<g id="edge31_Node000001_Node000024" class="edge">
<title>Node1&#45;&gt;Node24</title>
<g id="a_edge31_Node000001_Node000024"><a xlink:title=" ">
<path fill="none" stroke="#63b8ff" d="M580.1,-329.99C636.6,-319.01 713.57,-304.05 762.27,-294.58"/>
<polygon fill="#63b8ff" stroke="#63b8ff" points="763.07,-297.99 772.22,-292.65 761.73,-291.12 763.07,-297.99"/>
</a>
</g>
</g>
<!-- Node3 -->
<g id="Node000003" class="node">
<title>Node3</title>
<g id="a_Node000003"><a xlink:href="BaseType_8h.html" target="_top" xlink:title=" ">
<polygon fill="white" stroke="#666666" points="360,-74 230,-74 230,-55 360,-55 360,-74"/>
<text text-anchor="middle" x="295" y="-62" font-family="Helvetica,sans-Serif" font-size="10.00">Application/BaseType.h</text>
</a>
</g>
</g>
<!-- Node2&#45;&gt;Node3 -->
<g id="edge2_Node000002_Node000003" class="edge">
<title>Node2&#45;&gt;Node3</title>
<g id="a_edge2_Node000002_Node000003"><a xlink:title=" ">
<path fill="none" stroke="#63b8ff" d="M86.52,-219.97C122.08,-193.62 230.41,-113.35 275.25,-80.13"/>
<polygon fill="#63b8ff" stroke="#63b8ff" points="277.38,-82.91 283.33,-74.15 273.21,-77.29 277.38,-82.91"/>
</a>
</g>
</g>
<!-- Node5 -->
<g id="Node000005" class="node">
<title>Node5</title>
<g id="a_Node000005"><a xlink:title=" ">
<polygon fill="#e0e0e0" stroke="#999999" points="187,-19 137,-19 137,0 187,0 187,-19"/>
<text text-anchor="middle" x="162" y="-7" font-family="Helvetica,sans-Serif" font-size="10.00">cstdint</text>
</a>
</g>
</g>
<!-- Node2&#45;&gt;Node5 -->
<g id="edge16_Node000002_Node000005" class="edge">
<title>Node2&#45;&gt;Node5</title>
<g id="a_edge16_Node000002_Node000005"><a xlink:title=" ">
<path fill="none" stroke="#63b8ff" d="M78.41,-219.95C91.27,-187.74 136.96,-73.23 154.8,-28.55"/>
<polygon fill="#63b8ff" stroke="#63b8ff" points="158.06,-29.81 158.52,-19.22 151.56,-27.21 158.06,-29.81"/>
</a>
</g>
</g>
<!-- Node6 -->
<g id="Node000006" class="node">
<title>Node6</title>
<g id="a_Node000006"><a xlink:href="Mesh_8h.html" target="_top" xlink:title=" ">
<polygon fill="white" stroke="#666666" points="593,-184 483,-184 483,-165 593,-165 593,-184"/>
<text text-anchor="middle" x="538" y="-172" font-family="Helvetica,sans-Serif" font-size="10.00">Application/Mesh.h</text>
</a>
</g>
</g>
<!-- Node2&#45;&gt;Node6 -->
<g id="edge5_Node000002_Node000006" class="edge">
<title>Node2&#45;&gt;Node6</title>
<g id="a_edge5_Node000002_Node000006"><a xlink:title=" ">
<path fill="none" stroke="#63b8ff" d="M149.39,-219.98C238.8,-209.75 387.42,-192.74 472.62,-182.98"/>
<polygon fill="#63b8ff" stroke="#63b8ff" points="473.15,-186.45 482.68,-181.83 472.35,-179.49 473.15,-186.45"/>
</a>
</g>
</g>
<!-- Node2&#45;&gt;Node15 -->
<g id="edge17_Node000002_Node000015" class="edge">
<title>Node2&#45;&gt;Node15</title>
<g id="a_edge17_Node000002_Node000015"><a xlink:title=" ">
<path fill="none" stroke="#63b8ff" d="M99.1,-219.98C123.88,-211.23 162.7,-197.51 190.69,-187.62"/>
<polygon fill="#63b8ff" stroke="#63b8ff" points="192.2,-190.8 200.46,-184.17 189.87,-184.2 192.2,-190.8"/>
</a>
</g>
</g>
<!-- Node4 -->
<g id="Node000004" class="node">
<title>Node4</title>
<g id="a_Node000004"><a xlink:title=" ">
<polygon fill="#e0e0e0" stroke="#999999" points="334,-19 256,-19 256,0 334,0 334,-19"/>
<text text-anchor="middle" x="295" y="-7" font-family="Helvetica,sans-Serif" font-size="10.00">glm/glm.hpp</text>
</a>
</g>
</g>
<!-- Node3&#45;&gt;Node4 -->
<g id="edge3_Node000003_Node000004" class="edge">
<title>Node3&#45;&gt;Node4</title>
<g id="a_edge3_Node000003_Node000004"><a xlink:title=" ">
<path fill="none" stroke="#63b8ff" d="M295,-54.75C295,-47.8 295,-37.85 295,-29.13"/>
<polygon fill="#63b8ff" stroke="#63b8ff" points="298.5,-29.09 295,-19.09 291.5,-29.09 298.5,-29.09"/>
</a>
</g>
</g>
<!-- Node3&#45;&gt;Node5 -->
<g id="edge4_Node000003_Node000005" class="edge">
<title>Node3&#45;&gt;Node5</title>
<g id="a_edge4_Node000003_Node000005"><a xlink:title=" ">
<path fill="none" stroke="#63b8ff" d="M273.63,-54.98C251.85,-46.3 217.84,-32.75 193.08,-22.88"/>
<polygon fill="#63b8ff" stroke="#63b8ff" points="194.34,-19.62 183.76,-19.17 191.75,-26.12 194.34,-19.62"/>
</a>
</g>
</g>
<!-- Node6&#45;&gt;Node3 -->
<g id="edge6_Node000006_Node000003" class="edge">
<title>Node6&#45;&gt;Node3</title>
<g id="a_edge6_Node000006_Node000003"><a xlink:title=" ">
<path fill="none" stroke="#63b8ff" d="M482.64,-169.02C443.82,-163.86 391.94,-152.78 352,-129 332.79,-117.56 316.42,-97.54 306.21,-83.03"/>
<polygon fill="#63b8ff" stroke="#63b8ff" points="308.92,-80.78 300.43,-74.43 303.11,-84.68 308.92,-80.78"/>
</a>
</g>
</g>
<!-- Node7 -->
<g id="Node000007" class="node">
<title>Node7</title>
<g id="a_Node000007"><a xlink:href="ExtraDataContainer_8h.html" target="_top" xlink:title=" ">
<polygon fill="white" stroke="#666666" points="827.5,-129 648.5,-129 648.5,-110 827.5,-110 827.5,-129"/>
<text text-anchor="middle" x="738" y="-117" font-family="Helvetica,sans-Serif" font-size="10.00">Application/ExtraDataContainer.h</text>
</a>
</g>
</g>
<!-- Node6&#45;&gt;Node7 -->
<g id="edge7_Node000006_Node000007" class="edge">
<title>Node6&#45;&gt;Node7</title>
<g id="a_edge7_Node000006_Node000007"><a xlink:title=" ">
<path fill="none" stroke="#63b8ff" d="M570.13,-164.98C604.15,-155.97 658,-141.7 695.5,-131.76"/>
<polygon fill="#63b8ff" stroke="#63b8ff" points="696.84,-135.03 705.61,-129.08 695.05,-128.26 696.84,-135.03"/>
</a>
</g>
</g>
<!-- Node11 -->
<g id="Node000011" class="node">
<title>Node11</title>
<g id="a_Node000011"><a xlink:href="Primitive_8h.html" target="_top" xlink:title=" ">
<polygon fill="white" stroke="#666666" points="489,-129 361,-129 361,-110 489,-110 489,-129"/>
<text text-anchor="middle" x="425" y="-117" font-family="Helvetica,sans-Serif" font-size="10.00">Application/Primitive.h</text>
</a>
</g>
</g>
<!-- Node6&#45;&gt;Node11 -->
<g id="edge11_Node000006_Node000011" class="edge">
<title>Node6&#45;&gt;Node11</title>
<g id="a_edge11_Node000006_Node000011"><a xlink:title=" ">
<path fill="none" stroke="#63b8ff" d="M519.84,-164.98C501.75,-156.5 473.72,-143.35 452.81,-133.54"/>
<polygon fill="#63b8ff" stroke="#63b8ff" points="454.03,-130.25 443.49,-129.17 451.05,-136.59 454.03,-130.25"/>
</a>
</g>
</g>
<!-- Node13 -->
<g id="Node000013" class="node">
<title>Node13</title>
<g id="a_Node000013"><a xlink:title=" ">
<polygon fill="#e0e0e0" stroke="#999999" points="565,-129 507,-129 507,-110 565,-110 565,-129"/>
<text text-anchor="middle" x="536" y="-117" font-family="Helvetica,sans-Serif" font-size="10.00">memory</text>
</a>
</g>
</g>
<!-- Node6&#45;&gt;Node13 -->
<g id="edge14_Node000006_Node000013" class="edge">
<title>Node6&#45;&gt;Node13</title>
<g id="a_edge14_Node000006_Node000013"><a xlink:title=" ">
<path fill="none" stroke="#63b8ff" d="M537.67,-164.75C537.41,-157.8 537.03,-147.85 536.7,-139.13"/>
<polygon fill="#63b8ff" stroke="#63b8ff" points="540.2,-138.95 536.32,-129.09 533.2,-139.21 540.2,-138.95"/>
</a>
</g>
</g>
<!-- Node14 -->
<g id="Node000014" class="node">
<title>Node14</title>
<g id="a_Node000014"><a xlink:title=" ">
<polygon fill="#e0e0e0" stroke="#999999" points="630.5,-129 583.5,-129 583.5,-110 630.5,-110 630.5,-129"/>
<text text-anchor="middle" x="607" y="-117" font-family="Helvetica,sans-Serif" font-size="10.00">vector</text>
</a>
</g>
</g>
<!-- Node6&#45;&gt;Node14 -->
<g id="edge15_Node000006_Node000014" class="edge">
<title>Node6&#45;&gt;Node14</title>
<g id="a_edge15_Node000006_Node000014"><a xlink:title=" ">
<path fill="none" stroke="#63b8ff" d="M549.09,-164.98C559.49,-157 575.26,-144.88 587.72,-135.31"/>
<polygon fill="#63b8ff" stroke="#63b8ff" points="589.91,-138.04 595.71,-129.17 585.65,-132.49 589.91,-138.04"/>
</a>
</g>
</g>
<!-- Node8 -->
<g id="Node000008" class="node">
<title>Node8</title>
<g id="a_Node000008"><a xlink:title=" ">
<polygon fill="#e0e0e0" stroke="#999999" points="837.5,-74 802.5,-74 802.5,-55 837.5,-55 837.5,-74"/>
<text text-anchor="middle" x="820" y="-62" font-family="Helvetica,sans-Serif" font-size="10.00">any</text>
</a>
</g>
</g>
<!-- Node7&#45;&gt;Node8 -->
<g id="edge8_Node000007_Node000008" class="edge">
<title>Node7&#45;&gt;Node8</title>
<g id="a_edge8_Node000007_Node000008"><a xlink:title=" ">
<path fill="none" stroke="#63b8ff" d="M751.17,-109.98C763.77,-101.84 783,-89.41 797.94,-79.76"/>
<polygon fill="#63b8ff" stroke="#63b8ff" points="800.09,-82.54 806.59,-74.17 796.29,-76.66 800.09,-82.54"/>
</a>
</g>
</g>
<!-- Node9 -->
<g id="Node000009" class="node">
<title>Node9</title>
<g id="a_Node000009"><a xlink:title=" ">
<polygon fill="#e0e0e0" stroke="#999999" points="673.5,-74 608.5,-74 608.5,-55 673.5,-55 673.5,-74"/>
<text text-anchor="middle" x="641" y="-62" font-family="Helvetica,sans-Serif" font-size="10.00">typeindex</text>
</a>
</g>
</g>
<!-- Node7&#45;&gt;Node9 -->
<g id="edge9_Node000007_Node000009" class="edge">
<title>Node7&#45;&gt;Node9</title>
<g id="a_edge9_Node000007_Node000009"><a xlink:title=" ">
<path fill="none" stroke="#63b8ff" d="M722.42,-109.98C707.23,-101.69 683.9,-88.94 666.1,-79.22"/>
<polygon fill="#63b8ff" stroke="#63b8ff" points="667.32,-75.89 656.87,-74.17 663.97,-82.04 667.32,-75.89"/>
</a>
</g>
</g>
<!-- Node10 -->
<g id="Node000010" class="node">
<title>Node10</title>
<g id="a_Node000010"><a xlink:title=" ">
<polygon fill="#e0e0e0" stroke="#999999" points="784.5,-74 691.5,-74 691.5,-55 784.5,-55 784.5,-74"/>
<text text-anchor="middle" x="738" y="-62" font-family="Helvetica,sans-Serif" font-size="10.00">unordered_map</text>
</a>
</g>
</g>
<!-- Node7&#45;&gt;Node10 -->
<g id="edge10_Node000007_Node000010" class="edge">
<title>Node7&#45;&gt;Node10</title>
<g id="a_edge10_Node000007_Node000010"><a xlink:title=" ">
<path fill="none" stroke="#63b8ff" d="M738,-109.75C738,-102.8 738,-92.85 738,-84.13"/>
<polygon fill="#63b8ff" stroke="#63b8ff" points="741.5,-84.09 738,-74.09 734.5,-84.09 741.5,-84.09"/>
</a>
</g>
</g>
<!-- Node11&#45;&gt;Node3 -->
<g id="edge12_Node000011_Node000003" class="edge">
<title>Node11&#45;&gt;Node3</title>
<g id="a_edge12_Node000011_Node000003"><a xlink:title=" ">
<path fill="none" stroke="#63b8ff" d="M404.11,-109.98C382.92,-101.34 349.87,-87.87 325.7,-78.02"/>
<polygon fill="#63b8ff" stroke="#63b8ff" points="326.85,-74.7 316.27,-74.17 324.21,-81.19 326.85,-74.7"/>
</a>
</g>
</g>
<!-- Node12 -->
<g id="Node000012" class="node">
<title>Node12</title>
<g id="a_Node000012"><a xlink:title=" ">
<polygon fill="#e0e0e0" stroke="#999999" points="446,-74 404,-74 404,-55 446,-55 446,-74"/>
<text text-anchor="middle" x="425" y="-62" font-family="Helvetica,sans-Serif" font-size="10.00">array</text>
</a>
</g>
</g>
<!-- Node11&#45;&gt;Node12 -->
<g id="edge13_Node000011_Node000012" class="edge">
<title>Node11&#45;&gt;Node12</title>
<g id="a_edge13_Node000011_Node000012"><a xlink:title=" ">
<path fill="none" stroke="#63b8ff" d="M425,-109.75C425,-102.8 425,-92.85 425,-84.13"/>
<polygon fill="#63b8ff" stroke="#63b8ff" points="428.5,-84.09 425,-74.09 421.5,-84.09 428.5,-84.09"/>
</a>
</g>
</g>
<!-- Node16&#45;&gt;Node3 -->
<g id="edge19_Node000016_Node000003" class="edge">
<title>Node16&#45;&gt;Node3</title>
<g id="a_edge19_Node000016_Node000003"><a xlink:title=" ">
<path fill="none" stroke="#63b8ff" d="M502.92,-219.97C455.81,-207.4 374.57,-179.74 324,-129 311.71,-116.67 304.09,-98.19 299.76,-84.34"/>
<polygon fill="#63b8ff" stroke="#63b8ff" points="303.05,-83.11 296.97,-74.43 296.31,-85.01 303.05,-83.11"/>
</a>
</g>
</g>
<!-- Node16&#45;&gt;Node6 -->
<g id="edge20_Node000016_Node000006" class="edge">
<title>Node16&#45;&gt;Node6</title>
<g id="a_edge20_Node000016_Node000006"><a xlink:title=" ">
<path fill="none" stroke="#63b8ff" d="M539.67,-219.75C539.41,-212.8 539.03,-202.85 538.7,-194.13"/>
<polygon fill="#63b8ff" stroke="#63b8ff" points="542.2,-193.95 538.32,-184.09 535.2,-194.21 542.2,-193.95"/>
</a>
</g>
</g>
<!-- Node18 -->
<g id="Node000018" class="node">
<title>Node18</title>
<g id="a_Node000018"><a xlink:title=" ">
<polygon fill="#e0e0e0" stroke="#999999" points="329,-239 279,-239 279,-220 329,-220 329,-239"/>
<text text-anchor="middle" x="304" y="-227" font-family="Helvetica,sans-Serif" font-size="10.00">format</text>
</a>
</g>
</g>
<!-- Node17&#45;&gt;Node18 -->
<g id="edge22_Node000017_Node000018" class="edge">
<title>Node17&#45;&gt;Node18</title>
<g id="a_edge22_Node000017_Node000018"><a xlink:title=" ">
<path fill="none" stroke="#63b8ff" d="M324.04,-274.75C320.79,-267.57 316.08,-257.18 312.05,-248.27"/>
<polygon fill="#63b8ff" stroke="#63b8ff" points="315.2,-246.75 307.89,-239.09 308.83,-249.64 315.2,-246.75"/>
</a>
</g>
</g>
<!-- Node19 -->
<g id="Node000019" class="node">
<title>Node19</title>
<g id="a_Node000019"><a xlink:title=" ">
<polygon fill="#e0e0e0" stroke="#999999" points="407,-239 347,-239 347,-220 407,-220 407,-239"/>
<text text-anchor="middle" x="377" y="-227" font-family="Helvetica,sans-Serif" font-size="10.00">iostream</text>
</a>
</g>
</g>
<!-- Node17&#45;&gt;Node19 -->
<g id="edge23_Node000017_Node000019" class="edge">
<title>Node17&#45;&gt;Node19</title>
<g id="a_edge23_Node000017_Node000019"><a xlink:title=" ">
<path fill="none" stroke="#63b8ff" d="M336.09,-274.75C343.16,-267.11 353.59,-255.82 362.15,-246.56"/>
<polygon fill="#63b8ff" stroke="#63b8ff" points="364.84,-248.81 369.06,-239.09 359.7,-244.06 364.84,-248.81"/>
</a>
</g>
</g>
<!-- Node20 -->
<g id="Node000020" class="node">
<title>Node20</title>
<g id="a_Node000020"><a xlink:title=" ">
<polygon fill="#e0e0e0" stroke="#999999" points="260.5,-239 167.5,-239 167.5,-220 260.5,-220 260.5,-239"/>
<text text-anchor="middle" x="214" y="-227" font-family="Helvetica,sans-Serif" font-size="10.00">source_location</text>
</a>
</g>
</g>
<!-- Node17&#45;&gt;Node20 -->
<g id="edge24_Node000017_Node000020" class="edge">
<title>Node17&#45;&gt;Node20</title>
<g id="a_edge24_Node000017_Node000020"><a xlink:title=" ">
<path fill="none" stroke="#63b8ff" d="M309.68,-274.98C291.34,-266.46 262.89,-253.23 241.77,-243.41"/>
<polygon fill="#63b8ff" stroke="#63b8ff" points="243.19,-240.21 232.65,-239.17 240.24,-246.56 243.19,-240.21"/>
</a>
</g>
</g>
<!-- Node21&#45;&gt;Node6 -->
<g id="edge26_Node000021_Node000006" class="edge">
<title>Node21&#45;&gt;Node6</title>
<g id="a_edge26_Node000021_Node000006"><a xlink:title=" ">
<path fill="none" stroke="#63b8ff" d="M572.41,-274.99C602.19,-264.74 641.78,-245.66 626,-220 616.55,-204.64 599.98,-194.39 583.75,-187.64"/>
<polygon fill="#63b8ff" stroke="#63b8ff" points="584.88,-184.32 574.29,-184.06 582.4,-190.87 584.88,-184.32"/>
</a>
</g>
</g>
<!-- Node21&#45;&gt;Node16 -->
<g id="edge27_Node000021_Node000016" class="edge">
<title>Node21&#45;&gt;Node16</title>
<g id="a_edge27_Node000021_Node000016"><a xlink:title=" ">
<path fill="none" stroke="#63b8ff" d="M542.5,-274.75C542.11,-267.8 541.55,-257.85 541.05,-249.13"/>
<polygon fill="#63b8ff" stroke="#63b8ff" points="544.55,-248.88 540.49,-239.09 537.56,-249.27 544.55,-248.88"/>
</a>
</g>
</g>
</g>
</svg>
