<?xml version="1.0" encoding="UTF-8" standalone="no"?>
<!DOCTYPE svg PUBLIC "-//W3C//DTD SVG 1.1//EN"
 "http://www.w3.org/Graphics/SVG/1.1/DTD/svg11.dtd">
<!-- Generated by graphviz version 2.43.0 (0)
 -->
<!-- Title: App/Include/Application/MeshLoader.h Pages: 1 -->
<svg width="554pt" height="258pt"
 viewBox="0.00 0.00 554.00 258.00" xmlns="http://www.w3.org/2000/svg" xmlns:xlink="http://www.w3.org/1999/xlink">
<g id="graph0" class="graph" transform="scale(1 1) rotate(0) translate(4 254)">
<title>App/Include/Application/MeshLoader.h</title>
<!-- Node1 -->
<g id="Node000001" class="node">
<title>Node1</title>
<g id="a_Node000001"><a xlink:title=" ">
<polygon fill="#999999" stroke="#666666" points="459,-250 328,-250 328,-220 459,-220 459,-250"/>
<text text-anchor="start" x="336" y="-238" font-family="Helvetica,sans-Serif" font-size="10.00">App/Include/Application</text>
<text text-anchor="middle" x="393.5" y="-227" font-family="Helvetica,sans-Serif" font-size="10.00">/MeshLoader.h</text>
</a>
</g>
</g>
<!-- Node2 -->
<g id="Node000002" class="node">
<title>Node2</title>
<g id="a_Node000002"><a xlink:href="Mesh_8h.html" target="_top" xlink:title=" ">
<polygon fill="white" stroke="#666666" points="395.5,-184 285.5,-184 285.5,-165 395.5,-165 395.5,-184"/>
<text text-anchor="middle" x="340.5" y="-172" font-family="Helvetica,sans-Serif" font-size="10.00">Application/Mesh.h</text>
</a>
</g>
</g>
<!-- Node1&#45;&gt;Node2 -->
<g id="edge1_Node000001_Node000002" class="edge">
<title>Node1&#45;&gt;Node2</title>
<g id="a_edge1_Node000001_Node000002"><a xlink:title=" ">
<path fill="none" stroke="#63b8ff" d="M380.67,-219.84C372.98,-211.35 363.17,-200.52 355.17,-191.69"/>
<polygon fill="#63b8ff" stroke="#63b8ff" points="357.75,-189.33 348.44,-184.27 352.56,-194.03 357.75,-189.33"/>
</a>
</g>
</g>
<!-- Node16 -->
<g id="Node000016" class="node">
<title>Node16</title>
<g id="a_Node000016"><a xlink:title=" ">
<polygon fill="#e0e0e0" stroke="#999999" points="481.5,-184 413.5,-184 413.5,-165 481.5,-165 481.5,-184"/>
<text text-anchor="middle" x="447.5" y="-172" font-family="Helvetica,sans-Serif" font-size="10.00">filesystem</text>
</a>
</g>
</g>
<!-- Node1&#45;&gt;Node16 -->
<g id="edge16_Node000001_Node000016" class="edge">
<title>Node1&#45;&gt;Node16</title>
<g id="a_edge16_Node000001_Node000016"><a xlink:title=" ">
<path fill="none" stroke="#63b8ff" d="M406.57,-219.84C414.41,-211.35 424.41,-200.52 432.56,-191.69"/>
<polygon fill="#63b8ff" stroke="#63b8ff" points="435.2,-193.99 439.41,-184.27 430.05,-189.24 435.2,-193.99"/>
</a>
</g>
</g>
<!-- Node3 -->
<g id="Node000003" class="node">
<title>Node3</title>
<g id="a_Node000003"><a xlink:href="ExtraDataContainer_8h.html" target="_top" xlink:title=" ">
<polygon fill="white" stroke="#666666" points="220,-129 41,-129 41,-110 220,-110 220,-129"/>
<text text-anchor="middle" x="130.5" y="-117" font-family="Helvetica,sans-Serif" font-size="10.00">Application/ExtraDataContainer.h</text>
</a>
</g>
</g>
<!-- Node2&#45;&gt;Node3 -->
<g id="edge2_Node000002_Node000003" class="edge">
<title>Node2&#45;&gt;Node3</title>
<g id="a_edge2_Node000002_Node000003"><a xlink:title=" ">
<path fill="none" stroke="#63b8ff" d="M306.76,-164.98C270.82,-155.91 213.78,-141.52 174.37,-131.57"/>
<polygon fill="#63b8ff" stroke="#63b8ff" points="175.06,-128.14 164.5,-129.08 173.34,-134.92 175.06,-128.14"/>
</a>
</g>
</g>
<!-- Node7 -->
<g id="Node000007" class="node">
<title>Node7</title>
<g id="a_Node000007"><a xlink:href="Primitive_8h.html" target="_top" xlink:title=" ">
<polygon fill="white" stroke="#666666" points="404.5,-129 276.5,-129 276.5,-110 404.5,-110 404.5,-129"/>
<text text-anchor="middle" x="340.5" y="-117" font-family="Helvetica,sans-Serif" font-size="10.00">Application/Primitive.h</text>
</a>
</g>
</g>
<!-- Node2&#45;&gt;Node7 -->
<g id="edge6_Node000002_Node000007" class="edge">
<title>Node2&#45;&gt;Node7</title>
<g id="a_edge6_Node000002_Node000007"><a xlink:title=" ">
<path fill="none" stroke="#63b8ff" d="M340.5,-164.75C340.5,-157.8 340.5,-147.85 340.5,-139.13"/>
<polygon fill="#63b8ff" stroke="#63b8ff" points="344,-139.09 340.5,-129.09 337,-139.09 344,-139.09"/>
</a>
</g>
</g>
<!-- Node8 -->
<g id="Node000008" class="node">
<title>Node8</title>
<g id="a_Node000008"><a xlink:href="BaseType_8h.html" target="_top" xlink:title=" ">
<polygon fill="white" stroke="#666666" points="345.5,-74 247.5,-74 247.5,-55 345.5,-55 345.5,-74"/>
<text text-anchor="middle" x="296.5" y="-62" font-family="Helvetica,sans-Serif" font-size="10.00">Core/BaseType.h</text>
</a>
</g>
</g>
<!-- Node2&#45;&gt;Node8 -->
<g id="edge13_Node000002_Node000008" class="edge">
<title>Node2&#45;&gt;Node8</title>
<g id="a_edge13_Node000002_Node000008"><a xlink:title=" ">
<path fill="none" stroke="#63b8ff" d="M313.93,-164.94C297.37,-158.06 277.38,-146.6 267.5,-129 258.84,-113.57 269.49,-95.08 280.24,-82.05"/>
<polygon fill="#63b8ff" stroke="#63b8ff" points="283.07,-84.14 287.12,-74.35 277.85,-79.48 283.07,-84.14"/>
</a>
</g>
</g>
<!-- Node14 -->
<g id="Node000014" class="node">
<title>Node14</title>
<g id="a_Node000014"><a xlink:title=" ">
<polygon fill="#e0e0e0" stroke="#999999" points="480.5,-129 422.5,-129 422.5,-110 480.5,-110 480.5,-129"/>
<text text-anchor="middle" x="451.5" y="-117" font-family="Helvetica,sans-Serif" font-size="10.00">memory</text>
</a>
</g>
</g>
<!-- Node2&#45;&gt;Node14 -->
<g id="edge14_Node000002_Node000014" class="edge">
<title>Node2&#45;&gt;Node14</title>
<g id="a_edge14_Node000002_Node000014"><a xlink:title=" ">
<path fill="none" stroke="#63b8ff" d="M358.33,-164.98C376.11,-156.5 403.65,-143.35 424.18,-133.54"/>
<polygon fill="#63b8ff" stroke="#63b8ff" points="425.83,-136.64 433.34,-129.17 422.81,-130.32 425.83,-136.64"/>
</a>
</g>
</g>
<!-- Node15 -->
<g id="Node000015" class="node">
<title>Node15</title>
<g id="a_Node000015"><a xlink:title=" ">
<polygon fill="#e0e0e0" stroke="#999999" points="546,-129 499,-129 499,-110 546,-110 546,-129"/>
<text text-anchor="middle" x="522.5" y="-117" font-family="Helvetica,sans-Serif" font-size="10.00">vector</text>
</a>
</g>
</g>
<!-- Node2&#45;&gt;Node15 -->
<g id="edge15_Node000002_Node000015" class="edge">
<title>Node2&#45;&gt;Node15</title>
<g id="a_edge15_Node000002_Node000015"><a xlink:title=" ">
<path fill="none" stroke="#63b8ff" d="M369.74,-164.98C402.25,-155.52 454.67,-140.25 488.86,-130.3"/>
<polygon fill="#63b8ff" stroke="#63b8ff" points="490.22,-133.55 498.84,-127.39 488.26,-126.83 490.22,-133.55"/>
</a>
</g>
</g>
<!-- Node4 -->
<g id="Node000004" class="node">
<title>Node4</title>
<g id="a_Node000004"><a xlink:title=" ">
<polygon fill="#e0e0e0" stroke="#999999" points="35,-74 0,-74 0,-55 35,-55 35,-74"/>
<text text-anchor="middle" x="17.5" y="-62" font-family="Helvetica,sans-Serif" font-size="10.00">any</text>
</a>
</g>
</g>
<!-- Node3&#45;&gt;Node4 -->
<g id="edge3_Node000003_Node000004" class="edge">
<title>Node3&#45;&gt;Node4</title>
<g id="a_edge3_Node000003_Node000004"><a xlink:title=" ">
<path fill="none" stroke="#63b8ff" d="M112.34,-109.98C94.03,-101.4 65.55,-88.04 44.57,-78.2"/>
<polygon fill="#63b8ff" stroke="#63b8ff" points="45.78,-74.9 35.24,-73.82 42.81,-81.23 45.78,-74.9"/>
</a>
</g>
</g>
<!-- Node5 -->
<g id="Node000005" class="node">
<title>Node5</title>
<g id="a_Node000005"><a xlink:title=" ">
<polygon fill="#e0e0e0" stroke="#999999" points="118,-74 53,-74 53,-55 118,-55 118,-74"/>
<text text-anchor="middle" x="85.5" y="-62" font-family="Helvetica,sans-Serif" font-size="10.00">typeindex</text>
</a>
</g>
</g>
<!-- Node3&#45;&gt;Node5 -->
<g id="edge4_Node000003_Node000005" class="edge">
<title>Node3&#45;&gt;Node5</title>
<g id="a_edge4_Node000003_Node000005"><a xlink:title=" ">
<path fill="none" stroke="#63b8ff" d="M123.07,-109.75C116.65,-102.18 107.19,-91.05 99.38,-81.84"/>
<polygon fill="#63b8ff" stroke="#63b8ff" points="101.93,-79.45 92.79,-74.09 96.6,-83.98 101.93,-79.45"/>
</a>
</g>
</g>
<!-- Node6 -->
<g id="Node000006" class="node">
<title>Node6</title>
<g id="a_Node000006"><a xlink:title=" ">
<polygon fill="#e0e0e0" stroke="#999999" points="229,-74 136,-74 136,-55 229,-55 229,-74"/>
<text text-anchor="middle" x="182.5" y="-62" font-family="Helvetica,sans-Serif" font-size="10.00">unordered_map</text>
</a>
</g>
</g>
<!-- Node3&#45;&gt;Node6 -->
<g id="edge5_Node000003_Node000006" class="edge">
<title>Node3&#45;&gt;Node6</title>
<g id="a_edge5_Node000003_Node000006"><a xlink:title=" ">
<path fill="none" stroke="#63b8ff" d="M139.09,-109.75C146.66,-102.03 157.88,-90.6 167.01,-81.28"/>
<polygon fill="#63b8ff" stroke="#63b8ff" points="169.57,-83.68 174.07,-74.09 164.57,-78.78 169.57,-83.68"/>
</a>
</g>
</g>
<!-- Node7&#45;&gt;Node8 -->
<g id="edge7_Node000007_Node000008" class="edge">
<title>Node7&#45;&gt;Node8</title>
<g id="a_edge7_Node000007_Node000008"><a xlink:title=" ">
<path fill="none" stroke="#63b8ff" d="M333.23,-109.75C326.96,-102.18 317.71,-91.05 310.07,-81.84"/>
<polygon fill="#63b8ff" stroke="#63b8ff" points="312.71,-79.55 303.63,-74.09 307.33,-84.02 312.71,-79.55"/>
</a>
</g>
</g>
<!-- Node13 -->
<g id="Node000013" class="node">
<title>Node13</title>
<g id="a_Node000013"><a xlink:title=" ">
<polygon fill="#e0e0e0" stroke="#999999" points="405.5,-74 363.5,-74 363.5,-55 405.5,-55 405.5,-74"/>
<text text-anchor="middle" x="384.5" y="-62" font-family="Helvetica,sans-Serif" font-size="10.00">array</text>
</a>
</g>
</g>
<!-- Node7&#45;&gt;Node13 -->
<g id="edge12_Node000007_Node000013" class="edge">
<title>Node7&#45;&gt;Node13</title>
<g id="a_edge12_Node000007_Node000013"><a xlink:title=" ">
<path fill="none" stroke="#63b8ff" d="M347.77,-109.75C354.04,-102.18 363.29,-91.05 370.93,-81.84"/>
<polygon fill="#63b8ff" stroke="#63b8ff" points="373.67,-84.02 377.37,-74.09 368.29,-79.55 373.67,-84.02"/>
</a>
</g>
</g>
<!-- Node9 -->
<g id="Node000009" class="node">
<title>Node9</title>
<g id="a_Node000009"><a xlink:title=" ">
<polygon fill="#e0e0e0" stroke="#999999" points="152.5,-19 74.5,-19 74.5,0 152.5,0 152.5,-19"/>
<text text-anchor="middle" x="113.5" y="-7" font-family="Helvetica,sans-Serif" font-size="10.00">glm/glm.hpp</text>
</a>
</g>
</g>
<!-- Node8&#45;&gt;Node9 -->
<g id="edge8_Node000008_Node000009" class="edge">
<title>Node8&#45;&gt;Node9</title>
<g id="a_edge8_Node000008_Node000009"><a xlink:title=" ">
<path fill="none" stroke="#63b8ff" d="M267.1,-54.98C236.11,-46.01 187.12,-31.82 152.83,-21.89"/>
<polygon fill="#63b8ff" stroke="#63b8ff" points="153.71,-18.5 143.13,-19.08 151.76,-25.23 153.71,-18.5"/>
</a>
</g>
</g>
<!-- Node10 -->
<g id="Node000010" class="node">
<title>Node10</title>
<g id="a_Node000010"><a xlink:title=" ">
<polygon fill="#e0e0e0" stroke="#999999" points="312,-19 171,-19 171,0 312,0 312,-19"/>
<text text-anchor="middle" x="241.5" y="-7" font-family="Helvetica,sans-Serif" font-size="10.00">glm/gtx/vector_angle.hpp</text>
</a>
</g>
</g>
<!-- Node8&#45;&gt;Node10 -->
<g id="edge9_Node000008_Node000010" class="edge">
<title>Node8&#45;&gt;Node10</title>
<g id="a_edge9_Node000008_Node000010"><a xlink:title=" ">
<path fill="none" stroke="#63b8ff" d="M287.42,-54.75C279.41,-47.03 267.54,-35.6 257.88,-26.28"/>
<polygon fill="#63b8ff" stroke="#63b8ff" points="260.04,-23.51 250.41,-19.09 255.19,-28.55 260.04,-23.51"/>
</a>
</g>
</g>
<!-- Node11 -->
<g id="Node000011" class="node">
<title>Node11</title>
<g id="a_Node000011"><a xlink:title=" ">
<polygon fill="#e0e0e0" stroke="#999999" points="374.5,-19 330.5,-19 330.5,0 374.5,0 374.5,-19"/>
<text text-anchor="middle" x="352.5" y="-7" font-family="Helvetica,sans-Serif" font-size="10.00">bitset</text>
</a>
</g>
</g>
<!-- Node8&#45;&gt;Node11 -->
<g id="edge10_Node000008_Node000011" class="edge">
<title>Node8&#45;&gt;Node11</title>
<g id="a_edge10_Node000008_Node000011"><a xlink:title=" ">
<path fill="none" stroke="#63b8ff" d="M305.5,-54.98C313.69,-47.23 326.01,-35.58 335.97,-26.14"/>
<polygon fill="#63b8ff" stroke="#63b8ff" points="338.48,-28.59 343.34,-19.17 333.67,-23.5 338.48,-28.59"/>
</a>
</g>
</g>
<!-- Node12 -->
<g id="Node000012" class="node">
<title>Node12</title>
<g id="a_Node000012"><a xlink:title=" ">
<polygon fill="#e0e0e0" stroke="#999999" points="442.5,-19 392.5,-19 392.5,0 442.5,0 442.5,-19"/>
<text text-anchor="middle" x="417.5" y="-7" font-family="Helvetica,sans-Serif" font-size="10.00">cstdint</text>
</a>
</g>
</g>
<!-- Node8&#45;&gt;Node12 -->
<g id="edge11_Node000008_Node000012" class="edge">
<title>Node8&#45;&gt;Node12</title>
<g id="a_edge11_Node000008_Node000012"><a xlink:title=" ">
<path fill="none" stroke="#63b8ff" d="M315.94,-54.98C335.49,-46.42 365.88,-33.11 388.32,-23.28"/>
<polygon fill="#63b8ff" stroke="#63b8ff" points="389.95,-26.39 397.71,-19.17 387.14,-19.98 389.95,-26.39"/>
</a>
</g>
</g>
</g>
</svg>
