<?xml version="1.0" encoding="UTF-8" standalone="no"?>
<!DOCTYPE svg PUBLIC "-//W3C//DTD SVG 1.1//EN"
 "http://www.w3.org/Graphics/SVG/1.1/DTD/svg11.dtd">
<!-- Generated by graphviz version 2.43.0 (0)
 -->
<!-- Title: App/Source/MeshExporter.cpp Pages: 1 -->
<svg width="1196pt" height="302pt"
 viewBox="0.00 0.00 1195.50 302.00" xmlns="http://www.w3.org/2000/svg" xmlns:xlink="http://www.w3.org/1999/xlink">
<g id="graph0" class="graph" transform="scale(1 1) rotate(0) translate(4 298)">
<title>App/Source/MeshExporter.cpp</title>
<!-- Node1 -->
<g id="Node000001" class="node">
<title>Node1</title>
<g id="a_Node000001"><a xlink:title=" ">
<polygon fill="#999999" stroke="#666666" points="844,-294 683,-294 683,-275 844,-275 844,-294"/>
<text text-anchor="middle" x="763.5" y="-282" font-family="Helvetica,sans-Serif" font-size="10.00">App/Source/MeshExporter.cpp</text>
</a>
</g>
</g>
<!-- Node2 -->
<g id="Node000002" class="node">
<title>Node2</title>
<g id="a_Node000002"><a xlink:href="MeshExporter_8h.html" target="_top" xlink:title=" ">
<polygon fill="white" stroke="#666666" points="624.5,-239 474.5,-239 474.5,-220 624.5,-220 624.5,-239"/>
<text text-anchor="middle" x="549.5" y="-227" font-family="Helvetica,sans-Serif" font-size="10.00">Application/MeshExporter.h</text>
</a>
</g>
</g>
<!-- Node1&#45;&gt;Node2 -->
<g id="edge1_Node000001_Node000002" class="edge">
<title>Node1&#45;&gt;Node2</title>
<g id="a_edge1_Node000001_Node000002"><a xlink:title=" ">
<path fill="none" stroke="#63b8ff" d="M729.12,-274.98C692.41,-265.89 634.12,-251.46 593.95,-241.51"/>
<polygon fill="#63b8ff" stroke="#63b8ff" points="594.7,-238.09 584.15,-239.08 593.02,-244.88 594.7,-238.09"/>
</a>
</g>
</g>
<!-- Node4 -->
<g id="Node000004" class="node">
<title>Node4</title>
<g id="a_Node000004"><a xlink:href="ExtraDataContainer_8h.html" target="_top" xlink:title=" ">
<polygon fill="white" stroke="#666666" points="179,-129 0,-129 0,-110 179,-110 179,-129"/>
<text text-anchor="middle" x="89.5" y="-117" font-family="Helvetica,sans-Serif" font-size="10.00">Application/ExtraDataContainer.h</text>
</a>
</g>
</g>
<!-- Node1&#45;&gt;Node4 -->
<g id="edge20_Node000001_Node000004" class="edge">
<title>Node1&#45;&gt;Node4</title>
<g id="a_edge20_Node000001_Node000004"><a xlink:title=" ">
<path fill="none" stroke="#63b8ff" d="M683,-280.57C536.21,-274.73 236.16,-260.36 193.5,-239 148.38,-216.41 114.31,-164.9 98.77,-137.84"/>
<polygon fill="#63b8ff" stroke="#63b8ff" points="101.82,-136.11 93.9,-129.07 95.7,-139.52 101.82,-136.11"/>
</a>
</g>
</g>
<!-- Node9 -->
<g id="Node000009" class="node">
<title>Node9</title>
<g id="a_Node000009"><a xlink:href="BaseType_8h.html" target="_top" xlink:title=" ">
<polygon fill="white" stroke="#666666" points="500.5,-74 402.5,-74 402.5,-55 500.5,-55 500.5,-74"/>
<text text-anchor="middle" x="451.5" y="-62" font-family="Helvetica,sans-Serif" font-size="10.00">Core/BaseType.h</text>
</a>
</g>
</g>
<!-- Node1&#45;&gt;Node9 -->
<g id="edge29_Node000001_Node000009" class="edge">
<title>Node1&#45;&gt;Node9</title>
<g id="a_edge29_Node000001_Node000009"><a xlink:title=" ">
<path fill="none" stroke="#63b8ff" d="M682.99,-281.98C551.24,-278.66 301.44,-268.51 274.5,-239 253.22,-215.7 165.59,-250.56 280.5,-110 294.73,-92.59 348.73,-80.53 392.29,-73.4"/>
<polygon fill="#63b8ff" stroke="#63b8ff" points="392.92,-76.84 402.25,-71.82 391.83,-69.93 392.92,-76.84"/>
</a>
</g>
</g>
<!-- Node18 -->
<g id="Node000018" class="node">
<title>Node18</title>
<g id="a_Node000018"><a xlink:href="ExtraDataType_8h.html" target="_top" xlink:title=" ">
<polygon fill="white" stroke="#666666" points="757,-184 602,-184 602,-165 757,-165 757,-184"/>
<text text-anchor="middle" x="679.5" y="-172" font-family="Helvetica,sans-Serif" font-size="10.00">Application/ExtraDataType.h</text>
</a>
</g>
</g>
<!-- Node1&#45;&gt;Node18 -->
<g id="edge21_Node000001_Node000018" class="edge">
<title>Node1&#45;&gt;Node18</title>
<g id="a_edge21_Node000001_Node000018"><a xlink:title=" ">
<path fill="none" stroke="#63b8ff" d="M744.98,-274.88C730.64,-267.32 711.29,-255.03 699.5,-239 689.76,-225.76 684.67,-207.64 682.07,-194.14"/>
<polygon fill="#63b8ff" stroke="#63b8ff" points="685.5,-193.4 680.42,-184.1 678.59,-194.54 685.5,-193.4"/>
</a>
</g>
</g>
<!-- Node20 -->
<g id="Node000020" class="node">
<title>Node20</title>
<g id="a_Node000020"><a xlink:href="PrimitiveProxy_8h.html" target="_top" xlink:title=" ">
<polygon fill="white" stroke="#666666" points="437.5,-239 283.5,-239 283.5,-220 437.5,-220 437.5,-239"/>
<text text-anchor="middle" x="360.5" y="-227" font-family="Helvetica,sans-Serif" font-size="10.00">Application/PrimitiveProxy.h</text>
</a>
</g>
</g>
<!-- Node1&#45;&gt;Node20 -->
<g id="edge26_Node000001_Node000020" class="edge">
<title>Node1&#45;&gt;Node20</title>
<g id="a_edge26_Node000001_Node000020"><a xlink:title=" ">
<path fill="none" stroke="#63b8ff" d="M698.75,-274.98C626.88,-265.53 511.08,-250.3 435.37,-240.35"/>
<polygon fill="#63b8ff" stroke="#63b8ff" points="435.79,-236.87 425.42,-239.04 434.88,-243.81 435.79,-236.87"/>
</a>
</g>
</g>
<!-- Node21 -->
<g id="Node000021" class="node">
<title>Node21</title>
<g id="a_Node000021"><a xlink:href="PrintHelpers_8h.html" target="_top" xlink:title=" ">
<polygon fill="white" stroke="#666666" points="819,-239 708,-239 708,-220 819,-220 819,-239"/>
<text text-anchor="middle" x="763.5" y="-227" font-family="Helvetica,sans-Serif" font-size="10.00">Core/PrintHelpers.h</text>
</a>
</g>
</g>
<!-- Node1&#45;&gt;Node21 -->
<g id="edge30_Node000001_Node000021" class="edge">
<title>Node1&#45;&gt;Node21</title>
<g id="a_edge30_Node000001_Node000021"><a xlink:title=" ">
<path fill="none" stroke="#63b8ff" d="M763.5,-274.75C763.5,-267.8 763.5,-257.85 763.5,-249.13"/>
<polygon fill="#63b8ff" stroke="#63b8ff" points="767,-249.09 763.5,-239.09 760,-249.09 767,-249.09"/>
</a>
</g>
</g>
<!-- Node23 -->
<g id="Node000023" class="node">
<title>Node23</title>
<g id="a_Node000023"><a xlink:title=" ">
<polygon fill="#e0e0e0" stroke="#999999" points="1053.5,-184 993.5,-184 993.5,-165 1053.5,-165 1053.5,-184"/>
<text text-anchor="middle" x="1023.5" y="-172" font-family="Helvetica,sans-Serif" font-size="10.00">iostream</text>
</a>
</g>
</g>
<!-- Node1&#45;&gt;Node23 -->
<g id="edge37_Node000001_Node000023" class="edge">
<title>Node1&#45;&gt;Node23</title>
<g id="a_edge37_Node000001_Node000023"><a xlink:title=" ">
<path fill="none" stroke="#63b8ff" d="M774.96,-274.95C793.39,-261.56 831.12,-235.56 866.5,-220 887.43,-210.79 944.41,-195.5 983.64,-185.46"/>
<polygon fill="#63b8ff" stroke="#63b8ff" points="984.61,-188.82 993.44,-182.96 982.89,-182.04 984.61,-188.82"/>
</a>
</g>
</g>
<!-- Node25 -->
<g id="Node000025" class="node">
<title>Node25</title>
<g id="a_Node000025"><a xlink:title=" ">
<polygon fill="#e0e0e0" stroke="#999999" points="939.5,-239 875.5,-239 875.5,-220 939.5,-220 939.5,-239"/>
<text text-anchor="middle" x="907.5" y="-227" font-family="Helvetica,sans-Serif" font-size="10.00">algorithm</text>
</a>
</g>
</g>
<!-- Node1&#45;&gt;Node25 -->
<g id="edge34_Node000001_Node000025" class="edge">
<title>Node1&#45;&gt;Node25</title>
<g id="a_edge34_Node000001_Node000025"><a xlink:title=" ">
<path fill="none" stroke="#63b8ff" d="M786.64,-274.98C810.32,-266.27 847.37,-252.63 874.21,-242.75"/>
<polygon fill="#63b8ff" stroke="#63b8ff" points="875.77,-245.91 883.94,-239.17 873.35,-239.34 875.77,-245.91"/>
</a>
</g>
</g>
<!-- Node26 -->
<g id="Node000026" class="node">
<title>Node26</title>
<g id="a_Node000026"><a xlink:title=" ">
<polygon fill="#e0e0e0" stroke="#999999" points="1009.5,-239 957.5,-239 957.5,-220 1009.5,-220 1009.5,-239"/>
<text text-anchor="middle" x="983.5" y="-227" font-family="Helvetica,sans-Serif" font-size="10.00">cassert</text>
</a>
</g>
</g>
<!-- Node1&#45;&gt;Node26 -->
<g id="edge35_Node000001_Node000026" class="edge">
<title>Node1&#45;&gt;Node26</title>
<g id="a_edge35_Node000001_Node000026"><a xlink:title=" ">
<path fill="none" stroke="#63b8ff" d="M798.97,-274.99C834.18,-266.54 889.96,-253.14 947.19,-239.31"/>
<polygon fill="#63b8ff" stroke="#63b8ff" points="948.23,-242.66 957.13,-236.91 946.59,-235.86 948.23,-242.66"/>
</a>
</g>
</g>
<!-- Node27 -->
<g id="Node000027" class="node">
<title>Node27</title>
<g id="a_Node000027"><a xlink:title=" ">
<polygon fill="#e0e0e0" stroke="#999999" points="1083,-239 1028,-239 1028,-220 1083,-220 1083,-239"/>
<text text-anchor="middle" x="1055.5" y="-227" font-family="Helvetica,sans-Serif" font-size="10.00">fstream</text>
</a>
</g>
</g>
<!-- Node1&#45;&gt;Node27 -->
<g id="edge36_Node000001_Node000027" class="edge">
<title>Node1&#45;&gt;Node27</title>
<g id="a_edge36_Node000001_Node000027"><a xlink:title=" ">
<path fill="none" stroke="#63b8ff" d="M817.38,-274.95C866.88,-266.9 942.5,-254.13 1017.55,-239.1"/>
<polygon fill="#63b8ff" stroke="#63b8ff" points="1018.54,-242.47 1027.65,-237.06 1017.16,-235.61 1018.54,-242.47"/>
</a>
</g>
</g>
<!-- Node28 -->
<g id="Node000028" class="node">
<title>Node28</title>
<g id="a_Node000028"><a xlink:title=" ">
<polygon fill="#e0e0e0" stroke="#999999" points="1187.5,-239 1101.5,-239 1101.5,-220 1187.5,-220 1187.5,-239"/>
<text text-anchor="middle" x="1144.5" y="-227" font-family="Helvetica,sans-Serif" font-size="10.00">unordered_set</text>
</a>
</g>
</g>
<!-- Node1&#45;&gt;Node28 -->
<g id="edge38_Node000001_Node000028" class="edge">
<title>Node1&#45;&gt;Node28</title>
<g id="a_edge38_Node000001_Node000028"><a xlink:title=" ">
<path fill="none" stroke="#63b8ff" d="M830.68,-274.96C895.02,-266.66 995.09,-253.43 1091.47,-239.12"/>
<polygon fill="#63b8ff" stroke="#63b8ff" points="1092.01,-242.58 1101.38,-237.64 1090.98,-235.65 1092.01,-242.58"/>
</a>
</g>
</g>
<!-- Node3 -->
<g id="Node000003" class="node">
<title>Node3</title>
<g id="a_Node000003"><a xlink:href="Mesh_8h.html" target="_top" xlink:title=" ">
<polygon fill="white" stroke="#666666" points="415.5,-184 305.5,-184 305.5,-165 415.5,-165 415.5,-184"/>
<text text-anchor="middle" x="360.5" y="-172" font-family="Helvetica,sans-Serif" font-size="10.00">Application/Mesh.h</text>
</a>
</g>
</g>
<!-- Node2&#45;&gt;Node3 -->
<g id="edge2_Node000002_Node000003" class="edge">
<title>Node2&#45;&gt;Node3</title>
<g id="a_edge2_Node000002_Node000003"><a xlink:title=" ">
<path fill="none" stroke="#63b8ff" d="M519.13,-219.98C487.13,-211.01 436.54,-196.82 401.12,-186.89"/>
<polygon fill="#63b8ff" stroke="#63b8ff" points="401.68,-183.41 391.1,-184.08 399.79,-190.15 401.68,-183.41"/>
</a>
</g>
</g>
<!-- Node2&#45;&gt;Node9 -->
<g id="edge17_Node000002_Node000009" class="edge">
<title>Node2&#45;&gt;Node9</title>
<g id="a_edge17_Node000002_Node000009"><a xlink:title=" ">
<path fill="none" stroke="#63b8ff" d="M536.34,-219.93C519.37,-207.77 493.5,-184.81 506.5,-165 530.78,-128 615.55,-145.77 589.5,-110 571.47,-85.24 539.41,-73.97 510.73,-68.95"/>
<polygon fill="#63b8ff" stroke="#63b8ff" points="511.17,-65.48 500.75,-67.42 510.11,-72.4 511.17,-65.48"/>
</a>
</g>
</g>
<!-- Node13 -->
<g id="Node000013" class="node">
<title>Node13</title>
<g id="a_Node000013"><a xlink:title=" ">
<polygon fill="#e0e0e0" stroke="#999999" points="731.5,-19 681.5,-19 681.5,0 731.5,0 731.5,-19"/>
<text text-anchor="middle" x="706.5" y="-7" font-family="Helvetica,sans-Serif" font-size="10.00">cstdint</text>
</a>
</g>
</g>
<!-- Node2&#45;&gt;Node13 -->
<g id="edge18_Node000002_Node000013" class="edge">
<title>Node2&#45;&gt;Node13</title>
<g id="a_edge18_Node000002_Node000013"><a xlink:title=" ">
<path fill="none" stroke="#63b8ff" d="M624.58,-223.05C679.97,-217.29 748.66,-205.87 766.5,-184 805.89,-135.71 750.11,-59.97 721.56,-26.89"/>
<polygon fill="#63b8ff" stroke="#63b8ff" points="723.9,-24.25 714.64,-19.09 718.66,-28.89 723.9,-24.25"/>
</a>
</g>
</g>
<!-- Node17 -->
<g id="Node000017" class="node">
<title>Node17</title>
<g id="a_Node000017"><a xlink:title=" ">
<polygon fill="#e0e0e0" stroke="#999999" points="583.5,-184 515.5,-184 515.5,-165 583.5,-165 583.5,-184"/>
<text text-anchor="middle" x="549.5" y="-172" font-family="Helvetica,sans-Serif" font-size="10.00">filesystem</text>
</a>
</g>
</g>
<!-- Node2&#45;&gt;Node17 -->
<g id="edge19_Node000002_Node000017" class="edge">
<title>Node2&#45;&gt;Node17</title>
<g id="a_edge19_Node000002_Node000017"><a xlink:title=" ">
<path fill="none" stroke="#63b8ff" d="M549.5,-219.75C549.5,-212.8 549.5,-202.85 549.5,-194.13"/>
<polygon fill="#63b8ff" stroke="#63b8ff" points="553,-194.09 549.5,-184.09 546,-194.09 553,-194.09"/>
</a>
</g>
</g>
<!-- Node3&#45;&gt;Node4 -->
<g id="edge3_Node000003_Node000004" class="edge">
<title>Node3&#45;&gt;Node4</title>
<g id="a_edge3_Node000003_Node000004"><a xlink:title=" ">
<path fill="none" stroke="#63b8ff" d="M316.96,-164.98C269.69,-155.74 194.15,-140.97 143.22,-131.01"/>
<polygon fill="#63b8ff" stroke="#63b8ff" points="143.87,-127.57 133.38,-129.08 142.52,-134.44 143.87,-127.57"/>
</a>
</g>
</g>
<!-- Node8 -->
<g id="Node000008" class="node">
<title>Node8</title>
<g id="a_Node000008"><a xlink:href="Primitive_8h.html" target="_top" xlink:title=" ">
<polygon fill="white" stroke="#666666" points="515.5,-129 387.5,-129 387.5,-110 515.5,-110 515.5,-129"/>
<text text-anchor="middle" x="451.5" y="-117" font-family="Helvetica,sans-Serif" font-size="10.00">Application/Primitive.h</text>
</a>
</g>
</g>
<!-- Node3&#45;&gt;Node8 -->
<g id="edge7_Node000003_Node000008" class="edge">
<title>Node3&#45;&gt;Node8</title>
<g id="a_edge7_Node000003_Node000008"><a xlink:title=" ">
<path fill="none" stroke="#63b8ff" d="M375.12,-164.98C389.36,-156.69 411.25,-143.94 427.95,-134.22"/>
<polygon fill="#63b8ff" stroke="#63b8ff" points="429.73,-137.23 436.61,-129.17 426.21,-131.18 429.73,-137.23"/>
</a>
</g>
</g>
<!-- Node3&#45;&gt;Node9 -->
<g id="edge14_Node000003_Node000009" class="edge">
<title>Node3&#45;&gt;Node9</title>
<g id="a_edge14_Node000003_Node000009"><a xlink:title=" ">
<path fill="none" stroke="#63b8ff" d="M342.45,-164.95C320.1,-153.18 286.8,-131.07 302.5,-110 323.09,-82.36 360.21,-71.22 392.24,-67"/>
<polygon fill="#63b8ff" stroke="#63b8ff" points="392.89,-70.45 402.44,-65.86 392.11,-63.49 392.89,-70.45"/>
</a>
</g>
</g>
<!-- Node15 -->
<g id="Node000015" class="node">
<title>Node15</title>
<g id="a_Node000015"><a xlink:title=" ">
<polygon fill="#e0e0e0" stroke="#999999" points="369.5,-129 311.5,-129 311.5,-110 369.5,-110 369.5,-129"/>
<text text-anchor="middle" x="340.5" y="-117" font-family="Helvetica,sans-Serif" font-size="10.00">memory</text>
</a>
</g>
</g>
<!-- Node3&#45;&gt;Node15 -->
<g id="edge15_Node000003_Node000015" class="edge">
<title>Node3&#45;&gt;Node15</title>
<g id="a_edge15_Node000003_Node000015"><a xlink:title=" ">
<path fill="none" stroke="#63b8ff" d="M357.2,-164.75C354.52,-157.65 350.65,-147.4 347.31,-138.56"/>
<polygon fill="#63b8ff" stroke="#63b8ff" points="350.55,-137.21 343.74,-129.09 344,-139.68 350.55,-137.21"/>
</a>
</g>
</g>
<!-- Node16 -->
<g id="Node000016" class="node">
<title>Node16</title>
<g id="a_Node000016"><a xlink:title=" ">
<polygon fill="#e0e0e0" stroke="#999999" points="581,-129 534,-129 534,-110 581,-110 581,-129"/>
<text text-anchor="middle" x="557.5" y="-117" font-family="Helvetica,sans-Serif" font-size="10.00">vector</text>
</a>
</g>
</g>
<!-- Node3&#45;&gt;Node16 -->
<g id="edge16_Node000003_Node000016" class="edge">
<title>Node3&#45;&gt;Node16</title>
<g id="a_edge16_Node000003_Node000016"><a xlink:title=" ">
<path fill="none" stroke="#63b8ff" d="M392.15,-164.98C428.34,-155.25 487.32,-139.38 524.19,-129.46"/>
<polygon fill="#63b8ff" stroke="#63b8ff" points="525.22,-132.81 533.96,-126.83 523.4,-126.05 525.22,-132.81"/>
</a>
</g>
</g>
<!-- Node5 -->
<g id="Node000005" class="node">
<title>Node5</title>
<g id="a_Node000005"><a xlink:title=" ">
<polygon fill="#e0e0e0" stroke="#999999" points="39,-74 4,-74 4,-55 39,-55 39,-74"/>
<text text-anchor="middle" x="21.5" y="-62" font-family="Helvetica,sans-Serif" font-size="10.00">any</text>
</a>
</g>
</g>
<!-- Node4&#45;&gt;Node5 -->
<g id="edge4_Node000004_Node000005" class="edge">
<title>Node4&#45;&gt;Node5</title>
<g id="a_edge4_Node000004_Node000005"><a xlink:title=" ">
<path fill="none" stroke="#63b8ff" d="M78.57,-109.98C68.42,-102.07 53.08,-90.11 40.85,-80.58"/>
<polygon fill="#63b8ff" stroke="#63b8ff" points="42.66,-77.56 32.62,-74.17 38.36,-83.08 42.66,-77.56"/>
</a>
</g>
</g>
<!-- Node6 -->
<g id="Node000006" class="node">
<title>Node6</title>
<g id="a_Node000006"><a xlink:title=" ">
<polygon fill="#e0e0e0" stroke="#999999" points="122,-74 57,-74 57,-55 122,-55 122,-74"/>
<text text-anchor="middle" x="89.5" y="-62" font-family="Helvetica,sans-Serif" font-size="10.00">typeindex</text>
</a>
</g>
</g>
<!-- Node4&#45;&gt;Node6 -->
<g id="edge5_Node000004_Node000006" class="edge">
<title>Node4&#45;&gt;Node6</title>
<g id="a_edge5_Node000004_Node000006"><a xlink:title=" ">
<path fill="none" stroke="#63b8ff" d="M89.5,-109.75C89.5,-102.8 89.5,-92.85 89.5,-84.13"/>
<polygon fill="#63b8ff" stroke="#63b8ff" points="93,-84.09 89.5,-74.09 86,-84.09 93,-84.09"/>
</a>
</g>
</g>
<!-- Node7 -->
<g id="Node000007" class="node">
<title>Node7</title>
<g id="a_Node000007"><a xlink:title=" ">
<polygon fill="#e0e0e0" stroke="#999999" points="233,-74 140,-74 140,-55 233,-55 233,-74"/>
<text text-anchor="middle" x="186.5" y="-62" font-family="Helvetica,sans-Serif" font-size="10.00">unordered_map</text>
</a>
</g>
</g>
<!-- Node4&#45;&gt;Node7 -->
<g id="edge6_Node000004_Node000007" class="edge">
<title>Node4&#45;&gt;Node7</title>
<g id="a_edge6_Node000004_Node000007"><a xlink:title=" ">
<path fill="none" stroke="#63b8ff" d="M105.08,-109.98C120.27,-101.69 143.6,-88.94 161.4,-79.22"/>
<polygon fill="#63b8ff" stroke="#63b8ff" points="163.53,-82.04 170.63,-74.17 160.18,-75.89 163.53,-82.04"/>
</a>
</g>
</g>
<!-- Node8&#45;&gt;Node9 -->
<g id="edge8_Node000008_Node000009" class="edge">
<title>Node8&#45;&gt;Node9</title>
<g id="a_edge8_Node000008_Node000009"><a xlink:title=" ">
<path fill="none" stroke="#63b8ff" d="M451.5,-109.75C451.5,-102.8 451.5,-92.85 451.5,-84.13"/>
<polygon fill="#63b8ff" stroke="#63b8ff" points="455,-84.09 451.5,-74.09 448,-84.09 455,-84.09"/>
</a>
</g>
</g>
<!-- Node14 -->
<g id="Node000014" class="node">
<title>Node14</title>
<g id="a_Node000014"><a xlink:title=" ">
<polygon fill="#e0e0e0" stroke="#999999" points="633.5,-74 591.5,-74 591.5,-55 633.5,-55 633.5,-74"/>
<text text-anchor="middle" x="612.5" y="-62" font-family="Helvetica,sans-Serif" font-size="10.00">array</text>
</a>
</g>
</g>
<!-- Node8&#45;&gt;Node14 -->
<g id="edge13_Node000008_Node000014" class="edge">
<title>Node8&#45;&gt;Node14</title>
<g id="a_edge13_Node000008_Node000014"><a xlink:title=" ">
<path fill="none" stroke="#63b8ff" d="M477.37,-109.98C505.8,-100.63 551.44,-85.6 581.7,-75.64"/>
<polygon fill="#63b8ff" stroke="#63b8ff" points="582.92,-78.92 591.32,-72.47 580.73,-72.27 582.92,-78.92"/>
</a>
</g>
</g>
<!-- Node10 -->
<g id="Node000010" class="node">
<title>Node10</title>
<g id="a_Node000010"><a xlink:title=" ">
<polygon fill="#e0e0e0" stroke="#999999" points="362.5,-19 284.5,-19 284.5,0 362.5,0 362.5,-19"/>
<text text-anchor="middle" x="323.5" y="-7" font-family="Helvetica,sans-Serif" font-size="10.00">glm/glm.hpp</text>
</a>
</g>
</g>
<!-- Node9&#45;&gt;Node10 -->
<g id="edge9_Node000009_Node000010" class="edge">
<title>Node9&#45;&gt;Node10</title>
<g id="a_edge9_Node000009_Node000010"><a xlink:title=" ">
<path fill="none" stroke="#63b8ff" d="M430.93,-54.98C410.07,-46.34 377.53,-32.87 353.73,-23.02"/>
<polygon fill="#63b8ff" stroke="#63b8ff" points="355.02,-19.76 344.44,-19.17 352.34,-26.23 355.02,-19.76"/>
</a>
</g>
</g>
<!-- Node11 -->
<g id="Node000011" class="node">
<title>Node11</title>
<g id="a_Node000011"><a xlink:title=" ">
<polygon fill="#e0e0e0" stroke="#999999" points="522,-19 381,-19 381,0 522,0 522,-19"/>
<text text-anchor="middle" x="451.5" y="-7" font-family="Helvetica,sans-Serif" font-size="10.00">glm/gtx/vector_angle.hpp</text>
</a>
</g>
</g>
<!-- Node9&#45;&gt;Node11 -->
<g id="edge10_Node000009_Node000011" class="edge">
<title>Node9&#45;&gt;Node11</title>
<g id="a_edge10_Node000009_Node000011"><a xlink:title=" ">
<path fill="none" stroke="#63b8ff" d="M451.5,-54.75C451.5,-47.8 451.5,-37.85 451.5,-29.13"/>
<polygon fill="#63b8ff" stroke="#63b8ff" points="455,-29.09 451.5,-19.09 448,-29.09 455,-29.09"/>
</a>
</g>
</g>
<!-- Node12 -->
<g id="Node000012" class="node">
<title>Node12</title>
<g id="a_Node000012"><a xlink:title=" ">
<polygon fill="#e0e0e0" stroke="#999999" points="584.5,-19 540.5,-19 540.5,0 584.5,0 584.5,-19"/>
<text text-anchor="middle" x="562.5" y="-7" font-family="Helvetica,sans-Serif" font-size="10.00">bitset</text>
</a>
</g>
</g>
<!-- Node9&#45;&gt;Node12 -->
<g id="edge11_Node000009_Node000012" class="edge">
<title>Node9&#45;&gt;Node12</title>
<g id="a_edge11_Node000009_Node000012"><a xlink:title=" ">
<path fill="none" stroke="#63b8ff" d="M469.33,-54.98C487.11,-46.5 514.65,-33.35 535.18,-23.54"/>
<polygon fill="#63b8ff" stroke="#63b8ff" points="536.83,-26.64 544.34,-19.17 533.81,-20.32 536.83,-26.64"/>
</a>
</g>
</g>
<!-- Node9&#45;&gt;Node13 -->
<g id="edge12_Node000009_Node000013" class="edge">
<title>Node9&#45;&gt;Node13</title>
<g id="a_edge12_Node000009_Node000013"><a xlink:title=" ">
<path fill="none" stroke="#63b8ff" d="M492.47,-54.98C542.08,-44.67 624.77,-27.49 671.52,-17.77"/>
<polygon fill="#63b8ff" stroke="#63b8ff" points="672.4,-21.16 681.48,-15.7 670.97,-14.31 672.4,-21.16"/>
</a>
</g>
</g>
<!-- Node18&#45;&gt;Node9 -->
<g id="edge22_Node000018_Node000009" class="edge">
<title>Node18&#45;&gt;Node9</title>
<g id="a_edge22_Node000018_Node000009"><a xlink:title=" ">
<path fill="none" stroke="#63b8ff" d="M674.17,-164.61C665.39,-150.76 646.55,-124.15 623.5,-110 589.41,-89.07 545.71,-77.92 510.89,-72.02"/>
<polygon fill="#63b8ff" stroke="#63b8ff" points="511.29,-68.54 500.86,-70.42 510.19,-75.45 511.29,-68.54"/>
</a>
</g>
</g>
<!-- Node18&#45;&gt;Node14 -->
<g id="edge23_Node000018_Node000014" class="edge">
<title>Node18&#45;&gt;Node14</title>
<g id="a_edge23_Node000018_Node000014"><a xlink:title=" ">
<path fill="none" stroke="#63b8ff" d="M678.56,-164.67C676.85,-151.8 672.37,-127.53 661.5,-110 654.38,-98.52 643.47,-88.2 633.75,-80.39"/>
<polygon fill="#63b8ff" stroke="#63b8ff" points="635.71,-77.49 625.63,-74.21 631.47,-83.06 635.71,-77.49"/>
</a>
</g>
</g>
<!-- Node18&#45;&gt;Node16 -->
<g id="edge25_Node000018_Node000016" class="edge">
<title>Node18&#45;&gt;Node16</title>
<g id="a_edge25_Node000018_Node000016"><a xlink:title=" ">
<path fill="none" stroke="#63b8ff" d="M659.9,-164.98C640.18,-156.42 609.55,-143.11 586.92,-133.28"/>
<polygon fill="#63b8ff" stroke="#63b8ff" points="588.02,-129.94 577.46,-129.17 585.24,-136.37 588.02,-129.94"/>
</a>
</g>
</g>
<!-- Node19 -->
<g id="Node000019" class="node">
<title>Node19</title>
<g id="a_Node000019"><a xlink:title=" ">
<polygon fill="#e0e0e0" stroke="#999999" points="757.5,-129 713.5,-129 713.5,-110 757.5,-110 757.5,-129"/>
<text text-anchor="middle" x="735.5" y="-117" font-family="Helvetica,sans-Serif" font-size="10.00">string</text>
</a>
</g>
</g>
<!-- Node18&#45;&gt;Node19 -->
<g id="edge24_Node000018_Node000019" class="edge">
<title>Node18&#45;&gt;Node19</title>
<g id="a_edge24_Node000018_Node000019"><a xlink:title=" ">
<path fill="none" stroke="#63b8ff" d="M688.5,-164.98C696.69,-157.23 709.01,-145.58 718.97,-136.14"/>
<polygon fill="#63b8ff" stroke="#63b8ff" points="721.48,-138.59 726.34,-129.17 716.67,-133.5 721.48,-138.59"/>
</a>
</g>
</g>
<!-- Node20&#45;&gt;Node3 -->
<g id="edge27_Node000020_Node000003" class="edge">
<title>Node20&#45;&gt;Node3</title>
<g id="a_edge27_Node000020_Node000003"><a xlink:title=" ">
<path fill="none" stroke="#63b8ff" d="M360.5,-219.75C360.5,-212.8 360.5,-202.85 360.5,-194.13"/>
<polygon fill="#63b8ff" stroke="#63b8ff" points="364,-194.09 360.5,-184.09 357,-194.09 364,-194.09"/>
</a>
</g>
</g>
<!-- Node20&#45;&gt;Node9 -->
<g id="edge28_Node000020_Node000009" class="edge">
<title>Node20&#45;&gt;Node9</title>
<g id="a_edge28_Node000020_Node000009"><a xlink:title=" ">
<path fill="none" stroke="#63b8ff" d="M339.21,-219.92C324.39,-212.71 305.71,-200.87 296.5,-184 280.73,-155.12 274.66,-136.25 294.5,-110 306.56,-94.04 353.09,-82.15 392.38,-74.69"/>
<polygon fill="#63b8ff" stroke="#63b8ff" points="393.25,-78.09 402.45,-72.85 391.99,-71.21 393.25,-78.09"/>
</a>
</g>
</g>
<!-- Node22 -->
<g id="Node000022" class="node">
<title>Node22</title>
<g id="a_Node000022"><a xlink:title=" ">
<polygon fill="#e0e0e0" stroke="#999999" points="975.5,-184 925.5,-184 925.5,-165 975.5,-165 975.5,-184"/>
<text text-anchor="middle" x="950.5" y="-172" font-family="Helvetica,sans-Serif" font-size="10.00">format</text>
</a>
</g>
</g>
<!-- Node21&#45;&gt;Node22 -->
<g id="edge31_Node000021_Node000022" class="edge">
<title>Node21&#45;&gt;Node22</title>
<g id="a_edge31_Node000021_Node000022"><a xlink:title=" ">
<path fill="none" stroke="#63b8ff" d="M793.54,-219.98C826.81,-210.56 880.36,-195.38 915.5,-185.42"/>
<polygon fill="#63b8ff" stroke="#63b8ff" points="916.66,-188.73 925.33,-182.63 914.75,-181.99 916.66,-188.73"/>
</a>
</g>
</g>
<!-- Node21&#45;&gt;Node23 -->
<g id="edge32_Node000021_Node000023" class="edge">
<title>Node21&#45;&gt;Node23</title>
<g id="a_edge32_Node000021_Node000023"><a xlink:title=" ">
<path fill="none" stroke="#63b8ff" d="M807.15,-219.92C849.67,-211.52 916.4,-198.21 983.39,-184.21"/>
<polygon fill="#63b8ff" stroke="#63b8ff" points="984.21,-187.61 993.28,-182.14 982.77,-180.76 984.21,-187.61"/>
</a>
</g>
</g>
<!-- Node24 -->
<g id="Node000024" class="node">
<title>Node24</title>
<g id="a_Node000024"><a xlink:title=" ">
<polygon fill="#e0e0e0" stroke="#999999" points="907,-184 814,-184 814,-165 907,-165 907,-184"/>
<text text-anchor="middle" x="860.5" y="-172" font-family="Helvetica,sans-Serif" font-size="10.00">source_location</text>
</a>
</g>
</g>
<!-- Node21&#45;&gt;Node24 -->
<g id="edge33_Node000021_Node000024" class="edge">
<title>Node21&#45;&gt;Node24</title>
<g id="a_edge33_Node000021_Node000024"><a xlink:title=" ">
<path fill="none" stroke="#63b8ff" d="M779.08,-219.98C794.27,-211.69 817.6,-198.94 835.4,-189.22"/>
<polygon fill="#63b8ff" stroke="#63b8ff" points="837.53,-192.04 844.63,-184.17 834.18,-185.89 837.53,-192.04"/>
</a>
</g>
</g>
</g>
</svg>
