<?xml version="1.0" encoding="UTF-8" standalone="no"?>
<!DOCTYPE svg PUBLIC "-//W3C//DTD SVG 1.1//EN"
 "http://www.w3.org/Graphics/SVG/1.1/DTD/svg11.dtd">
<!-- Generated by graphviz version 2.43.0 (0)
 -->
<!-- Title: App/Test/Source/Mesh_utest.cpp Pages: 1 -->
<svg width="997pt" height="368pt"
 viewBox="0.00 0.00 997.27 368.00" xmlns="http://www.w3.org/2000/svg" xmlns:xlink="http://www.w3.org/1999/xlink">
<g id="graph0" class="graph" transform="scale(1 1) rotate(0) translate(4 364)">
<title>App/Test/Source/Mesh_utest.cpp</title>
<!-- Node1 -->
<g id="Node000001" class="node">
<title>Node1</title>
<g id="a_Node000001"><a xlink:title=" ">
<polygon fill="#999999" stroke="#666666" points="579.77,-360 456.77,-360 456.77,-330 579.77,-330 579.77,-360"/>
<text text-anchor="start" x="464.77" y="-348" font-family="Helvetica,sans-Serif" font-size="10.00">App/Test/Source/Mesh</text>
<text text-anchor="middle" x="518.27" y="-337" font-family="Helvetica,sans-Serif" font-size="10.00">_utest.cpp</text>
</a>
</g>
</g>
<!-- Node2 -->
<g id="Node000002" class="node">
<title>Node2</title>
<g id="a_Node000002"><a xlink:href="ExtraDataType_8h.html" target="_top" xlink:title=" ">
<polygon fill="white" stroke="#666666" points="722.77,-184 567.77,-184 567.77,-165 722.77,-165 722.77,-184"/>
<text text-anchor="middle" x="645.27" y="-172" font-family="Helvetica,sans-Serif" font-size="10.00">Application/ExtraDataType.h</text>
</a>
</g>
</g>
<!-- Node1&#45;&gt;Node2 -->
<g id="edge1_Node000001_Node000002" class="edge">
<title>Node1&#45;&gt;Node2</title>
<g id="a_edge1_Node000001_Node000002"><a xlink:title=" ">
<path fill="none" stroke="#63b8ff" d="M580.07,-339.46C657.36,-332.83 784.39,-318.56 824.27,-294 850.01,-278.15 854.92,-267.74 864.27,-239 866.88,-230.97 869.61,-226.54 864.27,-220 847.55,-199.54 786.61,-188.25 733.25,-182.17"/>
<polygon fill="#63b8ff" stroke="#63b8ff" points="733.37,-178.66 723.05,-181.06 732.61,-185.62 733.37,-178.66"/>
</a>
</g>
</g>
<!-- Node10 -->
<g id="Node000010" class="node">
<title>Node10</title>
<g id="a_Node000010"><a xlink:href="MathUtils_8h.html" target="_top" xlink:title=" ">
<polygon fill="white" stroke="#666666" points="814.77,-294 683.77,-294 683.77,-275 814.77,-275 814.77,-294"/>
<text text-anchor="middle" x="749.27" y="-282" font-family="Helvetica,sans-Serif" font-size="10.00">Application/MathUtils.h</text>
</a>
</g>
</g>
<!-- Node1&#45;&gt;Node10 -->
<g id="edge9_Node000001_Node000010" class="edge">
<title>Node1&#45;&gt;Node10</title>
<g id="a_edge9_Node000001_Node000010"><a xlink:title=" ">
<path fill="none" stroke="#63b8ff" d="M573.6,-329.99C613.98,-319.76 667.98,-306.09 705.41,-296.61"/>
<polygon fill="#63b8ff" stroke="#63b8ff" points="706.66,-299.9 715.5,-294.05 704.94,-293.12 706.66,-299.9"/>
</a>
</g>
</g>
<!-- Node13 -->
<g id="Node000013" class="node">
<title>Node13</title>
<g id="a_Node000013"><a xlink:href="Mesh_8h.html" target="_top" xlink:title=" ">
<polygon fill="white" stroke="#666666" points="434.27,-184 324.27,-184 324.27,-165 434.27,-165 434.27,-184"/>
<text text-anchor="middle" x="379.27" y="-172" font-family="Helvetica,sans-Serif" font-size="10.00">Application/Mesh.h</text>
</a>
</g>
</g>
<!-- Node1&#45;&gt;Node13 -->
<g id="edge13_Node000001_Node000013" class="edge">
<title>Node1&#45;&gt;Node13</title>
<g id="a_edge13_Node000001_Node000013"><a xlink:title=" ">
<path fill="none" stroke="#63b8ff" d="M504.66,-329.85C485.87,-310.09 451.28,-272.85 424.27,-239 412.2,-223.87 399.55,-205.79 390.75,-192.8"/>
<polygon fill="#63b8ff" stroke="#63b8ff" points="393.56,-190.71 385.08,-184.36 387.75,-194.61 393.56,-190.71"/>
</a>
</g>
</g>
<!-- Node20 -->
<g id="Node000020" class="node">
<title>Node20</title>
<g id="a_Node000020"><a xlink:href="MeshIntegrity_8h.html" target="_top" xlink:title=" ">
<polygon fill="white" stroke="#666666" points="245.77,-239 96.77,-239 96.77,-220 245.77,-220 245.77,-239"/>
<text text-anchor="middle" x="171.27" y="-227" font-family="Helvetica,sans-Serif" font-size="10.00">Application/MeshIntegrity.h</text>
</a>
</g>
</g>
<!-- Node1&#45;&gt;Node20 -->
<g id="edge24_Node000001_Node000020" class="edge">
<title>Node1&#45;&gt;Node20</title>
<g id="a_edge24_Node000001_Node000020"><a xlink:title=" ">
<path fill="none" stroke="#63b8ff" d="M456.73,-339.19C380.89,-332.34 257.28,-317.88 218.27,-294 200.59,-283.18 187.41,-263 179.57,-248.29"/>
<polygon fill="#63b8ff" stroke="#63b8ff" points="182.61,-246.54 175.01,-239.16 176.35,-249.67 182.61,-246.54"/>
</a>
</g>
</g>
<!-- Node21 -->
<g id="Node000021" class="node">
<title>Node21</title>
<g id="a_Node000021"><a xlink:href="MeshLoader_8h.html" target="_top" xlink:title=" ">
<polygon fill="white" stroke="#666666" points="369.27,-294 227.27,-294 227.27,-275 369.27,-275 369.27,-294"/>
<text text-anchor="middle" x="298.27" y="-282" font-family="Helvetica,sans-Serif" font-size="10.00">Application/MeshLoader.h</text>
</a>
</g>
</g>
<!-- Node1&#45;&gt;Node21 -->
<g id="edge27_Node000001_Node000021" class="edge">
<title>Node1&#45;&gt;Node21</title>
<g id="a_edge27_Node000001_Node000021"><a xlink:title=" ">
<path fill="none" stroke="#63b8ff" d="M465.58,-329.99C427.28,-319.8 376.13,-306.2 340.51,-296.73"/>
<polygon fill="#63b8ff" stroke="#63b8ff" points="341,-293.24 330.44,-294.05 339.2,-300.01 341,-293.24"/>
</a>
</g>
</g>
<!-- Node23 -->
<g id="Node000023" class="node">
<title>Node23</title>
<g id="a_Node000023"><a xlink:href="PrimitiveProxy_8h.html" target="_top" xlink:title=" ">
<polygon fill="white" stroke="#666666" points="617.27,-239 463.27,-239 463.27,-220 617.27,-220 617.27,-239"/>
<text text-anchor="middle" x="540.27" y="-227" font-family="Helvetica,sans-Serif" font-size="10.00">Application/PrimitiveProxy.h</text>
</a>
</g>
</g>
<!-- Node1&#45;&gt;Node23 -->
<g id="edge30_Node000001_Node000023" class="edge">
<title>Node1&#45;&gt;Node23</title>
<g id="a_edge30_Node000001_Node000023"><a xlink:title=" ">
<path fill="none" stroke="#63b8ff" d="M504.87,-329.91C493.26,-315.91 479.59,-293.87 488.27,-275 494.02,-262.52 505.18,-252.24 515.7,-244.71"/>
<polygon fill="#63b8ff" stroke="#63b8ff" points="517.84,-247.49 524.24,-239.05 513.97,-241.65 517.84,-247.49"/>
</a>
</g>
</g>
<!-- Node24 -->
<g id="Node000024" class="node">
<title>Node24</title>
<g id="a_Node000024"><a xlink:href="TestHelpers_8h.html" target="_top" xlink:title=" ">
<polygon fill="white" stroke="#666666" points="637.27,-294 497.27,-294 497.27,-275 637.27,-275 637.27,-294"/>
<text text-anchor="middle" x="567.27" y="-282" font-family="Helvetica,sans-Serif" font-size="10.00">Application/TestHelpers.h</text>
</a>
</g>
</g>
<!-- Node1&#45;&gt;Node24 -->
<g id="edge33_Node000001_Node000024" class="edge">
<title>Node1&#45;&gt;Node24</title>
<g id="a_edge33_Node000001_Node000024"><a xlink:title=" ">
<path fill="none" stroke="#63b8ff" d="M530.13,-329.84C537.17,-321.43 546.13,-310.74 553.48,-301.96"/>
<polygon fill="#63b8ff" stroke="#63b8ff" points="556.19,-304.18 559.93,-294.27 550.82,-299.68 556.19,-304.18"/>
</a>
</g>
</g>
<!-- Node25 -->
<g id="Node000025" class="node">
<title>Node25</title>
<g id="a_Node000025"><a xlink:title=" ">
<polygon fill="#e0e0e0" stroke="#999999" points="989.27,-294 911.27,-294 911.27,-275 989.27,-275 989.27,-294"/>
<text text-anchor="middle" x="950.27" y="-282" font-family="Helvetica,sans-Serif" font-size="10.00">gtest/gtest.h</text>
</a>
</g>
</g>
<!-- Node1&#45;&gt;Node25 -->
<g id="edge37_Node000001_Node000025" class="edge">
<title>Node1&#45;&gt;Node25</title>
<g id="a_edge37_Node000001_Node000025"><a xlink:title=" ">
<path fill="none" stroke="#63b8ff" d="M580.05,-336.39C655.13,-327.01 785.63,-310.31 897.27,-294 898.54,-293.81 899.83,-293.62 901.13,-293.43"/>
<polygon fill="#63b8ff" stroke="#63b8ff" points="901.86,-296.86 911.22,-291.89 900.8,-289.94 901.86,-296.86"/>
</a>
</g>
</g>
<!-- Node3 -->
<g id="Node000003" class="node">
<title>Node3</title>
<g id="a_Node000003"><a xlink:href="BaseType_8h.html" target="_top" xlink:title=" ">
<polygon fill="white" stroke="#666666" points="627.27,-74 497.27,-74 497.27,-55 627.27,-55 627.27,-74"/>
<text text-anchor="middle" x="562.27" y="-62" font-family="Helvetica,sans-Serif" font-size="10.00">Application/BaseType.h</text>
</a>
</g>
</g>
<!-- Node2&#45;&gt;Node3 -->
<g id="edge2_Node000002_Node000003" class="edge">
<title>Node2&#45;&gt;Node3</title>
<g id="a_edge2_Node000002_Node000003"><a xlink:title=" ">
<path fill="none" stroke="#63b8ff" d="M655.14,-164.85C668.34,-152.22 688.73,-128.23 676.27,-110 665.3,-93.94 647.6,-83.68 629.38,-77.12"/>
<polygon fill="#63b8ff" stroke="#63b8ff" points="630.43,-73.78 619.84,-74.01 628.27,-80.43 630.43,-73.78"/>
</a>
</g>
</g>
<!-- Node7 -->
<g id="Node000007" class="node">
<title>Node7</title>
<g id="a_Node000007"><a xlink:title=" ">
<polygon fill="#e0e0e0" stroke="#999999" points="414.27,-74 372.27,-74 372.27,-55 414.27,-55 414.27,-74"/>
<text text-anchor="middle" x="393.27" y="-62" font-family="Helvetica,sans-Serif" font-size="10.00">array</text>
</a>
</g>
</g>
<!-- Node2&#45;&gt;Node7 -->
<g id="edge6_Node000002_Node000007" class="edge">
<title>Node2&#45;&gt;Node7</title>
<g id="a_edge6_Node000002_Node000007"><a xlink:title=" ">
<path fill="none" stroke="#63b8ff" d="M632.82,-164.87C613.23,-151.61 573.69,-126.07 537.27,-110 499.58,-93.37 453.79,-80.36 424.11,-72.81"/>
<polygon fill="#63b8ff" stroke="#63b8ff" points="424.88,-69.4 414.33,-70.37 423.18,-76.19 424.88,-69.4"/>
</a>
</g>
</g>
<!-- Node8 -->
<g id="Node000008" class="node">
<title>Node8</title>
<g id="a_Node000008"><a xlink:title=" ">
<polygon fill="#e0e0e0" stroke="#999999" points="667.27,-129 623.27,-129 623.27,-110 667.27,-110 667.27,-129"/>
<text text-anchor="middle" x="645.27" y="-117" font-family="Helvetica,sans-Serif" font-size="10.00">string</text>
</a>
</g>
</g>
<!-- Node2&#45;&gt;Node8 -->
<g id="edge7_Node000002_Node000008" class="edge">
<title>Node2&#45;&gt;Node8</title>
<g id="a_edge7_Node000002_Node000008"><a xlink:title=" ">
<path fill="none" stroke="#63b8ff" d="M645.27,-164.75C645.27,-157.8 645.27,-147.85 645.27,-139.13"/>
<polygon fill="#63b8ff" stroke="#63b8ff" points="648.77,-139.09 645.27,-129.09 641.77,-139.09 648.77,-139.09"/>
</a>
</g>
</g>
<!-- Node9 -->
<g id="Node000009" class="node">
<title>Node9</title>
<g id="a_Node000009"><a xlink:title=" ">
<polygon fill="#e0e0e0" stroke="#999999" points="528.77,-129 481.77,-129 481.77,-110 528.77,-110 528.77,-129"/>
<text text-anchor="middle" x="505.27" y="-117" font-family="Helvetica,sans-Serif" font-size="10.00">vector</text>
</a>
</g>
</g>
<!-- Node2&#45;&gt;Node9 -->
<g id="edge8_Node000002_Node000009" class="edge">
<title>Node2&#45;&gt;Node9</title>
<g id="a_edge8_Node000002_Node000009"><a xlink:title=" ">
<path fill="none" stroke="#63b8ff" d="M622.78,-164.98C599.75,-156.27 563.73,-142.63 537.64,-132.75"/>
<polygon fill="#63b8ff" stroke="#63b8ff" points="538.77,-129.44 528.17,-129.17 536.29,-135.98 538.77,-129.44"/>
</a>
</g>
</g>
<!-- Node4 -->
<g id="Node000004" class="node">
<title>Node4</title>
<g id="a_Node000004"><a xlink:title=" ">
<polygon fill="#e0e0e0" stroke="#999999" points="561.27,-19 483.27,-19 483.27,0 561.27,0 561.27,-19"/>
<text text-anchor="middle" x="522.27" y="-7" font-family="Helvetica,sans-Serif" font-size="10.00">glm/glm.hpp</text>
</a>
</g>
</g>
<!-- Node3&#45;&gt;Node4 -->
<g id="edge3_Node000003_Node000004" class="edge">
<title>Node3&#45;&gt;Node4</title>
<g id="a_edge3_Node000003_Node000004"><a xlink:title=" ">
<path fill="none" stroke="#63b8ff" d="M555.67,-54.75C550.02,-47.26 541.73,-36.28 534.82,-27.13"/>
<polygon fill="#63b8ff" stroke="#63b8ff" points="537.57,-24.96 528.75,-19.09 531.98,-29.18 537.57,-24.96"/>
</a>
</g>
</g>
<!-- Node5 -->
<g id="Node000005" class="node">
<title>Node5</title>
<g id="a_Node000005"><a xlink:title=" ">
<polygon fill="#e0e0e0" stroke="#999999" points="623.27,-19 579.27,-19 579.27,0 623.27,0 623.27,-19"/>
<text text-anchor="middle" x="601.27" y="-7" font-family="Helvetica,sans-Serif" font-size="10.00">bitset</text>
</a>
</g>
</g>
<!-- Node3&#45;&gt;Node5 -->
<g id="edge4_Node000003_Node000005" class="edge">
<title>Node3&#45;&gt;Node5</title>
<g id="a_edge4_Node000003_Node000005"><a xlink:title=" ">
<path fill="none" stroke="#63b8ff" d="M568.71,-54.75C574.16,-47.34 582.14,-36.5 588.83,-27.41"/>
<polygon fill="#63b8ff" stroke="#63b8ff" points="591.84,-29.22 594.95,-19.09 586.2,-25.07 591.84,-29.22"/>
</a>
</g>
</g>
<!-- Node6 -->
<g id="Node000006" class="node">
<title>Node6</title>
<g id="a_Node000006"><a xlink:title=" ">
<polygon fill="#e0e0e0" stroke="#999999" points="311.27,-19 261.27,-19 261.27,0 311.27,0 311.27,-19"/>
<text text-anchor="middle" x="286.27" y="-7" font-family="Helvetica,sans-Serif" font-size="10.00">cstdint</text>
</a>
</g>
</g>
<!-- Node3&#45;&gt;Node6 -->
<g id="edge5_Node000003_Node000006" class="edge">
<title>Node3&#45;&gt;Node6</title>
<g id="a_edge5_Node000003_Node000006"><a xlink:title=" ">
<path fill="none" stroke="#63b8ff" d="M517.93,-54.98C463.3,-44.49 371.6,-26.88 321.52,-17.27"/>
<polygon fill="#63b8ff" stroke="#63b8ff" points="321.98,-13.79 311.5,-15.34 320.66,-20.67 321.98,-13.79"/>
</a>
</g>
</g>
<!-- Node10&#45;&gt;Node3 -->
<g id="edge10_Node000010_Node000003" class="edge">
<title>Node10&#45;&gt;Node3</title>
<g id="a_edge10_Node000010_Node000003"><a xlink:title=" ">
<path fill="none" stroke="#63b8ff" d="M746.11,-274.77C743.04,-265.89 738.52,-251.68 736.27,-239 730.5,-206.54 742.33,-196.05 731.27,-165 721.22,-136.77 716.27,-127.94 692.27,-110 670.78,-93.93 643.07,-83.39 618.76,-76.63"/>
<polygon fill="#63b8ff" stroke="#63b8ff" points="619.49,-73.2 608.93,-74.04 617.71,-79.97 619.49,-73.2"/>
</a>
</g>
</g>
<!-- Node11 -->
<g id="Node000011" class="node">
<title>Node11</title>
<g id="a_Node000011"><a xlink:title=" ">
<polygon fill="#e0e0e0" stroke="#999999" points="792.77,-239 745.77,-239 745.77,-220 792.77,-220 792.77,-239"/>
<text text-anchor="middle" x="769.27" y="-227" font-family="Helvetica,sans-Serif" font-size="10.00">cmath</text>
</a>
</g>
</g>
<!-- Node10&#45;&gt;Node11 -->
<g id="edge11_Node000010_Node000011" class="edge">
<title>Node10&#45;&gt;Node11</title>
<g id="a_edge11_Node000010_Node000011"><a xlink:title=" ">
<path fill="none" stroke="#63b8ff" d="M752.57,-274.75C755.25,-267.65 759.12,-257.4 762.46,-248.56"/>
<polygon fill="#63b8ff" stroke="#63b8ff" points="765.77,-249.68 766.03,-239.09 759.22,-247.21 765.77,-249.68"/>
</a>
</g>
</g>
<!-- Node12 -->
<g id="Node000012" class="node">
<title>Node12</title>
<g id="a_Node000012"><a xlink:title=" ">
<polygon fill="#e0e0e0" stroke="#999999" points="855.27,-239 811.27,-239 811.27,-220 855.27,-220 855.27,-239"/>
<text text-anchor="middle" x="833.27" y="-227" font-family="Helvetica,sans-Serif" font-size="10.00">limits</text>
</a>
</g>
</g>
<!-- Node10&#45;&gt;Node12 -->
<g id="edge12_Node000010_Node000012" class="edge">
<title>Node10&#45;&gt;Node12</title>
<g id="a_edge12_Node000010_Node000012"><a xlink:title=" ">
<path fill="none" stroke="#63b8ff" d="M762.77,-274.98C775.67,-266.84 795.37,-254.41 810.67,-244.76"/>
<polygon fill="#63b8ff" stroke="#63b8ff" points="812.94,-247.47 819.53,-239.17 809.2,-241.55 812.94,-247.47"/>
</a>
</g>
</g>
<!-- Node13&#45;&gt;Node3 -->
<g id="edge14_Node000013_Node000003" class="edge">
<title>Node13&#45;&gt;Node3</title>
<g id="a_edge14_Node000013_Node000003"><a xlink:title=" ">
<path fill="none" stroke="#63b8ff" d="M390.68,-164.94C407.88,-152.21 441.72,-127.86 472.27,-110 492.2,-98.34 515.61,-86.84 533.55,-78.44"/>
<polygon fill="#63b8ff" stroke="#63b8ff" points="535.29,-81.49 542.9,-74.12 532.36,-75.14 535.29,-81.49"/>
</a>
</g>
</g>
<!-- Node13&#45;&gt;Node9 -->
<g id="edge23_Node000013_Node000009" class="edge">
<title>Node13&#45;&gt;Node9</title>
<g id="a_edge23_Node000013_Node000009"><a xlink:title=" ">
<path fill="none" stroke="#63b8ff" d="M399.52,-164.98C419.97,-156.38 451.8,-142.99 475.2,-133.15"/>
<polygon fill="#63b8ff" stroke="#63b8ff" points="476.8,-136.27 484.66,-129.17 474.08,-129.82 476.8,-136.27"/>
</a>
</g>
</g>
<!-- Node14 -->
<g id="Node000014" class="node">
<title>Node14</title>
<g id="a_Node000014"><a xlink:href="ExtraDataContainer_8h.html" target="_top" xlink:title=" ">
<polygon fill="white" stroke="#666666" points="202.77,-129 23.77,-129 23.77,-110 202.77,-110 202.77,-129"/>
<text text-anchor="middle" x="113.27" y="-117" font-family="Helvetica,sans-Serif" font-size="10.00">Application/ExtraDataContainer.h</text>
</a>
</g>
</g>
<!-- Node13&#45;&gt;Node14 -->
<g id="edge15_Node000013_Node000014" class="edge">
<title>Node13&#45;&gt;Node14</title>
<g id="a_edge15_Node000013_Node000014"><a xlink:title=" ">
<path fill="none" stroke="#63b8ff" d="M336.53,-164.98C290.23,-155.76 216.3,-141.03 166.32,-131.07"/>
<polygon fill="#63b8ff" stroke="#63b8ff" points="166.83,-127.6 156.34,-129.08 165.47,-134.47 166.83,-127.6"/>
</a>
</g>
</g>
<!-- Node18 -->
<g id="Node000018" class="node">
<title>Node18</title>
<g id="a_Node000018"><a xlink:href="Primitive_8h.html" target="_top" xlink:title=" ">
<polygon fill="white" stroke="#666666" points="425.27,-129 297.27,-129 297.27,-110 425.27,-110 425.27,-129"/>
<text text-anchor="middle" x="361.27" y="-117" font-family="Helvetica,sans-Serif" font-size="10.00">Application/Primitive.h</text>
</a>
</g>
</g>
<!-- Node13&#45;&gt;Node18 -->
<g id="edge19_Node000013_Node000018" class="edge">
<title>Node13&#45;&gt;Node18</title>
<g id="a_edge19_Node000013_Node000018"><a xlink:title=" ">
<path fill="none" stroke="#63b8ff" d="M376.3,-164.75C373.91,-157.72 370.48,-147.62 367.5,-138.84"/>
<polygon fill="#63b8ff" stroke="#63b8ff" points="370.72,-137.43 364.19,-129.09 364.09,-139.68 370.72,-137.43"/>
</a>
</g>
</g>
<!-- Node19 -->
<g id="Node000019" class="node">
<title>Node19</title>
<g id="a_Node000019"><a xlink:title=" ">
<polygon fill="#e0e0e0" stroke="#999999" points="279.27,-129 221.27,-129 221.27,-110 279.27,-110 279.27,-129"/>
<text text-anchor="middle" x="250.27" y="-117" font-family="Helvetica,sans-Serif" font-size="10.00">memory</text>
</a>
</g>
</g>
<!-- Node13&#45;&gt;Node19 -->
<g id="edge22_Node000013_Node000019" class="edge">
<title>Node13&#45;&gt;Node19</title>
<g id="a_edge22_Node000013_Node000019"><a xlink:title=" ">
<path fill="none" stroke="#63b8ff" d="M358.55,-164.98C337.51,-156.34 304.72,-142.87 280.73,-133.02"/>
<polygon fill="#63b8ff" stroke="#63b8ff" points="281.95,-129.73 271.37,-129.17 279.29,-136.21 281.95,-129.73"/>
</a>
</g>
</g>
<!-- Node15 -->
<g id="Node000015" class="node">
<title>Node15</title>
<g id="a_Node000015"><a xlink:title=" ">
<polygon fill="#e0e0e0" stroke="#999999" points="169.77,-74 134.77,-74 134.77,-55 169.77,-55 169.77,-74"/>
<text text-anchor="middle" x="152.27" y="-62" font-family="Helvetica,sans-Serif" font-size="10.00">any</text>
</a>
</g>
</g>
<!-- Node14&#45;&gt;Node15 -->
<g id="edge16_Node000014_Node000015" class="edge">
<title>Node14&#45;&gt;Node15</title>
<g id="a_edge16_Node000014_Node000015"><a xlink:title=" ">
<path fill="none" stroke="#63b8ff" d="M119.71,-109.75C125.16,-102.34 133.14,-91.5 139.83,-82.41"/>
<polygon fill="#63b8ff" stroke="#63b8ff" points="142.84,-84.22 145.95,-74.09 137.2,-80.07 142.84,-84.22"/>
</a>
</g>
</g>
<!-- Node16 -->
<g id="Node000016" class="node">
<title>Node16</title>
<g id="a_Node000016"><a xlink:title=" ">
<polygon fill="#e0e0e0" stroke="#999999" points="252.77,-74 187.77,-74 187.77,-55 252.77,-55 252.77,-74"/>
<text text-anchor="middle" x="220.27" y="-62" font-family="Helvetica,sans-Serif" font-size="10.00">typeindex</text>
</a>
</g>
</g>
<!-- Node14&#45;&gt;Node16 -->
<g id="edge17_Node000014_Node000016" class="edge">
<title>Node14&#45;&gt;Node16</title>
<g id="a_edge17_Node000014_Node000016"><a xlink:title=" ">
<path fill="none" stroke="#63b8ff" d="M130.46,-109.98C147.52,-101.54 173.9,-88.47 193.67,-78.68"/>
<polygon fill="#63b8ff" stroke="#63b8ff" points="195.36,-81.75 202.77,-74.17 192.25,-75.47 195.36,-81.75"/>
</a>
</g>
</g>
<!-- Node17 -->
<g id="Node000017" class="node">
<title>Node17</title>
<g id="a_Node000017"><a xlink:title=" ">
<polygon fill="#e0e0e0" stroke="#999999" points="116.77,-74 23.77,-74 23.77,-55 116.77,-55 116.77,-74"/>
<text text-anchor="middle" x="70.27" y="-62" font-family="Helvetica,sans-Serif" font-size="10.00">unordered_map</text>
</a>
</g>
</g>
<!-- Node14&#45;&gt;Node17 -->
<g id="edge18_Node000014_Node000017" class="edge">
<title>Node14&#45;&gt;Node17</title>
<g id="a_edge18_Node000014_Node000017"><a xlink:title=" ">
<path fill="none" stroke="#63b8ff" d="M106.17,-109.75C100.1,-102.26 91.19,-91.28 83.76,-82.13"/>
<polygon fill="#63b8ff" stroke="#63b8ff" points="86.26,-79.65 77.24,-74.09 80.82,-84.06 86.26,-79.65"/>
</a>
</g>
</g>
<!-- Node18&#45;&gt;Node3 -->
<g id="edge20_Node000018_Node000003" class="edge">
<title>Node18&#45;&gt;Node3</title>
<g id="a_edge20_Node000018_Node000003"><a xlink:title=" ">
<path fill="none" stroke="#63b8ff" d="M393.57,-109.98C427.9,-100.93 482.33,-86.58 520.04,-76.64"/>
<polygon fill="#63b8ff" stroke="#63b8ff" points="520.95,-80.02 529.72,-74.08 519.16,-73.25 520.95,-80.02"/>
</a>
</g>
</g>
<!-- Node18&#45;&gt;Node7 -->
<g id="edge21_Node000018_Node000007" class="edge">
<title>Node18&#45;&gt;Node7</title>
<g id="a_edge21_Node000018_Node000007"><a xlink:title=" ">
<path fill="none" stroke="#63b8ff" d="M366.56,-109.75C370.98,-102.42 377.43,-91.73 382.89,-82.7"/>
<polygon fill="#63b8ff" stroke="#63b8ff" points="385.91,-84.46 388.09,-74.09 379.92,-80.84 385.91,-84.46"/>
</a>
</g>
</g>
<!-- Node20&#45;&gt;Node6 -->
<g id="edge26_Node000020_Node000006" class="edge">
<title>Node20&#45;&gt;Node6</title>
<g id="a_edge26_Node000020_Node000006"><a xlink:title=" ">
<path fill="none" stroke="#63b8ff" d="M142.56,-219.89C105.23,-206.97 41.57,-178.62 14.27,-129 -1.58,-100.18 -7.02,-80.06 14.27,-55 44.27,-19.7 184.51,-12.34 251.06,-10.85"/>
<polygon fill="#63b8ff" stroke="#63b8ff" points="251.14,-14.35 261.07,-10.66 251.01,-7.35 251.14,-14.35"/>
</a>
</g>
</g>
<!-- Node20&#45;&gt;Node13 -->
<g id="edge25_Node000020_Node000013" class="edge">
<title>Node20&#45;&gt;Node13</title>
<g id="a_edge25_Node000020_Node000013"><a xlink:title=" ">
<path fill="none" stroke="#63b8ff" d="M204.69,-219.98C240.22,-210.93 296.55,-196.58 335.57,-186.64"/>
<polygon fill="#63b8ff" stroke="#63b8ff" points="336.76,-189.94 345.59,-184.08 335.04,-183.16 336.76,-189.94"/>
</a>
</g>
</g>
<!-- Node21&#45;&gt;Node13 -->
<g id="edge28_Node000021_Node000013" class="edge">
<title>Node21&#45;&gt;Node13</title>
<g id="a_edge28_Node000021_Node000013"><a xlink:title=" ">
<path fill="none" stroke="#63b8ff" d="M294.42,-274.96C289.22,-262.03 281.75,-237.19 292.27,-220 301.67,-204.64 318.24,-194.36 334.41,-187.6"/>
<polygon fill="#63b8ff" stroke="#63b8ff" points="335.73,-190.84 343.83,-184.01 333.24,-184.3 335.73,-190.84"/>
</a>
</g>
</g>
<!-- Node22 -->
<g id="Node000022" class="node">
<title>Node22</title>
<g id="a_Node000022"><a xlink:title=" ">
<polygon fill="#e0e0e0" stroke="#999999" points="369.27,-239 301.27,-239 301.27,-220 369.27,-220 369.27,-239"/>
<text text-anchor="middle" x="335.27" y="-227" font-family="Helvetica,sans-Serif" font-size="10.00">filesystem</text>
</a>
</g>
</g>
<!-- Node21&#45;&gt;Node22 -->
<g id="edge29_Node000021_Node000022" class="edge">
<title>Node21&#45;&gt;Node22</title>
<g id="a_edge29_Node000021_Node000022"><a xlink:title=" ">
<path fill="none" stroke="#63b8ff" d="M304.38,-274.75C309.55,-267.34 317.12,-256.5 323.47,-247.41"/>
<polygon fill="#63b8ff" stroke="#63b8ff" points="326.42,-249.29 329.27,-239.09 320.68,-245.29 326.42,-249.29"/>
</a>
</g>
</g>
<!-- Node23&#45;&gt;Node3 -->
<g id="edge31_Node000023_Node000003" class="edge">
<title>Node23&#45;&gt;Node3</title>
<g id="a_edge31_Node000023_Node000003"><a xlink:title=" ">
<path fill="none" stroke="#63b8ff" d="M541.45,-219.74C544.9,-194.2 554.99,-119.43 559.74,-84.23"/>
<polygon fill="#63b8ff" stroke="#63b8ff" points="563.21,-84.69 561.08,-74.31 556.28,-83.75 563.21,-84.69"/>
</a>
</g>
</g>
<!-- Node23&#45;&gt;Node13 -->
<g id="edge32_Node000023_Node000013" class="edge">
<title>Node23&#45;&gt;Node13</title>
<g id="a_edge32_Node000023_Node000013"><a xlink:title=" ">
<path fill="none" stroke="#63b8ff" d="M514.4,-219.98C487.49,-211.13 445.15,-197.19 415.04,-187.28"/>
<polygon fill="#63b8ff" stroke="#63b8ff" points="415.93,-183.88 405.34,-184.08 413.75,-190.53 415.93,-183.88"/>
</a>
</g>
</g>
<!-- Node24&#45;&gt;Node2 -->
<g id="edge34_Node000024_Node000002" class="edge">
<title>Node24&#45;&gt;Node2</title>
<g id="a_edge34_Node000024_Node000002"><a xlink:title=" ">
<path fill="none" stroke="#63b8ff" d="M583.86,-274.9C597.16,-267.19 615.36,-254.69 626.27,-239 635.61,-225.57 640.44,-207.47 642.88,-194.03"/>
<polygon fill="#63b8ff" stroke="#63b8ff" points="646.36,-194.46 644.42,-184.04 639.44,-193.39 646.36,-194.46"/>
</a>
</g>
</g>
<!-- Node24&#45;&gt;Node13 -->
<g id="edge35_Node000024_Node000013" class="edge">
<title>Node24&#45;&gt;Node13</title>
<g id="a_edge35_Node000024_Node000013"><a xlink:title=" ">
<path fill="none" stroke="#63b8ff" d="M538.21,-274.97C514.64,-267.38 481.05,-255.01 454.27,-239 431.78,-225.56 409.29,-205.39 394.89,-191.41"/>
<polygon fill="#63b8ff" stroke="#63b8ff" points="397.34,-188.91 387.77,-184.36 392.41,-193.88 397.34,-188.91"/>
</a>
</g>
</g>
<!-- Node24&#45;&gt;Node23 -->
<g id="edge36_Node000024_Node000023" class="edge">
<title>Node24&#45;&gt;Node23</title>
<g id="a_edge36_Node000024_Node000023"><a xlink:title=" ">
<path fill="none" stroke="#63b8ff" d="M562.81,-274.75C559.16,-267.57 553.86,-257.18 549.32,-248.27"/>
<polygon fill="#63b8ff" stroke="#63b8ff" points="552.3,-246.41 544.65,-239.09 546.07,-249.59 552.3,-246.41"/>
</a>
</g>
</g>
</g>
</svg>
