<?xml version="1.0" encoding="UTF-8" standalone="no"?>
<!DOCTYPE svg PUBLIC "-//W3C//DTD SVG 1.1//EN"
 "http://www.w3.org/Graphics/SVG/1.1/DTD/svg11.dtd">
<!-- Generated by graphviz version 2.43.0 (0)
 -->
<!-- Title: App/Source/MeshExporter.cpp Pages: 1 -->
<svg width="1170pt" height="302pt"
 viewBox="0.00 0.00 1170.00 302.00" xmlns="http://www.w3.org/2000/svg" xmlns:xlink="http://www.w3.org/1999/xlink">
<g id="graph0" class="graph" transform="scale(1 1) rotate(0) translate(4 298)">
<title>App/Source/MeshExporter.cpp</title>
<!-- Node1 -->
<g id="Node000001" class="node">
<title>Node1</title>
<g id="a_Node000001"><a xlink:title=" ">
<polygon fill="#999999" stroke="#666666" points="818.5,-294 657.5,-294 657.5,-275 818.5,-275 818.5,-294"/>
<text text-anchor="middle" x="738" y="-282" font-family="Helvetica,sans-Serif" font-size="10.00">App/Source/MeshExporter.cpp</text>
</a>
</g>
</g>
<!-- Node2 -->
<g id="Node000002" class="node">
<title>Node2</title>
<g id="a_Node000002"><a xlink:href="MeshExporter_8h.html" target="_top" xlink:title=" ">
<polygon fill="white" stroke="#666666" points="157,-239 7,-239 7,-220 157,-220 157,-239"/>
<text text-anchor="middle" x="82" y="-227" font-family="Helvetica,sans-Serif" font-size="10.00">Application/MeshExporter.h</text>
</a>
</g>
</g>
<!-- Node1&#45;&gt;Node2 -->
<g id="edge1_Node000001_Node000002" class="edge">
<title>Node1&#45;&gt;Node2</title>
<g id="a_edge1_Node000001_Node000002"><a xlink:title=" ">
<path fill="none" stroke="#63b8ff" d="M657.22,-277.59C547.2,-269.45 344.13,-254.06 171,-239 169.88,-238.9 168.75,-238.8 167.61,-238.7"/>
<polygon fill="#63b8ff" stroke="#63b8ff" points="167.53,-235.18 157.25,-237.78 166.9,-242.15 167.53,-235.18"/>
</a>
</g>
</g>
<!-- Node3 -->
<g id="Node000003" class="node">
<title>Node3</title>
<g id="a_Node000003"><a xlink:href="BaseType_8h.html" target="_top" xlink:title=" ">
<polygon fill="white" stroke="#666666" points="275,-74 145,-74 145,-55 275,-55 275,-74"/>
<text text-anchor="middle" x="210" y="-62" font-family="Helvetica,sans-Serif" font-size="10.00">Application/BaseType.h</text>
</a>
</g>
</g>
<!-- Node1&#45;&gt;Node3 -->
<g id="edge19_Node000001_Node000003" class="edge">
<title>Node1&#45;&gt;Node3</title>
<g id="a_edge19_Node000001_Node000003"><a xlink:title=" ">
<path fill="none" stroke="#63b8ff" d="M657.46,-280.53C529.75,-275.15 291.98,-262.15 261,-239 212.21,-202.54 208.08,-121.7 208.94,-84.68"/>
<polygon fill="#63b8ff" stroke="#63b8ff" points="212.45,-84.45 209.34,-74.32 205.46,-84.17 212.45,-84.45"/>
</a>
</g>
</g>
<!-- Node8 -->
<g id="Node000008" class="node">
<title>Node8</title>
<g id="a_Node000008"><a xlink:href="ExtraDataContainer_8h.html" target="_top" xlink:title=" ">
<polygon fill="white" stroke="#666666" points="819.5,-129 640.5,-129 640.5,-110 819.5,-110 819.5,-129"/>
<text text-anchor="middle" x="730" y="-117" font-family="Helvetica,sans-Serif" font-size="10.00">Application/ExtraDataContainer.h</text>
</a>
</g>
</g>
<!-- Node1&#45;&gt;Node8 -->
<g id="edge20_Node000001_Node000008" class="edge">
<title>Node1&#45;&gt;Node8</title>
<g id="a_edge20_Node000001_Node000008"><a xlink:title=" ">
<path fill="none" stroke="#63b8ff" d="M716.21,-274.87C701.36,-267.69 682.84,-255.91 674,-239 658.77,-209.85 659.7,-194.62 674,-165 680.22,-152.12 692.18,-141.82 703.46,-134.38"/>
<polygon fill="#63b8ff" stroke="#63b8ff" points="705.51,-137.23 712.23,-129.04 701.87,-131.25 705.51,-137.23"/>
</a>
</g>
</g>
<!-- Node17 -->
<g id="Node000017" class="node">
<title>Node17</title>
<g id="a_Node000017"><a xlink:href="ExtraDataType_8h.html" target="_top" xlink:title=" ">
<polygon fill="white" stroke="#666666" points="625.5,-184 470.5,-184 470.5,-165 625.5,-165 625.5,-184"/>
<text text-anchor="middle" x="548" y="-172" font-family="Helvetica,sans-Serif" font-size="10.00">Application/ExtraDataType.h</text>
</a>
</g>
</g>
<!-- Node1&#45;&gt;Node17 -->
<g id="edge21_Node000001_Node000017" class="edge">
<title>Node1&#45;&gt;Node17</title>
<g id="a_edge21_Node000001_Node000017"><a xlink:title=" ">
<path fill="none" stroke="#63b8ff" d="M716.04,-274.85C695.81,-266.57 665.2,-253.27 640,-239 613.73,-224.13 585.42,-203.88 567.25,-190.29"/>
<polygon fill="#63b8ff" stroke="#63b8ff" points="569.28,-187.44 559.19,-184.2 565.06,-193.02 569.28,-187.44"/>
</a>
</g>
</g>
<!-- Node19 -->
<g id="Node000019" class="node">
<title>Node19</title>
<g id="a_Node000019"><a xlink:href="PrimitiveProxy_8h.html" target="_top" xlink:title=" ">
<polygon fill="white" stroke="#666666" points="424,-239 270,-239 270,-220 424,-220 424,-239"/>
<text text-anchor="middle" x="347" y="-227" font-family="Helvetica,sans-Serif" font-size="10.00">Application/PrimitiveProxy.h</text>
</a>
</g>
</g>
<!-- Node1&#45;&gt;Node19 -->
<g id="edge26_Node000001_Node000019" class="edge">
<title>Node1&#45;&gt;Node19</title>
<g id="a_edge26_Node000001_Node000019"><a xlink:title=" ">
<path fill="none" stroke="#63b8ff" d="M675.18,-274.98C605.6,-265.55 493.55,-250.36 420.09,-240.41"/>
<polygon fill="#63b8ff" stroke="#63b8ff" points="420.37,-236.91 409.99,-239.04 419.43,-243.85 420.37,-236.91"/>
</a>
</g>
</g>
<!-- Node20 -->
<g id="Node000020" class="node">
<title>Node20</title>
<g id="a_Node000020"><a xlink:href="PrintHelpers_8h.html" target="_top" xlink:title=" ">
<polygon fill="white" stroke="#666666" points="793.5,-239 682.5,-239 682.5,-220 793.5,-220 793.5,-239"/>
<text text-anchor="middle" x="738" y="-227" font-family="Helvetica,sans-Serif" font-size="10.00">Core/PrintHelpers.h</text>
</a>
</g>
</g>
<!-- Node1&#45;&gt;Node20 -->
<g id="edge29_Node000001_Node000020" class="edge">
<title>Node1&#45;&gt;Node20</title>
<g id="a_edge29_Node000001_Node000020"><a xlink:title=" ">
<path fill="none" stroke="#63b8ff" d="M738,-274.75C738,-267.8 738,-257.85 738,-249.13"/>
<polygon fill="#63b8ff" stroke="#63b8ff" points="741.5,-249.09 738,-239.09 734.5,-249.09 741.5,-249.09"/>
</a>
</g>
</g>
<!-- Node22 -->
<g id="Node000022" class="node">
<title>Node22</title>
<g id="a_Node000022"><a xlink:title=" ">
<polygon fill="#e0e0e0" stroke="#999999" points="922,-184 862,-184 862,-165 922,-165 922,-184"/>
<text text-anchor="middle" x="892" y="-172" font-family="Helvetica,sans-Serif" font-size="10.00">iostream</text>
</a>
</g>
</g>
<!-- Node1&#45;&gt;Node22 -->
<g id="edge36_Node000001_Node000022" class="edge">
<title>Node1&#45;&gt;Node22</title>
<g id="a_edge36_Node000001_Node000022"><a xlink:title=" ">
<path fill="none" stroke="#63b8ff" d="M751,-274.71C764.16,-265.78 785.07,-251.54 803,-239 826.58,-222.52 853.44,-203.29 871.43,-190.35"/>
<polygon fill="#63b8ff" stroke="#63b8ff" points="873.89,-192.89 879.96,-184.2 869.8,-187.21 873.89,-192.89"/>
</a>
</g>
</g>
<!-- Node24 -->
<g id="Node000024" class="node">
<title>Node24</title>
<g id="a_Node000024"><a xlink:title=" ">
<polygon fill="#e0e0e0" stroke="#999999" points="914,-239 850,-239 850,-220 914,-220 914,-239"/>
<text text-anchor="middle" x="882" y="-227" font-family="Helvetica,sans-Serif" font-size="10.00">algorithm</text>
</a>
</g>
</g>
<!-- Node1&#45;&gt;Node24 -->
<g id="edge33_Node000001_Node000024" class="edge">
<title>Node1&#45;&gt;Node24</title>
<g id="a_edge33_Node000001_Node000024"><a xlink:title=" ">
<path fill="none" stroke="#63b8ff" d="M761.14,-274.98C784.82,-266.27 821.87,-252.63 848.71,-242.75"/>
<polygon fill="#63b8ff" stroke="#63b8ff" points="850.27,-245.91 858.44,-239.17 847.85,-239.34 850.27,-245.91"/>
</a>
</g>
</g>
<!-- Node25 -->
<g id="Node000025" class="node">
<title>Node25</title>
<g id="a_Node000025"><a xlink:title=" ">
<polygon fill="#e0e0e0" stroke="#999999" points="984,-239 932,-239 932,-220 984,-220 984,-239"/>
<text text-anchor="middle" x="958" y="-227" font-family="Helvetica,sans-Serif" font-size="10.00">cassert</text>
</a>
</g>
</g>
<!-- Node1&#45;&gt;Node25 -->
<g id="edge34_Node000001_Node000025" class="edge">
<title>Node1&#45;&gt;Node25</title>
<g id="a_edge34_Node000001_Node000025"><a xlink:title=" ">
<path fill="none" stroke="#63b8ff" d="M773.47,-274.99C808.68,-266.54 864.46,-253.14 921.69,-239.31"/>
<polygon fill="#63b8ff" stroke="#63b8ff" points="922.73,-242.66 931.63,-236.91 921.09,-235.86 922.73,-242.66"/>
</a>
</g>
</g>
<!-- Node26 -->
<g id="Node000026" class="node">
<title>Node26</title>
<g id="a_Node000026"><a xlink:title=" ">
<polygon fill="#e0e0e0" stroke="#999999" points="1057.5,-239 1002.5,-239 1002.5,-220 1057.5,-220 1057.5,-239"/>
<text text-anchor="middle" x="1030" y="-227" font-family="Helvetica,sans-Serif" font-size="10.00">fstream</text>
</a>
</g>
</g>
<!-- Node1&#45;&gt;Node26 -->
<g id="edge35_Node000001_Node000026" class="edge">
<title>Node1&#45;&gt;Node26</title>
<g id="a_edge35_Node000001_Node000026"><a xlink:title=" ">
<path fill="none" stroke="#63b8ff" d="M791.88,-274.95C841.38,-266.9 917,-254.13 992.05,-239.1"/>
<polygon fill="#63b8ff" stroke="#63b8ff" points="993.04,-242.47 1002.15,-237.06 991.66,-235.61 993.04,-242.47"/>
</a>
</g>
</g>
<!-- Node27 -->
<g id="Node000027" class="node">
<title>Node27</title>
<g id="a_Node000027"><a xlink:title=" ">
<polygon fill="#e0e0e0" stroke="#999999" points="1162,-239 1076,-239 1076,-220 1162,-220 1162,-239"/>
<text text-anchor="middle" x="1119" y="-227" font-family="Helvetica,sans-Serif" font-size="10.00">unordered_set</text>
</a>
</g>
</g>
<!-- Node1&#45;&gt;Node27 -->
<g id="edge37_Node000001_Node000027" class="edge">
<title>Node1&#45;&gt;Node27</title>
<g id="a_edge37_Node000001_Node000027"><a xlink:title=" ">
<path fill="none" stroke="#63b8ff" d="M805.18,-274.96C869.52,-266.66 969.59,-253.43 1065.97,-239.12"/>
<polygon fill="#63b8ff" stroke="#63b8ff" points="1066.51,-242.58 1075.88,-237.64 1065.48,-235.65 1066.51,-242.58"/>
</a>
</g>
</g>
<!-- Node2&#45;&gt;Node3 -->
<g id="edge2_Node000002_Node000003" class="edge">
<title>Node2&#45;&gt;Node3</title>
<g id="a_edge2_Node000002_Node000003"><a xlink:title=" ">
<path fill="none" stroke="#63b8ff" d="M87.59,-219.63C104.42,-192.94 153.75,-114.88 158,-110 167.51,-99.08 179.75,-88.47 189.97,-80.35"/>
<polygon fill="#63b8ff" stroke="#63b8ff" points="192.2,-83.05 197.97,-74.17 187.92,-77.52 192.2,-83.05"/>
</a>
</g>
</g>
<!-- Node6 -->
<g id="Node000006" class="node">
<title>Node6</title>
<g id="a_Node000006"><a xlink:title=" ">
<polygon fill="#e0e0e0" stroke="#999999" points="145,-19 95,-19 95,0 145,0 145,-19"/>
<text text-anchor="middle" x="120" y="-7" font-family="Helvetica,sans-Serif" font-size="10.00">cstdint</text>
</a>
</g>
</g>
<!-- Node2&#45;&gt;Node6 -->
<g id="edge17_Node000002_Node000006" class="edge">
<title>Node2&#45;&gt;Node6</title>
<g id="a_edge17_Node000002_Node000006"><a xlink:title=" ">
<path fill="none" stroke="#63b8ff" d="M83.49,-219.95C89.08,-187.88 108.9,-74.2 116.76,-29.12"/>
<polygon fill="#63b8ff" stroke="#63b8ff" points="120.21,-29.68 118.48,-19.22 113.31,-28.47 120.21,-29.68"/>
</a>
</g>
</g>
<!-- Node7 -->
<g id="Node000007" class="node">
<title>Node7</title>
<g id="a_Node000007"><a xlink:href="Mesh_8h.html" target="_top" xlink:title=" ">
<polygon fill="white" stroke="#666666" points="402,-184 292,-184 292,-165 402,-165 402,-184"/>
<text text-anchor="middle" x="347" y="-172" font-family="Helvetica,sans-Serif" font-size="10.00">Application/Mesh.h</text>
</a>
</g>
</g>
<!-- Node2&#45;&gt;Node7 -->
<g id="edge6_Node000002_Node000007" class="edge">
<title>Node2&#45;&gt;Node7</title>
<g id="a_edge6_Node000002_Node000007"><a xlink:title=" ">
<path fill="none" stroke="#63b8ff" d="M124.58,-219.98C170.7,-210.76 244.36,-196.03 294.16,-186.07"/>
<polygon fill="#63b8ff" stroke="#63b8ff" points="294.97,-189.48 304.09,-184.08 293.6,-182.61 294.97,-189.48"/>
</a>
</g>
</g>
<!-- Node16 -->
<g id="Node000016" class="node">
<title>Node16</title>
<g id="a_Node000016"><a xlink:title=" ">
<polygon fill="#e0e0e0" stroke="#999999" points="68,-184 0,-184 0,-165 68,-165 68,-184"/>
<text text-anchor="middle" x="34" y="-172" font-family="Helvetica,sans-Serif" font-size="10.00">filesystem</text>
</a>
</g>
</g>
<!-- Node2&#45;&gt;Node16 -->
<g id="edge18_Node000002_Node000016" class="edge">
<title>Node2&#45;&gt;Node16</title>
<g id="a_edge18_Node000002_Node000016"><a xlink:title=" ">
<path fill="none" stroke="#63b8ff" d="M74.07,-219.75C67.15,-212.11 56.93,-200.82 48.55,-191.56"/>
<polygon fill="#63b8ff" stroke="#63b8ff" points="51.09,-189.15 41.78,-184.09 45.9,-193.85 51.09,-189.15"/>
</a>
</g>
</g>
<!-- Node4 -->
<g id="Node000004" class="node">
<title>Node4</title>
<g id="a_Node000004"><a xlink:title=" ">
<polygon fill="#e0e0e0" stroke="#999999" points="315,-19 237,-19 237,0 315,0 315,-19"/>
<text text-anchor="middle" x="276" y="-7" font-family="Helvetica,sans-Serif" font-size="10.00">glm/glm.hpp</text>
</a>
</g>
</g>
<!-- Node3&#45;&gt;Node4 -->
<g id="edge3_Node000003_Node000004" class="edge">
<title>Node3&#45;&gt;Node4</title>
<g id="a_edge3_Node000003_Node000004"><a xlink:title=" ">
<path fill="none" stroke="#63b8ff" d="M220.6,-54.98C230.46,-47.07 245.35,-35.11 257.22,-25.58"/>
<polygon fill="#63b8ff" stroke="#63b8ff" points="259.6,-28.16 265.2,-19.17 255.21,-22.7 259.6,-28.16"/>
</a>
</g>
</g>
<!-- Node5 -->
<g id="Node000005" class="node">
<title>Node5</title>
<g id="a_Node000005"><a xlink:title=" ">
<polygon fill="#e0e0e0" stroke="#999999" points="219,-19 175,-19 175,0 219,0 219,-19"/>
<text text-anchor="middle" x="197" y="-7" font-family="Helvetica,sans-Serif" font-size="10.00">bitset</text>
</a>
</g>
</g>
<!-- Node3&#45;&gt;Node5 -->
<g id="edge4_Node000003_Node000005" class="edge">
<title>Node3&#45;&gt;Node5</title>
<g id="a_edge4_Node000003_Node000005"><a xlink:title=" ">
<path fill="none" stroke="#63b8ff" d="M207.85,-54.75C206.13,-47.72 203.65,-37.62 201.5,-28.84"/>
<polygon fill="#63b8ff" stroke="#63b8ff" points="204.89,-27.97 199.11,-19.09 198.09,-29.63 204.89,-27.97"/>
</a>
</g>
</g>
<!-- Node3&#45;&gt;Node6 -->
<g id="edge5_Node000003_Node000006" class="edge">
<title>Node3&#45;&gt;Node6</title>
<g id="a_edge5_Node000003_Node000006"><a xlink:title=" ">
<path fill="none" stroke="#63b8ff" d="M195.54,-54.98C181.58,-46.77 160.21,-34.18 143.75,-24.49"/>
<polygon fill="#63b8ff" stroke="#63b8ff" points="145.12,-21.23 134.72,-19.17 141.56,-27.26 145.12,-21.23"/>
</a>
</g>
</g>
<!-- Node7&#45;&gt;Node3 -->
<g id="edge7_Node000007_Node000003" class="edge">
<title>Node7&#45;&gt;Node3</title>
<g id="a_edge7_Node000007_Node000003"><a xlink:title=" ">
<path fill="none" stroke="#63b8ff" d="M343.06,-164.59C336.75,-151.18 323.21,-125.72 305,-110 288.33,-95.61 266.21,-84.88 247.51,-77.57"/>
<polygon fill="#63b8ff" stroke="#63b8ff" points="248.69,-74.27 238.09,-74.06 246.24,-80.83 248.69,-74.27"/>
</a>
</g>
</g>
<!-- Node7&#45;&gt;Node8 -->
<g id="edge8_Node000007_Node000008" class="edge">
<title>Node7&#45;&gt;Node8</title>
<g id="a_edge8_Node000007_Node000008"><a xlink:title=" ">
<path fill="none" stroke="#63b8ff" d="M402.28,-165.85C469.75,-156.51 583.99,-140.71 658.19,-130.44"/>
<polygon fill="#63b8ff" stroke="#63b8ff" points="658.96,-133.86 668.39,-129.03 658.01,-126.93 658.96,-133.86"/>
</a>
</g>
</g>
<!-- Node12 -->
<g id="Node000012" class="node">
<title>Node12</title>
<g id="a_Node000012"><a xlink:href="Primitive_8h.html" target="_top" xlink:title=" ">
<polygon fill="white" stroke="#666666" points="480,-129 352,-129 352,-110 480,-110 480,-129"/>
<text text-anchor="middle" x="416" y="-117" font-family="Helvetica,sans-Serif" font-size="10.00">Application/Primitive.h</text>
</a>
</g>
</g>
<!-- Node7&#45;&gt;Node12 -->
<g id="edge12_Node000007_Node000012" class="edge">
<title>Node7&#45;&gt;Node12</title>
<g id="a_edge12_Node000007_Node000012"><a xlink:title=" ">
<path fill="none" stroke="#63b8ff" d="M358.09,-164.98C368.49,-157 384.26,-144.88 396.72,-135.31"/>
<polygon fill="#63b8ff" stroke="#63b8ff" points="398.91,-138.04 404.71,-129.17 394.65,-132.49 398.91,-138.04"/>
</a>
</g>
</g>
<!-- Node14 -->
<g id="Node000014" class="node">
<title>Node14</title>
<g id="a_Node000014"><a xlink:title=" ">
<polygon fill="#e0e0e0" stroke="#999999" points="296,-129 238,-129 238,-110 296,-110 296,-129"/>
<text text-anchor="middle" x="267" y="-117" font-family="Helvetica,sans-Serif" font-size="10.00">memory</text>
</a>
</g>
</g>
<!-- Node7&#45;&gt;Node14 -->
<g id="edge15_Node000007_Node000014" class="edge">
<title>Node7&#45;&gt;Node14</title>
<g id="a_edge15_Node000007_Node000014"><a xlink:title=" ">
<path fill="none" stroke="#63b8ff" d="M334.15,-164.98C321.86,-156.84 303.09,-144.41 288.52,-134.76"/>
<polygon fill="#63b8ff" stroke="#63b8ff" points="290.36,-131.78 280.09,-129.17 286.49,-137.61 290.36,-131.78"/>
</a>
</g>
</g>
<!-- Node15 -->
<g id="Node000015" class="node">
<title>Node15</title>
<g id="a_Node000015"><a xlink:title=" ">
<polygon fill="#e0e0e0" stroke="#999999" points="545.5,-129 498.5,-129 498.5,-110 545.5,-110 545.5,-129"/>
<text text-anchor="middle" x="522" y="-117" font-family="Helvetica,sans-Serif" font-size="10.00">vector</text>
</a>
</g>
</g>
<!-- Node7&#45;&gt;Node15 -->
<g id="edge16_Node000007_Node000015" class="edge">
<title>Node7&#45;&gt;Node15</title>
<g id="a_edge16_Node000007_Node000015"><a xlink:title=" ">
<path fill="none" stroke="#63b8ff" d="M375.12,-164.98C406.11,-155.6 455.93,-140.51 488.82,-130.55"/>
<polygon fill="#63b8ff" stroke="#63b8ff" points="489.89,-133.88 498.44,-127.63 487.86,-127.18 489.89,-133.88"/>
</a>
</g>
</g>
<!-- Node9 -->
<g id="Node000009" class="node">
<title>Node9</title>
<g id="a_Node000009"><a xlink:title=" ">
<polygon fill="#e0e0e0" stroke="#999999" points="747.5,-74 712.5,-74 712.5,-55 747.5,-55 747.5,-74"/>
<text text-anchor="middle" x="730" y="-62" font-family="Helvetica,sans-Serif" font-size="10.00">any</text>
</a>
</g>
</g>
<!-- Node8&#45;&gt;Node9 -->
<g id="edge9_Node000008_Node000009" class="edge">
<title>Node8&#45;&gt;Node9</title>
<g id="a_edge9_Node000008_Node000009"><a xlink:title=" ">
<path fill="none" stroke="#63b8ff" d="M730,-109.75C730,-102.8 730,-92.85 730,-84.13"/>
<polygon fill="#63b8ff" stroke="#63b8ff" points="733.5,-84.09 730,-74.09 726.5,-84.09 733.5,-84.09"/>
</a>
</g>
</g>
<!-- Node10 -->
<g id="Node000010" class="node">
<title>Node10</title>
<g id="a_Node000010"><a xlink:title=" ">
<polygon fill="#e0e0e0" stroke="#999999" points="830.5,-74 765.5,-74 765.5,-55 830.5,-55 830.5,-74"/>
<text text-anchor="middle" x="798" y="-62" font-family="Helvetica,sans-Serif" font-size="10.00">typeindex</text>
</a>
</g>
</g>
<!-- Node8&#45;&gt;Node10 -->
<g id="edge10_Node000008_Node000010" class="edge">
<title>Node8&#45;&gt;Node10</title>
<g id="a_edge10_Node000008_Node000010"><a xlink:title=" ">
<path fill="none" stroke="#63b8ff" d="M740.93,-109.98C751.08,-102.07 766.42,-90.11 778.65,-80.58"/>
<polygon fill="#63b8ff" stroke="#63b8ff" points="781.14,-83.08 786.88,-74.17 776.84,-77.56 781.14,-83.08"/>
</a>
</g>
</g>
<!-- Node11 -->
<g id="Node000011" class="node">
<title>Node11</title>
<g id="a_Node000011"><a xlink:title=" ">
<polygon fill="#e0e0e0" stroke="#999999" points="694.5,-74 601.5,-74 601.5,-55 694.5,-55 694.5,-74"/>
<text text-anchor="middle" x="648" y="-62" font-family="Helvetica,sans-Serif" font-size="10.00">unordered_map</text>
</a>
</g>
</g>
<!-- Node8&#45;&gt;Node11 -->
<g id="edge11_Node000008_Node000011" class="edge">
<title>Node8&#45;&gt;Node11</title>
<g id="a_edge11_Node000008_Node000011"><a xlink:title=" ">
<path fill="none" stroke="#63b8ff" d="M716.83,-109.98C704.23,-101.84 685,-89.41 670.06,-79.76"/>
<polygon fill="#63b8ff" stroke="#63b8ff" points="671.71,-76.66 661.41,-74.17 667.91,-82.54 671.71,-76.66"/>
</a>
</g>
</g>
<!-- Node12&#45;&gt;Node3 -->
<g id="edge13_Node000012_Node000003" class="edge">
<title>Node12&#45;&gt;Node3</title>
<g id="a_edge13_Node000012_Node000003"><a xlink:title=" ">
<path fill="none" stroke="#63b8ff" d="M382.9,-109.98C347.72,-100.93 291.93,-86.58 253.28,-76.64"/>
<polygon fill="#63b8ff" stroke="#63b8ff" points="253.91,-73.18 243.36,-74.08 252.17,-79.96 253.91,-73.18"/>
</a>
</g>
</g>
<!-- Node13 -->
<g id="Node000013" class="node">
<title>Node13</title>
<g id="a_Node000013"><a xlink:title=" ">
<polygon fill="#e0e0e0" stroke="#999999" points="510,-74 468,-74 468,-55 510,-55 510,-74"/>
<text text-anchor="middle" x="489" y="-62" font-family="Helvetica,sans-Serif" font-size="10.00">array</text>
</a>
</g>
</g>
<!-- Node12&#45;&gt;Node13 -->
<g id="edge14_Node000012_Node000013" class="edge">
<title>Node12&#45;&gt;Node13</title>
<g id="a_edge14_Node000012_Node000013"><a xlink:title=" ">
<path fill="none" stroke="#63b8ff" d="M427.73,-109.98C438.73,-102 455.42,-89.88 468.6,-80.31"/>
<polygon fill="#63b8ff" stroke="#63b8ff" points="471.02,-82.88 477.06,-74.17 466.91,-77.21 471.02,-82.88"/>
</a>
</g>
</g>
<!-- Node17&#45;&gt;Node3 -->
<g id="edge22_Node000017_Node000003" class="edge">
<title>Node17&#45;&gt;Node3</title>
<g id="a_edge22_Node000017_Node000003"><a xlink:title=" ">
<path fill="none" stroke="#63b8ff" d="M552.35,-164.89C558.47,-151.41 567.45,-125.3 554,-110 536.55,-90.14 381.18,-76.59 285.31,-70.04"/>
<polygon fill="#63b8ff" stroke="#63b8ff" points="285.29,-66.53 275.08,-69.35 284.82,-73.51 285.29,-66.53"/>
</a>
</g>
</g>
<!-- Node17&#45;&gt;Node13 -->
<g id="edge23_Node000017_Node000013" class="edge">
<title>Node17&#45;&gt;Node13</title>
<g id="a_edge23_Node000017_Node000013"><a xlink:title=" ">
<path fill="none" stroke="#63b8ff" d="M560.39,-164.83C576.34,-152.57 600.6,-129.47 588,-110 573.18,-87.09 543.44,-75.86 520.41,-70.42"/>
<polygon fill="#63b8ff" stroke="#63b8ff" points="520.89,-66.95 510.38,-68.31 519.45,-73.8 520.89,-66.95"/>
</a>
</g>
</g>
<!-- Node17&#45;&gt;Node15 -->
<g id="edge25_Node000017_Node000015" class="edge">
<title>Node17&#45;&gt;Node15</title>
<g id="a_edge25_Node000017_Node000015"><a xlink:title=" ">
<path fill="none" stroke="#63b8ff" d="M543.71,-164.75C540.19,-157.57 535.09,-147.18 530.72,-138.27"/>
<polygon fill="#63b8ff" stroke="#63b8ff" points="533.76,-136.53 526.21,-129.09 527.48,-139.61 533.76,-136.53"/>
</a>
</g>
</g>
<!-- Node18 -->
<g id="Node000018" class="node">
<title>Node18</title>
<g id="a_Node000018"><a xlink:title=" ">
<polygon fill="#e0e0e0" stroke="#999999" points="882,-129 838,-129 838,-110 882,-110 882,-129"/>
<text text-anchor="middle" x="860" y="-117" font-family="Helvetica,sans-Serif" font-size="10.00">string</text>
</a>
</g>
</g>
<!-- Node17&#45;&gt;Node18 -->
<g id="edge24_Node000017_Node000018" class="edge">
<title>Node17&#45;&gt;Node18</title>
<g id="a_edge24_Node000017_Node000018"><a xlink:title=" ">
<path fill="none" stroke="#63b8ff" d="M615.1,-165C669.92,-157.57 749.59,-145.67 827.71,-129.08"/>
<polygon fill="#63b8ff" stroke="#63b8ff" points="828.68,-132.45 837.72,-126.93 827.21,-125.61 828.68,-132.45"/>
</a>
</g>
</g>
<!-- Node19&#45;&gt;Node3 -->
<g id="edge27_Node000019_Node000003" class="edge">
<title>Node19&#45;&gt;Node3</title>
<g id="a_edge27_Node000019_Node000003"><a xlink:title=" ">
<path fill="none" stroke="#63b8ff" d="M331.04,-219.88C305.15,-205 254.35,-171.92 229,-129 220.85,-115.21 215.95,-97.64 213.17,-84.47"/>
<polygon fill="#63b8ff" stroke="#63b8ff" points="216.53,-83.43 211.24,-74.25 209.65,-84.73 216.53,-83.43"/>
</a>
</g>
</g>
<!-- Node19&#45;&gt;Node7 -->
<g id="edge28_Node000019_Node000007" class="edge">
<title>Node19&#45;&gt;Node7</title>
<g id="a_edge28_Node000019_Node000007"><a xlink:title=" ">
<path fill="none" stroke="#63b8ff" d="M347,-219.75C347,-212.8 347,-202.85 347,-194.13"/>
<polygon fill="#63b8ff" stroke="#63b8ff" points="350.5,-194.09 347,-184.09 343.5,-194.09 350.5,-194.09"/>
</a>
</g>
</g>
<!-- Node21 -->
<g id="Node000021" class="node">
<title>Node21</title>
<g id="a_Node000021"><a xlink:title=" ">
<polygon fill="#e0e0e0" stroke="#999999" points="844,-184 794,-184 794,-165 844,-165 844,-184"/>
<text text-anchor="middle" x="819" y="-172" font-family="Helvetica,sans-Serif" font-size="10.00">format</text>
</a>
</g>
</g>
<!-- Node20&#45;&gt;Node21 -->
<g id="edge30_Node000020_Node000021" class="edge">
<title>Node20&#45;&gt;Node21</title>
<g id="a_edge30_Node000020_Node000021"><a xlink:title=" ">
<path fill="none" stroke="#63b8ff" d="M751.01,-219.98C763.46,-211.84 782.46,-199.41 797.21,-189.76"/>
<polygon fill="#63b8ff" stroke="#63b8ff" points="799.3,-192.57 805.75,-184.17 795.46,-186.72 799.3,-192.57"/>
</a>
</g>
</g>
<!-- Node20&#45;&gt;Node22 -->
<g id="edge31_Node000020_Node000022" class="edge">
<title>Node20&#45;&gt;Node22</title>
<g id="a_edge31_Node000020_Node000022"><a xlink:title=" ">
<path fill="none" stroke="#63b8ff" d="M762.74,-219.98C788.37,-211.16 828.63,-197.31 857.41,-187.41"/>
<polygon fill="#63b8ff" stroke="#63b8ff" points="858.75,-190.65 867.06,-184.08 856.47,-184.03 858.75,-190.65"/>
</a>
</g>
</g>
<!-- Node23 -->
<g id="Node000023" class="node">
<title>Node23</title>
<g id="a_Node000023"><a xlink:title=" ">
<polygon fill="#e0e0e0" stroke="#999999" points="775.5,-184 682.5,-184 682.5,-165 775.5,-165 775.5,-184"/>
<text text-anchor="middle" x="729" y="-172" font-family="Helvetica,sans-Serif" font-size="10.00">source_location</text>
</a>
</g>
</g>
<!-- Node20&#45;&gt;Node23 -->
<g id="edge32_Node000020_Node000023" class="edge">
<title>Node20&#45;&gt;Node23</title>
<g id="a_edge32_Node000020_Node000023"><a xlink:title=" ">
<path fill="none" stroke="#63b8ff" d="M736.51,-219.75C735.33,-212.8 733.64,-202.85 732.16,-194.13"/>
<polygon fill="#63b8ff" stroke="#63b8ff" points="735.58,-193.36 730.46,-184.09 728.68,-194.53 735.58,-193.36"/>
</a>
</g>
</g>
</g>
</svg>
