<?xml version="1.0" encoding="UTF-8" standalone="no"?>
<!DOCTYPE svg PUBLIC "-//W3C//DTD SVG 1.1//EN"
 "http://www.w3.org/Graphics/SVG/1.1/DTD/svg11.dtd">
<!-- Generated by graphviz version 2.43.0 (0)
 -->
<!-- Title: App/Source/MeshLoader.cpp Pages: 1 -->
<svg width="1152pt" height="302pt"
 viewBox="0.00 0.00 1152.00 302.00" xmlns="http://www.w3.org/2000/svg" xmlns:xlink="http://www.w3.org/1999/xlink">
<g id="graph0" class="graph" transform="scale(1 1) rotate(0) translate(4 298)">
<title>App/Source/MeshLoader.cpp</title>
<!-- Node1 -->
<g id="Node000001" class="node">
<title>Node1</title>
<g id="a_Node000001"><a xlink:title=" ">
<polygon fill="#999999" stroke="#666666" points="878,-294 725,-294 725,-275 878,-275 878,-294"/>
<text text-anchor="middle" x="801.5" y="-282" font-family="Helvetica,sans-Serif" font-size="10.00">App/Source/MeshLoader.cpp</text>
</a>
</g>
</g>
<!-- Node2 -->
<g id="Node000002" class="node">
<title>Node2</title>
<g id="a_Node000002"><a xlink:href="MeshLoader_8h.html" target="_top" xlink:title=" ">
<polygon fill="white" stroke="#666666" points="559.5,-239 417.5,-239 417.5,-220 559.5,-220 559.5,-239"/>
<text text-anchor="middle" x="488.5" y="-227" font-family="Helvetica,sans-Serif" font-size="10.00">Application/MeshLoader.h</text>
</a>
</g>
</g>
<!-- Node1&#45;&gt;Node2 -->
<g id="edge1_Node000001_Node000002" class="edge">
<title>Node1&#45;&gt;Node2</title>
<g id="a_edge1_Node000001_Node000002"><a xlink:title=" ">
<path fill="none" stroke="#63b8ff" d="M751.21,-274.98C696.08,-265.65 607.65,-250.67 548.82,-240.71"/>
<polygon fill="#63b8ff" stroke="#63b8ff" points="549.37,-237.26 538.92,-239.04 548.2,-244.16 549.37,-237.26"/>
</a>
</g>
</g>
<!-- Node11 -->
<g id="Node000011" class="node">
<title>Node11</title>
<g id="a_Node000011"><a xlink:title=" ">
<polygon fill="#e0e0e0" stroke="#999999" points="93,-74 0,-74 0,-55 93,-55 93,-74"/>
<text text-anchor="middle" x="46.5" y="-62" font-family="Helvetica,sans-Serif" font-size="10.00">unordered_map</text>
</a>
</g>
</g>
<!-- Node1&#45;&gt;Node11 -->
<g id="edge36_Node000001_Node000011" class="edge">
<title>Node1&#45;&gt;Node11</title>
<g id="a_edge36_Node000001_Node000011"><a xlink:title=" ">
<path fill="none" stroke="#63b8ff" d="M724.85,-280C638.85,-275.04 495.55,-263.66 374.5,-239 211.4,-205.77 115.42,-262.87 16.5,-129 5.7,-114.38 17.65,-95.26 29.52,-81.83"/>
<polygon fill="#63b8ff" stroke="#63b8ff" points="32.33,-83.95 36.69,-74.3 27.26,-79.13 32.33,-83.95"/>
</a>
</g>
</g>
<!-- Node17 -->
<g id="Node000017" class="node">
<title>Node17</title>
<g id="a_Node000017"><a xlink:href="ExtraDataType_8h.html" target="_top" xlink:title=" ">
<polygon fill="white" stroke="#666666" points="408,-184 253,-184 253,-165 408,-165 408,-184"/>
<text text-anchor="middle" x="330.5" y="-172" font-family="Helvetica,sans-Serif" font-size="10.00">Application/ExtraDataType.h</text>
</a>
</g>
</g>
<!-- Node1&#45;&gt;Node17 -->
<g id="edge17_Node000001_Node000017" class="edge">
<title>Node1&#45;&gt;Node17</title>
<g id="a_edge17_Node000001_Node000017"><a xlink:title=" ">
<path fill="none" stroke="#63b8ff" d="M725,-279.95C627.2,-274.53 463.89,-262.29 408.5,-239 383.24,-228.38 359.64,-206.92 345.15,-191.9"/>
<polygon fill="#63b8ff" stroke="#63b8ff" points="347.47,-189.25 338.09,-184.32 342.35,-194.02 347.47,-189.25"/>
</a>
</g>
</g>
<!-- Node19 -->
<g id="Node000019" class="node">
<title>Node19</title>
<g id="a_Node000019"><a xlink:href="PrimitiveProxy_8h.html" target="_top" xlink:title=" ">
<polygon fill="white" stroke="#666666" points="731.5,-239 577.5,-239 577.5,-220 731.5,-220 731.5,-239"/>
<text text-anchor="middle" x="654.5" y="-227" font-family="Helvetica,sans-Serif" font-size="10.00">Application/PrimitiveProxy.h</text>
</a>
</g>
</g>
<!-- Node1&#45;&gt;Node19 -->
<g id="edge22_Node000001_Node000019" class="edge">
<title>Node1&#45;&gt;Node19</title>
<g id="a_edge22_Node000001_Node000019"><a xlink:title=" ">
<path fill="none" stroke="#63b8ff" d="M777.88,-274.98C753.6,-266.23 715.55,-252.51 688.13,-242.62"/>
<polygon fill="#63b8ff" stroke="#63b8ff" points="689.14,-239.27 678.55,-239.17 686.77,-245.85 689.14,-239.27"/>
</a>
</g>
</g>
<!-- Node20 -->
<g id="Node000020" class="node">
<title>Node20</title>
<g id="a_Node000020"><a xlink:href="VertexPair_8h.html" target="_top" xlink:title=" ">
<polygon fill="white" stroke="#666666" points="814.5,-184 682.5,-184 682.5,-165 814.5,-165 814.5,-184"/>
<text text-anchor="middle" x="748.5" y="-172" font-family="Helvetica,sans-Serif" font-size="10.00">Application/VertexPair.h</text>
</a>
</g>
</g>
<!-- Node1&#45;&gt;Node20 -->
<g id="edge25_Node000001_Node000020" class="edge">
<title>Node1&#45;&gt;Node20</title>
<g id="a_edge25_Node000001_Node000020"><a xlink:title=" ">
<path fill="none" stroke="#63b8ff" d="M797.27,-274.98C792.83,-266.02 785.66,-251.53 779.5,-239 771.9,-223.53 763.31,-205.93 757.1,-193.18"/>
<polygon fill="#63b8ff" stroke="#63b8ff" points="760.22,-191.59 752.7,-184.13 753.93,-194.66 760.22,-191.59"/>
</a>
</g>
</g>
<!-- Node22 -->
<g id="Node000022" class="node">
<title>Node22</title>
<g id="a_Node000022"><a xlink:href="PrintHelpers_8h.html" target="_top" xlink:title=" ">
<polygon fill="white" stroke="#666666" points="899,-239 788,-239 788,-220 899,-220 899,-239"/>
<text text-anchor="middle" x="843.5" y="-227" font-family="Helvetica,sans-Serif" font-size="10.00">Core/PrintHelpers.h</text>
</a>
</g>
</g>
<!-- Node1&#45;&gt;Node22 -->
<g id="edge29_Node000001_Node000022" class="edge">
<title>Node1&#45;&gt;Node22</title>
<g id="a_edge29_Node000001_Node000022"><a xlink:title=" ">
<path fill="none" stroke="#63b8ff" d="M808.44,-274.75C814.37,-267.26 823.07,-256.28 830.32,-247.13"/>
<polygon fill="#63b8ff" stroke="#63b8ff" points="833.23,-249.1 836.69,-239.09 827.74,-244.75 833.23,-249.1"/>
</a>
</g>
</g>
<!-- Node24 -->
<g id="Node000024" class="node">
<title>Node24</title>
<g id="a_Node000024"><a xlink:title=" ">
<polygon fill="#e0e0e0" stroke="#999999" points="1072.5,-184 1012.5,-184 1012.5,-165 1072.5,-165 1072.5,-184"/>
<text text-anchor="middle" x="1042.5" y="-172" font-family="Helvetica,sans-Serif" font-size="10.00">iostream</text>
</a>
</g>
</g>
<!-- Node1&#45;&gt;Node24 -->
<g id="edge35_Node000001_Node000024" class="edge">
<title>Node1&#45;&gt;Node24</title>
<g id="a_edge35_Node000001_Node000024"><a xlink:title=" ">
<path fill="none" stroke="#63b8ff" d="M823.41,-274.9C845.18,-266.25 879.41,-252.3 908.5,-239 925.67,-231.15 929.49,-228.19 946.5,-220 969.3,-209.02 995.35,-196.97 1014.56,-188.19"/>
<polygon fill="#63b8ff" stroke="#63b8ff" points="1016.02,-191.37 1023.66,-184.03 1013.11,-185 1016.02,-191.37"/>
</a>
</g>
</g>
<!-- Node26 -->
<g id="Node000026" class="node">
<title>Node26</title>
<g id="a_Node000026"><a xlink:title=" ">
<polygon fill="#e0e0e0" stroke="#999999" points="1007.5,-239 955.5,-239 955.5,-220 1007.5,-220 1007.5,-239"/>
<text text-anchor="middle" x="981.5" y="-227" font-family="Helvetica,sans-Serif" font-size="10.00">cassert</text>
</a>
</g>
</g>
<!-- Node1&#45;&gt;Node26 -->
<g id="edge33_Node000001_Node000026" class="edge">
<title>Node1&#45;&gt;Node26</title>
<g id="a_edge33_Node000001_Node000026"><a xlink:title=" ">
<path fill="none" stroke="#63b8ff" d="M830.42,-274.98C861.67,-265.78 911.53,-251.1 945.34,-241.15"/>
<polygon fill="#63b8ff" stroke="#63b8ff" points="946.68,-244.4 955.29,-238.22 944.7,-237.69 946.68,-244.4"/>
</a>
</g>
</g>
<!-- Node27 -->
<g id="Node000027" class="node">
<title>Node27</title>
<g id="a_Node000027"><a xlink:title=" ">
<polygon fill="#e0e0e0" stroke="#999999" points="1081,-239 1026,-239 1026,-220 1081,-220 1081,-239"/>
<text text-anchor="middle" x="1053.5" y="-227" font-family="Helvetica,sans-Serif" font-size="10.00">fstream</text>
</a>
</g>
</g>
<!-- Node1&#45;&gt;Node27 -->
<g id="edge34_Node000001_Node000027" class="edge">
<title>Node1&#45;&gt;Node27</title>
<g id="a_edge34_Node000001_Node000027"><a xlink:title=" ">
<path fill="none" stroke="#63b8ff" d="M843.98,-274.99C885.28,-266.66 950.02,-253.42 1015.54,-239.17"/>
<polygon fill="#63b8ff" stroke="#63b8ff" points="1016.61,-242.52 1025.63,-236.97 1015.12,-235.68 1016.61,-242.52"/>
</a>
</g>
</g>
<!-- Node28 -->
<g id="Node000028" class="node">
<title>Node28</title>
<g id="a_Node000028"><a xlink:title=" ">
<polygon fill="#e0e0e0" stroke="#999999" points="1144,-239 1099,-239 1099,-220 1144,-220 1144,-239"/>
<text text-anchor="middle" x="1121.5" y="-227" font-family="Helvetica,sans-Serif" font-size="10.00">utility</text>
</a>
</g>
</g>
<!-- Node1&#45;&gt;Node28 -->
<g id="edge37_Node000001_Node000028" class="edge">
<title>Node1&#45;&gt;Node28</title>
<g id="a_edge37_Node000001_Node000028"><a xlink:title=" ">
<path fill="none" stroke="#63b8ff" d="M871.69,-274.99C928.06,-267.62 1009.4,-255.83 1088.72,-239.18"/>
<polygon fill="#63b8ff" stroke="#63b8ff" points="1089.83,-242.53 1098.89,-237.02 1088.38,-235.68 1089.83,-242.53"/>
</a>
</g>
</g>
<!-- Node3 -->
<g id="Node000003" class="node">
<title>Node3</title>
<g id="a_Node000003"><a xlink:href="Mesh_8h.html" target="_top" xlink:title=" ">
<polygon fill="white" stroke="#666666" points="622.5,-184 512.5,-184 512.5,-165 622.5,-165 622.5,-184"/>
<text text-anchor="middle" x="567.5" y="-172" font-family="Helvetica,sans-Serif" font-size="10.00">Application/Mesh.h</text>
</a>
</g>
</g>
<!-- Node2&#45;&gt;Node3 -->
<g id="edge2_Node000002_Node000003" class="edge">
<title>Node2&#45;&gt;Node3</title>
<g id="a_edge2_Node000002_Node000003"><a xlink:title=" ">
<path fill="none" stroke="#63b8ff" d="M501.19,-219.98C513.33,-211.84 531.86,-199.41 546.25,-189.76"/>
<polygon fill="#63b8ff" stroke="#63b8ff" points="548.22,-192.65 554.58,-184.17 544.32,-186.84 548.22,-192.65"/>
</a>
</g>
</g>
<!-- Node16 -->
<g id="Node000016" class="node">
<title>Node16</title>
<g id="a_Node000016"><a xlink:title=" ">
<polygon fill="#e0e0e0" stroke="#999999" points="494.5,-184 426.5,-184 426.5,-165 494.5,-165 494.5,-184"/>
<text text-anchor="middle" x="460.5" y="-172" font-family="Helvetica,sans-Serif" font-size="10.00">filesystem</text>
</a>
</g>
</g>
<!-- Node2&#45;&gt;Node16 -->
<g id="edge16_Node000002_Node000016" class="edge">
<title>Node2&#45;&gt;Node16</title>
<g id="a_edge16_Node000002_Node000016"><a xlink:title=" ">
<path fill="none" stroke="#63b8ff" d="M483.88,-219.75C480.04,-212.49 474.48,-201.95 469.74,-192.98"/>
<polygon fill="#63b8ff" stroke="#63b8ff" points="472.8,-191.3 465.04,-184.09 466.61,-194.57 472.8,-191.3"/>
</a>
</g>
</g>
<!-- Node4 -->
<g id="Node000004" class="node">
<title>Node4</title>
<g id="a_Node000004"><a xlink:href="BaseType_8h.html" target="_top" xlink:title=" ">
<polygon fill="white" stroke="#666666" points="714.5,-74 584.5,-74 584.5,-55 714.5,-55 714.5,-74"/>
<text text-anchor="middle" x="649.5" y="-62" font-family="Helvetica,sans-Serif" font-size="10.00">Application/BaseType.h</text>
</a>
</g>
</g>
<!-- Node3&#45;&gt;Node4 -->
<g id="edge3_Node000003_Node000004" class="edge">
<title>Node3&#45;&gt;Node4</title>
<g id="a_edge3_Node000003_Node000004"><a xlink:title=" ">
<path fill="none" stroke="#63b8ff" d="M592.2,-164.91C608.61,-157.87 629.16,-146.23 640.5,-129 649.2,-115.78 651.02,-97.65 650.91,-84.15"/>
<polygon fill="#63b8ff" stroke="#63b8ff" points="654.4,-83.95 650.47,-74.11 647.41,-84.25 654.4,-83.95"/>
</a>
</g>
</g>
<!-- Node8 -->
<g id="Node000008" class="node">
<title>Node8</title>
<g id="a_Node000008"><a xlink:href="ExtraDataContainer_8h.html" target="_top" xlink:title=" ">
<polygon fill="white" stroke="#666666" points="267,-129 88,-129 88,-110 267,-110 267,-129"/>
<text text-anchor="middle" x="177.5" y="-117" font-family="Helvetica,sans-Serif" font-size="10.00">Application/ExtraDataContainer.h</text>
</a>
</g>
</g>
<!-- Node3&#45;&gt;Node8 -->
<g id="edge7_Node000003_Node000008" class="edge">
<title>Node3&#45;&gt;Node8</title>
<g id="a_edge7_Node000003_Node000008"><a xlink:title=" ">
<path fill="none" stroke="#63b8ff" d="M512.45,-166.02C443.83,-156.69 326.33,-140.73 250.32,-130.4"/>
<polygon fill="#63b8ff" stroke="#63b8ff" points="250.72,-126.92 240.34,-129.04 249.78,-133.85 250.72,-126.92"/>
</a>
</g>
</g>
<!-- Node12 -->
<g id="Node000012" class="node">
<title>Node12</title>
<g id="a_Node000012"><a xlink:href="Primitive_8h.html" target="_top" xlink:title=" ">
<polygon fill="white" stroke="#666666" points="631.5,-129 503.5,-129 503.5,-110 631.5,-110 631.5,-129"/>
<text text-anchor="middle" x="567.5" y="-117" font-family="Helvetica,sans-Serif" font-size="10.00">Application/Primitive.h</text>
</a>
</g>
</g>
<!-- Node3&#45;&gt;Node12 -->
<g id="edge11_Node000003_Node000012" class="edge">
<title>Node3&#45;&gt;Node12</title>
<g id="a_edge11_Node000003_Node000012"><a xlink:title=" ">
<path fill="none" stroke="#63b8ff" d="M567.5,-164.75C567.5,-157.8 567.5,-147.85 567.5,-139.13"/>
<polygon fill="#63b8ff" stroke="#63b8ff" points="571,-139.09 567.5,-129.09 564,-139.09 571,-139.09"/>
</a>
</g>
</g>
<!-- Node14 -->
<g id="Node000014" class="node">
<title>Node14</title>
<g id="a_Node000014"><a xlink:title=" ">
<polygon fill="#e0e0e0" stroke="#999999" points="485.5,-129 427.5,-129 427.5,-110 485.5,-110 485.5,-129"/>
<text text-anchor="middle" x="456.5" y="-117" font-family="Helvetica,sans-Serif" font-size="10.00">memory</text>
</a>
</g>
</g>
<!-- Node3&#45;&gt;Node14 -->
<g id="edge14_Node000003_Node000014" class="edge">
<title>Node3&#45;&gt;Node14</title>
<g id="a_edge14_Node000003_Node000014"><a xlink:title=" ">
<path fill="none" stroke="#63b8ff" d="M549.67,-164.98C531.89,-156.5 504.35,-143.35 483.82,-133.54"/>
<polygon fill="#63b8ff" stroke="#63b8ff" points="485.19,-130.32 474.66,-129.17 482.17,-136.64 485.19,-130.32"/>
</a>
</g>
</g>
<!-- Node15 -->
<g id="Node000015" class="node">
<title>Node15</title>
<g id="a_Node000015"><a xlink:title=" ">
<polygon fill="#e0e0e0" stroke="#999999" points="409,-129 362,-129 362,-110 409,-110 409,-129"/>
<text text-anchor="middle" x="385.5" y="-117" font-family="Helvetica,sans-Serif" font-size="10.00">vector</text>
</a>
</g>
</g>
<!-- Node3&#45;&gt;Node15 -->
<g id="edge15_Node000003_Node000015" class="edge">
<title>Node3&#45;&gt;Node15</title>
<g id="a_edge15_Node000003_Node000015"><a xlink:title=" ">
<path fill="none" stroke="#63b8ff" d="M538.26,-164.98C505.75,-155.52 453.33,-140.25 419.14,-130.3"/>
<polygon fill="#63b8ff" stroke="#63b8ff" points="419.74,-126.83 409.16,-127.39 417.78,-133.55 419.74,-126.83"/>
</a>
</g>
</g>
<!-- Node5 -->
<g id="Node000005" class="node">
<title>Node5</title>
<g id="a_Node000005"><a xlink:title=" ">
<polygon fill="#e0e0e0" stroke="#999999" points="691.5,-19 613.5,-19 613.5,0 691.5,0 691.5,-19"/>
<text text-anchor="middle" x="652.5" y="-7" font-family="Helvetica,sans-Serif" font-size="10.00">glm/glm.hpp</text>
</a>
</g>
</g>
<!-- Node4&#45;&gt;Node5 -->
<g id="edge4_Node000004_Node000005" class="edge">
<title>Node4&#45;&gt;Node5</title>
<g id="a_edge4_Node000004_Node000005"><a xlink:title=" ">
<path fill="none" stroke="#63b8ff" d="M650,-54.75C650.39,-47.8 650.95,-37.85 651.45,-29.13"/>
<polygon fill="#63b8ff" stroke="#63b8ff" points="654.94,-29.27 652.01,-19.09 647.95,-28.88 654.94,-29.27"/>
</a>
</g>
</g>
<!-- Node6 -->
<g id="Node000006" class="node">
<title>Node6</title>
<g id="a_Node000006"><a xlink:title=" ">
<polygon fill="#e0e0e0" stroke="#999999" points="760.5,-19 716.5,-19 716.5,0 760.5,0 760.5,-19"/>
<text text-anchor="middle" x="738.5" y="-7" font-family="Helvetica,sans-Serif" font-size="10.00">bitset</text>
</a>
</g>
</g>
<!-- Node4&#45;&gt;Node6 -->
<g id="edge5_Node000004_Node000006" class="edge">
<title>Node4&#45;&gt;Node6</title>
<g id="a_edge5_Node000004_Node000006"><a xlink:title=" ">
<path fill="none" stroke="#63b8ff" d="M663.8,-54.98C677.6,-46.77 698.74,-34.18 715.01,-24.49"/>
<polygon fill="#63b8ff" stroke="#63b8ff" points="717.14,-27.29 723.94,-19.17 713.56,-21.28 717.14,-27.29"/>
</a>
</g>
</g>
<!-- Node7 -->
<g id="Node000007" class="node">
<title>Node7</title>
<g id="a_Node000007"><a xlink:title=" ">
<polygon fill="#e0e0e0" stroke="#999999" points="595.5,-19 545.5,-19 545.5,0 595.5,0 595.5,-19"/>
<text text-anchor="middle" x="570.5" y="-7" font-family="Helvetica,sans-Serif" font-size="10.00">cstdint</text>
</a>
</g>
</g>
<!-- Node4&#45;&gt;Node7 -->
<g id="edge6_Node000004_Node000007" class="edge">
<title>Node4&#45;&gt;Node7</title>
<g id="a_edge6_Node000004_Node000007"><a xlink:title=" ">
<path fill="none" stroke="#63b8ff" d="M636.81,-54.98C624.67,-46.84 606.14,-34.41 591.75,-24.76"/>
<polygon fill="#63b8ff" stroke="#63b8ff" points="593.68,-21.84 583.42,-19.17 589.78,-27.65 593.68,-21.84"/>
</a>
</g>
</g>
<!-- Node9 -->
<g id="Node000009" class="node">
<title>Node9</title>
<g id="a_Node000009"><a xlink:title=" ">
<polygon fill="#e0e0e0" stroke="#999999" points="161,-74 126,-74 126,-55 161,-55 161,-74"/>
<text text-anchor="middle" x="143.5" y="-62" font-family="Helvetica,sans-Serif" font-size="10.00">any</text>
</a>
</g>
</g>
<!-- Node8&#45;&gt;Node9 -->
<g id="edge8_Node000008_Node000009" class="edge">
<title>Node8&#45;&gt;Node9</title>
<g id="a_edge8_Node000008_Node000009"><a xlink:title=" ">
<path fill="none" stroke="#63b8ff" d="M171.89,-109.75C167.18,-102.42 160.33,-91.73 154.53,-82.7"/>
<polygon fill="#63b8ff" stroke="#63b8ff" points="157.36,-80.62 149.01,-74.09 151.46,-84.4 157.36,-80.62"/>
</a>
</g>
</g>
<!-- Node10 -->
<g id="Node000010" class="node">
<title>Node10</title>
<g id="a_Node000010"><a xlink:title=" ">
<polygon fill="#e0e0e0" stroke="#999999" points="244,-74 179,-74 179,-55 244,-55 244,-74"/>
<text text-anchor="middle" x="211.5" y="-62" font-family="Helvetica,sans-Serif" font-size="10.00">typeindex</text>
</a>
</g>
</g>
<!-- Node8&#45;&gt;Node10 -->
<g id="edge9_Node000008_Node000010" class="edge">
<title>Node8&#45;&gt;Node10</title>
<g id="a_edge9_Node000008_Node000010"><a xlink:title=" ">
<path fill="none" stroke="#63b8ff" d="M183.11,-109.75C187.82,-102.42 194.67,-91.73 200.47,-82.7"/>
<polygon fill="#63b8ff" stroke="#63b8ff" points="203.54,-84.4 205.99,-74.09 197.64,-80.62 203.54,-84.4"/>
</a>
</g>
</g>
<!-- Node8&#45;&gt;Node11 -->
<g id="edge10_Node000008_Node000011" class="edge">
<title>Node8&#45;&gt;Node11</title>
<g id="a_edge10_Node000008_Node000011"><a xlink:title=" ">
<path fill="none" stroke="#63b8ff" d="M156.45,-109.98C135.09,-101.34 101.8,-87.87 77.44,-78.02"/>
<polygon fill="#63b8ff" stroke="#63b8ff" points="78.51,-74.68 67.93,-74.17 75.89,-81.17 78.51,-74.68"/>
</a>
</g>
</g>
<!-- Node12&#45;&gt;Node4 -->
<g id="edge12_Node000012_Node000004" class="edge">
<title>Node12&#45;&gt;Node4</title>
<g id="a_edge12_Node000012_Node000004"><a xlink:title=" ">
<path fill="none" stroke="#63b8ff" d="M580.67,-109.98C593.27,-101.84 612.5,-89.41 627.44,-79.76"/>
<polygon fill="#63b8ff" stroke="#63b8ff" points="629.59,-82.54 636.09,-74.17 625.79,-76.66 629.59,-82.54"/>
</a>
</g>
</g>
<!-- Node13 -->
<g id="Node000013" class="node">
<title>Node13</title>
<g id="a_Node000013"><a xlink:title=" ">
<polygon fill="#e0e0e0" stroke="#999999" points="441.5,-74 399.5,-74 399.5,-55 441.5,-55 441.5,-74"/>
<text text-anchor="middle" x="420.5" y="-62" font-family="Helvetica,sans-Serif" font-size="10.00">array</text>
</a>
</g>
</g>
<!-- Node12&#45;&gt;Node13 -->
<g id="edge13_Node000012_Node000013" class="edge">
<title>Node12&#45;&gt;Node13</title>
<g id="a_edge13_Node000012_Node000013"><a xlink:title=" ">
<path fill="none" stroke="#63b8ff" d="M543.88,-109.98C518.73,-100.92 478.81,-86.53 451.23,-76.58"/>
<polygon fill="#63b8ff" stroke="#63b8ff" points="452.27,-73.23 441.67,-73.13 449.89,-79.82 452.27,-73.23"/>
</a>
</g>
</g>
<!-- Node17&#45;&gt;Node4 -->
<g id="edge18_Node000017_Node000004" class="edge">
<title>Node17&#45;&gt;Node4</title>
<g id="a_edge18_Node000017_Node000004"><a xlink:title=" ">
<path fill="none" stroke="#63b8ff" d="M330.79,-164.96C331.76,-151.1 335.8,-123.86 352.5,-110 385.32,-82.74 497.55,-72.15 574.25,-68.05"/>
<polygon fill="#63b8ff" stroke="#63b8ff" points="574.55,-71.54 584.36,-67.54 574.19,-64.55 574.55,-71.54"/>
</a>
</g>
</g>
<!-- Node17&#45;&gt;Node13 -->
<g id="edge19_Node000017_Node000013" class="edge">
<title>Node17&#45;&gt;Node13</title>
<g id="a_edge19_Node000017_Node000013"><a xlink:title=" ">
<path fill="none" stroke="#63b8ff" d="M325.49,-164.93C318.63,-151.96 308.38,-127.06 319.5,-110 334.82,-86.51 365.63,-75.34 389.21,-70.07"/>
<polygon fill="#63b8ff" stroke="#63b8ff" points="390.01,-73.48 399.13,-68.1 388.64,-66.62 390.01,-73.48"/>
</a>
</g>
</g>
<!-- Node17&#45;&gt;Node15 -->
<g id="edge21_Node000017_Node000015" class="edge">
<title>Node17&#45;&gt;Node15</title>
<g id="a_edge21_Node000017_Node000015"><a xlink:title=" ">
<path fill="none" stroke="#63b8ff" d="M339.58,-164.75C347.59,-157.03 359.46,-145.6 369.12,-136.28"/>
<polygon fill="#63b8ff" stroke="#63b8ff" points="371.81,-138.55 376.59,-129.09 366.96,-133.51 371.81,-138.55"/>
</a>
</g>
</g>
<!-- Node18 -->
<g id="Node000018" class="node">
<title>Node18</title>
<g id="a_Node000018"><a xlink:title=" ">
<polygon fill="#e0e0e0" stroke="#999999" points="69.5,-129 25.5,-129 25.5,-110 69.5,-110 69.5,-129"/>
<text text-anchor="middle" x="47.5" y="-117" font-family="Helvetica,sans-Serif" font-size="10.00">string</text>
</a>
</g>
</g>
<!-- Node17&#45;&gt;Node18 -->
<g id="edge20_Node000017_Node000018" class="edge">
<title>Node17&#45;&gt;Node18</title>
<g id="a_edge20_Node000017_Node000018"><a xlink:title=" ">
<path fill="none" stroke="#63b8ff" d="M273.4,-164.97C224.43,-157.3 151.81,-145.1 79.92,-129.15"/>
<polygon fill="#63b8ff" stroke="#63b8ff" points="80.31,-125.65 69.79,-126.88 78.78,-132.48 80.31,-125.65"/>
</a>
</g>
</g>
<!-- Node19&#45;&gt;Node3 -->
<g id="edge24_Node000019_Node000003" class="edge">
<title>Node19&#45;&gt;Node3</title>
<g id="a_edge24_Node000019_Node000003"><a xlink:title=" ">
<path fill="none" stroke="#63b8ff" d="M640.52,-219.98C627.03,-211.77 606.37,-199.18 590.46,-189.49"/>
<polygon fill="#63b8ff" stroke="#63b8ff" points="592.09,-186.38 581.73,-184.17 588.45,-192.36 592.09,-186.38"/>
</a>
</g>
</g>
<!-- Node19&#45;&gt;Node4 -->
<g id="edge23_Node000019_Node000004" class="edge">
<title>Node19&#45;&gt;Node4</title>
<g id="a_edge23_Node000019_Node000004"><a xlink:title=" ">
<path fill="none" stroke="#63b8ff" d="M655.58,-219.85C657.85,-200.25 662.6,-150.96 658.5,-110 657.65,-101.47 655.89,-92.16 654.16,-84.27"/>
<polygon fill="#63b8ff" stroke="#63b8ff" points="657.51,-83.22 651.82,-74.29 650.7,-84.82 657.51,-83.22"/>
</a>
</g>
</g>
<!-- Node20&#45;&gt;Node6 -->
<g id="edge27_Node000020_Node000006" class="edge">
<title>Node20&#45;&gt;Node6</title>
<g id="a_edge27_Node000020_Node000006"><a xlink:title=" ">
<path fill="none" stroke="#63b8ff" d="M747.96,-164.74C746.4,-139.31 741.85,-65.08 739.68,-29.69"/>
<polygon fill="#63b8ff" stroke="#63b8ff" points="743.15,-29.07 739.04,-19.31 736.16,-29.5 743.15,-29.07"/>
</a>
</g>
</g>
<!-- Node20&#45;&gt;Node12 -->
<g id="edge26_Node000020_Node000012" class="edge">
<title>Node20&#45;&gt;Node12</title>
<g id="a_edge26_Node000020_Node000012"><a xlink:title=" ">
<path fill="none" stroke="#63b8ff" d="M719.42,-164.98C688.9,-156.05 640.74,-141.94 606.84,-132.02"/>
<polygon fill="#63b8ff" stroke="#63b8ff" points="607.39,-128.53 596.81,-129.08 605.42,-135.25 607.39,-128.53"/>
</a>
</g>
</g>
<!-- Node21 -->
<g id="Node000021" class="node">
<title>Node21</title>
<g id="a_Node000021"><a xlink:title=" ">
<polygon fill="#e0e0e0" stroke="#999999" points="836,-129 771,-129 771,-110 836,-110 836,-129"/>
<text text-anchor="middle" x="803.5" y="-117" font-family="Helvetica,sans-Serif" font-size="10.00">stdexcept</text>
</a>
</g>
</g>
<!-- Node20&#45;&gt;Node21 -->
<g id="edge28_Node000020_Node000021" class="edge">
<title>Node20&#45;&gt;Node21</title>
<g id="a_edge28_Node000020_Node000021"><a xlink:title=" ">
<path fill="none" stroke="#63b8ff" d="M757.58,-164.75C765.59,-157.03 777.46,-145.6 787.12,-136.28"/>
<polygon fill="#63b8ff" stroke="#63b8ff" points="789.81,-138.55 794.59,-129.09 784.96,-133.51 789.81,-138.55"/>
</a>
</g>
</g>
<!-- Node23 -->
<g id="Node000023" class="node">
<title>Node23</title>
<g id="a_Node000023"><a xlink:title=" ">
<polygon fill="#e0e0e0" stroke="#999999" points="994.5,-184 944.5,-184 944.5,-165 994.5,-165 994.5,-184"/>
<text text-anchor="middle" x="969.5" y="-172" font-family="Helvetica,sans-Serif" font-size="10.00">format</text>
</a>
</g>
</g>
<!-- Node22&#45;&gt;Node23 -->
<g id="edge30_Node000022_Node000023" class="edge">
<title>Node22&#45;&gt;Node23</title>
<g id="a_edge30_Node000022_Node000023"><a xlink:title=" ">
<path fill="none" stroke="#63b8ff" d="M863.74,-219.98C884.2,-211.38 916.03,-197.99 939.43,-188.15"/>
<polygon fill="#63b8ff" stroke="#63b8ff" points="941.03,-191.27 948.89,-184.17 938.31,-184.82 941.03,-191.27"/>
</a>
</g>
</g>
<!-- Node22&#45;&gt;Node24 -->
<g id="edge31_Node000022_Node000024" class="edge">
<title>Node22&#45;&gt;Node24</title>
<g id="a_edge31_Node000022_Node000024"><a xlink:title=" ">
<path fill="none" stroke="#63b8ff" d="M875.47,-219.98C909.92,-210.81 964.81,-196.19 1002.19,-186.24"/>
<polygon fill="#63b8ff" stroke="#63b8ff" points="1003.47,-189.52 1012.24,-183.56 1001.67,-182.75 1003.47,-189.52"/>
</a>
</g>
</g>
<!-- Node25 -->
<g id="Node000025" class="node">
<title>Node25</title>
<g id="a_Node000025"><a xlink:title=" ">
<polygon fill="#e0e0e0" stroke="#999999" points="926,-184 833,-184 833,-165 926,-165 926,-184"/>
<text text-anchor="middle" x="879.5" y="-172" font-family="Helvetica,sans-Serif" font-size="10.00">source_location</text>
</a>
</g>
</g>
<!-- Node22&#45;&gt;Node25 -->
<g id="edge32_Node000022_Node000025" class="edge">
<title>Node22&#45;&gt;Node25</title>
<g id="a_edge32_Node000022_Node000025"><a xlink:title=" ">
<path fill="none" stroke="#63b8ff" d="M849.44,-219.75C854.48,-212.34 861.84,-201.5 868.01,-192.41"/>
<polygon fill="#63b8ff" stroke="#63b8ff" points="870.94,-194.33 873.67,-184.09 865.15,-190.39 870.94,-194.33"/>
</a>
</g>
</g>
</g>
</svg>
