<?xml version="1.0" encoding="UTF-8" standalone="no"?>
<!DOCTYPE svg PUBLIC "-//W3C//DTD SVG 1.1//EN"
 "http://www.w3.org/Graphics/SVG/1.1/DTD/svg11.dtd">
<!-- Generated by graphviz version 2.43.0 (0)
 -->
<!-- Title: App/Source/MeshLoader.cpp Pages: 1 -->
<svg width="1161pt" height="302pt"
 viewBox="0.00 0.00 1161.00 302.00" xmlns="http://www.w3.org/2000/svg" xmlns:xlink="http://www.w3.org/1999/xlink">
<g id="graph0" class="graph" transform="scale(1 1) rotate(0) translate(4 298)">
<title>App/Source/MeshLoader.cpp</title>
<!-- Node1 -->
<g id="Node000001" class="node">
<title>Node1</title>
<g id="a_Node000001"><a xlink:title=" ">
<polygon fill="#999999" stroke="#666666" points="887,-294 734,-294 734,-275 887,-275 887,-294"/>
<text text-anchor="middle" x="810.5" y="-282" font-family="Helvetica,sans-Serif" font-size="10.00">App/Source/MeshLoader.cpp</text>
</a>
</g>
</g>
<!-- Node2 -->
<g id="Node000002" class="node">
<title>Node2</title>
<g id="a_Node000002"><a xlink:href="MeshLoader_8h.html" target="_top" xlink:title=" ">
<polygon fill="white" stroke="#666666" points="568.5,-239 426.5,-239 426.5,-220 568.5,-220 568.5,-239"/>
<text text-anchor="middle" x="497.5" y="-227" font-family="Helvetica,sans-Serif" font-size="10.00">Application/MeshLoader.h</text>
</a>
</g>
</g>
<!-- Node1&#45;&gt;Node2 -->
<g id="edge1_Node000001_Node000002" class="edge">
<title>Node1&#45;&gt;Node2</title>
<g id="a_edge1_Node000001_Node000002"><a xlink:title=" ">
<path fill="none" stroke="#63b8ff" d="M760.21,-274.98C705.08,-265.65 616.65,-250.67 557.82,-240.71"/>
<polygon fill="#63b8ff" stroke="#63b8ff" points="558.37,-237.26 547.92,-239.04 557.2,-244.16 558.37,-237.26"/>
</a>
</g>
</g>
<!-- Node12 -->
<g id="Node000012" class="node">
<title>Node12</title>
<g id="a_Node000012"><a xlink:title=" ">
<polygon fill="#e0e0e0" stroke="#999999" points="93,-74 0,-74 0,-55 93,-55 93,-74"/>
<text text-anchor="middle" x="46.5" y="-62" font-family="Helvetica,sans-Serif" font-size="10.00">unordered_map</text>
</a>
</g>
</g>
<!-- Node1&#45;&gt;Node12 -->
<g id="edge37_Node000001_Node000012" class="edge">
<title>Node1&#45;&gt;Node12</title>
<g id="a_edge37_Node000001_Node000012"><a xlink:title=" ">
<path fill="none" stroke="#63b8ff" d="M733.72,-279.97C647.19,-274.97 502.64,-263.54 380.5,-239 214.81,-205.71 117.25,-264.69 16.5,-129 5.67,-114.41 17.62,-95.28 29.5,-81.85"/>
<polygon fill="#63b8ff" stroke="#63b8ff" points="32.31,-83.96 36.68,-74.31 27.25,-79.13 32.31,-83.96"/>
</a>
</g>
</g>
<!-- Node18 -->
<g id="Node000018" class="node">
<title>Node18</title>
<g id="a_Node000018"><a xlink:href="ExtraDataType_8h.html" target="_top" xlink:title=" ">
<polygon fill="white" stroke="#666666" points="408,-184 253,-184 253,-165 408,-165 408,-184"/>
<text text-anchor="middle" x="330.5" y="-172" font-family="Helvetica,sans-Serif" font-size="10.00">Application/ExtraDataType.h</text>
</a>
</g>
</g>
<!-- Node1&#45;&gt;Node18 -->
<g id="edge18_Node000001_Node000018" class="edge">
<title>Node1&#45;&gt;Node18</title>
<g id="a_edge18_Node000001_Node000018"><a xlink:title=" ">
<path fill="none" stroke="#63b8ff" d="M733.76,-279.48C636.11,-273.56 473.4,-260.79 417.5,-239 389.9,-228.24 363.15,-206.49 346.76,-191.46"/>
<polygon fill="#63b8ff" stroke="#63b8ff" points="348.86,-188.63 339.19,-184.31 344.06,-193.72 348.86,-188.63"/>
</a>
</g>
</g>
<!-- Node20 -->
<g id="Node000020" class="node">
<title>Node20</title>
<g id="a_Node000020"><a xlink:href="PrimitiveProxy_8h.html" target="_top" xlink:title=" ">
<polygon fill="white" stroke="#666666" points="740.5,-239 586.5,-239 586.5,-220 740.5,-220 740.5,-239"/>
<text text-anchor="middle" x="663.5" y="-227" font-family="Helvetica,sans-Serif" font-size="10.00">Application/PrimitiveProxy.h</text>
</a>
</g>
</g>
<!-- Node1&#45;&gt;Node20 -->
<g id="edge23_Node000001_Node000020" class="edge">
<title>Node1&#45;&gt;Node20</title>
<g id="a_edge23_Node000001_Node000020"><a xlink:title=" ">
<path fill="none" stroke="#63b8ff" d="M786.88,-274.98C762.6,-266.23 724.55,-252.51 697.13,-242.62"/>
<polygon fill="#63b8ff" stroke="#63b8ff" points="698.14,-239.27 687.55,-239.17 695.77,-245.85 698.14,-239.27"/>
</a>
</g>
</g>
<!-- Node21 -->
<g id="Node000021" class="node">
<title>Node21</title>
<g id="a_Node000021"><a xlink:href="VertexPair_8h.html" target="_top" xlink:title=" ">
<polygon fill="white" stroke="#666666" points="823.5,-184 691.5,-184 691.5,-165 823.5,-165 823.5,-184"/>
<text text-anchor="middle" x="757.5" y="-172" font-family="Helvetica,sans-Serif" font-size="10.00">Application/VertexPair.h</text>
</a>
</g>
</g>
<!-- Node1&#45;&gt;Node21 -->
<g id="edge26_Node000001_Node000021" class="edge">
<title>Node1&#45;&gt;Node21</title>
<g id="a_edge26_Node000001_Node000021"><a xlink:title=" ">
<path fill="none" stroke="#63b8ff" d="M806.27,-274.98C801.83,-266.02 794.66,-251.53 788.5,-239 780.9,-223.53 772.31,-205.93 766.1,-193.18"/>
<polygon fill="#63b8ff" stroke="#63b8ff" points="769.22,-191.59 761.7,-184.13 762.93,-194.66 769.22,-191.59"/>
</a>
</g>
</g>
<!-- Node23 -->
<g id="Node000023" class="node">
<title>Node23</title>
<g id="a_Node000023"><a xlink:href="PrintHelpers_8h.html" target="_top" xlink:title=" ">
<polygon fill="white" stroke="#666666" points="908,-239 797,-239 797,-220 908,-220 908,-239"/>
<text text-anchor="middle" x="852.5" y="-227" font-family="Helvetica,sans-Serif" font-size="10.00">Core/PrintHelpers.h</text>
</a>
</g>
</g>
<!-- Node1&#45;&gt;Node23 -->
<g id="edge30_Node000001_Node000023" class="edge">
<title>Node1&#45;&gt;Node23</title>
<g id="a_edge30_Node000001_Node000023"><a xlink:title=" ">
<path fill="none" stroke="#63b8ff" d="M817.44,-274.75C823.37,-267.26 832.07,-256.28 839.32,-247.13"/>
<polygon fill="#63b8ff" stroke="#63b8ff" points="842.23,-249.1 845.69,-239.09 836.74,-244.75 842.23,-249.1"/>
</a>
</g>
</g>
<!-- Node25 -->
<g id="Node000025" class="node">
<title>Node25</title>
<g id="a_Node000025"><a xlink:title=" ">
<polygon fill="#e0e0e0" stroke="#999999" points="1081.5,-184 1021.5,-184 1021.5,-165 1081.5,-165 1081.5,-184"/>
<text text-anchor="middle" x="1051.5" y="-172" font-family="Helvetica,sans-Serif" font-size="10.00">iostream</text>
</a>
</g>
</g>
<!-- Node1&#45;&gt;Node25 -->
<g id="edge36_Node000001_Node000025" class="edge">
<title>Node1&#45;&gt;Node25</title>
<g id="a_edge36_Node000001_Node000025"><a xlink:title=" ">
<path fill="none" stroke="#63b8ff" d="M832.41,-274.9C854.18,-266.25 888.41,-252.3 917.5,-239 934.67,-231.15 938.49,-228.19 955.5,-220 978.3,-209.02 1004.35,-196.97 1023.56,-188.19"/>
<polygon fill="#63b8ff" stroke="#63b8ff" points="1025.02,-191.37 1032.66,-184.03 1022.11,-185 1025.02,-191.37"/>
</a>
</g>
</g>
<!-- Node27 -->
<g id="Node000027" class="node">
<title>Node27</title>
<g id="a_Node000027"><a xlink:title=" ">
<polygon fill="#e0e0e0" stroke="#999999" points="1016.5,-239 964.5,-239 964.5,-220 1016.5,-220 1016.5,-239"/>
<text text-anchor="middle" x="990.5" y="-227" font-family="Helvetica,sans-Serif" font-size="10.00">cassert</text>
</a>
</g>
</g>
<!-- Node1&#45;&gt;Node27 -->
<g id="edge34_Node000001_Node000027" class="edge">
<title>Node1&#45;&gt;Node27</title>
<g id="a_edge34_Node000001_Node000027"><a xlink:title=" ">
<path fill="none" stroke="#63b8ff" d="M839.42,-274.98C870.67,-265.78 920.53,-251.1 954.34,-241.15"/>
<polygon fill="#63b8ff" stroke="#63b8ff" points="955.68,-244.4 964.29,-238.22 953.7,-237.69 955.68,-244.4"/>
</a>
</g>
</g>
<!-- Node28 -->
<g id="Node000028" class="node">
<title>Node28</title>
<g id="a_Node000028"><a xlink:title=" ">
<polygon fill="#e0e0e0" stroke="#999999" points="1090,-239 1035,-239 1035,-220 1090,-220 1090,-239"/>
<text text-anchor="middle" x="1062.5" y="-227" font-family="Helvetica,sans-Serif" font-size="10.00">fstream</text>
</a>
</g>
</g>
<!-- Node1&#45;&gt;Node28 -->
<g id="edge35_Node000001_Node000028" class="edge">
<title>Node1&#45;&gt;Node28</title>
<g id="a_edge35_Node000001_Node000028"><a xlink:title=" ">
<path fill="none" stroke="#63b8ff" d="M852.98,-274.99C894.28,-266.66 959.02,-253.42 1024.54,-239.17"/>
<polygon fill="#63b8ff" stroke="#63b8ff" points="1025.61,-242.52 1034.63,-236.97 1024.12,-235.68 1025.61,-242.52"/>
</a>
</g>
</g>
<!-- Node29 -->
<g id="Node000029" class="node">
<title>Node29</title>
<g id="a_Node000029"><a xlink:title=" ">
<polygon fill="#e0e0e0" stroke="#999999" points="1153,-239 1108,-239 1108,-220 1153,-220 1153,-239"/>
<text text-anchor="middle" x="1130.5" y="-227" font-family="Helvetica,sans-Serif" font-size="10.00">utility</text>
</a>
</g>
</g>
<!-- Node1&#45;&gt;Node29 -->
<g id="edge38_Node000001_Node000029" class="edge">
<title>Node1&#45;&gt;Node29</title>
<g id="a_edge38_Node000001_Node000029"><a xlink:title=" ">
<path fill="none" stroke="#63b8ff" d="M880.69,-274.99C937.06,-267.62 1018.4,-255.83 1097.72,-239.18"/>
<polygon fill="#63b8ff" stroke="#63b8ff" points="1098.83,-242.53 1107.89,-237.02 1097.38,-235.68 1098.83,-242.53"/>
</a>
</g>
</g>
<!-- Node3 -->
<g id="Node000003" class="node">
<title>Node3</title>
<g id="a_Node000003"><a xlink:href="Mesh_8h.html" target="_top" xlink:title=" ">
<polygon fill="white" stroke="#666666" points="622.5,-184 512.5,-184 512.5,-165 622.5,-165 622.5,-184"/>
<text text-anchor="middle" x="567.5" y="-172" font-family="Helvetica,sans-Serif" font-size="10.00">Application/Mesh.h</text>
</a>
</g>
</g>
<!-- Node2&#45;&gt;Node3 -->
<g id="edge2_Node000002_Node000003" class="edge">
<title>Node2&#45;&gt;Node3</title>
<g id="a_edge2_Node000002_Node000003"><a xlink:title=" ">
<path fill="none" stroke="#63b8ff" d="M508.75,-219.98C519.3,-212 535.3,-199.88 547.94,-190.31"/>
<polygon fill="#63b8ff" stroke="#63b8ff" points="550.19,-193 556.05,-184.17 545.96,-187.42 550.19,-193"/>
</a>
</g>
</g>
<!-- Node17 -->
<g id="Node000017" class="node">
<title>Node17</title>
<g id="a_Node000017"><a xlink:title=" ">
<polygon fill="#e0e0e0" stroke="#999999" points="494.5,-184 426.5,-184 426.5,-165 494.5,-165 494.5,-184"/>
<text text-anchor="middle" x="460.5" y="-172" font-family="Helvetica,sans-Serif" font-size="10.00">filesystem</text>
</a>
</g>
</g>
<!-- Node2&#45;&gt;Node17 -->
<g id="edge17_Node000002_Node000017" class="edge">
<title>Node2&#45;&gt;Node17</title>
<g id="a_edge17_Node000002_Node000017"><a xlink:title=" ">
<path fill="none" stroke="#63b8ff" d="M491.39,-219.75C486.22,-212.34 478.65,-201.5 472.31,-192.41"/>
<polygon fill="#63b8ff" stroke="#63b8ff" points="475.09,-190.29 466.5,-184.09 469.35,-194.29 475.09,-190.29"/>
</a>
</g>
</g>
<!-- Node4 -->
<g id="Node000004" class="node">
<title>Node4</title>
<g id="a_Node000004"><a xlink:href="BaseType_8h.html" target="_top" xlink:title=" ">
<polygon fill="white" stroke="#666666" points="661.5,-74 531.5,-74 531.5,-55 661.5,-55 661.5,-74"/>
<text text-anchor="middle" x="596.5" y="-62" font-family="Helvetica,sans-Serif" font-size="10.00">Application/BaseType.h</text>
</a>
</g>
</g>
<!-- Node3&#45;&gt;Node4 -->
<g id="edge3_Node000003_Node000004" class="edge">
<title>Node3&#45;&gt;Node4</title>
<g id="a_edge3_Node000003_Node000004"><a xlink:title=" ">
<path fill="none" stroke="#63b8ff" d="M594.07,-164.94C610.63,-158.06 630.62,-146.6 640.5,-129 650.25,-111.63 633.88,-93.05 618.42,-80.5"/>
<polygon fill="#63b8ff" stroke="#63b8ff" points="620.18,-77.44 610.09,-74.2 615.95,-83.02 620.18,-77.44"/>
</a>
</g>
</g>
<!-- Node9 -->
<g id="Node000009" class="node">
<title>Node9</title>
<g id="a_Node000009"><a xlink:href="ExtraDataContainer_8h.html" target="_top" xlink:title=" ">
<polygon fill="white" stroke="#666666" points="267,-129 88,-129 88,-110 267,-110 267,-129"/>
<text text-anchor="middle" x="177.5" y="-117" font-family="Helvetica,sans-Serif" font-size="10.00">Application/ExtraDataContainer.h</text>
</a>
</g>
</g>
<!-- Node3&#45;&gt;Node9 -->
<g id="edge8_Node000003_Node000009" class="edge">
<title>Node3&#45;&gt;Node9</title>
<g id="a_edge8_Node000003_Node000009"><a xlink:title=" ">
<path fill="none" stroke="#63b8ff" d="M512.45,-166.02C443.83,-156.69 326.33,-140.73 250.32,-130.4"/>
<polygon fill="#63b8ff" stroke="#63b8ff" points="250.72,-126.92 240.34,-129.04 249.78,-133.85 250.72,-126.92"/>
</a>
</g>
</g>
<!-- Node13 -->
<g id="Node000013" class="node">
<title>Node13</title>
<g id="a_Node000013"><a xlink:href="Primitive_8h.html" target="_top" xlink:title=" ">
<polygon fill="white" stroke="#666666" points="631.5,-129 503.5,-129 503.5,-110 631.5,-110 631.5,-129"/>
<text text-anchor="middle" x="567.5" y="-117" font-family="Helvetica,sans-Serif" font-size="10.00">Application/Primitive.h</text>
</a>
</g>
</g>
<!-- Node3&#45;&gt;Node13 -->
<g id="edge12_Node000003_Node000013" class="edge">
<title>Node3&#45;&gt;Node13</title>
<g id="a_edge12_Node000003_Node000013"><a xlink:title=" ">
<path fill="none" stroke="#63b8ff" d="M567.5,-164.75C567.5,-157.8 567.5,-147.85 567.5,-139.13"/>
<polygon fill="#63b8ff" stroke="#63b8ff" points="571,-139.09 567.5,-129.09 564,-139.09 571,-139.09"/>
</a>
</g>
</g>
<!-- Node15 -->
<g id="Node000015" class="node">
<title>Node15</title>
<g id="a_Node000015"><a xlink:title=" ">
<polygon fill="#e0e0e0" stroke="#999999" points="485.5,-129 427.5,-129 427.5,-110 485.5,-110 485.5,-129"/>
<text text-anchor="middle" x="456.5" y="-117" font-family="Helvetica,sans-Serif" font-size="10.00">memory</text>
</a>
</g>
</g>
<!-- Node3&#45;&gt;Node15 -->
<g id="edge15_Node000003_Node000015" class="edge">
<title>Node3&#45;&gt;Node15</title>
<g id="a_edge15_Node000003_Node000015"><a xlink:title=" ">
<path fill="none" stroke="#63b8ff" d="M549.67,-164.98C531.89,-156.5 504.35,-143.35 483.82,-133.54"/>
<polygon fill="#63b8ff" stroke="#63b8ff" points="485.19,-130.32 474.66,-129.17 482.17,-136.64 485.19,-130.32"/>
</a>
</g>
</g>
<!-- Node16 -->
<g id="Node000016" class="node">
<title>Node16</title>
<g id="a_Node000016"><a xlink:title=" ">
<polygon fill="#e0e0e0" stroke="#999999" points="409,-129 362,-129 362,-110 409,-110 409,-129"/>
<text text-anchor="middle" x="385.5" y="-117" font-family="Helvetica,sans-Serif" font-size="10.00">vector</text>
</a>
</g>
</g>
<!-- Node3&#45;&gt;Node16 -->
<g id="edge16_Node000003_Node000016" class="edge">
<title>Node3&#45;&gt;Node16</title>
<g id="a_edge16_Node000003_Node000016"><a xlink:title=" ">
<path fill="none" stroke="#63b8ff" d="M538.26,-164.98C505.75,-155.52 453.33,-140.25 419.14,-130.3"/>
<polygon fill="#63b8ff" stroke="#63b8ff" points="419.74,-126.83 409.16,-127.39 417.78,-133.55 419.74,-126.83"/>
</a>
</g>
</g>
<!-- Node5 -->
<g id="Node000005" class="node">
<title>Node5</title>
<g id="a_Node000005"><a xlink:title=" ">
<polygon fill="#e0e0e0" stroke="#999999" points="546.5,-19 468.5,-19 468.5,0 546.5,0 546.5,-19"/>
<text text-anchor="middle" x="507.5" y="-7" font-family="Helvetica,sans-Serif" font-size="10.00">glm/glm.hpp</text>
</a>
</g>
</g>
<!-- Node4&#45;&gt;Node5 -->
<g id="edge4_Node000004_Node000005" class="edge">
<title>Node4&#45;&gt;Node5</title>
<g id="a_edge4_Node000004_Node000005"><a xlink:title=" ">
<path fill="none" stroke="#63b8ff" d="M582.2,-54.98C568.4,-46.77 547.26,-34.18 530.99,-24.49"/>
<polygon fill="#63b8ff" stroke="#63b8ff" points="532.44,-21.28 522.06,-19.17 528.86,-27.29 532.44,-21.28"/>
</a>
</g>
</g>
<!-- Node6 -->
<g id="Node000006" class="node">
<title>Node6</title>
<g id="a_Node000006"><a xlink:title=" ">
<polygon fill="#e0e0e0" stroke="#999999" points="706,-19 565,-19 565,0 706,0 706,-19"/>
<text text-anchor="middle" x="635.5" y="-7" font-family="Helvetica,sans-Serif" font-size="10.00">glm/gtx/vector_angle.hpp</text>
</a>
</g>
</g>
<!-- Node4&#45;&gt;Node6 -->
<g id="edge5_Node000004_Node000006" class="edge">
<title>Node4&#45;&gt;Node6</title>
<g id="a_edge5_Node000004_Node000006"><a xlink:title=" ">
<path fill="none" stroke="#63b8ff" d="M602.94,-54.75C608.39,-47.34 616.36,-36.5 623.06,-27.41"/>
<polygon fill="#63b8ff" stroke="#63b8ff" points="626.07,-29.22 629.18,-19.09 620.43,-25.07 626.07,-29.22"/>
</a>
</g>
</g>
<!-- Node7 -->
<g id="Node000007" class="node">
<title>Node7</title>
<g id="a_Node000007"><a xlink:title=" ">
<polygon fill="#e0e0e0" stroke="#999999" points="768.5,-19 724.5,-19 724.5,0 768.5,0 768.5,-19"/>
<text text-anchor="middle" x="746.5" y="-7" font-family="Helvetica,sans-Serif" font-size="10.00">bitset</text>
</a>
</g>
</g>
<!-- Node4&#45;&gt;Node7 -->
<g id="edge6_Node000004_Node000007" class="edge">
<title>Node4&#45;&gt;Node7</title>
<g id="a_edge6_Node000004_Node000007"><a xlink:title=" ">
<path fill="none" stroke="#63b8ff" d="M620.6,-54.98C646.12,-45.97 686.53,-31.69 714.66,-21.75"/>
<polygon fill="#63b8ff" stroke="#63b8ff" points="716.15,-24.94 724.41,-18.3 713.82,-18.33 716.15,-24.94"/>
</a>
</g>
</g>
<!-- Node8 -->
<g id="Node000008" class="node">
<title>Node8</title>
<g id="a_Node000008"><a xlink:title=" ">
<polygon fill="#e0e0e0" stroke="#999999" points="450.5,-19 400.5,-19 400.5,0 450.5,0 450.5,-19"/>
<text text-anchor="middle" x="425.5" y="-7" font-family="Helvetica,sans-Serif" font-size="10.00">cstdint</text>
</a>
</g>
</g>
<!-- Node4&#45;&gt;Node8 -->
<g id="edge7_Node000004_Node000008" class="edge">
<title>Node4&#45;&gt;Node8</title>
<g id="a_edge7_Node000004_Node000008"><a xlink:title=" ">
<path fill="none" stroke="#63b8ff" d="M569.03,-54.98C539.55,-45.85 492.65,-31.31 460.54,-21.36"/>
<polygon fill="#63b8ff" stroke="#63b8ff" points="461.26,-17.92 450.68,-18.3 459.19,-24.61 461.26,-17.92"/>
</a>
</g>
</g>
<!-- Node10 -->
<g id="Node000010" class="node">
<title>Node10</title>
<g id="a_Node000010"><a xlink:title=" ">
<polygon fill="#e0e0e0" stroke="#999999" points="161,-74 126,-74 126,-55 161,-55 161,-74"/>
<text text-anchor="middle" x="143.5" y="-62" font-family="Helvetica,sans-Serif" font-size="10.00">any</text>
</a>
</g>
</g>
<!-- Node9&#45;&gt;Node10 -->
<g id="edge9_Node000009_Node000010" class="edge">
<title>Node9&#45;&gt;Node10</title>
<g id="a_edge9_Node000009_Node000010"><a xlink:title=" ">
<path fill="none" stroke="#63b8ff" d="M171.89,-109.75C167.18,-102.42 160.33,-91.73 154.53,-82.7"/>
<polygon fill="#63b8ff" stroke="#63b8ff" points="157.36,-80.62 149.01,-74.09 151.46,-84.4 157.36,-80.62"/>
</a>
</g>
</g>
<!-- Node11 -->
<g id="Node000011" class="node">
<title>Node11</title>
<g id="a_Node000011"><a xlink:title=" ">
<polygon fill="#e0e0e0" stroke="#999999" points="244,-74 179,-74 179,-55 244,-55 244,-74"/>
<text text-anchor="middle" x="211.5" y="-62" font-family="Helvetica,sans-Serif" font-size="10.00">typeindex</text>
</a>
</g>
</g>
<!-- Node9&#45;&gt;Node11 -->
<g id="edge10_Node000009_Node000011" class="edge">
<title>Node9&#45;&gt;Node11</title>
<g id="a_edge10_Node000009_Node000011"><a xlink:title=" ">
<path fill="none" stroke="#63b8ff" d="M183.11,-109.75C187.82,-102.42 194.67,-91.73 200.47,-82.7"/>
<polygon fill="#63b8ff" stroke="#63b8ff" points="203.54,-84.4 205.99,-74.09 197.64,-80.62 203.54,-84.4"/>
</a>
</g>
</g>
<!-- Node9&#45;&gt;Node12 -->
<g id="edge11_Node000009_Node000012" class="edge">
<title>Node9&#45;&gt;Node12</title>
<g id="a_edge11_Node000009_Node000012"><a xlink:title=" ">
<path fill="none" stroke="#63b8ff" d="M156.45,-109.98C135.09,-101.34 101.8,-87.87 77.44,-78.02"/>
<polygon fill="#63b8ff" stroke="#63b8ff" points="78.51,-74.68 67.93,-74.17 75.89,-81.17 78.51,-74.68"/>
</a>
</g>
</g>
<!-- Node13&#45;&gt;Node4 -->
<g id="edge13_Node000013_Node000004" class="edge">
<title>Node13&#45;&gt;Node4</title>
<g id="a_edge13_Node000013_Node000004"><a xlink:title=" ">
<path fill="none" stroke="#63b8ff" d="M572.29,-109.75C576.26,-102.49 582.03,-91.95 586.93,-82.98"/>
<polygon fill="#63b8ff" stroke="#63b8ff" points="590.07,-84.54 591.8,-74.09 583.93,-81.18 590.07,-84.54"/>
</a>
</g>
</g>
<!-- Node14 -->
<g id="Node000014" class="node">
<title>Node14</title>
<g id="a_Node000014"><a xlink:title=" ">
<polygon fill="#e0e0e0" stroke="#999999" points="414.5,-74 372.5,-74 372.5,-55 414.5,-55 414.5,-74"/>
<text text-anchor="middle" x="393.5" y="-62" font-family="Helvetica,sans-Serif" font-size="10.00">array</text>
</a>
</g>
</g>
<!-- Node13&#45;&gt;Node14 -->
<g id="edge14_Node000013_Node000014" class="edge">
<title>Node13&#45;&gt;Node14</title>
<g id="a_edge14_Node000013_Node000014"><a xlink:title=" ">
<path fill="none" stroke="#63b8ff" d="M539.54,-109.98C508.08,-100.4 457.1,-84.87 424.45,-74.93"/>
<polygon fill="#63b8ff" stroke="#63b8ff" points="425.13,-71.48 414.55,-71.91 423.09,-78.17 425.13,-71.48"/>
</a>
</g>
</g>
<!-- Node18&#45;&gt;Node4 -->
<g id="edge19_Node000018_Node000004" class="edge">
<title>Node18&#45;&gt;Node4</title>
<g id="a_edge19_Node000018_Node000004"><a xlink:title=" ">
<path fill="none" stroke="#63b8ff" d="M330.87,-164.57C331.97,-150.66 336.2,-123.97 352.5,-110 377.39,-88.66 459,-76.96 521.04,-70.99"/>
<polygon fill="#63b8ff" stroke="#63b8ff" points="521.58,-74.45 531.21,-70.04 520.93,-67.48 521.58,-74.45"/>
</a>
</g>
</g>
<!-- Node18&#45;&gt;Node14 -->
<g id="edge20_Node000018_Node000014" class="edge">
<title>Node18&#45;&gt;Node14</title>
<g id="a_edge20_Node000018_Node000014"><a xlink:title=" ">
<path fill="none" stroke="#63b8ff" d="M325.55,-164.67C319.05,-151.8 309.59,-127.53 319.5,-110 328.79,-93.57 346.83,-82.54 362.78,-75.57"/>
<polygon fill="#63b8ff" stroke="#63b8ff" points="364.36,-78.71 372.34,-71.75 361.75,-72.21 364.36,-78.71"/>
</a>
</g>
</g>
<!-- Node18&#45;&gt;Node16 -->
<g id="edge22_Node000018_Node000016" class="edge">
<title>Node18&#45;&gt;Node16</title>
<g id="a_edge22_Node000018_Node000016"><a xlink:title=" ">
<path fill="none" stroke="#63b8ff" d="M339.58,-164.75C347.59,-157.03 359.46,-145.6 369.12,-136.28"/>
<polygon fill="#63b8ff" stroke="#63b8ff" points="371.81,-138.55 376.59,-129.09 366.96,-133.51 371.81,-138.55"/>
</a>
</g>
</g>
<!-- Node19 -->
<g id="Node000019" class="node">
<title>Node19</title>
<g id="a_Node000019"><a xlink:title=" ">
<polygon fill="#e0e0e0" stroke="#999999" points="69.5,-129 25.5,-129 25.5,-110 69.5,-110 69.5,-129"/>
<text text-anchor="middle" x="47.5" y="-117" font-family="Helvetica,sans-Serif" font-size="10.00">string</text>
</a>
</g>
</g>
<!-- Node18&#45;&gt;Node19 -->
<g id="edge21_Node000018_Node000019" class="edge">
<title>Node18&#45;&gt;Node19</title>
<g id="a_edge21_Node000018_Node000019"><a xlink:title=" ">
<path fill="none" stroke="#63b8ff" d="M273.4,-164.97C224.43,-157.3 151.81,-145.1 79.92,-129.15"/>
<polygon fill="#63b8ff" stroke="#63b8ff" points="80.31,-125.65 69.79,-126.88 78.78,-132.48 80.31,-125.65"/>
</a>
</g>
</g>
<!-- Node20&#45;&gt;Node3 -->
<g id="edge25_Node000020_Node000003" class="edge">
<title>Node20&#45;&gt;Node3</title>
<g id="a_edge25_Node000020_Node000003"><a xlink:title=" ">
<path fill="none" stroke="#63b8ff" d="M648.08,-219.98C633.05,-211.69 609.96,-198.94 592.34,-189.22"/>
<polygon fill="#63b8ff" stroke="#63b8ff" points="593.65,-185.94 583.2,-184.17 590.27,-192.07 593.65,-185.94"/>
</a>
</g>
</g>
<!-- Node20&#45;&gt;Node4 -->
<g id="edge24_Node000020_Node000004" class="edge">
<title>Node20&#45;&gt;Node4</title>
<g id="a_edge24_Node000020_Node000004"><a xlink:title=" ">
<path fill="none" stroke="#63b8ff" d="M665.34,-219.79C669.21,-199.23 676.31,-146.62 656.5,-110 649.37,-96.82 636.45,-86.47 624.43,-79.08"/>
<polygon fill="#63b8ff" stroke="#63b8ff" points="625.94,-75.92 615.51,-74.01 622.47,-82 625.94,-75.92"/>
</a>
</g>
</g>
<!-- Node21&#45;&gt;Node7 -->
<g id="edge28_Node000021_Node000007" class="edge">
<title>Node21&#45;&gt;Node7</title>
<g id="a_edge28_Node000021_Node000007"><a xlink:title=" ">
<path fill="none" stroke="#63b8ff" d="M756.91,-164.74C755.19,-139.31 750.18,-65.08 747.8,-29.69"/>
<polygon fill="#63b8ff" stroke="#63b8ff" points="751.26,-29.05 747.09,-19.31 744.28,-29.52 751.26,-29.05"/>
</a>
</g>
</g>
<!-- Node21&#45;&gt;Node13 -->
<g id="edge27_Node000021_Node000013" class="edge">
<title>Node21&#45;&gt;Node13</title>
<g id="a_edge27_Node000021_Node000013"><a xlink:title=" ">
<path fill="none" stroke="#63b8ff" d="M726.97,-164.98C694.8,-156.01 643.94,-141.82 608.33,-131.89"/>
<polygon fill="#63b8ff" stroke="#63b8ff" points="608.84,-128.4 598.27,-129.08 606.96,-135.14 608.84,-128.4"/>
</a>
</g>
</g>
<!-- Node22 -->
<g id="Node000022" class="node">
<title>Node22</title>
<g id="a_Node000022"><a xlink:title=" ">
<polygon fill="#e0e0e0" stroke="#999999" points="840,-129 775,-129 775,-110 840,-110 840,-129"/>
<text text-anchor="middle" x="807.5" y="-117" font-family="Helvetica,sans-Serif" font-size="10.00">stdexcept</text>
</a>
</g>
</g>
<!-- Node21&#45;&gt;Node22 -->
<g id="edge29_Node000021_Node000022" class="edge">
<title>Node21&#45;&gt;Node22</title>
<g id="a_edge29_Node000021_Node000022"><a xlink:title=" ">
<path fill="none" stroke="#63b8ff" d="M765.76,-164.75C772.96,-157.11 783.61,-145.82 792.35,-136.56"/>
<polygon fill="#63b8ff" stroke="#63b8ff" points="795.08,-138.76 799.4,-129.09 789.99,-133.96 795.08,-138.76"/>
</a>
</g>
</g>
<!-- Node24 -->
<g id="Node000024" class="node">
<title>Node24</title>
<g id="a_Node000024"><a xlink:title=" ">
<polygon fill="#e0e0e0" stroke="#999999" points="1003.5,-184 953.5,-184 953.5,-165 1003.5,-165 1003.5,-184"/>
<text text-anchor="middle" x="978.5" y="-172" font-family="Helvetica,sans-Serif" font-size="10.00">format</text>
</a>
</g>
</g>
<!-- Node23&#45;&gt;Node24 -->
<g id="edge31_Node000023_Node000024" class="edge">
<title>Node23&#45;&gt;Node24</title>
<g id="a_edge31_Node000023_Node000024"><a xlink:title=" ">
<path fill="none" stroke="#63b8ff" d="M872.74,-219.98C893.2,-211.38 925.03,-197.99 948.43,-188.15"/>
<polygon fill="#63b8ff" stroke="#63b8ff" points="950.03,-191.27 957.89,-184.17 947.31,-184.82 950.03,-191.27"/>
</a>
</g>
</g>
<!-- Node23&#45;&gt;Node25 -->
<g id="edge32_Node000023_Node000025" class="edge">
<title>Node23&#45;&gt;Node25</title>
<g id="a_edge32_Node000023_Node000025"><a xlink:title=" ">
<path fill="none" stroke="#63b8ff" d="M884.47,-219.98C918.92,-210.81 973.81,-196.19 1011.19,-186.24"/>
<polygon fill="#63b8ff" stroke="#63b8ff" points="1012.47,-189.52 1021.24,-183.56 1010.67,-182.75 1012.47,-189.52"/>
</a>
</g>
</g>
<!-- Node26 -->
<g id="Node000026" class="node">
<title>Node26</title>
<g id="a_Node000026"><a xlink:title=" ">
<polygon fill="#e0e0e0" stroke="#999999" points="935,-184 842,-184 842,-165 935,-165 935,-184"/>
<text text-anchor="middle" x="888.5" y="-172" font-family="Helvetica,sans-Serif" font-size="10.00">source_location</text>
</a>
</g>
</g>
<!-- Node23&#45;&gt;Node26 -->
<g id="edge33_Node000023_Node000026" class="edge">
<title>Node23&#45;&gt;Node26</title>
<g id="a_edge33_Node000023_Node000026"><a xlink:title=" ">
<path fill="none" stroke="#63b8ff" d="M858.44,-219.75C863.48,-212.34 870.84,-201.5 877.01,-192.41"/>
<polygon fill="#63b8ff" stroke="#63b8ff" points="879.94,-194.33 882.67,-184.09 874.15,-190.39 879.94,-194.33"/>
</a>
</g>
</g>
</g>
</svg>
