<?xml version="1.0" encoding="UTF-8" standalone="no"?>
<!DOCTYPE svg PUBLIC "-//W3C//DTD SVG 1.1//EN"
 "http://www.w3.org/Graphics/SVG/1.1/DTD/svg11.dtd">
<!-- Generated by graphviz version 2.43.0 (0)
 -->
<!-- Title: App/Test/Source/Mesh_utest.cpp Pages: 1 -->
<svg width="997pt" height="368pt"
 viewBox="0.00 0.00 997.16 368.00" xmlns="http://www.w3.org/2000/svg" xmlns:xlink="http://www.w3.org/1999/xlink">
<g id="graph0" class="graph" transform="scale(1 1) rotate(0) translate(4 364)">
<title>App/Test/Source/Mesh_utest.cpp</title>
<!-- Node1 -->
<g id="Node000001" class="node">
<title>Node1</title>
<g id="a_Node000001"><a xlink:title=" ">
<polygon fill="#999999" stroke="#666666" points="577.66,-360 454.66,-360 454.66,-330 577.66,-330 577.66,-360"/>
<text text-anchor="start" x="462.66" y="-348" font-family="Helvetica,sans-Serif" font-size="10.00">App/Test/Source/Mesh</text>
<text text-anchor="middle" x="516.16" y="-337" font-family="Helvetica,sans-Serif" font-size="10.00">_utest.cpp</text>
</a>
</g>
</g>
<!-- Node2 -->
<g id="Node000002" class="node">
<title>Node2</title>
<g id="a_Node000002"><a xlink:href="ExtraDataType_8h.html" target="_top" xlink:title=" ">
<polygon fill="white" stroke="#666666" points="722.66,-184 567.66,-184 567.66,-165 722.66,-165 722.66,-184"/>
<text text-anchor="middle" x="645.16" y="-172" font-family="Helvetica,sans-Serif" font-size="10.00">Application/ExtraDataType.h</text>
</a>
</g>
</g>
<!-- Node1&#45;&gt;Node2 -->
<g id="edge1_Node000001_Node000002" class="edge">
<title>Node1&#45;&gt;Node2</title>
<g id="a_edge1_Node000001_Node000002"><a xlink:title=" ">
<path fill="none" stroke="#63b8ff" d="M577.79,-340.72C658.34,-335.37 793.9,-322.36 834.16,-294 856.92,-277.96 857.28,-265.98 864.16,-239 866.25,-230.82 869.5,-226.54 864.16,-220 847.44,-199.54 786.5,-188.25 733.14,-182.17"/>
<polygon fill="#63b8ff" stroke="#63b8ff" points="733.25,-178.66 722.93,-181.06 732.5,-185.62 733.25,-178.66"/>
</a>
</g>
</g>
<!-- Node11 -->
<g id="Node000011" class="node">
<title>Node11</title>
<g id="a_Node000011"><a xlink:href="MathHelpers_8h.html" target="_top" xlink:title=" ">
<polygon fill="white" stroke="#666666" points="825.16,-294 679.16,-294 679.16,-275 825.16,-275 825.16,-294"/>
<text text-anchor="middle" x="752.16" y="-282" font-family="Helvetica,sans-Serif" font-size="10.00">Application/MathHelpers.h</text>
</a>
</g>
</g>
<!-- Node1&#45;&gt;Node11 -->
<g id="edge10_Node000001_Node000011" class="edge">
<title>Node1&#45;&gt;Node11</title>
<g id="a_edge10_Node000001_Node000011"><a xlink:title=" ">
<path fill="none" stroke="#63b8ff" d="M572.69,-329.99C614.12,-319.72 669.58,-305.97 707.83,-296.49"/>
<polygon fill="#63b8ff" stroke="#63b8ff" points="708.79,-299.86 717.65,-294.05 707.1,-293.06 708.79,-299.86"/>
</a>
</g>
</g>
<!-- Node14 -->
<g id="Node000014" class="node">
<title>Node14</title>
<g id="a_Node000014"><a xlink:href="Mesh_8h.html" target="_top" xlink:title=" ">
<polygon fill="white" stroke="#666666" points="434.16,-184 324.16,-184 324.16,-165 434.16,-165 434.16,-184"/>
<text text-anchor="middle" x="379.16" y="-172" font-family="Helvetica,sans-Serif" font-size="10.00">Application/Mesh.h</text>
</a>
</g>
</g>
<!-- Node1&#45;&gt;Node14 -->
<g id="edge14_Node000001_Node000014" class="edge">
<title>Node1&#45;&gt;Node14</title>
<g id="a_edge14_Node000001_Node000014"><a xlink:title=" ">
<path fill="none" stroke="#63b8ff" d="M502.87,-329.8C484.54,-309.98 450.73,-272.68 424.16,-239 412.17,-223.81 399.51,-205.74 390.68,-192.76"/>
<polygon fill="#63b8ff" stroke="#63b8ff" points="393.49,-190.67 385,-184.33 387.69,-194.58 393.49,-190.67"/>
</a>
</g>
</g>
<!-- Node21 -->
<g id="Node000021" class="node">
<title>Node21</title>
<g id="a_Node000021"><a xlink:href="MeshIntegrity_8h.html" target="_top" xlink:title=" ">
<polygon fill="white" stroke="#666666" points="245.66,-239 96.66,-239 96.66,-220 245.66,-220 245.66,-239"/>
<text text-anchor="middle" x="171.16" y="-227" font-family="Helvetica,sans-Serif" font-size="10.00">Application/MeshIntegrity.h</text>
</a>
</g>
</g>
<!-- Node1&#45;&gt;Node21 -->
<g id="edge25_Node000001_Node000021" class="edge">
<title>Node1&#45;&gt;Node21</title>
<g id="a_edge25_Node000001_Node000021"><a xlink:title=" ">
<path fill="none" stroke="#63b8ff" d="M454.37,-339.09C378.98,-332.17 256.79,-317.68 218.16,-294 200.49,-283.17 187.3,-263 179.46,-248.29"/>
<polygon fill="#63b8ff" stroke="#63b8ff" points="182.5,-246.54 174.9,-239.16 176.24,-249.67 182.5,-246.54"/>
</a>
</g>
</g>
<!-- Node22 -->
<g id="Node000022" class="node">
<title>Node22</title>
<g id="a_Node000022"><a xlink:href="MeshLoader_8h.html" target="_top" xlink:title=" ">
<polygon fill="white" stroke="#666666" points="369.16,-294 227.16,-294 227.16,-275 369.16,-275 369.16,-294"/>
<text text-anchor="middle" x="298.16" y="-282" font-family="Helvetica,sans-Serif" font-size="10.00">Application/MeshLoader.h</text>
</a>
</g>
</g>
<!-- Node1&#45;&gt;Node22 -->
<g id="edge28_Node000001_Node000022" class="edge">
<title>Node1&#45;&gt;Node22</title>
<g id="a_edge28_Node000001_Node000022"><a xlink:title=" ">
<path fill="none" stroke="#63b8ff" d="M463.94,-329.99C425.99,-319.8 375.31,-306.2 340.01,-296.73"/>
<polygon fill="#63b8ff" stroke="#63b8ff" points="340.6,-293.27 330.03,-294.05 338.78,-300.03 340.6,-293.27"/>
</a>
</g>
</g>
<!-- Node24 -->
<g id="Node000024" class="node">
<title>Node24</title>
<g id="a_Node000024"><a xlink:href="PrimitiveProxy_8h.html" target="_top" xlink:title=" ">
<polygon fill="white" stroke="#666666" points="617.16,-239 463.16,-239 463.16,-220 617.16,-220 617.16,-239"/>
<text text-anchor="middle" x="540.16" y="-227" font-family="Helvetica,sans-Serif" font-size="10.00">Application/PrimitiveProxy.h</text>
</a>
</g>
</g>
<!-- Node1&#45;&gt;Node24 -->
<g id="edge31_Node000001_Node000024" class="edge">
<title>Node1&#45;&gt;Node24</title>
<g id="a_edge31_Node000001_Node000024"><a xlink:title=" ">
<path fill="none" stroke="#63b8ff" d="M502.68,-329.88C491.02,-315.85 477.3,-293.78 486.16,-275 492.17,-262.26 503.82,-251.92 514.76,-244.44"/>
<polygon fill="#63b8ff" stroke="#63b8ff" points="516.7,-247.36 523.27,-239.05 512.95,-241.44 516.7,-247.36"/>
</a>
</g>
</g>
<!-- Node25 -->
<g id="Node000025" class="node">
<title>Node25</title>
<g id="a_Node000025"><a xlink:href="TestHelpers_8h.html" target="_top" xlink:title=" ">
<polygon fill="white" stroke="#666666" points="635.16,-294 495.16,-294 495.16,-275 635.16,-275 635.16,-294"/>
<text text-anchor="middle" x="565.16" y="-282" font-family="Helvetica,sans-Serif" font-size="10.00">Application/TestHelpers.h</text>
</a>
</g>
</g>
<!-- Node1&#45;&gt;Node25 -->
<g id="edge34_Node000001_Node000025" class="edge">
<title>Node1&#45;&gt;Node25</title>
<g id="a_edge34_Node000001_Node000025"><a xlink:title=" ">
<path fill="none" stroke="#63b8ff" d="M528.02,-329.84C535.06,-321.43 544.02,-310.74 551.37,-301.96"/>
<polygon fill="#63b8ff" stroke="#63b8ff" points="554.08,-304.18 557.82,-294.27 548.71,-299.68 554.08,-304.18"/>
</a>
</g>
</g>
<!-- Node26 -->
<g id="Node000026" class="node">
<title>Node26</title>
<g id="a_Node000026"><a xlink:title=" ">
<polygon fill="#e0e0e0" stroke="#999999" points="989.16,-294 911.16,-294 911.16,-275 989.16,-275 989.16,-294"/>
<text text-anchor="middle" x="950.16" y="-282" font-family="Helvetica,sans-Serif" font-size="10.00">gtest/gtest.h</text>
</a>
</g>
</g>
<!-- Node1&#45;&gt;Node26 -->
<g id="edge38_Node000001_Node000026" class="edge">
<title>Node1&#45;&gt;Node26</title>
<g id="a_edge38_Node000001_Node000026"><a xlink:title=" ">
<path fill="none" stroke="#63b8ff" d="M577.93,-336.44C653.36,-327.09 784.77,-310.38 897.16,-294 898.43,-293.81 899.72,-293.62 901.02,-293.43"/>
<polygon fill="#63b8ff" stroke="#63b8ff" points="901.75,-296.86 911.1,-291.89 900.69,-289.94 901.75,-296.86"/>
</a>
</g>
</g>
<!-- Node3 -->
<g id="Node000003" class="node">
<title>Node3</title>
<g id="a_Node000003"><a xlink:href="BaseType_8h.html" target="_top" xlink:title=" ">
<polygon fill="white" stroke="#666666" points="627.16,-74 497.16,-74 497.16,-55 627.16,-55 627.16,-74"/>
<text text-anchor="middle" x="562.16" y="-62" font-family="Helvetica,sans-Serif" font-size="10.00">Application/BaseType.h</text>
</a>
</g>
</g>
<!-- Node2&#45;&gt;Node3 -->
<g id="edge2_Node000002_Node000003" class="edge">
<title>Node2&#45;&gt;Node3</title>
<g id="a_edge2_Node000002_Node000003"><a xlink:title=" ">
<path fill="none" stroke="#63b8ff" d="M655.03,-164.85C668.23,-152.22 688.61,-128.23 676.16,-110 665.19,-93.94 647.49,-83.68 629.27,-77.12"/>
<polygon fill="#63b8ff" stroke="#63b8ff" points="630.32,-73.78 619.73,-74.01 628.16,-80.43 630.32,-73.78"/>
</a>
</g>
</g>
<!-- Node8 -->
<g id="Node000008" class="node">
<title>Node8</title>
<g id="a_Node000008"><a xlink:title=" ">
<polygon fill="#e0e0e0" stroke="#999999" points="414.16,-74 372.16,-74 372.16,-55 414.16,-55 414.16,-74"/>
<text text-anchor="middle" x="393.16" y="-62" font-family="Helvetica,sans-Serif" font-size="10.00">array</text>
</a>
</g>
</g>
<!-- Node2&#45;&gt;Node8 -->
<g id="edge7_Node000002_Node000008" class="edge">
<title>Node2&#45;&gt;Node8</title>
<g id="a_edge7_Node000002_Node000008"><a xlink:title=" ">
<path fill="none" stroke="#63b8ff" d="M632.7,-164.87C613.11,-151.61 573.57,-126.07 537.16,-110 499.47,-93.37 453.67,-80.36 424,-72.81"/>
<polygon fill="#63b8ff" stroke="#63b8ff" points="424.76,-69.4 414.21,-70.37 423.07,-76.19 424.76,-69.4"/>
</a>
</g>
</g>
<!-- Node9 -->
<g id="Node000009" class="node">
<title>Node9</title>
<g id="a_Node000009"><a xlink:title=" ">
<polygon fill="#e0e0e0" stroke="#999999" points="667.16,-129 623.16,-129 623.16,-110 667.16,-110 667.16,-129"/>
<text text-anchor="middle" x="645.16" y="-117" font-family="Helvetica,sans-Serif" font-size="10.00">string</text>
</a>
</g>
</g>
<!-- Node2&#45;&gt;Node9 -->
<g id="edge8_Node000002_Node000009" class="edge">
<title>Node2&#45;&gt;Node9</title>
<g id="a_edge8_Node000002_Node000009"><a xlink:title=" ">
<path fill="none" stroke="#63b8ff" d="M645.16,-164.75C645.16,-157.8 645.16,-147.85 645.16,-139.13"/>
<polygon fill="#63b8ff" stroke="#63b8ff" points="648.66,-139.09 645.16,-129.09 641.66,-139.09 648.66,-139.09"/>
</a>
</g>
</g>
<!-- Node10 -->
<g id="Node000010" class="node">
<title>Node10</title>
<g id="a_Node000010"><a xlink:title=" ">
<polygon fill="#e0e0e0" stroke="#999999" points="528.66,-129 481.66,-129 481.66,-110 528.66,-110 528.66,-129"/>
<text text-anchor="middle" x="505.16" y="-117" font-family="Helvetica,sans-Serif" font-size="10.00">vector</text>
</a>
</g>
</g>
<!-- Node2&#45;&gt;Node10 -->
<g id="edge9_Node000002_Node000010" class="edge">
<title>Node2&#45;&gt;Node10</title>
<g id="a_edge9_Node000002_Node000010"><a xlink:title=" ">
<path fill="none" stroke="#63b8ff" d="M622.67,-164.98C599.64,-156.27 563.62,-142.63 537.53,-132.75"/>
<polygon fill="#63b8ff" stroke="#63b8ff" points="538.65,-129.44 528.06,-129.17 536.17,-135.98 538.65,-129.44"/>
</a>
</g>
</g>
<!-- Node4 -->
<g id="Node000004" class="node">
<title>Node4</title>
<g id="a_Node000004"><a xlink:title=" ">
<polygon fill="#e0e0e0" stroke="#999999" points="601.16,-19 523.16,-19 523.16,0 601.16,0 601.16,-19"/>
<text text-anchor="middle" x="562.16" y="-7" font-family="Helvetica,sans-Serif" font-size="10.00">glm/glm.hpp</text>
</a>
</g>
</g>
<!-- Node3&#45;&gt;Node4 -->
<g id="edge3_Node000003_Node000004" class="edge">
<title>Node3&#45;&gt;Node4</title>
<g id="a_edge3_Node000003_Node000004"><a xlink:title=" ">
<path fill="none" stroke="#63b8ff" d="M562.16,-54.75C562.16,-47.8 562.16,-37.85 562.16,-29.13"/>
<polygon fill="#63b8ff" stroke="#63b8ff" points="565.66,-29.09 562.16,-19.09 558.66,-29.09 565.66,-29.09"/>
</a>
</g>
</g>
<!-- Node5 -->
<g id="Node000005" class="node">
<title>Node5</title>
<g id="a_Node000005"><a xlink:title=" ">
<polygon fill="#e0e0e0" stroke="#999999" points="760.66,-19 619.66,-19 619.66,0 760.66,0 760.66,-19"/>
<text text-anchor="middle" x="690.16" y="-7" font-family="Helvetica,sans-Serif" font-size="10.00">glm/gtx/vector_angle.hpp</text>
</a>
</g>
</g>
<!-- Node3&#45;&gt;Node5 -->
<g id="edge4_Node000003_Node000005" class="edge">
<title>Node3&#45;&gt;Node5</title>
<g id="a_edge4_Node000003_Node000005"><a xlink:title=" ">
<path fill="none" stroke="#63b8ff" d="M582.72,-54.98C603.59,-46.34 636.13,-32.87 659.93,-23.02"/>
<polygon fill="#63b8ff" stroke="#63b8ff" points="661.32,-26.23 669.22,-19.17 658.64,-19.76 661.32,-26.23"/>
</a>
</g>
</g>
<!-- Node6 -->
<g id="Node000006" class="node">
<title>Node6</title>
<g id="a_Node000006"><a xlink:title=" ">
<polygon fill="#e0e0e0" stroke="#999999" points="505.16,-19 461.16,-19 461.16,0 505.16,0 505.16,-19"/>
<text text-anchor="middle" x="483.16" y="-7" font-family="Helvetica,sans-Serif" font-size="10.00">bitset</text>
</a>
</g>
</g>
<!-- Node3&#45;&gt;Node6 -->
<g id="edge5_Node000003_Node000006" class="edge">
<title>Node3&#45;&gt;Node6</title>
<g id="a_edge5_Node000003_Node000006"><a xlink:title=" ">
<path fill="none" stroke="#63b8ff" d="M549.47,-54.98C537.33,-46.84 518.8,-34.41 504.41,-24.76"/>
<polygon fill="#63b8ff" stroke="#63b8ff" points="506.34,-21.84 496.08,-19.17 502.44,-27.65 506.34,-21.84"/>
</a>
</g>
</g>
<!-- Node7 -->
<g id="Node000007" class="node">
<title>Node7</title>
<g id="a_Node000007"><a xlink:title=" ">
<polygon fill="#e0e0e0" stroke="#999999" points="280.16,-19 230.16,-19 230.16,0 280.16,0 280.16,-19"/>
<text text-anchor="middle" x="255.16" y="-7" font-family="Helvetica,sans-Serif" font-size="10.00">cstdint</text>
</a>
</g>
</g>
<!-- Node3&#45;&gt;Node7 -->
<g id="edge6_Node000003_Node000007" class="edge">
<title>Node3&#45;&gt;Node7</title>
<g id="a_edge6_Node000003_Node000007"><a xlink:title=" ">
<path fill="none" stroke="#63b8ff" d="M512.83,-54.98C450.57,-44.24 345.02,-26.01 290.34,-16.57"/>
<polygon fill="#63b8ff" stroke="#63b8ff" points="290.88,-13.11 280.43,-14.86 289.69,-20.01 290.88,-13.11"/>
</a>
</g>
</g>
<!-- Node11&#45;&gt;Node3 -->
<g id="edge11_Node000011_Node000003" class="edge">
<title>Node11&#45;&gt;Node3</title>
<g id="a_edge11_Node000011_Node000003"><a xlink:title=" ">
<path fill="none" stroke="#63b8ff" d="M748.23,-274.84C744.43,-266.03 738.85,-251.86 736.16,-239 729.41,-206.74 742.22,-196.05 731.16,-165 721.11,-136.77 716.16,-127.94 692.16,-110 670.66,-93.93 642.95,-83.39 618.65,-76.63"/>
<polygon fill="#63b8ff" stroke="#63b8ff" points="619.38,-73.2 608.82,-74.04 617.6,-79.97 619.38,-73.2"/>
</a>
</g>
</g>
<!-- Node12 -->
<g id="Node000012" class="node">
<title>Node12</title>
<g id="a_Node000012"><a xlink:title=" ">
<polygon fill="#e0e0e0" stroke="#999999" points="792.66,-239 745.66,-239 745.66,-220 792.66,-220 792.66,-239"/>
<text text-anchor="middle" x="769.16" y="-227" font-family="Helvetica,sans-Serif" font-size="10.00">cmath</text>
</a>
</g>
</g>
<!-- Node11&#45;&gt;Node12 -->
<g id="edge12_Node000011_Node000012" class="edge">
<title>Node11&#45;&gt;Node12</title>
<g id="a_edge12_Node000011_Node000012"><a xlink:title=" ">
<path fill="none" stroke="#63b8ff" d="M754.97,-274.75C757.22,-267.72 760.46,-257.62 763.27,-248.84"/>
<polygon fill="#63b8ff" stroke="#63b8ff" points="766.68,-249.68 766.4,-239.09 760.02,-247.54 766.68,-249.68"/>
</a>
</g>
</g>
<!-- Node13 -->
<g id="Node000013" class="node">
<title>Node13</title>
<g id="a_Node000013"><a xlink:title=" ">
<polygon fill="#e0e0e0" stroke="#999999" points="855.16,-239 811.16,-239 811.16,-220 855.16,-220 855.16,-239"/>
<text text-anchor="middle" x="833.16" y="-227" font-family="Helvetica,sans-Serif" font-size="10.00">limits</text>
</a>
</g>
</g>
<!-- Node11&#45;&gt;Node13 -->
<g id="edge13_Node000011_Node000013" class="edge">
<title>Node11&#45;&gt;Node13</title>
<g id="a_edge13_Node000011_Node000013"><a xlink:title=" ">
<path fill="none" stroke="#63b8ff" d="M765.17,-274.98C777.62,-266.84 796.61,-254.41 811.37,-244.76"/>
<polygon fill="#63b8ff" stroke="#63b8ff" points="813.46,-247.57 819.91,-239.17 809.62,-241.72 813.46,-247.57"/>
</a>
</g>
</g>
<!-- Node14&#45;&gt;Node3 -->
<g id="edge15_Node000014_Node000003" class="edge">
<title>Node14&#45;&gt;Node3</title>
<g id="a_edge15_Node000014_Node000003"><a xlink:title=" ">
<path fill="none" stroke="#63b8ff" d="M390.56,-164.94C407.77,-152.21 441.61,-127.86 472.16,-110 492.09,-98.34 515.49,-86.84 533.44,-78.44"/>
<polygon fill="#63b8ff" stroke="#63b8ff" points="535.18,-81.49 542.79,-74.12 532.24,-75.14 535.18,-81.49"/>
</a>
</g>
</g>
<!-- Node14&#45;&gt;Node10 -->
<g id="edge24_Node000014_Node000010" class="edge">
<title>Node14&#45;&gt;Node10</title>
<g id="a_edge24_Node000014_Node000010"><a xlink:title=" ">
<path fill="none" stroke="#63b8ff" d="M399.4,-164.98C419.85,-156.38 451.69,-142.99 475.09,-133.15"/>
<polygon fill="#63b8ff" stroke="#63b8ff" points="476.69,-136.27 484.55,-129.17 473.97,-129.82 476.69,-136.27"/>
</a>
</g>
</g>
<!-- Node15 -->
<g id="Node000015" class="node">
<title>Node15</title>
<g id="a_Node000015"><a xlink:href="ExtraDataContainer_8h.html" target="_top" xlink:title=" ">
<polygon fill="white" stroke="#666666" points="202.66,-129 23.66,-129 23.66,-110 202.66,-110 202.66,-129"/>
<text text-anchor="middle" x="113.16" y="-117" font-family="Helvetica,sans-Serif" font-size="10.00">Application/ExtraDataContainer.h</text>
</a>
</g>
</g>
<!-- Node14&#45;&gt;Node15 -->
<g id="edge16_Node000014_Node000015" class="edge">
<title>Node14&#45;&gt;Node15</title>
<g id="a_edge16_Node000014_Node000015"><a xlink:title=" ">
<path fill="none" stroke="#63b8ff" d="M336.42,-164.98C290.12,-155.76 216.18,-141.03 166.2,-131.07"/>
<polygon fill="#63b8ff" stroke="#63b8ff" points="166.72,-127.6 156.23,-129.08 165.35,-134.47 166.72,-127.6"/>
</a>
</g>
</g>
<!-- Node19 -->
<g id="Node000019" class="node">
<title>Node19</title>
<g id="a_Node000019"><a xlink:href="Primitive_8h.html" target="_top" xlink:title=" ">
<polygon fill="white" stroke="#666666" points="425.16,-129 297.16,-129 297.16,-110 425.16,-110 425.16,-129"/>
<text text-anchor="middle" x="361.16" y="-117" font-family="Helvetica,sans-Serif" font-size="10.00">Application/Primitive.h</text>
</a>
</g>
</g>
<!-- Node14&#45;&gt;Node19 -->
<g id="edge20_Node000014_Node000019" class="edge">
<title>Node14&#45;&gt;Node19</title>
<g id="a_edge20_Node000014_Node000019"><a xlink:title=" ">
<path fill="none" stroke="#63b8ff" d="M376.19,-164.75C373.8,-157.72 370.37,-147.62 367.39,-138.84"/>
<polygon fill="#63b8ff" stroke="#63b8ff" points="370.61,-137.43 364.08,-129.09 363.98,-139.68 370.61,-137.43"/>
</a>
</g>
</g>
<!-- Node20 -->
<g id="Node000020" class="node">
<title>Node20</title>
<g id="a_Node000020"><a xlink:title=" ">
<polygon fill="#e0e0e0" stroke="#999999" points="279.16,-129 221.16,-129 221.16,-110 279.16,-110 279.16,-129"/>
<text text-anchor="middle" x="250.16" y="-117" font-family="Helvetica,sans-Serif" font-size="10.00">memory</text>
</a>
</g>
</g>
<!-- Node14&#45;&gt;Node20 -->
<g id="edge23_Node000014_Node000020" class="edge">
<title>Node14&#45;&gt;Node20</title>
<g id="a_edge23_Node000014_Node000020"><a xlink:title=" ">
<path fill="none" stroke="#63b8ff" d="M358.43,-164.98C337.4,-156.34 304.61,-142.87 280.62,-133.02"/>
<polygon fill="#63b8ff" stroke="#63b8ff" points="281.84,-129.73 271.26,-129.17 279.18,-136.21 281.84,-129.73"/>
</a>
</g>
</g>
<!-- Node16 -->
<g id="Node000016" class="node">
<title>Node16</title>
<g id="a_Node000016"><a xlink:title=" ">
<polygon fill="#e0e0e0" stroke="#999999" points="169.66,-74 134.66,-74 134.66,-55 169.66,-55 169.66,-74"/>
<text text-anchor="middle" x="152.16" y="-62" font-family="Helvetica,sans-Serif" font-size="10.00">any</text>
</a>
</g>
</g>
<!-- Node15&#45;&gt;Node16 -->
<g id="edge17_Node000015_Node000016" class="edge">
<title>Node15&#45;&gt;Node16</title>
<g id="a_edge17_Node000015_Node000016"><a xlink:title=" ">
<path fill="none" stroke="#63b8ff" d="M119.6,-109.75C125.05,-102.34 133.02,-91.5 139.71,-82.41"/>
<polygon fill="#63b8ff" stroke="#63b8ff" points="142.73,-84.22 145.84,-74.09 137.09,-80.07 142.73,-84.22"/>
</a>
</g>
</g>
<!-- Node17 -->
<g id="Node000017" class="node">
<title>Node17</title>
<g id="a_Node000017"><a xlink:title=" ">
<polygon fill="#e0e0e0" stroke="#999999" points="252.66,-74 187.66,-74 187.66,-55 252.66,-55 252.66,-74"/>
<text text-anchor="middle" x="220.16" y="-62" font-family="Helvetica,sans-Serif" font-size="10.00">typeindex</text>
</a>
</g>
</g>
<!-- Node15&#45;&gt;Node17 -->
<g id="edge18_Node000015_Node000017" class="edge">
<title>Node15&#45;&gt;Node17</title>
<g id="a_edge18_Node000015_Node000017"><a xlink:title=" ">
<path fill="none" stroke="#63b8ff" d="M130.35,-109.98C147.41,-101.54 173.79,-88.47 193.55,-78.68"/>
<polygon fill="#63b8ff" stroke="#63b8ff" points="195.25,-81.75 202.65,-74.17 192.14,-75.47 195.25,-81.75"/>
</a>
</g>
</g>
<!-- Node18 -->
<g id="Node000018" class="node">
<title>Node18</title>
<g id="a_Node000018"><a xlink:title=" ">
<polygon fill="#e0e0e0" stroke="#999999" points="116.66,-74 23.66,-74 23.66,-55 116.66,-55 116.66,-74"/>
<text text-anchor="middle" x="70.16" y="-62" font-family="Helvetica,sans-Serif" font-size="10.00">unordered_map</text>
</a>
</g>
</g>
<!-- Node15&#45;&gt;Node18 -->
<g id="edge19_Node000015_Node000018" class="edge">
<title>Node15&#45;&gt;Node18</title>
<g id="a_edge19_Node000015_Node000018"><a xlink:title=" ">
<path fill="none" stroke="#63b8ff" d="M106.06,-109.75C99.98,-102.26 91.07,-91.28 83.65,-82.13"/>
<polygon fill="#63b8ff" stroke="#63b8ff" points="86.15,-79.65 77.13,-74.09 80.71,-84.06 86.15,-79.65"/>
</a>
</g>
</g>
<!-- Node19&#45;&gt;Node3 -->
<g id="edge21_Node000019_Node000003" class="edge">
<title>Node19&#45;&gt;Node3</title>
<g id="a_edge21_Node000019_Node000003"><a xlink:title=" ">
<path fill="none" stroke="#63b8ff" d="M393.45,-109.98C427.78,-100.93 482.22,-86.58 519.93,-76.64"/>
<polygon fill="#63b8ff" stroke="#63b8ff" points="520.83,-80.02 529.61,-74.08 519.05,-73.25 520.83,-80.02"/>
</a>
</g>
</g>
<!-- Node19&#45;&gt;Node8 -->
<g id="edge22_Node000019_Node000008" class="edge">
<title>Node19&#45;&gt;Node8</title>
<g id="a_edge22_Node000019_Node000008"><a xlink:title=" ">
<path fill="none" stroke="#63b8ff" d="M366.44,-109.75C370.87,-102.42 377.32,-91.73 382.78,-82.7"/>
<polygon fill="#63b8ff" stroke="#63b8ff" points="385.8,-84.46 387.97,-74.09 379.81,-80.84 385.8,-84.46"/>
</a>
</g>
</g>
<!-- Node21&#45;&gt;Node7 -->
<g id="edge27_Node000021_Node000007" class="edge">
<title>Node21&#45;&gt;Node7</title>
<g id="a_edge27_Node000021_Node000007"><a xlink:title=" ">
<path fill="none" stroke="#63b8ff" d="M142.45,-219.89C105.11,-206.97 41.46,-178.62 14.16,-129 -1.69,-100.18 -6.88,-80.28 14.16,-55 39.9,-24.07 159.16,-14.55 219.7,-11.69"/>
<polygon fill="#63b8ff" stroke="#63b8ff" points="220.1,-15.18 229.94,-11.24 219.79,-8.18 220.1,-15.18"/>
</a>
</g>
</g>
<!-- Node21&#45;&gt;Node14 -->
<g id="edge26_Node000021_Node000014" class="edge">
<title>Node21&#45;&gt;Node14</title>
<g id="a_edge26_Node000021_Node000014"><a xlink:title=" ">
<path fill="none" stroke="#63b8ff" d="M204.58,-219.98C240.1,-210.93 296.43,-196.58 335.46,-186.64"/>
<polygon fill="#63b8ff" stroke="#63b8ff" points="336.65,-189.94 345.48,-184.08 334.92,-183.16 336.65,-189.94"/>
</a>
</g>
</g>
<!-- Node22&#45;&gt;Node14 -->
<g id="edge29_Node000022_Node000014" class="edge">
<title>Node22&#45;&gt;Node14</title>
<g id="a_edge29_Node000022_Node000014"><a xlink:title=" ">
<path fill="none" stroke="#63b8ff" d="M294.31,-274.96C289.11,-262.03 281.64,-237.19 292.16,-220 301.56,-204.64 318.12,-194.36 334.29,-187.6"/>
<polygon fill="#63b8ff" stroke="#63b8ff" points="335.61,-190.84 343.71,-184.01 333.12,-184.3 335.61,-190.84"/>
</a>
</g>
</g>
<!-- Node23 -->
<g id="Node000023" class="node">
<title>Node23</title>
<g id="a_Node000023"><a xlink:title=" ">
<polygon fill="#e0e0e0" stroke="#999999" points="369.16,-239 301.16,-239 301.16,-220 369.16,-220 369.16,-239"/>
<text text-anchor="middle" x="335.16" y="-227" font-family="Helvetica,sans-Serif" font-size="10.00">filesystem</text>
</a>
</g>
</g>
<!-- Node22&#45;&gt;Node23 -->
<g id="edge30_Node000022_Node000023" class="edge">
<title>Node22&#45;&gt;Node23</title>
<g id="a_edge30_Node000022_Node000023"><a xlink:title=" ">
<path fill="none" stroke="#63b8ff" d="M304.27,-274.75C309.44,-267.34 317,-256.5 323.35,-247.41"/>
<polygon fill="#63b8ff" stroke="#63b8ff" points="326.31,-249.29 329.16,-239.09 320.57,-245.29 326.31,-249.29"/>
</a>
</g>
</g>
<!-- Node24&#45;&gt;Node3 -->
<g id="edge32_Node000024_Node000003" class="edge">
<title>Node24&#45;&gt;Node3</title>
<g id="a_edge32_Node000024_Node000003"><a xlink:title=" ">
<path fill="none" stroke="#63b8ff" d="M541.34,-219.74C544.79,-194.2 554.88,-119.43 559.63,-84.23"/>
<polygon fill="#63b8ff" stroke="#63b8ff" points="563.1,-84.69 560.97,-74.31 556.16,-83.75 563.1,-84.69"/>
</a>
</g>
</g>
<!-- Node24&#45;&gt;Node14 -->
<g id="edge33_Node000024_Node000014" class="edge">
<title>Node24&#45;&gt;Node14</title>
<g id="a_edge33_Node000024_Node000014"><a xlink:title=" ">
<path fill="none" stroke="#63b8ff" d="M514.29,-219.98C487.38,-211.13 445.04,-197.19 414.93,-187.28"/>
<polygon fill="#63b8ff" stroke="#63b8ff" points="415.82,-183.88 405.23,-184.08 413.63,-190.53 415.82,-183.88"/>
</a>
</g>
</g>
<!-- Node25&#45;&gt;Node2 -->
<g id="edge35_Node000025_Node000002" class="edge">
<title>Node25&#45;&gt;Node2</title>
<g id="a_edge35_Node000025_Node000002"><a xlink:title=" ">
<path fill="none" stroke="#63b8ff" d="M582.59,-274.88C596.32,-267.24 614.95,-254.84 626.16,-239 635.61,-225.64 640.42,-207.53 642.83,-194.07"/>
<polygon fill="#63b8ff" stroke="#63b8ff" points="646.31,-194.47 644.35,-184.06 639.39,-193.43 646.31,-194.47"/>
</a>
</g>
</g>
<!-- Node25&#45;&gt;Node14 -->
<g id="edge36_Node000025_Node000014" class="edge">
<title>Node25&#45;&gt;Node14</title>
<g id="a_edge36_Node000025_Node000014"><a xlink:title=" ">
<path fill="none" stroke="#63b8ff" d="M536.62,-274.88C513.47,-267.25 480.48,-254.85 454.16,-239 431.71,-225.49 409.21,-205.34 394.79,-191.37"/>
<polygon fill="#63b8ff" stroke="#63b8ff" points="397.24,-188.87 387.67,-184.34 392.32,-193.85 397.24,-188.87"/>
</a>
</g>
</g>
<!-- Node25&#45;&gt;Node24 -->
<g id="edge37_Node000025_Node000024" class="edge">
<title>Node25&#45;&gt;Node24</title>
<g id="a_edge37_Node000025_Node000024"><a xlink:title=" ">
<path fill="none" stroke="#63b8ff" d="M561.03,-274.75C557.64,-267.57 552.74,-257.18 548.54,-248.27"/>
<polygon fill="#63b8ff" stroke="#63b8ff" points="551.64,-246.64 544.21,-239.09 545.31,-249.63 551.64,-246.64"/>
</a>
</g>
</g>
</g>
</svg>
