<?xml version="1.0" encoding="UTF-8" standalone="no"?>
<!DOCTYPE svg PUBLIC "-//W3C//DTD SVG 1.1//EN"
 "http://www.w3.org/Graphics/SVG/1.1/DTD/svg11.dtd">
<!-- Generated by graphviz version 2.43.0 (0)
 -->
<!-- Title: App/Test/Source/MeshCirculator_utest.cpp Pages: 1 -->
<svg width="600pt" height="368pt"
 viewBox="0.00 0.00 599.50 368.00" xmlns="http://www.w3.org/2000/svg" xmlns:xlink="http://www.w3.org/1999/xlink">
<g id="graph0" class="graph" transform="scale(1 1) rotate(0) translate(4 364)">
<title>App/Test/Source/MeshCirculator_utest.cpp</title>
<!-- Node1 -->
<g id="Node000001" class="node">
<title>Node1</title>
<g id="a_Node000001"><a xlink:title=" ">
<polygon fill="#999999" stroke="#666666" points="305,-360 135,-360 135,-330 305,-330 305,-360"/>
<text text-anchor="start" x="143" y="-348" font-family="Helvetica,sans-Serif" font-size="10.00">App/Test/Source/MeshCirculator</text>
<text text-anchor="middle" x="220" y="-337" font-family="Helvetica,sans-Serif" font-size="10.00">_utest.cpp</text>
</a>
</g>
</g>
<!-- Node2 -->
<g id="Node000002" class="node">
<title>Node2</title>
<g id="a_Node000002"><a xlink:href="Mesh_8h.html" target="_top" xlink:title=" ">
<polygon fill="white" stroke="#666666" points="252,-184 142,-184 142,-165 252,-165 252,-184"/>
<text text-anchor="middle" x="197" y="-172" font-family="Helvetica,sans-Serif" font-size="10.00">Application/Mesh.h</text>
</a>
</g>
</g>
<!-- Node1&#45;&gt;Node2 -->
<g id="edge1_Node000001_Node000002" class="edge">
<title>Node1&#45;&gt;Node2</title>
<g id="a_edge1_Node000001_Node000002"><a xlink:title=" ">
<path fill="none" stroke="#63b8ff" d="M218.08,-329.92C213.95,-299.65 204.21,-228.35 199.56,-194.27"/>
<polygon fill="#63b8ff" stroke="#63b8ff" points="203.02,-193.69 198.2,-184.25 196.08,-194.64 203.02,-193.69"/>
</a>
</g>
</g>
<!-- Node14 -->
<g id="Node000014" class="node">
<title>Node14</title>
<g id="a_Node000014"><a xlink:href="TestHelpers_8h.html" target="_top" xlink:title=" ">
<polygon fill="white" stroke="#666666" points="191.5,-294 108.5,-294 108.5,-275 191.5,-275 191.5,-294"/>
<text text-anchor="middle" x="150" y="-282" font-family="Helvetica,sans-Serif" font-size="10.00">TestHelpers.h</text>
</a>
</g>
</g>
<!-- Node1&#45;&gt;Node14 -->
<g id="edge14_Node000001_Node000014" class="edge">
<title>Node1&#45;&gt;Node14</title>
<g id="a_edge14_Node000001_Node000014"><a xlink:title=" ">
<path fill="none" stroke="#63b8ff" d="M203.05,-329.84C192.58,-321.09 179.14,-309.85 168.41,-300.88"/>
<polygon fill="#63b8ff" stroke="#63b8ff" points="170.41,-297.99 160.49,-294.27 165.92,-303.36 170.41,-297.99"/>
</a>
</g>
</g>
<!-- Node16 -->
<g id="Node000016" class="node">
<title>Node16</title>
<g id="a_Node000016"><a xlink:title=" ">
<polygon fill="#e0e0e0" stroke="#999999" points="326,-294 248,-294 248,-275 326,-275 326,-294"/>
<text text-anchor="middle" x="287" y="-282" font-family="Helvetica,sans-Serif" font-size="10.00">gtest/gtest.h</text>
</a>
</g>
</g>
<!-- Node1&#45;&gt;Node16 -->
<g id="edge19_Node000001_Node000016" class="edge">
<title>Node1&#45;&gt;Node16</title>
<g id="a_edge19_Node000001_Node000016"><a xlink:title=" ">
<path fill="none" stroke="#63b8ff" d="M236.22,-329.84C246.24,-321.09 259.11,-309.85 269.38,-300.88"/>
<polygon fill="#63b8ff" stroke="#63b8ff" points="271.73,-303.48 276.96,-294.27 267.13,-298.21 271.73,-303.48"/>
</a>
</g>
</g>
<!-- Node3 -->
<g id="Node000003" class="node">
<title>Node3</title>
<g id="a_Node000003"><a xlink:href="BaseType_8h.html" target="_top" xlink:title=" ">
<polygon fill="white" stroke="#666666" points="150,-74 20,-74 20,-55 150,-55 150,-74"/>
<text text-anchor="middle" x="85" y="-62" font-family="Helvetica,sans-Serif" font-size="10.00">Application/BaseType.h</text>
</a>
</g>
</g>
<!-- Node2&#45;&gt;Node3 -->
<g id="edge2_Node000002_Node000003" class="edge">
<title>Node2&#45;&gt;Node3</title>
<g id="a_edge2_Node000002_Node000003"><a xlink:title=" ">
<path fill="none" stroke="#63b8ff" d="M163.49,-164.93C143.6,-158.22 119.36,-146.95 104,-129 93.36,-116.57 88.68,-98.36 86.62,-84.62"/>
<polygon fill="#63b8ff" stroke="#63b8ff" points="90.06,-83.89 85.43,-74.36 83.11,-84.7 90.06,-83.89"/>
</a>
</g>
</g>
<!-- Node6 -->
<g id="Node000006" class="node">
<title>Node6</title>
<g id="a_Node000006"><a xlink:href="ExtraDataContainer_8h.html" target="_top" xlink:title=" ">
<polygon fill="white" stroke="#666666" points="580.5,-129 401.5,-129 401.5,-110 580.5,-110 580.5,-129"/>
<text text-anchor="middle" x="491" y="-117" font-family="Helvetica,sans-Serif" font-size="10.00">Application/ExtraDataContainer.h</text>
</a>
</g>
</g>
<!-- Node2&#45;&gt;Node6 -->
<g id="edge5_Node000002_Node000006" class="edge">
<title>Node2&#45;&gt;Node6</title>
<g id="a_edge5_Node000002_Node000006"><a xlink:title=" ">
<path fill="none" stroke="#63b8ff" d="M244.24,-164.98C295.73,-155.7 378.16,-140.84 433.41,-130.88"/>
<polygon fill="#63b8ff" stroke="#63b8ff" points="434.17,-134.3 443.39,-129.08 432.93,-127.41 434.17,-134.3"/>
</a>
</g>
</g>
<!-- Node10 -->
<g id="Node000010" class="node">
<title>Node10</title>
<g id="a_Node000010"><a xlink:href="Primitive_8h.html" target="_top" xlink:title=" ">
<polygon fill="white" stroke="#666666" points="383,-129 255,-129 255,-110 383,-110 383,-129"/>
<text text-anchor="middle" x="319" y="-117" font-family="Helvetica,sans-Serif" font-size="10.00">Application/Primitive.h</text>
</a>
</g>
</g>
<!-- Node2&#45;&gt;Node10 -->
<g id="edge9_Node000002_Node000010" class="edge">
<title>Node2&#45;&gt;Node10</title>
<g id="a_edge9_Node000002_Node000010"><a xlink:title=" ">
<path fill="none" stroke="#63b8ff" d="M216.6,-164.98C236.32,-156.42 266.95,-143.11 289.58,-133.28"/>
<polygon fill="#63b8ff" stroke="#63b8ff" points="291.26,-136.37 299.04,-129.17 288.48,-129.94 291.26,-136.37"/>
</a>
</g>
</g>
<!-- Node12 -->
<g id="Node000012" class="node">
<title>Node12</title>
<g id="a_Node000012"><a xlink:title=" ">
<polygon fill="#e0e0e0" stroke="#999999" points="171,-129 113,-129 113,-110 171,-110 171,-129"/>
<text text-anchor="middle" x="142" y="-117" font-family="Helvetica,sans-Serif" font-size="10.00">memory</text>
</a>
</g>
</g>
<!-- Node2&#45;&gt;Node12 -->
<g id="edge12_Node000002_Node000012" class="edge">
<title>Node2&#45;&gt;Node12</title>
<g id="a_edge12_Node000002_Node000012"><a xlink:title=" ">
<path fill="none" stroke="#63b8ff" d="M187.92,-164.75C179.91,-157.03 168.04,-145.6 158.38,-136.28"/>
<polygon fill="#63b8ff" stroke="#63b8ff" points="160.54,-133.51 150.91,-129.09 155.69,-138.55 160.54,-133.51"/>
</a>
</g>
</g>
<!-- Node13 -->
<g id="Node000013" class="node">
<title>Node13</title>
<g id="a_Node000013"><a xlink:title=" ">
<polygon fill="#e0e0e0" stroke="#999999" points="236.5,-129 189.5,-129 189.5,-110 236.5,-110 236.5,-129"/>
<text text-anchor="middle" x="213" y="-117" font-family="Helvetica,sans-Serif" font-size="10.00">vector</text>
</a>
</g>
</g>
<!-- Node2&#45;&gt;Node13 -->
<g id="edge13_Node000002_Node000013" class="edge">
<title>Node2&#45;&gt;Node13</title>
<g id="a_edge13_Node000002_Node000013"><a xlink:title=" ">
<path fill="none" stroke="#63b8ff" d="M199.64,-164.75C201.76,-157.72 204.81,-147.62 207.46,-138.84"/>
<polygon fill="#63b8ff" stroke="#63b8ff" points="210.87,-139.67 210.41,-129.09 204.17,-137.65 210.87,-139.67"/>
</a>
</g>
</g>
<!-- Node4 -->
<g id="Node000004" class="node">
<title>Node4</title>
<g id="a_Node000004"><a xlink:title=" ">
<polygon fill="#e0e0e0" stroke="#999999" points="83,-19 5,-19 5,0 83,0 83,-19"/>
<text text-anchor="middle" x="44" y="-7" font-family="Helvetica,sans-Serif" font-size="10.00">glm/glm.hpp</text>
</a>
</g>
</g>
<!-- Node3&#45;&gt;Node4 -->
<g id="edge3_Node000003_Node000004" class="edge">
<title>Node3&#45;&gt;Node4</title>
<g id="a_edge3_Node000003_Node000004"><a xlink:title=" ">
<path fill="none" stroke="#63b8ff" d="M78.23,-54.75C72.44,-47.26 63.94,-36.28 56.86,-27.13"/>
<polygon fill="#63b8ff" stroke="#63b8ff" points="59.53,-24.86 50.64,-19.09 53.99,-29.14 59.53,-24.86"/>
</a>
</g>
</g>
<!-- Node5 -->
<g id="Node000005" class="node">
<title>Node5</title>
<g id="a_Node000005"><a xlink:title=" ">
<polygon fill="#e0e0e0" stroke="#999999" points="151,-19 101,-19 101,0 151,0 151,-19"/>
<text text-anchor="middle" x="126" y="-7" font-family="Helvetica,sans-Serif" font-size="10.00">cstdint</text>
</a>
</g>
</g>
<!-- Node3&#45;&gt;Node5 -->
<g id="edge4_Node000003_Node000005" class="edge">
<title>Node3&#45;&gt;Node5</title>
<g id="a_edge4_Node000003_Node000005"><a xlink:title=" ">
<path fill="none" stroke="#63b8ff" d="M91.77,-54.75C97.56,-47.26 106.06,-36.28 113.14,-27.13"/>
<polygon fill="#63b8ff" stroke="#63b8ff" points="116.01,-29.14 119.36,-19.09 110.47,-24.86 116.01,-29.14"/>
</a>
</g>
</g>
<!-- Node7 -->
<g id="Node000007" class="node">
<title>Node7</title>
<g id="a_Node000007"><a xlink:title=" ">
<polygon fill="#e0e0e0" stroke="#999999" points="508.5,-74 473.5,-74 473.5,-55 508.5,-55 508.5,-74"/>
<text text-anchor="middle" x="491" y="-62" font-family="Helvetica,sans-Serif" font-size="10.00">any</text>
</a>
</g>
</g>
<!-- Node6&#45;&gt;Node7 -->
<g id="edge6_Node000006_Node000007" class="edge">
<title>Node6&#45;&gt;Node7</title>
<g id="a_edge6_Node000006_Node000007"><a xlink:title=" ">
<path fill="none" stroke="#63b8ff" d="M491,-109.75C491,-102.8 491,-92.85 491,-84.13"/>
<polygon fill="#63b8ff" stroke="#63b8ff" points="494.5,-84.09 491,-74.09 487.5,-84.09 494.5,-84.09"/>
</a>
</g>
</g>
<!-- Node8 -->
<g id="Node000008" class="node">
<title>Node8</title>
<g id="a_Node000008"><a xlink:title=" ">
<polygon fill="#e0e0e0" stroke="#999999" points="591.5,-74 526.5,-74 526.5,-55 591.5,-55 591.5,-74"/>
<text text-anchor="middle" x="559" y="-62" font-family="Helvetica,sans-Serif" font-size="10.00">typeindex</text>
</a>
</g>
</g>
<!-- Node6&#45;&gt;Node8 -->
<g id="edge7_Node000006_Node000008" class="edge">
<title>Node6&#45;&gt;Node8</title>
<g id="a_edge7_Node000006_Node000008"><a xlink:title=" ">
<path fill="none" stroke="#63b8ff" d="M501.93,-109.98C512.08,-102.07 527.42,-90.11 539.65,-80.58"/>
<polygon fill="#63b8ff" stroke="#63b8ff" points="542.14,-83.08 547.88,-74.17 537.84,-77.56 542.14,-83.08"/>
</a>
</g>
</g>
<!-- Node9 -->
<g id="Node000009" class="node">
<title>Node9</title>
<g id="a_Node000009"><a xlink:title=" ">
<polygon fill="#e0e0e0" stroke="#999999" points="455.5,-74 362.5,-74 362.5,-55 455.5,-55 455.5,-74"/>
<text text-anchor="middle" x="409" y="-62" font-family="Helvetica,sans-Serif" font-size="10.00">unordered_map</text>
</a>
</g>
</g>
<!-- Node6&#45;&gt;Node9 -->
<g id="edge8_Node000006_Node000009" class="edge">
<title>Node6&#45;&gt;Node9</title>
<g id="a_edge8_Node000006_Node000009"><a xlink:title=" ">
<path fill="none" stroke="#63b8ff" d="M477.83,-109.98C465.23,-101.84 446,-89.41 431.06,-79.76"/>
<polygon fill="#63b8ff" stroke="#63b8ff" points="432.71,-76.66 422.41,-74.17 428.91,-82.54 432.71,-76.66"/>
</a>
</g>
</g>
<!-- Node10&#45;&gt;Node3 -->
<g id="edge10_Node000010_Node000003" class="edge">
<title>Node10&#45;&gt;Node3</title>
<g id="a_edge10_Node000010_Node000003"><a xlink:title=" ">
<path fill="none" stroke="#63b8ff" d="M281.4,-109.98C241.01,-100.84 176.72,-86.27 132.77,-76.32"/>
<polygon fill="#63b8ff" stroke="#63b8ff" points="133.42,-72.88 122.89,-74.08 131.87,-79.7 133.42,-72.88"/>
</a>
</g>
</g>
<!-- Node11 -->
<g id="Node000011" class="node">
<title>Node11</title>
<g id="a_Node000011"><a xlink:title=" ">
<polygon fill="#e0e0e0" stroke="#999999" points="340,-74 298,-74 298,-55 340,-55 340,-74"/>
<text text-anchor="middle" x="319" y="-62" font-family="Helvetica,sans-Serif" font-size="10.00">array</text>
</a>
</g>
</g>
<!-- Node10&#45;&gt;Node11 -->
<g id="edge11_Node000010_Node000011" class="edge">
<title>Node10&#45;&gt;Node11</title>
<g id="a_edge11_Node000010_Node000011"><a xlink:title=" ">
<path fill="none" stroke="#63b8ff" d="M319,-109.75C319,-102.8 319,-92.85 319,-84.13"/>
<polygon fill="#63b8ff" stroke="#63b8ff" points="322.5,-84.09 319,-74.09 315.5,-84.09 322.5,-84.09"/>
</a>
</g>
</g>
<!-- Node14&#45;&gt;Node2 -->
<g id="edge15_Node000014_Node000002" class="edge">
<title>Node14&#45;&gt;Node2</title>
<g id="a_edge15_Node000014_Node000002"><a xlink:title=" ">
<path fill="none" stroke="#63b8ff" d="M153.85,-274.66C161.53,-257.01 178.9,-217.09 189.11,-193.64"/>
<polygon fill="#63b8ff" stroke="#63b8ff" points="192.45,-194.72 193.23,-184.16 186.03,-191.93 192.45,-194.72"/>
</a>
</g>
</g>
<!-- Node15 -->
<g id="Node000015" class="node">
<title>Node15</title>
<g id="a_Node000015"><a xlink:href="PrimitiveProxy_8h.html" target="_top" xlink:title=" ">
<polygon fill="white" stroke="#666666" points="154,-239 0,-239 0,-220 154,-220 154,-239"/>
<text text-anchor="middle" x="77" y="-227" font-family="Helvetica,sans-Serif" font-size="10.00">Application/PrimitiveProxy.h</text>
</a>
</g>
</g>
<!-- Node14&#45;&gt;Node15 -->
<g id="edge16_Node000014_Node000015" class="edge">
<title>Node14&#45;&gt;Node15</title>
<g id="a_edge16_Node000014_Node000015"><a xlink:title=" ">
<path fill="none" stroke="#63b8ff" d="M138.27,-274.98C127.27,-267 110.58,-254.88 97.4,-245.31"/>
<polygon fill="#63b8ff" stroke="#63b8ff" points="99.09,-242.21 88.94,-239.17 94.98,-247.88 99.09,-242.21"/>
</a>
</g>
</g>
<!-- Node15&#45;&gt;Node2 -->
<g id="edge18_Node000015_Node000002" class="edge">
<title>Node15&#45;&gt;Node2</title>
<g id="a_edge18_Node000015_Node000002"><a xlink:title=" ">
<path fill="none" stroke="#63b8ff" d="M96.28,-219.98C115.67,-211.42 145.81,-198.11 168.07,-188.28"/>
<polygon fill="#63b8ff" stroke="#63b8ff" points="169.64,-191.41 177.37,-184.17 166.81,-185.01 169.64,-191.41"/>
</a>
</g>
</g>
<!-- Node15&#45;&gt;Node3 -->
<g id="edge17_Node000015_Node000003" class="edge">
<title>Node15&#45;&gt;Node3</title>
<g id="a_edge17_Node000015_Node000003"><a xlink:title=" ">
<path fill="none" stroke="#63b8ff" d="M77.43,-219.74C78.68,-194.31 82.32,-120.08 84.06,-84.69"/>
<polygon fill="#63b8ff" stroke="#63b8ff" points="87.57,-84.47 84.57,-74.31 80.58,-84.12 87.57,-84.47"/>
</a>
</g>
</g>
</g>
</svg>
