<?xml version="1.0" encoding="UTF-8" standalone="no"?>
<!DOCTYPE svg PUBLIC "-//W3C//DTD SVG 1.1//EN"
 "http://www.w3.org/Graphics/SVG/1.1/DTD/svg11.dtd">
<!-- Generated by graphviz version 2.43.0 (0)
 -->
<!-- Title: App/Include/Application/Mesh.h Pages: 1 -->
<svg width="1490pt" height="236pt"
 viewBox="0.00 0.00 1489.97 236.00" xmlns="http://www.w3.org/2000/svg" xmlns:xlink="http://www.w3.org/1999/xlink">
<g id="graph0" class="graph" transform="scale(1 1) rotate(0) translate(4 232)">
<title>App/Include/Application/Mesh.h</title>
<!-- Node1 -->
<g id="Node000001" class="node">
<title>Node1</title>
<g id="a_Node000001"><a xlink:title=" ">
<polygon fill="#999999" stroke="#666666" points="893.47,-228 762.47,-228 762.47,-198 893.47,-198 893.47,-228"/>
<text text-anchor="start" x="770.47" y="-216" font-family="Helvetica,sans-Serif" font-size="10.00">App/Include/Application</text>
<text text-anchor="middle" x="827.97" y="-205" font-family="Helvetica,sans-Serif" font-size="10.00">/Mesh.h</text>
</a>
</g>
</g>
<!-- Node2 -->
<g id="Node000002" class="node">
<title>Node2</title>
<g id="a_Node000002"><a xlink:href="MeshExporter_8h.html" target="_top" xlink:title=" ">
<polygon fill="white" stroke="#666666" points="846.47,-162 715.47,-162 715.47,-132 846.47,-132 846.47,-162"/>
<text text-anchor="start" x="723.47" y="-150" font-family="Helvetica,sans-Serif" font-size="10.00">App/Include/Application</text>
<text text-anchor="middle" x="780.97" y="-139" font-family="Helvetica,sans-Serif" font-size="10.00">/MeshExporter.h</text>
</a>
</g>
</g>
<!-- Node1&#45;&gt;Node2 -->
<g id="edge1_Node000001_Node000002" class="edge">
<title>Node1&#45;&gt;Node2</title>
<g id="a_edge1_Node000001_Node000002"><a xlink:title=" ">
<path fill="none" stroke="#63b8ff" d="M811.47,-189.53C804.78,-180.43 797.27,-170.19 791.37,-162.16"/>
<polygon fill="#63b8ff" stroke="#63b8ff" points="808.8,-191.81 817.54,-197.8 814.44,-187.66 808.8,-191.81"/>
</a>
</g>
</g>
<!-- Node5 -->
<g id="Node000005" class="node">
<title>Node5</title>
<g id="a_Node000005"><a xlink:href="MeshIntegrity_8h.html" target="_top" xlink:title=" ">
<polygon fill="white" stroke="#666666" points="283.47,-162 152.47,-162 152.47,-132 283.47,-132 283.47,-162"/>
<text text-anchor="start" x="160.47" y="-150" font-family="Helvetica,sans-Serif" font-size="10.00">App/Include/Application</text>
<text text-anchor="middle" x="217.97" y="-139" font-family="Helvetica,sans-Serif" font-size="10.00">/MeshIntegrity.h</text>
</a>
</g>
</g>
<!-- Node1&#45;&gt;Node5 -->
<g id="edge4_Node000001_Node000005" class="edge">
<title>Node1&#45;&gt;Node5</title>
<g id="a_edge4_Node000001_Node000005"><a xlink:title=" ">
<path fill="none" stroke="#63b8ff" d="M752.14,-204.04C631.43,-191.38 397.61,-166.85 283.63,-154.89"/>
<polygon fill="#63b8ff" stroke="#63b8ff" points="752.09,-207.56 762.4,-205.12 752.82,-200.6 752.09,-207.56"/>
</a>
</g>
</g>
<!-- Node9 -->
<g id="Node000009" class="node">
<title>Node9</title>
<g id="a_Node000009"><a xlink:href="Mesh__utest_8cpp.html" target="_top" xlink:title=" ">
<polygon fill="white" stroke="#666666" points="354.47,-30 231.47,-30 231.47,0 354.47,0 354.47,-30"/>
<text text-anchor="start" x="239.47" y="-18" font-family="Helvetica,sans-Serif" font-size="10.00">App/Test/Source/Mesh</text>
<text text-anchor="middle" x="292.97" y="-7" font-family="Helvetica,sans-Serif" font-size="10.00">_utest.cpp</text>
</a>
</g>
</g>
<!-- Node1&#45;&gt;Node9 -->
<g id="edge28_Node000001_Node000009" class="edge">
<title>Node1&#45;&gt;Node9</title>
<g id="a_edge28_Node000001_Node000009"><a xlink:title=" ">
<path fill="none" stroke="#63b8ff" d="M752.18,-210.04C598.69,-205.49 256.08,-192.2 142.97,-162 77.67,-144.57 41.92,-153.23 5.97,-96 -1.12,-84.71 -2.61,-76.21 5.97,-66 34.17,-32.47 155.65,-21.42 231.23,-17.78"/>
<polygon fill="#63b8ff" stroke="#63b8ff" points="752.36,-213.55 762.46,-210.34 752.57,-206.55 752.36,-213.55"/>
</a>
</g>
</g>
<!-- Node10 -->
<g id="Node000010" class="node">
<title>Node10</title>
<g id="a_Node000010"><a xlink:href="MeshLoader_8h.html" target="_top" xlink:title=" ">
<polygon fill="white" stroke="#666666" points="562.47,-162 431.47,-162 431.47,-132 562.47,-132 562.47,-162"/>
<text text-anchor="start" x="439.47" y="-150" font-family="Helvetica,sans-Serif" font-size="10.00">App/Include/Application</text>
<text text-anchor="middle" x="496.97" y="-139" font-family="Helvetica,sans-Serif" font-size="10.00">/MeshLoader.h</text>
</a>
</g>
</g>
<!-- Node1&#45;&gt;Node10 -->
<g id="edge9_Node000001_Node000010" class="edge">
<title>Node1&#45;&gt;Node10</title>
<g id="a_edge9_Node000001_Node000010"><a xlink:title=" ">
<path fill="none" stroke="#63b8ff" d="M752.1,-197.33C694.89,-186.27 617.2,-171.25 562.64,-160.7"/>
<polygon fill="#63b8ff" stroke="#63b8ff" points="751.7,-200.82 762.18,-199.28 753.03,-193.94 751.7,-200.82"/>
</a>
</g>
</g>
<!-- Node12 -->
<g id="Node000012" class="node">
<title>Node12</title>
<g id="a_Node000012"><a xlink:href="PrimitiveProxy_8h.html" target="_top" xlink:title=" ">
<polygon fill="white" stroke="#666666" points="1133.47,-162 1002.47,-162 1002.47,-132 1133.47,-132 1133.47,-162"/>
<text text-anchor="start" x="1010.47" y="-150" font-family="Helvetica,sans-Serif" font-size="10.00">App/Include/Application</text>
<text text-anchor="middle" x="1067.97" y="-139" font-family="Helvetica,sans-Serif" font-size="10.00">/PrimitiveProxy.h</text>
</a>
</g>
</g>
<!-- Node1&#45;&gt;Node12 -->
<g id="edge12_Node000001_Node000012" class="edge">
<title>Node1&#45;&gt;Node12</title>
<g id="a_edge12_Node000001_Node000012"><a xlink:title=" ">
<path fill="none" stroke="#63b8ff" d="M890.77,-195.25C929.54,-184.91 978.72,-171.8 1015.42,-162.01"/>
<polygon fill="#63b8ff" stroke="#63b8ff" points="889.4,-192 880.64,-197.95 891.2,-198.76 889.4,-192"/>
</a>
</g>
</g>
<!-- Node13 -->
<g id="Node000013" class="node">
<title>Node13</title>
<g id="a_Node000013"><a xlink:href="Mesh_8cpp.html" target="_top" xlink:title=" ">
<polygon fill="white" stroke="#666666" points="1411.47,-90.5 1290.47,-90.5 1290.47,-71.5 1411.47,-71.5 1411.47,-90.5"/>
<text text-anchor="middle" x="1350.97" y="-78.5" font-family="Helvetica,sans-Serif" font-size="10.00">App/Source/Mesh.cpp</text>
</a>
</g>
</g>
<!-- Node1&#45;&gt;Node13 -->
<g id="edge25_Node000001_Node000013" class="edge">
<title>Node1&#45;&gt;Node13</title>
<g id="a_edge25_Node000001_Node000013"><a xlink:title=" ">
<path fill="none" stroke="#63b8ff" d="M903.73,-204.49C968.12,-197.04 1062.64,-183.57 1142.97,-162 1215.28,-142.59 1297.11,-106.82 1332.76,-90.51"/>
<polygon fill="#63b8ff" stroke="#63b8ff" points="903.2,-201.03 893.66,-205.64 903.99,-207.98 903.2,-201.03"/>
</a>
</g>
</g>
<!-- Node15 -->
<g id="Node000015" class="node">
<title>Node15</title>
<g id="a_Node000015"><a xlink:href="TestHelpers_8h.html" target="_top" xlink:title=" ">
<polygon fill="white" stroke="#666666" points="1012.47,-90.5 847.47,-90.5 847.47,-71.5 1012.47,-71.5 1012.47,-90.5"/>
<text text-anchor="middle" x="929.97" y="-78.5" font-family="Helvetica,sans-Serif" font-size="10.00">App/Test/Include/TestHelpers.h</text>
</a>
</g>
</g>
<!-- Node1&#45;&gt;Node15 -->
<g id="edge26_Node000001_Node000015" class="edge">
<title>Node1&#45;&gt;Node15</title>
<g id="a_edge26_Node000001_Node000015"><a xlink:title=" ">
<path fill="none" stroke="#63b8ff" d="M845.34,-189.86C868.21,-160.72 907.35,-110.83 923.11,-90.75"/>
<polygon fill="#63b8ff" stroke="#63b8ff" points="842.5,-187.81 839.08,-197.84 848.01,-192.13 842.5,-187.81"/>
</a>
</g>
</g>
<!-- Node16 -->
<g id="Node000016" class="node">
<title>Node16</title>
<g id="a_Node000016"><a xlink:href="MeshCirculator__utest_8cpp.html" target="_top" xlink:title=" ">
<polygon fill="white" stroke="#666666" points="1481.97,-30 1311.97,-30 1311.97,0 1481.97,0 1481.97,-30"/>
<text text-anchor="start" x="1319.97" y="-18" font-family="Helvetica,sans-Serif" font-size="10.00">App/Test/Source/MeshCirculator</text>
<text text-anchor="middle" x="1396.97" y="-7" font-family="Helvetica,sans-Serif" font-size="10.00">_utest.cpp</text>
</a>
</g>
</g>
<!-- Node1&#45;&gt;Node16 -->
<g id="edge27_Node000001_Node000016" class="edge">
<title>Node1&#45;&gt;Node16</title>
<g id="a_edge27_Node000001_Node000016"><a xlink:title=" ">
<path fill="none" stroke="#63b8ff" d="M903.74,-209.29C1049.52,-202.26 1360.04,-177.79 1420.97,-96 1435.78,-76.12 1420.1,-47.1 1408.05,-30.03"/>
<polygon fill="#63b8ff" stroke="#63b8ff" points="903.36,-205.81 893.53,-209.77 903.69,-212.8 903.36,-205.81"/>
</a>
</g>
</g>
<!-- Node3 -->
<g id="Node000003" class="node">
<title>Node3</title>
<g id="a_Node000003"><a xlink:href="MeshExporter_8cpp.html" target="_top" xlink:title=" ">
<polygon fill="white" stroke="#666666" points="752.47,-90.5 591.47,-90.5 591.47,-71.5 752.47,-71.5 752.47,-90.5"/>
<text text-anchor="middle" x="671.97" y="-78.5" font-family="Helvetica,sans-Serif" font-size="10.00">App/Source/MeshExporter.cpp</text>
</a>
</g>
</g>
<!-- Node2&#45;&gt;Node3 -->
<g id="edge2_Node000002_Node000003" class="edge">
<title>Node2&#45;&gt;Node3</title>
<g id="a_edge2_Node000002_Node000003"><a xlink:title=" ">
<path fill="none" stroke="#63b8ff" d="M748.29,-126.81C727.72,-114.73 702.17,-99.73 686.48,-90.52"/>
<polygon fill="#63b8ff" stroke="#63b8ff" points="746.65,-129.91 757.05,-131.95 750.2,-123.87 746.65,-129.91"/>
</a>
</g>
</g>
<!-- Node4 -->
<g id="Node000004" class="node">
<title>Node4</title>
<g id="a_Node000004"><a xlink:href="MeshExporter__utest_8cpp.html" target="_top" xlink:title=" ">
<polygon fill="white" stroke="#666666" points="1011.97,-30 847.97,-30 847.97,0 1011.97,0 1011.97,-30"/>
<text text-anchor="start" x="855.97" y="-18" font-family="Helvetica,sans-Serif" font-size="10.00">App/Test/Source/MeshExporter</text>
<text text-anchor="middle" x="929.97" y="-7" font-family="Helvetica,sans-Serif" font-size="10.00">_utest.cpp</text>
</a>
</g>
</g>
<!-- Node2&#45;&gt;Node4 -->
<g id="edge3_Node000002_Node000004" class="edge">
<title>Node2&#45;&gt;Node4</title>
<g id="a_edge3_Node000002_Node000004"><a xlink:title=" ">
<path fill="none" stroke="#63b8ff" d="M793.86,-122.95C804.35,-105.7 820.41,-82.38 838.97,-66 855.87,-51.09 877.96,-38.82 896.14,-30.17"/>
<polygon fill="#63b8ff" stroke="#63b8ff" points="790.7,-121.43 788.63,-131.82 796.73,-124.98 790.7,-121.43"/>
</a>
</g>
</g>
<!-- Node6 -->
<g id="Node000006" class="node">
<title>Node6</title>
<g id="a_Node000006"><a xlink:href="MeshIntegrity_8cpp.html" target="_top" xlink:title=" ">
<polygon fill="white" stroke="#666666" points="189.47,-90.5 28.47,-90.5 28.47,-71.5 189.47,-71.5 189.47,-90.5"/>
<text text-anchor="middle" x="108.97" y="-78.5" font-family="Helvetica,sans-Serif" font-size="10.00">App/Source/MeshIntegrity.cpp</text>
</a>
</g>
</g>
<!-- Node5&#45;&gt;Node6 -->
<g id="edge5_Node000005_Node000006" class="edge">
<title>Node5&#45;&gt;Node6</title>
<g id="a_edge5_Node000005_Node000006"><a xlink:title=" ">
<path fill="none" stroke="#63b8ff" d="M185.29,-126.81C164.72,-114.73 139.17,-99.73 123.48,-90.52"/>
<polygon fill="#63b8ff" stroke="#63b8ff" points="183.65,-129.91 194.05,-131.95 187.2,-123.87 183.65,-129.91"/>
</a>
</g>
</g>
<!-- Node7 -->
<g id="Node000007" class="node">
<title>Node7</title>
<g id="a_Node000007"><a xlink:href="MeshIntegrity__utest_8cpp.html" target="_top" xlink:title=" ">
<polygon fill="white" stroke="#666666" points="564.97,-30 400.97,-30 400.97,0 564.97,0 564.97,-30"/>
<text text-anchor="start" x="408.97" y="-18" font-family="Helvetica,sans-Serif" font-size="10.00">App/Test/Source/MeshIntegrity</text>
<text text-anchor="middle" x="482.97" y="-7" font-family="Helvetica,sans-Serif" font-size="10.00">_utest.cpp</text>
</a>
</g>
</g>
<!-- Node5&#45;&gt;Node7 -->
<g id="edge6_Node000005_Node000007" class="edge">
<title>Node5&#45;&gt;Node7</title>
<g id="a_edge6_Node000005_Node000007"><a xlink:title=" ">
<path fill="none" stroke="#63b8ff" d="M217.22,-121.7C218.03,-103.85 222.19,-80.31 236.97,-66 248.91,-54.44 333.92,-38.91 400.71,-28.24"/>
<polygon fill="#63b8ff" stroke="#63b8ff" points="213.71,-121.9 217.08,-131.95 220.71,-122 213.71,-121.9"/>
</a>
</g>
</g>
<!-- Node8 -->
<g id="Node000008" class="node">
<title>Node8</title>
<g id="a_Node000008"><a xlink:href="MeshLoader__utest_8cpp.html" target="_top" xlink:title=" ">
<polygon fill="white" stroke="#666666" points="401.97,-96 245.97,-96 245.97,-66 401.97,-66 401.97,-96"/>
<text text-anchor="start" x="253.97" y="-84" font-family="Helvetica,sans-Serif" font-size="10.00">App/Test/Source/MeshLoader</text>
<text text-anchor="middle" x="323.97" y="-73" font-family="Helvetica,sans-Serif" font-size="10.00">_utest.cpp</text>
</a>
</g>
</g>
<!-- Node5&#45;&gt;Node8 -->
<g id="edge7_Node000005_Node000008" class="edge">
<title>Node5&#45;&gt;Node8</title>
<g id="a_edge7_Node000005_Node000008"><a xlink:title=" ">
<path fill="none" stroke="#63b8ff" d="M249.95,-126.69C266.31,-116.82 285.86,-105.01 300.76,-96.01"/>
<polygon fill="#63b8ff" stroke="#63b8ff" points="247.98,-123.79 241.23,-131.95 251.6,-129.78 247.98,-123.79"/>
</a>
</g>
</g>
<!-- Node5&#45;&gt;Node9 -->
<g id="edge8_Node000005_Node000009" class="edge">
<title>Node5&#45;&gt;Node9</title>
<g id="a_edge8_Node000005_Node000009"><a xlink:title=" ">
<path fill="none" stroke="#63b8ff" d="M141.91,-140.34C70.59,-132.12 -19.73,-112.4 18.97,-66 45.45,-34.25 158.81,-22.61 231.17,-18.38"/>
<polygon fill="#63b8ff" stroke="#63b8ff" points="141.96,-143.87 152.28,-141.47 142.72,-136.91 141.96,-143.87"/>
</a>
</g>
</g>
<!-- Node10&#45;&gt;Node8 -->
<g id="edge11_Node000010_Node000008" class="edge">
<title>Node10&#45;&gt;Node8</title>
<g id="a_edge11_Node000010_Node000008"><a xlink:title=" ">
<path fill="none" stroke="#63b8ff" d="M449.55,-128.46C421.95,-118.25 387.63,-105.55 361.85,-96.01"/>
<polygon fill="#63b8ff" stroke="#63b8ff" points="448.41,-131.77 459.01,-131.95 450.84,-125.2 448.41,-131.77"/>
</a>
</g>
</g>
<!-- Node11 -->
<g id="Node000011" class="node">
<title>Node11</title>
<g id="a_Node000011"><a xlink:href="MeshLoader_8cpp.html" target="_top" xlink:title=" ">
<polygon fill="white" stroke="#666666" points="573.47,-90.5 420.47,-90.5 420.47,-71.5 573.47,-71.5 573.47,-90.5"/>
<text text-anchor="middle" x="496.97" y="-78.5" font-family="Helvetica,sans-Serif" font-size="10.00">App/Source/MeshLoader.cpp</text>
</a>
</g>
</g>
<!-- Node10&#45;&gt;Node11 -->
<g id="edge10_Node000010_Node000011" class="edge">
<title>Node10&#45;&gt;Node11</title>
<g id="a_edge10_Node000010_Node000011"><a xlink:title=" ">
<path fill="none" stroke="#63b8ff" d="M496.97,-121.6C496.97,-110.8 496.97,-98.78 496.97,-90.84"/>
<polygon fill="#63b8ff" stroke="#63b8ff" points="493.47,-121.8 496.97,-131.8 500.47,-121.8 493.47,-121.8"/>
</a>
</g>
</g>
<!-- Node12&#45;&gt;Node4 -->
<g id="edge22_Node000012_Node000004" class="edge">
<title>Node12&#45;&gt;Node4</title>
<g id="a_edge22_Node000012_Node000004"><a xlink:title=" ">
<path fill="none" stroke="#63b8ff" d="M1143.21,-129.51C1187.12,-116.4 1229.47,-95.35 1204.97,-66 1192.55,-51.12 1088.55,-35.34 1012.09,-25.58"/>
<polygon fill="#63b8ff" stroke="#63b8ff" points="1142.2,-126.16 1133.55,-132.27 1144.12,-132.89 1142.2,-126.16"/>
</a>
</g>
</g>
<!-- Node12&#45;&gt;Node9 -->
<g id="edge23_Node000012_Node000009" class="edge">
<title>Node12&#45;&gt;Node9</title>
<g id="a_edge23_Node000012_Node000009"><a xlink:title=" ">
<path fill="none" stroke="#63b8ff" d="M992.18,-132.46C947.22,-123.69 889.35,-111.09 838.97,-96 803.39,-85.34 797.12,-74.55 760.97,-66 600.61,-28.08 555.59,-49.54 391.97,-30 379.91,-28.56 367.04,-26.86 354.71,-25.15"/>
<polygon fill="#63b8ff" stroke="#63b8ff" points="991.67,-135.93 1002.15,-134.39 992.99,-129.05 991.67,-135.93"/>
</a>
</g>
</g>
<!-- Node12&#45;&gt;Node11 -->
<g id="edge14_Node000012_Node000011" class="edge">
<title>Node12&#45;&gt;Node11</title>
<g id="a_edge14_Node000012_Node000011"><a xlink:title=" ">
<path fill="none" stroke="#63b8ff" d="M992.01,-139.62C896.22,-131.25 726.56,-115.33 581.97,-96 570.11,-94.41 557.36,-92.45 545.44,-90.51"/>
<polygon fill="#63b8ff" stroke="#63b8ff" points="991.92,-143.13 1002.18,-140.51 992.52,-136.15 991.92,-143.13"/>
</a>
</g>
</g>
<!-- Node12&#45;&gt;Node13 -->
<g id="edge13_Node000012_Node000013" class="edge">
<title>Node12&#45;&gt;Node13</title>
<g id="a_edge13_Node000012_Node000013"><a xlink:title=" ">
<path fill="none" stroke="#63b8ff" d="M1140.16,-129.68C1195.36,-117.19 1269.26,-100.48 1313.31,-90.52"/>
<polygon fill="#63b8ff" stroke="#63b8ff" points="1139.06,-126.34 1130.08,-131.95 1140.6,-133.16 1139.06,-126.34"/>
</a>
</g>
</g>
<!-- Node14 -->
<g id="Node000014" class="node">
<title>Node14</title>
<g id="a_Node000014"><a xlink:href="PrimitiveProxy_8cpp.html" target="_top" xlink:title=" ">
<polygon fill="white" stroke="#666666" points="1195.47,-90.5 1030.47,-90.5 1030.47,-71.5 1195.47,-71.5 1195.47,-90.5"/>
<text text-anchor="middle" x="1112.97" y="-78.5" font-family="Helvetica,sans-Serif" font-size="10.00">App/Source/PrimitiveProxy.cpp</text>
</a>
</g>
</g>
<!-- Node12&#45;&gt;Node14 -->
<g id="edge15_Node000012_Node000014" class="edge">
<title>Node12&#45;&gt;Node14</title>
<g id="a_edge15_Node000012_Node000014"><a xlink:title=" ">
<path fill="none" stroke="#63b8ff" d="M1083.71,-123.61C1091.65,-112.32 1100.82,-99.28 1106.75,-90.84"/>
<polygon fill="#63b8ff" stroke="#63b8ff" points="1080.85,-121.6 1077.96,-131.8 1086.57,-125.63 1080.85,-121.6"/>
</a>
</g>
</g>
<!-- Node12&#45;&gt;Node15 -->
<g id="edge16_Node000012_Node000015" class="edge">
<title>Node12&#45;&gt;Node15</title>
<g id="a_edge16_Node000012_Node000015"><a xlink:title=" ">
<path fill="none" stroke="#63b8ff" d="M1028.34,-127.62C1002.01,-115.41 968.66,-99.94 948.34,-90.52"/>
<polygon fill="#63b8ff" stroke="#63b8ff" points="1027.14,-130.92 1037.69,-131.95 1030.09,-124.57 1027.14,-130.92"/>
</a>
</g>
</g>
<!-- Node17 -->
<g id="Node000017" class="node">
<title>Node17</title>
<g id="a_Node000017"><a xlink:href="PrimitiveProxy__utest_8cpp.html" target="_top" xlink:title=" ">
<polygon fill="white" stroke="#666666" points="1251.47,-30 1110.47,-30 1110.47,0 1251.47,0 1251.47,-30"/>
<text text-anchor="start" x="1118.47" y="-18" font-family="Helvetica,sans-Serif" font-size="10.00">App/Test/Source/Primitive</text>
<text text-anchor="middle" x="1180.97" y="-7" font-family="Helvetica,sans-Serif" font-size="10.00">Proxy_utest.cpp</text>
</a>
</g>
</g>
<!-- Node12&#45;&gt;Node17 -->
<g id="edge24_Node000012_Node000017" class="edge">
<title>Node12&#45;&gt;Node17</title>
<g id="a_edge24_Node000012_Node000017"><a xlink:title=" ">
<path fill="none" stroke="#63b8ff" d="M1143.57,-132.94C1183.27,-124.38 1226.12,-111.84 1237.97,-96 1255.03,-73.2 1225.58,-46.1 1203.04,-30.02"/>
<polygon fill="#63b8ff" stroke="#63b8ff" points="1142.63,-129.56 1133.56,-135.03 1144.06,-136.42 1142.63,-129.56"/>
</a>
</g>
</g>
<!-- Node15&#45;&gt;Node4 -->
<g id="edge18_Node000015_Node000004" class="edge">
<title>Node15&#45;&gt;Node4</title>
<g id="a_edge18_Node000015_Node000004"><a xlink:title=" ">
<path fill="none" stroke="#63b8ff" d="M929.97,-61.35C929.97,-51.47 929.97,-39.51 929.97,-30.36"/>
<polygon fill="#63b8ff" stroke="#63b8ff" points="926.47,-61.37 929.97,-71.37 933.47,-61.37 926.47,-61.37"/>
</a>
</g>
</g>
<!-- Node15&#45;&gt;Node7 -->
<g id="edge19_Node000015_Node000007" class="edge">
<title>Node15&#45;&gt;Node7</title>
<g id="a_edge19_Node000015_Node000007"><a xlink:title=" ">
<path fill="none" stroke="#63b8ff" d="M860.88,-70.02C851.5,-68.66 842,-67.3 832.97,-66 741.23,-52.83 635.94,-37.8 565.01,-27.69"/>
<polygon fill="#63b8ff" stroke="#63b8ff" points="860.59,-73.51 870.98,-71.47 861.58,-66.58 860.59,-73.51"/>
</a>
</g>
</g>
<!-- Node15&#45;&gt;Node9 -->
<g id="edge20_Node000015_Node000009" class="edge">
<title>Node15&#45;&gt;Node9</title>
<g id="a_edge20_Node000015_Node000009"><a xlink:title=" ">
<path fill="none" stroke="#63b8ff" d="M865.02,-70.06C854.33,-68.59 843.35,-67.17 832.97,-66 637.56,-43.94 587.41,-51.78 391.97,-30 379.89,-28.65 367.02,-27 354.69,-25.3"/>
<polygon fill="#63b8ff" stroke="#63b8ff" points="864.77,-73.56 875.16,-71.48 865.74,-66.63 864.77,-73.56"/>
</a>
</g>
</g>
<!-- Node15&#45;&gt;Node16 -->
<g id="edge17_Node000015_Node000016" class="edge">
<title>Node15&#45;&gt;Node16</title>
<g id="a_edge17_Node000015_Node000016"><a xlink:title=" ">
<path fill="none" stroke="#63b8ff" d="M995.04,-69.95C1004.08,-68.59 1013.26,-67.24 1021.97,-66 1121.29,-51.82 1235.6,-36.76 1311.64,-26.92"/>
<polygon fill="#63b8ff" stroke="#63b8ff" points="994.29,-66.52 984.92,-71.47 995.33,-73.44 994.29,-66.52"/>
</a>
</g>
</g>
<!-- Node15&#45;&gt;Node17 -->
<g id="edge21_Node000015_Node000017" class="edge">
<title>Node15&#45;&gt;Node17</title>
<g id="a_edge21_Node000015_Node000017"><a xlink:title=" ">
<path fill="none" stroke="#63b8ff" d="M973.28,-68.96C1015.57,-58.17 1080.08,-41.73 1125.97,-30.02"/>
<polygon fill="#63b8ff" stroke="#63b8ff" points="972.39,-65.57 963.56,-71.44 974.12,-72.36 972.39,-65.57"/>
</a>
</g>
</g>
</g>
</svg>
