<?xml version="1.0" encoding="UTF-8" standalone="no"?>
<!DOCTYPE svg PUBLIC "-//W3C//DTD SVG 1.1//EN"
 "http://www.w3.org/Graphics/SVG/1.1/DTD/svg11.dtd">
<!-- Generated by graphviz version 2.43.0 (0)
 -->
<!-- Title: App/Test/Source/MeshIntegrity_utest.cpp Pages: 1 -->
<svg width="684pt" height="368pt"
 viewBox="0.00 0.00 683.93 368.00" xmlns="http://www.w3.org/2000/svg" xmlns:xlink="http://www.w3.org/1999/xlink">
<g id="graph0" class="graph" transform="scale(1 1) rotate(0) translate(4 364)">
<title>App/Test/Source/MeshIntegrity_utest.cpp</title>
<!-- Node1 -->
<g id="Node000001" class="node">
<title>Node1</title>
<g id="a_Node000001"><a xlink:title=" ">
<polygon fill="#999999" stroke="#666666" points="410.83,-360 246.83,-360 246.83,-330 410.83,-330 410.83,-360"/>
<text text-anchor="start" x="254.83" y="-348" font-family="Helvetica,sans-Serif" font-size="10.00">App/Test/Source/MeshIntegrity</text>
<text text-anchor="middle" x="328.83" y="-337" font-family="Helvetica,sans-Serif" font-size="10.00">_utest.cpp</text>
</a>
</g>
</g>
<!-- Node2 -->
<g id="Node000002" class="node">
<title>Node2</title>
<g id="a_Node000002"><a xlink:href="MeshIntegrity_8h.html" target="_top" xlink:title=" ">
<polygon fill="white" stroke="#666666" points="181.33,-239 32.33,-239 32.33,-220 181.33,-220 181.33,-239"/>
<text text-anchor="middle" x="106.83" y="-227" font-family="Helvetica,sans-Serif" font-size="10.00">Application/MeshIntegrity.h</text>
</a>
</g>
</g>
<!-- Node1&#45;&gt;Node2 -->
<g id="edge1_Node000001_Node000002" class="edge">
<title>Node1&#45;&gt;Node2</title>
<g id="a_edge1_Node000001_Node000002"><a xlink:title=" ">
<path fill="none" stroke="#63b8ff" d="M301.16,-329.85C257.92,-307.75 174.92,-265.31 132.77,-243.76"/>
<polygon fill="#63b8ff" stroke="#63b8ff" points="134.19,-240.56 123.7,-239.12 131.01,-246.79 134.19,-240.56"/>
</a>
</g>
</g>
<!-- Node17 -->
<g id="Node000017" class="node">
<title>Node17</title>
<g id="a_Node000017"><a xlink:href="TestHelpers_8h.html" target="_top" xlink:title=" ">
<polygon fill="white" stroke="#666666" points="398.83,-294 258.83,-294 258.83,-275 398.83,-275 398.83,-294"/>
<text text-anchor="middle" x="328.83" y="-282" font-family="Helvetica,sans-Serif" font-size="10.00">Application/TestHelpers.h</text>
</a>
</g>
</g>
<!-- Node1&#45;&gt;Node17 -->
<g id="edge18_Node000001_Node000017" class="edge">
<title>Node1&#45;&gt;Node17</title>
<g id="a_edge18_Node000001_Node000017"><a xlink:title=" ">
<path fill="none" stroke="#63b8ff" d="M328.83,-329.84C328.83,-322.21 328.83,-312.7 328.83,-304.45"/>
<polygon fill="#63b8ff" stroke="#63b8ff" points="332.33,-304.27 328.83,-294.27 325.33,-304.27 332.33,-304.27"/>
</a>
</g>
</g>
<!-- Node21 -->
<g id="Node000021" class="node">
<title>Node21</title>
<g id="a_Node000021"><a xlink:title=" ">
<polygon fill="#e0e0e0" stroke="#999999" points="494.83,-294 416.83,-294 416.83,-275 494.83,-275 494.83,-294"/>
<text text-anchor="middle" x="455.83" y="-282" font-family="Helvetica,sans-Serif" font-size="10.00">gtest/gtest.h</text>
</a>
</g>
</g>
<!-- Node1&#45;&gt;Node21 -->
<g id="edge28_Node000001_Node000021" class="edge">
<title>Node1&#45;&gt;Node21</title>
<g id="a_edge28_Node000001_Node000021"><a xlink:title=" ">
<path fill="none" stroke="#63b8ff" d="M359.25,-329.99C380.06,-320.4 407.45,-307.79 427.74,-298.44"/>
<polygon fill="#63b8ff" stroke="#63b8ff" points="429.45,-301.5 437.07,-294.14 426.53,-295.14 429.45,-301.5"/>
</a>
</g>
</g>
<!-- Node3 -->
<g id="Node000003" class="node">
<title>Node3</title>
<g id="a_Node000003"><a xlink:href="Mesh_8h.html" target="_top" xlink:title=" ">
<polygon fill="white" stroke="#666666" points="380.83,-184 270.83,-184 270.83,-165 380.83,-165 380.83,-184"/>
<text text-anchor="middle" x="325.83" y="-172" font-family="Helvetica,sans-Serif" font-size="10.00">Application/Mesh.h</text>
</a>
</g>
</g>
<!-- Node2&#45;&gt;Node3 -->
<g id="edge2_Node000002_Node000003" class="edge">
<title>Node2&#45;&gt;Node3</title>
<g id="a_edge2_Node000002_Node000003"><a xlink:title=" ">
<path fill="none" stroke="#63b8ff" d="M142.01,-219.98C179.66,-210.87 239.49,-196.4 280.6,-186.45"/>
<polygon fill="#63b8ff" stroke="#63b8ff" points="281.47,-189.84 290.37,-184.08 279.82,-183.03 281.47,-189.84"/>
</a>
</g>
</g>
<!-- Node8 -->
<g id="Node000008" class="node">
<title>Node8</title>
<g id="a_Node000008"><a xlink:title=" ">
<polygon fill="#e0e0e0" stroke="#999999" points="85.83,-19 35.83,-19 35.83,0 85.83,0 85.83,-19"/>
<text text-anchor="middle" x="60.83" y="-7" font-family="Helvetica,sans-Serif" font-size="10.00">cstdint</text>
</a>
</g>
</g>
<!-- Node2&#45;&gt;Node8 -->
<g id="edge17_Node000002_Node000008" class="edge">
<title>Node2&#45;&gt;Node8</title>
<g id="a_edge17_Node000002_Node000008"><a xlink:title=" ">
<path fill="none" stroke="#63b8ff" d="M93.19,-219.82C70.75,-204.62 26.83,-170.79 9.83,-129 -2.57,-98.54 -3.78,-84.94 9.83,-55 15.45,-42.63 26.4,-32.36 36.71,-24.81"/>
<polygon fill="#63b8ff" stroke="#63b8ff" points="38.79,-27.63 45.1,-19.12 34.86,-21.84 38.79,-27.63"/>
</a>
</g>
</g>
<!-- Node4 -->
<g id="Node000004" class="node">
<title>Node4</title>
<g id="a_Node000004"><a xlink:href="BaseType_8h.html" target="_top" xlink:title=" ">
<polygon fill="white" stroke="#666666" points="405.83,-74 275.83,-74 275.83,-55 405.83,-55 405.83,-74"/>
<text text-anchor="middle" x="340.83" y="-62" font-family="Helvetica,sans-Serif" font-size="10.00">Application/BaseType.h</text>
</a>
</g>
</g>
<!-- Node3&#45;&gt;Node4 -->
<g id="edge3_Node000003_Node000004" class="edge">
<title>Node3&#45;&gt;Node4</title>
<g id="a_edge3_Node000003_Node000004"><a xlink:title=" ">
<path fill="none" stroke="#63b8ff" d="M327.05,-164.66C329.48,-147.17 334.95,-107.8 338.22,-84.27"/>
<polygon fill="#63b8ff" stroke="#63b8ff" points="341.72,-84.54 339.62,-74.16 334.78,-83.58 341.72,-84.54"/>
</a>
</g>
</g>
<!-- Node9 -->
<g id="Node000009" class="node">
<title>Node9</title>
<g id="a_Node000009"><a xlink:href="ExtraDataContainer_8h.html" target="_top" xlink:title=" ">
<polygon fill="white" stroke="#666666" points="198.33,-129 19.33,-129 19.33,-110 198.33,-110 198.33,-129"/>
<text text-anchor="middle" x="108.83" y="-117" font-family="Helvetica,sans-Serif" font-size="10.00">Application/ExtraDataContainer.h</text>
</a>
</g>
</g>
<!-- Node3&#45;&gt;Node9 -->
<g id="edge8_Node000003_Node000009" class="edge">
<title>Node3&#45;&gt;Node9</title>
<g id="a_edge8_Node000003_Node000009"><a xlink:title=" ">
<path fill="none" stroke="#63b8ff" d="M290.96,-164.98C253.74,-155.89 194.63,-141.46 153.9,-131.51"/>
<polygon fill="#63b8ff" stroke="#63b8ff" points="154.51,-128.05 143.97,-129.08 152.85,-134.85 154.51,-128.05"/>
</a>
</g>
</g>
<!-- Node13 -->
<g id="Node000013" class="node">
<title>Node13</title>
<g id="a_Node000013"><a xlink:href="Primitive_8h.html" target="_top" xlink:title=" ">
<polygon fill="white" stroke="#666666" points="496.83,-129 368.83,-129 368.83,-110 496.83,-110 496.83,-129"/>
<text text-anchor="middle" x="432.83" y="-117" font-family="Helvetica,sans-Serif" font-size="10.00">Application/Primitive.h</text>
</a>
</g>
</g>
<!-- Node3&#45;&gt;Node13 -->
<g id="edge12_Node000003_Node000013" class="edge">
<title>Node3&#45;&gt;Node13</title>
<g id="a_edge12_Node000003_Node000013"><a xlink:title=" ">
<path fill="none" stroke="#63b8ff" d="M343.02,-164.98C360.08,-156.54 386.46,-143.47 406.22,-133.68"/>
<polygon fill="#63b8ff" stroke="#63b8ff" points="407.92,-136.75 415.32,-129.17 404.81,-130.47 407.92,-136.75"/>
</a>
</g>
</g>
<!-- Node15 -->
<g id="Node000015" class="node">
<title>Node15</title>
<g id="a_Node000015"><a xlink:title=" ">
<polygon fill="#e0e0e0" stroke="#999999" points="312.83,-129 254.83,-129 254.83,-110 312.83,-110 312.83,-129"/>
<text text-anchor="middle" x="283.83" y="-117" font-family="Helvetica,sans-Serif" font-size="10.00">memory</text>
</a>
</g>
</g>
<!-- Node3&#45;&gt;Node15 -->
<g id="edge15_Node000003_Node000015" class="edge">
<title>Node3&#45;&gt;Node15</title>
<g id="a_edge15_Node000003_Node000015"><a xlink:title=" ">
<path fill="none" stroke="#63b8ff" d="M318.89,-164.75C312.96,-157.26 304.26,-146.28 297,-137.13"/>
<polygon fill="#63b8ff" stroke="#63b8ff" points="299.59,-134.75 290.63,-129.09 294.1,-139.1 299.59,-134.75"/>
</a>
</g>
</g>
<!-- Node16 -->
<g id="Node000016" class="node">
<title>Node16</title>
<g id="a_Node000016"><a xlink:title=" ">
<polygon fill="#e0e0e0" stroke="#999999" points="562.33,-129 515.33,-129 515.33,-110 562.33,-110 562.33,-129"/>
<text text-anchor="middle" x="538.83" y="-117" font-family="Helvetica,sans-Serif" font-size="10.00">vector</text>
</a>
</g>
</g>
<!-- Node3&#45;&gt;Node16 -->
<g id="edge16_Node000003_Node000016" class="edge">
<title>Node3&#45;&gt;Node16</title>
<g id="a_edge16_Node000003_Node000016"><a xlink:title=" ">
<path fill="none" stroke="#63b8ff" d="M360.7,-164.99C394.99,-156.59 449.09,-143.28 505.27,-129.12"/>
<polygon fill="#63b8ff" stroke="#63b8ff" points="506.2,-132.5 515.04,-126.66 504.49,-125.71 506.2,-132.5"/>
</a>
</g>
</g>
<!-- Node5 -->
<g id="Node000005" class="node">
<title>Node5</title>
<g id="a_Node000005"><a xlink:title=" ">
<polygon fill="#e0e0e0" stroke="#999999" points="251.83,-19 173.83,-19 173.83,0 251.83,0 251.83,-19"/>
<text text-anchor="middle" x="212.83" y="-7" font-family="Helvetica,sans-Serif" font-size="10.00">glm/glm.hpp</text>
</a>
</g>
</g>
<!-- Node4&#45;&gt;Node5 -->
<g id="edge4_Node000004_Node000005" class="edge">
<title>Node4&#45;&gt;Node5</title>
<g id="a_edge4_Node000004_Node000005"><a xlink:title=" ">
<path fill="none" stroke="#63b8ff" d="M320.26,-54.98C299.39,-46.34 266.86,-32.87 243.05,-23.02"/>
<polygon fill="#63b8ff" stroke="#63b8ff" points="244.35,-19.76 233.77,-19.17 241.67,-26.23 244.35,-19.76"/>
</a>
</g>
</g>
<!-- Node6 -->
<g id="Node000006" class="node">
<title>Node6</title>
<g id="a_Node000006"><a xlink:title=" ">
<polygon fill="#e0e0e0" stroke="#999999" points="411.33,-19 270.33,-19 270.33,0 411.33,0 411.33,-19"/>
<text text-anchor="middle" x="340.83" y="-7" font-family="Helvetica,sans-Serif" font-size="10.00">glm/gtx/vector_angle.hpp</text>
</a>
</g>
</g>
<!-- Node4&#45;&gt;Node6 -->
<g id="edge5_Node000004_Node000006" class="edge">
<title>Node4&#45;&gt;Node6</title>
<g id="a_edge5_Node000004_Node000006"><a xlink:title=" ">
<path fill="none" stroke="#63b8ff" d="M340.83,-54.75C340.83,-47.8 340.83,-37.85 340.83,-29.13"/>
<polygon fill="#63b8ff" stroke="#63b8ff" points="344.33,-29.09 340.83,-19.09 337.33,-29.09 344.33,-29.09"/>
</a>
</g>
</g>
<!-- Node7 -->
<g id="Node000007" class="node">
<title>Node7</title>
<g id="a_Node000007"><a xlink:title=" ">
<polygon fill="#e0e0e0" stroke="#999999" points="473.83,-19 429.83,-19 429.83,0 473.83,0 473.83,-19"/>
<text text-anchor="middle" x="451.83" y="-7" font-family="Helvetica,sans-Serif" font-size="10.00">bitset</text>
</a>
</g>
</g>
<!-- Node4&#45;&gt;Node7 -->
<g id="edge6_Node000004_Node000007" class="edge">
<title>Node4&#45;&gt;Node7</title>
<g id="a_edge6_Node000004_Node000007"><a xlink:title=" ">
<path fill="none" stroke="#63b8ff" d="M358.66,-54.98C376.44,-46.5 403.97,-33.35 424.51,-23.54"/>
<polygon fill="#63b8ff" stroke="#63b8ff" points="426.15,-26.64 433.67,-19.17 423.14,-20.32 426.15,-26.64"/>
</a>
</g>
</g>
<!-- Node4&#45;&gt;Node8 -->
<g id="edge7_Node000004_Node000008" class="edge">
<title>Node4&#45;&gt;Node8</title>
<g id="a_edge7_Node000004_Node000008"><a xlink:title=" ">
<path fill="none" stroke="#63b8ff" d="M295.84,-54.98C240.16,-44.45 146.51,-26.72 95.87,-17.13"/>
<polygon fill="#63b8ff" stroke="#63b8ff" points="96.52,-13.69 86.05,-15.27 95.22,-20.57 96.52,-13.69"/>
</a>
</g>
</g>
<!-- Node10 -->
<g id="Node000010" class="node">
<title>Node10</title>
<g id="a_Node000010"><a xlink:title=" ">
<polygon fill="#e0e0e0" stroke="#999999" points="248.33,-74 213.33,-74 213.33,-55 248.33,-55 248.33,-74"/>
<text text-anchor="middle" x="230.83" y="-62" font-family="Helvetica,sans-Serif" font-size="10.00">any</text>
</a>
</g>
</g>
<!-- Node9&#45;&gt;Node10 -->
<g id="edge9_Node000009_Node000010" class="edge">
<title>Node9&#45;&gt;Node10</title>
<g id="a_edge9_Node000009_Node000010"><a xlink:title=" ">
<path fill="none" stroke="#63b8ff" d="M128.43,-109.98C148.85,-101.11 180.98,-87.15 203.8,-77.24"/>
<polygon fill="#63b8ff" stroke="#63b8ff" points="205.48,-80.33 213.25,-73.13 202.69,-73.91 205.48,-80.33"/>
</a>
</g>
</g>
<!-- Node11 -->
<g id="Node000011" class="node">
<title>Node11</title>
<g id="a_Node000011"><a xlink:title=" ">
<polygon fill="#e0e0e0" stroke="#999999" points="84.33,-74 19.33,-74 19.33,-55 84.33,-55 84.33,-74"/>
<text text-anchor="middle" x="51.83" y="-62" font-family="Helvetica,sans-Serif" font-size="10.00">typeindex</text>
</a>
</g>
</g>
<!-- Node9&#45;&gt;Node11 -->
<g id="edge10_Node000009_Node000011" class="edge">
<title>Node9&#45;&gt;Node11</title>
<g id="a_edge10_Node000009_Node000011"><a xlink:title=" ">
<path fill="none" stroke="#63b8ff" d="M99.67,-109.98C91.33,-102.23 78.8,-90.58 68.65,-81.14"/>
<polygon fill="#63b8ff" stroke="#63b8ff" points="70.86,-78.42 61.15,-74.17 66.09,-83.54 70.86,-78.42"/>
</a>
</g>
</g>
<!-- Node12 -->
<g id="Node000012" class="node">
<title>Node12</title>
<g id="a_Node000012"><a xlink:title=" ">
<polygon fill="#e0e0e0" stroke="#999999" points="195.33,-74 102.33,-74 102.33,-55 195.33,-55 195.33,-74"/>
<text text-anchor="middle" x="148.83" y="-62" font-family="Helvetica,sans-Serif" font-size="10.00">unordered_map</text>
</a>
</g>
</g>
<!-- Node9&#45;&gt;Node12 -->
<g id="edge11_Node000009_Node000012" class="edge">
<title>Node9&#45;&gt;Node12</title>
<g id="a_edge11_Node000009_Node000012"><a xlink:title=" ">
<path fill="none" stroke="#63b8ff" d="M115.43,-109.75C121.08,-102.26 129.37,-91.28 136.28,-82.13"/>
<polygon fill="#63b8ff" stroke="#63b8ff" points="139.11,-84.18 142.35,-74.09 133.53,-79.96 139.11,-84.18"/>
</a>
</g>
</g>
<!-- Node13&#45;&gt;Node4 -->
<g id="edge13_Node000013_Node000004" class="edge">
<title>Node13&#45;&gt;Node4</title>
<g id="a_edge13_Node000013_Node000004"><a xlink:title=" ">
<path fill="none" stroke="#63b8ff" d="M418.05,-109.98C403.65,-101.69 381.52,-88.94 364.64,-79.22"/>
<polygon fill="#63b8ff" stroke="#63b8ff" points="366.29,-76.13 355.88,-74.17 362.8,-82.19 366.29,-76.13"/>
</a>
</g>
</g>
<!-- Node14 -->
<g id="Node000014" class="node">
<title>Node14</title>
<g id="a_Node000014"><a xlink:title=" ">
<polygon fill="#e0e0e0" stroke="#999999" points="588.83,-74 546.83,-74 546.83,-55 588.83,-55 588.83,-74"/>
<text text-anchor="middle" x="567.83" y="-62" font-family="Helvetica,sans-Serif" font-size="10.00">array</text>
</a>
</g>
</g>
<!-- Node13&#45;&gt;Node14 -->
<g id="edge14_Node000013_Node000014" class="edge">
<title>Node13&#45;&gt;Node14</title>
<g id="a_edge14_Node000013_Node000014"><a xlink:title=" ">
<path fill="none" stroke="#63b8ff" d="M454.52,-109.98C476.89,-101.2 511.97,-87.43 537.18,-77.53"/>
<polygon fill="#63b8ff" stroke="#63b8ff" points="538.61,-80.73 546.64,-73.82 536.05,-74.22 538.61,-80.73"/>
</a>
</g>
</g>
<!-- Node17&#45;&gt;Node3 -->
<g id="edge24_Node000017_Node000003" class="edge">
<title>Node17&#45;&gt;Node3</title>
<g id="a_edge24_Node000017_Node000003"><a xlink:title=" ">
<path fill="none" stroke="#63b8ff" d="M338.9,-274.84C351.43,-262.95 370.31,-240.7 362.83,-220 358.88,-209.09 350.97,-198.96 343.46,-191.14"/>
<polygon fill="#63b8ff" stroke="#63b8ff" points="345.87,-188.6 336.26,-184.13 340.99,-193.61 345.87,-188.6"/>
</a>
</g>
</g>
<!-- Node18 -->
<g id="Node000018" class="node">
<title>Node18</title>
<g id="a_Node000018"><a xlink:href="ExtraDataType_8h.html" target="_top" xlink:title=" ">
<polygon fill="white" stroke="#666666" points="668.33,-184 513.33,-184 513.33,-165 668.33,-165 668.33,-184"/>
<text text-anchor="middle" x="590.83" y="-172" font-family="Helvetica,sans-Serif" font-size="10.00">Application/ExtraDataType.h</text>
</a>
</g>
</g>
<!-- Node17&#45;&gt;Node18 -->
<g id="edge19_Node000017_Node000018" class="edge">
<title>Node17&#45;&gt;Node18</title>
<g id="a_edge19_Node000017_Node000018"><a xlink:title=" ">
<path fill="none" stroke="#63b8ff" d="M349.83,-274.84C396.12,-255.76 507.11,-210.01 560.77,-187.89"/>
<polygon fill="#63b8ff" stroke="#63b8ff" points="562.18,-191.09 570.09,-184.05 559.51,-184.62 562.18,-191.09"/>
</a>
</g>
</g>
<!-- Node20 -->
<g id="Node000020" class="node">
<title>Node20</title>
<g id="a_Node000020"><a xlink:href="PrimitiveProxy_8h.html" target="_top" xlink:title=" ">
<polygon fill="white" stroke="#666666" points="353.83,-239 199.83,-239 199.83,-220 353.83,-220 353.83,-239"/>
<text text-anchor="middle" x="276.83" y="-227" font-family="Helvetica,sans-Serif" font-size="10.00">Application/PrimitiveProxy.h</text>
</a>
</g>
</g>
<!-- Node17&#45;&gt;Node20 -->
<g id="edge25_Node000017_Node000020" class="edge">
<title>Node17&#45;&gt;Node20</title>
<g id="a_edge25_Node000017_Node000020"><a xlink:title=" ">
<path fill="none" stroke="#63b8ff" d="M320.24,-274.75C312.67,-267.03 301.45,-255.6 292.31,-246.28"/>
<polygon fill="#63b8ff" stroke="#63b8ff" points="294.76,-243.78 285.25,-239.09 289.76,-248.68 294.76,-243.78"/>
</a>
</g>
</g>
<!-- Node18&#45;&gt;Node4 -->
<g id="edge20_Node000018_Node000004" class="edge">
<title>Node18&#45;&gt;Node4</title>
<g id="a_edge20_Node000018_Node000004"><a xlink:title=" ">
<path fill="none" stroke="#63b8ff" d="M590.89,-164.63C590.48,-150.79 587.53,-124.2 571.83,-110 549.21,-89.54 474.35,-77.81 415.91,-71.58"/>
<polygon fill="#63b8ff" stroke="#63b8ff" points="416.25,-68.1 405.94,-70.56 415.53,-75.06 416.25,-68.1"/>
</a>
</g>
</g>
<!-- Node18&#45;&gt;Node14 -->
<g id="edge21_Node000018_Node000014" class="edge">
<title>Node18&#45;&gt;Node14</title>
<g id="a_edge21_Node000018_Node000014"><a xlink:title=" ">
<path fill="none" stroke="#63b8ff" d="M619.09,-164.94C648.55,-154.46 688.31,-134.98 671.83,-110 655.74,-85.62 623.23,-74.54 598.82,-69.55"/>
<polygon fill="#63b8ff" stroke="#63b8ff" points="599.39,-66.09 588.93,-67.76 598.14,-72.98 599.39,-66.09"/>
</a>
</g>
</g>
<!-- Node18&#45;&gt;Node16 -->
<g id="edge23_Node000018_Node000016" class="edge">
<title>Node18&#45;&gt;Node16</title>
<g id="a_edge23_Node000018_Node000016"><a xlink:title=" ">
<path fill="none" stroke="#63b8ff" d="M582.24,-164.75C574.67,-157.03 563.45,-145.6 554.31,-136.28"/>
<polygon fill="#63b8ff" stroke="#63b8ff" points="556.76,-133.78 547.25,-129.09 551.76,-138.68 556.76,-133.78"/>
</a>
</g>
</g>
<!-- Node19 -->
<g id="Node000019" class="node">
<title>Node19</title>
<g id="a_Node000019"><a xlink:title=" ">
<polygon fill="#e0e0e0" stroke="#999999" points="662.83,-129 618.83,-129 618.83,-110 662.83,-110 662.83,-129"/>
<text text-anchor="middle" x="640.83" y="-117" font-family="Helvetica,sans-Serif" font-size="10.00">string</text>
</a>
</g>
</g>
<!-- Node18&#45;&gt;Node19 -->
<g id="edge22_Node000018_Node000019" class="edge">
<title>Node18&#45;&gt;Node19</title>
<g id="a_edge22_Node000018_Node000019"><a xlink:title=" ">
<path fill="none" stroke="#63b8ff" d="M599.08,-164.75C606.29,-157.11 616.94,-145.82 625.67,-136.56"/>
<polygon fill="#63b8ff" stroke="#63b8ff" points="628.41,-138.76 632.72,-129.09 623.32,-133.96 628.41,-138.76"/>
</a>
</g>
</g>
<!-- Node20&#45;&gt;Node3 -->
<g id="edge27_Node000020_Node000003" class="edge">
<title>Node20&#45;&gt;Node3</title>
<g id="a_edge27_Node000020_Node000003"><a xlink:title=" ">
<path fill="none" stroke="#63b8ff" d="M284.92,-219.75C291.98,-212.11 302.42,-200.82 310.98,-191.56"/>
<polygon fill="#63b8ff" stroke="#63b8ff" points="313.67,-193.81 317.89,-184.09 308.53,-189.06 313.67,-193.81"/>
</a>
</g>
</g>
<!-- Node20&#45;&gt;Node4 -->
<g id="edge26_Node000020_Node000004" class="edge">
<title>Node20&#45;&gt;Node4</title>
<g id="a_edge26_Node000020_Node000004"><a xlink:title=" ">
<path fill="none" stroke="#63b8ff" d="M270.19,-219.75C255.41,-199.07 222.78,-146.25 245.83,-110 255.71,-94.45 272.62,-84.25 289.45,-77.58"/>
<polygon fill="#63b8ff" stroke="#63b8ff" points="291.06,-80.72 299.3,-74.06 288.71,-74.13 291.06,-80.72"/>
</a>
</g>
</g>
</g>
</svg>
