<?xml version="1.0" encoding="UTF-8" standalone="no"?>
<!DOCTYPE svg PUBLIC "-//W3C//DTD SVG 1.1//EN"
 "http://www.w3.org/Graphics/SVG/1.1/DTD/svg11.dtd">
<!-- Generated by graphviz version 2.43.0 (0)
 -->
<!-- Title: App/Test/Source/MeshLoader_utest.cpp Pages: 1 -->
<svg width="901pt" height="313pt"
 viewBox="0.00 0.00 901.39 313.00" xmlns="http://www.w3.org/2000/svg" xmlns:xlink="http://www.w3.org/1999/xlink">
<g id="graph0" class="graph" transform="scale(1 1) rotate(0) translate(4 309)">
<title>App/Test/Source/MeshLoader_utest.cpp</title>
<!-- Node1 -->
<g id="Node000001" class="node">
<title>Node1</title>
<g id="a_Node000001"><a xlink:title=" ">
<polygon fill="#999999" stroke="#666666" points="569.39,-305 413.39,-305 413.39,-275 569.39,-275 569.39,-305"/>
<text text-anchor="start" x="421.39" y="-293" font-family="Helvetica,sans-Serif" font-size="10.00">App/Test/Source/MeshLoader</text>
<text text-anchor="middle" x="491.39" y="-282" font-family="Helvetica,sans-Serif" font-size="10.00">_utest.cpp</text>
</a>
</g>
</g>
<!-- Node2 -->
<g id="Node000002" class="node">
<title>Node2</title>
<g id="a_Node000002"><a xlink:href="ExtraDataType_8h.html" target="_top" xlink:title=" ">
<polygon fill="white" stroke="#666666" points="162.89,-184 7.89,-184 7.89,-165 162.89,-165 162.89,-184"/>
<text text-anchor="middle" x="85.39" y="-172" font-family="Helvetica,sans-Serif" font-size="10.00">Application/ExtraDataType.h</text>
</a>
</g>
</g>
<!-- Node1&#45;&gt;Node2 -->
<g id="edge1_Node000001_Node000002" class="edge">
<title>Node1&#45;&gt;Node2</title>
<g id="a_edge1_Node000001_Node000002"><a xlink:title=" ">
<path fill="none" stroke="#63b8ff" d="M413.32,-282.46C329.24,-274.51 201.58,-259.57 157.39,-239 133.9,-228.06 112.39,-206.99 99.11,-192.12"/>
<polygon fill="#63b8ff" stroke="#63b8ff" points="101.48,-189.5 92.3,-184.21 96.17,-194.07 101.48,-189.5"/>
</a>
</g>
</g>
<!-- Node10 -->
<g id="Node000010" class="node">
<title>Node10</title>
<g id="a_Node000010"><a xlink:href="MathUtils_8h.html" target="_top" xlink:title=" ">
<polygon fill="white" stroke="#666666" points="796.89,-239 665.89,-239 665.89,-220 796.89,-220 796.89,-239"/>
<text text-anchor="middle" x="731.39" y="-227" font-family="Helvetica,sans-Serif" font-size="10.00">Application/MathUtils.h</text>
</a>
</g>
</g>
<!-- Node1&#45;&gt;Node10 -->
<g id="edge9_Node000001_Node000010" class="edge">
<title>Node1&#45;&gt;Node10</title>
<g id="a_edge9_Node000001_Node000010"><a xlink:title=" ">
<path fill="none" stroke="#63b8ff" d="M548.88,-274.99C591.02,-264.72 647.42,-250.97 686.32,-241.49"/>
<polygon fill="#63b8ff" stroke="#63b8ff" points="687.42,-244.82 696.3,-239.05 685.76,-238.02 687.42,-244.82"/>
</a>
</g>
</g>
<!-- Node13 -->
<g id="Node000013" class="node">
<title>Node13</title>
<g id="a_Node000013"><a xlink:href="MeshIntegrity_8h.html" target="_top" xlink:title=" ">
<polygon fill="white" stroke="#666666" points="647.89,-239 498.89,-239 498.89,-220 647.89,-220 647.89,-239"/>
<text text-anchor="middle" x="573.39" y="-227" font-family="Helvetica,sans-Serif" font-size="10.00">Application/MeshIntegrity.h</text>
</a>
</g>
</g>
<!-- Node1&#45;&gt;Node13 -->
<g id="edge13_Node000001_Node000013" class="edge">
<title>Node1&#45;&gt;Node13</title>
<g id="a_edge13_Node000001_Node000013"><a xlink:title=" ">
<path fill="none" stroke="#63b8ff" d="M511.24,-274.84C523.88,-265.83 540.2,-254.18 552.94,-245.09"/>
<polygon fill="#63b8ff" stroke="#63b8ff" points="555,-247.92 561.11,-239.27 550.93,-242.22 555,-247.92"/>
</a>
</g>
</g>
<!-- Node21 -->
<g id="Node000021" class="node">
<title>Node21</title>
<g id="a_Node000021"><a xlink:href="MeshLoader_8h.html" target="_top" xlink:title=" ">
<polygon fill="white" stroke="#666666" points="480.39,-239 338.39,-239 338.39,-220 480.39,-220 480.39,-239"/>
<text text-anchor="middle" x="409.39" y="-227" font-family="Helvetica,sans-Serif" font-size="10.00">Application/MeshLoader.h</text>
</a>
</g>
</g>
<!-- Node1&#45;&gt;Node21 -->
<g id="edge26_Node000001_Node000021" class="edge">
<title>Node1&#45;&gt;Node21</title>
<g id="a_edge26_Node000001_Node000021"><a xlink:title=" ">
<path fill="none" stroke="#63b8ff" d="M471.54,-274.84C458.91,-265.83 442.59,-254.18 429.85,-245.09"/>
<polygon fill="#63b8ff" stroke="#63b8ff" points="431.86,-242.22 421.68,-239.27 427.79,-247.92 431.86,-242.22"/>
</a>
</g>
</g>
<!-- Node23 -->
<g id="Node000023" class="node">
<title>Node23</title>
<g id="a_Node000023"><a xlink:href="PrimitiveProxy_8h.html" target="_top" xlink:title=" ">
<polygon fill="white" stroke="#666666" points="320.39,-239 166.39,-239 166.39,-220 320.39,-220 320.39,-239"/>
<text text-anchor="middle" x="243.39" y="-227" font-family="Helvetica,sans-Serif" font-size="10.00">Application/PrimitiveProxy.h</text>
</a>
</g>
</g>
<!-- Node1&#45;&gt;Node23 -->
<g id="edge29_Node000001_Node000023" class="edge">
<title>Node1&#45;&gt;Node23</title>
<g id="a_edge29_Node000001_Node000023"><a xlink:title=" ">
<path fill="none" stroke="#63b8ff" d="M431.99,-274.99C388.27,-264.67 329.67,-250.85 289.46,-241.37"/>
<polygon fill="#63b8ff" stroke="#63b8ff" points="290.19,-237.94 279.66,-239.05 288.59,-244.76 290.19,-237.94"/>
</a>
</g>
</g>
<!-- Node24 -->
<g id="Node000024" class="node">
<title>Node24</title>
<g id="a_Node000024"><a xlink:title=" ">
<polygon fill="#e0e0e0" stroke="#999999" points="893.39,-239 815.39,-239 815.39,-220 893.39,-220 893.39,-239"/>
<text text-anchor="middle" x="854.39" y="-227" font-family="Helvetica,sans-Serif" font-size="10.00">gtest/gtest.h</text>
</a>
</g>
</g>
<!-- Node1&#45;&gt;Node24 -->
<g id="edge32_Node000001_Node000024" class="edge">
<title>Node1&#45;&gt;Node24</title>
<g id="a_edge32_Node000001_Node000024"><a xlink:title=" ">
<path fill="none" stroke="#63b8ff" d="M569.45,-277.01C630.87,-267.48 718.89,-253.62 805.38,-239.15"/>
<polygon fill="#63b8ff" stroke="#63b8ff" points="806.09,-242.58 815.37,-237.47 804.93,-235.67 806.09,-242.58"/>
</a>
</g>
</g>
<!-- Node3 -->
<g id="Node000003" class="node">
<title>Node3</title>
<g id="a_Node000003"><a xlink:href="BaseType_8h.html" target="_top" xlink:title=" ">
<polygon fill="white" stroke="#666666" points="419.39,-74 289.39,-74 289.39,-55 419.39,-55 419.39,-74"/>
<text text-anchor="middle" x="354.39" y="-62" font-family="Helvetica,sans-Serif" font-size="10.00">Application/BaseType.h</text>
</a>
</g>
</g>
<!-- Node2&#45;&gt;Node3 -->
<g id="edge2_Node000002_Node000003" class="edge">
<title>Node2&#45;&gt;Node3</title>
<g id="a_edge2_Node000002_Node000003"><a xlink:title=" ">
<path fill="none" stroke="#63b8ff" d="M85.31,-164.6C85.69,-150.73 88.59,-124.09 104.39,-110 129.73,-87.41 215.07,-75.89 279.04,-70.3"/>
<polygon fill="#63b8ff" stroke="#63b8ff" points="279.44,-73.78 289.11,-69.46 278.85,-66.81 279.44,-73.78"/>
</a>
</g>
</g>
<!-- Node7 -->
<g id="Node000007" class="node">
<title>Node7</title>
<g id="a_Node000007"><a xlink:title=" ">
<polygon fill="#e0e0e0" stroke="#999999" points="148.39,-74 106.39,-74 106.39,-55 148.39,-55 148.39,-74"/>
<text text-anchor="middle" x="127.39" y="-62" font-family="Helvetica,sans-Serif" font-size="10.00">array</text>
</a>
</g>
</g>
<!-- Node2&#45;&gt;Node7 -->
<g id="edge6_Node000002_Node000007" class="edge">
<title>Node2&#45;&gt;Node7</title>
<g id="a_edge6_Node000002_Node000007"><a xlink:title=" ">
<path fill="none" stroke="#63b8ff" d="M57.41,-164.95C27.66,-154.36 -12.9,-134.65 4.39,-110 24.96,-80.7 66.84,-70.61 95.98,-67.18"/>
<polygon fill="#63b8ff" stroke="#63b8ff" points="96.47,-70.65 106.08,-66.2 95.79,-63.68 96.47,-70.65"/>
</a>
</g>
</g>
<!-- Node8 -->
<g id="Node000008" class="node">
<title>Node8</title>
<g id="a_Node000008"><a xlink:title=" ">
<polygon fill="#e0e0e0" stroke="#999999" points="57.39,-129 13.39,-129 13.39,-110 57.39,-110 57.39,-129"/>
<text text-anchor="middle" x="35.39" y="-117" font-family="Helvetica,sans-Serif" font-size="10.00">string</text>
</a>
</g>
</g>
<!-- Node2&#45;&gt;Node8 -->
<g id="edge7_Node000002_Node000008" class="edge">
<title>Node2&#45;&gt;Node8</title>
<g id="a_edge7_Node000002_Node000008"><a xlink:title=" ">
<path fill="none" stroke="#63b8ff" d="M77.14,-164.75C69.93,-157.11 59.29,-145.82 50.55,-136.56"/>
<polygon fill="#63b8ff" stroke="#63b8ff" points="52.91,-133.96 43.5,-129.09 47.81,-138.76 52.91,-133.96"/>
</a>
</g>
</g>
<!-- Node9 -->
<g id="Node000009" class="node">
<title>Node9</title>
<g id="a_Node000009"><a xlink:title=" ">
<polygon fill="#e0e0e0" stroke="#999999" points="160.89,-129 113.89,-129 113.89,-110 160.89,-110 160.89,-129"/>
<text text-anchor="middle" x="137.39" y="-117" font-family="Helvetica,sans-Serif" font-size="10.00">vector</text>
</a>
</g>
</g>
<!-- Node2&#45;&gt;Node9 -->
<g id="edge8_Node000002_Node000009" class="edge">
<title>Node2&#45;&gt;Node9</title>
<g id="a_edge8_Node000002_Node000009"><a xlink:title=" ">
<path fill="none" stroke="#63b8ff" d="M93.98,-164.75C101.55,-157.03 112.77,-145.6 121.91,-136.28"/>
<polygon fill="#63b8ff" stroke="#63b8ff" points="124.46,-138.68 128.97,-129.09 119.47,-133.78 124.46,-138.68"/>
</a>
</g>
</g>
<!-- Node4 -->
<g id="Node000004" class="node">
<title>Node4</title>
<g id="a_Node000004"><a xlink:title=" ">
<polygon fill="#e0e0e0" stroke="#999999" points="432.39,-19 354.39,-19 354.39,0 432.39,0 432.39,-19"/>
<text text-anchor="middle" x="393.39" y="-7" font-family="Helvetica,sans-Serif" font-size="10.00">glm/glm.hpp</text>
</a>
</g>
</g>
<!-- Node3&#45;&gt;Node4 -->
<g id="edge3_Node000003_Node000004" class="edge">
<title>Node3&#45;&gt;Node4</title>
<g id="a_edge3_Node000003_Node000004"><a xlink:title=" ">
<path fill="none" stroke="#63b8ff" d="M360.83,-54.75C366.29,-47.34 374.26,-36.5 380.95,-27.41"/>
<polygon fill="#63b8ff" stroke="#63b8ff" points="383.97,-29.22 387.07,-19.09 378.33,-25.07 383.97,-29.22"/>
</a>
</g>
</g>
<!-- Node5 -->
<g id="Node000005" class="node">
<title>Node5</title>
<g id="a_Node000005"><a xlink:title=" ">
<polygon fill="#e0e0e0" stroke="#999999" points="336.39,-19 292.39,-19 292.39,0 336.39,0 336.39,-19"/>
<text text-anchor="middle" x="314.39" y="-7" font-family="Helvetica,sans-Serif" font-size="10.00">bitset</text>
</a>
</g>
</g>
<!-- Node3&#45;&gt;Node5 -->
<g id="edge4_Node000003_Node000005" class="edge">
<title>Node3&#45;&gt;Node5</title>
<g id="a_edge4_Node000003_Node000005"><a xlink:title=" ">
<path fill="none" stroke="#63b8ff" d="M347.79,-54.75C342.14,-47.26 333.85,-36.28 326.94,-27.13"/>
<polygon fill="#63b8ff" stroke="#63b8ff" points="329.69,-24.96 320.88,-19.09 324.11,-29.18 329.69,-24.96"/>
</a>
</g>
</g>
<!-- Node6 -->
<g id="Node000006" class="node">
<title>Node6</title>
<g id="a_Node000006"><a xlink:title=" ">
<polygon fill="#e0e0e0" stroke="#999999" points="653.39,-19 603.39,-19 603.39,0 653.39,0 653.39,-19"/>
<text text-anchor="middle" x="628.39" y="-7" font-family="Helvetica,sans-Serif" font-size="10.00">cstdint</text>
</a>
</g>
</g>
<!-- Node3&#45;&gt;Node6 -->
<g id="edge5_Node000003_Node000006" class="edge">
<title>Node3&#45;&gt;Node6</title>
<g id="a_edge5_Node000003_Node000006"><a xlink:title=" ">
<path fill="none" stroke="#63b8ff" d="M398.42,-54.98C452.65,-44.49 543.69,-26.88 593.4,-17.27"/>
<polygon fill="#63b8ff" stroke="#63b8ff" points="594.2,-20.68 603.35,-15.34 592.87,-13.81 594.2,-20.68"/>
</a>
</g>
</g>
<!-- Node10&#45;&gt;Node3 -->
<g id="edge10_Node000010_Node000003" class="edge">
<title>Node10&#45;&gt;Node3</title>
<g id="a_edge10_Node000010_Node000003"><a xlink:title=" ">
<path fill="none" stroke="#63b8ff" d="M711.08,-219.9C671.45,-203.04 581.17,-164.2 506.39,-129 489.31,-120.96 485.65,-117.66 468.39,-110 441.67,-98.13 410.73,-86.16 387.83,-77.63"/>
<polygon fill="#63b8ff" stroke="#63b8ff" points="388.83,-74.27 378.23,-74.08 386.4,-80.83 388.83,-74.27"/>
</a>
</g>
</g>
<!-- Node11 -->
<g id="Node000011" class="node">
<title>Node11</title>
<g id="a_Node000011"><a xlink:title=" ">
<polygon fill="#e0e0e0" stroke="#999999" points="786.89,-184 739.89,-184 739.89,-165 786.89,-165 786.89,-184"/>
<text text-anchor="middle" x="763.39" y="-172" font-family="Helvetica,sans-Serif" font-size="10.00">cmath</text>
</a>
</g>
</g>
<!-- Node10&#45;&gt;Node11 -->
<g id="edge11_Node000010_Node000011" class="edge">
<title>Node10&#45;&gt;Node11</title>
<g id="a_edge11_Node000010_Node000011"><a xlink:title=" ">
<path fill="none" stroke="#63b8ff" d="M736.68,-219.75C741.11,-212.42 747.56,-201.73 753.01,-192.7"/>
<polygon fill="#63b8ff" stroke="#63b8ff" points="756.04,-194.46 758.21,-184.09 750.04,-190.84 756.04,-194.46"/>
</a>
</g>
</g>
<!-- Node12 -->
<g id="Node000012" class="node">
<title>Node12</title>
<g id="a_Node000012"><a xlink:title=" ">
<polygon fill="#e0e0e0" stroke="#999999" points="721.39,-184 677.39,-184 677.39,-165 721.39,-165 721.39,-184"/>
<text text-anchor="middle" x="699.39" y="-172" font-family="Helvetica,sans-Serif" font-size="10.00">limits</text>
</a>
</g>
</g>
<!-- Node10&#45;&gt;Node12 -->
<g id="edge12_Node000010_Node000012" class="edge">
<title>Node10&#45;&gt;Node12</title>
<g id="a_edge12_Node000010_Node000012"><a xlink:title=" ">
<path fill="none" stroke="#63b8ff" d="M726.11,-219.75C721.68,-212.42 715.23,-201.73 709.78,-192.7"/>
<polygon fill="#63b8ff" stroke="#63b8ff" points="712.75,-190.84 704.58,-184.09 706.75,-194.46 712.75,-190.84"/>
</a>
</g>
</g>
<!-- Node13&#45;&gt;Node6 -->
<g id="edge25_Node000013_Node000006" class="edge">
<title>Node13&#45;&gt;Node6</title>
<g id="a_edge25_Node000013_Node000006"><a xlink:title=" ">
<path fill="none" stroke="#63b8ff" d="M587.53,-219.96C618.54,-200.88 690.81,-154.48 703.39,-129 717.96,-99.51 719.67,-83.58 703.39,-55 694.58,-39.53 678.04,-28.88 662.73,-21.89"/>
<polygon fill="#63b8ff" stroke="#63b8ff" points="664.01,-18.63 653.44,-18 661.31,-25.09 664.01,-18.63"/>
</a>
</g>
</g>
<!-- Node14 -->
<g id="Node000014" class="node">
<title>Node14</title>
<g id="a_Node000014"><a xlink:href="Mesh_8h.html" target="_top" xlink:title=" ">
<polygon fill="white" stroke="#666666" points="516.39,-184 406.39,-184 406.39,-165 516.39,-165 516.39,-184"/>
<text text-anchor="middle" x="461.39" y="-172" font-family="Helvetica,sans-Serif" font-size="10.00">Application/Mesh.h</text>
</a>
</g>
</g>
<!-- Node13&#45;&gt;Node14 -->
<g id="edge14_Node000013_Node000014" class="edge">
<title>Node13&#45;&gt;Node14</title>
<g id="a_edge14_Node000013_Node000014"><a xlink:title=" ">
<path fill="none" stroke="#63b8ff" d="M555.4,-219.98C537.46,-211.5 509.68,-198.35 488.96,-188.54"/>
<polygon fill="#63b8ff" stroke="#63b8ff" points="490.25,-185.28 479.72,-184.17 487.26,-191.61 490.25,-185.28"/>
</a>
</g>
</g>
<!-- Node14&#45;&gt;Node3 -->
<g id="edge15_Node000014_Node000003" class="edge">
<title>Node14&#45;&gt;Node3</title>
<g id="a_edge15_Node000014_Node000003"><a xlink:title=" ">
<path fill="none" stroke="#63b8ff" d="M443.64,-164.99C428.67,-157.17 407.36,-144.47 392.39,-129 379.44,-115.61 368.97,-97.01 362.32,-83.4"/>
<polygon fill="#63b8ff" stroke="#63b8ff" points="365.4,-81.72 358.01,-74.14 359.06,-84.68 365.4,-81.72"/>
</a>
</g>
</g>
<!-- Node14&#45;&gt;Node9 -->
<g id="edge24_Node000014_Node000009" class="edge">
<title>Node14&#45;&gt;Node9</title>
<g id="a_edge24_Node000014_Node000009"><a xlink:title=" ">
<path fill="none" stroke="#63b8ff" d="M406.2,-165.73C338.97,-156.17 228.28,-140.03 171.14,-128.93"/>
<polygon fill="#63b8ff" stroke="#63b8ff" points="171.61,-125.45 161.12,-126.91 170.24,-132.31 171.61,-125.45"/>
</a>
</g>
</g>
<!-- Node15 -->
<g id="Node000015" class="node">
<title>Node15</title>
<g id="a_Node000015"><a xlink:href="ExtraDataContainer_8h.html" target="_top" xlink:title=" ">
<polygon fill="white" stroke="#666666" points="694.89,-129 515.89,-129 515.89,-110 694.89,-110 694.89,-129"/>
<text text-anchor="middle" x="605.39" y="-117" font-family="Helvetica,sans-Serif" font-size="10.00">Application/ExtraDataContainer.h</text>
</a>
</g>
</g>
<!-- Node14&#45;&gt;Node15 -->
<g id="edge16_Node000014_Node000015" class="edge">
<title>Node14&#45;&gt;Node15</title>
<g id="a_edge16_Node000014_Node000015"><a xlink:title=" ">
<path fill="none" stroke="#63b8ff" d="M484.53,-164.98C508.22,-156.27 545.26,-142.63 572.1,-132.75"/>
<polygon fill="#63b8ff" stroke="#63b8ff" points="573.66,-135.91 581.84,-129.17 571.24,-129.34 573.66,-135.91"/>
</a>
</g>
</g>
<!-- Node19 -->
<g id="Node000019" class="node">
<title>Node19</title>
<g id="a_Node000019"><a xlink:href="Primitive_8h.html" target="_top" xlink:title=" ">
<polygon fill="white" stroke="#666666" points="307.39,-129 179.39,-129 179.39,-110 307.39,-110 307.39,-129"/>
<text text-anchor="middle" x="243.39" y="-117" font-family="Helvetica,sans-Serif" font-size="10.00">Application/Primitive.h</text>
</a>
</g>
</g>
<!-- Node14&#45;&gt;Node19 -->
<g id="edge20_Node000014_Node000019" class="edge">
<title>Node14&#45;&gt;Node19</title>
<g id="a_edge20_Node000014_Node000019"><a xlink:title=" ">
<path fill="none" stroke="#63b8ff" d="M426.37,-164.98C388.9,-155.87 329.34,-141.4 288.42,-131.45"/>
<polygon fill="#63b8ff" stroke="#63b8ff" points="289.24,-128.04 278.69,-129.08 287.58,-134.85 289.24,-128.04"/>
</a>
</g>
</g>
<!-- Node20 -->
<g id="Node000020" class="node">
<title>Node20</title>
<g id="a_Node000020"><a xlink:title=" ">
<polygon fill="#e0e0e0" stroke="#999999" points="459.39,-129 401.39,-129 401.39,-110 459.39,-110 459.39,-129"/>
<text text-anchor="middle" x="430.39" y="-117" font-family="Helvetica,sans-Serif" font-size="10.00">memory</text>
</a>
</g>
</g>
<!-- Node14&#45;&gt;Node20 -->
<g id="edge23_Node000014_Node000020" class="edge">
<title>Node14&#45;&gt;Node20</title>
<g id="a_edge23_Node000014_Node000020"><a xlink:title=" ">
<path fill="none" stroke="#63b8ff" d="M456.28,-164.75C452.03,-157.49 445.87,-146.95 440.62,-137.98"/>
<polygon fill="#63b8ff" stroke="#63b8ff" points="443.49,-135.95 435.42,-129.09 437.45,-139.49 443.49,-135.95"/>
</a>
</g>
</g>
<!-- Node16 -->
<g id="Node000016" class="node">
<title>Node16</title>
<g id="a_Node000016"><a xlink:title=" ">
<polygon fill="#e0e0e0" stroke="#999999" points="611.89,-74 576.89,-74 576.89,-55 611.89,-55 611.89,-74"/>
<text text-anchor="middle" x="594.39" y="-62" font-family="Helvetica,sans-Serif" font-size="10.00">any</text>
</a>
</g>
</g>
<!-- Node15&#45;&gt;Node16 -->
<g id="edge17_Node000015_Node000016" class="edge">
<title>Node15&#45;&gt;Node16</title>
<g id="a_edge17_Node000015_Node000016"><a xlink:title=" ">
<path fill="none" stroke="#63b8ff" d="M603.58,-109.75C602.14,-102.8 600.07,-92.85 598.26,-84.13"/>
<polygon fill="#63b8ff" stroke="#63b8ff" points="601.64,-83.17 596.18,-74.09 594.78,-84.59 601.64,-83.17"/>
</a>
</g>
</g>
<!-- Node17 -->
<g id="Node000017" class="node">
<title>Node17</title>
<g id="a_Node000017"><a xlink:title=" ">
<polygon fill="#e0e0e0" stroke="#999999" points="694.89,-74 629.89,-74 629.89,-55 694.89,-55 694.89,-74"/>
<text text-anchor="middle" x="662.39" y="-62" font-family="Helvetica,sans-Serif" font-size="10.00">typeindex</text>
</a>
</g>
</g>
<!-- Node15&#45;&gt;Node17 -->
<g id="edge18_Node000015_Node000017" class="edge">
<title>Node15&#45;&gt;Node17</title>
<g id="a_edge18_Node000015_Node000017"><a xlink:title=" ">
<path fill="none" stroke="#63b8ff" d="M614.55,-109.98C622.9,-102.23 635.43,-90.58 645.57,-81.14"/>
<polygon fill="#63b8ff" stroke="#63b8ff" points="648.13,-83.54 653.07,-74.17 643.36,-78.42 648.13,-83.54"/>
</a>
</g>
</g>
<!-- Node18 -->
<g id="Node000018" class="node">
<title>Node18</title>
<g id="a_Node000018"><a xlink:title=" ">
<polygon fill="#e0e0e0" stroke="#999999" points="558.89,-74 465.89,-74 465.89,-55 558.89,-55 558.89,-74"/>
<text text-anchor="middle" x="512.39" y="-62" font-family="Helvetica,sans-Serif" font-size="10.00">unordered_map</text>
</a>
</g>
</g>
<!-- Node15&#45;&gt;Node18 -->
<g id="edge19_Node000015_Node000018" class="edge">
<title>Node15&#45;&gt;Node18</title>
<g id="a_edge19_Node000015_Node000018"><a xlink:title=" ">
<path fill="none" stroke="#63b8ff" d="M590.45,-109.98C575.9,-101.69 553.53,-88.94 536.46,-79.22"/>
<polygon fill="#63b8ff" stroke="#63b8ff" points="538.03,-76.08 527.61,-74.17 534.56,-82.16 538.03,-76.08"/>
</a>
</g>
</g>
<!-- Node19&#45;&gt;Node3 -->
<g id="edge21_Node000019_Node000003" class="edge">
<title>Node19&#45;&gt;Node3</title>
<g id="a_edge21_Node000019_Node000003"><a xlink:title=" ">
<path fill="none" stroke="#63b8ff" d="M261.23,-109.98C279,-101.5 306.54,-88.35 327.07,-78.54"/>
<polygon fill="#63b8ff" stroke="#63b8ff" points="328.72,-81.64 336.24,-74.17 325.7,-75.32 328.72,-81.64"/>
</a>
</g>
</g>
<!-- Node19&#45;&gt;Node7 -->
<g id="edge22_Node000019_Node000007" class="edge">
<title>Node19&#45;&gt;Node7</title>
<g id="a_edge22_Node000019_Node000007"><a xlink:title=" ">
<path fill="none" stroke="#63b8ff" d="M224.76,-109.98C206.1,-101.46 177.14,-88.23 155.66,-78.41"/>
<polygon fill="#63b8ff" stroke="#63b8ff" points="156.92,-75.14 146.37,-74.17 154.01,-81.51 156.92,-75.14"/>
</a>
</g>
</g>
<!-- Node21&#45;&gt;Node14 -->
<g id="edge27_Node000021_Node000014" class="edge">
<title>Node21&#45;&gt;Node14</title>
<g id="a_edge27_Node000021_Node000014"><a xlink:title=" ">
<path fill="none" stroke="#63b8ff" d="M417.98,-219.75C425.55,-212.03 436.77,-200.6 445.91,-191.28"/>
<polygon fill="#63b8ff" stroke="#63b8ff" points="448.46,-193.68 452.97,-184.09 443.47,-188.78 448.46,-193.68"/>
</a>
</g>
</g>
<!-- Node22 -->
<g id="Node000022" class="node">
<title>Node22</title>
<g id="a_Node000022"><a xlink:title=" ">
<polygon fill="#e0e0e0" stroke="#999999" points="388.39,-184 320.39,-184 320.39,-165 388.39,-165 388.39,-184"/>
<text text-anchor="middle" x="354.39" y="-172" font-family="Helvetica,sans-Serif" font-size="10.00">filesystem</text>
</a>
</g>
</g>
<!-- Node21&#45;&gt;Node22 -->
<g id="edge28_Node000021_Node000022" class="edge">
<title>Node21&#45;&gt;Node22</title>
<g id="a_edge28_Node000021_Node000022"><a xlink:title=" ">
<path fill="none" stroke="#63b8ff" d="M400.31,-219.75C392.3,-212.03 380.44,-200.6 370.77,-191.28"/>
<polygon fill="#63b8ff" stroke="#63b8ff" points="372.94,-188.51 363.31,-184.09 368.08,-193.55 372.94,-188.51"/>
</a>
</g>
</g>
<!-- Node23&#45;&gt;Node3 -->
<g id="edge30_Node000023_Node000003" class="edge">
<title>Node23&#45;&gt;Node3</title>
<g id="a_edge30_Node000023_Node000003"><a xlink:title=" ">
<path fill="none" stroke="#63b8ff" d="M250.12,-219.91C263.34,-202.91 293.4,-163.63 316.39,-129 326.47,-113.82 337.05,-95.97 344.48,-83.06"/>
<polygon fill="#63b8ff" stroke="#63b8ff" points="347.57,-84.71 349.48,-74.29 341.49,-81.24 347.57,-84.71"/>
</a>
</g>
</g>
<!-- Node23&#45;&gt;Node14 -->
<g id="edge31_Node000023_Node000014" class="edge">
<title>Node23&#45;&gt;Node14</title>
<g id="a_edge31_Node000023_Node000014"><a xlink:title=" ">
<path fill="none" stroke="#63b8ff" d="M278.42,-219.98C315.89,-210.87 375.45,-196.4 416.37,-186.45"/>
<polygon fill="#63b8ff" stroke="#63b8ff" points="417.2,-189.85 426.09,-184.08 415.55,-183.04 417.2,-189.85"/>
</a>
</g>
</g>
</g>
</svg>
