<?xml version="1.0" encoding="UTF-8" standalone="no"?>
<!DOCTYPE svg PUBLIC "-//W3C//DTD SVG 1.1//EN"
 "http://www.w3.org/Graphics/SVG/1.1/DTD/svg11.dtd">
<!-- Generated by graphviz version 2.43.0 (0)
 -->
<!-- Title: App/Test/Source/MeshLoader_utest.cpp Pages: 1 -->
<svg width="573pt" height="313pt"
 viewBox="0.00 0.00 573.02 313.00" xmlns="http://www.w3.org/2000/svg" xmlns:xlink="http://www.w3.org/1999/xlink">
<g id="graph0" class="graph" transform="scale(1 1) rotate(0) translate(4 309)">
<title>App/Test/Source/MeshLoader_utest.cpp</title>
<!-- Node1 -->
<g id="Node000001" class="node">
<title>Node1</title>
<g id="a_Node000001"><a xlink:title=" ">
<polygon fill="#999999" stroke="#666666" points="476.02,-305 320.02,-305 320.02,-275 476.02,-275 476.02,-305"/>
<text text-anchor="start" x="328.02" y="-293" font-family="Helvetica,sans-Serif" font-size="10.00">App/Test/Source/MeshLoader</text>
<text text-anchor="middle" x="398.02" y="-282" font-family="Helvetica,sans-Serif" font-size="10.00">_utest.cpp</text>
</a>
</g>
</g>
<!-- Node2 -->
<g id="Node000002" class="node">
<title>Node2</title>
<g id="a_Node000002"><a xlink:href="MeshIntegrity_8h.html" target="_top" xlink:title=" ">
<polygon fill="white" stroke="#666666" points="308.52,-239 159.52,-239 159.52,-220 308.52,-220 308.52,-239"/>
<text text-anchor="middle" x="234.02" y="-227" font-family="Helvetica,sans-Serif" font-size="10.00">Application/MeshIntegrity.h</text>
</a>
</g>
</g>
<!-- Node1&#45;&gt;Node2 -->
<g id="edge1_Node000001_Node000002" class="edge">
<title>Node1&#45;&gt;Node2</title>
<g id="a_edge1_Node000001_Node000002"><a xlink:title=" ">
<path fill="none" stroke="#63b8ff" d="M358.74,-274.99C331.01,-265.1 294.24,-251.98 267.82,-242.56"/>
<polygon fill="#63b8ff" stroke="#63b8ff" points="268.83,-239.2 258.24,-239.14 266.48,-245.8 268.83,-239.2"/>
</a>
</g>
</g>
<!-- Node15 -->
<g id="Node000015" class="node">
<title>Node15</title>
<g id="a_Node000015"><a xlink:href="MeshLoader_8h.html" target="_top" xlink:title=" ">
<polygon fill="white" stroke="#666666" points="469.02,-239 327.02,-239 327.02,-220 469.02,-220 469.02,-239"/>
<text text-anchor="middle" x="398.02" y="-227" font-family="Helvetica,sans-Serif" font-size="10.00">Application/MeshLoader.h</text>
</a>
</g>
</g>
<!-- Node1&#45;&gt;Node15 -->
<g id="edge16_Node000001_Node000015" class="edge">
<title>Node1&#45;&gt;Node15</title>
<g id="a_edge16_Node000001_Node000015"><a xlink:title=" ">
<path fill="none" stroke="#63b8ff" d="M398.02,-274.84C398.02,-267.21 398.02,-257.7 398.02,-249.45"/>
<polygon fill="#63b8ff" stroke="#63b8ff" points="401.52,-249.27 398.02,-239.27 394.52,-249.27 401.52,-249.27"/>
</a>
</g>
</g>
<!-- Node17 -->
<g id="Node000017" class="node">
<title>Node17</title>
<g id="a_Node000017"><a xlink:title=" ">
<polygon fill="#e0e0e0" stroke="#999999" points="565.02,-239 487.02,-239 487.02,-220 565.02,-220 565.02,-239"/>
<text text-anchor="middle" x="526.02" y="-227" font-family="Helvetica,sans-Serif" font-size="10.00">gtest/gtest.h</text>
</a>
</g>
</g>
<!-- Node1&#45;&gt;Node17 -->
<g id="edge19_Node000001_Node000017" class="edge">
<title>Node1&#45;&gt;Node17</title>
<g id="a_edge19_Node000001_Node000017"><a xlink:title=" ">
<path fill="none" stroke="#63b8ff" d="M428.68,-274.99C449.75,-265.36 477.51,-252.67 497.99,-243.31"/>
<polygon fill="#63b8ff" stroke="#63b8ff" points="499.48,-246.48 507.12,-239.14 496.57,-240.11 499.48,-246.48"/>
</a>
</g>
</g>
<!-- Node3 -->
<g id="Node000003" class="node">
<title>Node3</title>
<g id="a_Node000003"><a xlink:href="Mesh_8h.html" target="_top" xlink:title=" ">
<polygon fill="white" stroke="#666666" points="400.02,-184 290.02,-184 290.02,-165 400.02,-165 400.02,-184"/>
<text text-anchor="middle" x="345.02" y="-172" font-family="Helvetica,sans-Serif" font-size="10.00">Application/Mesh.h</text>
</a>
</g>
</g>
<!-- Node2&#45;&gt;Node3 -->
<g id="edge2_Node000002_Node000003" class="edge">
<title>Node2&#45;&gt;Node3</title>
<g id="a_edge2_Node000002_Node000003"><a xlink:title=" ">
<path fill="none" stroke="#63b8ff" d="M251.85,-219.98C269.63,-211.5 297.17,-198.35 317.7,-188.54"/>
<polygon fill="#63b8ff" stroke="#63b8ff" points="319.34,-191.64 326.86,-184.17 316.33,-185.32 319.34,-191.64"/>
</a>
</g>
</g>
<!-- Node6 -->
<g id="Node000006" class="node">
<title>Node6</title>
<g id="a_Node000006"><a xlink:title=" ">
<polygon fill="#e0e0e0" stroke="#999999" points="178.02,-19 128.02,-19 128.02,0 178.02,0 178.02,-19"/>
<text text-anchor="middle" x="153.02" y="-7" font-family="Helvetica,sans-Serif" font-size="10.00">cstdint</text>
</a>
</g>
</g>
<!-- Node2&#45;&gt;Node6 -->
<g id="edge15_Node000002_Node000006" class="edge">
<title>Node2&#45;&gt;Node6</title>
<g id="a_edge15_Node000002_Node000006"><a xlink:title=" ">
<path fill="none" stroke="#63b8ff" d="M184.73,-219.96C134.49,-208.48 58.5,-182.93 19.02,-129 -0.5,-102.34 -7.51,-81.64 12.02,-55 36.05,-22.21 84.31,-12.96 117.62,-10.67"/>
<polygon fill="#63b8ff" stroke="#63b8ff" points="118.05,-14.16 127.86,-10.16 117.7,-7.17 118.05,-14.16"/>
</a>
</g>
</g>
<!-- Node4 -->
<g id="Node000004" class="node">
<title>Node4</title>
<g id="a_Node000004"><a xlink:href="BaseType_8h.html" target="_top" xlink:title=" ">
<polygon fill="white" stroke="#666666" points="459.02,-74 329.02,-74 329.02,-55 459.02,-55 459.02,-74"/>
<text text-anchor="middle" x="394.02" y="-62" font-family="Helvetica,sans-Serif" font-size="10.00">Application/BaseType.h</text>
</a>
</g>
</g>
<!-- Node3&#45;&gt;Node4 -->
<g id="edge3_Node000003_Node000004" class="edge">
<title>Node3&#45;&gt;Node4</title>
<g id="a_edge3_Node000003_Node000004"><a xlink:title=" ">
<path fill="none" stroke="#63b8ff" d="M400.36,-165.34C441.34,-158.04 492.2,-145.87 505.02,-129 524.5,-103.36 486.28,-86.39 449.48,-76.5"/>
<polygon fill="#63b8ff" stroke="#63b8ff" points="450.25,-73.08 439.69,-74.01 448.53,-79.87 450.25,-73.08"/>
</a>
</g>
</g>
<!-- Node7 -->
<g id="Node000007" class="node">
<title>Node7</title>
<g id="a_Node000007"><a xlink:href="ExtraDataContainer_8h.html" target="_top" xlink:title=" ">
<polygon fill="white" stroke="#666666" points="207.52,-129 28.52,-129 28.52,-110 207.52,-110 207.52,-129"/>
<text text-anchor="middle" x="118.02" y="-117" font-family="Helvetica,sans-Serif" font-size="10.00">Application/ExtraDataContainer.h</text>
</a>
</g>
</g>
<!-- Node3&#45;&gt;Node7 -->
<g id="edge6_Node000003_Node000007" class="edge">
<title>Node3&#45;&gt;Node7</title>
<g id="a_edge6_Node000003_Node000007"><a xlink:title=" ">
<path fill="none" stroke="#63b8ff" d="M308.55,-164.98C269.45,-155.86 207.25,-141.33 164.63,-131.38"/>
<polygon fill="#63b8ff" stroke="#63b8ff" points="165.31,-127.95 154.78,-129.08 163.72,-134.76 165.31,-127.95"/>
</a>
</g>
</g>
<!-- Node11 -->
<g id="Node000011" class="node">
<title>Node11</title>
<g id="a_Node000011"><a xlink:href="Primitive_8h.html" target="_top" xlink:title=" ">
<polygon fill="white" stroke="#666666" points="354.02,-129 226.02,-129 226.02,-110 354.02,-110 354.02,-129"/>
<text text-anchor="middle" x="290.02" y="-117" font-family="Helvetica,sans-Serif" font-size="10.00">Application/Primitive.h</text>
</a>
</g>
</g>
<!-- Node3&#45;&gt;Node11 -->
<g id="edge10_Node000003_Node000011" class="edge">
<title>Node3&#45;&gt;Node11</title>
<g id="a_edge10_Node000003_Node000011"><a xlink:title=" ">
<path fill="none" stroke="#63b8ff" d="M335.94,-164.75C327.93,-157.03 316.06,-145.6 306.4,-136.28"/>
<polygon fill="#63b8ff" stroke="#63b8ff" points="308.56,-133.51 298.93,-129.09 303.7,-138.55 308.56,-133.51"/>
</a>
</g>
</g>
<!-- Node13 -->
<g id="Node000013" class="node">
<title>Node13</title>
<g id="a_Node000013"><a xlink:title=" ">
<polygon fill="#e0e0e0" stroke="#999999" points="430.02,-129 372.02,-129 372.02,-110 430.02,-110 430.02,-129"/>
<text text-anchor="middle" x="401.02" y="-117" font-family="Helvetica,sans-Serif" font-size="10.00">memory</text>
</a>
</g>
</g>
<!-- Node3&#45;&gt;Node13 -->
<g id="edge13_Node000003_Node000013" class="edge">
<title>Node3&#45;&gt;Node13</title>
<g id="a_edge13_Node000003_Node000013"><a xlink:title=" ">
<path fill="none" stroke="#63b8ff" d="M354.02,-164.98C362.21,-157.23 374.52,-145.58 384.49,-136.14"/>
<polygon fill="#63b8ff" stroke="#63b8ff" points="387,-138.59 391.86,-129.17 382.19,-133.5 387,-138.59"/>
</a>
</g>
</g>
<!-- Node14 -->
<g id="Node000014" class="node">
<title>Node14</title>
<g id="a_Node000014"><a xlink:title=" ">
<polygon fill="#e0e0e0" stroke="#999999" points="495.52,-129 448.52,-129 448.52,-110 495.52,-110 495.52,-129"/>
<text text-anchor="middle" x="472.02" y="-117" font-family="Helvetica,sans-Serif" font-size="10.00">vector</text>
</a>
</g>
</g>
<!-- Node3&#45;&gt;Node14 -->
<g id="edge14_Node000003_Node000014" class="edge">
<title>Node3&#45;&gt;Node14</title>
<g id="a_edge14_Node000003_Node000014"><a xlink:title=" ">
<path fill="none" stroke="#63b8ff" d="M365.42,-164.98C386.04,-156.38 418.12,-142.99 441.71,-133.15"/>
<polygon fill="#63b8ff" stroke="#63b8ff" points="443.36,-136.25 451.24,-129.17 440.67,-129.79 443.36,-136.25"/>
</a>
</g>
</g>
<!-- Node5 -->
<g id="Node000005" class="node">
<title>Node5</title>
<g id="a_Node000005"><a xlink:title=" ">
<polygon fill="#e0e0e0" stroke="#999999" points="433.02,-19 355.02,-19 355.02,0 433.02,0 433.02,-19"/>
<text text-anchor="middle" x="394.02" y="-7" font-family="Helvetica,sans-Serif" font-size="10.00">glm/glm.hpp</text>
</a>
</g>
</g>
<!-- Node4&#45;&gt;Node5 -->
<g id="edge4_Node000004_Node000005" class="edge">
<title>Node4&#45;&gt;Node5</title>
<g id="a_edge4_Node000004_Node000005"><a xlink:title=" ">
<path fill="none" stroke="#63b8ff" d="M394.02,-54.75C394.02,-47.8 394.02,-37.85 394.02,-29.13"/>
<polygon fill="#63b8ff" stroke="#63b8ff" points="397.52,-29.09 394.02,-19.09 390.52,-29.09 397.52,-29.09"/>
</a>
</g>
</g>
<!-- Node4&#45;&gt;Node6 -->
<g id="edge5_Node000004_Node000006" class="edge">
<title>Node4&#45;&gt;Node6</title>
<g id="a_edge5_Node000004_Node000006"><a xlink:title=" ">
<path fill="none" stroke="#63b8ff" d="M355.3,-54.98C309.13,-44.83 232.64,-28.01 188.13,-18.22"/>
<polygon fill="#63b8ff" stroke="#63b8ff" points="188.85,-14.8 178.34,-16.07 187.35,-21.63 188.85,-14.8"/>
</a>
</g>
</g>
<!-- Node8 -->
<g id="Node000008" class="node">
<title>Node8</title>
<g id="a_Node000008"><a xlink:title=" ">
<polygon fill="#e0e0e0" stroke="#999999" points="167.52,-74 132.52,-74 132.52,-55 167.52,-55 167.52,-74"/>
<text text-anchor="middle" x="150.02" y="-62" font-family="Helvetica,sans-Serif" font-size="10.00">any</text>
</a>
</g>
</g>
<!-- Node7&#45;&gt;Node8 -->
<g id="edge7_Node000007_Node000008" class="edge">
<title>Node7&#45;&gt;Node8</title>
<g id="a_edge7_Node000007_Node000008"><a xlink:title=" ">
<path fill="none" stroke="#63b8ff" d="M123.3,-109.75C127.73,-102.42 134.18,-91.73 139.64,-82.7"/>
<polygon fill="#63b8ff" stroke="#63b8ff" points="142.66,-84.46 144.83,-74.09 136.67,-80.84 142.66,-84.46"/>
</a>
</g>
</g>
<!-- Node9 -->
<g id="Node000009" class="node">
<title>Node9</title>
<g id="a_Node000009"><a xlink:title=" ">
<polygon fill="#e0e0e0" stroke="#999999" points="250.52,-74 185.52,-74 185.52,-55 250.52,-55 250.52,-74"/>
<text text-anchor="middle" x="218.02" y="-62" font-family="Helvetica,sans-Serif" font-size="10.00">typeindex</text>
</a>
</g>
</g>
<!-- Node7&#45;&gt;Node9 -->
<g id="edge8_Node000007_Node000009" class="edge">
<title>Node7&#45;&gt;Node9</title>
<g id="a_edge8_Node000007_Node000009"><a xlink:title=" ">
<path fill="none" stroke="#63b8ff" d="M134.08,-109.98C149.88,-101.61 174.24,-88.7 192.65,-78.95"/>
<polygon fill="#63b8ff" stroke="#63b8ff" points="194.46,-81.95 201.66,-74.17 191.18,-75.76 194.46,-81.95"/>
</a>
</g>
</g>
<!-- Node10 -->
<g id="Node000010" class="node">
<title>Node10</title>
<g id="a_Node000010"><a xlink:title=" ">
<polygon fill="#e0e0e0" stroke="#999999" points="114.52,-74 21.52,-74 21.52,-55 114.52,-55 114.52,-74"/>
<text text-anchor="middle" x="68.02" y="-62" font-family="Helvetica,sans-Serif" font-size="10.00">unordered_map</text>
</a>
</g>
</g>
<!-- Node7&#45;&gt;Node10 -->
<g id="edge9_Node000007_Node000010" class="edge">
<title>Node7&#45;&gt;Node10</title>
<g id="a_edge9_Node000007_Node000010"><a xlink:title=" ">
<path fill="none" stroke="#63b8ff" d="M109.76,-109.75C102.55,-102.11 91.91,-90.82 83.17,-81.56"/>
<polygon fill="#63b8ff" stroke="#63b8ff" points="85.53,-78.96 76.12,-74.09 80.44,-83.76 85.53,-78.96"/>
</a>
</g>
</g>
<!-- Node11&#45;&gt;Node4 -->
<g id="edge11_Node000011_Node000004" class="edge">
<title>Node11&#45;&gt;Node4</title>
<g id="a_edge11_Node000011_Node000004"><a xlink:title=" ">
<path fill="none" stroke="#63b8ff" d="M306.73,-109.98C323.23,-101.57 348.72,-88.59 367.9,-78.81"/>
<polygon fill="#63b8ff" stroke="#63b8ff" points="369.68,-81.83 377,-74.17 366.51,-75.59 369.68,-81.83"/>
</a>
</g>
</g>
<!-- Node12 -->
<g id="Node000012" class="node">
<title>Node12</title>
<g id="a_Node000012"><a xlink:title=" ">
<polygon fill="#e0e0e0" stroke="#999999" points="311.02,-74 269.02,-74 269.02,-55 311.02,-55 311.02,-74"/>
<text text-anchor="middle" x="290.02" y="-62" font-family="Helvetica,sans-Serif" font-size="10.00">array</text>
</a>
</g>
</g>
<!-- Node11&#45;&gt;Node12 -->
<g id="edge12_Node000011_Node000012" class="edge">
<title>Node11&#45;&gt;Node12</title>
<g id="a_edge12_Node000011_Node000012"><a xlink:title=" ">
<path fill="none" stroke="#63b8ff" d="M290.02,-109.75C290.02,-102.8 290.02,-92.85 290.02,-84.13"/>
<polygon fill="#63b8ff" stroke="#63b8ff" points="293.52,-84.09 290.02,-74.09 286.52,-84.09 293.52,-84.09"/>
</a>
</g>
</g>
<!-- Node15&#45;&gt;Node3 -->
<g id="edge17_Node000015_Node000003" class="edge">
<title>Node15&#45;&gt;Node3</title>
<g id="a_edge17_Node000015_Node000003"><a xlink:title=" ">
<path fill="none" stroke="#63b8ff" d="M389.27,-219.75C381.55,-212.03 370.11,-200.6 360.8,-191.28"/>
<polygon fill="#63b8ff" stroke="#63b8ff" points="363.15,-188.69 353.61,-184.09 358.2,-193.64 363.15,-188.69"/>
</a>
</g>
</g>
<!-- Node16 -->
<g id="Node000016" class="node">
<title>Node16</title>
<g id="a_Node000016"><a xlink:title=" ">
<polygon fill="#e0e0e0" stroke="#999999" points="486.02,-184 418.02,-184 418.02,-165 486.02,-165 486.02,-184"/>
<text text-anchor="middle" x="452.02" y="-172" font-family="Helvetica,sans-Serif" font-size="10.00">filesystem</text>
</a>
</g>
</g>
<!-- Node15&#45;&gt;Node16 -->
<g id="edge18_Node000015_Node000016" class="edge">
<title>Node15&#45;&gt;Node16</title>
<g id="a_edge18_Node000015_Node000016"><a xlink:title=" ">
<path fill="none" stroke="#63b8ff" d="M406.94,-219.75C414.8,-212.03 426.45,-200.6 435.94,-191.28"/>
<polygon fill="#63b8ff" stroke="#63b8ff" points="438.58,-193.59 443.27,-184.09 433.68,-188.6 438.58,-193.59"/>
</a>
</g>
</g>
</g>
</svg>
