<?xml version="1.0" encoding="UTF-8" standalone="no"?>
<!DOCTYPE svg PUBLIC "-//W3C//DTD SVG 1.1//EN"
 "http://www.w3.org/Graphics/SVG/1.1/DTD/svg11.dtd">
<!-- Generated by graphviz version 2.43.0 (0)
 -->
<!-- Title: App/Source/MeshLoader.cpp Pages: 1 -->
<svg width="997pt" height="302pt"
 viewBox="0.00 0.00 996.50 302.00" xmlns="http://www.w3.org/2000/svg" xmlns:xlink="http://www.w3.org/1999/xlink">
<g id="graph0" class="graph" transform="scale(1 1) rotate(0) translate(4 298)">
<title>App/Source/MeshLoader.cpp</title>
<!-- Node1 -->
<g id="Node000001" class="node">
<title>Node1</title>
<g id="a_Node000001"><a xlink:title=" ">
<polygon fill="#999999" stroke="#666666" points="764.5,-294 611.5,-294 611.5,-275 764.5,-275 764.5,-294"/>
<text text-anchor="middle" x="688" y="-282" font-family="Helvetica,sans-Serif" font-size="10.00">App/Source/MeshLoader.cpp</text>
</a>
</g>
</g>
<!-- Node2 -->
<g id="Node000002" class="node">
<title>Node2</title>
<g id="a_Node000002"><a xlink:href="MeshLoader_8h.html" target="_top" xlink:title=" ">
<polygon fill="white" stroke="#666666" points="426,-239 284,-239 284,-220 426,-220 426,-239"/>
<text text-anchor="middle" x="355" y="-227" font-family="Helvetica,sans-Serif" font-size="10.00">Application/MeshLoader.h</text>
</a>
</g>
</g>
<!-- Node1&#45;&gt;Node2 -->
<g id="edge1_Node000001_Node000002" class="edge">
<title>Node1&#45;&gt;Node2</title>
<g id="a_edge1_Node000001_Node000002"><a xlink:title=" ">
<path fill="none" stroke="#63b8ff" d="M634.5,-274.98C575.72,-265.63 481.37,-250.61 418.79,-240.65"/>
<polygon fill="#63b8ff" stroke="#63b8ff" points="419.07,-237.15 408.65,-239.04 417.97,-244.07 419.07,-237.15"/>
</a>
</g>
</g>
<!-- Node10 -->
<g id="Node000010" class="node">
<title>Node10</title>
<g id="a_Node000010"><a xlink:title=" ">
<polygon fill="#e0e0e0" stroke="#999999" points="644.5,-74 551.5,-74 551.5,-55 644.5,-55 644.5,-74"/>
<text text-anchor="middle" x="598" y="-62" font-family="Helvetica,sans-Serif" font-size="10.00">unordered_map</text>
</a>
</g>
</g>
<!-- Node1&#45;&gt;Node10 -->
<g id="edge30_Node000001_Node000010" class="edge">
<title>Node1&#45;&gt;Node10</title>
<g id="a_edge30_Node000001_Node000010"><a xlink:title=" ">
<path fill="none" stroke="#63b8ff" d="M667.87,-274.9C653.25,-267.56 634.29,-255.55 624,-239 593.52,-189.94 593.93,-118.36 596.19,-84.54"/>
<polygon fill="#63b8ff" stroke="#63b8ff" points="599.7,-84.5 597.02,-74.25 592.73,-83.94 599.7,-84.5"/>
</a>
</g>
</g>
<!-- Node16 -->
<g id="Node000016" class="node">
<title>Node16</title>
<g id="a_Node000016"><a xlink:href="PrimitiveProxy_8h.html" target="_top" xlink:title=" ">
<polygon fill="white" stroke="#666666" points="266,-239 112,-239 112,-220 266,-220 266,-239"/>
<text text-anchor="middle" x="189" y="-227" font-family="Helvetica,sans-Serif" font-size="10.00">Application/PrimitiveProxy.h</text>
</a>
</g>
</g>
<!-- Node1&#45;&gt;Node16 -->
<g id="edge16_Node000001_Node000016" class="edge">
<title>Node1&#45;&gt;Node16</title>
<g id="a_edge16_Node000001_Node000016"><a xlink:title=" ">
<path fill="none" stroke="#63b8ff" d="M611.4,-275.36C520.98,-265.76 370.98,-249.83 276.19,-239.76"/>
<polygon fill="#63b8ff" stroke="#63b8ff" points="276.37,-236.26 266.05,-238.68 275.63,-243.22 276.37,-236.26"/>
</a>
</g>
</g>
<!-- Node17 -->
<g id="Node000017" class="node">
<title>Node17</title>
<g id="a_Node000017"><a xlink:href="VertexPair_8h.html" target="_top" xlink:title=" ">
<polygon fill="white" stroke="#666666" points="576,-239 444,-239 444,-220 576,-220 576,-239"/>
<text text-anchor="middle" x="510" y="-227" font-family="Helvetica,sans-Serif" font-size="10.00">Application/VertexPair.h</text>
</a>
</g>
</g>
<!-- Node1&#45;&gt;Node17 -->
<g id="edge19_Node000001_Node000017" class="edge">
<title>Node1&#45;&gt;Node17</title>
<g id="a_edge19_Node000001_Node000017"><a xlink:title=" ">
<path fill="none" stroke="#63b8ff" d="M659.4,-274.98C629.39,-266.05 582.02,-251.94 548.68,-242.02"/>
<polygon fill="#63b8ff" stroke="#63b8ff" points="549.41,-238.58 538.82,-239.08 547.41,-245.29 549.41,-238.58"/>
</a>
</g>
</g>
<!-- Node20 -->
<g id="Node000020" class="node">
<title>Node20</title>
<g id="a_Node000020"><a xlink:href="PrintHelpers_8h.html" target="_top" xlink:title=" ">
<polygon fill="white" stroke="#666666" points="743.5,-239 632.5,-239 632.5,-220 743.5,-220 743.5,-239"/>
<text text-anchor="middle" x="688" y="-227" font-family="Helvetica,sans-Serif" font-size="10.00">Core/PrintHelpers.h</text>
</a>
</g>
</g>
<!-- Node1&#45;&gt;Node20 -->
<g id="edge23_Node000001_Node000020" class="edge">
<title>Node1&#45;&gt;Node20</title>
<g id="a_edge23_Node000001_Node000020"><a xlink:title=" ">
<path fill="none" stroke="#63b8ff" d="M688,-274.75C688,-267.8 688,-257.85 688,-249.13"/>
<polygon fill="#63b8ff" stroke="#63b8ff" points="691.5,-249.09 688,-239.09 684.5,-249.09 691.5,-249.09"/>
</a>
</g>
</g>
<!-- Node22 -->
<g id="Node000022" class="node">
<title>Node22</title>
<g id="a_Node000022"><a xlink:title=" ">
<polygon fill="#e0e0e0" stroke="#999999" points="872,-184 812,-184 812,-165 872,-165 872,-184"/>
<text text-anchor="middle" x="842" y="-172" font-family="Helvetica,sans-Serif" font-size="10.00">iostream</text>
</a>
</g>
</g>
<!-- Node1&#45;&gt;Node22 -->
<g id="edge29_Node000001_Node000022" class="edge">
<title>Node1&#45;&gt;Node22</title>
<g id="a_edge29_Node000001_Node000022"><a xlink:title=" ">
<path fill="none" stroke="#63b8ff" d="M701,-274.71C714.16,-265.78 735.07,-251.54 753,-239 776.58,-222.52 803.44,-203.29 821.43,-190.35"/>
<polygon fill="#63b8ff" stroke="#63b8ff" points="823.89,-192.89 829.96,-184.2 819.8,-187.21 823.89,-192.89"/>
</a>
</g>
</g>
<!-- Node24 -->
<g id="Node000024" class="node">
<title>Node24</title>
<g id="a_Node000024"><a xlink:title=" ">
<polygon fill="#e0e0e0" stroke="#999999" points="852,-239 800,-239 800,-220 852,-220 852,-239"/>
<text text-anchor="middle" x="826" y="-227" font-family="Helvetica,sans-Serif" font-size="10.00">cassert</text>
</a>
</g>
</g>
<!-- Node1&#45;&gt;Node24 -->
<g id="edge27_Node000001_Node000024" class="edge">
<title>Node1&#45;&gt;Node24</title>
<g id="a_edge27_Node000001_Node000024"><a xlink:title=" ">
<path fill="none" stroke="#63b8ff" d="M710.17,-274.98C732.77,-266.3 768.06,-252.75 793.75,-242.88"/>
<polygon fill="#63b8ff" stroke="#63b8ff" points="795.34,-246.02 803.42,-239.17 792.83,-239.49 795.34,-246.02"/>
</a>
</g>
</g>
<!-- Node25 -->
<g id="Node000025" class="node">
<title>Node25</title>
<g id="a_Node000025"><a xlink:title=" ">
<polygon fill="#e0e0e0" stroke="#999999" points="925.5,-239 870.5,-239 870.5,-220 925.5,-220 925.5,-239"/>
<text text-anchor="middle" x="898" y="-227" font-family="Helvetica,sans-Serif" font-size="10.00">fstream</text>
</a>
</g>
</g>
<!-- Node1&#45;&gt;Node25 -->
<g id="edge28_Node000001_Node000025" class="edge">
<title>Node1&#45;&gt;Node25</title>
<g id="a_edge28_Node000001_Node000025"><a xlink:title=" ">
<path fill="none" stroke="#63b8ff" d="M721.74,-274.98C759.71,-265.4 821.22,-249.88 860.62,-239.93"/>
<polygon fill="#63b8ff" stroke="#63b8ff" points="861.54,-243.31 870.38,-237.47 859.83,-236.52 861.54,-243.31"/>
</a>
</g>
</g>
<!-- Node26 -->
<g id="Node000026" class="node">
<title>Node26</title>
<g id="a_Node000026"><a xlink:title=" ">
<polygon fill="#e0e0e0" stroke="#999999" points="988.5,-239 943.5,-239 943.5,-220 988.5,-220 988.5,-239"/>
<text text-anchor="middle" x="966" y="-227" font-family="Helvetica,sans-Serif" font-size="10.00">utility</text>
</a>
</g>
</g>
<!-- Node1&#45;&gt;Node26 -->
<g id="edge31_Node000001_Node000026" class="edge">
<title>Node1&#45;&gt;Node26</title>
<g id="a_edge31_Node000001_Node000026"><a xlink:title=" ">
<path fill="none" stroke="#63b8ff" d="M743.71,-274.92C791.7,-267.2 863.01,-254.95 933.44,-239.2"/>
<polygon fill="#63b8ff" stroke="#63b8ff" points="934.39,-242.57 943.37,-236.96 932.85,-235.75 934.39,-242.57"/>
</a>
</g>
</g>
<!-- Node3 -->
<g id="Node000003" class="node">
<title>Node3</title>
<g id="a_Node000003"><a xlink:href="Mesh_8h.html" target="_top" xlink:title=" ">
<polygon fill="white" stroke="#666666" points="263,-184 153,-184 153,-165 263,-165 263,-184"/>
<text text-anchor="middle" x="208" y="-172" font-family="Helvetica,sans-Serif" font-size="10.00">Application/Mesh.h</text>
</a>
</g>
</g>
<!-- Node2&#45;&gt;Node3 -->
<g id="edge2_Node000002_Node000003" class="edge">
<title>Node2&#45;&gt;Node3</title>
<g id="a_edge2_Node000002_Node000003"><a xlink:title=" ">
<path fill="none" stroke="#63b8ff" d="M331.38,-219.98C307.1,-211.23 269.05,-197.51 241.63,-187.62"/>
<polygon fill="#63b8ff" stroke="#63b8ff" points="242.64,-184.27 232.05,-184.17 240.27,-190.85 242.64,-184.27"/>
</a>
</g>
</g>
<!-- Node15 -->
<g id="Node000015" class="node">
<title>Node15</title>
<g id="a_Node000015"><a xlink:title=" ">
<polygon fill="#e0e0e0" stroke="#999999" points="389,-184 321,-184 321,-165 389,-165 389,-184"/>
<text text-anchor="middle" x="355" y="-172" font-family="Helvetica,sans-Serif" font-size="10.00">filesystem</text>
</a>
</g>
</g>
<!-- Node2&#45;&gt;Node15 -->
<g id="edge15_Node000002_Node000015" class="edge">
<title>Node2&#45;&gt;Node15</title>
<g id="a_edge15_Node000002_Node000015"><a xlink:title=" ">
<path fill="none" stroke="#63b8ff" d="M355,-219.75C355,-212.8 355,-202.85 355,-194.13"/>
<polygon fill="#63b8ff" stroke="#63b8ff" points="358.5,-194.09 355,-184.09 351.5,-194.09 358.5,-194.09"/>
</a>
</g>
</g>
<!-- Node4 -->
<g id="Node000004" class="node">
<title>Node4</title>
<g id="a_Node000004"><a xlink:href="BaseType_8h.html" target="_top" xlink:title=" ">
<polygon fill="white" stroke="#666666" points="145,-74 15,-74 15,-55 145,-55 145,-74"/>
<text text-anchor="middle" x="80" y="-62" font-family="Helvetica,sans-Serif" font-size="10.00">Application/BaseType.h</text>
</a>
</g>
</g>
<!-- Node3&#45;&gt;Node4 -->
<g id="edge3_Node000003_Node000004" class="edge">
<title>Node3&#45;&gt;Node4</title>
<g id="a_edge3_Node000003_Node000004"><a xlink:title=" ">
<path fill="none" stroke="#63b8ff" d="M163.72,-164.94C141.51,-158.53 115.83,-147.54 99,-129 87.88,-116.75 83.26,-98.24 81.34,-84.35"/>
<polygon fill="#63b8ff" stroke="#63b8ff" points="84.79,-83.61 80.29,-74.02 77.82,-84.33 84.79,-83.61"/>
</a>
</g>
</g>
<!-- Node7 -->
<g id="Node000007" class="node">
<title>Node7</title>
<g id="a_Node000007"><a xlink:href="ExtraDataContainer_8h.html" target="_top" xlink:title=" ">
<polygon fill="white" stroke="#666666" points="575.5,-129 396.5,-129 396.5,-110 575.5,-110 575.5,-129"/>
<text text-anchor="middle" x="486" y="-117" font-family="Helvetica,sans-Serif" font-size="10.00">Application/ExtraDataContainer.h</text>
</a>
</g>
</g>
<!-- Node3&#45;&gt;Node7 -->
<g id="edge6_Node000003_Node000007" class="edge">
<title>Node3&#45;&gt;Node7</title>
<g id="a_edge6_Node000003_Node000007"><a xlink:title=" ">
<path fill="none" stroke="#63b8ff" d="M252.67,-164.98C301.16,-155.74 378.65,-140.97 430.89,-131.01"/>
<polygon fill="#63b8ff" stroke="#63b8ff" points="431.82,-134.39 440.98,-129.08 430.51,-127.52 431.82,-134.39"/>
</a>
</g>
</g>
<!-- Node11 -->
<g id="Node000011" class="node">
<title>Node11</title>
<g id="a_Node000011"><a xlink:href="Primitive_8h.html" target="_top" xlink:title=" ">
<polygon fill="white" stroke="#666666" points="378,-129 250,-129 250,-110 378,-110 378,-129"/>
<text text-anchor="middle" x="314" y="-117" font-family="Helvetica,sans-Serif" font-size="10.00">Application/Primitive.h</text>
</a>
</g>
</g>
<!-- Node3&#45;&gt;Node11 -->
<g id="edge10_Node000003_Node000011" class="edge">
<title>Node3&#45;&gt;Node11</title>
<g id="a_edge10_Node000003_Node000011"><a xlink:title=" ">
<path fill="none" stroke="#63b8ff" d="M225.03,-164.98C241.93,-156.54 268.06,-143.47 287.64,-133.68"/>
<polygon fill="#63b8ff" stroke="#63b8ff" points="289.28,-136.77 296.66,-129.17 286.15,-130.51 289.28,-136.77"/>
</a>
</g>
</g>
<!-- Node13 -->
<g id="Node000013" class="node">
<title>Node13</title>
<g id="a_Node000013"><a xlink:title=" ">
<polygon fill="#e0e0e0" stroke="#999999" points="166,-129 108,-129 108,-110 166,-110 166,-129"/>
<text text-anchor="middle" x="137" y="-117" font-family="Helvetica,sans-Serif" font-size="10.00">memory</text>
</a>
</g>
</g>
<!-- Node3&#45;&gt;Node13 -->
<g id="edge13_Node000003_Node000013" class="edge">
<title>Node3&#45;&gt;Node13</title>
<g id="a_edge13_Node000003_Node000013"><a xlink:title=" ">
<path fill="none" stroke="#63b8ff" d="M196.59,-164.98C185.89,-157 169.66,-144.88 156.84,-135.31"/>
<polygon fill="#63b8ff" stroke="#63b8ff" points="158.72,-132.35 148.61,-129.17 154.53,-137.96 158.72,-132.35"/>
</a>
</g>
</g>
<!-- Node14 -->
<g id="Node000014" class="node">
<title>Node14</title>
<g id="a_Node000014"><a xlink:title=" ">
<polygon fill="#e0e0e0" stroke="#999999" points="231.5,-129 184.5,-129 184.5,-110 231.5,-110 231.5,-129"/>
<text text-anchor="middle" x="208" y="-117" font-family="Helvetica,sans-Serif" font-size="10.00">vector</text>
</a>
</g>
</g>
<!-- Node3&#45;&gt;Node14 -->
<g id="edge14_Node000003_Node000014" class="edge">
<title>Node3&#45;&gt;Node14</title>
<g id="a_edge14_Node000003_Node000014"><a xlink:title=" ">
<path fill="none" stroke="#63b8ff" d="M208,-164.75C208,-157.8 208,-147.85 208,-139.13"/>
<polygon fill="#63b8ff" stroke="#63b8ff" points="211.5,-139.09 208,-129.09 204.5,-139.09 211.5,-139.09"/>
</a>
</g>
</g>
<!-- Node5 -->
<g id="Node000005" class="node">
<title>Node5</title>
<g id="a_Node000005"><a xlink:title=" ">
<polygon fill="#e0e0e0" stroke="#999999" points="78,-19 0,-19 0,0 78,0 78,-19"/>
<text text-anchor="middle" x="39" y="-7" font-family="Helvetica,sans-Serif" font-size="10.00">glm/glm.hpp</text>
</a>
</g>
</g>
<!-- Node4&#45;&gt;Node5 -->
<g id="edge4_Node000004_Node000005" class="edge">
<title>Node4&#45;&gt;Node5</title>
<g id="a_edge4_Node000004_Node000005"><a xlink:title=" ">
<path fill="none" stroke="#63b8ff" d="M73.23,-54.75C67.44,-47.26 58.94,-36.28 51.86,-27.13"/>
<polygon fill="#63b8ff" stroke="#63b8ff" points="54.53,-24.86 45.64,-19.09 48.99,-29.14 54.53,-24.86"/>
</a>
</g>
</g>
<!-- Node6 -->
<g id="Node000006" class="node">
<title>Node6</title>
<g id="a_Node000006"><a xlink:title=" ">
<polygon fill="#e0e0e0" stroke="#999999" points="146,-19 96,-19 96,0 146,0 146,-19"/>
<text text-anchor="middle" x="121" y="-7" font-family="Helvetica,sans-Serif" font-size="10.00">cstdint</text>
</a>
</g>
</g>
<!-- Node4&#45;&gt;Node6 -->
<g id="edge5_Node000004_Node000006" class="edge">
<title>Node4&#45;&gt;Node6</title>
<g id="a_edge5_Node000004_Node000006"><a xlink:title=" ">
<path fill="none" stroke="#63b8ff" d="M86.77,-54.75C92.56,-47.26 101.06,-36.28 108.14,-27.13"/>
<polygon fill="#63b8ff" stroke="#63b8ff" points="111.01,-29.14 114.36,-19.09 105.47,-24.86 111.01,-29.14"/>
</a>
</g>
</g>
<!-- Node8 -->
<g id="Node000008" class="node">
<title>Node8</title>
<g id="a_Node000008"><a xlink:title=" ">
<polygon fill="#e0e0e0" stroke="#999999" points="440.5,-74 405.5,-74 405.5,-55 440.5,-55 440.5,-74"/>
<text text-anchor="middle" x="423" y="-62" font-family="Helvetica,sans-Serif" font-size="10.00">any</text>
</a>
</g>
</g>
<!-- Node7&#45;&gt;Node8 -->
<g id="edge7_Node000007_Node000008" class="edge">
<title>Node7&#45;&gt;Node8</title>
<g id="a_edge7_Node000007_Node000008"><a xlink:title=" ">
<path fill="none" stroke="#63b8ff" d="M475.88,-109.98C466.56,-102.15 452.53,-90.34 441.26,-80.86"/>
<polygon fill="#63b8ff" stroke="#63b8ff" points="443.21,-77.93 433.31,-74.17 438.71,-83.29 443.21,-77.93"/>
</a>
</g>
</g>
<!-- Node9 -->
<g id="Node000009" class="node">
<title>Node9</title>
<g id="a_Node000009"><a xlink:title=" ">
<polygon fill="#e0e0e0" stroke="#999999" points="523.5,-74 458.5,-74 458.5,-55 523.5,-55 523.5,-74"/>
<text text-anchor="middle" x="491" y="-62" font-family="Helvetica,sans-Serif" font-size="10.00">typeindex</text>
</a>
</g>
</g>
<!-- Node7&#45;&gt;Node9 -->
<g id="edge8_Node000007_Node000009" class="edge">
<title>Node7&#45;&gt;Node9</title>
<g id="a_edge8_Node000007_Node000009"><a xlink:title=" ">
<path fill="none" stroke="#63b8ff" d="M486.83,-109.75C487.48,-102.8 488.42,-92.85 489.24,-84.13"/>
<polygon fill="#63b8ff" stroke="#63b8ff" points="492.73,-84.37 490.19,-74.09 485.77,-83.72 492.73,-84.37"/>
</a>
</g>
</g>
<!-- Node7&#45;&gt;Node10 -->
<g id="edge9_Node000007_Node000010" class="edge">
<title>Node7&#45;&gt;Node10</title>
<g id="a_edge9_Node000007_Node000010"><a xlink:title=" ">
<path fill="none" stroke="#63b8ff" d="M503.99,-109.98C521.93,-101.5 549.72,-88.35 570.43,-78.54"/>
<polygon fill="#63b8ff" stroke="#63b8ff" points="572.14,-81.61 579.68,-74.17 569.14,-75.28 572.14,-81.61"/>
</a>
</g>
</g>
<!-- Node11&#45;&gt;Node4 -->
<g id="edge11_Node000011_Node000004" class="edge">
<title>Node11&#45;&gt;Node4</title>
<g id="a_edge11_Node000011_Node000004"><a xlink:title=" ">
<path fill="none" stroke="#63b8ff" d="M276.4,-109.98C236.01,-100.84 171.72,-86.27 127.77,-76.32"/>
<polygon fill="#63b8ff" stroke="#63b8ff" points="128.42,-72.88 117.89,-74.08 126.87,-79.7 128.42,-72.88"/>
</a>
</g>
</g>
<!-- Node12 -->
<g id="Node000012" class="node">
<title>Node12</title>
<g id="a_Node000012"><a xlink:title=" ">
<polygon fill="#e0e0e0" stroke="#999999" points="335,-74 293,-74 293,-55 335,-55 335,-74"/>
<text text-anchor="middle" x="314" y="-62" font-family="Helvetica,sans-Serif" font-size="10.00">array</text>
</a>
</g>
</g>
<!-- Node11&#45;&gt;Node12 -->
<g id="edge12_Node000011_Node000012" class="edge">
<title>Node11&#45;&gt;Node12</title>
<g id="a_edge12_Node000011_Node000012"><a xlink:title=" ">
<path fill="none" stroke="#63b8ff" d="M314,-109.75C314,-102.8 314,-92.85 314,-84.13"/>
<polygon fill="#63b8ff" stroke="#63b8ff" points="317.5,-84.09 314,-74.09 310.5,-84.09 317.5,-84.09"/>
</a>
</g>
</g>
<!-- Node16&#45;&gt;Node3 -->
<g id="edge18_Node000016_Node000003" class="edge">
<title>Node16&#45;&gt;Node3</title>
<g id="a_edge18_Node000016_Node000003"><a xlink:title=" ">
<path fill="none" stroke="#63b8ff" d="M192.14,-219.75C194.68,-212.65 198.36,-202.4 201.53,-193.56"/>
<polygon fill="#63b8ff" stroke="#63b8ff" points="204.84,-194.68 204.92,-184.09 198.25,-192.32 204.84,-194.68"/>
</a>
</g>
</g>
<!-- Node16&#45;&gt;Node4 -->
<g id="edge17_Node000016_Node000004" class="edge">
<title>Node16&#45;&gt;Node4</title>
<g id="a_edge17_Node000016_Node000004"><a xlink:title=" ">
<path fill="none" stroke="#63b8ff" d="M174.77,-219.91C151.29,-204.85 105.03,-171.22 85,-129 78.4,-115.09 77.5,-97.53 78.05,-84.4"/>
<polygon fill="#63b8ff" stroke="#63b8ff" points="81.56,-84.44 78.8,-74.21 74.58,-83.93 81.56,-84.44"/>
</a>
</g>
</g>
<!-- Node17&#45;&gt;Node11 -->
<g id="edge20_Node000017_Node000011" class="edge">
<title>Node17&#45;&gt;Node11</title>
<g id="a_edge20_Node000017_Node000011"><a xlink:title=" ">
<path fill="none" stroke="#63b8ff" d="M521.24,-219.65C536.26,-206.77 559.43,-182.47 545,-165 534.89,-152.76 451.9,-138.98 388.26,-130.04"/>
<polygon fill="#63b8ff" stroke="#63b8ff" points="388.61,-126.56 378.22,-128.65 387.65,-133.49 388.61,-126.56"/>
</a>
</g>
</g>
<!-- Node18 -->
<g id="Node000018" class="node">
<title>Node18</title>
<g id="a_Node000018"><a xlink:title=" ">
<polygon fill="#e0e0e0" stroke="#999999" points="453,-184 409,-184 409,-165 453,-165 453,-184"/>
<text text-anchor="middle" x="431" y="-172" font-family="Helvetica,sans-Serif" font-size="10.00">bitset</text>
</a>
</g>
</g>
<!-- Node17&#45;&gt;Node18 -->
<g id="edge21_Node000017_Node000018" class="edge">
<title>Node17&#45;&gt;Node18</title>
<g id="a_edge21_Node000017_Node000018"><a xlink:title=" ">
<path fill="none" stroke="#63b8ff" d="M497.31,-219.98C485.17,-211.84 466.64,-199.41 452.25,-189.76"/>
<polygon fill="#63b8ff" stroke="#63b8ff" points="454.18,-186.84 443.92,-184.17 450.28,-192.65 454.18,-186.84"/>
</a>
</g>
</g>
<!-- Node19 -->
<g id="Node000019" class="node">
<title>Node19</title>
<g id="a_Node000019"><a xlink:title=" ">
<polygon fill="#e0e0e0" stroke="#999999" points="536.5,-184 471.5,-184 471.5,-165 536.5,-165 536.5,-184"/>
<text text-anchor="middle" x="504" y="-172" font-family="Helvetica,sans-Serif" font-size="10.00">stdexcept</text>
</a>
</g>
</g>
<!-- Node17&#45;&gt;Node19 -->
<g id="edge22_Node000017_Node000019" class="edge">
<title>Node17&#45;&gt;Node19</title>
<g id="a_edge22_Node000017_Node000019"><a xlink:title=" ">
<path fill="none" stroke="#63b8ff" d="M509.01,-219.75C508.22,-212.8 507.1,-202.85 506.11,-194.13"/>
<polygon fill="#63b8ff" stroke="#63b8ff" points="509.58,-193.63 504.97,-184.09 502.62,-194.42 509.58,-193.63"/>
</a>
</g>
</g>
<!-- Node21 -->
<g id="Node000021" class="node">
<title>Node21</title>
<g id="a_Node000021"><a xlink:title=" ">
<polygon fill="#e0e0e0" stroke="#999999" points="682,-184 632,-184 632,-165 682,-165 682,-184"/>
<text text-anchor="middle" x="657" y="-172" font-family="Helvetica,sans-Serif" font-size="10.00">format</text>
</a>
</g>
</g>
<!-- Node20&#45;&gt;Node21 -->
<g id="edge24_Node000020_Node000021" class="edge">
<title>Node20&#45;&gt;Node21</title>
<g id="a_edge24_Node000020_Node000021"><a xlink:title=" ">
<path fill="none" stroke="#63b8ff" d="M682.88,-219.75C678.64,-212.49 672.47,-201.95 667.22,-192.98"/>
<polygon fill="#63b8ff" stroke="#63b8ff" points="670.09,-190.95 662.02,-184.09 664.05,-194.49 670.09,-190.95"/>
</a>
</g>
</g>
<!-- Node20&#45;&gt;Node22 -->
<g id="edge25_Node000020_Node000022" class="edge">
<title>Node20&#45;&gt;Node22</title>
<g id="a_edge25_Node000020_Node000022"><a xlink:title=" ">
<path fill="none" stroke="#63b8ff" d="M712.74,-219.98C738.37,-211.16 778.63,-197.31 807.41,-187.41"/>
<polygon fill="#63b8ff" stroke="#63b8ff" points="808.75,-190.65 817.06,-184.08 806.47,-184.03 808.75,-190.65"/>
</a>
</g>
</g>
<!-- Node23 -->
<g id="Node000023" class="node">
<title>Node23</title>
<g id="a_Node000023"><a xlink:title=" ">
<polygon fill="#e0e0e0" stroke="#999999" points="793.5,-184 700.5,-184 700.5,-165 793.5,-165 793.5,-184"/>
<text text-anchor="middle" x="747" y="-172" font-family="Helvetica,sans-Serif" font-size="10.00">source_location</text>
</a>
</g>
</g>
<!-- Node20&#45;&gt;Node23 -->
<g id="edge26_Node000020_Node000023" class="edge">
<title>Node20&#45;&gt;Node23</title>
<g id="a_edge26_Node000020_Node000023"><a xlink:title=" ">
<path fill="none" stroke="#63b8ff" d="M697.48,-219.98C706.2,-212.15 719.34,-200.34 729.9,-190.86"/>
<polygon fill="#63b8ff" stroke="#63b8ff" points="732.25,-193.46 737.35,-184.17 727.57,-188.25 732.25,-193.46"/>
</a>
</g>
</g>
</g>
</svg>
