<?xml version="1.0" encoding="UTF-8" standalone="no"?>
<!DOCTYPE svg PUBLIC "-//W3C//DTD SVG 1.1//EN"
 "http://www.w3.org/Graphics/SVG/1.1/DTD/svg11.dtd">
<!-- Generated by graphviz version 2.43.0 (0)
 -->
<!-- Title: App/Test/Source/MeshIntegrity_utest.cpp Pages: 1 -->
<svg width="679pt" height="368pt"
 viewBox="0.00 0.00 678.50 368.00" xmlns="http://www.w3.org/2000/svg" xmlns:xlink="http://www.w3.org/1999/xlink">
<g id="graph0" class="graph" transform="scale(1 1) rotate(0) translate(4 364)">
<title>App/Test/Source/MeshIntegrity_utest.cpp</title>
<!-- Node1 -->
<g id="Node000001" class="node">
<title>Node1</title>
<g id="a_Node000001"><a xlink:title=" ">
<polygon fill="#999999" stroke="#666666" points="405.29,-360 241.29,-360 241.29,-330 405.29,-330 405.29,-360"/>
<text text-anchor="start" x="249.29" y="-348" font-family="Helvetica,sans-Serif" font-size="10.00">App/Test/Source/MeshIntegrity</text>
<text text-anchor="middle" x="323.29" y="-337" font-family="Helvetica,sans-Serif" font-size="10.00">_utest.cpp</text>
</a>
</g>
</g>
<!-- Node2 -->
<g id="Node000002" class="node">
<title>Node2</title>
<g id="a_Node000002"><a xlink:href="MeshIntegrity_8h.html" target="_top" xlink:title=" ">
<polygon fill="white" stroke="#666666" points="175.79,-239 26.79,-239 26.79,-220 175.79,-220 175.79,-239"/>
<text text-anchor="middle" x="101.29" y="-227" font-family="Helvetica,sans-Serif" font-size="10.00">Application/MeshIntegrity.h</text>
</a>
</g>
</g>
<!-- Node1&#45;&gt;Node2 -->
<g id="edge1_Node000001_Node000002" class="edge">
<title>Node1&#45;&gt;Node2</title>
<g id="a_edge1_Node000001_Node000002"><a xlink:title=" ">
<path fill="none" stroke="#63b8ff" d="M295.63,-329.85C252.38,-307.75 169.38,-265.31 127.23,-243.76"/>
<polygon fill="#63b8ff" stroke="#63b8ff" points="128.66,-240.56 118.16,-239.12 125.47,-246.79 128.66,-240.56"/>
</a>
</g>
</g>
<!-- Node17 -->
<g id="Node000017" class="node">
<title>Node17</title>
<g id="a_Node000017"><a xlink:href="TestHelpers_8h.html" target="_top" xlink:title=" ">
<polygon fill="white" stroke="#666666" points="393.29,-294 253.29,-294 253.29,-275 393.29,-275 393.29,-294"/>
<text text-anchor="middle" x="323.29" y="-282" font-family="Helvetica,sans-Serif" font-size="10.00">Application/TestHelpers.h</text>
</a>
</g>
</g>
<!-- Node1&#45;&gt;Node17 -->
<g id="edge18_Node000001_Node000017" class="edge">
<title>Node1&#45;&gt;Node17</title>
<g id="a_edge18_Node000001_Node000017"><a xlink:title=" ">
<path fill="none" stroke="#63b8ff" d="M323.29,-329.84C323.29,-322.21 323.29,-312.7 323.29,-304.45"/>
<polygon fill="#63b8ff" stroke="#63b8ff" points="326.79,-304.27 323.29,-294.27 319.79,-304.27 326.79,-304.27"/>
</a>
</g>
</g>
<!-- Node21 -->
<g id="Node000021" class="node">
<title>Node21</title>
<g id="a_Node000021"><a xlink:title=" ">
<polygon fill="#e0e0e0" stroke="#999999" points="489.29,-294 411.29,-294 411.29,-275 489.29,-275 489.29,-294"/>
<text text-anchor="middle" x="450.29" y="-282" font-family="Helvetica,sans-Serif" font-size="10.00">gtest/gtest.h</text>
</a>
</g>
</g>
<!-- Node1&#45;&gt;Node21 -->
<g id="edge28_Node000001_Node000021" class="edge">
<title>Node1&#45;&gt;Node21</title>
<g id="a_edge28_Node000001_Node000021"><a xlink:title=" ">
<path fill="none" stroke="#63b8ff" d="M353.71,-329.99C374.52,-320.4 401.91,-307.79 422.21,-298.44"/>
<polygon fill="#63b8ff" stroke="#63b8ff" points="423.92,-301.5 431.54,-294.14 420.99,-295.14 423.92,-301.5"/>
</a>
</g>
</g>
<!-- Node3 -->
<g id="Node000003" class="node">
<title>Node3</title>
<g id="a_Node000003"><a xlink:href="Mesh_8h.html" target="_top" xlink:title=" ">
<polygon fill="white" stroke="#666666" points="375.29,-184 265.29,-184 265.29,-165 375.29,-165 375.29,-184"/>
<text text-anchor="middle" x="320.29" y="-172" font-family="Helvetica,sans-Serif" font-size="10.00">Application/Mesh.h</text>
</a>
</g>
</g>
<!-- Node2&#45;&gt;Node3 -->
<g id="edge2_Node000002_Node000003" class="edge">
<title>Node2&#45;&gt;Node3</title>
<g id="a_edge2_Node000002_Node000003"><a xlink:title=" ">
<path fill="none" stroke="#63b8ff" d="M136.48,-219.98C174.12,-210.87 233.95,-196.4 275.07,-186.45"/>
<polygon fill="#63b8ff" stroke="#63b8ff" points="275.94,-189.84 284.83,-184.08 274.29,-183.03 275.94,-189.84"/>
</a>
</g>
</g>
<!-- Node13 -->
<g id="Node000013" class="node">
<title>Node13</title>
<g id="a_Node000013"><a xlink:title=" ">
<polygon fill="#e0e0e0" stroke="#999999" points="80.29,-19 30.29,-19 30.29,0 80.29,0 80.29,-19"/>
<text text-anchor="middle" x="55.29" y="-7" font-family="Helvetica,sans-Serif" font-size="10.00">cstdint</text>
</a>
</g>
</g>
<!-- Node2&#45;&gt;Node13 -->
<g id="edge17_Node000002_Node000013" class="edge">
<title>Node2&#45;&gt;Node13</title>
<g id="a_edge17_Node000002_Node000013"><a xlink:title=" ">
<path fill="none" stroke="#63b8ff" d="M87.66,-219.82C65.21,-204.62 21.29,-170.79 4.29,-129 -1.4,-115.01 -2.28,-77.3 8.29,-55 13.88,-43.22 24.05,-32.98 33.51,-25.3"/>
<polygon fill="#63b8ff" stroke="#63b8ff" points="35.65,-28.07 41.51,-19.24 31.42,-22.49 35.65,-28.07"/>
</a>
</g>
</g>
<!-- Node4 -->
<g id="Node000004" class="node">
<title>Node4</title>
<g id="a_Node000004"><a xlink:href="ExtraDataContainer_8h.html" target="_top" xlink:title=" ">
<polygon fill="white" stroke="#666666" points="192.79,-129 13.79,-129 13.79,-110 192.79,-110 192.79,-129"/>
<text text-anchor="middle" x="103.29" y="-117" font-family="Helvetica,sans-Serif" font-size="10.00">Application/ExtraDataContainer.h</text>
</a>
</g>
</g>
<!-- Node3&#45;&gt;Node4 -->
<g id="edge3_Node000003_Node000004" class="edge">
<title>Node3&#45;&gt;Node4</title>
<g id="a_edge3_Node000003_Node000004"><a xlink:title=" ">
<path fill="none" stroke="#63b8ff" d="M285.43,-164.98C248.21,-155.89 189.1,-141.46 148.37,-131.51"/>
<polygon fill="#63b8ff" stroke="#63b8ff" points="148.98,-128.05 138.43,-129.08 147.32,-134.85 148.98,-128.05"/>
</a>
</g>
</g>
<!-- Node8 -->
<g id="Node000008" class="node">
<title>Node8</title>
<g id="a_Node000008"><a xlink:href="Primitive_8h.html" target="_top" xlink:title=" ">
<polygon fill="white" stroke="#666666" points="491.29,-129 363.29,-129 363.29,-110 491.29,-110 491.29,-129"/>
<text text-anchor="middle" x="427.29" y="-117" font-family="Helvetica,sans-Serif" font-size="10.00">Application/Primitive.h</text>
</a>
</g>
</g>
<!-- Node3&#45;&gt;Node8 -->
<g id="edge7_Node000003_Node000008" class="edge">
<title>Node3&#45;&gt;Node8</title>
<g id="a_edge7_Node000003_Node000008"><a xlink:title=" ">
<path fill="none" stroke="#63b8ff" d="M337.48,-164.98C354.54,-156.54 380.92,-143.47 400.69,-133.68"/>
<polygon fill="#63b8ff" stroke="#63b8ff" points="402.38,-136.75 409.79,-129.17 399.27,-130.47 402.38,-136.75"/>
</a>
</g>
</g>
<!-- Node9 -->
<g id="Node000009" class="node">
<title>Node9</title>
<g id="a_Node000009"><a xlink:href="BaseType_8h.html" target="_top" xlink:title=" ">
<polygon fill="white" stroke="#666666" points="384.29,-74 286.29,-74 286.29,-55 384.29,-55 384.29,-74"/>
<text text-anchor="middle" x="335.29" y="-62" font-family="Helvetica,sans-Serif" font-size="10.00">Core/BaseType.h</text>
</a>
</g>
</g>
<!-- Node3&#45;&gt;Node9 -->
<g id="edge14_Node000003_Node000009" class="edge">
<title>Node3&#45;&gt;Node9</title>
<g id="a_edge14_Node000003_Node000009"><a xlink:title=" ">
<path fill="none" stroke="#63b8ff" d="M321.52,-164.66C323.95,-147.17 329.42,-107.8 332.69,-84.27"/>
<polygon fill="#63b8ff" stroke="#63b8ff" points="336.18,-84.54 334.09,-74.16 329.25,-83.58 336.18,-84.54"/>
</a>
</g>
</g>
<!-- Node15 -->
<g id="Node000015" class="node">
<title>Node15</title>
<g id="a_Node000015"><a xlink:title=" ">
<polygon fill="#e0e0e0" stroke="#999999" points="307.29,-129 249.29,-129 249.29,-110 307.29,-110 307.29,-129"/>
<text text-anchor="middle" x="278.29" y="-117" font-family="Helvetica,sans-Serif" font-size="10.00">memory</text>
</a>
</g>
</g>
<!-- Node3&#45;&gt;Node15 -->
<g id="edge15_Node000003_Node000015" class="edge">
<title>Node3&#45;&gt;Node15</title>
<g id="a_edge15_Node000003_Node000015"><a xlink:title=" ">
<path fill="none" stroke="#63b8ff" d="M313.36,-164.75C307.43,-157.26 298.72,-146.28 291.47,-137.13"/>
<polygon fill="#63b8ff" stroke="#63b8ff" points="294.05,-134.75 285.1,-129.09 288.57,-139.1 294.05,-134.75"/>
</a>
</g>
</g>
<!-- Node16 -->
<g id="Node000016" class="node">
<title>Node16</title>
<g id="a_Node000016"><a xlink:title=" ">
<polygon fill="#e0e0e0" stroke="#999999" points="556.79,-129 509.79,-129 509.79,-110 556.79,-110 556.79,-129"/>
<text text-anchor="middle" x="533.29" y="-117" font-family="Helvetica,sans-Serif" font-size="10.00">vector</text>
</a>
</g>
</g>
<!-- Node3&#45;&gt;Node16 -->
<g id="edge16_Node000003_Node000016" class="edge">
<title>Node3&#45;&gt;Node16</title>
<g id="a_edge16_Node000003_Node000016"><a xlink:title=" ">
<path fill="none" stroke="#63b8ff" d="M355.16,-164.99C389.46,-156.59 443.56,-143.28 499.74,-129.12"/>
<polygon fill="#63b8ff" stroke="#63b8ff" points="500.67,-132.5 509.51,-126.66 498.95,-125.71 500.67,-132.5"/>
</a>
</g>
</g>
<!-- Node5 -->
<g id="Node000005" class="node">
<title>Node5</title>
<g id="a_Node000005"><a xlink:title=" ">
<polygon fill="#e0e0e0" stroke="#999999" points="52.79,-74 17.79,-74 17.79,-55 52.79,-55 52.79,-74"/>
<text text-anchor="middle" x="35.29" y="-62" font-family="Helvetica,sans-Serif" font-size="10.00">any</text>
</a>
</g>
</g>
<!-- Node4&#45;&gt;Node5 -->
<g id="edge4_Node000004_Node000005" class="edge">
<title>Node4&#45;&gt;Node5</title>
<g id="a_edge4_Node000004_Node000005"><a xlink:title=" ">
<path fill="none" stroke="#63b8ff" d="M92.37,-109.98C82.22,-102.07 66.87,-90.11 54.65,-80.58"/>
<polygon fill="#63b8ff" stroke="#63b8ff" points="56.46,-77.56 46.42,-74.17 52.15,-83.08 56.46,-77.56"/>
</a>
</g>
</g>
<!-- Node6 -->
<g id="Node000006" class="node">
<title>Node6</title>
<g id="a_Node000006"><a xlink:title=" ">
<polygon fill="#e0e0e0" stroke="#999999" points="135.79,-74 70.79,-74 70.79,-55 135.79,-55 135.79,-74"/>
<text text-anchor="middle" x="103.29" y="-62" font-family="Helvetica,sans-Serif" font-size="10.00">typeindex</text>
</a>
</g>
</g>
<!-- Node4&#45;&gt;Node6 -->
<g id="edge5_Node000004_Node000006" class="edge">
<title>Node4&#45;&gt;Node6</title>
<g id="a_edge5_Node000004_Node000006"><a xlink:title=" ">
<path fill="none" stroke="#63b8ff" d="M103.29,-109.75C103.29,-102.8 103.29,-92.85 103.29,-84.13"/>
<polygon fill="#63b8ff" stroke="#63b8ff" points="106.79,-84.09 103.29,-74.09 99.79,-84.09 106.79,-84.09"/>
</a>
</g>
</g>
<!-- Node7 -->
<g id="Node000007" class="node">
<title>Node7</title>
<g id="a_Node000007"><a xlink:title=" ">
<polygon fill="#e0e0e0" stroke="#999999" points="246.79,-74 153.79,-74 153.79,-55 246.79,-55 246.79,-74"/>
<text text-anchor="middle" x="200.29" y="-62" font-family="Helvetica,sans-Serif" font-size="10.00">unordered_map</text>
</a>
</g>
</g>
<!-- Node4&#45;&gt;Node7 -->
<g id="edge6_Node000004_Node000007" class="edge">
<title>Node4&#45;&gt;Node7</title>
<g id="a_edge6_Node000004_Node000007"><a xlink:title=" ">
<path fill="none" stroke="#63b8ff" d="M118.88,-109.98C134.06,-101.69 157.39,-88.94 175.19,-79.22"/>
<polygon fill="#63b8ff" stroke="#63b8ff" points="177.33,-82.04 184.43,-74.17 173.97,-75.89 177.33,-82.04"/>
</a>
</g>
</g>
<!-- Node8&#45;&gt;Node9 -->
<g id="edge8_Node000008_Node000009" class="edge">
<title>Node8&#45;&gt;Node9</title>
<g id="a_edge8_Node000008_Node000009"><a xlink:title=" ">
<path fill="none" stroke="#63b8ff" d="M412.51,-109.98C398.11,-101.69 375.98,-88.94 359.1,-79.22"/>
<polygon fill="#63b8ff" stroke="#63b8ff" points="360.76,-76.13 350.34,-74.17 357.26,-82.19 360.76,-76.13"/>
</a>
</g>
</g>
<!-- Node14 -->
<g id="Node000014" class="node">
<title>Node14</title>
<g id="a_Node000014"><a xlink:title=" ">
<polygon fill="#e0e0e0" stroke="#999999" points="577.29,-74 535.29,-74 535.29,-55 577.29,-55 577.29,-74"/>
<text text-anchor="middle" x="556.29" y="-62" font-family="Helvetica,sans-Serif" font-size="10.00">array</text>
</a>
</g>
</g>
<!-- Node8&#45;&gt;Node14 -->
<g id="edge13_Node000008_Node000014" class="edge">
<title>Node8&#45;&gt;Node14</title>
<g id="a_edge13_Node000008_Node000014"><a xlink:title=" ">
<path fill="none" stroke="#63b8ff" d="M448.02,-109.98C469.05,-101.34 501.84,-87.87 525.83,-78.02"/>
<polygon fill="#63b8ff" stroke="#63b8ff" points="527.27,-81.21 535.19,-74.17 524.61,-74.73 527.27,-81.21"/>
</a>
</g>
</g>
<!-- Node10 -->
<g id="Node000010" class="node">
<title>Node10</title>
<g id="a_Node000010"><a xlink:title=" ">
<polygon fill="#e0e0e0" stroke="#999999" points="246.29,-19 168.29,-19 168.29,0 246.29,0 246.29,-19"/>
<text text-anchor="middle" x="207.29" y="-7" font-family="Helvetica,sans-Serif" font-size="10.00">glm/glm.hpp</text>
</a>
</g>
</g>
<!-- Node9&#45;&gt;Node10 -->
<g id="edge9_Node000009_Node000010" class="edge">
<title>Node9&#45;&gt;Node10</title>
<g id="a_edge9_Node000009_Node000010"><a xlink:title=" ">
<path fill="none" stroke="#63b8ff" d="M314.73,-54.98C293.86,-46.34 261.32,-32.87 237.52,-23.02"/>
<polygon fill="#63b8ff" stroke="#63b8ff" points="238.81,-19.76 228.23,-19.17 236.13,-26.23 238.81,-19.76"/>
</a>
</g>
</g>
<!-- Node11 -->
<g id="Node000011" class="node">
<title>Node11</title>
<g id="a_Node000011"><a xlink:title=" ">
<polygon fill="#e0e0e0" stroke="#999999" points="405.79,-19 264.79,-19 264.79,0 405.79,0 405.79,-19"/>
<text text-anchor="middle" x="335.29" y="-7" font-family="Helvetica,sans-Serif" font-size="10.00">glm/gtx/vector_angle.hpp</text>
</a>
</g>
</g>
<!-- Node9&#45;&gt;Node11 -->
<g id="edge10_Node000009_Node000011" class="edge">
<title>Node9&#45;&gt;Node11</title>
<g id="a_edge10_Node000009_Node000011"><a xlink:title=" ">
<path fill="none" stroke="#63b8ff" d="M335.29,-54.75C335.29,-47.8 335.29,-37.85 335.29,-29.13"/>
<polygon fill="#63b8ff" stroke="#63b8ff" points="338.79,-29.09 335.29,-19.09 331.79,-29.09 338.79,-29.09"/>
</a>
</g>
</g>
<!-- Node12 -->
<g id="Node000012" class="node">
<title>Node12</title>
<g id="a_Node000012"><a xlink:title=" ">
<polygon fill="#e0e0e0" stroke="#999999" points="468.29,-19 424.29,-19 424.29,0 468.29,0 468.29,-19"/>
<text text-anchor="middle" x="446.29" y="-7" font-family="Helvetica,sans-Serif" font-size="10.00">bitset</text>
</a>
</g>
</g>
<!-- Node9&#45;&gt;Node12 -->
<g id="edge11_Node000009_Node000012" class="edge">
<title>Node9&#45;&gt;Node12</title>
<g id="a_edge11_Node000009_Node000012"><a xlink:title=" ">
<path fill="none" stroke="#63b8ff" d="M353.13,-54.98C370.9,-46.5 398.44,-33.35 418.97,-23.54"/>
<polygon fill="#63b8ff" stroke="#63b8ff" points="420.62,-26.64 428.13,-19.17 417.6,-20.32 420.62,-26.64"/>
</a>
</g>
</g>
<!-- Node9&#45;&gt;Node13 -->
<g id="edge12_Node000009_Node000013" class="edge">
<title>Node9&#45;&gt;Node13</title>
<g id="a_edge12_Node000009_Node000013"><a xlink:title=" ">
<path fill="none" stroke="#63b8ff" d="M290.31,-54.98C234.63,-44.45 140.98,-26.72 90.34,-17.13"/>
<polygon fill="#63b8ff" stroke="#63b8ff" points="90.99,-13.69 80.51,-15.27 89.69,-20.57 90.99,-13.69"/>
</a>
</g>
</g>
<!-- Node17&#45;&gt;Node3 -->
<g id="edge24_Node000017_Node000003" class="edge">
<title>Node17&#45;&gt;Node3</title>
<g id="a_edge24_Node000017_Node000003"><a xlink:title=" ">
<path fill="none" stroke="#63b8ff" d="M333.37,-274.84C345.9,-262.95 364.77,-240.7 357.29,-220 353.35,-209.09 345.43,-198.96 337.93,-191.14"/>
<polygon fill="#63b8ff" stroke="#63b8ff" points="340.34,-188.6 330.73,-184.13 335.46,-193.61 340.34,-188.6"/>
</a>
</g>
</g>
<!-- Node18 -->
<g id="Node000018" class="node">
<title>Node18</title>
<g id="a_Node000018"><a xlink:href="ExtraDataType_8h.html" target="_top" xlink:title=" ">
<polygon fill="white" stroke="#666666" points="662.79,-184 507.79,-184 507.79,-165 662.79,-165 662.79,-184"/>
<text text-anchor="middle" x="585.29" y="-172" font-family="Helvetica,sans-Serif" font-size="10.00">Application/ExtraDataType.h</text>
</a>
</g>
</g>
<!-- Node17&#45;&gt;Node18 -->
<g id="edge19_Node000017_Node000018" class="edge">
<title>Node17&#45;&gt;Node18</title>
<g id="a_edge19_Node000017_Node000018"><a xlink:title=" ">
<path fill="none" stroke="#63b8ff" d="M344.29,-274.84C390.59,-255.76 501.58,-210.01 555.24,-187.89"/>
<polygon fill="#63b8ff" stroke="#63b8ff" points="556.65,-191.09 564.56,-184.05 553.98,-184.62 556.65,-191.09"/>
</a>
</g>
</g>
<!-- Node20 -->
<g id="Node000020" class="node">
<title>Node20</title>
<g id="a_Node000020"><a xlink:href="PrimitiveProxy_8h.html" target="_top" xlink:title=" ">
<polygon fill="white" stroke="#666666" points="348.29,-239 194.29,-239 194.29,-220 348.29,-220 348.29,-239"/>
<text text-anchor="middle" x="271.29" y="-227" font-family="Helvetica,sans-Serif" font-size="10.00">Application/PrimitiveProxy.h</text>
</a>
</g>
</g>
<!-- Node17&#45;&gt;Node20 -->
<g id="edge25_Node000017_Node000020" class="edge">
<title>Node17&#45;&gt;Node20</title>
<g id="a_edge25_Node000017_Node000020"><a xlink:title=" ">
<path fill="none" stroke="#63b8ff" d="M314.71,-274.75C307.13,-267.03 295.92,-255.6 286.78,-246.28"/>
<polygon fill="#63b8ff" stroke="#63b8ff" points="289.22,-243.78 279.72,-239.09 284.23,-248.68 289.22,-243.78"/>
</a>
</g>
</g>
<!-- Node18&#45;&gt;Node9 -->
<g id="edge20_Node000018_Node000009" class="edge">
<title>Node18&#45;&gt;Node9</title>
<g id="a_edge20_Node000018_Node000009"><a xlink:title=" ">
<path fill="none" stroke="#63b8ff" d="M585.36,-164.63C584.94,-150.79 582,-124.2 566.29,-110 541.56,-87.63 454.38,-75.69 394.49,-69.98"/>
<polygon fill="#63b8ff" stroke="#63b8ff" points="394.67,-66.48 384.39,-69.05 394.03,-73.45 394.67,-66.48"/>
</a>
</g>
</g>
<!-- Node18&#45;&gt;Node14 -->
<g id="edge21_Node000018_Node000014" class="edge">
<title>Node18&#45;&gt;Node14</title>
<g id="a_edge21_Node000018_Node000014"><a xlink:title=" ">
<path fill="none" stroke="#63b8ff" d="M613.38,-164.97C642.95,-154.46 683.07,-134.89 666.29,-110 648.88,-84.18 613.68,-73.33 587.76,-68.78"/>
<polygon fill="#63b8ff" stroke="#63b8ff" points="588.07,-65.29 577.65,-67.24 587.01,-72.21 588.07,-65.29"/>
</a>
</g>
</g>
<!-- Node18&#45;&gt;Node16 -->
<g id="edge23_Node000018_Node000016" class="edge">
<title>Node18&#45;&gt;Node16</title>
<g id="a_edge23_Node000018_Node000016"><a xlink:title=" ">
<path fill="none" stroke="#63b8ff" d="M576.71,-164.75C569.13,-157.03 557.92,-145.6 548.78,-136.28"/>
<polygon fill="#63b8ff" stroke="#63b8ff" points="551.22,-133.78 541.72,-129.09 546.23,-138.68 551.22,-133.78"/>
</a>
</g>
</g>
<!-- Node19 -->
<g id="Node000019" class="node">
<title>Node19</title>
<g id="a_Node000019"><a xlink:title=" ">
<polygon fill="#e0e0e0" stroke="#999999" points="657.29,-129 613.29,-129 613.29,-110 657.29,-110 657.29,-129"/>
<text text-anchor="middle" x="635.29" y="-117" font-family="Helvetica,sans-Serif" font-size="10.00">string</text>
</a>
</g>
</g>
<!-- Node18&#45;&gt;Node19 -->
<g id="edge22_Node000018_Node000019" class="edge">
<title>Node18&#45;&gt;Node19</title>
<g id="a_edge22_Node000018_Node000019"><a xlink:title=" ">
<path fill="none" stroke="#63b8ff" d="M593.55,-164.75C600.76,-157.11 611.4,-145.82 620.14,-136.56"/>
<polygon fill="#63b8ff" stroke="#63b8ff" points="622.87,-138.76 627.19,-129.09 617.78,-133.96 622.87,-138.76"/>
</a>
</g>
</g>
<!-- Node20&#45;&gt;Node3 -->
<g id="edge26_Node000020_Node000003" class="edge">
<title>Node20&#45;&gt;Node3</title>
<g id="a_edge26_Node000020_Node000003"><a xlink:title=" ">
<path fill="none" stroke="#63b8ff" d="M279.38,-219.75C286.45,-212.11 296.88,-200.82 305.44,-191.56"/>
<polygon fill="#63b8ff" stroke="#63b8ff" points="308.13,-193.81 312.35,-184.09 302.99,-189.06 308.13,-193.81"/>
</a>
</g>
</g>
<!-- Node20&#45;&gt;Node9 -->
<g id="edge27_Node000020_Node000009" class="edge">
<title>Node20&#45;&gt;Node9</title>
<g id="a_edge27_Node000020_Node000009"><a xlink:title=" ">
<path fill="none" stroke="#63b8ff" d="M264.66,-219.75C249.87,-199.07 217.24,-146.25 240.29,-110 250.18,-94.45 267.08,-84.25 283.92,-77.58"/>
<polygon fill="#63b8ff" stroke="#63b8ff" points="285.53,-80.72 293.77,-74.06 283.17,-74.13 285.53,-80.72"/>
</a>
</g>
</g>
</g>
</svg>
