<?xml version="1.0" encoding="UTF-8" standalone="no"?>
<!DOCTYPE svg PUBLIC "-//W3C//DTD SVG 1.1//EN"
 "http://www.w3.org/Graphics/SVG/1.1/DTD/svg11.dtd">
<!-- Generated by graphviz version 2.43.0 (0)
 -->
<!-- Title: App/Include/Application/Mesh.h Pages: 1 -->
<svg width="1461pt" height="236pt"
 viewBox="0.00 0.00 1460.96 236.00" xmlns="http://www.w3.org/2000/svg" xmlns:xlink="http://www.w3.org/1999/xlink">
<g id="graph0" class="graph" transform="scale(1 1) rotate(0) translate(4 232)">
<title>App/Include/Application/Mesh.h</title>
<!-- Node1 -->
<g id="Node000001" class="node">
<title>Node1</title>
<g id="a_Node000001"><a xlink:title=" ">
<polygon fill="#999999" stroke="#666666" points="893.46,-228 762.46,-228 762.46,-198 893.46,-198 893.46,-228"/>
<text text-anchor="start" x="770.46" y="-216" font-family="Helvetica,sans-Serif" font-size="10.00">App/Include/Application</text>
<text text-anchor="middle" x="827.96" y="-205" font-family="Helvetica,sans-Serif" font-size="10.00">/Mesh.h</text>
</a>
</g>
</g>
<!-- Node2 -->
<g id="Node000002" class="node">
<title>Node2</title>
<g id="a_Node000002"><a xlink:href="MeshExporter_8h.html" target="_top" xlink:title=" ">
<polygon fill="white" stroke="#666666" points="846.46,-162 715.46,-162 715.46,-132 846.46,-132 846.46,-162"/>
<text text-anchor="start" x="723.46" y="-150" font-family="Helvetica,sans-Serif" font-size="10.00">App/Include/Application</text>
<text text-anchor="middle" x="780.96" y="-139" font-family="Helvetica,sans-Serif" font-size="10.00">/MeshExporter.h</text>
</a>
</g>
</g>
<!-- Node1&#45;&gt;Node2 -->
<g id="edge1_Node000001_Node000002" class="edge">
<title>Node1&#45;&gt;Node2</title>
<g id="a_edge1_Node000001_Node000002"><a xlink:title=" ">
<path fill="none" stroke="#63b8ff" d="M811.45,-189.53C804.77,-180.43 797.26,-170.19 791.36,-162.16"/>
<polygon fill="#63b8ff" stroke="#63b8ff" points="808.79,-191.81 817.53,-197.8 814.43,-187.66 808.79,-191.81"/>
</a>
</g>
</g>
<!-- Node5 -->
<g id="Node000005" class="node">
<title>Node5</title>
<g id="a_Node000005"><a xlink:href="MeshIntegrity_8h.html" target="_top" xlink:title=" ">
<polygon fill="white" stroke="#666666" points="283.46,-162 152.46,-162 152.46,-132 283.46,-132 283.46,-162"/>
<text text-anchor="start" x="160.46" y="-150" font-family="Helvetica,sans-Serif" font-size="10.00">App/Include/Application</text>
<text text-anchor="middle" x="217.96" y="-139" font-family="Helvetica,sans-Serif" font-size="10.00">/MeshIntegrity.h</text>
</a>
</g>
</g>
<!-- Node1&#45;&gt;Node5 -->
<g id="edge4_Node000001_Node000005" class="edge">
<title>Node1&#45;&gt;Node5</title>
<g id="a_edge4_Node000001_Node000005"><a xlink:title=" ">
<path fill="none" stroke="#63b8ff" d="M752.13,-204.04C631.42,-191.38 397.6,-166.85 283.62,-154.89"/>
<polygon fill="#63b8ff" stroke="#63b8ff" points="752.08,-207.56 762.39,-205.12 752.81,-200.6 752.08,-207.56"/>
</a>
</g>
</g>
<!-- Node9 -->
<g id="Node000009" class="node">
<title>Node9</title>
<g id="a_Node000009"><a xlink:href="Mesh__utest_8cpp.html" target="_top" xlink:title=" ">
<polygon fill="white" stroke="#666666" points="345.46,-30 222.46,-30 222.46,0 345.46,0 345.46,-30"/>
<text text-anchor="start" x="230.46" y="-18" font-family="Helvetica,sans-Serif" font-size="10.00">App/Test/Source/Mesh</text>
<text text-anchor="middle" x="283.96" y="-7" font-family="Helvetica,sans-Serif" font-size="10.00">_utest.cpp</text>
</a>
</g>
</g>
<!-- Node1&#45;&gt;Node9 -->
<g id="edge28_Node000001_Node000009" class="edge">
<title>Node1&#45;&gt;Node9</title>
<g id="a_edge28_Node000001_Node000009"><a xlink:title=" ">
<path fill="none" stroke="#63b8ff" d="M752.17,-210.04C598.68,-205.49 256.07,-192.2 142.96,-162 77.66,-144.57 41.91,-153.23 5.96,-96 -1.13,-84.71 -2.59,-76.23 5.96,-66 32.97,-33.69 148.87,-22.23 222.23,-18.18"/>
<polygon fill="#63b8ff" stroke="#63b8ff" points="752.35,-213.55 762.45,-210.34 752.55,-206.55 752.35,-213.55"/>
</a>
</g>
</g>
<!-- Node10 -->
<g id="Node000010" class="node">
<title>Node10</title>
<g id="a_Node000010"><a xlink:href="MeshLoader_8h.html" target="_top" xlink:title=" ">
<polygon fill="white" stroke="#666666" points="562.46,-162 431.46,-162 431.46,-132 562.46,-132 562.46,-162"/>
<text text-anchor="start" x="439.46" y="-150" font-family="Helvetica,sans-Serif" font-size="10.00">App/Include/Application</text>
<text text-anchor="middle" x="496.96" y="-139" font-family="Helvetica,sans-Serif" font-size="10.00">/MeshLoader.h</text>
</a>
</g>
</g>
<!-- Node1&#45;&gt;Node10 -->
<g id="edge9_Node000001_Node000010" class="edge">
<title>Node1&#45;&gt;Node10</title>
<g id="a_edge9_Node000001_Node000010"><a xlink:title=" ">
<path fill="none" stroke="#63b8ff" d="M752.09,-197.33C694.88,-186.27 617.19,-171.25 562.62,-160.7"/>
<polygon fill="#63b8ff" stroke="#63b8ff" points="751.69,-200.82 762.17,-199.28 753.01,-193.94 751.69,-200.82"/>
</a>
</g>
</g>
<!-- Node12 -->
<g id="Node000012" class="node">
<title>Node12</title>
<g id="a_Node000012"><a xlink:href="PrimitiveProxy_8h.html" target="_top" xlink:title=" ">
<polygon fill="white" stroke="#666666" points="1108.46,-162 977.46,-162 977.46,-132 1108.46,-132 1108.46,-162"/>
<text text-anchor="start" x="985.46" y="-150" font-family="Helvetica,sans-Serif" font-size="10.00">App/Include/Application</text>
<text text-anchor="middle" x="1042.96" y="-139" font-family="Helvetica,sans-Serif" font-size="10.00">/PrimitiveProxy.h</text>
</a>
</g>
</g>
<!-- Node1&#45;&gt;Node12 -->
<g id="edge12_Node000001_Node000012" class="edge">
<title>Node1&#45;&gt;Node12</title>
<g id="a_edge12_Node000001_Node000012"><a xlink:title=" ">
<path fill="none" stroke="#63b8ff" d="M885.1,-194.99C919.7,-184.69 963.28,-171.72 995.89,-162.01"/>
<polygon fill="#63b8ff" stroke="#63b8ff" points="883.73,-191.75 875.14,-197.95 885.72,-198.46 883.73,-191.75"/>
</a>
</g>
</g>
<!-- Node13 -->
<g id="Node000013" class="node">
<title>Node13</title>
<g id="a_Node000013"><a xlink:href="TestHelpers_8h.html" target="_top" xlink:title=" ">
<polygon fill="white" stroke="#666666" points="978.46,-96 847.46,-96 847.46,-66 978.46,-66 978.46,-96"/>
<text text-anchor="start" x="855.46" y="-84" font-family="Helvetica,sans-Serif" font-size="10.00">App/Include/Application</text>
<text text-anchor="middle" x="912.96" y="-73" font-family="Helvetica,sans-Serif" font-size="10.00">/TestHelpers.h</text>
</a>
</g>
</g>
<!-- Node1&#45;&gt;Node13 -->
<g id="edge25_Node000001_Node000013" class="edge">
<title>Node1&#45;&gt;Node13</title>
<g id="a_edge25_Node000001_Node000013"><a xlink:title=" ">
<path fill="none" stroke="#63b8ff" d="M842.7,-189.45C860.25,-162.61 889.03,-118.6 903.71,-96.14"/>
<polygon fill="#63b8ff" stroke="#63b8ff" points="839.76,-187.56 837.22,-197.84 845.62,-191.39 839.76,-187.56"/>
</a>
</g>
</g>
<!-- Node14 -->
<g id="Node000014" class="node">
<title>Node14</title>
<g id="a_Node000014"><a xlink:href="MeshCirculator__utest_8cpp.html" target="_top" xlink:title=" ">
<polygon fill="white" stroke="#666666" points="1452.96,-30 1282.96,-30 1282.96,0 1452.96,0 1452.96,-30"/>
<text text-anchor="start" x="1290.96" y="-18" font-family="Helvetica,sans-Serif" font-size="10.00">App/Test/Source/MeshCirculator</text>
<text text-anchor="middle" x="1367.96" y="-7" font-family="Helvetica,sans-Serif" font-size="10.00">_utest.cpp</text>
</a>
</g>
</g>
<!-- Node1&#45;&gt;Node14 -->
<g id="edge27_Node000001_Node000014" class="edge">
<title>Node1&#45;&gt;Node14</title>
<g id="a_edge27_Node000001_Node000014"><a xlink:title=" ">
<path fill="none" stroke="#63b8ff" d="M903.76,-208.29C1042.97,-199.65 1330.33,-172.73 1386.96,-96 1401.45,-76.36 1388.11,-47.26 1377.65,-30.11"/>
<polygon fill="#63b8ff" stroke="#63b8ff" points="903.37,-204.81 893.6,-208.9 903.79,-211.79 903.37,-204.81"/>
</a>
</g>
</g>
<!-- Node16 -->
<g id="Node000016" class="node">
<title>Node16</title>
<g id="a_Node000016"><a xlink:href="Mesh_8cpp.html" target="_top" xlink:title=" ">
<polygon fill="white" stroke="#666666" points="1377.46,-90.5 1256.46,-90.5 1256.46,-71.5 1377.46,-71.5 1377.46,-90.5"/>
<text text-anchor="middle" x="1316.96" y="-78.5" font-family="Helvetica,sans-Serif" font-size="10.00">App/Source/Mesh.cpp</text>
</a>
</g>
</g>
<!-- Node1&#45;&gt;Node16 -->
<g id="edge26_Node000001_Node000016" class="edge">
<title>Node1&#45;&gt;Node16</title>
<g id="a_edge26_Node000001_Node000016"><a xlink:title=" ">
<path fill="none" stroke="#63b8ff" d="M903.63,-203.41C962.73,-195.64 1046.52,-182.27 1117.96,-162 1187.09,-142.38 1265.09,-106.87 1299.3,-90.59"/>
<polygon fill="#63b8ff" stroke="#63b8ff" points="903.1,-199.95 893.63,-204.7 903.99,-206.89 903.1,-199.95"/>
</a>
</g>
</g>
<!-- Node3 -->
<g id="Node000003" class="node">
<title>Node3</title>
<g id="a_Node000003"><a xlink:href="MeshExporter_8cpp.html" target="_top" xlink:title=" ">
<polygon fill="white" stroke="#666666" points="752.46,-90.5 591.46,-90.5 591.46,-71.5 752.46,-71.5 752.46,-90.5"/>
<text text-anchor="middle" x="671.96" y="-78.5" font-family="Helvetica,sans-Serif" font-size="10.00">App/Source/MeshExporter.cpp</text>
</a>
</g>
</g>
<!-- Node2&#45;&gt;Node3 -->
<g id="edge2_Node000002_Node000003" class="edge">
<title>Node2&#45;&gt;Node3</title>
<g id="a_edge2_Node000002_Node000003"><a xlink:title=" ">
<path fill="none" stroke="#63b8ff" d="M748.28,-126.81C727.7,-114.73 702.16,-99.73 686.46,-90.52"/>
<polygon fill="#63b8ff" stroke="#63b8ff" points="746.64,-129.91 757.04,-131.95 750.19,-123.87 746.64,-129.91"/>
</a>
</g>
</g>
<!-- Node4 -->
<g id="Node000004" class="node">
<title>Node4</title>
<g id="a_Node000004"><a xlink:href="MeshExporter__utest_8cpp.html" target="_top" xlink:title=" ">
<polygon fill="white" stroke="#666666" points="994.96,-30 830.96,-30 830.96,0 994.96,0 994.96,-30"/>
<text text-anchor="start" x="838.96" y="-18" font-family="Helvetica,sans-Serif" font-size="10.00">App/Test/Source/MeshExporter</text>
<text text-anchor="middle" x="912.96" y="-7" font-family="Helvetica,sans-Serif" font-size="10.00">_utest.cpp</text>
</a>
</g>
</g>
<!-- Node2&#45;&gt;Node4 -->
<g id="edge3_Node000002_Node000004" class="edge">
<title>Node2&#45;&gt;Node4</title>
<g id="a_edge3_Node000002_Node000004"><a xlink:title=" ">
<path fill="none" stroke="#63b8ff" d="M794.48,-123.12C805.2,-106.16 821.27,-83.11 838.96,-66 853.56,-51.88 872.59,-39.12 887.7,-30.02"/>
<polygon fill="#63b8ff" stroke="#63b8ff" points="791.37,-121.5 789.1,-131.85 797.33,-125.17 791.37,-121.5"/>
</a>
</g>
</g>
<!-- Node6 -->
<g id="Node000006" class="node">
<title>Node6</title>
<g id="a_Node000006"><a xlink:href="MeshIntegrity_8cpp.html" target="_top" xlink:title=" ">
<polygon fill="white" stroke="#666666" points="189.46,-90.5 28.46,-90.5 28.46,-71.5 189.46,-71.5 189.46,-90.5"/>
<text text-anchor="middle" x="108.96" y="-78.5" font-family="Helvetica,sans-Serif" font-size="10.00">App/Source/MeshIntegrity.cpp</text>
</a>
</g>
</g>
<!-- Node5&#45;&gt;Node6 -->
<g id="edge5_Node000005_Node000006" class="edge">
<title>Node5&#45;&gt;Node6</title>
<g id="a_edge5_Node000005_Node000006"><a xlink:title=" ">
<path fill="none" stroke="#63b8ff" d="M185.28,-126.81C164.7,-114.73 139.16,-99.73 123.46,-90.52"/>
<polygon fill="#63b8ff" stroke="#63b8ff" points="183.64,-129.91 194.04,-131.95 187.19,-123.87 183.64,-129.91"/>
</a>
</g>
</g>
<!-- Node7 -->
<g id="Node000007" class="node">
<title>Node7</title>
<g id="a_Node000007"><a xlink:href="MeshIntegrity__utest_8cpp.html" target="_top" xlink:title=" ">
<polygon fill="white" stroke="#666666" points="555.96,-30 391.96,-30 391.96,0 555.96,0 555.96,-30"/>
<text text-anchor="start" x="399.96" y="-18" font-family="Helvetica,sans-Serif" font-size="10.00">App/Test/Source/MeshIntegrity</text>
<text text-anchor="middle" x="473.96" y="-7" font-family="Helvetica,sans-Serif" font-size="10.00">_utest.cpp</text>
</a>
</g>
</g>
<!-- Node5&#45;&gt;Node7 -->
<g id="edge6_Node000005_Node000007" class="edge">
<title>Node5&#45;&gt;Node7</title>
<g id="a_edge6_Node000005_Node000007"><a xlink:title=" ">
<path fill="none" stroke="#63b8ff" d="M217.23,-121.74C218.06,-103.9 222.23,-80.36 236.96,-66 248.27,-54.97 327.94,-39.67 391.83,-28.9"/>
<polygon fill="#63b8ff" stroke="#63b8ff" points="213.73,-121.92 217.08,-131.97 220.73,-122.02 213.73,-121.92"/>
</a>
</g>
</g>
<!-- Node8 -->
<g id="Node000008" class="node">
<title>Node8</title>
<g id="a_Node000008"><a xlink:href="MeshLoader__utest_8cpp.html" target="_top" xlink:title=" ">
<polygon fill="white" stroke="#666666" points="401.96,-96 245.96,-96 245.96,-66 401.96,-66 401.96,-96"/>
<text text-anchor="start" x="253.96" y="-84" font-family="Helvetica,sans-Serif" font-size="10.00">App/Test/Source/MeshLoader</text>
<text text-anchor="middle" x="323.96" y="-73" font-family="Helvetica,sans-Serif" font-size="10.00">_utest.cpp</text>
</a>
</g>
</g>
<!-- Node5&#45;&gt;Node8 -->
<g id="edge7_Node000005_Node000008" class="edge">
<title>Node5&#45;&gt;Node8</title>
<g id="a_edge7_Node000005_Node000008"><a xlink:title=" ">
<path fill="none" stroke="#63b8ff" d="M249.93,-126.69C266.3,-116.82 285.85,-105.01 300.75,-96.01"/>
<polygon fill="#63b8ff" stroke="#63b8ff" points="247.97,-123.79 241.22,-131.95 251.59,-129.78 247.97,-123.79"/>
</a>
</g>
</g>
<!-- Node5&#45;&gt;Node9 -->
<g id="edge8_Node000005_Node000009" class="edge">
<title>Node5&#45;&gt;Node9</title>
<g id="a_edge8_Node000005_Node000009"><a xlink:title=" ">
<path fill="none" stroke="#63b8ff" d="M141.95,-140.39C70.68,-132.21 -19.6,-112.52 18.96,-66 44.28,-35.45 152.24,-23.44 222.31,-18.8"/>
<polygon fill="#63b8ff" stroke="#63b8ff" points="142,-143.91 152.32,-141.51 142.75,-136.95 142,-143.91"/>
</a>
</g>
</g>
<!-- Node10&#45;&gt;Node8 -->
<g id="edge11_Node000010_Node000008" class="edge">
<title>Node10&#45;&gt;Node8</title>
<g id="a_edge11_Node000010_Node000008"><a xlink:title=" ">
<path fill="none" stroke="#63b8ff" d="M449.54,-128.46C421.94,-118.25 387.62,-105.55 361.84,-96.01"/>
<polygon fill="#63b8ff" stroke="#63b8ff" points="448.4,-131.77 458.99,-131.95 450.83,-125.2 448.4,-131.77"/>
</a>
</g>
</g>
<!-- Node11 -->
<g id="Node000011" class="node">
<title>Node11</title>
<g id="a_Node000011"><a xlink:href="MeshLoader_8cpp.html" target="_top" xlink:title=" ">
<polygon fill="white" stroke="#666666" points="573.46,-90.5 420.46,-90.5 420.46,-71.5 573.46,-71.5 573.46,-90.5"/>
<text text-anchor="middle" x="496.96" y="-78.5" font-family="Helvetica,sans-Serif" font-size="10.00">App/Source/MeshLoader.cpp</text>
</a>
</g>
</g>
<!-- Node10&#45;&gt;Node11 -->
<g id="edge10_Node000010_Node000011" class="edge">
<title>Node10&#45;&gt;Node11</title>
<g id="a_edge10_Node000010_Node000011"><a xlink:title=" ">
<path fill="none" stroke="#63b8ff" d="M496.96,-121.6C496.96,-110.8 496.96,-98.78 496.96,-90.84"/>
<polygon fill="#63b8ff" stroke="#63b8ff" points="493.46,-121.8 496.96,-131.8 500.46,-121.8 493.46,-121.8"/>
</a>
</g>
</g>
<!-- Node12&#45;&gt;Node4 -->
<g id="edge22_Node000012_Node000004" class="edge">
<title>Node12&#45;&gt;Node4</title>
<g id="a_edge22_Node000012_Node000004"><a xlink:title=" ">
<path fill="none" stroke="#63b8ff" d="M1112.7,-128.93C1154.05,-115.46 1194.24,-94.23 1170.96,-66 1148.89,-39.25 1062.08,-26.64 995.18,-20.81"/>
<polygon fill="#63b8ff" stroke="#63b8ff" points="1111.55,-125.62 1103.04,-131.94 1113.63,-132.31 1111.55,-125.62"/>
</a>
</g>
</g>
<!-- Node12&#45;&gt;Node9 -->
<g id="edge23_Node000012_Node000009" class="edge">
<title>Node12&#45;&gt;Node9</title>
<g id="a_edge23_Node000012_Node000009"><a xlink:title=" ">
<path fill="none" stroke="#63b8ff" d="M967.01,-129.8C928.35,-120.94 880.8,-109.12 838.96,-96 803.52,-84.89 797.11,-74.51 760.96,-66 596.68,-27.35 550.55,-49.82 382.96,-30 370.89,-28.57 358.02,-26.88 345.69,-25.17"/>
<polygon fill="#63b8ff" stroke="#63b8ff" points="966.62,-133.3 977.15,-132.1 968.17,-126.47 966.62,-133.3"/>
</a>
</g>
</g>
<!-- Node12&#45;&gt;Node11 -->
<g id="edge20_Node000012_Node000011" class="edge">
<title>Node12&#45;&gt;Node11</title>
<g id="a_edge20_Node000012_Node000011"><a xlink:title=" ">
<path fill="none" stroke="#63b8ff" d="M967.16,-139.07C875.68,-130.42 717.27,-114.47 581.96,-96 570.25,-94.4 557.68,-92.46 545.88,-90.53"/>
<polygon fill="#63b8ff" stroke="#63b8ff" points="966.88,-142.56 977.17,-140.02 967.54,-135.59 966.88,-142.56"/>
</a>
</g>
</g>
<!-- Node12&#45;&gt;Node13 -->
<g id="edge13_Node000012_Node000013" class="edge">
<title>Node12&#45;&gt;Node13</title>
<g id="a_edge13_Node000012_Node000013"><a xlink:title=" ">
<path fill="none" stroke="#63b8ff" d="M1005.41,-127.51C985.01,-117.47 960.2,-105.26 941.42,-96.01"/>
<polygon fill="#63b8ff" stroke="#63b8ff" points="1003.91,-130.68 1014.43,-131.95 1007,-124.4 1003.91,-130.68"/>
</a>
</g>
</g>
<!-- Node15 -->
<g id="Node000015" class="node">
<title>Node15</title>
<g id="a_Node000015"><a xlink:href="PrimitiveProxy__utest_8cpp.html" target="_top" xlink:title=" ">
<polygon fill="white" stroke="#666666" points="1226.46,-30 1085.46,-30 1085.46,0 1226.46,0 1226.46,-30"/>
<text text-anchor="start" x="1093.46" y="-18" font-family="Helvetica,sans-Serif" font-size="10.00">App/Test/Source/Primitive</text>
<text text-anchor="middle" x="1155.96" y="-7" font-family="Helvetica,sans-Serif" font-size="10.00">Proxy_utest.cpp</text>
</a>
</g>
</g>
<!-- Node12&#45;&gt;Node15 -->
<g id="edge24_Node000012_Node000015" class="edge">
<title>Node12&#45;&gt;Node15</title>
<g id="a_edge24_Node000012_Node000015"><a xlink:title=" ">
<path fill="none" stroke="#63b8ff" d="M1118.98,-141.59C1150.53,-135.55 1184.3,-122.69 1203.96,-96 1220.1,-74.09 1194.38,-46.48 1174.8,-30.09"/>
<polygon fill="#63b8ff" stroke="#63b8ff" points="1118.1,-138.19 1108.83,-143.32 1119.28,-145.09 1118.1,-138.19"/>
</a>
</g>
</g>
<!-- Node12&#45;&gt;Node16 -->
<g id="edge19_Node000012_Node000016" class="edge">
<title>Node12&#45;&gt;Node16</title>
<g id="a_edge19_Node000012_Node000016"><a xlink:title=" ">
<path fill="none" stroke="#63b8ff" d="M1112.85,-129.68C1166.3,-117.19 1237.85,-100.48 1280.49,-90.52"/>
<polygon fill="#63b8ff" stroke="#63b8ff" points="1112.03,-126.27 1103.09,-131.95 1113.62,-133.09 1112.03,-126.27"/>
</a>
</g>
</g>
<!-- Node17 -->
<g id="Node000017" class="node">
<title>Node17</title>
<g id="a_Node000017"><a xlink:href="PrimitiveProxy_8cpp.html" target="_top" xlink:title=" ">
<polygon fill="white" stroke="#666666" points="1161.46,-90.5 996.46,-90.5 996.46,-71.5 1161.46,-71.5 1161.46,-90.5"/>
<text text-anchor="middle" x="1078.96" y="-78.5" font-family="Helvetica,sans-Serif" font-size="10.00">App/Source/PrimitiveProxy.cpp</text>
</a>
</g>
</g>
<!-- Node12&#45;&gt;Node17 -->
<g id="edge21_Node000012_Node000017" class="edge">
<title>Node12&#45;&gt;Node17</title>
<g id="a_edge21_Node000012_Node000017"><a xlink:title=" ">
<path fill="none" stroke="#63b8ff" d="M1055.93,-122.95C1062.19,-111.81 1069.33,-99.11 1073.98,-90.84"/>
<polygon fill="#63b8ff" stroke="#63b8ff" points="1052.8,-121.36 1050.95,-131.8 1058.9,-124.8 1052.8,-121.36"/>
</a>
</g>
</g>
<!-- Node13&#45;&gt;Node4 -->
<g id="edge15_Node000013_Node000004" class="edge">
<title>Node13&#45;&gt;Node4</title>
<g id="a_edge15_Node000013_Node000004"><a xlink:title=" ">
<path fill="none" stroke="#63b8ff" d="M912.96,-55.54C912.96,-46.96 912.96,-37.61 912.96,-30.16"/>
<polygon fill="#63b8ff" stroke="#63b8ff" points="909.46,-55.8 912.96,-65.8 916.46,-55.8 909.46,-55.8"/>
</a>
</g>
</g>
<!-- Node13&#45;&gt;Node7 -->
<g id="edge16_Node000013_Node000007" class="edge">
<title>Node13&#45;&gt;Node7</title>
<g id="a_edge16_Node000013_Node000007"><a xlink:title=" ">
<path fill="none" stroke="#63b8ff" d="M836.87,-66.62C835.56,-66.41 834.25,-66.2 832.96,-66 738.16,-51.11 628.91,-36.21 556.06,-26.61"/>
<polygon fill="#63b8ff" stroke="#63b8ff" points="836.63,-70.13 847.07,-68.28 837.76,-63.22 836.63,-70.13"/>
</a>
</g>
</g>
<!-- Node13&#45;&gt;Node9 -->
<g id="edge17_Node000013_Node000009" class="edge">
<title>Node13&#45;&gt;Node9</title>
<g id="a_edge17_Node000013_Node000009"><a xlink:title=" ">
<path fill="none" stroke="#63b8ff" d="M836.88,-66.51C835.57,-66.34 834.26,-66.17 832.96,-66 633.92,-40.68 582.38,-52.06 382.96,-30 370.88,-28.66 358.01,-27.01 345.67,-25.32"/>
<polygon fill="#63b8ff" stroke="#63b8ff" points="836.72,-70.03 847.11,-67.97 837.71,-63.1 836.72,-70.03"/>
</a>
</g>
</g>
<!-- Node13&#45;&gt;Node14 -->
<g id="edge14_Node000013_Node000014" class="edge">
<title>Node13&#45;&gt;Node14</title>
<g id="a_edge14_Node000013_Node000014"><a xlink:title=" ">
<path fill="none" stroke="#63b8ff" d="M988.8,-65.92C1096.03,-49.04 1208.07,-34.85 1282.87,-25.87"/>
<polygon fill="#63b8ff" stroke="#63b8ff" points="988.1,-62.49 978.77,-67.51 989.2,-69.4 988.1,-62.49"/>
</a>
</g>
</g>
<!-- Node13&#45;&gt;Node15 -->
<g id="edge18_Node000013_Node000015" class="edge">
<title>Node13&#45;&gt;Node15</title>
<g id="a_edge18_Node000013_Node000015"><a xlink:title=" ">
<path fill="none" stroke="#63b8ff" d="M976.04,-63.39C1015.38,-53.03 1065.43,-39.84 1102.76,-30.01"/>
<polygon fill="#63b8ff" stroke="#63b8ff" points="975.06,-60.02 966.29,-65.95 976.85,-66.79 975.06,-60.02"/>
</a>
</g>
</g>
</g>
</svg>
