<?xml version="1.0" encoding="UTF-8" standalone="no"?>
<!DOCTYPE svg PUBLIC "-//W3C//DTD SVG 1.1//EN"
 "http://www.w3.org/Graphics/SVG/1.1/DTD/svg11.dtd">
<!-- Generated by graphviz version 2.43.0 (0)
 -->
<!-- Title: App/Source/MeshExporter.cpp Pages: 1 -->
<svg width="1190pt" height="302pt"
 viewBox="0.00 0.00 1190.00 302.00" xmlns="http://www.w3.org/2000/svg" xmlns:xlink="http://www.w3.org/1999/xlink">
<g id="graph0" class="graph" transform="scale(1 1) rotate(0) translate(4 298)">
<title>App/Source/MeshExporter.cpp</title>
<!-- Node1 -->
<g id="Node000001" class="node">
<title>Node1</title>
<g id="a_Node000001"><a xlink:title=" ">
<polygon fill="#999999" stroke="#666666" points="838.5,-294 677.5,-294 677.5,-275 838.5,-275 838.5,-294"/>
<text text-anchor="middle" x="758" y="-282" font-family="Helvetica,sans-Serif" font-size="10.00">App/Source/MeshExporter.cpp</text>
</a>
</g>
</g>
<!-- Node2 -->
<g id="Node000002" class="node">
<title>Node2</title>
<g id="a_Node000002"><a xlink:href="MeshExporter_8h.html" target="_top" xlink:title=" ">
<polygon fill="white" stroke="#666666" points="167,-239 17,-239 17,-220 167,-220 167,-239"/>
<text text-anchor="middle" x="92" y="-227" font-family="Helvetica,sans-Serif" font-size="10.00">Application/MeshExporter.h</text>
</a>
</g>
</g>
<!-- Node1&#45;&gt;Node2 -->
<g id="edge1_Node000001_Node000002" class="edge">
<title>Node1&#45;&gt;Node2</title>
<g id="a_edge1_Node000001_Node000002"><a xlink:title=" ">
<path fill="none" stroke="#63b8ff" d="M677.21,-277.74C565.59,-269.67 357.92,-254.27 181,-239 179.88,-238.9 178.75,-238.81 177.61,-238.71"/>
<polygon fill="#63b8ff" stroke="#63b8ff" points="177.52,-235.18 167.25,-237.78 176.9,-242.16 177.52,-235.18"/>
</a>
</g>
</g>
<!-- Node3 -->
<g id="Node000003" class="node">
<title>Node3</title>
<g id="a_Node000003"><a xlink:href="BaseType_8h.html" target="_top" xlink:title=" ">
<polygon fill="white" stroke="#666666" points="300,-74 170,-74 170,-55 300,-55 300,-74"/>
<text text-anchor="middle" x="235" y="-62" font-family="Helvetica,sans-Serif" font-size="10.00">Application/BaseType.h</text>
</a>
</g>
</g>
<!-- Node1&#45;&gt;Node3 -->
<g id="edge20_Node000001_Node000003" class="edge">
<title>Node1&#45;&gt;Node3</title>
<g id="a_edge20_Node000001_Node000003"><a xlink:title=" ">
<path fill="none" stroke="#63b8ff" d="M677.44,-280.56C549.7,-275.22 311.89,-262.27 281,-239 232.71,-202.63 231.19,-121.74 233.29,-84.7"/>
<polygon fill="#63b8ff" stroke="#63b8ff" points="236.81,-84.55 234.04,-74.32 229.83,-84.04 236.81,-84.55"/>
</a>
</g>
</g>
<!-- Node9 -->
<g id="Node000009" class="node">
<title>Node9</title>
<g id="a_Node000009"><a xlink:href="ExtraDataContainer_8h.html" target="_top" xlink:title=" ">
<polygon fill="white" stroke="#666666" points="839.5,-129 660.5,-129 660.5,-110 839.5,-110 839.5,-129"/>
<text text-anchor="middle" x="750" y="-117" font-family="Helvetica,sans-Serif" font-size="10.00">Application/ExtraDataContainer.h</text>
</a>
</g>
</g>
<!-- Node1&#45;&gt;Node9 -->
<g id="edge21_Node000001_Node000009" class="edge">
<title>Node1&#45;&gt;Node9</title>
<g id="a_edge21_Node000001_Node000009"><a xlink:title=" ">
<path fill="none" stroke="#63b8ff" d="M736.21,-274.87C721.36,-267.69 702.84,-255.91 694,-239 678.77,-209.85 679.7,-194.62 694,-165 700.22,-152.12 712.18,-141.82 723.46,-134.38"/>
<polygon fill="#63b8ff" stroke="#63b8ff" points="725.51,-137.23 732.23,-129.04 721.87,-131.25 725.51,-137.23"/>
</a>
</g>
</g>
<!-- Node18 -->
<g id="Node000018" class="node">
<title>Node18</title>
<g id="a_Node000018"><a xlink:href="ExtraDataType_8h.html" target="_top" xlink:title=" ">
<polygon fill="white" stroke="#666666" points="645.5,-184 490.5,-184 490.5,-165 645.5,-165 645.5,-184"/>
<text text-anchor="middle" x="568" y="-172" font-family="Helvetica,sans-Serif" font-size="10.00">Application/ExtraDataType.h</text>
</a>
</g>
</g>
<!-- Node1&#45;&gt;Node18 -->
<g id="edge22_Node000001_Node000018" class="edge">
<title>Node1&#45;&gt;Node18</title>
<g id="a_edge22_Node000001_Node000018"><a xlink:title=" ">
<path fill="none" stroke="#63b8ff" d="M736.04,-274.85C715.81,-266.57 685.2,-253.27 660,-239 633.73,-224.13 605.42,-203.88 587.25,-190.29"/>
<polygon fill="#63b8ff" stroke="#63b8ff" points="589.28,-187.44 579.19,-184.2 585.06,-193.02 589.28,-187.44"/>
</a>
</g>
</g>
<!-- Node20 -->
<g id="Node000020" class="node">
<title>Node20</title>
<g id="a_Node000020"><a xlink:href="PrimitiveProxy_8h.html" target="_top" xlink:title=" ">
<polygon fill="white" stroke="#666666" points="444,-239 290,-239 290,-220 444,-220 444,-239"/>
<text text-anchor="middle" x="367" y="-227" font-family="Helvetica,sans-Serif" font-size="10.00">Application/PrimitiveProxy.h</text>
</a>
</g>
</g>
<!-- Node1&#45;&gt;Node20 -->
<g id="edge27_Node000001_Node000020" class="edge">
<title>Node1&#45;&gt;Node20</title>
<g id="a_edge27_Node000001_Node000020"><a xlink:title=" ">
<path fill="none" stroke="#63b8ff" d="M695.18,-274.98C625.6,-265.55 513.55,-250.36 440.09,-240.41"/>
<polygon fill="#63b8ff" stroke="#63b8ff" points="440.37,-236.91 429.99,-239.04 439.43,-243.85 440.37,-236.91"/>
</a>
</g>
</g>
<!-- Node21 -->
<g id="Node000021" class="node">
<title>Node21</title>
<g id="a_Node000021"><a xlink:href="PrintHelpers_8h.html" target="_top" xlink:title=" ">
<polygon fill="white" stroke="#666666" points="813.5,-239 702.5,-239 702.5,-220 813.5,-220 813.5,-239"/>
<text text-anchor="middle" x="758" y="-227" font-family="Helvetica,sans-Serif" font-size="10.00">Core/PrintHelpers.h</text>
</a>
</g>
</g>
<!-- Node1&#45;&gt;Node21 -->
<g id="edge30_Node000001_Node000021" class="edge">
<title>Node1&#45;&gt;Node21</title>
<g id="a_edge30_Node000001_Node000021"><a xlink:title=" ">
<path fill="none" stroke="#63b8ff" d="M758,-274.75C758,-267.8 758,-257.85 758,-249.13"/>
<polygon fill="#63b8ff" stroke="#63b8ff" points="761.5,-249.09 758,-239.09 754.5,-249.09 761.5,-249.09"/>
</a>
</g>
</g>
<!-- Node23 -->
<g id="Node000023" class="node">
<title>Node23</title>
<g id="a_Node000023"><a xlink:title=" ">
<polygon fill="#e0e0e0" stroke="#999999" points="942,-184 882,-184 882,-165 942,-165 942,-184"/>
<text text-anchor="middle" x="912" y="-172" font-family="Helvetica,sans-Serif" font-size="10.00">iostream</text>
</a>
</g>
</g>
<!-- Node1&#45;&gt;Node23 -->
<g id="edge37_Node000001_Node000023" class="edge">
<title>Node1&#45;&gt;Node23</title>
<g id="a_edge37_Node000001_Node000023"><a xlink:title=" ">
<path fill="none" stroke="#63b8ff" d="M771,-274.71C784.16,-265.78 805.07,-251.54 823,-239 846.58,-222.52 873.44,-203.29 891.43,-190.35"/>
<polygon fill="#63b8ff" stroke="#63b8ff" points="893.89,-192.89 899.96,-184.2 889.8,-187.21 893.89,-192.89"/>
</a>
</g>
</g>
<!-- Node25 -->
<g id="Node000025" class="node">
<title>Node25</title>
<g id="a_Node000025"><a xlink:title=" ">
<polygon fill="#e0e0e0" stroke="#999999" points="934,-239 870,-239 870,-220 934,-220 934,-239"/>
<text text-anchor="middle" x="902" y="-227" font-family="Helvetica,sans-Serif" font-size="10.00">algorithm</text>
</a>
</g>
</g>
<!-- Node1&#45;&gt;Node25 -->
<g id="edge34_Node000001_Node000025" class="edge">
<title>Node1&#45;&gt;Node25</title>
<g id="a_edge34_Node000001_Node000025"><a xlink:title=" ">
<path fill="none" stroke="#63b8ff" d="M781.14,-274.98C804.82,-266.27 841.87,-252.63 868.71,-242.75"/>
<polygon fill="#63b8ff" stroke="#63b8ff" points="870.27,-245.91 878.44,-239.17 867.85,-239.34 870.27,-245.91"/>
</a>
</g>
</g>
<!-- Node26 -->
<g id="Node000026" class="node">
<title>Node26</title>
<g id="a_Node000026"><a xlink:title=" ">
<polygon fill="#e0e0e0" stroke="#999999" points="1004,-239 952,-239 952,-220 1004,-220 1004,-239"/>
<text text-anchor="middle" x="978" y="-227" font-family="Helvetica,sans-Serif" font-size="10.00">cassert</text>
</a>
</g>
</g>
<!-- Node1&#45;&gt;Node26 -->
<g id="edge35_Node000001_Node000026" class="edge">
<title>Node1&#45;&gt;Node26</title>
<g id="a_edge35_Node000001_Node000026"><a xlink:title=" ">
<path fill="none" stroke="#63b8ff" d="M793.47,-274.99C828.68,-266.54 884.46,-253.14 941.69,-239.31"/>
<polygon fill="#63b8ff" stroke="#63b8ff" points="942.73,-242.66 951.63,-236.91 941.09,-235.86 942.73,-242.66"/>
</a>
</g>
</g>
<!-- Node27 -->
<g id="Node000027" class="node">
<title>Node27</title>
<g id="a_Node000027"><a xlink:title=" ">
<polygon fill="#e0e0e0" stroke="#999999" points="1077.5,-239 1022.5,-239 1022.5,-220 1077.5,-220 1077.5,-239"/>
<text text-anchor="middle" x="1050" y="-227" font-family="Helvetica,sans-Serif" font-size="10.00">fstream</text>
</a>
</g>
</g>
<!-- Node1&#45;&gt;Node27 -->
<g id="edge36_Node000001_Node000027" class="edge">
<title>Node1&#45;&gt;Node27</title>
<g id="a_edge36_Node000001_Node000027"><a xlink:title=" ">
<path fill="none" stroke="#63b8ff" d="M811.88,-274.95C861.38,-266.9 937,-254.13 1012.05,-239.1"/>
<polygon fill="#63b8ff" stroke="#63b8ff" points="1013.04,-242.47 1022.15,-237.06 1011.66,-235.61 1013.04,-242.47"/>
</a>
</g>
</g>
<!-- Node28 -->
<g id="Node000028" class="node">
<title>Node28</title>
<g id="a_Node000028"><a xlink:title=" ">
<polygon fill="#e0e0e0" stroke="#999999" points="1182,-239 1096,-239 1096,-220 1182,-220 1182,-239"/>
<text text-anchor="middle" x="1139" y="-227" font-family="Helvetica,sans-Serif" font-size="10.00">unordered_set</text>
</a>
</g>
</g>
<!-- Node1&#45;&gt;Node28 -->
<g id="edge38_Node000001_Node000028" class="edge">
<title>Node1&#45;&gt;Node28</title>
<g id="a_edge38_Node000001_Node000028"><a xlink:title=" ">
<path fill="none" stroke="#63b8ff" d="M825.18,-274.96C889.52,-266.66 989.59,-253.43 1085.97,-239.12"/>
<polygon fill="#63b8ff" stroke="#63b8ff" points="1086.51,-242.58 1095.88,-237.64 1085.48,-235.65 1086.51,-242.58"/>
</a>
</g>
</g>
<!-- Node2&#45;&gt;Node3 -->
<g id="edge2_Node000002_Node000003" class="edge">
<title>Node2&#45;&gt;Node3</title>
<g id="a_edge2_Node000002_Node000003"><a xlink:title=" ">
<path fill="none" stroke="#63b8ff" d="M97.1,-219.84C109.41,-199.36 142.33,-146.94 178,-110 188.73,-98.88 202.32,-88.17 213.54,-80.04"/>
<polygon fill="#63b8ff" stroke="#63b8ff" points="215.78,-82.74 221.93,-74.12 211.74,-77.03 215.78,-82.74"/>
</a>
</g>
</g>
<!-- Node7 -->
<g id="Node000007" class="node">
<title>Node7</title>
<g id="a_Node000007"><a xlink:title=" ">
<polygon fill="#e0e0e0" stroke="#999999" points="121,-19 71,-19 71,0 121,0 121,-19"/>
<text text-anchor="middle" x="96" y="-7" font-family="Helvetica,sans-Serif" font-size="10.00">cstdint</text>
</a>
</g>
</g>
<!-- Node2&#45;&gt;Node7 -->
<g id="edge18_Node000002_Node000007" class="edge">
<title>Node2&#45;&gt;Node7</title>
<g id="a_edge18_Node000002_Node000007"><a xlink:title=" ">
<path fill="none" stroke="#63b8ff" d="M92.16,-219.95C92.74,-187.95 94.82,-74.68 95.65,-29.4"/>
<polygon fill="#63b8ff" stroke="#63b8ff" points="99.16,-29.29 95.84,-19.22 92.16,-29.16 99.16,-29.29"/>
</a>
</g>
</g>
<!-- Node8 -->
<g id="Node000008" class="node">
<title>Node8</title>
<g id="a_Node000008"><a xlink:href="Mesh_8h.html" target="_top" xlink:title=" ">
<polygon fill="white" stroke="#666666" points="422,-184 312,-184 312,-165 422,-165 422,-184"/>
<text text-anchor="middle" x="367" y="-172" font-family="Helvetica,sans-Serif" font-size="10.00">Application/Mesh.h</text>
</a>
</g>
</g>
<!-- Node2&#45;&gt;Node8 -->
<g id="edge7_Node000002_Node000008" class="edge">
<title>Node2&#45;&gt;Node8</title>
<g id="a_edge7_Node000002_Node000008"><a xlink:title=" ">
<path fill="none" stroke="#63b8ff" d="M136.18,-219.98C184.15,-210.74 260.81,-195.97 312.48,-186.01"/>
<polygon fill="#63b8ff" stroke="#63b8ff" points="313.31,-189.41 322.47,-184.08 311.99,-182.54 313.31,-189.41"/>
</a>
</g>
</g>
<!-- Node17 -->
<g id="Node000017" class="node">
<title>Node17</title>
<g id="a_Node000017"><a xlink:title=" ">
<polygon fill="#e0e0e0" stroke="#999999" points="68,-184 0,-184 0,-165 68,-165 68,-184"/>
<text text-anchor="middle" x="34" y="-172" font-family="Helvetica,sans-Serif" font-size="10.00">filesystem</text>
</a>
</g>
</g>
<!-- Node2&#45;&gt;Node17 -->
<g id="edge19_Node000002_Node000017" class="edge">
<title>Node2&#45;&gt;Node17</title>
<g id="a_edge19_Node000002_Node000017"><a xlink:title=" ">
<path fill="none" stroke="#63b8ff" d="M82.68,-219.98C74.19,-212.23 61.44,-200.58 51.12,-191.14"/>
<polygon fill="#63b8ff" stroke="#63b8ff" points="53.23,-188.33 43.49,-184.17 48.51,-193.5 53.23,-188.33"/>
</a>
</g>
</g>
<!-- Node4 -->
<g id="Node000004" class="node">
<title>Node4</title>
<g id="a_Node000004"><a xlink:title=" ">
<polygon fill="#e0e0e0" stroke="#999999" points="279,-19 201,-19 201,0 279,0 279,-19"/>
<text text-anchor="middle" x="240" y="-7" font-family="Helvetica,sans-Serif" font-size="10.00">glm/glm.hpp</text>
</a>
</g>
</g>
<!-- Node3&#45;&gt;Node4 -->
<g id="edge3_Node000003_Node000004" class="edge">
<title>Node3&#45;&gt;Node4</title>
<g id="a_edge3_Node000003_Node000004"><a xlink:title=" ">
<path fill="none" stroke="#63b8ff" d="M235.83,-54.75C236.48,-47.8 237.42,-37.85 238.24,-29.13"/>
<polygon fill="#63b8ff" stroke="#63b8ff" points="241.73,-29.37 239.19,-19.09 234.77,-28.72 241.73,-29.37"/>
</a>
</g>
</g>
<!-- Node5 -->
<g id="Node000005" class="node">
<title>Node5</title>
<g id="a_Node000005"><a xlink:title=" ">
<polygon fill="#e0e0e0" stroke="#999999" points="438.5,-19 297.5,-19 297.5,0 438.5,0 438.5,-19"/>
<text text-anchor="middle" x="368" y="-7" font-family="Helvetica,sans-Serif" font-size="10.00">glm/gtx/vector_angle.hpp</text>
</a>
</g>
</g>
<!-- Node3&#45;&gt;Node5 -->
<g id="edge4_Node000003_Node000005" class="edge">
<title>Node3&#45;&gt;Node5</title>
<g id="a_edge4_Node000003_Node000005"><a xlink:title=" ">
<path fill="none" stroke="#63b8ff" d="M256.37,-54.98C278.15,-46.3 312.16,-32.75 336.92,-22.88"/>
<polygon fill="#63b8ff" stroke="#63b8ff" points="338.25,-26.12 346.24,-19.17 335.66,-19.62 338.25,-26.12"/>
</a>
</g>
</g>
<!-- Node6 -->
<g id="Node000006" class="node">
<title>Node6</title>
<g id="a_Node000006"><a xlink:title=" ">
<polygon fill="#e0e0e0" stroke="#999999" points="183,-19 139,-19 139,0 183,0 183,-19"/>
<text text-anchor="middle" x="161" y="-7" font-family="Helvetica,sans-Serif" font-size="10.00">bitset</text>
</a>
</g>
</g>
<!-- Node3&#45;&gt;Node6 -->
<g id="edge5_Node000003_Node000006" class="edge">
<title>Node3&#45;&gt;Node6</title>
<g id="a_edge5_Node000003_Node000006"><a xlink:title=" ">
<path fill="none" stroke="#63b8ff" d="M223.11,-54.98C211.85,-46.92 194.71,-34.65 181.29,-25.03"/>
<polygon fill="#63b8ff" stroke="#63b8ff" points="183.27,-22.15 173.11,-19.17 179.2,-27.84 183.27,-22.15"/>
</a>
</g>
</g>
<!-- Node3&#45;&gt;Node7 -->
<g id="edge6_Node000003_Node000007" class="edge">
<title>Node3&#45;&gt;Node7</title>
<g id="a_edge6_Node000003_Node000007"><a xlink:title=" ">
<path fill="none" stroke="#63b8ff" d="M212.67,-54.98C189.8,-46.27 154.04,-32.63 128.14,-22.75"/>
<polygon fill="#63b8ff" stroke="#63b8ff" points="129.33,-19.46 118.74,-19.17 126.84,-26 129.33,-19.46"/>
</a>
</g>
</g>
<!-- Node8&#45;&gt;Node3 -->
<g id="edge8_Node000008_Node000003" class="edge">
<title>Node8&#45;&gt;Node3</title>
<g id="a_edge8_Node000008_Node000003"><a xlink:title=" ">
<path fill="none" stroke="#63b8ff" d="M363.02,-164.64C356.66,-151.29 343.04,-125.91 325,-110 309.12,-95.99 288.04,-85.26 270.27,-77.84"/>
<polygon fill="#63b8ff" stroke="#63b8ff" points="271.38,-74.52 260.8,-74.07 268.79,-81.02 271.38,-74.52"/>
</a>
</g>
</g>
<!-- Node8&#45;&gt;Node9 -->
<g id="edge9_Node000008_Node000009" class="edge">
<title>Node8&#45;&gt;Node9</title>
<g id="a_edge9_Node000008_Node000009"><a xlink:title=" ">
<path fill="none" stroke="#63b8ff" d="M422.28,-165.85C489.75,-156.51 603.99,-140.71 678.19,-130.44"/>
<polygon fill="#63b8ff" stroke="#63b8ff" points="678.96,-133.86 688.39,-129.03 678.01,-126.93 678.96,-133.86"/>
</a>
</g>
</g>
<!-- Node13 -->
<g id="Node000013" class="node">
<title>Node13</title>
<g id="a_Node000013"><a xlink:href="Primitive_8h.html" target="_top" xlink:title=" ">
<polygon fill="white" stroke="#666666" points="500,-129 372,-129 372,-110 500,-110 500,-129"/>
<text text-anchor="middle" x="436" y="-117" font-family="Helvetica,sans-Serif" font-size="10.00">Application/Primitive.h</text>
</a>
</g>
</g>
<!-- Node8&#45;&gt;Node13 -->
<g id="edge13_Node000008_Node000013" class="edge">
<title>Node8&#45;&gt;Node13</title>
<g id="a_edge13_Node000008_Node000013"><a xlink:title=" ">
<path fill="none" stroke="#63b8ff" d="M378.09,-164.98C388.49,-157 404.26,-144.88 416.72,-135.31"/>
<polygon fill="#63b8ff" stroke="#63b8ff" points="418.91,-138.04 424.71,-129.17 414.65,-132.49 418.91,-138.04"/>
</a>
</g>
</g>
<!-- Node15 -->
<g id="Node000015" class="node">
<title>Node15</title>
<g id="a_Node000015"><a xlink:title=" ">
<polygon fill="#e0e0e0" stroke="#999999" points="316,-129 258,-129 258,-110 316,-110 316,-129"/>
<text text-anchor="middle" x="287" y="-117" font-family="Helvetica,sans-Serif" font-size="10.00">memory</text>
</a>
</g>
</g>
<!-- Node8&#45;&gt;Node15 -->
<g id="edge16_Node000008_Node000015" class="edge">
<title>Node8&#45;&gt;Node15</title>
<g id="a_edge16_Node000008_Node000015"><a xlink:title=" ">
<path fill="none" stroke="#63b8ff" d="M354.15,-164.98C341.86,-156.84 323.09,-144.41 308.52,-134.76"/>
<polygon fill="#63b8ff" stroke="#63b8ff" points="310.36,-131.78 300.09,-129.17 306.49,-137.61 310.36,-131.78"/>
</a>
</g>
</g>
<!-- Node16 -->
<g id="Node000016" class="node">
<title>Node16</title>
<g id="a_Node000016"><a xlink:title=" ">
<polygon fill="#e0e0e0" stroke="#999999" points="565.5,-129 518.5,-129 518.5,-110 565.5,-110 565.5,-129"/>
<text text-anchor="middle" x="542" y="-117" font-family="Helvetica,sans-Serif" font-size="10.00">vector</text>
</a>
</g>
</g>
<!-- Node8&#45;&gt;Node16 -->
<g id="edge17_Node000008_Node000016" class="edge">
<title>Node8&#45;&gt;Node16</title>
<g id="a_edge17_Node000008_Node000016"><a xlink:title=" ">
<path fill="none" stroke="#63b8ff" d="M395.12,-164.98C426.11,-155.6 475.93,-140.51 508.82,-130.55"/>
<polygon fill="#63b8ff" stroke="#63b8ff" points="509.89,-133.88 518.44,-127.63 507.86,-127.18 509.89,-133.88"/>
</a>
</g>
</g>
<!-- Node10 -->
<g id="Node000010" class="node">
<title>Node10</title>
<g id="a_Node000010"><a xlink:title=" ">
<polygon fill="#e0e0e0" stroke="#999999" points="767.5,-74 732.5,-74 732.5,-55 767.5,-55 767.5,-74"/>
<text text-anchor="middle" x="750" y="-62" font-family="Helvetica,sans-Serif" font-size="10.00">any</text>
</a>
</g>
</g>
<!-- Node9&#45;&gt;Node10 -->
<g id="edge10_Node000009_Node000010" class="edge">
<title>Node9&#45;&gt;Node10</title>
<g id="a_edge10_Node000009_Node000010"><a xlink:title=" ">
<path fill="none" stroke="#63b8ff" d="M750,-109.75C750,-102.8 750,-92.85 750,-84.13"/>
<polygon fill="#63b8ff" stroke="#63b8ff" points="753.5,-84.09 750,-74.09 746.5,-84.09 753.5,-84.09"/>
</a>
</g>
</g>
<!-- Node11 -->
<g id="Node000011" class="node">
<title>Node11</title>
<g id="a_Node000011"><a xlink:title=" ">
<polygon fill="#e0e0e0" stroke="#999999" points="850.5,-74 785.5,-74 785.5,-55 850.5,-55 850.5,-74"/>
<text text-anchor="middle" x="818" y="-62" font-family="Helvetica,sans-Serif" font-size="10.00">typeindex</text>
</a>
</g>
</g>
<!-- Node9&#45;&gt;Node11 -->
<g id="edge11_Node000009_Node000011" class="edge">
<title>Node9&#45;&gt;Node11</title>
<g id="a_edge11_Node000009_Node000011"><a xlink:title=" ">
<path fill="none" stroke="#63b8ff" d="M760.93,-109.98C771.08,-102.07 786.42,-90.11 798.65,-80.58"/>
<polygon fill="#63b8ff" stroke="#63b8ff" points="801.14,-83.08 806.88,-74.17 796.84,-77.56 801.14,-83.08"/>
</a>
</g>
</g>
<!-- Node12 -->
<g id="Node000012" class="node">
<title>Node12</title>
<g id="a_Node000012"><a xlink:title=" ">
<polygon fill="#e0e0e0" stroke="#999999" points="714.5,-74 621.5,-74 621.5,-55 714.5,-55 714.5,-74"/>
<text text-anchor="middle" x="668" y="-62" font-family="Helvetica,sans-Serif" font-size="10.00">unordered_map</text>
</a>
</g>
</g>
<!-- Node9&#45;&gt;Node12 -->
<g id="edge12_Node000009_Node000012" class="edge">
<title>Node9&#45;&gt;Node12</title>
<g id="a_edge12_Node000009_Node000012"><a xlink:title=" ">
<path fill="none" stroke="#63b8ff" d="M736.83,-109.98C724.23,-101.84 705,-89.41 690.06,-79.76"/>
<polygon fill="#63b8ff" stroke="#63b8ff" points="691.71,-76.66 681.41,-74.17 687.91,-82.54 691.71,-76.66"/>
</a>
</g>
</g>
<!-- Node13&#45;&gt;Node3 -->
<g id="edge14_Node000013_Node000003" class="edge">
<title>Node13&#45;&gt;Node3</title>
<g id="a_edge14_Node000013_Node000003"><a xlink:title=" ">
<path fill="none" stroke="#63b8ff" d="M403.71,-109.98C369.38,-100.93 314.94,-86.58 277.23,-76.64"/>
<polygon fill="#63b8ff" stroke="#63b8ff" points="278.11,-73.25 267.55,-74.08 276.32,-80.02 278.11,-73.25"/>
</a>
</g>
</g>
<!-- Node14 -->
<g id="Node000014" class="node">
<title>Node14</title>
<g id="a_Node000014"><a xlink:title=" ">
<polygon fill="#e0e0e0" stroke="#999999" points="530,-74 488,-74 488,-55 530,-55 530,-74"/>
<text text-anchor="middle" x="509" y="-62" font-family="Helvetica,sans-Serif" font-size="10.00">array</text>
</a>
</g>
</g>
<!-- Node13&#45;&gt;Node14 -->
<g id="edge15_Node000013_Node000014" class="edge">
<title>Node13&#45;&gt;Node14</title>
<g id="a_edge15_Node000013_Node000014"><a xlink:title=" ">
<path fill="none" stroke="#63b8ff" d="M447.73,-109.98C458.73,-102 475.42,-89.88 488.6,-80.31"/>
<polygon fill="#63b8ff" stroke="#63b8ff" points="491.02,-82.88 497.06,-74.17 486.91,-77.21 491.02,-82.88"/>
</a>
</g>
</g>
<!-- Node18&#45;&gt;Node3 -->
<g id="edge23_Node000018_Node000003" class="edge">
<title>Node18&#45;&gt;Node3</title>
<g id="a_edge23_Node000018_Node000003"><a xlink:title=" ">
<path fill="none" stroke="#63b8ff" d="M572.35,-164.89C578.46,-151.42 587.44,-125.32 574,-110 556.89,-90.49 404.96,-76.87 310.39,-70.2"/>
<polygon fill="#63b8ff" stroke="#63b8ff" points="310.51,-66.7 300.29,-69.49 310.03,-73.68 310.51,-66.7"/>
</a>
</g>
</g>
<!-- Node18&#45;&gt;Node14 -->
<g id="edge24_Node000018_Node000014" class="edge">
<title>Node18&#45;&gt;Node14</title>
<g id="a_edge24_Node000018_Node000014"><a xlink:title=" ">
<path fill="none" stroke="#63b8ff" d="M580.39,-164.83C596.34,-152.57 620.6,-129.47 608,-110 593.18,-87.09 563.44,-75.86 540.41,-70.42"/>
<polygon fill="#63b8ff" stroke="#63b8ff" points="540.89,-66.95 530.38,-68.31 539.45,-73.8 540.89,-66.95"/>
</a>
</g>
</g>
<!-- Node18&#45;&gt;Node16 -->
<g id="edge26_Node000018_Node000016" class="edge">
<title>Node18&#45;&gt;Node16</title>
<g id="a_edge26_Node000018_Node000016"><a xlink:title=" ">
<path fill="none" stroke="#63b8ff" d="M563.71,-164.75C560.19,-157.57 555.09,-147.18 550.72,-138.27"/>
<polygon fill="#63b8ff" stroke="#63b8ff" points="553.76,-136.53 546.21,-129.09 547.48,-139.61 553.76,-136.53"/>
</a>
</g>
</g>
<!-- Node19 -->
<g id="Node000019" class="node">
<title>Node19</title>
<g id="a_Node000019"><a xlink:title=" ">
<polygon fill="#e0e0e0" stroke="#999999" points="902,-129 858,-129 858,-110 902,-110 902,-129"/>
<text text-anchor="middle" x="880" y="-117" font-family="Helvetica,sans-Serif" font-size="10.00">string</text>
</a>
</g>
</g>
<!-- Node18&#45;&gt;Node19 -->
<g id="edge25_Node000018_Node000019" class="edge">
<title>Node18&#45;&gt;Node19</title>
<g id="a_edge25_Node000018_Node000019"><a xlink:title=" ">
<path fill="none" stroke="#63b8ff" d="M635.1,-165C689.92,-157.57 769.59,-145.67 847.71,-129.08"/>
<polygon fill="#63b8ff" stroke="#63b8ff" points="848.68,-132.45 857.72,-126.93 847.21,-125.61 848.68,-132.45"/>
</a>
</g>
</g>
<!-- Node20&#45;&gt;Node3 -->
<g id="edge28_Node000020_Node000003" class="edge">
<title>Node20&#45;&gt;Node3</title>
<g id="a_edge28_Node000020_Node000003"><a xlink:title=" ">
<path fill="none" stroke="#63b8ff" d="M350.26,-219.84C323.72,-205.14 272.62,-172.59 249,-129 241.51,-115.18 238.03,-97.61 236.41,-84.46"/>
<polygon fill="#63b8ff" stroke="#63b8ff" points="239.86,-83.86 235.41,-74.24 232.9,-84.54 239.86,-83.86"/>
</a>
</g>
</g>
<!-- Node20&#45;&gt;Node8 -->
<g id="edge29_Node000020_Node000008" class="edge">
<title>Node20&#45;&gt;Node8</title>
<g id="a_edge29_Node000020_Node000008"><a xlink:title=" ">
<path fill="none" stroke="#63b8ff" d="M367,-219.75C367,-212.8 367,-202.85 367,-194.13"/>
<polygon fill="#63b8ff" stroke="#63b8ff" points="370.5,-194.09 367,-184.09 363.5,-194.09 370.5,-194.09"/>
</a>
</g>
</g>
<!-- Node22 -->
<g id="Node000022" class="node">
<title>Node22</title>
<g id="a_Node000022"><a xlink:title=" ">
<polygon fill="#e0e0e0" stroke="#999999" points="864,-184 814,-184 814,-165 864,-165 864,-184"/>
<text text-anchor="middle" x="839" y="-172" font-family="Helvetica,sans-Serif" font-size="10.00">format</text>
</a>
</g>
</g>
<!-- Node21&#45;&gt;Node22 -->
<g id="edge31_Node000021_Node000022" class="edge">
<title>Node21&#45;&gt;Node22</title>
<g id="a_edge31_Node000021_Node000022"><a xlink:title=" ">
<path fill="none" stroke="#63b8ff" d="M771.01,-219.98C783.46,-211.84 802.46,-199.41 817.21,-189.76"/>
<polygon fill="#63b8ff" stroke="#63b8ff" points="819.3,-192.57 825.75,-184.17 815.46,-186.72 819.3,-192.57"/>
</a>
</g>
</g>
<!-- Node21&#45;&gt;Node23 -->
<g id="edge32_Node000021_Node000023" class="edge">
<title>Node21&#45;&gt;Node23</title>
<g id="a_edge32_Node000021_Node000023"><a xlink:title=" ">
<path fill="none" stroke="#63b8ff" d="M782.74,-219.98C808.37,-211.16 848.63,-197.31 877.41,-187.41"/>
<polygon fill="#63b8ff" stroke="#63b8ff" points="878.75,-190.65 887.06,-184.08 876.47,-184.03 878.75,-190.65"/>
</a>
</g>
</g>
<!-- Node24 -->
<g id="Node000024" class="node">
<title>Node24</title>
<g id="a_Node000024"><a xlink:title=" ">
<polygon fill="#e0e0e0" stroke="#999999" points="795.5,-184 702.5,-184 702.5,-165 795.5,-165 795.5,-184"/>
<text text-anchor="middle" x="749" y="-172" font-family="Helvetica,sans-Serif" font-size="10.00">source_location</text>
</a>
</g>
</g>
<!-- Node21&#45;&gt;Node24 -->
<g id="edge33_Node000021_Node000024" class="edge">
<title>Node21&#45;&gt;Node24</title>
<g id="a_edge33_Node000021_Node000024"><a xlink:title=" ">
<path fill="none" stroke="#63b8ff" d="M756.51,-219.75C755.33,-212.8 753.64,-202.85 752.16,-194.13"/>
<polygon fill="#63b8ff" stroke="#63b8ff" points="755.58,-193.36 750.46,-184.09 748.68,-194.53 755.58,-193.36"/>
</a>
</g>
</g>
</g>
</svg>
