<?xml version="1.0" encoding="UTF-8" standalone="no"?>
<!DOCTYPE svg PUBLIC "-//W3C//DTD SVG 1.1//EN"
 "http://www.w3.org/Graphics/SVG/1.1/DTD/svg11.dtd">
<!-- Generated by graphviz version 2.43.0 (0)
 -->
<!-- Title: App/Test/Source/MeshExporter_utest.cpp Pages: 1 -->
<svg width="816pt" height="368pt"
 viewBox="0.00 0.00 815.50 368.00" xmlns="http://www.w3.org/2000/svg" xmlns:xlink="http://www.w3.org/1999/xlink">
<g id="graph0" class="graph" transform="scale(1 1) rotate(0) translate(4 364)">
<title>App/Test/Source/MeshExporter_utest.cpp</title>
<!-- Node1 -->
<g id="Node000001" class="node">
<title>Node1</title>
<g id="a_Node000001"><a xlink:title=" ">
<polygon fill="#999999" stroke="#666666" points="501,-360 337,-360 337,-330 501,-330 501,-360"/>
<text text-anchor="start" x="345" y="-348" font-family="Helvetica,sans-Serif" font-size="10.00">App/Test/Source/MeshExporter</text>
<text text-anchor="middle" x="419" y="-337" font-family="Helvetica,sans-Serif" font-size="10.00">_utest.cpp</text>
</a>
</g>
</g>
<!-- Node2 -->
<g id="Node000002" class="node">
<title>Node2</title>
<g id="a_Node000002"><a xlink:href="MeshExporter_8h.html" target="_top" xlink:title=" ">
<polygon fill="white" stroke="#666666" points="150,-239 0,-239 0,-220 150,-220 150,-239"/>
<text text-anchor="middle" x="75" y="-227" font-family="Helvetica,sans-Serif" font-size="10.00">Application/MeshExporter.h</text>
</a>
</g>
</g>
<!-- Node1&#45;&gt;Node2 -->
<g id="edge1_Node000001_Node000002" class="edge">
<title>Node1&#45;&gt;Node2</title>
<g id="a_edge1_Node000001_Node000002"><a xlink:title=" ">
<path fill="none" stroke="#63b8ff" d="M336.84,-336.86C285.53,-330.25 219,-317.69 164,-294 136.39,-282.11 108.87,-260.62 91.91,-245.97"/>
<polygon fill="#63b8ff" stroke="#63b8ff" points="93.86,-243.02 84.05,-239.01 89.22,-248.26 93.86,-243.02"/>
</a>
</g>
</g>
<!-- Node15 -->
<g id="Node000015" class="node">
<title>Node15</title>
<g id="a_Node000015"><a xlink:title=" ">
<polygon fill="#e0e0e0" stroke="#999999" points="190,-184 122,-184 122,-165 190,-165 190,-184"/>
<text text-anchor="middle" x="156" y="-172" font-family="Helvetica,sans-Serif" font-size="10.00">filesystem</text>
</a>
</g>
</g>
<!-- Node1&#45;&gt;Node15 -->
<g id="edge29_Node000001_Node000015" class="edge">
<title>Node1&#45;&gt;Node15</title>
<g id="a_edge29_Node000001_Node000015"><a xlink:title=" ">
<path fill="none" stroke="#63b8ff" d="M353.46,-329.92C323.75,-321.92 288.9,-310.21 260,-294 227.58,-275.82 221.32,-267.11 197,-239 184.69,-224.77 173.3,-206.55 165.67,-193.28"/>
<polygon fill="#63b8ff" stroke="#63b8ff" points="168.55,-191.26 160.61,-184.24 162.44,-194.68 168.55,-191.26"/>
</a>
</g>
</g>
<!-- Node16 -->
<g id="Node000016" class="node">
<title>Node16</title>
<g id="a_Node000016"><a xlink:href="PrimitiveProxy_8h.html" target="_top" xlink:title=" ">
<polygon fill="white" stroke="#666666" points="360,-239 206,-239 206,-220 360,-220 360,-239"/>
<text text-anchor="middle" x="283" y="-227" font-family="Helvetica,sans-Serif" font-size="10.00">Application/PrimitiveProxy.h</text>
</a>
</g>
</g>
<!-- Node1&#45;&gt;Node16 -->
<g id="edge18_Node000001_Node000016" class="edge">
<title>Node1&#45;&gt;Node16</title>
<g id="a_edge18_Node000001_Node000016"><a xlink:title=" ">
<path fill="none" stroke="#63b8ff" d="M336.74,-335.76C310.48,-328.79 284.09,-316.27 268,-294 258.29,-280.55 264.6,-261.71 271.77,-248.04"/>
<polygon fill="#63b8ff" stroke="#63b8ff" points="274.94,-249.57 276.94,-239.16 268.89,-246.05 274.94,-249.57"/>
</a>
</g>
</g>
<!-- Node17 -->
<g id="Node000017" class="node">
<title>Node17</title>
<g id="a_Node000017"><a xlink:href="TestHelpers_8h.html" target="_top" xlink:title=" ">
<polygon fill="white" stroke="#666666" points="417,-294 277,-294 277,-275 417,-275 417,-294"/>
<text text-anchor="middle" x="347" y="-282" font-family="Helvetica,sans-Serif" font-size="10.00">Application/TestHelpers.h</text>
</a>
</g>
</g>
<!-- Node1&#45;&gt;Node17 -->
<g id="edge21_Node000001_Node000017" class="edge">
<title>Node1&#45;&gt;Node17</title>
<g id="a_edge21_Node000001_Node000017"><a xlink:title=" ">
<path fill="none" stroke="#63b8ff" d="M401.57,-329.84C390.69,-321 376.7,-309.63 365.61,-300.62"/>
<polygon fill="#63b8ff" stroke="#63b8ff" points="367.76,-297.86 357.79,-294.27 363.34,-303.29 367.76,-297.86"/>
</a>
</g>
</g>
<!-- Node18 -->
<g id="Node000018" class="node">
<title>Node18</title>
<g id="a_Node000018"><a xlink:href="PrintHelpers_8h.html" target="_top" xlink:title=" ">
<polygon fill="white" stroke="#666666" points="546.5,-294 435.5,-294 435.5,-275 546.5,-275 546.5,-294"/>
<text text-anchor="middle" x="491" y="-282" font-family="Helvetica,sans-Serif" font-size="10.00">Core/PrintHelpers.h</text>
</a>
</g>
</g>
<!-- Node1&#45;&gt;Node18 -->
<g id="edge24_Node000001_Node000018" class="edge">
<title>Node1&#45;&gt;Node18</title>
<g id="a_edge24_Node000001_Node000018"><a xlink:title=" ">
<path fill="none" stroke="#63b8ff" d="M436.43,-329.84C447.31,-321 461.3,-309.63 472.39,-300.62"/>
<polygon fill="#63b8ff" stroke="#63b8ff" points="474.66,-303.29 480.21,-294.27 470.24,-297.86 474.66,-303.29"/>
</a>
</g>
</g>
<!-- Node22 -->
<g id="Node000022" class="node">
<title>Node22</title>
<g id="a_Node000022"><a xlink:title=" ">
<polygon fill="#e0e0e0" stroke="#999999" points="643,-294 565,-294 565,-275 643,-275 643,-294"/>
<text text-anchor="middle" x="604" y="-282" font-family="Helvetica,sans-Serif" font-size="10.00">gtest/gtest.h</text>
</a>
</g>
</g>
<!-- Node1&#45;&gt;Node22 -->
<g id="edge28_Node000001_Node000022" class="edge">
<title>Node1&#45;&gt;Node22</title>
<g id="a_edge28_Node000001_Node000022"><a xlink:title=" ">
<path fill="none" stroke="#63b8ff" d="M463.31,-329.99C495.1,-319.94 537.42,-306.55 567.32,-297.1"/>
<polygon fill="#63b8ff" stroke="#63b8ff" points="568.47,-300.41 576.95,-294.05 566.36,-293.73 568.47,-300.41"/>
</a>
</g>
</g>
<!-- Node23 -->
<g id="Node000023" class="node">
<title>Node23</title>
<g id="a_Node000023"><a xlink:title=" ">
<polygon fill="#e0e0e0" stroke="#999999" points="716.5,-294 661.5,-294 661.5,-275 716.5,-275 716.5,-294"/>
<text text-anchor="middle" x="689" y="-282" font-family="Helvetica,sans-Serif" font-size="10.00">fstream</text>
</a>
</g>
</g>
<!-- Node1&#45;&gt;Node23 -->
<g id="edge30_Node000001_Node000023" class="edge">
<title>Node1&#45;&gt;Node23</title>
<g id="a_edge30_Node000001_Node000023"><a xlink:title=" ">
<path fill="none" stroke="#63b8ff" d="M485.59,-329.98C529.86,-320.59 589.53,-307.82 651.21,-294.15"/>
<polygon fill="#63b8ff" stroke="#63b8ff" points="652.13,-297.53 661.13,-291.95 650.61,-290.7 652.13,-297.53"/>
</a>
</g>
</g>
<!-- Node24 -->
<g id="Node000024" class="node">
<title>Node24</title>
<g id="a_Node000024"><a xlink:title=" ">
<polygon fill="#e0e0e0" stroke="#999999" points="807.5,-294 734.5,-294 734.5,-275 807.5,-275 807.5,-294"/>
<text text-anchor="middle" x="771" y="-282" font-family="Helvetica,sans-Serif" font-size="10.00">string_view</text>
</a>
</g>
</g>
<!-- Node1&#45;&gt;Node24 -->
<g id="edge31_Node000001_Node000024" class="edge">
<title>Node1&#45;&gt;Node24</title>
<g id="a_edge31_Node000001_Node000024"><a xlink:title=" ">
<path fill="none" stroke="#63b8ff" d="M501.19,-331.19C560.65,-321.79 643.2,-308.46 724.3,-294.27"/>
<polygon fill="#63b8ff" stroke="#63b8ff" points="724.93,-297.71 734.18,-292.53 723.72,-290.82 724.93,-297.71"/>
</a>
</g>
</g>
<!-- Node3 -->
<g id="Node000003" class="node">
<title>Node3</title>
<g id="a_Node000003"><a xlink:href="BaseType_8h.html" target="_top" xlink:title=" ">
<polygon fill="white" stroke="#666666" points="283,-74 153,-74 153,-55 283,-55 283,-74"/>
<text text-anchor="middle" x="218" y="-62" font-family="Helvetica,sans-Serif" font-size="10.00">Application/BaseType.h</text>
</a>
</g>
</g>
<!-- Node2&#45;&gt;Node3 -->
<g id="edge2_Node000002_Node000003" class="edge">
<title>Node2&#45;&gt;Node3</title>
<g id="a_edge2_Node000002_Node000003"><a xlink:title=" ">
<path fill="none" stroke="#63b8ff" d="M79.23,-219.8C85.62,-207.11 98.53,-183.04 113,-165 139.49,-131.96 176.64,-99.28 198.91,-80.82"/>
<polygon fill="#63b8ff" stroke="#63b8ff" points="201.41,-83.29 206.93,-74.25 196.98,-77.87 201.41,-83.29"/>
</a>
</g>
</g>
<!-- Node5 -->
<g id="Node000005" class="node">
<title>Node5</title>
<g id="a_Node000005"><a xlink:title=" ">
<polygon fill="#e0e0e0" stroke="#999999" points="121,-19 71,-19 71,0 121,0 121,-19"/>
<text text-anchor="middle" x="96" y="-7" font-family="Helvetica,sans-Serif" font-size="10.00">cstdint</text>
</a>
</g>
</g>
<!-- Node2&#45;&gt;Node5 -->
<g id="edge16_Node000002_Node000005" class="edge">
<title>Node2&#45;&gt;Node5</title>
<g id="a_edge16_Node000002_Node000005"><a xlink:title=" ">
<path fill="none" stroke="#63b8ff" d="M75.82,-219.95C78.91,-187.95 89.82,-74.68 94.18,-29.4"/>
<polygon fill="#63b8ff" stroke="#63b8ff" points="97.68,-29.51 95.16,-19.22 90.72,-28.84 97.68,-29.51"/>
</a>
</g>
</g>
<!-- Node6 -->
<g id="Node000006" class="node">
<title>Node6</title>
<g id="a_Node000006"><a xlink:href="Mesh_8h.html" target="_top" xlink:title=" ">
<polygon fill="white" stroke="#666666" points="423,-184 313,-184 313,-165 423,-165 423,-184"/>
<text text-anchor="middle" x="368" y="-172" font-family="Helvetica,sans-Serif" font-size="10.00">Application/Mesh.h</text>
</a>
</g>
</g>
<!-- Node2&#45;&gt;Node6 -->
<g id="edge5_Node000002_Node000006" class="edge">
<title>Node2&#45;&gt;Node6</title>
<g id="a_edge5_Node000002_Node000006"><a xlink:title=" ">
<path fill="none" stroke="#63b8ff" d="M122.08,-219.98C173.4,-210.7 255.54,-195.84 310.6,-185.88"/>
<polygon fill="#63b8ff" stroke="#63b8ff" points="311.34,-189.31 320.56,-184.08 310.09,-182.42 311.34,-189.31"/>
</a>
</g>
</g>
<!-- Node2&#45;&gt;Node15 -->
<g id="edge17_Node000002_Node000015" class="edge">
<title>Node2&#45;&gt;Node15</title>
<g id="a_edge17_Node000002_Node000015"><a xlink:title=" ">
<path fill="none" stroke="#63b8ff" d="M88.01,-219.98C100.46,-211.84 119.46,-199.41 134.21,-189.76"/>
<polygon fill="#63b8ff" stroke="#63b8ff" points="136.3,-192.57 142.75,-184.17 132.46,-186.72 136.3,-192.57"/>
</a>
</g>
</g>
<!-- Node4 -->
<g id="Node000004" class="node">
<title>Node4</title>
<g id="a_Node000004"><a xlink:title=" ">
<polygon fill="#e0e0e0" stroke="#999999" points="257,-19 179,-19 179,0 257,0 257,-19"/>
<text text-anchor="middle" x="218" y="-7" font-family="Helvetica,sans-Serif" font-size="10.00">glm/glm.hpp</text>
</a>
</g>
</g>
<!-- Node3&#45;&gt;Node4 -->
<g id="edge3_Node000003_Node000004" class="edge">
<title>Node3&#45;&gt;Node4</title>
<g id="a_edge3_Node000003_Node000004"><a xlink:title=" ">
<path fill="none" stroke="#63b8ff" d="M218,-54.75C218,-47.8 218,-37.85 218,-29.13"/>
<polygon fill="#63b8ff" stroke="#63b8ff" points="221.5,-29.09 218,-19.09 214.5,-29.09 221.5,-29.09"/>
</a>
</g>
</g>
<!-- Node3&#45;&gt;Node5 -->
<g id="edge4_Node000003_Node000005" class="edge">
<title>Node3&#45;&gt;Node5</title>
<g id="a_edge4_Node000003_Node000005"><a xlink:title=" ">
<path fill="none" stroke="#63b8ff" d="M198.4,-54.98C178.68,-46.42 148.05,-33.11 125.42,-23.28"/>
<polygon fill="#63b8ff" stroke="#63b8ff" points="126.52,-19.94 115.96,-19.17 123.74,-26.37 126.52,-19.94"/>
</a>
</g>
</g>
<!-- Node6&#45;&gt;Node3 -->
<g id="edge6_Node000006_Node000003" class="edge">
<title>Node6&#45;&gt;Node3</title>
<g id="a_edge6_Node000006_Node000003"><a xlink:title=" ">
<path fill="none" stroke="#63b8ff" d="M343.63,-164.9C323.97,-157.27 296.2,-144.88 275,-129 257.3,-115.74 240.86,-96.35 230.23,-82.49"/>
<polygon fill="#63b8ff" stroke="#63b8ff" points="232.91,-80.23 224.13,-74.3 227.29,-84.41 232.91,-80.23"/>
</a>
</g>
</g>
<!-- Node7 -->
<g id="Node000007" class="node">
<title>Node7</title>
<g id="a_Node000007"><a xlink:href="ExtraDataContainer_8h.html" target="_top" xlink:title=" ">
<polygon fill="white" stroke="#666666" points="750.5,-129 571.5,-129 571.5,-110 750.5,-110 750.5,-129"/>
<text text-anchor="middle" x="661" y="-117" font-family="Helvetica,sans-Serif" font-size="10.00">Application/ExtraDataContainer.h</text>
</a>
</g>
</g>
<!-- Node6&#45;&gt;Node7 -->
<g id="edge7_Node000006_Node000007" class="edge">
<title>Node6&#45;&gt;Node7</title>
<g id="a_edge7_Node000006_Node000007"><a xlink:title=" ">
<path fill="none" stroke="#63b8ff" d="M415.08,-164.98C466.4,-155.7 548.54,-140.84 603.6,-130.88"/>
<polygon fill="#63b8ff" stroke="#63b8ff" points="604.34,-134.31 613.56,-129.08 603.09,-127.42 604.34,-134.31"/>
</a>
</g>
</g>
<!-- Node11 -->
<g id="Node000011" class="node">
<title>Node11</title>
<g id="a_Node000011"><a xlink:href="Primitive_8h.html" target="_top" xlink:title=" ">
<polygon fill="white" stroke="#666666" points="412,-129 284,-129 284,-110 412,-110 412,-129"/>
<text text-anchor="middle" x="348" y="-117" font-family="Helvetica,sans-Serif" font-size="10.00">Application/Primitive.h</text>
</a>
</g>
</g>
<!-- Node6&#45;&gt;Node11 -->
<g id="edge11_Node000006_Node000011" class="edge">
<title>Node6&#45;&gt;Node11</title>
<g id="a_edge11_Node000006_Node000011"><a xlink:title=" ">
<path fill="none" stroke="#63b8ff" d="M364.7,-164.75C362.02,-157.65 358.15,-147.4 354.81,-138.56"/>
<polygon fill="#63b8ff" stroke="#63b8ff" points="358.05,-137.21 351.24,-129.09 351.5,-139.68 358.05,-137.21"/>
</a>
</g>
</g>
<!-- Node13 -->
<g id="Node000013" class="node">
<title>Node13</title>
<g id="a_Node000013"><a xlink:title=" ">
<polygon fill="#e0e0e0" stroke="#999999" points="488,-129 430,-129 430,-110 488,-110 488,-129"/>
<text text-anchor="middle" x="459" y="-117" font-family="Helvetica,sans-Serif" font-size="10.00">memory</text>
</a>
</g>
</g>
<!-- Node6&#45;&gt;Node13 -->
<g id="edge14_Node000006_Node000013" class="edge">
<title>Node6&#45;&gt;Node13</title>
<g id="a_edge14_Node000006_Node000013"><a xlink:title=" ">
<path fill="none" stroke="#63b8ff" d="M382.62,-164.98C396.86,-156.69 418.75,-143.94 435.45,-134.22"/>
<polygon fill="#63b8ff" stroke="#63b8ff" points="437.23,-137.23 444.11,-129.17 433.71,-131.18 437.23,-137.23"/>
</a>
</g>
</g>
<!-- Node14 -->
<g id="Node000014" class="node">
<title>Node14</title>
<g id="a_Node000014"><a xlink:title=" ">
<polygon fill="#e0e0e0" stroke="#999999" points="553.5,-129 506.5,-129 506.5,-110 553.5,-110 553.5,-129"/>
<text text-anchor="middle" x="530" y="-117" font-family="Helvetica,sans-Serif" font-size="10.00">vector</text>
</a>
</g>
</g>
<!-- Node6&#45;&gt;Node14 -->
<g id="edge15_Node000006_Node000014" class="edge">
<title>Node6&#45;&gt;Node14</title>
<g id="a_edge15_Node000006_Node000014"><a xlink:title=" ">
<path fill="none" stroke="#63b8ff" d="M394.03,-164.98C421.91,-155.86 466.25,-141.36 496.67,-131.4"/>
<polygon fill="#63b8ff" stroke="#63b8ff" points="497.99,-134.65 506.41,-128.22 495.81,-128 497.99,-134.65"/>
</a>
</g>
</g>
<!-- Node8 -->
<g id="Node000008" class="node">
<title>Node8</title>
<g id="a_Node000008"><a xlink:title=" ">
<polygon fill="#e0e0e0" stroke="#999999" points="760.5,-74 725.5,-74 725.5,-55 760.5,-55 760.5,-74"/>
<text text-anchor="middle" x="743" y="-62" font-family="Helvetica,sans-Serif" font-size="10.00">any</text>
</a>
</g>
</g>
<!-- Node7&#45;&gt;Node8 -->
<g id="edge8_Node000007_Node000008" class="edge">
<title>Node7&#45;&gt;Node8</title>
<g id="a_edge8_Node000007_Node000008"><a xlink:title=" ">
<path fill="none" stroke="#63b8ff" d="M674.17,-109.98C686.77,-101.84 706,-89.41 720.94,-79.76"/>
<polygon fill="#63b8ff" stroke="#63b8ff" points="723.09,-82.54 729.59,-74.17 719.29,-76.66 723.09,-82.54"/>
</a>
</g>
</g>
<!-- Node9 -->
<g id="Node000009" class="node">
<title>Node9</title>
<g id="a_Node000009"><a xlink:title=" ">
<polygon fill="#e0e0e0" stroke="#999999" points="596.5,-74 531.5,-74 531.5,-55 596.5,-55 596.5,-74"/>
<text text-anchor="middle" x="564" y="-62" font-family="Helvetica,sans-Serif" font-size="10.00">typeindex</text>
</a>
</g>
</g>
<!-- Node7&#45;&gt;Node9 -->
<g id="edge9_Node000007_Node000009" class="edge">
<title>Node7&#45;&gt;Node9</title>
<g id="a_edge9_Node000007_Node000009"><a xlink:title=" ">
<path fill="none" stroke="#63b8ff" d="M645.42,-109.98C630.23,-101.69 606.9,-88.94 589.1,-79.22"/>
<polygon fill="#63b8ff" stroke="#63b8ff" points="590.32,-75.89 579.87,-74.17 586.97,-82.04 590.32,-75.89"/>
</a>
</g>
</g>
<!-- Node10 -->
<g id="Node000010" class="node">
<title>Node10</title>
<g id="a_Node000010"><a xlink:title=" ">
<polygon fill="#e0e0e0" stroke="#999999" points="707.5,-74 614.5,-74 614.5,-55 707.5,-55 707.5,-74"/>
<text text-anchor="middle" x="661" y="-62" font-family="Helvetica,sans-Serif" font-size="10.00">unordered_map</text>
</a>
</g>
</g>
<!-- Node7&#45;&gt;Node10 -->
<g id="edge10_Node000007_Node000010" class="edge">
<title>Node7&#45;&gt;Node10</title>
<g id="a_edge10_Node000007_Node000010"><a xlink:title=" ">
<path fill="none" stroke="#63b8ff" d="M661,-109.75C661,-102.8 661,-92.85 661,-84.13"/>
<polygon fill="#63b8ff" stroke="#63b8ff" points="664.5,-84.09 661,-74.09 657.5,-84.09 664.5,-84.09"/>
</a>
</g>
</g>
<!-- Node11&#45;&gt;Node3 -->
<g id="edge12_Node000011_Node000003" class="edge">
<title>Node11&#45;&gt;Node3</title>
<g id="a_edge12_Node000011_Node000003"><a xlink:title=" ">
<path fill="none" stroke="#63b8ff" d="M327.11,-109.98C305.92,-101.34 272.87,-87.87 248.7,-78.02"/>
<polygon fill="#63b8ff" stroke="#63b8ff" points="249.85,-74.7 239.27,-74.17 247.21,-81.19 249.85,-74.7"/>
</a>
</g>
</g>
<!-- Node12 -->
<g id="Node000012" class="node">
<title>Node12</title>
<g id="a_Node000012"><a xlink:title=" ">
<polygon fill="#e0e0e0" stroke="#999999" points="369,-74 327,-74 327,-55 369,-55 369,-74"/>
<text text-anchor="middle" x="348" y="-62" font-family="Helvetica,sans-Serif" font-size="10.00">array</text>
</a>
</g>
</g>
<!-- Node11&#45;&gt;Node12 -->
<g id="edge13_Node000011_Node000012" class="edge">
<title>Node11&#45;&gt;Node12</title>
<g id="a_edge13_Node000011_Node000012"><a xlink:title=" ">
<path fill="none" stroke="#63b8ff" d="M348,-109.75C348,-102.8 348,-92.85 348,-84.13"/>
<polygon fill="#63b8ff" stroke="#63b8ff" points="351.5,-84.09 348,-74.09 344.5,-84.09 351.5,-84.09"/>
</a>
</g>
</g>
<!-- Node16&#45;&gt;Node3 -->
<g id="edge19_Node000016_Node000003" class="edge">
<title>Node16&#45;&gt;Node3</title>
<g id="a_edge19_Node000016_Node000003"><a xlink:title=" ">
<path fill="none" stroke="#63b8ff" d="M279.51,-219.74C269.28,-194.09 239.25,-118.78 225.29,-83.78"/>
<polygon fill="#63b8ff" stroke="#63b8ff" points="228.47,-82.3 221.51,-74.31 221.97,-84.89 228.47,-82.3"/>
</a>
</g>
</g>
<!-- Node16&#45;&gt;Node6 -->
<g id="edge20_Node000016_Node000006" class="edge">
<title>Node16&#45;&gt;Node6</title>
<g id="a_edge20_Node000016_Node000006"><a xlink:title=" ">
<path fill="none" stroke="#63b8ff" d="M296.66,-219.98C309.84,-211.77 330.03,-199.18 345.57,-189.49"/>
<polygon fill="#63b8ff" stroke="#63b8ff" points="347.46,-192.43 354.09,-184.17 343.76,-186.49 347.46,-192.43"/>
</a>
</g>
</g>
<!-- Node17&#45;&gt;Node6 -->
<g id="edge22_Node000017_Node000006" class="edge">
<title>Node17&#45;&gt;Node6</title>
<g id="a_edge22_Node000017_Node000006"><a xlink:title=" ">
<path fill="none" stroke="#63b8ff" d="M352.84,-274.76C358.25,-266.1 365.9,-252.26 369,-239 372.42,-224.37 371.91,-207.32 370.69,-194.57"/>
<polygon fill="#63b8ff" stroke="#63b8ff" points="374.13,-193.79 369.47,-184.27 367.18,-194.61 374.13,-193.79"/>
</a>
</g>
</g>
<!-- Node17&#45;&gt;Node16 -->
<g id="edge23_Node000017_Node000016" class="edge">
<title>Node17&#45;&gt;Node16</title>
<g id="a_edge23_Node000017_Node000016"><a xlink:title=" ">
<path fill="none" stroke="#63b8ff" d="M336.72,-274.98C327.16,-267.07 312.72,-255.11 301.22,-245.58"/>
<polygon fill="#63b8ff" stroke="#63b8ff" points="303.4,-242.85 293.47,-239.17 298.94,-248.24 303.4,-242.85"/>
</a>
</g>
</g>
<!-- Node19 -->
<g id="Node000019" class="node">
<title>Node19</title>
<g id="a_Node000019"><a xlink:title=" ">
<polygon fill="#e0e0e0" stroke="#999999" points="656,-239 606,-239 606,-220 656,-220 656,-239"/>
<text text-anchor="middle" x="631" y="-227" font-family="Helvetica,sans-Serif" font-size="10.00">format</text>
</a>
</g>
</g>
<!-- Node18&#45;&gt;Node19 -->
<g id="edge25_Node000018_Node000019" class="edge">
<title>Node18&#45;&gt;Node19</title>
<g id="a_edge25_Node000018_Node000019"><a xlink:title=" ">
<path fill="none" stroke="#63b8ff" d="M513.49,-274.98C536.52,-266.27 572.54,-252.63 598.63,-242.75"/>
<polygon fill="#63b8ff" stroke="#63b8ff" points="599.98,-245.98 608.1,-239.17 597.51,-239.44 599.98,-245.98"/>
</a>
</g>
</g>
<!-- Node20 -->
<g id="Node000020" class="node">
<title>Node20</title>
<g id="a_Node000020"><a xlink:title=" ">
<polygon fill="#e0e0e0" stroke="#999999" points="476,-239 416,-239 416,-220 476,-220 476,-239"/>
<text text-anchor="middle" x="446" y="-227" font-family="Helvetica,sans-Serif" font-size="10.00">iostream</text>
</a>
</g>
</g>
<!-- Node18&#45;&gt;Node20 -->
<g id="edge26_Node000018_Node000020" class="edge">
<title>Node18&#45;&gt;Node20</title>
<g id="a_edge26_Node000018_Node000020"><a xlink:title=" ">
<path fill="none" stroke="#63b8ff" d="M483.57,-274.75C477.15,-267.18 467.69,-256.05 459.88,-246.84"/>
<polygon fill="#63b8ff" stroke="#63b8ff" points="462.43,-244.45 453.29,-239.09 457.1,-248.98 462.43,-244.45"/>
</a>
</g>
</g>
<!-- Node21 -->
<g id="Node000021" class="node">
<title>Node21</title>
<g id="a_Node000021"><a xlink:title=" ">
<polygon fill="#e0e0e0" stroke="#999999" points="587.5,-239 494.5,-239 494.5,-220 587.5,-220 587.5,-239"/>
<text text-anchor="middle" x="541" y="-227" font-family="Helvetica,sans-Serif" font-size="10.00">source_location</text>
</a>
</g>
</g>
<!-- Node18&#45;&gt;Node21 -->
<g id="edge27_Node000018_Node000021" class="edge">
<title>Node18&#45;&gt;Node21</title>
<g id="a_edge27_Node000018_Node000021"><a xlink:title=" ">
<path fill="none" stroke="#63b8ff" d="M499.26,-274.75C506.46,-267.11 517.11,-255.82 525.85,-246.56"/>
<polygon fill="#63b8ff" stroke="#63b8ff" points="528.58,-248.76 532.9,-239.09 523.49,-243.96 528.58,-248.76"/>
</a>
</g>
</g>
</g>
</svg>
