<?xml version="1.0" encoding="UTF-8" standalone="no"?>
<!DOCTYPE svg PUBLIC "-//W3C//DTD SVG 1.1//EN"
 "http://www.w3.org/Graphics/SVG/1.1/DTD/svg11.dtd">
<!-- Generated by graphviz version 2.43.0 (0)
 -->
<!-- Title: App/Include/Application/Mesh.h Pages: 1 -->
<svg width="1673pt" height="236pt"
 viewBox="0.00 0.00 1672.71 236.00" xmlns="http://www.w3.org/2000/svg" xmlns:xlink="http://www.w3.org/1999/xlink">
<g id="graph0" class="graph" transform="scale(1 1) rotate(0) translate(4 232)">
<title>App/Include/Application/Mesh.h</title>
<!-- Node1 -->
<g id="Node000001" class="node">
<title>Node1</title>
<g id="a_Node000001"><a xlink:title=" ">
<polygon fill="#999999" stroke="#666666" points="1041.71,-228 910.71,-228 910.71,-198 1041.71,-198 1041.71,-228"/>
<text text-anchor="start" x="918.71" y="-216" font-family="Helvetica,sans-Serif" font-size="10.00">App/Include/Application</text>
<text text-anchor="middle" x="976.21" y="-205" font-family="Helvetica,sans-Serif" font-size="10.00">/Mesh.h</text>
</a>
</g>
</g>
<!-- Node2 -->
<g id="Node000002" class="node">
<title>Node2</title>
<g id="a_Node000002"><a xlink:href="MeshExporter_8h.html" target="_top" xlink:title=" ">
<polygon fill="white" stroke="#666666" points="669.71,-162 538.71,-162 538.71,-132 669.71,-132 669.71,-162"/>
<text text-anchor="start" x="546.71" y="-150" font-family="Helvetica,sans-Serif" font-size="10.00">App/Include/Application</text>
<text text-anchor="middle" x="604.21" y="-139" font-family="Helvetica,sans-Serif" font-size="10.00">/MeshExporter.h</text>
</a>
</g>
</g>
<!-- Node1&#45;&gt;Node2 -->
<g id="edge1_Node000001_Node000002" class="edge">
<title>Node1&#45;&gt;Node2</title>
<g id="a_edge1_Node000001_Node000002"><a xlink:title=" ">
<path fill="none" stroke="#63b8ff" d="M900.38,-198.95C832.59,-187.29 734.3,-170.38 669.83,-159.29"/>
<polygon fill="#63b8ff" stroke="#63b8ff" points="900.12,-202.46 910.56,-200.71 901.3,-195.56 900.12,-202.46"/>
</a>
</g>
</g>
<!-- Node5 -->
<g id="Node000005" class="node">
<title>Node5</title>
<g id="a_Node000005"><a xlink:href="MeshIntegrity_8h.html" target="_top" xlink:title=" ">
<polygon fill="white" stroke="#666666" points="308.71,-162 177.71,-162 177.71,-132 308.71,-132 308.71,-162"/>
<text text-anchor="start" x="185.71" y="-150" font-family="Helvetica,sans-Serif" font-size="10.00">App/Include/Application</text>
<text text-anchor="middle" x="243.21" y="-139" font-family="Helvetica,sans-Serif" font-size="10.00">/MeshIntegrity.h</text>
</a>
</g>
</g>
<!-- Node1&#45;&gt;Node5 -->
<g id="edge4_Node000001_Node000005" class="edge">
<title>Node1&#45;&gt;Node5</title>
<g id="a_edge4_Node000001_Node000005"><a xlink:title=" ">
<path fill="none" stroke="#63b8ff" d="M900.18,-206.07C786.85,-197.12 566.95,-179.37 380.21,-162 357,-159.84 331.6,-157.3 309.04,-154.97"/>
<polygon fill="#63b8ff" stroke="#63b8ff" points="900.23,-209.58 910.48,-206.88 900.78,-202.6 900.23,-209.58"/>
</a>
</g>
</g>
<!-- Node9 -->
<g id="Node000009" class="node">
<title>Node9</title>
<g id="a_Node000009"><a xlink:href="Mesh__utest_8cpp.html" target="_top" xlink:title=" ">
<polygon fill="white" stroke="#666666" points="516.71,-30 393.71,-30 393.71,0 516.71,0 516.71,-30"/>
<text text-anchor="start" x="401.71" y="-18" font-family="Helvetica,sans-Serif" font-size="10.00">App/Test/Source/Mesh</text>
<text text-anchor="middle" x="455.21" y="-7" font-family="Helvetica,sans-Serif" font-size="10.00">_utest.cpp</text>
</a>
</g>
</g>
<!-- Node1&#45;&gt;Node9 -->
<g id="edge30_Node000001_Node000009" class="edge">
<title>Node1&#45;&gt;Node9</title>
<g id="a_edge30_Node000001_Node000009"><a xlink:title=" ">
<path fill="none" stroke="#63b8ff" d="M900.36,-210.44C727.01,-206.37 306.17,-193.48 168.21,-162 92.42,-144.7 49.6,-160.52 6.21,-96 -1.23,-84.94 -2.68,-75.94 6.21,-66 31.58,-37.65 276.35,-23.56 393.43,-18.39"/>
<polygon fill="#63b8ff" stroke="#63b8ff" points="900.35,-213.94 910.43,-210.67 900.51,-206.94 900.35,-213.94"/>
</a>
</g>
</g>
<!-- Node10 -->
<g id="Node000010" class="node">
<title>Node10</title>
<g id="a_Node000010"><a xlink:href="MeshLoader_8h.html" target="_top" xlink:title=" ">
<polygon fill="white" stroke="#666666" points="520.71,-162 389.71,-162 389.71,-132 520.71,-132 520.71,-162"/>
<text text-anchor="start" x="397.71" y="-150" font-family="Helvetica,sans-Serif" font-size="10.00">App/Include/Application</text>
<text text-anchor="middle" x="455.21" y="-139" font-family="Helvetica,sans-Serif" font-size="10.00">/MeshLoader.h</text>
</a>
</g>
</g>
<!-- Node1&#45;&gt;Node10 -->
<g id="edge9_Node000001_Node000010" class="edge">
<title>Node1&#45;&gt;Node10</title>
<g id="a_edge9_Node000001_Node000010"><a xlink:title=" ">
<path fill="none" stroke="#63b8ff" d="M900.48,-205.29C811.39,-196.99 659.15,-181.53 529.21,-162 526.5,-161.59 523.73,-161.16 520.94,-160.7"/>
<polygon fill="#63b8ff" stroke="#63b8ff" points="900.21,-208.78 910.49,-206.22 900.86,-201.81 900.21,-208.78"/>
</a>
</g>
</g>
<!-- Node12 -->
<g id="Node000012" class="node">
<title>Node12</title>
<g id="a_Node000012"><a xlink:href="PrimitiveProxy_8h.html" target="_top" xlink:title=" ">
<polygon fill="white" stroke="#666666" points="1135.71,-162 1004.71,-162 1004.71,-132 1135.71,-132 1135.71,-162"/>
<text text-anchor="start" x="1012.71" y="-150" font-family="Helvetica,sans-Serif" font-size="10.00">App/Include/Application</text>
<text text-anchor="middle" x="1070.21" y="-139" font-family="Helvetica,sans-Serif" font-size="10.00">/PrimitiveProxy.h</text>
</a>
</g>
</g>
<!-- Node1&#45;&gt;Node12 -->
<g id="edge13_Node000001_Node000012" class="edge">
<title>Node1&#45;&gt;Node12</title>
<g id="a_edge13_Node000001_Node000012"><a xlink:title=" ">
<path fill="none" stroke="#63b8ff" d="M1005.55,-192.03C1019.77,-182.34 1036.52,-170.94 1049.41,-162.16"/>
<polygon fill="#63b8ff" stroke="#63b8ff" points="1003.37,-189.28 997.08,-197.8 1007.31,-195.06 1003.37,-189.28"/>
</a>
</g>
</g>
<!-- Node13 -->
<g id="Node000013" class="node">
<title>Node13</title>
<g id="a_Node000013"><a xlink:href="TestHelpers_8h.html" target="_top" xlink:title=" ">
<polygon fill="white" stroke="#666666" points="1041.71,-96 910.71,-96 910.71,-66 1041.71,-66 1041.71,-96"/>
<text text-anchor="start" x="918.71" y="-84" font-family="Helvetica,sans-Serif" font-size="10.00">App/Include/Application</text>
<text text-anchor="middle" x="976.21" y="-73" font-family="Helvetica,sans-Serif" font-size="10.00">/TestHelpers.h</text>
</a>
</g>
</g>
<!-- Node1&#45;&gt;Node13 -->
<g id="edge26_Node000001_Node000013" class="edge">
<title>Node1&#45;&gt;Node13</title>
<g id="a_edge26_Node000001_Node000013"><a xlink:title=" ">
<path fill="none" stroke="#63b8ff" d="M976.21,-187.68C976.21,-160.7 976.21,-118.11 976.21,-96.14"/>
<polygon fill="#63b8ff" stroke="#63b8ff" points="972.71,-187.84 976.21,-197.84 979.71,-187.84 972.71,-187.84"/>
</a>
</g>
</g>
<!-- Node14 -->
<g id="Node000014" class="node">
<title>Node14</title>
<g id="a_Node000014"><a xlink:href="MeshCirculator__utest_8cpp.html" target="_top" xlink:title=" ">
<polygon fill="white" stroke="#666666" points="1516.21,-30 1346.21,-30 1346.21,0 1516.21,0 1516.21,-30"/>
<text text-anchor="start" x="1354.21" y="-18" font-family="Helvetica,sans-Serif" font-size="10.00">App/Test/Source/MeshCirculator</text>
<text text-anchor="middle" x="1431.21" y="-7" font-family="Helvetica,sans-Serif" font-size="10.00">_utest.cpp</text>
</a>
</g>
</g>
<!-- Node1&#45;&gt;Node14 -->
<g id="edge29_Node000001_Node000014" class="edge">
<title>Node1&#45;&gt;Node14</title>
<g id="a_edge29_Node000001_Node000014"><a xlink:title=" ">
<path fill="none" stroke="#63b8ff" d="M1052.04,-204.83C1173.52,-191.57 1403.07,-158.7 1451.21,-96 1466.12,-76.58 1452.19,-47.41 1441.3,-30.18"/>
<polygon fill="#63b8ff" stroke="#63b8ff" points="1051.62,-201.35 1042.05,-205.9 1052.37,-208.31 1051.62,-201.35"/>
</a>
</g>
</g>
<!-- Node16 -->
<g id="Node000016" class="node">
<title>Node16</title>
<g id="a_Node000016"><a xlink:href="Mesh_8cpp.html" target="_top" xlink:title=" ">
<polygon fill="white" stroke="#666666" points="1441.71,-90.5 1320.71,-90.5 1320.71,-71.5 1441.71,-71.5 1441.71,-90.5"/>
<text text-anchor="middle" x="1381.21" y="-78.5" font-family="Helvetica,sans-Serif" font-size="10.00">App/Source/Mesh.cpp</text>
</a>
</g>
</g>
<!-- Node1&#45;&gt;Node16 -->
<g id="edge27_Node000001_Node000016" class="edge">
<title>Node1&#45;&gt;Node16</title>
<g id="a_edge27_Node000001_Node000016"><a xlink:title=" ">
<path fill="none" stroke="#63b8ff" d="M1035.35,-195.12C1067.87,-185.68 1108.87,-173.53 1145.21,-162 1222.95,-137.34 1314.16,-105.62 1356.86,-90.61"/>
<polygon fill="#63b8ff" stroke="#63b8ff" points="1034.18,-191.81 1025.55,-197.96 1036.13,-198.54 1034.18,-191.81"/>
</a>
</g>
</g>
<!-- Node18 -->
<g id="Node000018" class="node">
<title>Node18</title>
<g id="a_Node000018"><a xlink:href="MeshCirculator_8cpp.html" target="_top" xlink:title=" ">
<polygon fill="white" stroke="#666666" points="1664.71,-156.5 1497.71,-156.5 1497.71,-137.5 1664.71,-137.5 1664.71,-156.5"/>
<text text-anchor="middle" x="1581.21" y="-144.5" font-family="Helvetica,sans-Serif" font-size="10.00">App/Source/MeshCirculator.cpp</text>
</a>
</g>
</g>
<!-- Node1&#45;&gt;Node18 -->
<g id="edge28_Node000001_Node000018" class="edge">
<title>Node1&#45;&gt;Node18</title>
<g id="a_edge28_Node000001_Node000018"><a xlink:title=" ">
<path fill="none" stroke="#63b8ff" d="M1052.33,-205.59C1151.78,-196.97 1331.27,-180.55 1484.21,-162 1497.56,-160.38 1511.9,-158.43 1525.36,-156.5"/>
<polygon fill="#63b8ff" stroke="#63b8ff" points="1051.74,-202.13 1042.08,-206.48 1052.34,-209.1 1051.74,-202.13"/>
</a>
</g>
</g>
<!-- Node3 -->
<g id="Node000003" class="node">
<title>Node3</title>
<g id="a_Node000003"><a xlink:href="MeshExporter_8cpp.html" target="_top" xlink:title=" ">
<polygon fill="white" stroke="#666666" points="682.71,-90.5 521.71,-90.5 521.71,-71.5 682.71,-71.5 682.71,-90.5"/>
<text text-anchor="middle" x="602.21" y="-78.5" font-family="Helvetica,sans-Serif" font-size="10.00">App/Source/MeshExporter.cpp</text>
</a>
</g>
</g>
<!-- Node2&#45;&gt;Node3 -->
<g id="edge2_Node000002_Node000003" class="edge">
<title>Node2&#45;&gt;Node3</title>
<g id="a_edge2_Node000002_Node000003"><a xlink:title=" ">
<path fill="none" stroke="#63b8ff" d="M603.45,-121.6C603.11,-110.8 602.74,-98.78 602.49,-90.84"/>
<polygon fill="#63b8ff" stroke="#63b8ff" points="599.96,-121.91 603.77,-131.8 606.96,-121.69 599.96,-121.91"/>
</a>
</g>
</g>
<!-- Node4 -->
<g id="Node000004" class="node">
<title>Node4</title>
<g id="a_Node000004"><a xlink:href="MeshExporter__utest_8cpp.html" target="_top" xlink:title=" ">
<polygon fill="white" stroke="#666666" points="1058.21,-30 894.21,-30 894.21,0 1058.21,0 1058.21,-30"/>
<text text-anchor="start" x="902.21" y="-18" font-family="Helvetica,sans-Serif" font-size="10.00">App/Test/Source/MeshExporter</text>
<text text-anchor="middle" x="976.21" y="-7" font-family="Helvetica,sans-Serif" font-size="10.00">_utest.cpp</text>
</a>
</g>
</g>
<!-- Node2&#45;&gt;Node4 -->
<g id="edge3_Node000002_Node000004" class="edge">
<title>Node2&#45;&gt;Node4</title>
<g id="a_edge3_Node000002_Node000004"><a xlink:title=" ">
<path fill="none" stroke="#63b8ff" d="M557.37,-127.57C525.05,-112.23 491.36,-89.22 512.21,-66 518.53,-58.96 762.55,-35.59 894.11,-23.45"/>
<polygon fill="#63b8ff" stroke="#63b8ff" points="556.29,-130.93 566.84,-131.88 559.19,-124.56 556.29,-130.93"/>
</a>
</g>
</g>
<!-- Node6 -->
<g id="Node000006" class="node">
<title>Node6</title>
<g id="a_Node000006"><a xlink:href="MeshIntegrity_8cpp.html" target="_top" xlink:title=" ">
<polygon fill="white" stroke="#666666" points="176.71,-90.5 15.71,-90.5 15.71,-71.5 176.71,-71.5 176.71,-90.5"/>
<text text-anchor="middle" x="96.21" y="-78.5" font-family="Helvetica,sans-Serif" font-size="10.00">App/Source/MeshIntegrity.cpp</text>
</a>
</g>
</g>
<!-- Node5&#45;&gt;Node6 -->
<g id="edge5_Node000005_Node000006" class="edge">
<title>Node5&#45;&gt;Node6</title>
<g id="a_edge5_Node000005_Node000006"><a xlink:title=" ">
<path fill="none" stroke="#63b8ff" d="M201.73,-127.94C173.57,-115.68 137.61,-100.02 115.78,-90.52"/>
<polygon fill="#63b8ff" stroke="#63b8ff" points="200.39,-131.17 210.96,-131.95 203.18,-124.75 200.39,-131.17"/>
</a>
</g>
</g>
<!-- Node7 -->
<g id="Node000007" class="node">
<title>Node7</title>
<g id="a_Node000007"><a xlink:href="MeshIntegrity__utest_8cpp.html" target="_top" xlink:title=" ">
<polygon fill="white" stroke="#666666" points="788.21,-30 624.21,-30 624.21,0 788.21,0 788.21,-30"/>
<text text-anchor="start" x="632.21" y="-18" font-family="Helvetica,sans-Serif" font-size="10.00">App/Test/Source/MeshIntegrity</text>
<text text-anchor="middle" x="706.21" y="-7" font-family="Helvetica,sans-Serif" font-size="10.00">_utest.cpp</text>
</a>
</g>
</g>
<!-- Node5&#45;&gt;Node7 -->
<g id="edge6_Node000005_Node000007" class="edge">
<title>Node5&#45;&gt;Node7</title>
<g id="a_edge6_Node000005_Node000007"><a xlink:title=" ">
<path fill="none" stroke="#63b8ff" d="M242.1,-121.58C242.69,-103.49 246.74,-79.7 262.21,-66 275.58,-54.16 499.4,-33.49 624.03,-22.81"/>
<polygon fill="#63b8ff" stroke="#63b8ff" points="238.6,-121.7 242.09,-131.7 245.6,-121.71 238.6,-121.7"/>
</a>
</g>
</g>
<!-- Node8 -->
<g id="Node000008" class="node">
<title>Node8</title>
<g id="a_Node000008"><a xlink:href="MeshLoader__utest_8cpp.html" target="_top" xlink:title=" ">
<polygon fill="white" stroke="#666666" points="427.21,-96 271.21,-96 271.21,-66 427.21,-66 427.21,-96"/>
<text text-anchor="start" x="279.21" y="-84" font-family="Helvetica,sans-Serif" font-size="10.00">App/Test/Source/MeshLoader</text>
<text text-anchor="middle" x="349.21" y="-73" font-family="Helvetica,sans-Serif" font-size="10.00">_utest.cpp</text>
</a>
</g>
</g>
<!-- Node5&#45;&gt;Node8 -->
<g id="edge7_Node000005_Node000008" class="edge">
<title>Node5&#45;&gt;Node8</title>
<g id="a_edge7_Node000005_Node000008"><a xlink:title=" ">
<path fill="none" stroke="#63b8ff" d="M275.19,-126.69C291.55,-116.82 311.11,-105.01 326.01,-96.01"/>
<polygon fill="#63b8ff" stroke="#63b8ff" points="273.23,-123.79 266.48,-131.95 276.85,-129.78 273.23,-123.79"/>
</a>
</g>
</g>
<!-- Node5&#45;&gt;Node9 -->
<g id="edge8_Node000005_Node000009" class="edge">
<title>Node5&#45;&gt;Node9</title>
<g id="a_edge8_Node000005_Node000009"><a xlink:title=" ">
<path fill="none" stroke="#63b8ff" d="M230.19,-122.47C222.5,-105.09 216.52,-81.81 229.21,-66 249.5,-40.74 333.9,-27.46 393.59,-21.1"/>
<polygon fill="#63b8ff" stroke="#63b8ff" points="227.26,-124.46 234.78,-131.92 233.55,-121.4 227.26,-124.46"/>
</a>
</g>
</g>
<!-- Node10&#45;&gt;Node8 -->
<g id="edge11_Node000010_Node000008" class="edge">
<title>Node10&#45;&gt;Node8</title>
<g id="a_edge11_Node000010_Node000008"><a xlink:title=" ">
<path fill="none" stroke="#63b8ff" d="M423.24,-126.69C406.88,-116.82 387.32,-105.01 372.42,-96.01"/>
<polygon fill="#63b8ff" stroke="#63b8ff" points="421.58,-129.78 431.95,-131.95 425.2,-123.79 421.58,-129.78"/>
</a>
</g>
</g>
<!-- Node10&#45;&gt;Node9 -->
<g id="edge12_Node000010_Node000009" class="edge">
<title>Node10&#45;&gt;Node9</title>
<g id="a_edge12_Node000010_Node000009"><a xlink:title=" ">
<path fill="none" stroke="#63b8ff" d="M455.21,-121.68C455.21,-94.7 455.21,-52.11 455.21,-30.14"/>
<polygon fill="#63b8ff" stroke="#63b8ff" points="451.71,-121.84 455.21,-131.84 458.71,-121.84 451.71,-121.84"/>
</a>
</g>
</g>
<!-- Node11 -->
<g id="Node000011" class="node">
<title>Node11</title>
<g id="a_Node000011"><a xlink:href="MeshLoader_8cpp.html" target="_top" xlink:title=" ">
<polygon fill="white" stroke="#666666" points="853.71,-90.5 700.71,-90.5 700.71,-71.5 853.71,-71.5 853.71,-90.5"/>
<text text-anchor="middle" x="777.21" y="-78.5" font-family="Helvetica,sans-Serif" font-size="10.00">App/Source/MeshLoader.cpp</text>
</a>
</g>
</g>
<!-- Node10&#45;&gt;Node11 -->
<g id="edge10_Node000010_Node000011" class="edge">
<title>Node10&#45;&gt;Node11</title>
<g id="a_edge10_Node000010_Node000011"><a xlink:title=" ">
<path fill="none" stroke="#63b8ff" d="M530.72,-130.99C594.13,-118.39 682.46,-100.83 734.36,-90.52"/>
<polygon fill="#63b8ff" stroke="#63b8ff" points="529.89,-127.59 520.76,-132.97 531.25,-134.45 529.89,-127.59"/>
</a>
</g>
</g>
<!-- Node12&#45;&gt;Node4 -->
<g id="edge23_Node000012_Node000004" class="edge">
<title>Node12&#45;&gt;Node4</title>
<g id="a_edge23_Node000012_Node000004"><a xlink:title=" ">
<path fill="none" stroke="#63b8ff" d="M1069.06,-121.51C1067.21,-104.62 1062.59,-82.34 1051.21,-66 1040.4,-50.46 1023.05,-38.44 1007.76,-30.08"/>
<polygon fill="#63b8ff" stroke="#63b8ff" points="1065.59,-122.05 1069.92,-131.72 1072.57,-121.47 1065.59,-122.05"/>
</a>
</g>
</g>
<!-- Node12&#45;&gt;Node9 -->
<g id="edge24_Node000012_Node000009" class="edge">
<title>Node12&#45;&gt;Node9</title>
<g id="a_edge24_Node000012_Node000009"><a xlink:title=" ">
<path fill="none" stroke="#63b8ff" d="M994.75,-129.84C964.97,-121.87 931.06,-110.74 902.21,-96 882.74,-86.05 883.45,-74.29 863.21,-66 831.89,-53.17 622.85,-31.89 516.75,-21.73"/>
<polygon fill="#63b8ff" stroke="#63b8ff" points="994.11,-133.29 1004.67,-132.43 995.87,-126.52 994.11,-133.29"/>
</a>
</g>
</g>
<!-- Node12&#45;&gt;Node11 -->
<g id="edge21_Node000012_Node000011" class="edge">
<title>Node12&#45;&gt;Node11</title>
<g id="a_edge21_Node000012_Node000011"><a xlink:title=" ">
<path fill="none" stroke="#63b8ff" d="M995.83,-129.75C938.64,-117.26 861.9,-100.5 816.21,-90.52"/>
<polygon fill="#63b8ff" stroke="#63b8ff" points="995.4,-133.24 1005.91,-131.95 996.89,-126.4 995.4,-133.24"/>
</a>
</g>
</g>
<!-- Node12&#45;&gt;Node13 -->
<g id="edge14_Node000012_Node000013" class="edge">
<title>Node12&#45;&gt;Node13</title>
<g id="a_edge14_Node000012_Node000013"><a xlink:title=" ">
<path fill="none" stroke="#63b8ff" d="M1040.88,-126.03C1026.66,-116.34 1009.91,-104.94 997.02,-96.16"/>
<polygon fill="#63b8ff" stroke="#63b8ff" points="1039.12,-129.06 1049.35,-131.8 1043.06,-123.28 1039.12,-129.06"/>
</a>
</g>
</g>
<!-- Node15 -->
<g id="Node000015" class="node">
<title>Node15</title>
<g id="a_Node000015"><a xlink:href="PrimitiveProxy__utest_8cpp.html" target="_top" xlink:title=" ">
<polygon fill="white" stroke="#666666" points="1289.71,-30 1148.71,-30 1148.71,0 1289.71,0 1289.71,-30"/>
<text text-anchor="start" x="1156.71" y="-18" font-family="Helvetica,sans-Serif" font-size="10.00">App/Test/Source/Primitive</text>
<text text-anchor="middle" x="1219.21" y="-7" font-family="Helvetica,sans-Serif" font-size="10.00">Proxy_utest.cpp</text>
</a>
</g>
</g>
<!-- Node12&#45;&gt;Node15 -->
<g id="edge25_Node000012_Node000015" class="edge">
<title>Node12&#45;&gt;Node15</title>
<g id="a_edge25_Node000012_Node000015"><a xlink:title=" ">
<path fill="none" stroke="#63b8ff" d="M1145.89,-137.12C1196.77,-129.41 1257.34,-116.26 1273.21,-96 1290.58,-73.84 1261.9,-46.31 1240.13,-30.01"/>
<polygon fill="#63b8ff" stroke="#63b8ff" points="1145.25,-133.68 1135.86,-138.59 1146.26,-140.6 1145.25,-133.68"/>
</a>
</g>
</g>
<!-- Node12&#45;&gt;Node16 -->
<g id="edge20_Node000012_Node000016" class="edge">
<title>Node12&#45;&gt;Node16</title>
<g id="a_edge20_Node000012_Node000016"><a xlink:title=" ">
<path fill="none" stroke="#63b8ff" d="M1145.75,-130.46C1206.67,-117.92 1290.08,-100.75 1339.54,-90.58"/>
<polygon fill="#63b8ff" stroke="#63b8ff" points="1144.88,-127.06 1135.79,-132.51 1146.29,-133.92 1144.88,-127.06"/>
</a>
</g>
</g>
<!-- Node17 -->
<g id="Node000017" class="node">
<title>Node17</title>
<g id="a_Node000017"><a xlink:href="PrimitiveProxy_8cpp.html" target="_top" xlink:title=" ">
<polygon fill="white" stroke="#666666" points="1263.71,-90.5 1098.71,-90.5 1098.71,-71.5 1263.71,-71.5 1263.71,-90.5"/>
<text text-anchor="middle" x="1181.21" y="-78.5" font-family="Helvetica,sans-Serif" font-size="10.00">App/Source/PrimitiveProxy.cpp</text>
</a>
</g>
</g>
<!-- Node12&#45;&gt;Node17 -->
<g id="edge22_Node000012_Node000017" class="edge">
<title>Node12&#45;&gt;Node17</title>
<g id="a_edge22_Node000012_Node000017"><a xlink:title=" ">
<path fill="none" stroke="#63b8ff" d="M1103.49,-126.81C1124.45,-114.73 1150.46,-99.73 1166.44,-90.52"/>
<polygon fill="#63b8ff" stroke="#63b8ff" points="1101.49,-123.93 1094.57,-131.95 1104.99,-129.99 1101.49,-123.93"/>
</a>
</g>
</g>
<!-- Node13&#45;&gt;Node4 -->
<g id="edge16_Node000013_Node000004" class="edge">
<title>Node13&#45;&gt;Node4</title>
<g id="a_edge16_Node000013_Node000004"><a xlink:title=" ">
<path fill="none" stroke="#63b8ff" d="M976.21,-55.54C976.21,-46.96 976.21,-37.61 976.21,-30.16"/>
<polygon fill="#63b8ff" stroke="#63b8ff" points="972.71,-55.8 976.21,-65.8 979.71,-55.8 972.71,-55.8"/>
</a>
</g>
</g>
<!-- Node13&#45;&gt;Node7 -->
<g id="edge17_Node000013_Node000007" class="edge">
<title>Node13&#45;&gt;Node7</title>
<g id="a_edge17_Node000013_Node000007"><a xlink:title=" ">
<path fill="none" stroke="#63b8ff" d="M907.23,-63.65C863.36,-53.25 807.15,-39.93 765.33,-30.01"/>
<polygon fill="#63b8ff" stroke="#63b8ff" points="906.42,-67.05 916.96,-65.95 908.04,-60.24 906.42,-67.05"/>
</a>
</g>
</g>
<!-- Node13&#45;&gt;Node9 -->
<g id="edge18_Node000013_Node000009" class="edge">
<title>Node13&#45;&gt;Node9</title>
<g id="a_edge18_Node000013_Node000009"><a xlink:title=" ">
<path fill="none" stroke="#63b8ff" d="M900.13,-66.57C898.82,-66.38 897.51,-66.19 896.21,-66 761.22,-46.55 602.08,-30.1 516.72,-21.79"/>
<polygon fill="#63b8ff" stroke="#63b8ff" points="899.93,-70.08 910.34,-68.15 900.99,-63.17 899.93,-70.08"/>
</a>
</g>
</g>
<!-- Node13&#45;&gt;Node14 -->
<g id="edge15_Node000013_Node000014" class="edge">
<title>Node13&#45;&gt;Node14</title>
<g id="a_edge15_Node000013_Node000014"><a xlink:title=" ">
<path fill="none" stroke="#63b8ff" d="M1052.04,-69.34C1133.19,-57.92 1261.63,-39.85 1346.17,-27.96"/>
<polygon fill="#63b8ff" stroke="#63b8ff" points="1051.3,-65.9 1041.89,-70.76 1052.28,-72.84 1051.3,-65.9"/>
</a>
</g>
</g>
<!-- Node13&#45;&gt;Node15 -->
<g id="edge19_Node000013_Node000015" class="edge">
<title>Node13&#45;&gt;Node15</title>
<g id="a_edge19_Node000013_Node000015"><a xlink:title=" ">
<path fill="none" stroke="#63b8ff" d="M1039.3,-63.39C1078.63,-53.03 1128.69,-39.84 1166.01,-30.01"/>
<polygon fill="#63b8ff" stroke="#63b8ff" points="1038.32,-60.02 1029.54,-65.95 1040.1,-66.79 1038.32,-60.02"/>
</a>
</g>
</g>
</g>
</svg>
