<?xml version="1.0" encoding="UTF-8" standalone="no"?>
<!DOCTYPE svg PUBLIC "-//W3C//DTD SVG 1.1//EN"
 "http://www.w3.org/Graphics/SVG/1.1/DTD/svg11.dtd">
<!-- Generated by graphviz version 2.43.0 (0)
 -->
<!-- Title: App/Include/Application/MeshExporter.h Pages: 1 -->
<svg width="656pt" height="258pt"
 viewBox="0.00 0.00 656.40 258.00" xmlns="http://www.w3.org/2000/svg" xmlns:xlink="http://www.w3.org/1999/xlink">
<g id="graph0" class="graph" transform="scale(1 1) rotate(0) translate(4 254)">
<title>App/Include/Application/MeshExporter.h</title>
<!-- Node1 -->
<g id="Node000001" class="node">
<title>Node1</title>
<g id="a_Node000001"><a xlink:title=" ">
<polygon fill="#999999" stroke="#666666" points="541.9,-250 410.9,-250 410.9,-220 541.9,-220 541.9,-250"/>
<text text-anchor="start" x="418.9" y="-238" font-family="Helvetica,sans-Serif" font-size="10.00">App/Include/Application</text>
<text text-anchor="middle" x="476.4" y="-227" font-family="Helvetica,sans-Serif" font-size="10.00">/MeshExporter.h</text>
</a>
</g>
</g>
<!-- Node2 -->
<g id="Node000002" class="node">
<title>Node2</title>
<g id="a_Node000002"><a xlink:href="BaseType_8h.html" target="_top" xlink:title=" ">
<polygon fill="white" stroke="#666666" points="579.4,-74 449.4,-74 449.4,-55 579.4,-55 579.4,-74"/>
<text text-anchor="middle" x="514.4" y="-62" font-family="Helvetica,sans-Serif" font-size="10.00">Application/BaseType.h</text>
</a>
</g>
</g>
<!-- Node1&#45;&gt;Node2 -->
<g id="edge1_Node000001_Node000002" class="edge">
<title>Node1&#45;&gt;Node2</title>
<g id="a_edge1_Node000001_Node000002"><a xlink:title=" ">
<path fill="none" stroke="#63b8ff" d="M483.51,-219.85C493,-200.1 509.31,-162.88 515.4,-129 516.89,-120.69 515.49,-118.44 515.4,-110 515.3,-101.49 515.1,-92.07 514.91,-84.09"/>
<polygon fill="#63b8ff" stroke="#63b8ff" points="518.41,-83.94 514.65,-74.03 511.41,-84.12 518.41,-83.94"/>
</a>
</g>
</g>
<!-- Node4 -->
<g id="Node000004" class="node">
<title>Node4</title>
<g id="a_Node000004"><a xlink:title=" ">
<polygon fill="#e0e0e0" stroke="#999999" points="237.4,-19 187.4,-19 187.4,0 237.4,0 237.4,-19"/>
<text text-anchor="middle" x="212.4" y="-7" font-family="Helvetica,sans-Serif" font-size="10.00">cstdint</text>
</a>
</g>
</g>
<!-- Node1&#45;&gt;Node4 -->
<g id="edge15_Node000001_Node000004" class="edge">
<title>Node1&#45;&gt;Node4</title>
<g id="a_edge15_Node000001_Node000004"><a xlink:title=" ">
<path fill="none" stroke="#63b8ff" d="M410.64,-229.05C294.3,-218.78 59.8,-190.77 10.4,-129 -39.6,-66.48 106.8,-30.03 177.07,-16.54"/>
<polygon fill="#63b8ff" stroke="#63b8ff" points="178.06,-19.91 187.25,-14.64 176.78,-13.03 178.06,-19.91"/>
</a>
</g>
</g>
<!-- Node5 -->
<g id="Node000005" class="node">
<title>Node5</title>
<g id="a_Node000005"><a xlink:href="Mesh_8h.html" target="_top" xlink:title=" ">
<polygon fill="white" stroke="#666666" points="380.4,-184 270.4,-184 270.4,-165 380.4,-165 380.4,-184"/>
<text text-anchor="middle" x="325.4" y="-172" font-family="Helvetica,sans-Serif" font-size="10.00">Application/Mesh.h</text>
</a>
</g>
</g>
<!-- Node1&#45;&gt;Node5 -->
<g id="edge4_Node000001_Node000005" class="edge">
<title>Node1&#45;&gt;Node5</title>
<g id="a_edge4_Node000001_Node000005"><a xlink:title=" ">
<path fill="none" stroke="#63b8ff" d="M440.23,-219.99C414.92,-210.18 381.44,-197.21 357.16,-187.81"/>
<polygon fill="#63b8ff" stroke="#63b8ff" points="358.29,-184.49 347.7,-184.14 355.76,-191.02 358.29,-184.49"/>
</a>
</g>
</g>
<!-- Node14 -->
<g id="Node000014" class="node">
<title>Node14</title>
<g id="a_Node000014"><a xlink:title=" ">
<polygon fill="#e0e0e0" stroke="#999999" points="648.4,-184 580.4,-184 580.4,-165 648.4,-165 648.4,-184"/>
<text text-anchor="middle" x="614.4" y="-172" font-family="Helvetica,sans-Serif" font-size="10.00">filesystem</text>
</a>
</g>
</g>
<!-- Node1&#45;&gt;Node14 -->
<g id="edge16_Node000001_Node000014" class="edge">
<title>Node1&#45;&gt;Node14</title>
<g id="a_edge16_Node000001_Node000014"><a xlink:title=" ">
<path fill="none" stroke="#63b8ff" d="M509.45,-219.99C532.37,-210.27 562.64,-197.44 584.78,-188.06"/>
<polygon fill="#63b8ff" stroke="#63b8ff" points="586.18,-191.26 594.02,-184.14 583.45,-184.82 586.18,-191.26"/>
</a>
</g>
</g>
<!-- Node3 -->
<g id="Node000003" class="node">
<title>Node3</title>
<g id="a_Node000003"><a xlink:title=" ">
<polygon fill="#e0e0e0" stroke="#999999" points="553.4,-19 475.4,-19 475.4,0 553.4,0 553.4,-19"/>
<text text-anchor="middle" x="514.4" y="-7" font-family="Helvetica,sans-Serif" font-size="10.00">glm/glm.hpp</text>
</a>
</g>
</g>
<!-- Node2&#45;&gt;Node3 -->
<g id="edge2_Node000002_Node000003" class="edge">
<title>Node2&#45;&gt;Node3</title>
<g id="a_edge2_Node000002_Node000003"><a xlink:title=" ">
<path fill="none" stroke="#63b8ff" d="M514.4,-54.75C514.4,-47.8 514.4,-37.85 514.4,-29.13"/>
<polygon fill="#63b8ff" stroke="#63b8ff" points="517.9,-29.09 514.4,-19.09 510.9,-29.09 517.9,-29.09"/>
</a>
</g>
</g>
<!-- Node2&#45;&gt;Node4 -->
<g id="edge3_Node000002_Node000004" class="edge">
<title>Node2&#45;&gt;Node4</title>
<g id="a_edge3_Node000002_Node000004"><a xlink:title=" ">
<path fill="none" stroke="#63b8ff" d="M465.88,-54.98C404.91,-44.29 301.76,-26.18 247.76,-16.71"/>
<polygon fill="#63b8ff" stroke="#63b8ff" points="248.09,-13.21 237.64,-14.93 246.88,-20.11 248.09,-13.21"/>
</a>
</g>
</g>
<!-- Node5&#45;&gt;Node2 -->
<g id="edge5_Node000005_Node000002" class="edge">
<title>Node5&#45;&gt;Node2</title>
<g id="a_edge5_Node000005_Node000002"><a xlink:title=" ">
<path fill="none" stroke="#63b8ff" d="M380.75,-172.53C417.74,-168.97 465.01,-158.36 495.4,-129 507.42,-117.39 511.91,-98.53 513.55,-84.37"/>
<polygon fill="#63b8ff" stroke="#63b8ff" points="517.06,-84.5 514.35,-74.25 510.08,-83.95 517.06,-84.5"/>
</a>
</g>
</g>
<!-- Node6 -->
<g id="Node000006" class="node">
<title>Node6</title>
<g id="a_Node000006"><a xlink:href="ExtraDataContainer_8h.html" target="_top" xlink:title=" ">
<polygon fill="white" stroke="#666666" points="339.9,-129 160.9,-129 160.9,-110 339.9,-110 339.9,-129"/>
<text text-anchor="middle" x="250.4" y="-117" font-family="Helvetica,sans-Serif" font-size="10.00">Application/ExtraDataContainer.h</text>
</a>
</g>
</g>
<!-- Node5&#45;&gt;Node6 -->
<g id="edge6_Node000005_Node000006" class="edge">
<title>Node5&#45;&gt;Node6</title>
<g id="a_edge6_Node000005_Node000006"><a xlink:title=" ">
<path fill="none" stroke="#63b8ff" d="M313.35,-164.98C301.94,-156.92 284.57,-144.65 270.96,-135.03"/>
<polygon fill="#63b8ff" stroke="#63b8ff" points="272.85,-132.08 262.67,-129.17 268.81,-137.8 272.85,-132.08"/>
</a>
</g>
</g>
<!-- Node10 -->
<g id="Node000010" class="node">
<title>Node10</title>
<g id="a_Node000010"><a xlink:href="Primitive_8h.html" target="_top" xlink:title=" ">
<polygon fill="white" stroke="#666666" points="486.4,-129 358.4,-129 358.4,-110 486.4,-110 486.4,-129"/>
<text text-anchor="middle" x="422.4" y="-117" font-family="Helvetica,sans-Serif" font-size="10.00">Application/Primitive.h</text>
</a>
</g>
</g>
<!-- Node5&#45;&gt;Node10 -->
<g id="edge10_Node000005_Node000010" class="edge">
<title>Node5&#45;&gt;Node10</title>
<g id="a_edge10_Node000005_Node000010"><a xlink:title=" ">
<path fill="none" stroke="#63b8ff" d="M340.98,-164.98C356.17,-156.69 379.5,-143.94 397.3,-134.22"/>
<polygon fill="#63b8ff" stroke="#63b8ff" points="399.43,-137.04 406.53,-129.17 396.08,-130.89 399.43,-137.04"/>
</a>
</g>
</g>
<!-- Node12 -->
<g id="Node000012" class="node">
<title>Node12</title>
<g id="a_Node000012"><a xlink:title=" ">
<polygon fill="#e0e0e0" stroke="#999999" points="77.4,-129 19.4,-129 19.4,-110 77.4,-110 77.4,-129"/>
<text text-anchor="middle" x="48.4" y="-117" font-family="Helvetica,sans-Serif" font-size="10.00">memory</text>
</a>
</g>
</g>
<!-- Node5&#45;&gt;Node12 -->
<g id="edge13_Node000005_Node000012" class="edge">
<title>Node5&#45;&gt;Node12</title>
<g id="a_edge13_Node000005_Node000012"><a xlink:title=" ">
<path fill="none" stroke="#63b8ff" d="M276.78,-164.98C230.59,-156.76 158.94,-143.71 87.5,-129.17"/>
<polygon fill="#63b8ff" stroke="#63b8ff" points="87.92,-125.68 77.42,-127.1 86.52,-132.54 87.92,-125.68"/>
</a>
</g>
</g>
<!-- Node13 -->
<g id="Node000013" class="node">
<title>Node13</title>
<g id="a_Node000013"><a xlink:title=" ">
<polygon fill="#e0e0e0" stroke="#999999" points="142.9,-129 95.9,-129 95.9,-110 142.9,-110 142.9,-129"/>
<text text-anchor="middle" x="119.4" y="-117" font-family="Helvetica,sans-Serif" font-size="10.00">vector</text>
</a>
</g>
</g>
<!-- Node5&#45;&gt;Node13 -->
<g id="edge14_Node000005_Node000013" class="edge">
<title>Node5&#45;&gt;Node13</title>
<g id="a_edge14_Node000005_Node000013"><a xlink:title=" ">
<path fill="none" stroke="#63b8ff" d="M291.69,-164.98C258.68,-156.61 206.67,-143.37 153.16,-129.44"/>
<polygon fill="#63b8ff" stroke="#63b8ff" points="153.72,-125.97 143.16,-126.84 151.95,-132.75 153.72,-125.97"/>
</a>
</g>
</g>
<!-- Node7 -->
<g id="Node000007" class="node">
<title>Node7</title>
<g id="a_Node000007"><a xlink:title=" ">
<polygon fill="#e0e0e0" stroke="#999999" points="349.9,-74 314.9,-74 314.9,-55 349.9,-55 349.9,-74"/>
<text text-anchor="middle" x="332.4" y="-62" font-family="Helvetica,sans-Serif" font-size="10.00">any</text>
</a>
</g>
</g>
<!-- Node6&#45;&gt;Node7 -->
<g id="edge7_Node000006_Node000007" class="edge">
<title>Node6&#45;&gt;Node7</title>
<g id="a_edge7_Node000006_Node000007"><a xlink:title=" ">
<path fill="none" stroke="#63b8ff" d="M263.57,-109.98C276.17,-101.84 295.4,-89.41 310.34,-79.76"/>
<polygon fill="#63b8ff" stroke="#63b8ff" points="312.49,-82.54 318.98,-74.17 308.69,-76.66 312.49,-82.54"/>
</a>
</g>
</g>
<!-- Node8 -->
<g id="Node000008" class="node">
<title>Node8</title>
<g id="a_Node000008"><a xlink:title=" ">
<polygon fill="#e0e0e0" stroke="#999999" points="185.9,-74 120.9,-74 120.9,-55 185.9,-55 185.9,-74"/>
<text text-anchor="middle" x="153.4" y="-62" font-family="Helvetica,sans-Serif" font-size="10.00">typeindex</text>
</a>
</g>
</g>
<!-- Node6&#45;&gt;Node8 -->
<g id="edge8_Node000006_Node000008" class="edge">
<title>Node6&#45;&gt;Node8</title>
<g id="a_edge8_Node000006_Node000008"><a xlink:title=" ">
<path fill="none" stroke="#63b8ff" d="M234.81,-109.98C219.63,-101.69 196.3,-88.94 178.5,-79.22"/>
<polygon fill="#63b8ff" stroke="#63b8ff" points="179.72,-75.89 169.27,-74.17 176.36,-82.04 179.72,-75.89"/>
</a>
</g>
</g>
<!-- Node9 -->
<g id="Node000009" class="node">
<title>Node9</title>
<g id="a_Node000009"><a xlink:title=" ">
<polygon fill="#e0e0e0" stroke="#999999" points="296.9,-74 203.9,-74 203.9,-55 296.9,-55 296.9,-74"/>
<text text-anchor="middle" x="250.4" y="-62" font-family="Helvetica,sans-Serif" font-size="10.00">unordered_map</text>
</a>
</g>
</g>
<!-- Node6&#45;&gt;Node9 -->
<g id="edge9_Node000006_Node000009" class="edge">
<title>Node6&#45;&gt;Node9</title>
<g id="a_edge9_Node000006_Node000009"><a xlink:title=" ">
<path fill="none" stroke="#63b8ff" d="M250.4,-109.75C250.4,-102.8 250.4,-92.85 250.4,-84.13"/>
<polygon fill="#63b8ff" stroke="#63b8ff" points="253.9,-84.09 250.4,-74.09 246.9,-84.09 253.9,-84.09"/>
</a>
</g>
</g>
<!-- Node10&#45;&gt;Node2 -->
<g id="edge11_Node000010_Node000002" class="edge">
<title>Node10&#45;&gt;Node2</title>
<g id="a_edge11_Node000010_Node000002"><a xlink:title=" ">
<path fill="none" stroke="#63b8ff" d="M437.18,-109.98C451.58,-101.69 473.71,-88.94 490.59,-79.22"/>
<polygon fill="#63b8ff" stroke="#63b8ff" points="492.43,-82.19 499.35,-74.17 488.94,-76.13 492.43,-82.19"/>
</a>
</g>
</g>
<!-- Node11 -->
<g id="Node000011" class="node">
<title>Node11</title>
<g id="a_Node000011"><a xlink:title=" ">
<polygon fill="#e0e0e0" stroke="#999999" points="431.4,-74 389.4,-74 389.4,-55 431.4,-55 431.4,-74"/>
<text text-anchor="middle" x="410.4" y="-62" font-family="Helvetica,sans-Serif" font-size="10.00">array</text>
</a>
</g>
</g>
<!-- Node10&#45;&gt;Node11 -->
<g id="edge12_Node000010_Node000011" class="edge">
<title>Node10&#45;&gt;Node11</title>
<g id="a_edge12_Node000010_Node000011"><a xlink:title=" ">
<path fill="none" stroke="#63b8ff" d="M420.42,-109.75C418.83,-102.72 416.54,-92.62 414.55,-83.84"/>
<polygon fill="#63b8ff" stroke="#63b8ff" points="417.96,-83.07 412.34,-74.09 411.14,-84.62 417.96,-83.07"/>
</a>
</g>
</g>
</g>
</svg>
