<?xml version="1.0" encoding="UTF-8" standalone="no"?>
<!DOCTYPE svg PUBLIC "-//W3C//DTD SVG 1.1//EN"
 "http://www.w3.org/Graphics/SVG/1.1/DTD/svg11.dtd">
<!-- Generated by graphviz version 2.43.0 (0)
 -->
<!-- Title: App/Test/Source/Mesh_utest.cpp Pages: 1 -->
<svg width="917pt" height="368pt"
 viewBox="0.00 0.00 916.79 368.00" xmlns="http://www.w3.org/2000/svg" xmlns:xlink="http://www.w3.org/1999/xlink">
<g id="graph0" class="graph" transform="scale(1 1) rotate(0) translate(4 364)">
<title>App/Test/Source/Mesh_utest.cpp</title>
<!-- Node1 -->
<g id="Node000001" class="node">
<title>Node1</title>
<g id="a_Node000001"><a xlink:title=" ">
<polygon fill="#999999" stroke="#666666" points="593.29,-360 470.29,-360 470.29,-330 593.29,-330 593.29,-360"/>
<text text-anchor="start" x="478.29" y="-348" font-family="Helvetica,sans-Serif" font-size="10.00">App/Test/Source/Mesh</text>
<text text-anchor="middle" x="531.79" y="-337" font-family="Helvetica,sans-Serif" font-size="10.00">_utest.cpp</text>
</a>
</g>
</g>
<!-- Node2 -->
<g id="Node000002" class="node">
<title>Node2</title>
<g id="a_Node000002"><a xlink:href="ExtraDataType_8h.html" target="_top" xlink:title=" ">
<polygon fill="white" stroke="#666666" points="650.29,-184 495.29,-184 495.29,-165 650.29,-165 650.29,-184"/>
<text text-anchor="middle" x="572.79" y="-172" font-family="Helvetica,sans-Serif" font-size="10.00">Application/ExtraDataType.h</text>
</a>
</g>
</g>
<!-- Node1&#45;&gt;Node2 -->
<g id="edge1_Node000001_Node000002" class="edge">
<title>Node1&#45;&gt;Node2</title>
<g id="a_edge1_Node000001_Node000002"><a xlink:title=" ">
<path fill="none" stroke="#63b8ff" d="M558.55,-329.86C587.71,-312.76 632.75,-280.97 651.79,-239 662.36,-215.7 635.43,-198.38 610.19,-187.76"/>
<polygon fill="#63b8ff" stroke="#63b8ff" points="611.27,-184.43 600.69,-184.03 608.71,-190.94 611.27,-184.43"/>
</a>
</g>
</g>
<!-- Node11 -->
<g id="Node000011" class="node">
<title>Node11</title>
<g id="a_Node000011"><a xlink:href="Mesh_8h.html" target="_top" xlink:title=" ">
<polygon fill="white" stroke="#666666" points="439.79,-184 329.79,-184 329.79,-165 439.79,-165 439.79,-184"/>
<text text-anchor="middle" x="384.79" y="-172" font-family="Helvetica,sans-Serif" font-size="10.00">Application/Mesh.h</text>
</a>
</g>
</g>
<!-- Node1&#45;&gt;Node11 -->
<g id="edge10_Node000001_Node000011" class="edge">
<title>Node1&#45;&gt;Node11</title>
<g id="a_edge10_Node000001_Node000011"><a xlink:title=" ">
<path fill="none" stroke="#63b8ff" d="M470.12,-333.6C445.98,-326.42 420.19,-314.33 403.79,-294 380.65,-265.31 380.42,-219.68 382.48,-194.23"/>
<polygon fill="#63b8ff" stroke="#63b8ff" points="385.99,-194.39 383.52,-184.09 379.02,-193.68 385.99,-194.39"/>
</a>
</g>
</g>
<!-- Node18 -->
<g id="Node000018" class="node">
<title>Node18</title>
<g id="a_Node000018"><a xlink:href="MeshIntegrity_8h.html" target="_top" xlink:title=" ">
<polygon fill="white" stroke="#666666" points="233.29,-239 84.29,-239 84.29,-220 233.29,-220 233.29,-239"/>
<text text-anchor="middle" x="158.79" y="-227" font-family="Helvetica,sans-Serif" font-size="10.00">Application/MeshIntegrity.h</text>
</a>
</g>
</g>
<!-- Node1&#45;&gt;Node18 -->
<g id="edge21_Node000001_Node000018" class="edge">
<title>Node1&#45;&gt;Node18</title>
<g id="a_edge21_Node000001_Node000018"><a xlink:title=" ">
<path fill="none" stroke="#63b8ff" d="M470.21,-340.13C388.41,-334.06 249.18,-320.18 205.79,-294 188.04,-283.29 174.87,-263.1 167.06,-248.35"/>
<polygon fill="#63b8ff" stroke="#63b8ff" points="170.09,-246.59 162.51,-239.19 163.82,-249.7 170.09,-246.59"/>
</a>
</g>
</g>
<!-- Node19 -->
<g id="Node000019" class="node">
<title>Node19</title>
<g id="a_Node000019"><a xlink:href="MeshLoader_8h.html" target="_top" xlink:title=" ">
<polygon fill="white" stroke="#666666" points="356.79,-294 214.79,-294 214.79,-275 356.79,-275 356.79,-294"/>
<text text-anchor="middle" x="285.79" y="-282" font-family="Helvetica,sans-Serif" font-size="10.00">Application/MeshLoader.h</text>
</a>
</g>
</g>
<!-- Node1&#45;&gt;Node19 -->
<g id="edge24_Node000001_Node000019" class="edge">
<title>Node1&#45;&gt;Node19</title>
<g id="a_edge24_Node000001_Node000019"><a xlink:title=" ">
<path fill="none" stroke="#63b8ff" d="M472.87,-329.99C429.59,-319.7 371.62,-305.91 331.74,-296.43"/>
<polygon fill="#63b8ff" stroke="#63b8ff" points="332.3,-292.96 321.76,-294.05 330.68,-299.77 332.3,-292.96"/>
</a>
</g>
</g>
<!-- Node21 -->
<g id="Node000021" class="node">
<title>Node21</title>
<g id="a_Node000021"><a xlink:href="PrimitiveProxy_8h.html" target="_top" xlink:title=" ">
<polygon fill="white" stroke="#666666" points="642.79,-239 488.79,-239 488.79,-220 642.79,-220 642.79,-239"/>
<text text-anchor="middle" x="565.79" y="-227" font-family="Helvetica,sans-Serif" font-size="10.00">Application/PrimitiveProxy.h</text>
</a>
</g>
</g>
<!-- Node1&#45;&gt;Node21 -->
<g id="edge27_Node000001_Node000021" class="edge">
<title>Node1&#45;&gt;Node21</title>
<g id="a_edge27_Node000001_Node000021"><a xlink:title=" ">
<path fill="none" stroke="#63b8ff" d="M542.99,-329.58C549.73,-320.04 557.76,-306.95 561.79,-294 566.26,-279.63 567.11,-262.56 566.92,-249.74"/>
<polygon fill="#63b8ff" stroke="#63b8ff" points="570.4,-249.23 566.53,-239.36 563.41,-249.49 570.4,-249.23"/>
</a>
</g>
</g>
<!-- Node22 -->
<g id="Node000022" class="node">
<title>Node22</title>
<g id="a_Node000022"><a xlink:href="TestHelpers_8h.html" target="_top" xlink:title=" ">
<polygon fill="white" stroke="#666666" points="552.79,-294 412.79,-294 412.79,-275 552.79,-275 552.79,-294"/>
<text text-anchor="middle" x="482.79" y="-282" font-family="Helvetica,sans-Serif" font-size="10.00">Application/TestHelpers.h</text>
</a>
</g>
</g>
<!-- Node1&#45;&gt;Node22 -->
<g id="edge30_Node000001_Node000022" class="edge">
<title>Node1&#45;&gt;Node22</title>
<g id="a_edge30_Node000001_Node000022"><a xlink:title=" ">
<path fill="none" stroke="#63b8ff" d="M519.93,-329.84C512.89,-321.43 503.93,-310.74 496.58,-301.96"/>
<polygon fill="#63b8ff" stroke="#63b8ff" points="499.24,-299.68 490.13,-294.27 493.87,-304.18 499.24,-299.68"/>
</a>
</g>
</g>
<!-- Node23 -->
<g id="Node000023" class="node">
<title>Node23</title>
<g id="a_Node000023"><a xlink:href="MathHelpers_8h.html" target="_top" xlink:title=" ">
<polygon fill="white" stroke="#666666" points="812.29,-294 699.29,-294 699.29,-275 812.29,-275 812.29,-294"/>
<text text-anchor="middle" x="755.79" y="-282" font-family="Helvetica,sans-Serif" font-size="10.00">Core/MathHelpers.h</text>
</a>
</g>
</g>
<!-- Node1&#45;&gt;Node23 -->
<g id="edge34_Node000001_Node000023" class="edge">
<title>Node1&#45;&gt;Node23</title>
<g id="a_edge34_Node000001_Node000023"><a xlink:title=" ">
<path fill="none" stroke="#63b8ff" d="M585.44,-329.99C624.6,-319.76 676.97,-306.09 713.25,-296.61"/>
<polygon fill="#63b8ff" stroke="#63b8ff" points="714.25,-299.97 723.04,-294.05 712.48,-293.19 714.25,-299.97"/>
</a>
</g>
</g>
<!-- Node26 -->
<g id="Node000026" class="node">
<title>Node26</title>
<g id="a_Node000026"><a xlink:title=" ">
<polygon fill="#e0e0e0" stroke="#999999" points="908.79,-294 830.79,-294 830.79,-275 908.79,-275 908.79,-294"/>
<text text-anchor="middle" x="869.79" y="-282" font-family="Helvetica,sans-Serif" font-size="10.00">gtest/gtest.h</text>
</a>
</g>
</g>
<!-- Node1&#45;&gt;Node26 -->
<g id="edge38_Node000001_Node000026" class="edge">
<title>Node1&#45;&gt;Node26</title>
<g id="a_edge38_Node000001_Node000026"><a xlink:title=" ">
<path fill="none" stroke="#63b8ff" d="M593.47,-333.45C649.95,-323.77 736.16,-308.95 820.73,-294.18"/>
<polygon fill="#63b8ff" stroke="#63b8ff" points="821.51,-297.6 830.76,-292.43 820.31,-290.7 821.51,-297.6"/>
</a>
</g>
</g>
<!-- Node3 -->
<g id="Node000003" class="node">
<title>Node3</title>
<g id="a_Node000003"><a xlink:href="BaseType_8h.html" target="_top" xlink:title=" ">
<polygon fill="white" stroke="#666666" points="603.79,-74 505.79,-74 505.79,-55 603.79,-55 603.79,-74"/>
<text text-anchor="middle" x="554.79" y="-62" font-family="Helvetica,sans-Serif" font-size="10.00">Core/BaseType.h</text>
</a>
</g>
</g>
<!-- Node2&#45;&gt;Node3 -->
<g id="edge2_Node000002_Node000003" class="edge">
<title>Node2&#45;&gt;Node3</title>
<g id="a_edge2_Node000002_Node000003"><a xlink:title=" ">
<path fill="none" stroke="#63b8ff" d="M593.69,-165C617.59,-153.94 651.73,-133.28 637.79,-110 628.82,-95.01 612.88,-84.78 597.36,-77.95"/>
<polygon fill="#63b8ff" stroke="#63b8ff" points="598.39,-74.6 587.81,-74.13 595.79,-81.1 598.39,-74.6"/>
</a>
</g>
</g>
<!-- Node8 -->
<g id="Node000008" class="node">
<title>Node8</title>
<g id="a_Node000008"><a xlink:title=" ">
<polygon fill="#e0e0e0" stroke="#999999" points="434.79,-74 392.79,-74 392.79,-55 434.79,-55 434.79,-74"/>
<text text-anchor="middle" x="413.79" y="-62" font-family="Helvetica,sans-Serif" font-size="10.00">array</text>
</a>
</g>
</g>
<!-- Node2&#45;&gt;Node8 -->
<g id="edge7_Node000002_Node000008" class="edge">
<title>Node2&#45;&gt;Node8</title>
<g id="a_edge7_Node000002_Node000008"><a xlink:title=" ">
<path fill="none" stroke="#63b8ff" d="M570.08,-164.83C565.41,-151.26 554.61,-125.04 536.79,-110 510.44,-87.76 472.08,-76.24 445.22,-70.56"/>
<polygon fill="#63b8ff" stroke="#63b8ff" points="445.68,-67.08 435.19,-68.59 444.33,-73.95 445.68,-67.08"/>
</a>
</g>
</g>
<!-- Node9 -->
<g id="Node000009" class="node">
<title>Node9</title>
<g id="a_Node000009"><a xlink:title=" ">
<polygon fill="#e0e0e0" stroke="#999999" points="628.79,-129 584.79,-129 584.79,-110 628.79,-110 628.79,-129"/>
<text text-anchor="middle" x="606.79" y="-117" font-family="Helvetica,sans-Serif" font-size="10.00">string</text>
</a>
</g>
</g>
<!-- Node2&#45;&gt;Node9 -->
<g id="edge8_Node000002_Node000009" class="edge">
<title>Node2&#45;&gt;Node9</title>
<g id="a_edge8_Node000002_Node000009"><a xlink:title=" ">
<path fill="none" stroke="#63b8ff" d="M578.41,-164.75C583.11,-157.42 589.96,-146.73 595.76,-137.7"/>
<polygon fill="#63b8ff" stroke="#63b8ff" points="598.83,-139.4 601.28,-129.09 592.94,-135.62 598.83,-139.4"/>
</a>
</g>
</g>
<!-- Node10 -->
<g id="Node000010" class="node">
<title>Node10</title>
<g id="a_Node000010"><a xlink:title=" ">
<polygon fill="#e0e0e0" stroke="#999999" points="528.29,-129 481.29,-129 481.29,-110 528.29,-110 528.29,-129"/>
<text text-anchor="middle" x="504.79" y="-117" font-family="Helvetica,sans-Serif" font-size="10.00">vector</text>
</a>
</g>
</g>
<!-- Node2&#45;&gt;Node10 -->
<g id="edge9_Node000002_Node000010" class="edge">
<title>Node2&#45;&gt;Node10</title>
<g id="a_edge9_Node000002_Node000010"><a xlink:title=" ">
<path fill="none" stroke="#63b8ff" d="M561.87,-164.98C551.71,-157.07 536.37,-145.11 524.14,-135.58"/>
<polygon fill="#63b8ff" stroke="#63b8ff" points="525.95,-132.56 515.92,-129.17 521.65,-138.08 525.95,-132.56"/>
</a>
</g>
</g>
<!-- Node4 -->
<g id="Node000004" class="node">
<title>Node4</title>
<g id="a_Node000004"><a xlink:title=" ">
<polygon fill="#e0e0e0" stroke="#999999" points="672.79,-19 594.79,-19 594.79,0 672.79,0 672.79,-19"/>
<text text-anchor="middle" x="633.79" y="-7" font-family="Helvetica,sans-Serif" font-size="10.00">glm/glm.hpp</text>
</a>
</g>
</g>
<!-- Node3&#45;&gt;Node4 -->
<g id="edge3_Node000003_Node000004" class="edge">
<title>Node3&#45;&gt;Node4</title>
<g id="a_edge3_Node000003_Node000004"><a xlink:title=" ">
<path fill="none" stroke="#63b8ff" d="M567.48,-54.98C579.62,-46.84 598.15,-34.41 612.54,-24.76"/>
<polygon fill="#63b8ff" stroke="#63b8ff" points="614.51,-27.65 620.87,-19.17 610.61,-21.84 614.51,-27.65"/>
</a>
</g>
</g>
<!-- Node5 -->
<g id="Node000005" class="node">
<title>Node5</title>
<g id="a_Node000005"><a xlink:title=" ">
<polygon fill="#e0e0e0" stroke="#999999" points="514.29,-19 373.29,-19 373.29,0 514.29,0 514.29,-19"/>
<text text-anchor="middle" x="443.79" y="-7" font-family="Helvetica,sans-Serif" font-size="10.00">glm/gtx/vector_angle.hpp</text>
</a>
</g>
</g>
<!-- Node3&#45;&gt;Node5 -->
<g id="edge4_Node000003_Node000005" class="edge">
<title>Node3&#45;&gt;Node5</title>
<g id="a_edge4_Node000003_Node000005"><a xlink:title=" ">
<path fill="none" stroke="#63b8ff" d="M536.96,-54.98C519.18,-46.5 491.64,-33.35 471.11,-23.54"/>
<polygon fill="#63b8ff" stroke="#63b8ff" points="472.48,-20.32 461.95,-19.17 469.47,-26.64 472.48,-20.32"/>
</a>
</g>
</g>
<!-- Node6 -->
<g id="Node000006" class="node">
<title>Node6</title>
<g id="a_Node000006"><a xlink:title=" ">
<polygon fill="#e0e0e0" stroke="#999999" points="576.79,-19 532.79,-19 532.79,0 576.79,0 576.79,-19"/>
<text text-anchor="middle" x="554.79" y="-7" font-family="Helvetica,sans-Serif" font-size="10.00">bitset</text>
</a>
</g>
</g>
<!-- Node3&#45;&gt;Node6 -->
<g id="edge5_Node000003_Node000006" class="edge">
<title>Node3&#45;&gt;Node6</title>
<g id="a_edge5_Node000003_Node000006"><a xlink:title=" ">
<path fill="none" stroke="#63b8ff" d="M554.79,-54.75C554.79,-47.8 554.79,-37.85 554.79,-29.13"/>
<polygon fill="#63b8ff" stroke="#63b8ff" points="558.29,-29.09 554.79,-19.09 551.29,-29.09 558.29,-29.09"/>
</a>
</g>
</g>
<!-- Node7 -->
<g id="Node000007" class="node">
<title>Node7</title>
<g id="a_Node000007"><a xlink:title=" ">
<polygon fill="#e0e0e0" stroke="#999999" points="238.79,-19 188.79,-19 188.79,0 238.79,0 238.79,-19"/>
<text text-anchor="middle" x="213.79" y="-7" font-family="Helvetica,sans-Serif" font-size="10.00">cstdint</text>
</a>
</g>
</g>
<!-- Node3&#45;&gt;Node7 -->
<g id="edge6_Node000003_Node000007" class="edge">
<title>Node3&#45;&gt;Node7</title>
<g id="a_edge6_Node000003_Node000007"><a xlink:title=" ">
<path fill="none" stroke="#63b8ff" d="M505.57,-55.85C435.83,-45.01 309.96,-25.45 248.9,-15.96"/>
<polygon fill="#63b8ff" stroke="#63b8ff" points="249.4,-12.49 238.98,-14.41 248.32,-19.41 249.4,-12.49"/>
</a>
</g>
</g>
<!-- Node11&#45;&gt;Node3 -->
<g id="edge18_Node000011_Node000003" class="edge">
<title>Node11&#45;&gt;Node3</title>
<g id="a_edge18_Node000011_Node000003"><a xlink:title=" ">
<path fill="none" stroke="#63b8ff" d="M395.44,-164.98C411.51,-152.3 443.14,-128.02 471.79,-110 490.07,-98.5 511.58,-87.03 528.12,-78.61"/>
<polygon fill="#63b8ff" stroke="#63b8ff" points="529.87,-81.65 537.23,-74.03 526.72,-75.39 529.87,-81.65"/>
</a>
</g>
</g>
<!-- Node11&#45;&gt;Node10 -->
<g id="edge20_Node000011_Node000010" class="edge">
<title>Node11&#45;&gt;Node10</title>
<g id="a_edge20_Node000011_Node000010"><a xlink:title=" ">
<path fill="none" stroke="#63b8ff" d="M404.07,-164.98C423.46,-156.42 453.6,-143.11 475.86,-133.28"/>
<polygon fill="#63b8ff" stroke="#63b8ff" points="477.43,-136.41 485.16,-129.17 474.6,-130.01 477.43,-136.41"/>
</a>
</g>
</g>
<!-- Node12 -->
<g id="Node000012" class="node">
<title>Node12</title>
<g id="a_Node000012"><a xlink:href="ExtraDataContainer_8h.html" target="_top" xlink:title=" ">
<polygon fill="white" stroke="#666666" points="202.29,-129 23.29,-129 23.29,-110 202.29,-110 202.29,-129"/>
<text text-anchor="middle" x="112.79" y="-117" font-family="Helvetica,sans-Serif" font-size="10.00">Application/ExtraDataContainer.h</text>
</a>
</g>
</g>
<!-- Node11&#45;&gt;Node12 -->
<g id="edge11_Node000011_Node000012" class="edge">
<title>Node11&#45;&gt;Node12</title>
<g id="a_edge11_Node000011_Node000012"><a xlink:title=" ">
<path fill="none" stroke="#63b8ff" d="M341.09,-164.98C293.64,-155.74 217.82,-140.97 166.71,-131.01"/>
<polygon fill="#63b8ff" stroke="#63b8ff" points="167.32,-127.56 156.83,-129.08 165.98,-134.43 167.32,-127.56"/>
</a>
</g>
</g>
<!-- Node16 -->
<g id="Node000016" class="node">
<title>Node16</title>
<g id="a_Node000016"><a xlink:href="Primitive_8h.html" target="_top" xlink:title=" ">
<polygon fill="white" stroke="#666666" points="424.79,-129 296.79,-129 296.79,-110 424.79,-110 424.79,-129"/>
<text text-anchor="middle" x="360.79" y="-117" font-family="Helvetica,sans-Serif" font-size="10.00">Application/Primitive.h</text>
</a>
</g>
</g>
<!-- Node11&#45;&gt;Node16 -->
<g id="edge15_Node000011_Node000016" class="edge">
<title>Node11&#45;&gt;Node16</title>
<g id="a_edge15_Node000011_Node000016"><a xlink:title=" ">
<path fill="none" stroke="#63b8ff" d="M380.83,-164.75C377.58,-157.57 372.87,-147.18 368.84,-138.27"/>
<polygon fill="#63b8ff" stroke="#63b8ff" points="371.99,-136.75 364.68,-129.09 365.62,-139.64 371.99,-136.75"/>
</a>
</g>
</g>
<!-- Node17 -->
<g id="Node000017" class="node">
<title>Node17</title>
<g id="a_Node000017"><a xlink:title=" ">
<polygon fill="#e0e0e0" stroke="#999999" points="278.79,-129 220.79,-129 220.79,-110 278.79,-110 278.79,-129"/>
<text text-anchor="middle" x="249.79" y="-117" font-family="Helvetica,sans-Serif" font-size="10.00">memory</text>
</a>
</g>
</g>
<!-- Node11&#45;&gt;Node17 -->
<g id="edge19_Node000011_Node000017" class="edge">
<title>Node11&#45;&gt;Node17</title>
<g id="a_edge19_Node000011_Node000017"><a xlink:title=" ">
<path fill="none" stroke="#63b8ff" d="M363.1,-164.98C340.99,-156.3 306.47,-142.75 281.34,-132.88"/>
<polygon fill="#63b8ff" stroke="#63b8ff" points="282.46,-129.57 271.88,-129.17 279.9,-136.08 282.46,-129.57"/>
</a>
</g>
</g>
<!-- Node13 -->
<g id="Node000013" class="node">
<title>Node13</title>
<g id="a_Node000013"><a xlink:title=" ">
<polygon fill="#e0e0e0" stroke="#999999" points="252.29,-74 217.29,-74 217.29,-55 252.29,-55 252.29,-74"/>
<text text-anchor="middle" x="234.79" y="-62" font-family="Helvetica,sans-Serif" font-size="10.00">any</text>
</a>
</g>
</g>
<!-- Node12&#45;&gt;Node13 -->
<g id="edge12_Node000012_Node000013" class="edge">
<title>Node12&#45;&gt;Node13</title>
<g id="a_edge12_Node000012_Node000013"><a xlink:title=" ">
<path fill="none" stroke="#63b8ff" d="M132.39,-109.98C152.81,-101.11 184.95,-87.15 207.77,-77.24"/>
<polygon fill="#63b8ff" stroke="#63b8ff" points="209.44,-80.33 217.22,-73.13 206.65,-73.91 209.44,-80.33"/>
</a>
</g>
</g>
<!-- Node14 -->
<g id="Node000014" class="node">
<title>Node14</title>
<g id="a_Node000014"><a xlink:title=" ">
<polygon fill="#e0e0e0" stroke="#999999" points="88.29,-74 23.29,-74 23.29,-55 88.29,-55 88.29,-74"/>
<text text-anchor="middle" x="55.79" y="-62" font-family="Helvetica,sans-Serif" font-size="10.00">typeindex</text>
</a>
</g>
</g>
<!-- Node12&#45;&gt;Node14 -->
<g id="edge13_Node000012_Node000014" class="edge">
<title>Node12&#45;&gt;Node14</title>
<g id="a_edge13_Node000012_Node000014"><a xlink:title=" ">
<path fill="none" stroke="#63b8ff" d="M103.63,-109.98C95.29,-102.23 82.76,-90.58 72.61,-81.14"/>
<polygon fill="#63b8ff" stroke="#63b8ff" points="74.82,-78.42 65.12,-74.17 70.06,-83.54 74.82,-78.42"/>
</a>
</g>
</g>
<!-- Node15 -->
<g id="Node000015" class="node">
<title>Node15</title>
<g id="a_Node000015"><a xlink:title=" ">
<polygon fill="#e0e0e0" stroke="#999999" points="199.29,-74 106.29,-74 106.29,-55 199.29,-55 199.29,-74"/>
<text text-anchor="middle" x="152.79" y="-62" font-family="Helvetica,sans-Serif" font-size="10.00">unordered_map</text>
</a>
</g>
</g>
<!-- Node12&#45;&gt;Node15 -->
<g id="edge14_Node000012_Node000015" class="edge">
<title>Node12&#45;&gt;Node15</title>
<g id="a_edge14_Node000012_Node000015"><a xlink:title=" ">
<path fill="none" stroke="#63b8ff" d="M119.4,-109.75C125.05,-102.26 133.34,-91.28 140.24,-82.13"/>
<polygon fill="#63b8ff" stroke="#63b8ff" points="143.08,-84.18 146.31,-74.09 137.49,-79.96 143.08,-84.18"/>
</a>
</g>
</g>
<!-- Node16&#45;&gt;Node3 -->
<g id="edge16_Node000016_Node000003" class="edge">
<title>Node16&#45;&gt;Node3</title>
<g id="a_edge16_Node000016_Node000003"><a xlink:title=" ">
<path fill="none" stroke="#63b8ff" d="M391.96,-109.98C424.95,-100.97 477.19,-86.7 513.57,-76.76"/>
<polygon fill="#63b8ff" stroke="#63b8ff" points="514.65,-80.09 523.38,-74.08 512.81,-73.34 514.65,-80.09"/>
</a>
</g>
</g>
<!-- Node16&#45;&gt;Node8 -->
<g id="edge17_Node000016_Node000008" class="edge">
<title>Node16&#45;&gt;Node8</title>
<g id="a_edge17_Node000016_Node000008"><a xlink:title=" ">
<path fill="none" stroke="#63b8ff" d="M369.54,-109.75C377.26,-102.03 388.7,-90.6 398.01,-81.28"/>
<polygon fill="#63b8ff" stroke="#63b8ff" points="400.61,-83.64 405.2,-74.09 395.66,-78.69 400.61,-83.64"/>
</a>
</g>
</g>
<!-- Node18&#45;&gt;Node7 -->
<g id="edge23_Node000018_Node000007" class="edge">
<title>Node18&#45;&gt;Node7</title>
<g id="a_edge23_Node000018_Node000007"><a xlink:title=" ">
<path fill="none" stroke="#63b8ff" d="M133.95,-219.92C99.66,-206.57 39.18,-177.22 13.79,-129 -1.53,-99.9 -6.79,-80.66 13.79,-55 34.04,-29.75 126.55,-17.91 178.36,-13.18"/>
<polygon fill="#63b8ff" stroke="#63b8ff" points="178.8,-16.65 188.46,-12.3 178.19,-9.68 178.8,-16.65"/>
</a>
</g>
</g>
<!-- Node18&#45;&gt;Node11 -->
<g id="edge22_Node000018_Node000011" class="edge">
<title>Node18&#45;&gt;Node11</title>
<g id="a_edge22_Node000018_Node000011"><a xlink:title=" ">
<path fill="none" stroke="#63b8ff" d="M195.1,-219.98C234.03,-210.86 295.95,-196.33 338.39,-186.38"/>
<polygon fill="#63b8ff" stroke="#63b8ff" points="339.26,-189.77 348.2,-184.08 337.66,-182.96 339.26,-189.77"/>
</a>
</g>
</g>
<!-- Node19&#45;&gt;Node11 -->
<g id="edge25_Node000019_Node000011" class="edge">
<title>Node19&#45;&gt;Node11</title>
<g id="a_edge25_Node000019_Node000011"><a xlink:title=" ">
<path fill="none" stroke="#63b8ff" d="M294.22,-274.7C302.75,-265.76 316.28,-251.51 327.79,-239 342.44,-223.08 358.92,-204.67 370.38,-191.78"/>
<polygon fill="#63b8ff" stroke="#63b8ff" points="373.09,-193.99 377.11,-184.19 367.86,-189.35 373.09,-193.99"/>
</a>
</g>
</g>
<!-- Node20 -->
<g id="Node000020" class="node">
<title>Node20</title>
<g id="a_Node000020"><a xlink:title=" ">
<polygon fill="#e0e0e0" stroke="#999999" points="318.79,-239 250.79,-239 250.79,-220 318.79,-220 318.79,-239"/>
<text text-anchor="middle" x="284.79" y="-227" font-family="Helvetica,sans-Serif" font-size="10.00">filesystem</text>
</a>
</g>
</g>
<!-- Node19&#45;&gt;Node20 -->
<g id="edge26_Node000019_Node000020" class="edge">
<title>Node19&#45;&gt;Node20</title>
<g id="a_edge26_Node000019_Node000020"><a xlink:title=" ">
<path fill="none" stroke="#63b8ff" d="M285.63,-274.75C285.49,-267.8 285.31,-257.85 285.14,-249.13"/>
<polygon fill="#63b8ff" stroke="#63b8ff" points="288.64,-249.02 284.95,-239.09 281.64,-249.15 288.64,-249.02"/>
</a>
</g>
</g>
<!-- Node21&#45;&gt;Node3 -->
<g id="edge29_Node000021_Node000003" class="edge">
<title>Node21&#45;&gt;Node3</title>
<g id="a_edge29_Node000021_Node000003"><a xlink:title=" ">
<path fill="none" stroke="#63b8ff" d="M605.99,-219.87C625.48,-213.45 647.15,-202.48 658.79,-184 663.29,-176.86 659.17,-173.44 658.79,-165 657.68,-140.48 668.04,-129.98 653.79,-110 642.57,-94.27 624.47,-84 606.78,-77.35"/>
<polygon fill="#63b8ff" stroke="#63b8ff" points="607.64,-73.94 597.05,-74.01 605.37,-80.56 607.64,-73.94"/>
</a>
</g>
</g>
<!-- Node21&#45;&gt;Node11 -->
<g id="edge28_Node000021_Node000011" class="edge">
<title>Node21&#45;&gt;Node11</title>
<g id="a_edge28_Node000021_Node000011"><a xlink:title=" ">
<path fill="none" stroke="#63b8ff" d="M536.71,-219.98C506.19,-211.05 458.03,-196.94 424.13,-187.02"/>
<polygon fill="#63b8ff" stroke="#63b8ff" points="424.68,-183.53 414.1,-184.08 422.71,-190.25 424.68,-183.53"/>
</a>
</g>
</g>
<!-- Node22&#45;&gt;Node2 -->
<g id="edge31_Node000022_Node000002" class="edge">
<title>Node22&#45;&gt;Node2</title>
<g id="a_edge31_Node000022_Node000002"><a xlink:title=" ">
<path fill="none" stroke="#63b8ff" d="M479.5,-274.91C475.12,-261.92 469.08,-236.99 479.79,-220 489.52,-204.56 506.26,-194.35 522.88,-187.67"/>
<polygon fill="#63b8ff" stroke="#63b8ff" points="524.4,-190.84 532.59,-184.13 522,-184.26 524.4,-190.84"/>
</a>
</g>
</g>
<!-- Node22&#45;&gt;Node11 -->
<g id="edge32_Node000022_Node000011" class="edge">
<title>Node22&#45;&gt;Node11</title>
<g id="a_edge32_Node000022_Node000011"><a xlink:title=" ">
<path fill="none" stroke="#63b8ff" d="M474.77,-274.66C458.32,-256.54 420.55,-214.91 399.55,-191.77"/>
<polygon fill="#63b8ff" stroke="#63b8ff" points="401.96,-189.21 392.65,-184.16 396.78,-193.92 401.96,-189.21"/>
</a>
</g>
</g>
<!-- Node22&#45;&gt;Node21 -->
<g id="edge33_Node000022_Node000021" class="edge">
<title>Node22&#45;&gt;Node21</title>
<g id="a_edge33_Node000022_Node000021"><a xlink:title=" ">
<path fill="none" stroke="#63b8ff" d="M496.13,-274.98C508.88,-266.84 528.34,-254.41 543.46,-244.76"/>
<polygon fill="#63b8ff" stroke="#63b8ff" points="545.67,-247.5 552.21,-239.17 541.9,-241.6 545.67,-247.5"/>
</a>
</g>
</g>
<!-- Node23&#45;&gt;Node3 -->
<g id="edge35_Node000023_Node000003" class="edge">
<title>Node23&#45;&gt;Node3</title>
<g id="a_edge35_Node000023_Node000003"><a xlink:title=" ">
<path fill="none" stroke="#63b8ff" d="M754.01,-274.93C747.82,-247.11 724.6,-158.38 671.79,-110 654.35,-94.02 630.59,-83.59 609.04,-76.87"/>
<polygon fill="#63b8ff" stroke="#63b8ff" points="609.91,-73.48 599.33,-74.04 607.95,-80.2 609.91,-73.48"/>
</a>
</g>
</g>
<!-- Node24 -->
<g id="Node000024" class="node">
<title>Node24</title>
<g id="a_Node000024"><a xlink:title=" ">
<polygon fill="#e0e0e0" stroke="#999999" points="808.29,-239 761.29,-239 761.29,-220 808.29,-220 808.29,-239"/>
<text text-anchor="middle" x="784.79" y="-227" font-family="Helvetica,sans-Serif" font-size="10.00">cmath</text>
</a>
</g>
</g>
<!-- Node23&#45;&gt;Node24 -->
<g id="edge36_Node000023_Node000024" class="edge">
<title>Node23&#45;&gt;Node24</title>
<g id="a_edge36_Node000023_Node000024"><a xlink:title=" ">
<path fill="none" stroke="#63b8ff" d="M760.58,-274.75C764.55,-267.49 770.32,-256.95 775.23,-247.98"/>
<polygon fill="#63b8ff" stroke="#63b8ff" points="778.36,-249.54 780.09,-239.09 772.22,-246.18 778.36,-249.54"/>
</a>
</g>
</g>
<!-- Node25 -->
<g id="Node000025" class="node">
<title>Node25</title>
<g id="a_Node000025"><a xlink:title=" ">
<polygon fill="#e0e0e0" stroke="#999999" points="870.79,-239 826.79,-239 826.79,-220 870.79,-220 870.79,-239"/>
<text text-anchor="middle" x="848.79" y="-227" font-family="Helvetica,sans-Serif" font-size="10.00">limits</text>
</a>
</g>
</g>
<!-- Node23&#45;&gt;Node25 -->
<g id="edge37_Node000023_Node000025" class="edge">
<title>Node23&#45;&gt;Node25</title>
<g id="a_edge37_Node000023_Node000025"><a xlink:title=" ">
<path fill="none" stroke="#63b8ff" d="M770.73,-274.98C785.29,-266.69 807.66,-253.94 824.72,-244.22"/>
<polygon fill="#63b8ff" stroke="#63b8ff" points="826.62,-247.16 833.58,-239.17 823.16,-241.08 826.62,-247.16"/>
</a>
</g>
</g>
</g>
</svg>
