<?xml version="1.0" encoding="UTF-8" standalone="no"?>
<!DOCTYPE svg PUBLIC "-//W3C//DTD SVG 1.1//EN"
 "http://www.w3.org/Graphics/SVG/1.1/DTD/svg11.dtd">
<!-- Generated by graphviz version 2.43.0 (0)
 -->
<!-- Title: App/Test/Source/MeshIntegrity_utest.cpp Pages: 1 -->
<svg width="576pt" height="368pt"
 viewBox="0.00 0.00 576.25 368.00" xmlns="http://www.w3.org/2000/svg" xmlns:xlink="http://www.w3.org/1999/xlink">
<g id="graph0" class="graph" transform="scale(1 1) rotate(0) translate(4 364)">
<title>App/Test/Source/MeshIntegrity_utest.cpp</title>
<!-- Node1 -->
<g id="Node000001" class="node">
<title>Node1</title>
<g id="a_Node000001"><a xlink:title=" ">
<polygon fill="#999999" stroke="#666666" points="318.75,-360 154.75,-360 154.75,-330 318.75,-330 318.75,-360"/>
<text text-anchor="start" x="162.75" y="-348" font-family="Helvetica,sans-Serif" font-size="10.00">App/Test/Source/MeshIntegrity</text>
<text text-anchor="middle" x="236.75" y="-337" font-family="Helvetica,sans-Serif" font-size="10.00">_utest.cpp</text>
</a>
</g>
</g>
<!-- Node2 -->
<g id="Node000002" class="node">
<title>Node2</title>
<g id="a_Node000002"><a xlink:href="MeshIntegrity_8h.html" target="_top" xlink:title=" ">
<polygon fill="white" stroke="#666666" points="209.25,-239 60.25,-239 60.25,-220 209.25,-220 209.25,-239"/>
<text text-anchor="middle" x="134.75" y="-227" font-family="Helvetica,sans-Serif" font-size="10.00">Application/MeshIntegrity.h</text>
</a>
</g>
</g>
<!-- Node1&#45;&gt;Node2 -->
<g id="edge1_Node000001_Node000002" class="edge">
<title>Node1&#45;&gt;Node2</title>
<g id="a_edge1_Node000001_Node000002"><a xlink:title=" ">
<path fill="none" stroke="#63b8ff" d="M204.67,-329.93C188.67,-321.51 170.15,-309.43 157.75,-294 147.3,-281.01 141.36,-262.86 138.15,-249.29"/>
<polygon fill="#63b8ff" stroke="#63b8ff" points="141.51,-248.26 136.05,-239.18 134.66,-249.68 141.51,-248.26"/>
</a>
</g>
</g>
<!-- Node15 -->
<g id="Node000015" class="node">
<title>Node15</title>
<g id="a_Node000015"><a xlink:href="TestHelpers_8h.html" target="_top" xlink:title=" ">
<polygon fill="white" stroke="#666666" points="306.75,-294 166.75,-294 166.75,-275 306.75,-275 306.75,-294"/>
<text text-anchor="middle" x="236.75" y="-282" font-family="Helvetica,sans-Serif" font-size="10.00">Application/TestHelpers.h</text>
</a>
</g>
</g>
<!-- Node1&#45;&gt;Node15 -->
<g id="edge16_Node000001_Node000015" class="edge">
<title>Node1&#45;&gt;Node15</title>
<g id="a_edge16_Node000001_Node000015"><a xlink:title=" ">
<path fill="none" stroke="#63b8ff" d="M236.75,-329.84C236.75,-322.21 236.75,-312.7 236.75,-304.45"/>
<polygon fill="#63b8ff" stroke="#63b8ff" points="240.25,-304.27 236.75,-294.27 233.25,-304.27 240.25,-304.27"/>
</a>
</g>
</g>
<!-- Node17 -->
<g id="Node000017" class="node">
<title>Node17</title>
<g id="a_Node000017"><a xlink:title=" ">
<polygon fill="#e0e0e0" stroke="#999999" points="402.75,-294 324.75,-294 324.75,-275 402.75,-275 402.75,-294"/>
<text text-anchor="middle" x="363.75" y="-282" font-family="Helvetica,sans-Serif" font-size="10.00">gtest/gtest.h</text>
</a>
</g>
</g>
<!-- Node1&#45;&gt;Node17 -->
<g id="edge21_Node000001_Node000017" class="edge">
<title>Node1&#45;&gt;Node17</title>
<g id="a_edge21_Node000001_Node000017"><a xlink:title=" ">
<path fill="none" stroke="#63b8ff" d="M267.17,-329.99C287.98,-320.4 315.36,-307.79 335.66,-298.44"/>
<polygon fill="#63b8ff" stroke="#63b8ff" points="337.37,-301.5 344.99,-294.14 334.44,-295.14 337.37,-301.5"/>
</a>
</g>
</g>
<!-- Node3 -->
<g id="Node000003" class="node">
<title>Node3</title>
<g id="a_Node000003"><a xlink:href="Mesh_8h.html" target="_top" xlink:title=" ">
<polygon fill="white" stroke="#666666" points="291.75,-184 181.75,-184 181.75,-165 291.75,-165 291.75,-184"/>
<text text-anchor="middle" x="236.75" y="-172" font-family="Helvetica,sans-Serif" font-size="10.00">Application/Mesh.h</text>
</a>
</g>
</g>
<!-- Node2&#45;&gt;Node3 -->
<g id="edge2_Node000002_Node000003" class="edge">
<title>Node2&#45;&gt;Node3</title>
<g id="a_edge2_Node000002_Node000003"><a xlink:title=" ">
<path fill="none" stroke="#63b8ff" d="M151.13,-219.98C167.32,-211.57 192.32,-198.59 211.13,-188.81"/>
<polygon fill="#63b8ff" stroke="#63b8ff" points="212.8,-191.89 220.06,-184.17 209.57,-185.68 212.8,-191.89"/>
</a>
</g>
</g>
<!-- Node6 -->
<g id="Node000006" class="node">
<title>Node6</title>
<g id="a_Node000006"><a xlink:title=" ">
<polygon fill="#e0e0e0" stroke="#999999" points="68.75,-19 18.75,-19 18.75,0 68.75,0 68.75,-19"/>
<text text-anchor="middle" x="43.75" y="-7" font-family="Helvetica,sans-Serif" font-size="10.00">cstdint</text>
</a>
</g>
</g>
<!-- Node2&#45;&gt;Node6 -->
<g id="edge15_Node000002_Node000006" class="edge">
<title>Node2&#45;&gt;Node6</title>
<g id="a_edge15_Node000002_Node000006"><a xlink:title=" ">
<path fill="none" stroke="#63b8ff" d="M114.33,-219.94C84.08,-206 28.46,-175.2 5.75,-129 -11.17,-94.6 13.62,-50.95 30.43,-27.41"/>
<polygon fill="#63b8ff" stroke="#63b8ff" points="33.41,-29.27 36.58,-19.16 27.8,-25.08 33.41,-29.27"/>
</a>
</g>
</g>
<!-- Node4 -->
<g id="Node000004" class="node">
<title>Node4</title>
<g id="a_Node000004"><a xlink:href="BaseType_8h.html" target="_top" xlink:title=" ">
<polygon fill="white" stroke="#666666" points="274.75,-74 144.75,-74 144.75,-55 274.75,-55 274.75,-74"/>
<text text-anchor="middle" x="209.75" y="-62" font-family="Helvetica,sans-Serif" font-size="10.00">Application/BaseType.h</text>
</a>
</g>
</g>
<!-- Node3&#45;&gt;Node4 -->
<g id="edge3_Node000003_Node000004" class="edge">
<title>Node3&#45;&gt;Node4</title>
<g id="a_edge3_Node000003_Node000004"><a xlink:title=" ">
<path fill="none" stroke="#63b8ff" d="M234.54,-164.66C230.14,-147.09 220.23,-107.45 214.36,-83.95"/>
<polygon fill="#63b8ff" stroke="#63b8ff" points="217.73,-83.01 211.91,-74.16 210.94,-84.71 217.73,-83.01"/>
</a>
</g>
</g>
<!-- Node7 -->
<g id="Node000007" class="node">
<title>Node7</title>
<g id="a_Node000007"><a xlink:href="ExtraDataContainer_8h.html" target="_top" xlink:title=" ">
<polygon fill="white" stroke="#666666" points="558.25,-129 379.25,-129 379.25,-110 558.25,-110 558.25,-129"/>
<text text-anchor="middle" x="468.75" y="-117" font-family="Helvetica,sans-Serif" font-size="10.00">Application/ExtraDataContainer.h</text>
</a>
</g>
</g>
<!-- Node3&#45;&gt;Node7 -->
<g id="edge6_Node000003_Node000007" class="edge">
<title>Node3&#45;&gt;Node7</title>
<g id="a_edge6_Node000003_Node000007"><a xlink:title=" ">
<path fill="none" stroke="#63b8ff" d="M274.02,-164.98C314.07,-155.84 377.81,-141.27 421.39,-131.32"/>
<polygon fill="#63b8ff" stroke="#63b8ff" points="422.21,-134.72 431.18,-129.08 420.65,-127.9 422.21,-134.72"/>
</a>
</g>
</g>
<!-- Node11 -->
<g id="Node000011" class="node">
<title>Node11</title>
<g id="a_Node000011"><a xlink:href="Primitive_8h.html" target="_top" xlink:title=" ">
<polygon fill="white" stroke="#666666" points="142.75,-129 14.75,-129 14.75,-110 142.75,-110 142.75,-129"/>
<text text-anchor="middle" x="78.75" y="-117" font-family="Helvetica,sans-Serif" font-size="10.00">Application/Primitive.h</text>
</a>
</g>
</g>
<!-- Node3&#45;&gt;Node11 -->
<g id="edge10_Node000003_Node000011" class="edge">
<title>Node3&#45;&gt;Node11</title>
<g id="a_edge10_Node000003_Node000011"><a xlink:title=" ">
<path fill="none" stroke="#63b8ff" d="M211.36,-164.98C184.95,-156.13 143.4,-142.19 113.85,-132.28"/>
<polygon fill="#63b8ff" stroke="#63b8ff" points="114.92,-128.94 104.33,-129.08 112.7,-135.58 114.92,-128.94"/>
</a>
</g>
</g>
<!-- Node13 -->
<g id="Node000013" class="node">
<title>Node13</title>
<g id="a_Node000013"><a xlink:title=" ">
<polygon fill="#e0e0e0" stroke="#999999" points="322.75,-129 264.75,-129 264.75,-110 322.75,-110 322.75,-129"/>
<text text-anchor="middle" x="293.75" y="-117" font-family="Helvetica,sans-Serif" font-size="10.00">memory</text>
</a>
</g>
</g>
<!-- Node3&#45;&gt;Node13 -->
<g id="edge13_Node000003_Node000013" class="edge">
<title>Node3&#45;&gt;Node13</title>
<g id="a_edge13_Node000003_Node000013"><a xlink:title=" ">
<path fill="none" stroke="#63b8ff" d="M245.9,-164.98C254.25,-157.23 266.78,-145.58 276.92,-136.14"/>
<polygon fill="#63b8ff" stroke="#63b8ff" points="279.48,-138.54 284.42,-129.17 274.71,-133.42 279.48,-138.54"/>
</a>
</g>
</g>
<!-- Node14 -->
<g id="Node000014" class="node">
<title>Node14</title>
<g id="a_Node000014"><a xlink:title=" ">
<polygon fill="#e0e0e0" stroke="#999999" points="208.25,-129 161.25,-129 161.25,-110 208.25,-110 208.25,-129"/>
<text text-anchor="middle" x="184.75" y="-117" font-family="Helvetica,sans-Serif" font-size="10.00">vector</text>
</a>
</g>
</g>
<!-- Node3&#45;&gt;Node14 -->
<g id="edge14_Node000003_Node000014" class="edge">
<title>Node3&#45;&gt;Node14</title>
<g id="a_edge14_Node000003_Node000014"><a xlink:title=" ">
<path fill="none" stroke="#63b8ff" d="M228.16,-164.75C220.59,-157.03 209.37,-145.6 200.23,-136.28"/>
<polygon fill="#63b8ff" stroke="#63b8ff" points="202.67,-133.78 193.17,-129.09 197.68,-138.68 202.67,-133.78"/>
</a>
</g>
</g>
<!-- Node5 -->
<g id="Node000005" class="node">
<title>Node5</title>
<g id="a_Node000005"><a xlink:title=" ">
<polygon fill="#e0e0e0" stroke="#999999" points="248.75,-19 170.75,-19 170.75,0 248.75,0 248.75,-19"/>
<text text-anchor="middle" x="209.75" y="-7" font-family="Helvetica,sans-Serif" font-size="10.00">glm/glm.hpp</text>
</a>
</g>
</g>
<!-- Node4&#45;&gt;Node5 -->
<g id="edge4_Node000004_Node000005" class="edge">
<title>Node4&#45;&gt;Node5</title>
<g id="a_edge4_Node000004_Node000005"><a xlink:title=" ">
<path fill="none" stroke="#63b8ff" d="M209.75,-54.75C209.75,-47.8 209.75,-37.85 209.75,-29.13"/>
<polygon fill="#63b8ff" stroke="#63b8ff" points="213.25,-29.09 209.75,-19.09 206.25,-29.09 213.25,-29.09"/>
</a>
</g>
</g>
<!-- Node4&#45;&gt;Node6 -->
<g id="edge5_Node000004_Node000006" class="edge">
<title>Node4&#45;&gt;Node6</title>
<g id="a_edge5_Node000004_Node000006"><a xlink:title=" ">
<path fill="none" stroke="#63b8ff" d="M183.08,-54.98C154.71,-45.93 109.72,-31.57 78.58,-21.62"/>
<polygon fill="#63b8ff" stroke="#63b8ff" points="79.58,-18.27 68.99,-18.56 77.45,-24.94 79.58,-18.27"/>
</a>
</g>
</g>
<!-- Node8 -->
<g id="Node000008" class="node">
<title>Node8</title>
<g id="a_Node000008"><a xlink:title=" ">
<polygon fill="#e0e0e0" stroke="#999999" points="568.25,-74 533.25,-74 533.25,-55 568.25,-55 568.25,-74"/>
<text text-anchor="middle" x="550.75" y="-62" font-family="Helvetica,sans-Serif" font-size="10.00">any</text>
</a>
</g>
</g>
<!-- Node7&#45;&gt;Node8 -->
<g id="edge7_Node000007_Node000008" class="edge">
<title>Node7&#45;&gt;Node8</title>
<g id="a_edge7_Node000007_Node000008"><a xlink:title=" ">
<path fill="none" stroke="#63b8ff" d="M481.92,-109.98C494.52,-101.84 513.75,-89.41 528.69,-79.76"/>
<polygon fill="#63b8ff" stroke="#63b8ff" points="530.83,-82.54 537.33,-74.17 527.03,-76.66 530.83,-82.54"/>
</a>
</g>
</g>
<!-- Node9 -->
<g id="Node000009" class="node">
<title>Node9</title>
<g id="a_Node000009"><a xlink:title=" ">
<polygon fill="#e0e0e0" stroke="#999999" points="404.25,-74 339.25,-74 339.25,-55 404.25,-55 404.25,-74"/>
<text text-anchor="middle" x="371.75" y="-62" font-family="Helvetica,sans-Serif" font-size="10.00">typeindex</text>
</a>
</g>
</g>
<!-- Node7&#45;&gt;Node9 -->
<g id="edge8_Node000007_Node000009" class="edge">
<title>Node7&#45;&gt;Node9</title>
<g id="a_edge8_Node000007_Node000009"><a xlink:title=" ">
<path fill="none" stroke="#63b8ff" d="M453.16,-109.98C437.98,-101.69 414.65,-88.94 396.85,-79.22"/>
<polygon fill="#63b8ff" stroke="#63b8ff" points="398.07,-75.89 387.61,-74.17 394.71,-82.04 398.07,-75.89"/>
</a>
</g>
</g>
<!-- Node10 -->
<g id="Node000010" class="node">
<title>Node10</title>
<g id="a_Node000010"><a xlink:title=" ">
<polygon fill="#e0e0e0" stroke="#999999" points="515.25,-74 422.25,-74 422.25,-55 515.25,-55 515.25,-74"/>
<text text-anchor="middle" x="468.75" y="-62" font-family="Helvetica,sans-Serif" font-size="10.00">unordered_map</text>
</a>
</g>
</g>
<!-- Node7&#45;&gt;Node10 -->
<g id="edge9_Node000007_Node000010" class="edge">
<title>Node7&#45;&gt;Node10</title>
<g id="a_edge9_Node000007_Node000010"><a xlink:title=" ">
<path fill="none" stroke="#63b8ff" d="M468.75,-109.75C468.75,-102.8 468.75,-92.85 468.75,-84.13"/>
<polygon fill="#63b8ff" stroke="#63b8ff" points="472.25,-84.09 468.75,-74.09 465.25,-84.09 472.25,-84.09"/>
</a>
</g>
</g>
<!-- Node11&#45;&gt;Node4 -->
<g id="edge11_Node000011_Node000004" class="edge">
<title>Node11&#45;&gt;Node4</title>
<g id="a_edge11_Node000011_Node000004"><a xlink:title=" ">
<path fill="none" stroke="#63b8ff" d="M99.79,-109.98C121.15,-101.34 154.45,-87.87 178.81,-78.02"/>
<polygon fill="#63b8ff" stroke="#63b8ff" points="180.36,-81.17 188.32,-74.17 177.73,-74.68 180.36,-81.17"/>
</a>
</g>
</g>
<!-- Node12 -->
<g id="Node000012" class="node">
<title>Node12</title>
<g id="a_Node000012"><a xlink:title=" ">
<polygon fill="#e0e0e0" stroke="#999999" points="99.75,-74 57.75,-74 57.75,-55 99.75,-55 99.75,-74"/>
<text text-anchor="middle" x="78.75" y="-62" font-family="Helvetica,sans-Serif" font-size="10.00">array</text>
</a>
</g>
</g>
<!-- Node11&#45;&gt;Node12 -->
<g id="edge12_Node000011_Node000012" class="edge">
<title>Node11&#45;&gt;Node12</title>
<g id="a_edge12_Node000011_Node000012"><a xlink:title=" ">
<path fill="none" stroke="#63b8ff" d="M78.75,-109.75C78.75,-102.8 78.75,-92.85 78.75,-84.13"/>
<polygon fill="#63b8ff" stroke="#63b8ff" points="82.25,-84.09 78.75,-74.09 75.25,-84.09 82.25,-84.09"/>
</a>
</g>
</g>
<!-- Node15&#45;&gt;Node3 -->
<g id="edge17_Node000015_Node000003" class="edge">
<title>Node15&#45;&gt;Node3</title>
<g id="a_edge17_Node000015_Node000003"><a xlink:title=" ">
<path fill="none" stroke="#63b8ff" d="M236.75,-274.66C236.75,-257.17 236.75,-217.8 236.75,-194.27"/>
<polygon fill="#63b8ff" stroke="#63b8ff" points="240.25,-194.16 236.75,-184.16 233.25,-194.16 240.25,-194.16"/>
</a>
</g>
</g>
<!-- Node16 -->
<g id="Node000016" class="node">
<title>Node16</title>
<g id="a_Node000016"><a xlink:href="PrimitiveProxy_8h.html" target="_top" xlink:title=" ">
<polygon fill="white" stroke="#666666" points="418.75,-239 264.75,-239 264.75,-220 418.75,-220 418.75,-239"/>
<text text-anchor="middle" x="341.75" y="-227" font-family="Helvetica,sans-Serif" font-size="10.00">Application/PrimitiveProxy.h</text>
</a>
</g>
</g>
<!-- Node15&#45;&gt;Node16 -->
<g id="edge18_Node000015_Node000016" class="edge">
<title>Node15&#45;&gt;Node16</title>
<g id="a_edge18_Node000015_Node000016"><a xlink:title=" ">
<path fill="none" stroke="#63b8ff" d="M253.62,-274.98C270.35,-266.54 296.24,-253.47 315.64,-243.68"/>
<polygon fill="#63b8ff" stroke="#63b8ff" points="317.22,-246.8 324.57,-239.17 314.06,-240.55 317.22,-246.8"/>
</a>
</g>
</g>
<!-- Node16&#45;&gt;Node3 -->
<g id="edge20_Node000016_Node000003" class="edge">
<title>Node16&#45;&gt;Node3</title>
<g id="a_edge20_Node000016_Node000003"><a xlink:title=" ">
<path fill="none" stroke="#63b8ff" d="M324.88,-219.98C308.14,-211.54 282.25,-198.47 262.85,-188.68"/>
<polygon fill="#63b8ff" stroke="#63b8ff" points="264.43,-185.55 253.92,-184.17 261.27,-191.8 264.43,-185.55"/>
</a>
</g>
</g>
<!-- Node16&#45;&gt;Node4 -->
<g id="edge19_Node000016_Node000004" class="edge">
<title>Node16&#45;&gt;Node4</title>
<g id="a_edge19_Node000016_Node000004"><a xlink:title=" ">
<path fill="none" stroke="#63b8ff" d="M343.84,-219.96C348.49,-198.84 357.32,-143.46 331.75,-110 319.45,-93.91 300.76,-83.63 281.68,-77.07"/>
<polygon fill="#63b8ff" stroke="#63b8ff" points="282.59,-73.69 272.01,-74.05 280.51,-80.37 282.59,-73.69"/>
</a>
</g>
</g>
</g>
</svg>
