<?xml version="1.0" encoding="UTF-8" standalone="no"?>
<!DOCTYPE svg PUBLIC "-//W3C//DTD SVG 1.1//EN"
 "http://www.w3.org/Graphics/SVG/1.1/DTD/svg11.dtd">
<!-- Generated by graphviz version 2.43.0 (0)
 -->
<!-- Title: App/Test/Source/MeshLoader_utest.cpp Pages: 1 -->
<svg width="916pt" height="313pt"
 viewBox="0.00 0.00 916.21 313.00" xmlns="http://www.w3.org/2000/svg" xmlns:xlink="http://www.w3.org/1999/xlink">
<g id="graph0" class="graph" transform="scale(1 1) rotate(0) translate(4 309)">
<title>App/Test/Source/MeshLoader_utest.cpp</title>
<!-- Node1 -->
<g id="Node000001" class="node">
<title>Node1</title>
<g id="a_Node000001"><a xlink:title=" ">
<polygon fill="#999999" stroke="#666666" points="569.21,-305 413.21,-305 413.21,-275 569.21,-275 569.21,-305"/>
<text text-anchor="start" x="421.21" y="-293" font-family="Helvetica,sans-Serif" font-size="10.00">App/Test/Source/MeshLoader</text>
<text text-anchor="middle" x="491.21" y="-282" font-family="Helvetica,sans-Serif" font-size="10.00">_utest.cpp</text>
</a>
</g>
</g>
<!-- Node2 -->
<g id="Node000002" class="node">
<title>Node2</title>
<g id="a_Node000002"><a xlink:href="ExtraDataType_8h.html" target="_top" xlink:title=" ">
<polygon fill="white" stroke="#666666" points="162.71,-184 7.71,-184 7.71,-165 162.71,-165 162.71,-184"/>
<text text-anchor="middle" x="85.21" y="-172" font-family="Helvetica,sans-Serif" font-size="10.00">Application/ExtraDataType.h</text>
</a>
</g>
</g>
<!-- Node1&#45;&gt;Node2 -->
<g id="edge1_Node000001_Node000002" class="edge">
<title>Node1&#45;&gt;Node2</title>
<g id="a_edge1_Node000001_Node000002"><a xlink:title=" ">
<path fill="none" stroke="#63b8ff" d="M413.13,-282.46C329.05,-274.51 201.39,-259.57 157.21,-239 133.71,-228.06 112.2,-206.99 98.93,-192.12"/>
<polygon fill="#63b8ff" stroke="#63b8ff" points="101.29,-189.5 92.11,-184.21 95.99,-194.07 101.29,-189.5"/>
</a>
</g>
</g>
<!-- Node11 -->
<g id="Node000011" class="node">
<title>Node11</title>
<g id="a_Node000011"><a xlink:href="MathHelpers_8h.html" target="_top" xlink:title=" ">
<polygon fill="white" stroke="#666666" points="812.21,-239 666.21,-239 666.21,-220 812.21,-220 812.21,-239"/>
<text text-anchor="middle" x="739.21" y="-227" font-family="Helvetica,sans-Serif" font-size="10.00">Application/MathHelpers.h</text>
</a>
</g>
</g>
<!-- Node1&#45;&gt;Node11 -->
<g id="edge10_Node000001_Node000011" class="edge">
<title>Node1&#45;&gt;Node11</title>
<g id="a_edge10_Node000001_Node000011"><a xlink:title=" ">
<path fill="none" stroke="#63b8ff" d="M550.61,-274.99C594.34,-264.67 652.93,-250.85 693.14,-241.37"/>
<polygon fill="#63b8ff" stroke="#63b8ff" points="694.02,-244.76 702.95,-239.05 692.41,-237.94 694.02,-244.76"/>
</a>
</g>
</g>
<!-- Node14 -->
<g id="Node000014" class="node">
<title>Node14</title>
<g id="a_Node000014"><a xlink:href="MeshIntegrity_8h.html" target="_top" xlink:title=" ">
<polygon fill="white" stroke="#666666" points="647.71,-239 498.71,-239 498.71,-220 647.71,-220 647.71,-239"/>
<text text-anchor="middle" x="573.21" y="-227" font-family="Helvetica,sans-Serif" font-size="10.00">Application/MeshIntegrity.h</text>
</a>
</g>
</g>
<!-- Node1&#45;&gt;Node14 -->
<g id="edge14_Node000001_Node000014" class="edge">
<title>Node1&#45;&gt;Node14</title>
<g id="a_edge14_Node000001_Node000014"><a xlink:title=" ">
<path fill="none" stroke="#63b8ff" d="M511.06,-274.84C523.69,-265.83 540.01,-254.18 552.76,-245.09"/>
<polygon fill="#63b8ff" stroke="#63b8ff" points="554.81,-247.92 560.92,-239.27 550.75,-242.22 554.81,-247.92"/>
</a>
</g>
</g>
<!-- Node22 -->
<g id="Node000022" class="node">
<title>Node22</title>
<g id="a_Node000022"><a xlink:href="MeshLoader_8h.html" target="_top" xlink:title=" ">
<polygon fill="white" stroke="#666666" points="480.21,-239 338.21,-239 338.21,-220 480.21,-220 480.21,-239"/>
<text text-anchor="middle" x="409.21" y="-227" font-family="Helvetica,sans-Serif" font-size="10.00">Application/MeshLoader.h</text>
</a>
</g>
</g>
<!-- Node1&#45;&gt;Node22 -->
<g id="edge27_Node000001_Node000022" class="edge">
<title>Node1&#45;&gt;Node22</title>
<g id="a_edge27_Node000001_Node000022"><a xlink:title=" ">
<path fill="none" stroke="#63b8ff" d="M471.36,-274.84C458.73,-265.83 442.41,-254.18 429.66,-245.09"/>
<polygon fill="#63b8ff" stroke="#63b8ff" points="431.67,-242.22 421.5,-239.27 427.6,-247.92 431.67,-242.22"/>
</a>
</g>
</g>
<!-- Node24 -->
<g id="Node000024" class="node">
<title>Node24</title>
<g id="a_Node000024"><a xlink:href="PrimitiveProxy_8h.html" target="_top" xlink:title=" ">
<polygon fill="white" stroke="#666666" points="320.21,-239 166.21,-239 166.21,-220 320.21,-220 320.21,-239"/>
<text text-anchor="middle" x="243.21" y="-227" font-family="Helvetica,sans-Serif" font-size="10.00">Application/PrimitiveProxy.h</text>
</a>
</g>
</g>
<!-- Node1&#45;&gt;Node24 -->
<g id="edge30_Node000001_Node000024" class="edge">
<title>Node1&#45;&gt;Node24</title>
<g id="a_edge30_Node000001_Node000024"><a xlink:title=" ">
<path fill="none" stroke="#63b8ff" d="M431.81,-274.99C388.08,-264.67 329.49,-250.85 289.28,-241.37"/>
<polygon fill="#63b8ff" stroke="#63b8ff" points="290.01,-237.94 279.47,-239.05 288.4,-244.76 290.01,-237.94"/>
</a>
</g>
</g>
<!-- Node25 -->
<g id="Node000025" class="node">
<title>Node25</title>
<g id="a_Node000025"><a xlink:title=" ">
<polygon fill="#e0e0e0" stroke="#999999" points="908.21,-239 830.21,-239 830.21,-220 908.21,-220 908.21,-239"/>
<text text-anchor="middle" x="869.21" y="-227" font-family="Helvetica,sans-Serif" font-size="10.00">gtest/gtest.h</text>
</a>
</g>
</g>
<!-- Node1&#45;&gt;Node25 -->
<g id="edge33_Node000001_Node000025" class="edge">
<title>Node1&#45;&gt;Node25</title>
<g id="a_edge33_Node000001_Node000025"><a xlink:title=" ">
<path fill="none" stroke="#63b8ff" d="M569.31,-277.73C633.87,-268.28 728.24,-254.17 820.15,-239.14"/>
<polygon fill="#63b8ff" stroke="#63b8ff" points="820.89,-242.57 830.19,-237.49 819.75,-235.66 820.89,-242.57"/>
</a>
</g>
</g>
<!-- Node3 -->
<g id="Node000003" class="node">
<title>Node3</title>
<g id="a_Node000003"><a xlink:href="BaseType_8h.html" target="_top" xlink:title=" ">
<polygon fill="white" stroke="#666666" points="403.21,-74 305.21,-74 305.21,-55 403.21,-55 403.21,-74"/>
<text text-anchor="middle" x="354.21" y="-62" font-family="Helvetica,sans-Serif" font-size="10.00">Core/BaseType.h</text>
</a>
</g>
</g>
<!-- Node2&#45;&gt;Node3 -->
<g id="edge2_Node000002_Node000003" class="edge">
<title>Node2&#45;&gt;Node3</title>
<g id="a_edge2_Node000002_Node000003"><a xlink:title=" ">
<path fill="none" stroke="#63b8ff" d="M85.12,-164.6C85.5,-150.73 88.4,-124.09 104.21,-110 131.73,-85.46 230.05,-73.99 294.88,-68.99"/>
<polygon fill="#63b8ff" stroke="#63b8ff" points="295.27,-72.47 304.98,-68.24 294.75,-65.49 295.27,-72.47"/>
</a>
</g>
</g>
<!-- Node8 -->
<g id="Node000008" class="node">
<title>Node8</title>
<g id="a_Node000008"><a xlink:title=" ">
<polygon fill="#e0e0e0" stroke="#999999" points="135.21,-74 93.21,-74 93.21,-55 135.21,-55 135.21,-74"/>
<text text-anchor="middle" x="114.21" y="-62" font-family="Helvetica,sans-Serif" font-size="10.00">array</text>
</a>
</g>
</g>
<!-- Node2&#45;&gt;Node8 -->
<g id="edge7_Node000002_Node000008" class="edge">
<title>Node2&#45;&gt;Node8</title>
<g id="a_edge7_Node000002_Node000008"><a xlink:title=" ">
<path fill="none" stroke="#63b8ff" d="M57.13,-164.97C27.55,-154.46 -12.57,-134.89 4.21,-110 21.62,-84.18 56.82,-73.33 82.74,-68.78"/>
<polygon fill="#63b8ff" stroke="#63b8ff" points="83.49,-72.21 92.85,-67.24 82.43,-65.29 83.49,-72.21"/>
</a>
</g>
</g>
<!-- Node9 -->
<g id="Node000009" class="node">
<title>Node9</title>
<g id="a_Node000009"><a xlink:title=" ">
<polygon fill="#e0e0e0" stroke="#999999" points="57.21,-129 13.21,-129 13.21,-110 57.21,-110 57.21,-129"/>
<text text-anchor="middle" x="35.21" y="-117" font-family="Helvetica,sans-Serif" font-size="10.00">string</text>
</a>
</g>
</g>
<!-- Node2&#45;&gt;Node9 -->
<g id="edge8_Node000002_Node000009" class="edge">
<title>Node2&#45;&gt;Node9</title>
<g id="a_edge8_Node000002_Node000009"><a xlink:title=" ">
<path fill="none" stroke="#63b8ff" d="M76.95,-164.75C69.74,-157.11 59.1,-145.82 50.36,-136.56"/>
<polygon fill="#63b8ff" stroke="#63b8ff" points="52.72,-133.96 43.31,-129.09 47.63,-138.76 52.72,-133.96"/>
</a>
</g>
</g>
<!-- Node10 -->
<g id="Node000010" class="node">
<title>Node10</title>
<g id="a_Node000010"><a xlink:title=" ">
<polygon fill="#e0e0e0" stroke="#999999" points="160.71,-129 113.71,-129 113.71,-110 160.71,-110 160.71,-129"/>
<text text-anchor="middle" x="137.21" y="-117" font-family="Helvetica,sans-Serif" font-size="10.00">vector</text>
</a>
</g>
</g>
<!-- Node2&#45;&gt;Node10 -->
<g id="edge9_Node000002_Node000010" class="edge">
<title>Node2&#45;&gt;Node10</title>
<g id="a_edge9_Node000002_Node000010"><a xlink:title=" ">
<path fill="none" stroke="#63b8ff" d="M93.79,-164.75C101.37,-157.03 112.59,-145.6 121.72,-136.28"/>
<polygon fill="#63b8ff" stroke="#63b8ff" points="124.28,-138.68 128.78,-129.09 119.28,-133.78 124.28,-138.68"/>
</a>
</g>
</g>
<!-- Node4 -->
<g id="Node000004" class="node">
<title>Node4</title>
<g id="a_Node000004"><a xlink:title=" ">
<polygon fill="#e0e0e0" stroke="#999999" points="265.21,-19 187.21,-19 187.21,0 265.21,0 265.21,-19"/>
<text text-anchor="middle" x="226.21" y="-7" font-family="Helvetica,sans-Serif" font-size="10.00">glm/glm.hpp</text>
</a>
</g>
</g>
<!-- Node3&#45;&gt;Node4 -->
<g id="edge3_Node000003_Node000004" class="edge">
<title>Node3&#45;&gt;Node4</title>
<g id="a_edge3_Node000003_Node000004"><a xlink:title=" ">
<path fill="none" stroke="#63b8ff" d="M333.64,-54.98C312.77,-46.34 280.24,-32.87 256.44,-23.02"/>
<polygon fill="#63b8ff" stroke="#63b8ff" points="257.73,-19.76 247.15,-19.17 255.05,-26.23 257.73,-19.76"/>
</a>
</g>
</g>
<!-- Node5 -->
<g id="Node000005" class="node">
<title>Node5</title>
<g id="a_Node000005"><a xlink:title=" ">
<polygon fill="#e0e0e0" stroke="#999999" points="424.71,-19 283.71,-19 283.71,0 424.71,0 424.71,-19"/>
<text text-anchor="middle" x="354.21" y="-7" font-family="Helvetica,sans-Serif" font-size="10.00">glm/gtx/vector_angle.hpp</text>
</a>
</g>
</g>
<!-- Node3&#45;&gt;Node5 -->
<g id="edge4_Node000003_Node000005" class="edge">
<title>Node3&#45;&gt;Node5</title>
<g id="a_edge4_Node000003_Node000005"><a xlink:title=" ">
<path fill="none" stroke="#63b8ff" d="M354.21,-54.75C354.21,-47.8 354.21,-37.85 354.21,-29.13"/>
<polygon fill="#63b8ff" stroke="#63b8ff" points="357.71,-29.09 354.21,-19.09 350.71,-29.09 357.71,-29.09"/>
</a>
</g>
</g>
<!-- Node6 -->
<g id="Node000006" class="node">
<title>Node6</title>
<g id="a_Node000006"><a xlink:title=" ">
<polygon fill="#e0e0e0" stroke="#999999" points="487.21,-19 443.21,-19 443.21,0 487.21,0 487.21,-19"/>
<text text-anchor="middle" x="465.21" y="-7" font-family="Helvetica,sans-Serif" font-size="10.00">bitset</text>
</a>
</g>
</g>
<!-- Node3&#45;&gt;Node6 -->
<g id="edge5_Node000003_Node000006" class="edge">
<title>Node3&#45;&gt;Node6</title>
<g id="a_edge5_Node000003_Node000006"><a xlink:title=" ">
<path fill="none" stroke="#63b8ff" d="M372.04,-54.98C389.82,-46.5 417.35,-33.35 437.89,-23.54"/>
<polygon fill="#63b8ff" stroke="#63b8ff" points="439.53,-26.64 447.05,-19.17 436.52,-20.32 439.53,-26.64"/>
</a>
</g>
</g>
<!-- Node7 -->
<g id="Node000007" class="node">
<title>Node7</title>
<g id="a_Node000007"><a xlink:title=" ">
<polygon fill="#e0e0e0" stroke="#999999" points="661.21,-19 611.21,-19 611.21,0 661.21,0 661.21,-19"/>
<text text-anchor="middle" x="636.21" y="-7" font-family="Helvetica,sans-Serif" font-size="10.00">cstdint</text>
</a>
</g>
</g>
<!-- Node3&#45;&gt;Node7 -->
<g id="edge6_Node000003_Node000007" class="edge">
<title>Node3&#45;&gt;Node7</title>
<g id="a_edge6_Node000003_Node000007"><a xlink:title=" ">
<path fill="none" stroke="#63b8ff" d="M399.52,-54.98C455.74,-44.42 550.4,-26.63 601.31,-17.06"/>
<polygon fill="#63b8ff" stroke="#63b8ff" points="602,-20.49 611.18,-15.2 600.7,-13.61 602,-20.49"/>
</a>
</g>
</g>
<!-- Node11&#45;&gt;Node3 -->
<g id="edge11_Node000011_Node000003" class="edge">
<title>Node11&#45;&gt;Node3</title>
<g id="a_edge11_Node000011_Node000003"><a xlink:title=" ">
<path fill="none" stroke="#63b8ff" d="M718.14,-220C677.04,-203.31 583.44,-164.76 506.21,-129 489.07,-121.07 485.47,-117.66 468.21,-110 441.48,-98.13 410.54,-86.16 387.65,-77.63"/>
<polygon fill="#63b8ff" stroke="#63b8ff" points="388.64,-74.27 378.05,-74.08 386.21,-80.83 388.64,-74.27"/>
</a>
</g>
</g>
<!-- Node12 -->
<g id="Node000012" class="node">
<title>Node12</title>
<g id="a_Node000012"><a xlink:title=" ">
<polygon fill="#e0e0e0" stroke="#999999" points="794.71,-184 747.71,-184 747.71,-165 794.71,-165 794.71,-184"/>
<text text-anchor="middle" x="771.21" y="-172" font-family="Helvetica,sans-Serif" font-size="10.00">cmath</text>
</a>
</g>
</g>
<!-- Node11&#45;&gt;Node12 -->
<g id="edge12_Node000011_Node000012" class="edge">
<title>Node11&#45;&gt;Node12</title>
<g id="a_edge12_Node000011_Node000012"><a xlink:title=" ">
<path fill="none" stroke="#63b8ff" d="M744.49,-219.75C748.92,-212.42 755.37,-201.73 760.83,-192.7"/>
<polygon fill="#63b8ff" stroke="#63b8ff" points="763.85,-194.46 766.02,-184.09 757.86,-190.84 763.85,-194.46"/>
</a>
</g>
</g>
<!-- Node13 -->
<g id="Node000013" class="node">
<title>Node13</title>
<g id="a_Node000013"><a xlink:title=" ">
<polygon fill="#e0e0e0" stroke="#999999" points="729.21,-184 685.21,-184 685.21,-165 729.21,-165 729.21,-184"/>
<text text-anchor="middle" x="707.21" y="-172" font-family="Helvetica,sans-Serif" font-size="10.00">limits</text>
</a>
</g>
</g>
<!-- Node11&#45;&gt;Node13 -->
<g id="edge13_Node000011_Node000013" class="edge">
<title>Node11&#45;&gt;Node13</title>
<g id="a_edge13_Node000011_Node000013"><a xlink:title=" ">
<path fill="none" stroke="#63b8ff" d="M733.92,-219.75C729.5,-212.42 723.04,-201.73 717.59,-192.7"/>
<polygon fill="#63b8ff" stroke="#63b8ff" points="720.56,-190.84 712.39,-184.09 714.57,-194.46 720.56,-190.84"/>
</a>
</g>
</g>
<!-- Node14&#45;&gt;Node7 -->
<g id="edge26_Node000014_Node000007" class="edge">
<title>Node14&#45;&gt;Node7</title>
<g id="a_edge26_Node000014_Node000007"><a xlink:title=" ">
<path fill="none" stroke="#63b8ff" d="M587.34,-219.96C618.36,-200.88 690.62,-154.48 703.21,-129 717.77,-99.51 718.75,-83.98 703.21,-55 695.7,-41 681.64,-30.66 668.33,-23.48"/>
<polygon fill="#63b8ff" stroke="#63b8ff" points="669.83,-20.33 659.32,-19.02 666.72,-26.6 669.83,-20.33"/>
</a>
</g>
</g>
<!-- Node15 -->
<g id="Node000015" class="node">
<title>Node15</title>
<g id="a_Node000015"><a xlink:href="Mesh_8h.html" target="_top" xlink:title=" ">
<polygon fill="white" stroke="#666666" points="518.21,-184 408.21,-184 408.21,-165 518.21,-165 518.21,-184"/>
<text text-anchor="middle" x="463.21" y="-172" font-family="Helvetica,sans-Serif" font-size="10.00">Application/Mesh.h</text>
</a>
</g>
</g>
<!-- Node14&#45;&gt;Node15 -->
<g id="edge15_Node000014_Node000015" class="edge">
<title>Node14&#45;&gt;Node15</title>
<g id="a_edge15_Node000014_Node000015"><a xlink:title=" ">
<path fill="none" stroke="#63b8ff" d="M555.53,-219.98C537.92,-211.5 510.63,-198.35 490.28,-188.54"/>
<polygon fill="#63b8ff" stroke="#63b8ff" points="491.73,-185.36 481.2,-184.17 488.69,-191.66 491.73,-185.36"/>
</a>
</g>
</g>
<!-- Node15&#45;&gt;Node3 -->
<g id="edge23_Node000015_Node000003" class="edge">
<title>Node15&#45;&gt;Node3</title>
<g id="a_edge23_Node000015_Node000003"><a xlink:title=" ">
<path fill="none" stroke="#63b8ff" d="M444.62,-164.95C429.23,-157.19 407.48,-144.59 392.21,-129 379.17,-115.69 368.71,-97.08 362.09,-83.45"/>
<polygon fill="#63b8ff" stroke="#63b8ff" points="365.17,-81.77 357.8,-74.16 358.82,-84.71 365.17,-81.77"/>
</a>
</g>
</g>
<!-- Node15&#45;&gt;Node10 -->
<g id="edge25_Node000015_Node000010" class="edge">
<title>Node15&#45;&gt;Node10</title>
<g id="a_edge25_Node000015_Node000010"><a xlink:title=" ">
<path fill="none" stroke="#63b8ff" d="M407.94,-165.79C340.29,-156.24 228.58,-140.08 171.03,-128.94"/>
<polygon fill="#63b8ff" stroke="#63b8ff" points="171.43,-125.45 160.93,-126.92 170.05,-132.31 171.43,-125.45"/>
</a>
</g>
</g>
<!-- Node16 -->
<g id="Node000016" class="node">
<title>Node16</title>
<g id="a_Node000016"><a xlink:href="ExtraDataContainer_8h.html" target="_top" xlink:title=" ">
<polygon fill="white" stroke="#666666" points="694.71,-129 515.71,-129 515.71,-110 694.71,-110 694.71,-129"/>
<text text-anchor="middle" x="605.21" y="-117" font-family="Helvetica,sans-Serif" font-size="10.00">Application/ExtraDataContainer.h</text>
</a>
</g>
</g>
<!-- Node15&#45;&gt;Node16 -->
<g id="edge16_Node000015_Node000016" class="edge">
<title>Node15&#45;&gt;Node16</title>
<g id="a_edge16_Node000015_Node000016"><a xlink:title=" ">
<path fill="none" stroke="#63b8ff" d="M486.02,-164.98C509.38,-156.27 545.91,-142.63 572.38,-132.75"/>
<polygon fill="#63b8ff" stroke="#63b8ff" points="573.83,-135.95 581.98,-129.17 571.39,-129.39 573.83,-135.95"/>
</a>
</g>
</g>
<!-- Node20 -->
<g id="Node000020" class="node">
<title>Node20</title>
<g id="a_Node000020"><a xlink:href="Primitive_8h.html" target="_top" xlink:title=" ">
<polygon fill="white" stroke="#666666" points="307.21,-129 179.21,-129 179.21,-110 307.21,-110 307.21,-129"/>
<text text-anchor="middle" x="243.21" y="-117" font-family="Helvetica,sans-Serif" font-size="10.00">Application/Primitive.h</text>
</a>
</g>
</g>
<!-- Node15&#45;&gt;Node20 -->
<g id="edge20_Node000015_Node000020" class="edge">
<title>Node15&#45;&gt;Node20</title>
<g id="a_edge20_Node000015_Node000020"><a xlink:title=" ">
<path fill="none" stroke="#63b8ff" d="M427.86,-164.98C390.05,-155.87 329.94,-141.4 288.64,-131.45"/>
<polygon fill="#63b8ff" stroke="#63b8ff" points="289.37,-128.02 278.83,-129.08 287.73,-134.83 289.37,-128.02"/>
</a>
</g>
</g>
<!-- Node21 -->
<g id="Node000021" class="node">
<title>Node21</title>
<g id="a_Node000021"><a xlink:title=" ">
<polygon fill="#e0e0e0" stroke="#999999" points="459.21,-129 401.21,-129 401.21,-110 459.21,-110 459.21,-129"/>
<text text-anchor="middle" x="430.21" y="-117" font-family="Helvetica,sans-Serif" font-size="10.00">memory</text>
</a>
</g>
</g>
<!-- Node15&#45;&gt;Node21 -->
<g id="edge24_Node000015_Node000021" class="edge">
<title>Node15&#45;&gt;Node21</title>
<g id="a_edge24_Node000015_Node000021"><a xlink:title=" ">
<path fill="none" stroke="#63b8ff" d="M457.76,-164.75C453.19,-157.42 446.54,-146.73 440.91,-137.7"/>
<polygon fill="#63b8ff" stroke="#63b8ff" points="443.81,-135.73 435.56,-129.09 437.87,-139.43 443.81,-135.73"/>
</a>
</g>
</g>
<!-- Node17 -->
<g id="Node000017" class="node">
<title>Node17</title>
<g id="a_Node000017"><a xlink:title=" ">
<polygon fill="#e0e0e0" stroke="#999999" points="611.71,-74 576.71,-74 576.71,-55 611.71,-55 611.71,-74"/>
<text text-anchor="middle" x="594.21" y="-62" font-family="Helvetica,sans-Serif" font-size="10.00">any</text>
</a>
</g>
</g>
<!-- Node16&#45;&gt;Node17 -->
<g id="edge17_Node000016_Node000017" class="edge">
<title>Node16&#45;&gt;Node17</title>
<g id="a_edge17_Node000016_Node000017"><a xlink:title=" ">
<path fill="none" stroke="#63b8ff" d="M603.39,-109.75C601.95,-102.8 599.88,-92.85 598.08,-84.13"/>
<polygon fill="#63b8ff" stroke="#63b8ff" points="601.45,-83.17 595.99,-74.09 594.6,-84.59 601.45,-83.17"/>
</a>
</g>
</g>
<!-- Node18 -->
<g id="Node000018" class="node">
<title>Node18</title>
<g id="a_Node000018"><a xlink:title=" ">
<polygon fill="#e0e0e0" stroke="#999999" points="694.71,-74 629.71,-74 629.71,-55 694.71,-55 694.71,-74"/>
<text text-anchor="middle" x="662.21" y="-62" font-family="Helvetica,sans-Serif" font-size="10.00">typeindex</text>
</a>
</g>
</g>
<!-- Node16&#45;&gt;Node18 -->
<g id="edge18_Node000016_Node000018" class="edge">
<title>Node16&#45;&gt;Node18</title>
<g id="a_edge18_Node000016_Node000018"><a xlink:title=" ">
<path fill="none" stroke="#63b8ff" d="M614.37,-109.98C622.71,-102.23 635.24,-90.58 645.38,-81.14"/>
<polygon fill="#63b8ff" stroke="#63b8ff" points="647.94,-83.54 652.88,-74.17 643.18,-78.42 647.94,-83.54"/>
</a>
</g>
</g>
<!-- Node19 -->
<g id="Node000019" class="node">
<title>Node19</title>
<g id="a_Node000019"><a xlink:title=" ">
<polygon fill="#e0e0e0" stroke="#999999" points="558.71,-74 465.71,-74 465.71,-55 558.71,-55 558.71,-74"/>
<text text-anchor="middle" x="512.21" y="-62" font-family="Helvetica,sans-Serif" font-size="10.00">unordered_map</text>
</a>
</g>
</g>
<!-- Node16&#45;&gt;Node19 -->
<g id="edge19_Node000016_Node000019" class="edge">
<title>Node16&#45;&gt;Node19</title>
<g id="a_edge19_Node000016_Node000019"><a xlink:title=" ">
<path fill="none" stroke="#63b8ff" d="M590.27,-109.98C575.71,-101.69 553.34,-88.94 536.27,-79.22"/>
<polygon fill="#63b8ff" stroke="#63b8ff" points="537.84,-76.08 527.42,-74.17 534.38,-82.16 537.84,-76.08"/>
</a>
</g>
</g>
<!-- Node20&#45;&gt;Node3 -->
<g id="edge21_Node000020_Node000003" class="edge">
<title>Node20&#45;&gt;Node3</title>
<g id="a_edge21_Node000020_Node000003"><a xlink:title=" ">
<path fill="none" stroke="#63b8ff" d="M261.04,-109.98C278.82,-101.5 306.35,-88.35 326.89,-78.54"/>
<polygon fill="#63b8ff" stroke="#63b8ff" points="328.53,-81.64 336.05,-74.17 325.52,-75.32 328.53,-81.64"/>
</a>
</g>
</g>
<!-- Node20&#45;&gt;Node8 -->
<g id="edge22_Node000020_Node000008" class="edge">
<title>Node20&#45;&gt;Node8</title>
<g id="a_edge22_Node000020_Node000008"><a xlink:title=" ">
<path fill="none" stroke="#63b8ff" d="M222.48,-109.98C201.45,-101.34 168.66,-87.87 144.67,-78.02"/>
<polygon fill="#63b8ff" stroke="#63b8ff" points="145.89,-74.73 135.31,-74.17 143.23,-81.21 145.89,-74.73"/>
</a>
</g>
</g>
<!-- Node22&#45;&gt;Node15 -->
<g id="edge28_Node000022_Node000015" class="edge">
<title>Node22&#45;&gt;Node15</title>
<g id="a_edge28_Node000022_Node000015"><a xlink:title=" ">
<path fill="none" stroke="#63b8ff" d="M418.13,-219.75C425.99,-212.03 437.64,-200.6 447.13,-191.28"/>
<polygon fill="#63b8ff" stroke="#63b8ff" points="449.77,-193.59 454.46,-184.09 444.87,-188.6 449.77,-193.59"/>
</a>
</g>
</g>
<!-- Node23 -->
<g id="Node000023" class="node">
<title>Node23</title>
<g id="a_Node000023"><a xlink:title=" ">
<polygon fill="#e0e0e0" stroke="#999999" points="390.21,-184 322.21,-184 322.21,-165 390.21,-165 390.21,-184"/>
<text text-anchor="middle" x="356.21" y="-172" font-family="Helvetica,sans-Serif" font-size="10.00">filesystem</text>
</a>
</g>
</g>
<!-- Node22&#45;&gt;Node23 -->
<g id="edge29_Node000022_Node000023" class="edge">
<title>Node22&#45;&gt;Node23</title>
<g id="a_edge29_Node000022_Node000023"><a xlink:title=" ">
<path fill="none" stroke="#63b8ff" d="M400.46,-219.75C392.74,-212.03 381.3,-200.6 371.99,-191.28"/>
<polygon fill="#63b8ff" stroke="#63b8ff" points="374.34,-188.69 364.8,-184.09 369.39,-193.64 374.34,-188.69"/>
</a>
</g>
</g>
<!-- Node24&#45;&gt;Node3 -->
<g id="edge32_Node000024_Node000003" class="edge">
<title>Node24&#45;&gt;Node3</title>
<g id="a_edge32_Node000024_Node000003"><a xlink:title=" ">
<path fill="none" stroke="#63b8ff" d="M249.93,-219.91C263.15,-202.91 293.22,-163.63 316.21,-129 326.29,-113.82 336.86,-95.97 344.29,-83.06"/>
<polygon fill="#63b8ff" stroke="#63b8ff" points="347.38,-84.71 349.3,-74.29 341.3,-81.24 347.38,-84.71"/>
</a>
</g>
</g>
<!-- Node24&#45;&gt;Node15 -->
<g id="edge31_Node000024_Node000015" class="edge">
<title>Node24&#45;&gt;Node15</title>
<g id="a_edge31_Node000024_Node000015"><a xlink:title=" ">
<path fill="none" stroke="#63b8ff" d="M278.55,-219.98C316.37,-210.87 376.47,-196.4 417.77,-186.45"/>
<polygon fill="#63b8ff" stroke="#63b8ff" points="418.68,-189.83 427.58,-184.08 417.04,-183.02 418.68,-189.83"/>
</a>
</g>
</g>
</g>
</svg>
