<?xml version="1.0" encoding="UTF-8" standalone="no"?>
<!DOCTYPE svg PUBLIC "-//W3C//DTD SVG 1.1//EN"
 "http://www.w3.org/Graphics/SVG/1.1/DTD/svg11.dtd">
<!-- Generated by graphviz version 2.43.0 (0)
 -->
<!-- Title: App/Test/Source/Mesh_utest.cpp Pages: 1 -->
<svg width="997pt" height="368pt"
 viewBox="0.00 0.00 997.01 368.00" xmlns="http://www.w3.org/2000/svg" xmlns:xlink="http://www.w3.org/1999/xlink">
<g id="graph0" class="graph" transform="scale(1 1) rotate(0) translate(4 364)">
<title>App/Test/Source/Mesh_utest.cpp</title>
<!-- Node1 -->
<g id="Node000001" class="node">
<title>Node1</title>
<g id="a_Node000001"><a xlink:title=" ">
<polygon fill="#999999" stroke="#666666" points="577.51,-360 454.51,-360 454.51,-330 577.51,-330 577.51,-360"/>
<text text-anchor="start" x="462.51" y="-348" font-family="Helvetica,sans-Serif" font-size="10.00">App/Test/Source/Mesh</text>
<text text-anchor="middle" x="516.01" y="-337" font-family="Helvetica,sans-Serif" font-size="10.00">_utest.cpp</text>
</a>
</g>
</g>
<!-- Node2 -->
<g id="Node000002" class="node">
<title>Node2</title>
<g id="a_Node000002"><a xlink:href="ExtraDataType_8h.html" target="_top" xlink:title=" ">
<polygon fill="white" stroke="#666666" points="722.51,-184 567.51,-184 567.51,-165 722.51,-165 722.51,-184"/>
<text text-anchor="middle" x="645.01" y="-172" font-family="Helvetica,sans-Serif" font-size="10.00">Application/ExtraDataType.h</text>
</a>
</g>
</g>
<!-- Node1&#45;&gt;Node2 -->
<g id="edge1_Node000001_Node000002" class="edge">
<title>Node1&#45;&gt;Node2</title>
<g id="a_edge1_Node000001_Node000002"><a xlink:title=" ">
<path fill="none" stroke="#63b8ff" d="M577.64,-340.72C658.19,-335.37 793.74,-322.36 834.01,-294 856.77,-277.96 857.13,-265.98 864.01,-239 866.09,-230.82 869.35,-226.54 864.01,-220 847.29,-199.54 786.35,-188.25 732.99,-182.17"/>
<polygon fill="#63b8ff" stroke="#63b8ff" points="733.1,-178.66 722.78,-181.06 732.34,-185.62 733.1,-178.66"/>
</a>
</g>
</g>
<!-- Node11 -->
<g id="Node000011" class="node">
<title>Node11</title>
<g id="a_Node000011"><a xlink:href="MathHelpers_8h.html" target="_top" xlink:title=" ">
<polygon fill="white" stroke="#666666" points="825.01,-294 679.01,-294 679.01,-275 825.01,-275 825.01,-294"/>
<text text-anchor="middle" x="752.01" y="-282" font-family="Helvetica,sans-Serif" font-size="10.00">Application/MathHelpers.h</text>
</a>
</g>
</g>
<!-- Node1&#45;&gt;Node11 -->
<g id="edge10_Node000001_Node000011" class="edge">
<title>Node1&#45;&gt;Node11</title>
<g id="a_edge10_Node000001_Node000011"><a xlink:title=" ">
<path fill="none" stroke="#63b8ff" d="M572.54,-329.99C613.97,-319.72 669.43,-305.97 707.68,-296.49"/>
<polygon fill="#63b8ff" stroke="#63b8ff" points="708.64,-299.86 717.5,-294.05 706.95,-293.06 708.64,-299.86"/>
</a>
</g>
</g>
<!-- Node14 -->
<g id="Node000014" class="node">
<title>Node14</title>
<g id="a_Node000014"><a xlink:href="Mesh_8h.html" target="_top" xlink:title=" ">
<polygon fill="white" stroke="#666666" points="434.01,-184 324.01,-184 324.01,-165 434.01,-165 434.01,-184"/>
<text text-anchor="middle" x="379.01" y="-172" font-family="Helvetica,sans-Serif" font-size="10.00">Application/Mesh.h</text>
</a>
</g>
</g>
<!-- Node1&#45;&gt;Node14 -->
<g id="edge14_Node000001_Node000014" class="edge">
<title>Node1&#45;&gt;Node14</title>
<g id="a_edge14_Node000001_Node000014"><a xlink:title=" ">
<path fill="none" stroke="#63b8ff" d="M502.72,-329.8C484.39,-309.98 450.58,-272.68 424.01,-239 412.02,-223.81 399.36,-205.74 390.53,-192.76"/>
<polygon fill="#63b8ff" stroke="#63b8ff" points="393.34,-190.67 384.85,-184.33 387.54,-194.58 393.34,-190.67"/>
</a>
</g>
</g>
<!-- Node21 -->
<g id="Node000021" class="node">
<title>Node21</title>
<g id="a_Node000021"><a xlink:href="MeshIntegrity_8h.html" target="_top" xlink:title=" ">
<polygon fill="white" stroke="#666666" points="245.51,-239 96.51,-239 96.51,-220 245.51,-220 245.51,-239"/>
<text text-anchor="middle" x="171.01" y="-227" font-family="Helvetica,sans-Serif" font-size="10.00">Application/MeshIntegrity.h</text>
</a>
</g>
</g>
<!-- Node1&#45;&gt;Node21 -->
<g id="edge25_Node000001_Node000021" class="edge">
<title>Node1&#45;&gt;Node21</title>
<g id="a_edge25_Node000001_Node000021"><a xlink:title=" ">
<path fill="none" stroke="#63b8ff" d="M454.22,-339.09C378.83,-332.17 256.64,-317.68 218.01,-294 200.34,-283.17 187.15,-263 179.31,-248.29"/>
<polygon fill="#63b8ff" stroke="#63b8ff" points="182.35,-246.54 174.75,-239.16 176.09,-249.67 182.35,-246.54"/>
</a>
</g>
</g>
<!-- Node22 -->
<g id="Node000022" class="node">
<title>Node22</title>
<g id="a_Node000022"><a xlink:href="MeshLoader_8h.html" target="_top" xlink:title=" ">
<polygon fill="white" stroke="#666666" points="369.01,-294 227.01,-294 227.01,-275 369.01,-275 369.01,-294"/>
<text text-anchor="middle" x="298.01" y="-282" font-family="Helvetica,sans-Serif" font-size="10.00">Application/MeshLoader.h</text>
</a>
</g>
</g>
<!-- Node1&#45;&gt;Node22 -->
<g id="edge28_Node000001_Node000022" class="edge">
<title>Node1&#45;&gt;Node22</title>
<g id="a_edge28_Node000001_Node000022"><a xlink:title=" ">
<path fill="none" stroke="#63b8ff" d="M463.79,-329.99C425.84,-319.8 375.16,-306.2 339.86,-296.73"/>
<polygon fill="#63b8ff" stroke="#63b8ff" points="340.45,-293.27 329.88,-294.05 338.63,-300.03 340.45,-293.27"/>
</a>
</g>
</g>
<!-- Node24 -->
<g id="Node000024" class="node">
<title>Node24</title>
<g id="a_Node000024"><a xlink:href="PrimitiveProxy_8h.html" target="_top" xlink:title=" ">
<polygon fill="white" stroke="#666666" points="617.01,-239 463.01,-239 463.01,-220 617.01,-220 617.01,-239"/>
<text text-anchor="middle" x="540.01" y="-227" font-family="Helvetica,sans-Serif" font-size="10.00">Application/PrimitiveProxy.h</text>
</a>
</g>
</g>
<!-- Node1&#45;&gt;Node24 -->
<g id="edge31_Node000001_Node000024" class="edge">
<title>Node1&#45;&gt;Node24</title>
<g id="a_edge31_Node000001_Node000024"><a xlink:title=" ">
<path fill="none" stroke="#63b8ff" d="M502.53,-329.88C490.87,-315.85 477.15,-293.78 486.01,-275 492.02,-262.26 503.67,-251.92 514.61,-244.44"/>
<polygon fill="#63b8ff" stroke="#63b8ff" points="516.54,-247.36 523.12,-239.05 512.8,-241.44 516.54,-247.36"/>
</a>
</g>
</g>
<!-- Node25 -->
<g id="Node000025" class="node">
<title>Node25</title>
<g id="a_Node000025"><a xlink:href="TestHelpers_8h.html" target="_top" xlink:title=" ">
<polygon fill="white" stroke="#666666" points="635.01,-294 495.01,-294 495.01,-275 635.01,-275 635.01,-294"/>
<text text-anchor="middle" x="565.01" y="-282" font-family="Helvetica,sans-Serif" font-size="10.00">Application/TestHelpers.h</text>
</a>
</g>
</g>
<!-- Node1&#45;&gt;Node25 -->
<g id="edge34_Node000001_Node000025" class="edge">
<title>Node1&#45;&gt;Node25</title>
<g id="a_edge34_Node000001_Node000025"><a xlink:title=" ">
<path fill="none" stroke="#63b8ff" d="M527.87,-329.84C534.91,-321.43 543.87,-310.74 551.22,-301.96"/>
<polygon fill="#63b8ff" stroke="#63b8ff" points="553.93,-304.18 557.66,-294.27 548.56,-299.68 553.93,-304.18"/>
</a>
</g>
</g>
<!-- Node26 -->
<g id="Node000026" class="node">
<title>Node26</title>
<g id="a_Node000026"><a xlink:title=" ">
<polygon fill="#e0e0e0" stroke="#999999" points="989.01,-294 911.01,-294 911.01,-275 989.01,-275 989.01,-294"/>
<text text-anchor="middle" x="950.01" y="-282" font-family="Helvetica,sans-Serif" font-size="10.00">gtest/gtest.h</text>
</a>
</g>
</g>
<!-- Node1&#45;&gt;Node26 -->
<g id="edge38_Node000001_Node000026" class="edge">
<title>Node1&#45;&gt;Node26</title>
<g id="a_edge38_Node000001_Node000026"><a xlink:title=" ">
<path fill="none" stroke="#63b8ff" d="M577.78,-336.44C653.21,-327.09 784.62,-310.38 897.01,-294 898.28,-293.81 899.57,-293.62 900.86,-293.43"/>
<polygon fill="#63b8ff" stroke="#63b8ff" points="901.59,-296.86 910.95,-291.89 900.54,-289.94 901.59,-296.86"/>
</a>
</g>
</g>
<!-- Node3 -->
<g id="Node000003" class="node">
<title>Node3</title>
<g id="a_Node000003"><a xlink:href="BaseType_8h.html" target="_top" xlink:title=" ">
<polygon fill="white" stroke="#666666" points="573.01,-74 475.01,-74 475.01,-55 573.01,-55 573.01,-74"/>
<text text-anchor="middle" x="524.01" y="-62" font-family="Helvetica,sans-Serif" font-size="10.00">Core/BaseType.h</text>
</a>
</g>
</g>
<!-- Node2&#45;&gt;Node3 -->
<g id="edge2_Node000002_Node000003" class="edge">
<title>Node2&#45;&gt;Node3</title>
<g id="a_edge2_Node000002_Node000003"><a xlink:title=" ">
<path fill="none" stroke="#63b8ff" d="M655.08,-164.71C668.54,-151.89 689.25,-127.67 676.01,-110 664.54,-94.7 620.68,-82.89 583,-75.29"/>
<polygon fill="#63b8ff" stroke="#63b8ff" points="583.55,-71.84 573.07,-73.36 582.22,-78.71 583.55,-71.84"/>
</a>
</g>
</g>
<!-- Node8 -->
<g id="Node000008" class="node">
<title>Node8</title>
<g id="a_Node000008"><a xlink:title=" ">
<polygon fill="#e0e0e0" stroke="#999999" points="419.01,-74 377.01,-74 377.01,-55 419.01,-55 419.01,-74"/>
<text text-anchor="middle" x="398.01" y="-62" font-family="Helvetica,sans-Serif" font-size="10.00">array</text>
</a>
</g>
</g>
<!-- Node2&#45;&gt;Node8 -->
<g id="edge7_Node000002_Node000008" class="edge">
<title>Node2&#45;&gt;Node8</title>
<g id="a_edge7_Node000002_Node000008"><a xlink:title=" ">
<path fill="none" stroke="#63b8ff" d="M632.53,-164.92C612.92,-151.72 573.34,-126.26 537.01,-110 501.16,-93.96 457.78,-81.04 429.12,-73.33"/>
<polygon fill="#63b8ff" stroke="#63b8ff" points="429.83,-69.9 419.27,-70.73 428.04,-76.67 429.83,-69.9"/>
</a>
</g>
</g>
<!-- Node9 -->
<g id="Node000009" class="node">
<title>Node9</title>
<g id="a_Node000009"><a xlink:title=" ">
<polygon fill="#e0e0e0" stroke="#999999" points="667.01,-129 623.01,-129 623.01,-110 667.01,-110 667.01,-129"/>
<text text-anchor="middle" x="645.01" y="-117" font-family="Helvetica,sans-Serif" font-size="10.00">string</text>
</a>
</g>
</g>
<!-- Node2&#45;&gt;Node9 -->
<g id="edge8_Node000002_Node000009" class="edge">
<title>Node2&#45;&gt;Node9</title>
<g id="a_edge8_Node000002_Node000009"><a xlink:title=" ">
<path fill="none" stroke="#63b8ff" d="M645.01,-164.75C645.01,-157.8 645.01,-147.85 645.01,-139.13"/>
<polygon fill="#63b8ff" stroke="#63b8ff" points="648.51,-139.09 645.01,-129.09 641.51,-139.09 648.51,-139.09"/>
</a>
</g>
</g>
<!-- Node10 -->
<g id="Node000010" class="node">
<title>Node10</title>
<g id="a_Node000010"><a xlink:title=" ">
<polygon fill="#e0e0e0" stroke="#999999" points="528.51,-129 481.51,-129 481.51,-110 528.51,-110 528.51,-129"/>
<text text-anchor="middle" x="505.01" y="-117" font-family="Helvetica,sans-Serif" font-size="10.00">vector</text>
</a>
</g>
</g>
<!-- Node2&#45;&gt;Node10 -->
<g id="edge9_Node000002_Node000010" class="edge">
<title>Node2&#45;&gt;Node10</title>
<g id="a_edge9_Node000002_Node000010"><a xlink:title=" ">
<path fill="none" stroke="#63b8ff" d="M622.51,-164.98C599.49,-156.27 563.47,-142.63 537.38,-132.75"/>
<polygon fill="#63b8ff" stroke="#63b8ff" points="538.5,-129.44 527.91,-129.17 536.02,-135.98 538.5,-129.44"/>
</a>
</g>
</g>
<!-- Node4 -->
<g id="Node000004" class="node">
<title>Node4</title>
<g id="a_Node000004"><a xlink:title=" ">
<polygon fill="#e0e0e0" stroke="#999999" points="563.01,-19 485.01,-19 485.01,0 563.01,0 563.01,-19"/>
<text text-anchor="middle" x="524.01" y="-7" font-family="Helvetica,sans-Serif" font-size="10.00">glm/glm.hpp</text>
</a>
</g>
</g>
<!-- Node3&#45;&gt;Node4 -->
<g id="edge3_Node000003_Node000004" class="edge">
<title>Node3&#45;&gt;Node4</title>
<g id="a_edge3_Node000003_Node000004"><a xlink:title=" ">
<path fill="none" stroke="#63b8ff" d="M524.01,-54.75C524.01,-47.8 524.01,-37.85 524.01,-29.13"/>
<polygon fill="#63b8ff" stroke="#63b8ff" points="527.51,-29.09 524.01,-19.09 520.51,-29.09 527.51,-29.09"/>
</a>
</g>
</g>
<!-- Node5 -->
<g id="Node000005" class="node">
<title>Node5</title>
<g id="a_Node000005"><a xlink:title=" ">
<polygon fill="#e0e0e0" stroke="#999999" points="722.51,-19 581.51,-19 581.51,0 722.51,0 722.51,-19"/>
<text text-anchor="middle" x="652.01" y="-7" font-family="Helvetica,sans-Serif" font-size="10.00">glm/gtx/vector_angle.hpp</text>
</a>
</g>
</g>
<!-- Node3&#45;&gt;Node5 -->
<g id="edge4_Node000003_Node000005" class="edge">
<title>Node3&#45;&gt;Node5</title>
<g id="a_edge4_Node000003_Node000005"><a xlink:title=" ">
<path fill="none" stroke="#63b8ff" d="M544.57,-54.98C565.44,-46.34 597.98,-32.87 621.78,-23.02"/>
<polygon fill="#63b8ff" stroke="#63b8ff" points="623.17,-26.23 631.07,-19.17 620.49,-19.76 623.17,-26.23"/>
</a>
</g>
</g>
<!-- Node6 -->
<g id="Node000006" class="node">
<title>Node6</title>
<g id="a_Node000006"><a xlink:title=" ">
<polygon fill="#e0e0e0" stroke="#999999" points="467.01,-19 423.01,-19 423.01,0 467.01,0 467.01,-19"/>
<text text-anchor="middle" x="445.01" y="-7" font-family="Helvetica,sans-Serif" font-size="10.00">bitset</text>
</a>
</g>
</g>
<!-- Node3&#45;&gt;Node6 -->
<g id="edge5_Node000003_Node000006" class="edge">
<title>Node3&#45;&gt;Node6</title>
<g id="a_edge5_Node000003_Node000006"><a xlink:title=" ">
<path fill="none" stroke="#63b8ff" d="M511.31,-54.98C499.18,-46.84 480.65,-34.41 466.26,-24.76"/>
<polygon fill="#63b8ff" stroke="#63b8ff" points="468.19,-21.84 457.93,-19.17 464.29,-27.65 468.19,-21.84"/>
</a>
</g>
</g>
<!-- Node7 -->
<g id="Node000007" class="node">
<title>Node7</title>
<g id="a_Node000007"><a xlink:title=" ">
<polygon fill="#e0e0e0" stroke="#999999" points="248.01,-19 198.01,-19 198.01,0 248.01,0 248.01,-19"/>
<text text-anchor="middle" x="223.01" y="-7" font-family="Helvetica,sans-Serif" font-size="10.00">cstdint</text>
</a>
</g>
</g>
<!-- Node3&#45;&gt;Node7 -->
<g id="edge6_Node000003_Node000007" class="edge">
<title>Node3&#45;&gt;Node7</title>
<g id="a_edge6_Node000003_Node000007"><a xlink:title=" ">
<path fill="none" stroke="#63b8ff" d="M475.65,-54.98C414.89,-44.29 312.07,-26.18 258.25,-16.71"/>
<polygon fill="#63b8ff" stroke="#63b8ff" points="258.62,-13.22 248.16,-14.93 257.41,-20.11 258.62,-13.22"/>
</a>
</g>
</g>
<!-- Node11&#45;&gt;Node3 -->
<g id="edge11_Node000011_Node000003" class="edge">
<title>Node11&#45;&gt;Node3</title>
<g id="a_edge11_Node000011_Node000003"><a xlink:title=" ">
<path fill="none" stroke="#63b8ff" d="M748.08,-274.84C744.28,-266.03 738.7,-251.86 736.01,-239 729.25,-206.74 741.88,-196.12 731.01,-165 721.21,-136.95 717.33,-127.07 693.01,-110 660.8,-87.4 617.84,-76.28 583.3,-70.8"/>
<polygon fill="#63b8ff" stroke="#63b8ff" points="583.74,-67.33 573.34,-69.34 582.73,-74.26 583.74,-67.33"/>
</a>
</g>
</g>
<!-- Node12 -->
<g id="Node000012" class="node">
<title>Node12</title>
<g id="a_Node000012"><a xlink:title=" ">
<polygon fill="#e0e0e0" stroke="#999999" points="792.51,-239 745.51,-239 745.51,-220 792.51,-220 792.51,-239"/>
<text text-anchor="middle" x="769.01" y="-227" font-family="Helvetica,sans-Serif" font-size="10.00">cmath</text>
</a>
</g>
</g>
<!-- Node11&#45;&gt;Node12 -->
<g id="edge12_Node000011_Node000012" class="edge">
<title>Node11&#45;&gt;Node12</title>
<g id="a_edge12_Node000011_Node000012"><a xlink:title=" ">
<path fill="none" stroke="#63b8ff" d="M754.81,-274.75C757.07,-267.72 760.31,-257.62 763.12,-248.84"/>
<polygon fill="#63b8ff" stroke="#63b8ff" points="766.53,-249.68 766.25,-239.09 759.87,-247.54 766.53,-249.68"/>
</a>
</g>
</g>
<!-- Node13 -->
<g id="Node000013" class="node">
<title>Node13</title>
<g id="a_Node000013"><a xlink:title=" ">
<polygon fill="#e0e0e0" stroke="#999999" points="855.01,-239 811.01,-239 811.01,-220 855.01,-220 855.01,-239"/>
<text text-anchor="middle" x="833.01" y="-227" font-family="Helvetica,sans-Serif" font-size="10.00">limits</text>
</a>
</g>
</g>
<!-- Node11&#45;&gt;Node13 -->
<g id="edge13_Node000011_Node000013" class="edge">
<title>Node11&#45;&gt;Node13</title>
<g id="a_edge13_Node000011_Node000013"><a xlink:title=" ">
<path fill="none" stroke="#63b8ff" d="M765.02,-274.98C777.46,-266.84 796.46,-254.41 811.22,-244.76"/>
<polygon fill="#63b8ff" stroke="#63b8ff" points="813.31,-247.57 819.76,-239.17 809.47,-241.72 813.31,-247.57"/>
</a>
</g>
</g>
<!-- Node14&#45;&gt;Node3 -->
<g id="edge22_Node000014_Node000003" class="edge">
<title>Node14&#45;&gt;Node3</title>
<g id="a_edge22_Node000014_Node000003"><a xlink:title=" ">
<path fill="none" stroke="#63b8ff" d="M390.87,-164.66C415.74,-146.14 473.56,-103.08 504.17,-80.28"/>
<polygon fill="#63b8ff" stroke="#63b8ff" points="506.45,-82.94 512.38,-74.16 502.27,-77.32 506.45,-82.94"/>
</a>
</g>
</g>
<!-- Node14&#45;&gt;Node10 -->
<g id="edge24_Node000014_Node000010" class="edge">
<title>Node14&#45;&gt;Node10</title>
<g id="a_edge24_Node000014_Node000010"><a xlink:title=" ">
<path fill="none" stroke="#63b8ff" d="M399.25,-164.98C419.7,-156.38 451.54,-142.99 474.94,-133.15"/>
<polygon fill="#63b8ff" stroke="#63b8ff" points="476.53,-136.27 484.39,-129.17 473.82,-129.82 476.53,-136.27"/>
</a>
</g>
</g>
<!-- Node15 -->
<g id="Node000015" class="node">
<title>Node15</title>
<g id="a_Node000015"><a xlink:href="ExtraDataContainer_8h.html" target="_top" xlink:title=" ">
<polygon fill="white" stroke="#666666" points="202.51,-129 23.51,-129 23.51,-110 202.51,-110 202.51,-129"/>
<text text-anchor="middle" x="113.01" y="-117" font-family="Helvetica,sans-Serif" font-size="10.00">Application/ExtraDataContainer.h</text>
</a>
</g>
</g>
<!-- Node14&#45;&gt;Node15 -->
<g id="edge15_Node000014_Node000015" class="edge">
<title>Node14&#45;&gt;Node15</title>
<g id="a_edge15_Node000014_Node000015"><a xlink:title=" ">
<path fill="none" stroke="#63b8ff" d="M336.27,-164.98C289.97,-155.76 216.03,-141.03 166.05,-131.07"/>
<polygon fill="#63b8ff" stroke="#63b8ff" points="166.57,-127.6 156.08,-129.08 165.2,-134.47 166.57,-127.6"/>
</a>
</g>
</g>
<!-- Node19 -->
<g id="Node000019" class="node">
<title>Node19</title>
<g id="a_Node000019"><a xlink:href="Primitive_8h.html" target="_top" xlink:title=" ">
<polygon fill="white" stroke="#666666" points="425.01,-129 297.01,-129 297.01,-110 425.01,-110 425.01,-129"/>
<text text-anchor="middle" x="361.01" y="-117" font-family="Helvetica,sans-Serif" font-size="10.00">Application/Primitive.h</text>
</a>
</g>
</g>
<!-- Node14&#45;&gt;Node19 -->
<g id="edge19_Node000014_Node000019" class="edge">
<title>Node14&#45;&gt;Node19</title>
<g id="a_edge19_Node000014_Node000019"><a xlink:title=" ">
<path fill="none" stroke="#63b8ff" d="M376.04,-164.75C373.65,-157.72 370.22,-147.62 367.24,-138.84"/>
<polygon fill="#63b8ff" stroke="#63b8ff" points="370.45,-137.43 363.92,-129.09 363.83,-139.68 370.45,-137.43"/>
</a>
</g>
</g>
<!-- Node20 -->
<g id="Node000020" class="node">
<title>Node20</title>
<g id="a_Node000020"><a xlink:title=" ">
<polygon fill="#e0e0e0" stroke="#999999" points="279.01,-129 221.01,-129 221.01,-110 279.01,-110 279.01,-129"/>
<text text-anchor="middle" x="250.01" y="-117" font-family="Helvetica,sans-Serif" font-size="10.00">memory</text>
</a>
</g>
</g>
<!-- Node14&#45;&gt;Node20 -->
<g id="edge23_Node000014_Node000020" class="edge">
<title>Node14&#45;&gt;Node20</title>
<g id="a_edge23_Node000014_Node000020"><a xlink:title=" ">
<path fill="none" stroke="#63b8ff" d="M358.28,-164.98C337.25,-156.34 304.46,-142.87 280.47,-133.02"/>
<polygon fill="#63b8ff" stroke="#63b8ff" points="281.69,-129.73 271.11,-129.17 279.03,-136.21 281.69,-129.73"/>
</a>
</g>
</g>
<!-- Node16 -->
<g id="Node000016" class="node">
<title>Node16</title>
<g id="a_Node000016"><a xlink:title=" ">
<polygon fill="#e0e0e0" stroke="#999999" points="169.51,-74 134.51,-74 134.51,-55 169.51,-55 169.51,-74"/>
<text text-anchor="middle" x="152.01" y="-62" font-family="Helvetica,sans-Serif" font-size="10.00">any</text>
</a>
</g>
</g>
<!-- Node15&#45;&gt;Node16 -->
<g id="edge16_Node000015_Node000016" class="edge">
<title>Node15&#45;&gt;Node16</title>
<g id="a_edge16_Node000015_Node000016"><a xlink:title=" ">
<path fill="none" stroke="#63b8ff" d="M119.45,-109.75C124.9,-102.34 132.87,-91.5 139.56,-82.41"/>
<polygon fill="#63b8ff" stroke="#63b8ff" points="142.58,-84.22 145.69,-74.09 136.94,-80.07 142.58,-84.22"/>
</a>
</g>
</g>
<!-- Node17 -->
<g id="Node000017" class="node">
<title>Node17</title>
<g id="a_Node000017"><a xlink:title=" ">
<polygon fill="#e0e0e0" stroke="#999999" points="252.51,-74 187.51,-74 187.51,-55 252.51,-55 252.51,-74"/>
<text text-anchor="middle" x="220.01" y="-62" font-family="Helvetica,sans-Serif" font-size="10.00">typeindex</text>
</a>
</g>
</g>
<!-- Node15&#45;&gt;Node17 -->
<g id="edge17_Node000015_Node000017" class="edge">
<title>Node15&#45;&gt;Node17</title>
<g id="a_edge17_Node000015_Node000017"><a xlink:title=" ">
<path fill="none" stroke="#63b8ff" d="M130.2,-109.98C147.26,-101.54 173.64,-88.47 193.4,-78.68"/>
<polygon fill="#63b8ff" stroke="#63b8ff" points="195.1,-81.75 202.5,-74.17 191.99,-75.47 195.1,-81.75"/>
</a>
</g>
</g>
<!-- Node18 -->
<g id="Node000018" class="node">
<title>Node18</title>
<g id="a_Node000018"><a xlink:title=" ">
<polygon fill="#e0e0e0" stroke="#999999" points="116.51,-74 23.51,-74 23.51,-55 116.51,-55 116.51,-74"/>
<text text-anchor="middle" x="70.01" y="-62" font-family="Helvetica,sans-Serif" font-size="10.00">unordered_map</text>
</a>
</g>
</g>
<!-- Node15&#45;&gt;Node18 -->
<g id="edge18_Node000015_Node000018" class="edge">
<title>Node15&#45;&gt;Node18</title>
<g id="a_edge18_Node000015_Node000018"><a xlink:title=" ">
<path fill="none" stroke="#63b8ff" d="M105.91,-109.75C99.83,-102.26 90.92,-91.28 83.5,-82.13"/>
<polygon fill="#63b8ff" stroke="#63b8ff" points="85.99,-79.65 76.98,-74.09 80.56,-84.06 85.99,-79.65"/>
</a>
</g>
</g>
<!-- Node19&#45;&gt;Node3 -->
<g id="edge20_Node000019_Node000003" class="edge">
<title>Node19&#45;&gt;Node3</title>
<g id="a_edge20_Node000019_Node000003"><a xlink:title=" ">
<path fill="none" stroke="#63b8ff" d="M387.2,-109.98C414.44,-101.13 457.31,-87.19 487.79,-77.28"/>
<polygon fill="#63b8ff" stroke="#63b8ff" points="489.19,-80.5 497.61,-74.08 487.02,-73.85 489.19,-80.5"/>
</a>
</g>
</g>
<!-- Node19&#45;&gt;Node8 -->
<g id="edge21_Node000019_Node000008" class="edge">
<title>Node19&#45;&gt;Node8</title>
<g id="a_edge21_Node000019_Node000008"><a xlink:title=" ">
<path fill="none" stroke="#63b8ff" d="M367.12,-109.75C372.29,-102.34 379.85,-91.5 386.2,-82.41"/>
<polygon fill="#63b8ff" stroke="#63b8ff" points="389.16,-84.29 392.01,-74.09 383.42,-80.29 389.16,-84.29"/>
</a>
</g>
</g>
<!-- Node21&#45;&gt;Node7 -->
<g id="edge27_Node000021_Node000007" class="edge">
<title>Node21&#45;&gt;Node7</title>
<g id="a_edge27_Node000021_Node000007"><a xlink:title=" ">
<path fill="none" stroke="#63b8ff" d="M142.3,-219.89C104.96,-206.97 41.31,-178.62 14.01,-129 -1.85,-100.18 -6.69,-80.56 14.01,-55 35.45,-28.51 133.79,-17.12 187.59,-12.8"/>
<polygon fill="#63b8ff" stroke="#63b8ff" points="188.01,-16.28 197.72,-12.03 187.48,-9.3 188.01,-16.28"/>
</a>
</g>
</g>
<!-- Node21&#45;&gt;Node14 -->
<g id="edge26_Node000021_Node000014" class="edge">
<title>Node21&#45;&gt;Node14</title>
<g id="a_edge26_Node000021_Node000014"><a xlink:title=" ">
<path fill="none" stroke="#63b8ff" d="M204.43,-219.98C239.95,-210.93 296.28,-196.58 335.31,-186.64"/>
<polygon fill="#63b8ff" stroke="#63b8ff" points="336.5,-189.94 345.33,-184.08 334.77,-183.16 336.5,-189.94"/>
</a>
</g>
</g>
<!-- Node22&#45;&gt;Node14 -->
<g id="edge29_Node000022_Node000014" class="edge">
<title>Node22&#45;&gt;Node14</title>
<g id="a_edge29_Node000022_Node000014"><a xlink:title=" ">
<path fill="none" stroke="#63b8ff" d="M294.16,-274.96C288.96,-262.03 281.49,-237.19 292.01,-220 301.41,-204.64 317.97,-194.36 334.14,-187.6"/>
<polygon fill="#63b8ff" stroke="#63b8ff" points="335.46,-190.84 343.56,-184.01 332.97,-184.3 335.46,-190.84"/>
</a>
</g>
</g>
<!-- Node23 -->
<g id="Node000023" class="node">
<title>Node23</title>
<g id="a_Node000023"><a xlink:title=" ">
<polygon fill="#e0e0e0" stroke="#999999" points="369.01,-239 301.01,-239 301.01,-220 369.01,-220 369.01,-239"/>
<text text-anchor="middle" x="335.01" y="-227" font-family="Helvetica,sans-Serif" font-size="10.00">filesystem</text>
</a>
</g>
</g>
<!-- Node22&#45;&gt;Node23 -->
<g id="edge30_Node000022_Node000023" class="edge">
<title>Node22&#45;&gt;Node23</title>
<g id="a_edge30_Node000022_Node000023"><a xlink:title=" ">
<path fill="none" stroke="#63b8ff" d="M304.12,-274.75C309.29,-267.34 316.85,-256.5 323.2,-247.41"/>
<polygon fill="#63b8ff" stroke="#63b8ff" points="326.16,-249.29 329.01,-239.09 320.42,-245.29 326.16,-249.29"/>
</a>
</g>
</g>
<!-- Node24&#45;&gt;Node3 -->
<g id="edge33_Node000024_Node000003" class="edge">
<title>Node24&#45;&gt;Node3</title>
<g id="a_edge33_Node000024_Node000003"><a xlink:title=" ">
<path fill="none" stroke="#63b8ff" d="M540.55,-219.81C541.61,-200.12 543.35,-150.67 537.01,-110 535.64,-101.25 533.05,-91.81 530.54,-83.88"/>
<polygon fill="#63b8ff" stroke="#63b8ff" points="533.79,-82.57 527.28,-74.21 527.16,-84.81 533.79,-82.57"/>
</a>
</g>
</g>
<!-- Node24&#45;&gt;Node14 -->
<g id="edge32_Node000024_Node000014" class="edge">
<title>Node24&#45;&gt;Node14</title>
<g id="a_edge32_Node000024_Node000014"><a xlink:title=" ">
<path fill="none" stroke="#63b8ff" d="M514.14,-219.98C487.23,-211.13 444.89,-197.19 414.78,-187.28"/>
<polygon fill="#63b8ff" stroke="#63b8ff" points="415.67,-183.88 405.08,-184.08 413.48,-190.53 415.67,-183.88"/>
</a>
</g>
</g>
<!-- Node25&#45;&gt;Node2 -->
<g id="edge35_Node000025_Node000002" class="edge">
<title>Node25&#45;&gt;Node2</title>
<g id="a_edge35_Node000025_Node000002"><a xlink:title=" ">
<path fill="none" stroke="#63b8ff" d="M582.44,-274.88C596.17,-267.24 614.8,-254.84 626.01,-239 635.46,-225.64 640.27,-207.53 642.68,-194.07"/>
<polygon fill="#63b8ff" stroke="#63b8ff" points="646.16,-194.47 644.19,-184.06 639.24,-193.43 646.16,-194.47"/>
</a>
</g>
</g>
<!-- Node25&#45;&gt;Node14 -->
<g id="edge36_Node000025_Node000014" class="edge">
<title>Node25&#45;&gt;Node14</title>
<g id="a_edge36_Node000025_Node000014"><a xlink:title=" ">
<path fill="none" stroke="#63b8ff" d="M536.47,-274.88C513.32,-267.25 480.33,-254.85 454.01,-239 431.56,-225.49 409.06,-205.34 394.64,-191.37"/>
<polygon fill="#63b8ff" stroke="#63b8ff" points="397.09,-188.87 387.52,-184.34 392.17,-193.85 397.09,-188.87"/>
</a>
</g>
</g>
<!-- Node25&#45;&gt;Node24 -->
<g id="edge37_Node000025_Node000024" class="edge">
<title>Node25&#45;&gt;Node24</title>
<g id="a_edge37_Node000025_Node000024"><a xlink:title=" ">
<path fill="none" stroke="#63b8ff" d="M560.88,-274.75C557.49,-267.57 552.59,-257.18 548.39,-248.27"/>
<polygon fill="#63b8ff" stroke="#63b8ff" points="551.49,-246.64 544.06,-239.09 545.16,-249.63 551.49,-246.64"/>
</a>
</g>
</g>
</g>
</svg>
