<?xml version="1.0" encoding="UTF-8" standalone="no"?>
<!DOCTYPE svg PUBLIC "-//W3C//DTD SVG 1.1//EN"
 "http://www.w3.org/Graphics/SVG/1.1/DTD/svg11.dtd">
<!-- Generated by graphviz version 2.43.0 (0)
 -->
<!-- Title: App/Test/Source/Mesh_utest.cpp Pages: 1 -->
<svg width="593pt" height="368pt"
 viewBox="0.00 0.00 593.07 368.00" xmlns="http://www.w3.org/2000/svg" xmlns:xlink="http://www.w3.org/1999/xlink">
<g id="graph0" class="graph" transform="scale(1 1) rotate(0) translate(4 364)">
<title>App/Test/Source/Mesh_utest.cpp</title>
<!-- Node1 -->
<g id="Node000001" class="node">
<title>Node1</title>
<g id="a_Node000001"><a xlink:title=" ">
<polygon fill="#999999" stroke="#666666" points="442.57,-360 319.57,-360 319.57,-330 442.57,-330 442.57,-360"/>
<text text-anchor="start" x="327.57" y="-348" font-family="Helvetica,sans-Serif" font-size="10.00">App/Test/Source/Mesh</text>
<text text-anchor="middle" x="381.07" y="-337" font-family="Helvetica,sans-Serif" font-size="10.00">_utest.cpp</text>
</a>
</g>
</g>
<!-- Node2 -->
<g id="Node000002" class="node">
<title>Node2</title>
<g id="a_Node000002"><a xlink:href="Mesh_8h.html" target="_top" xlink:title=" ">
<polygon fill="white" stroke="#666666" points="370.07,-184 260.07,-184 260.07,-165 370.07,-165 370.07,-184"/>
<text text-anchor="middle" x="315.07" y="-172" font-family="Helvetica,sans-Serif" font-size="10.00">Application/Mesh.h</text>
</a>
</g>
</g>
<!-- Node1&#45;&gt;Node2 -->
<g id="edge1_Node000001_Node000002" class="edge">
<title>Node1&#45;&gt;Node2</title>
<g id="a_edge1_Node000001_Node000002"><a xlink:title=" ">
<path fill="none" stroke="#63b8ff" d="M343.35,-329.88C327.64,-321.9 310.99,-310.21 302.07,-294 284.51,-262.1 297.23,-218.07 306.9,-193.65"/>
<polygon fill="#63b8ff" stroke="#63b8ff" points="310.22,-194.78 310.89,-184.2 303.78,-192.06 310.22,-194.78"/>
</a>
</g>
</g>
<!-- Node14 -->
<g id="Node000014" class="node">
<title>Node14</title>
<g id="a_Node000014"><a xlink:href="MeshIntegrity_8h.html" target="_top" xlink:title=" ">
<polygon fill="white" stroke="#666666" points="255.57,-239 106.57,-239 106.57,-220 255.57,-220 255.57,-239"/>
<text text-anchor="middle" x="181.07" y="-227" font-family="Helvetica,sans-Serif" font-size="10.00">Application/MeshIntegrity.h</text>
</a>
</g>
</g>
<!-- Node1&#45;&gt;Node14 -->
<g id="edge14_Node000001_Node000014" class="edge">
<title>Node1&#45;&gt;Node14</title>
<g id="a_edge14_Node000001_Node000014"><a xlink:title=" ">
<path fill="none" stroke="#63b8ff" d="M344.58,-329.94C322.22,-320.78 293.34,-307.97 269.07,-294 243.77,-279.43 216.85,-259.23 199.54,-245.55"/>
<polygon fill="#63b8ff" stroke="#63b8ff" points="201.42,-242.58 191.43,-239.06 197.05,-248.04 201.42,-242.58"/>
</a>
</g>
</g>
<!-- Node15 -->
<g id="Node000015" class="node">
<title>Node15</title>
<g id="a_Node000015"><a xlink:href="PrimitiveProxy_8h.html" target="_top" xlink:title=" ">
<polygon fill="white" stroke="#666666" points="543.07,-239 389.07,-239 389.07,-220 543.07,-220 543.07,-239"/>
<text text-anchor="middle" x="466.07" y="-227" font-family="Helvetica,sans-Serif" font-size="10.00">Application/PrimitiveProxy.h</text>
</a>
</g>
</g>
<!-- Node1&#45;&gt;Node15 -->
<g id="edge17_Node000001_Node000015" class="edge">
<title>Node1&#45;&gt;Node15</title>
<g id="a_edge17_Node000001_Node000015"><a xlink:title=" ">
<path fill="none" stroke="#63b8ff" d="M417.27,-329.89C433.08,-321.82 450.22,-310.05 460.07,-294 468.3,-280.58 469.24,-262.48 468.45,-249.04"/>
<polygon fill="#63b8ff" stroke="#63b8ff" points="471.93,-248.67 467.5,-239.04 464.96,-249.33 471.93,-248.67"/>
</a>
</g>
</g>
<!-- Node16 -->
<g id="Node000016" class="node">
<title>Node16</title>
<g id="a_Node000016"><a xlink:href="TestHelpers_8h.html" target="_top" xlink:title=" ">
<polygon fill="white" stroke="#666666" points="451.07,-294 311.07,-294 311.07,-275 451.07,-275 451.07,-294"/>
<text text-anchor="middle" x="381.07" y="-282" font-family="Helvetica,sans-Serif" font-size="10.00">Application/TestHelpers.h</text>
</a>
</g>
</g>
<!-- Node1&#45;&gt;Node16 -->
<g id="edge20_Node000001_Node000016" class="edge">
<title>Node1&#45;&gt;Node16</title>
<g id="a_edge20_Node000001_Node000016"><a xlink:title=" ">
<path fill="none" stroke="#63b8ff" d="M381.07,-329.84C381.07,-322.21 381.07,-312.7 381.07,-304.45"/>
<polygon fill="#63b8ff" stroke="#63b8ff" points="384.57,-304.27 381.07,-294.27 377.57,-304.27 384.57,-304.27"/>
</a>
</g>
</g>
<!-- Node17 -->
<g id="Node000017" class="node">
<title>Node17</title>
<g id="a_Node000017"><a xlink:title=" ">
<polygon fill="#e0e0e0" stroke="#999999" points="585.07,-294 507.07,-294 507.07,-275 585.07,-275 585.07,-294"/>
<text text-anchor="middle" x="546.07" y="-282" font-family="Helvetica,sans-Serif" font-size="10.00">gtest/gtest.h</text>
</a>
</g>
</g>
<!-- Node1&#45;&gt;Node17 -->
<g id="edge23_Node000001_Node000017" class="edge">
<title>Node1&#45;&gt;Node17</title>
<g id="a_edge23_Node000001_Node000017"><a xlink:title=" ">
<path fill="none" stroke="#63b8ff" d="M420.59,-329.99C448.49,-320.1 485.48,-306.98 512.07,-297.56"/>
<polygon fill="#63b8ff" stroke="#63b8ff" points="513.45,-300.78 521.7,-294.14 511.11,-294.18 513.45,-300.78"/>
</a>
</g>
</g>
<!-- Node3 -->
<g id="Node000003" class="node">
<title>Node3</title>
<g id="a_Node000003"><a xlink:href="BaseType_8h.html" target="_top" xlink:title=" ">
<polygon fill="white" stroke="#666666" points="578.07,-74 448.07,-74 448.07,-55 578.07,-55 578.07,-74"/>
<text text-anchor="middle" x="513.07" y="-62" font-family="Helvetica,sans-Serif" font-size="10.00">Application/BaseType.h</text>
</a>
</g>
</g>
<!-- Node2&#45;&gt;Node3 -->
<g id="edge2_Node000002_Node000003" class="edge">
<title>Node2&#45;&gt;Node3</title>
<g id="a_edge2_Node000002_Node000003"><a xlink:title=" ">
<path fill="none" stroke="#63b8ff" d="M370.07,-165.9C415.87,-158.5 476.34,-145.91 494.07,-129 506.16,-117.47 510.65,-98.59 512.27,-84.41"/>
<polygon fill="#63b8ff" stroke="#63b8ff" points="515.77,-84.51 513.04,-74.28 508.79,-83.98 515.77,-84.51"/>
</a>
</g>
</g>
<!-- Node6 -->
<g id="Node000006" class="node">
<title>Node6</title>
<g id="a_Node000006"><a xlink:href="ExtraDataContainer_8h.html" target="_top" xlink:title=" ">
<polygon fill="white" stroke="#666666" points="196.57,-129 17.57,-129 17.57,-110 196.57,-110 196.57,-129"/>
<text text-anchor="middle" x="107.07" y="-117" font-family="Helvetica,sans-Serif" font-size="10.00">Application/ExtraDataContainer.h</text>
</a>
</g>
</g>
<!-- Node2&#45;&gt;Node6 -->
<g id="edge5_Node000002_Node000006" class="edge">
<title>Node2&#45;&gt;Node6</title>
<g id="a_edge5_Node000002_Node000006"><a xlink:title=" ">
<path fill="none" stroke="#63b8ff" d="M281.65,-164.98C246.13,-155.93 189.8,-141.58 150.77,-131.64"/>
<polygon fill="#63b8ff" stroke="#63b8ff" points="151.31,-128.16 140.75,-129.08 149.58,-134.94 151.31,-128.16"/>
</a>
</g>
</g>
<!-- Node10 -->
<g id="Node000010" class="node">
<title>Node10</title>
<g id="a_Node000010"><a xlink:href="Primitive_8h.html" target="_top" xlink:title=" ">
<polygon fill="white" stroke="#666666" points="485.07,-129 357.07,-129 357.07,-110 485.07,-110 485.07,-129"/>
<text text-anchor="middle" x="421.07" y="-117" font-family="Helvetica,sans-Serif" font-size="10.00">Application/Primitive.h</text>
</a>
</g>
</g>
<!-- Node2&#45;&gt;Node10 -->
<g id="edge9_Node000002_Node000010" class="edge">
<title>Node2&#45;&gt;Node10</title>
<g id="a_edge9_Node000002_Node000010"><a xlink:title=" ">
<path fill="none" stroke="#63b8ff" d="M332.1,-164.98C349,-156.54 375.13,-143.47 394.71,-133.68"/>
<polygon fill="#63b8ff" stroke="#63b8ff" points="396.35,-136.77 403.73,-129.17 393.22,-130.51 396.35,-136.77"/>
</a>
</g>
</g>
<!-- Node12 -->
<g id="Node000012" class="node">
<title>Node12</title>
<g id="a_Node000012"><a xlink:title=" ">
<polygon fill="#e0e0e0" stroke="#999999" points="273.07,-129 215.07,-129 215.07,-110 273.07,-110 273.07,-129"/>
<text text-anchor="middle" x="244.07" y="-117" font-family="Helvetica,sans-Serif" font-size="10.00">memory</text>
</a>
</g>
</g>
<!-- Node2&#45;&gt;Node12 -->
<g id="edge12_Node000002_Node000012" class="edge">
<title>Node2&#45;&gt;Node12</title>
<g id="a_edge12_Node000002_Node000012"><a xlink:title=" ">
<path fill="none" stroke="#63b8ff" d="M303.66,-164.98C292.96,-157 276.73,-144.88 263.91,-135.31"/>
<polygon fill="#63b8ff" stroke="#63b8ff" points="265.79,-132.35 255.68,-129.17 261.6,-137.96 265.79,-132.35"/>
</a>
</g>
</g>
<!-- Node13 -->
<g id="Node000013" class="node">
<title>Node13</title>
<g id="a_Node000013"><a xlink:title=" ">
<polygon fill="#e0e0e0" stroke="#999999" points="338.57,-129 291.57,-129 291.57,-110 338.57,-110 338.57,-129"/>
<text text-anchor="middle" x="315.07" y="-117" font-family="Helvetica,sans-Serif" font-size="10.00">vector</text>
</a>
</g>
</g>
<!-- Node2&#45;&gt;Node13 -->
<g id="edge13_Node000002_Node000013" class="edge">
<title>Node2&#45;&gt;Node13</title>
<g id="a_edge13_Node000002_Node000013"><a xlink:title=" ">
<path fill="none" stroke="#63b8ff" d="M315.07,-164.75C315.07,-157.8 315.07,-147.85 315.07,-139.13"/>
<polygon fill="#63b8ff" stroke="#63b8ff" points="318.57,-139.09 315.07,-129.09 311.57,-139.09 318.57,-139.09"/>
</a>
</g>
</g>
<!-- Node4 -->
<g id="Node000004" class="node">
<title>Node4</title>
<g id="a_Node000004"><a xlink:title=" ">
<polygon fill="#e0e0e0" stroke="#999999" points="552.07,-19 474.07,-19 474.07,0 552.07,0 552.07,-19"/>
<text text-anchor="middle" x="513.07" y="-7" font-family="Helvetica,sans-Serif" font-size="10.00">glm/glm.hpp</text>
</a>
</g>
</g>
<!-- Node3&#45;&gt;Node4 -->
<g id="edge3_Node000003_Node000004" class="edge">
<title>Node3&#45;&gt;Node4</title>
<g id="a_edge3_Node000003_Node000004"><a xlink:title=" ">
<path fill="none" stroke="#63b8ff" d="M513.07,-54.75C513.07,-47.8 513.07,-37.85 513.07,-29.13"/>
<polygon fill="#63b8ff" stroke="#63b8ff" points="516.57,-29.09 513.07,-19.09 509.57,-29.09 516.57,-29.09"/>
</a>
</g>
</g>
<!-- Node5 -->
<g id="Node000005" class="node">
<title>Node5</title>
<g id="a_Node000005"><a xlink:title=" ">
<polygon fill="#e0e0e0" stroke="#999999" points="235.07,-19 185.07,-19 185.07,0 235.07,0 235.07,-19"/>
<text text-anchor="middle" x="210.07" y="-7" font-family="Helvetica,sans-Serif" font-size="10.00">cstdint</text>
</a>
</g>
</g>
<!-- Node3&#45;&gt;Node5 -->
<g id="edge4_Node000003_Node000005" class="edge">
<title>Node3&#45;&gt;Node5</title>
<g id="a_edge4_Node000003_Node000005"><a xlink:title=" ">
<path fill="none" stroke="#63b8ff" d="M464.39,-54.98C403.22,-44.29 299.72,-26.18 245.55,-16.71"/>
<polygon fill="#63b8ff" stroke="#63b8ff" points="245.85,-13.21 235.39,-14.93 244.64,-20.1 245.85,-13.21"/>
</a>
</g>
</g>
<!-- Node7 -->
<g id="Node000007" class="node">
<title>Node7</title>
<g id="a_Node000007"><a xlink:title=" ">
<polygon fill="#e0e0e0" stroke="#999999" points="56.57,-74 21.57,-74 21.57,-55 56.57,-55 56.57,-74"/>
<text text-anchor="middle" x="39.07" y="-62" font-family="Helvetica,sans-Serif" font-size="10.00">any</text>
</a>
</g>
</g>
<!-- Node6&#45;&gt;Node7 -->
<g id="edge6_Node000006_Node000007" class="edge">
<title>Node6&#45;&gt;Node7</title>
<g id="a_edge6_Node000006_Node000007"><a xlink:title=" ">
<path fill="none" stroke="#63b8ff" d="M96.14,-109.98C85.99,-102.07 70.65,-90.11 58.42,-80.58"/>
<polygon fill="#63b8ff" stroke="#63b8ff" points="60.23,-77.56 50.19,-74.17 55.93,-83.08 60.23,-77.56"/>
</a>
</g>
</g>
<!-- Node8 -->
<g id="Node000008" class="node">
<title>Node8</title>
<g id="a_Node000008"><a xlink:title=" ">
<polygon fill="#e0e0e0" stroke="#999999" points="139.57,-74 74.57,-74 74.57,-55 139.57,-55 139.57,-74"/>
<text text-anchor="middle" x="107.07" y="-62" font-family="Helvetica,sans-Serif" font-size="10.00">typeindex</text>
</a>
</g>
</g>
<!-- Node6&#45;&gt;Node8 -->
<g id="edge7_Node000006_Node000008" class="edge">
<title>Node6&#45;&gt;Node8</title>
<g id="a_edge7_Node000006_Node000008"><a xlink:title=" ">
<path fill="none" stroke="#63b8ff" d="M107.07,-109.75C107.07,-102.8 107.07,-92.85 107.07,-84.13"/>
<polygon fill="#63b8ff" stroke="#63b8ff" points="110.57,-84.09 107.07,-74.09 103.57,-84.09 110.57,-84.09"/>
</a>
</g>
</g>
<!-- Node9 -->
<g id="Node000009" class="node">
<title>Node9</title>
<g id="a_Node000009"><a xlink:title=" ">
<polygon fill="#e0e0e0" stroke="#999999" points="250.57,-74 157.57,-74 157.57,-55 250.57,-55 250.57,-74"/>
<text text-anchor="middle" x="204.07" y="-62" font-family="Helvetica,sans-Serif" font-size="10.00">unordered_map</text>
</a>
</g>
</g>
<!-- Node6&#45;&gt;Node9 -->
<g id="edge8_Node000006_Node000009" class="edge">
<title>Node6&#45;&gt;Node9</title>
<g id="a_edge8_Node000006_Node000009"><a xlink:title=" ">
<path fill="none" stroke="#63b8ff" d="M122.65,-109.98C137.84,-101.69 161.17,-88.94 178.97,-79.22"/>
<polygon fill="#63b8ff" stroke="#63b8ff" points="181.1,-82.04 188.2,-74.17 177.75,-75.89 181.1,-82.04"/>
</a>
</g>
</g>
<!-- Node10&#45;&gt;Node3 -->
<g id="edge10_Node000010_Node000003" class="edge">
<title>Node10&#45;&gt;Node3</title>
<g id="a_edge10_Node000010_Node000003"><a xlink:title=" ">
<path fill="none" stroke="#63b8ff" d="M435.85,-109.98C450.25,-101.69 472.38,-88.94 489.26,-79.22"/>
<polygon fill="#63b8ff" stroke="#63b8ff" points="491.1,-82.19 498.02,-74.17 487.61,-76.13 491.1,-82.19"/>
</a>
</g>
</g>
<!-- Node11 -->
<g id="Node000011" class="node">
<title>Node11</title>
<g id="a_Node000011"><a xlink:title=" ">
<polygon fill="#e0e0e0" stroke="#999999" points="430.07,-74 388.07,-74 388.07,-55 430.07,-55 430.07,-74"/>
<text text-anchor="middle" x="409.07" y="-62" font-family="Helvetica,sans-Serif" font-size="10.00">array</text>
</a>
</g>
</g>
<!-- Node10&#45;&gt;Node11 -->
<g id="edge11_Node000010_Node000011" class="edge">
<title>Node10&#45;&gt;Node11</title>
<g id="a_edge11_Node000010_Node000011"><a xlink:title=" ">
<path fill="none" stroke="#63b8ff" d="M419.09,-109.75C417.5,-102.72 415.21,-92.62 413.22,-83.84"/>
<polygon fill="#63b8ff" stroke="#63b8ff" points="416.64,-83.07 411.01,-74.09 409.81,-84.62 416.64,-83.07"/>
</a>
</g>
</g>
<!-- Node14&#45;&gt;Node2 -->
<g id="edge15_Node000014_Node000002" class="edge">
<title>Node14&#45;&gt;Node2</title>
<g id="a_edge15_Node000014_Node000002"><a xlink:title=" ">
<path fill="none" stroke="#63b8ff" d="M202.6,-219.98C224.54,-211.3 258.81,-197.75 283.76,-187.88"/>
<polygon fill="#63b8ff" stroke="#63b8ff" points="285.14,-191.1 293.15,-184.17 282.56,-184.59 285.14,-191.1"/>
</a>
</g>
</g>
<!-- Node14&#45;&gt;Node5 -->
<g id="edge16_Node000014_Node000005" class="edge">
<title>Node14&#45;&gt;Node5</title>
<g id="a_edge16_Node000014_Node000005"><a xlink:title=" ">
<path fill="none" stroke="#63b8ff" d="M146.69,-219.95C105.35,-207.61 37.82,-180.44 8.07,-129 -0.25,-114.61 -6.14,-76.14 12.07,-55 32.94,-30.78 123.74,-18.53 174.82,-13.46"/>
<polygon fill="#63b8ff" stroke="#63b8ff" points="175.16,-16.94 184.78,-12.51 174.49,-9.97 175.16,-16.94"/>
</a>
</g>
</g>
<!-- Node15&#45;&gt;Node2 -->
<g id="edge19_Node000015_Node000002" class="edge">
<title>Node15&#45;&gt;Node2</title>
<g id="a_edge19_Node000015_Node000002"><a xlink:title=" ">
<path fill="none" stroke="#63b8ff" d="M441.81,-219.98C416.75,-211.19 377.44,-197.39 349.24,-187.49"/>
<polygon fill="#63b8ff" stroke="#63b8ff" points="350.37,-184.18 339.77,-184.17 348.05,-190.78 350.37,-184.18"/>
</a>
</g>
</g>
<!-- Node15&#45;&gt;Node3 -->
<g id="edge18_Node000015_Node000003" class="edge">
<title>Node15&#45;&gt;Node3</title>
<g id="a_edge18_Node000015_Node000003"><a xlink:title=" ">
<path fill="none" stroke="#63b8ff" d="M471.74,-219.92C482.38,-203.26 505,-164.98 513.07,-129 516.36,-114.34 516.15,-97.29 515.23,-84.55"/>
<polygon fill="#63b8ff" stroke="#63b8ff" points="518.68,-83.89 514.27,-74.26 511.71,-84.54 518.68,-83.89"/>
</a>
</g>
</g>
<!-- Node16&#45;&gt;Node2 -->
<g id="edge21_Node000016_Node000002" class="edge">
<title>Node16&#45;&gt;Node2</title>
<g id="a_edge21_Node000016_Node000002"><a xlink:title=" ">
<path fill="none" stroke="#63b8ff" d="M375.67,-274.66C364.74,-256.77 339.82,-216 325.58,-192.69"/>
<polygon fill="#63b8ff" stroke="#63b8ff" points="328.56,-190.87 320.36,-184.16 322.59,-194.52 328.56,-190.87"/>
</a>
</g>
</g>
<!-- Node16&#45;&gt;Node15 -->
<g id="edge22_Node000016_Node000015" class="edge">
<title>Node16&#45;&gt;Node15</title>
<g id="a_edge22_Node000016_Node000015"><a xlink:title=" ">
<path fill="none" stroke="#63b8ff" d="M394.73,-274.98C407.91,-266.77 428.1,-254.18 443.64,-244.49"/>
<polygon fill="#63b8ff" stroke="#63b8ff" points="445.53,-247.43 452.16,-239.17 441.83,-241.49 445.53,-247.43"/>
</a>
</g>
</g>
</g>
</svg>
