<?xml version="1.0" encoding="UTF-8" standalone="no"?>
<!DOCTYPE svg PUBLIC "-//W3C//DTD SVG 1.1//EN"
 "http://www.w3.org/Graphics/SVG/1.1/DTD/svg11.dtd">
<!-- Generated by graphviz version 2.43.0 (0)
 -->
<!-- Title: App/Source/MeshExporter.cpp Pages: 1 -->
<svg width="759pt" height="302pt"
 viewBox="0.00 0.00 758.50 302.00" xmlns="http://www.w3.org/2000/svg" xmlns:xlink="http://www.w3.org/1999/xlink">
<g id="graph0" class="graph" transform="scale(1 1) rotate(0) translate(4 298)">
<title>App/Source/MeshExporter.cpp</title>
<!-- Node1 -->
<g id="Node000001" class="node">
<title>Node1</title>
<g id="a_Node000001"><a xlink:title=" ">
<polygon fill="#999999" stroke="#666666" points="593.5,-294 432.5,-294 432.5,-275 593.5,-275 593.5,-294"/>
<text text-anchor="middle" x="513" y="-282" font-family="Helvetica,sans-Serif" font-size="10.00">App/Source/MeshExporter.cpp</text>
</a>
</g>
</g>
<!-- Node2 -->
<g id="Node000002" class="node">
<title>Node2</title>
<g id="a_Node000002"><a xlink:href="MeshExporter_8h.html" target="_top" xlink:title=" ">
<polygon fill="white" stroke="#666666" points="340,-239 190,-239 190,-220 340,-220 340,-239"/>
<text text-anchor="middle" x="265" y="-227" font-family="Helvetica,sans-Serif" font-size="10.00">Application/MeshExporter.h</text>
</a>
</g>
</g>
<!-- Node1&#45;&gt;Node2 -->
<g id="edge1_Node000001_Node000002" class="edge">
<title>Node1&#45;&gt;Node2</title>
<g id="a_edge1_Node000001_Node000002"><a xlink:title=" ">
<path fill="none" stroke="#63b8ff" d="M473.15,-274.98C430.17,-265.8 361.63,-251.15 315.04,-241.19"/>
<polygon fill="#63b8ff" stroke="#63b8ff" points="315.67,-237.75 305.16,-239.08 314.21,-244.59 315.67,-237.75"/>
</a>
</g>
</g>
<!-- Node3 -->
<g id="Node000003" class="node">
<title>Node3</title>
<g id="a_Node000003"><a xlink:href="BaseType_8h.html" target="_top" xlink:title=" ">
<polygon fill="white" stroke="#666666" points="130,-74 0,-74 0,-55 130,-55 130,-74"/>
<text text-anchor="middle" x="65" y="-62" font-family="Helvetica,sans-Serif" font-size="10.00">Application/BaseType.h</text>
</a>
</g>
</g>
<!-- Node1&#45;&gt;Node3 -->
<g id="edge18_Node000001_Node000003" class="edge">
<title>Node1&#45;&gt;Node3</title>
<g id="a_edge18_Node000001_Node000003"><a xlink:title=" ">
<path fill="none" stroke="#63b8ff" d="M432.49,-281.56C363.96,-277.85 263.76,-267.47 181,-239 135.23,-223.25 119.69,-219.7 87,-184 63.46,-158.29 59.44,-144.82 61,-110 61.38,-101.47 62.18,-92.04 62.96,-84.07"/>
<polygon fill="#63b8ff" stroke="#63b8ff" points="66.45,-84.32 64.01,-74.02 59.49,-83.6 66.45,-84.32"/>
</a>
</g>
</g>
<!-- Node7 -->
<g id="Node000007" class="node">
<title>Node7</title>
<g id="a_Node000007"><a xlink:href="ExtraDataContainer_8h.html" target="_top" xlink:title=" ">
<polygon fill="white" stroke="#666666" points="598.5,-129 419.5,-129 419.5,-110 598.5,-110 598.5,-129"/>
<text text-anchor="middle" x="509" y="-117" font-family="Helvetica,sans-Serif" font-size="10.00">Application/ExtraDataContainer.h</text>
</a>
</g>
</g>
<!-- Node1&#45;&gt;Node7 -->
<g id="edge19_Node000001_Node000007" class="edge">
<title>Node1&#45;&gt;Node7</title>
<g id="a_edge19_Node000001_Node000007"><a xlink:title=" ">
<path fill="none" stroke="#63b8ff" d="M491.62,-274.97C476.76,-267.79 458.06,-255.95 449,-239 433.5,-209.99 433.1,-194.32 448,-165 454.77,-151.68 467.6,-141.41 479.75,-134.1"/>
<polygon fill="#63b8ff" stroke="#63b8ff" points="481.75,-136.99 488.8,-129.09 478.36,-130.87 481.75,-136.99"/>
</a>
</g>
</g>
<!-- Node16 -->
<g id="Node000016" class="node">
<title>Node16</title>
<g id="a_Node000016"><a xlink:href="PrintHelpers_8h.html" target="_top" xlink:title=" ">
<polygon fill="white" stroke="#666666" points="568.5,-239 457.5,-239 457.5,-220 568.5,-220 568.5,-239"/>
<text text-anchor="middle" x="513" y="-227" font-family="Helvetica,sans-Serif" font-size="10.00">Core/PrintHelpers.h</text>
</a>
</g>
</g>
<!-- Node1&#45;&gt;Node16 -->
<g id="edge20_Node000001_Node000016" class="edge">
<title>Node1&#45;&gt;Node16</title>
<g id="a_edge20_Node000001_Node000016"><a xlink:title=" ">
<path fill="none" stroke="#63b8ff" d="M513,-274.75C513,-267.8 513,-257.85 513,-249.13"/>
<polygon fill="#63b8ff" stroke="#63b8ff" points="516.5,-249.09 513,-239.09 509.5,-249.09 516.5,-249.09"/>
</a>
</g>
</g>
<!-- Node18 -->
<g id="Node000018" class="node">
<title>Node18</title>
<g id="a_Node000018"><a xlink:title=" ">
<polygon fill="#e0e0e0" stroke="#999999" points="697,-184 637,-184 637,-165 697,-165 697,-184"/>
<text text-anchor="middle" x="667" y="-172" font-family="Helvetica,sans-Serif" font-size="10.00">iostream</text>
</a>
</g>
</g>
<!-- Node1&#45;&gt;Node18 -->
<g id="edge26_Node000001_Node000018" class="edge">
<title>Node1&#45;&gt;Node18</title>
<g id="a_edge26_Node000001_Node000018"><a xlink:title=" ">
<path fill="none" stroke="#63b8ff" d="M526,-274.71C539.16,-265.78 560.07,-251.54 578,-239 601.58,-222.52 628.44,-203.29 646.43,-190.35"/>
<polygon fill="#63b8ff" stroke="#63b8ff" points="648.89,-192.89 654.96,-184.2 644.8,-187.21 648.89,-192.89"/>
</a>
</g>
</g>
<!-- Node20 -->
<g id="Node000020" class="node">
<title>Node20</title>
<g id="a_Node000020"><a xlink:title=" ">
<polygon fill="#e0e0e0" stroke="#999999" points="677,-239 625,-239 625,-220 677,-220 677,-239"/>
<text text-anchor="middle" x="651" y="-227" font-family="Helvetica,sans-Serif" font-size="10.00">cassert</text>
</a>
</g>
</g>
<!-- Node1&#45;&gt;Node20 -->
<g id="edge24_Node000001_Node000020" class="edge">
<title>Node1&#45;&gt;Node20</title>
<g id="a_edge24_Node000001_Node000020"><a xlink:title=" ">
<path fill="none" stroke="#63b8ff" d="M535.17,-274.98C557.77,-266.3 593.06,-252.75 618.75,-242.88"/>
<polygon fill="#63b8ff" stroke="#63b8ff" points="620.34,-246.02 628.42,-239.17 617.83,-239.49 620.34,-246.02"/>
</a>
</g>
</g>
<!-- Node21 -->
<g id="Node000021" class="node">
<title>Node21</title>
<g id="a_Node000021"><a xlink:title=" ">
<polygon fill="#e0e0e0" stroke="#999999" points="750.5,-239 695.5,-239 695.5,-220 750.5,-220 750.5,-239"/>
<text text-anchor="middle" x="723" y="-227" font-family="Helvetica,sans-Serif" font-size="10.00">fstream</text>
</a>
</g>
</g>
<!-- Node1&#45;&gt;Node21 -->
<g id="edge25_Node000001_Node000021" class="edge">
<title>Node1&#45;&gt;Node21</title>
<g id="a_edge25_Node000001_Node000021"><a xlink:title=" ">
<path fill="none" stroke="#63b8ff" d="M546.74,-274.98C584.71,-265.4 646.22,-249.88 685.62,-239.93"/>
<polygon fill="#63b8ff" stroke="#63b8ff" points="686.54,-243.31 695.38,-237.47 684.83,-236.52 686.54,-243.31"/>
</a>
</g>
</g>
<!-- Node2&#45;&gt;Node3 -->
<g id="edge2_Node000002_Node000003" class="edge">
<title>Node2&#45;&gt;Node3</title>
<g id="a_edge2_Node000002_Node000003"><a xlink:title=" ">
<path fill="none" stroke="#63b8ff" d="M208.94,-219.96C179.22,-213.52 143.15,-202.5 115,-184 88.37,-166.5 80.81,-158.6 69,-129 63.3,-114.72 62.62,-97.19 63.18,-84.17"/>
<polygon fill="#63b8ff" stroke="#63b8ff" points="66.68,-84.31 63.9,-74.08 59.7,-83.81 66.68,-84.31"/>
</a>
</g>
</g>
<!-- Node5 -->
<g id="Node000005" class="node">
<title>Node5</title>
<g id="a_Node000005"><a xlink:title=" ">
<polygon fill="#e0e0e0" stroke="#999999" points="294,-19 244,-19 244,0 294,0 294,-19"/>
<text text-anchor="middle" x="269" y="-7" font-family="Helvetica,sans-Serif" font-size="10.00">cstdint</text>
</a>
</g>
</g>
<!-- Node2&#45;&gt;Node5 -->
<g id="edge16_Node000002_Node000005" class="edge">
<title>Node2&#45;&gt;Node5</title>
<g id="a_edge16_Node000002_Node000005"><a xlink:title=" ">
<path fill="none" stroke="#63b8ff" d="M282.02,-219.79C308.17,-205.22 356.8,-173.13 372,-129 387.85,-82.99 331.49,-43.51 295.93,-23.84"/>
<polygon fill="#63b8ff" stroke="#63b8ff" points="297.44,-20.68 286.97,-19.05 294.14,-26.85 297.44,-20.68"/>
</a>
</g>
</g>
<!-- Node6 -->
<g id="Node000006" class="node">
<title>Node6</title>
<g id="a_Node000006"><a xlink:href="Mesh_8h.html" target="_top" xlink:title=" ">
<polygon fill="white" stroke="#666666" points="320,-184 210,-184 210,-165 320,-165 320,-184"/>
<text text-anchor="middle" x="265" y="-172" font-family="Helvetica,sans-Serif" font-size="10.00">Application/Mesh.h</text>
</a>
</g>
</g>
<!-- Node2&#45;&gt;Node6 -->
<g id="edge5_Node000002_Node000006" class="edge">
<title>Node2&#45;&gt;Node6</title>
<g id="a_edge5_Node000002_Node000006"><a xlink:title=" ">
<path fill="none" stroke="#63b8ff" d="M265,-219.75C265,-212.8 265,-202.85 265,-194.13"/>
<polygon fill="#63b8ff" stroke="#63b8ff" points="268.5,-194.09 265,-184.09 261.5,-194.09 268.5,-194.09"/>
</a>
</g>
</g>
<!-- Node15 -->
<g id="Node000015" class="node">
<title>Node15</title>
<g id="a_Node000015"><a xlink:title=" ">
<polygon fill="#e0e0e0" stroke="#999999" points="192,-184 124,-184 124,-165 192,-165 192,-184"/>
<text text-anchor="middle" x="158" y="-172" font-family="Helvetica,sans-Serif" font-size="10.00">filesystem</text>
</a>
</g>
</g>
<!-- Node2&#45;&gt;Node15 -->
<g id="edge17_Node000002_Node000015" class="edge">
<title>Node2&#45;&gt;Node15</title>
<g id="a_edge17_Node000002_Node000015"><a xlink:title=" ">
<path fill="none" stroke="#63b8ff" d="M247.81,-219.98C230.75,-211.54 204.37,-198.47 184.6,-188.68"/>
<polygon fill="#63b8ff" stroke="#63b8ff" points="186.02,-185.47 175.5,-184.17 182.91,-191.75 186.02,-185.47"/>
</a>
</g>
</g>
<!-- Node4 -->
<g id="Node000004" class="node">
<title>Node4</title>
<g id="a_Node000004"><a xlink:title=" ">
<polygon fill="#e0e0e0" stroke="#999999" points="104,-19 26,-19 26,0 104,0 104,-19"/>
<text text-anchor="middle" x="65" y="-7" font-family="Helvetica,sans-Serif" font-size="10.00">glm/glm.hpp</text>
</a>
</g>
</g>
<!-- Node3&#45;&gt;Node4 -->
<g id="edge3_Node000003_Node000004" class="edge">
<title>Node3&#45;&gt;Node4</title>
<g id="a_edge3_Node000003_Node000004"><a xlink:title=" ">
<path fill="none" stroke="#63b8ff" d="M65,-54.75C65,-47.8 65,-37.85 65,-29.13"/>
<polygon fill="#63b8ff" stroke="#63b8ff" points="68.5,-29.09 65,-19.09 61.5,-29.09 68.5,-29.09"/>
</a>
</g>
</g>
<!-- Node3&#45;&gt;Node5 -->
<g id="edge4_Node000003_Node000005" class="edge">
<title>Node3&#45;&gt;Node5</title>
<g id="a_edge4_Node000003_Node000005"><a xlink:title=" ">
<path fill="none" stroke="#63b8ff" d="M97.78,-54.98C134.94,-45.33 195.32,-29.64 233.56,-19.71"/>
<polygon fill="#63b8ff" stroke="#63b8ff" points="234.92,-22.97 243.72,-17.07 233.16,-16.2 234.92,-22.97"/>
</a>
</g>
</g>
<!-- Node6&#45;&gt;Node3 -->
<g id="edge6_Node000006_Node000003" class="edge">
<title>Node6&#45;&gt;Node3</title>
<g id="a_edge6_Node000006_Node000003"><a xlink:title=" ">
<path fill="none" stroke="#63b8ff" d="M209.84,-166.04C163.48,-158.71 101.99,-146.12 84,-129 71.9,-117.48 67.41,-98.61 65.79,-84.42"/>
<polygon fill="#63b8ff" stroke="#63b8ff" points="69.27,-83.99 65.02,-74.28 62.29,-84.52 69.27,-83.99"/>
</a>
</g>
</g>
<!-- Node6&#45;&gt;Node7 -->
<g id="edge7_Node000006_Node000007" class="edge">
<title>Node6&#45;&gt;Node7</title>
<g id="a_edge7_Node000006_Node000007"><a xlink:title=" ">
<path fill="none" stroke="#63b8ff" d="M304.2,-164.98C346.41,-155.82 413.65,-141.21 459.48,-131.26"/>
<polygon fill="#63b8ff" stroke="#63b8ff" points="460.46,-134.63 469.49,-129.08 458.97,-127.78 460.46,-134.63"/>
</a>
</g>
</g>
<!-- Node11 -->
<g id="Node000011" class="node">
<title>Node11</title>
<g id="a_Node000011"><a xlink:href="Primitive_8h.html" target="_top" xlink:title=" ">
<polygon fill="white" stroke="#666666" points="287,-129 159,-129 159,-110 287,-110 287,-129"/>
<text text-anchor="middle" x="223" y="-117" font-family="Helvetica,sans-Serif" font-size="10.00">Application/Primitive.h</text>
</a>
</g>
</g>
<!-- Node6&#45;&gt;Node11 -->
<g id="edge11_Node000006_Node000011" class="edge">
<title>Node6&#45;&gt;Node11</title>
<g id="a_edge11_Node000006_Node000011"><a xlink:title=" ">
<path fill="none" stroke="#63b8ff" d="M258.06,-164.75C252.13,-157.26 243.43,-146.28 236.18,-137.13"/>
<polygon fill="#63b8ff" stroke="#63b8ff" points="238.76,-134.75 229.81,-129.09 233.27,-139.1 238.76,-134.75"/>
</a>
</g>
</g>
<!-- Node13 -->
<g id="Node000013" class="node">
<title>Node13</title>
<g id="a_Node000013"><a xlink:title=" ">
<polygon fill="#e0e0e0" stroke="#999999" points="363,-129 305,-129 305,-110 363,-110 363,-129"/>
<text text-anchor="middle" x="334" y="-117" font-family="Helvetica,sans-Serif" font-size="10.00">memory</text>
</a>
</g>
</g>
<!-- Node6&#45;&gt;Node13 -->
<g id="edge14_Node000006_Node000013" class="edge">
<title>Node6&#45;&gt;Node13</title>
<g id="a_edge14_Node000006_Node000013"><a xlink:title=" ">
<path fill="none" stroke="#63b8ff" d="M276.09,-164.98C286.49,-157 302.26,-144.88 314.72,-135.31"/>
<polygon fill="#63b8ff" stroke="#63b8ff" points="316.91,-138.04 322.71,-129.17 312.65,-132.49 316.91,-138.04"/>
</a>
</g>
</g>
<!-- Node14 -->
<g id="Node000014" class="node">
<title>Node14</title>
<g id="a_Node000014"><a xlink:title=" ">
<polygon fill="#e0e0e0" stroke="#999999" points="140.5,-129 93.5,-129 93.5,-110 140.5,-110 140.5,-129"/>
<text text-anchor="middle" x="117" y="-117" font-family="Helvetica,sans-Serif" font-size="10.00">vector</text>
</a>
</g>
</g>
<!-- Node6&#45;&gt;Node14 -->
<g id="edge15_Node000006_Node000014" class="edge">
<title>Node6&#45;&gt;Node14</title>
<g id="a_edge15_Node000006_Node000014"><a xlink:title=" ">
<path fill="none" stroke="#63b8ff" d="M241.22,-164.98C216.62,-156.18 178.01,-142.35 150.36,-132.45"/>
<polygon fill="#63b8ff" stroke="#63b8ff" points="151.31,-129.07 140.72,-128.99 148.95,-135.66 151.31,-129.07"/>
</a>
</g>
</g>
<!-- Node8 -->
<g id="Node000008" class="node">
<title>Node8</title>
<g id="a_Node000008"><a xlink:title=" ">
<polygon fill="#e0e0e0" stroke="#999999" points="458.5,-74 423.5,-74 423.5,-55 458.5,-55 458.5,-74"/>
<text text-anchor="middle" x="441" y="-62" font-family="Helvetica,sans-Serif" font-size="10.00">any</text>
</a>
</g>
</g>
<!-- Node7&#45;&gt;Node8 -->
<g id="edge8_Node000007_Node000008" class="edge">
<title>Node7&#45;&gt;Node8</title>
<g id="a_edge8_Node000007_Node000008"><a xlink:title=" ">
<path fill="none" stroke="#63b8ff" d="M498.07,-109.98C487.92,-102.07 472.58,-90.11 460.35,-80.58"/>
<polygon fill="#63b8ff" stroke="#63b8ff" points="462.16,-77.56 452.12,-74.17 457.86,-83.08 462.16,-77.56"/>
</a>
</g>
</g>
<!-- Node9 -->
<g id="Node000009" class="node">
<title>Node9</title>
<g id="a_Node000009"><a xlink:title=" ">
<polygon fill="#e0e0e0" stroke="#999999" points="541.5,-74 476.5,-74 476.5,-55 541.5,-55 541.5,-74"/>
<text text-anchor="middle" x="509" y="-62" font-family="Helvetica,sans-Serif" font-size="10.00">typeindex</text>
</a>
</g>
</g>
<!-- Node7&#45;&gt;Node9 -->
<g id="edge9_Node000007_Node000009" class="edge">
<title>Node7&#45;&gt;Node9</title>
<g id="a_edge9_Node000007_Node000009"><a xlink:title=" ">
<path fill="none" stroke="#63b8ff" d="M509,-109.75C509,-102.8 509,-92.85 509,-84.13"/>
<polygon fill="#63b8ff" stroke="#63b8ff" points="512.5,-84.09 509,-74.09 505.5,-84.09 512.5,-84.09"/>
</a>
</g>
</g>
<!-- Node10 -->
<g id="Node000010" class="node">
<title>Node10</title>
<g id="a_Node000010"><a xlink:title=" ">
<polygon fill="#e0e0e0" stroke="#999999" points="652.5,-74 559.5,-74 559.5,-55 652.5,-55 652.5,-74"/>
<text text-anchor="middle" x="606" y="-62" font-family="Helvetica,sans-Serif" font-size="10.00">unordered_map</text>
</a>
</g>
</g>
<!-- Node7&#45;&gt;Node10 -->
<g id="edge10_Node000007_Node000010" class="edge">
<title>Node7&#45;&gt;Node10</title>
<g id="a_edge10_Node000007_Node000010"><a xlink:title=" ">
<path fill="none" stroke="#63b8ff" d="M524.58,-109.98C539.77,-101.69 563.1,-88.94 580.9,-79.22"/>
<polygon fill="#63b8ff" stroke="#63b8ff" points="583.03,-82.04 590.13,-74.17 579.68,-75.89 583.03,-82.04"/>
</a>
</g>
</g>
<!-- Node11&#45;&gt;Node3 -->
<g id="edge12_Node000011_Node000003" class="edge">
<title>Node11&#45;&gt;Node3</title>
<g id="a_edge12_Node000011_Node000003"><a xlink:title=" ">
<path fill="none" stroke="#63b8ff" d="M197.61,-109.98C171.2,-101.13 129.65,-87.19 100.11,-77.28"/>
<polygon fill="#63b8ff" stroke="#63b8ff" points="101.18,-73.94 90.58,-74.08 98.95,-80.58 101.18,-73.94"/>
</a>
</g>
</g>
<!-- Node12 -->
<g id="Node000012" class="node">
<title>Node12</title>
<g id="a_Node000012"><a xlink:title=" ">
<polygon fill="#e0e0e0" stroke="#999999" points="244,-74 202,-74 202,-55 244,-55 244,-74"/>
<text text-anchor="middle" x="223" y="-62" font-family="Helvetica,sans-Serif" font-size="10.00">array</text>
</a>
</g>
</g>
<!-- Node11&#45;&gt;Node12 -->
<g id="edge13_Node000011_Node000012" class="edge">
<title>Node11&#45;&gt;Node12</title>
<g id="a_edge13_Node000011_Node000012"><a xlink:title=" ">
<path fill="none" stroke="#63b8ff" d="M223,-109.75C223,-102.8 223,-92.85 223,-84.13"/>
<polygon fill="#63b8ff" stroke="#63b8ff" points="226.5,-84.09 223,-74.09 219.5,-84.09 226.5,-84.09"/>
</a>
</g>
</g>
<!-- Node17 -->
<g id="Node000017" class="node">
<title>Node17</title>
<g id="a_Node000017"><a xlink:title=" ">
<polygon fill="#e0e0e0" stroke="#999999" points="507,-184 457,-184 457,-165 507,-165 507,-184"/>
<text text-anchor="middle" x="482" y="-172" font-family="Helvetica,sans-Serif" font-size="10.00">format</text>
</a>
</g>
</g>
<!-- Node16&#45;&gt;Node17 -->
<g id="edge21_Node000016_Node000017" class="edge">
<title>Node16&#45;&gt;Node17</title>
<g id="a_edge21_Node000016_Node000017"><a xlink:title=" ">
<path fill="none" stroke="#63b8ff" d="M507.88,-219.75C503.64,-212.49 497.47,-201.95 492.22,-192.98"/>
<polygon fill="#63b8ff" stroke="#63b8ff" points="495.09,-190.95 487.02,-184.09 489.05,-194.49 495.09,-190.95"/>
</a>
</g>
</g>
<!-- Node16&#45;&gt;Node18 -->
<g id="edge22_Node000016_Node000018" class="edge">
<title>Node16&#45;&gt;Node18</title>
<g id="a_edge22_Node000016_Node000018"><a xlink:title=" ">
<path fill="none" stroke="#63b8ff" d="M537.74,-219.98C563.37,-211.16 603.63,-197.31 632.41,-187.41"/>
<polygon fill="#63b8ff" stroke="#63b8ff" points="633.75,-190.65 642.06,-184.08 631.47,-184.03 633.75,-190.65"/>
</a>
</g>
</g>
<!-- Node19 -->
<g id="Node000019" class="node">
<title>Node19</title>
<g id="a_Node000019"><a xlink:title=" ">
<polygon fill="#e0e0e0" stroke="#999999" points="618.5,-184 525.5,-184 525.5,-165 618.5,-165 618.5,-184"/>
<text text-anchor="middle" x="572" y="-172" font-family="Helvetica,sans-Serif" font-size="10.00">source_location</text>
</a>
</g>
</g>
<!-- Node16&#45;&gt;Node19 -->
<g id="edge23_Node000016_Node000019" class="edge">
<title>Node16&#45;&gt;Node19</title>
<g id="a_edge23_Node000016_Node000019"><a xlink:title=" ">
<path fill="none" stroke="#63b8ff" d="M522.48,-219.98C531.2,-212.15 544.34,-200.34 554.9,-190.86"/>
<polygon fill="#63b8ff" stroke="#63b8ff" points="557.25,-193.46 562.35,-184.17 552.57,-188.25 557.25,-193.46"/>
</a>
</g>
</g>
</g>
</svg>
