<?xml version="1.0" encoding="UTF-8" standalone="no"?>
<!DOCTYPE svg PUBLIC "-//W3C//DTD SVG 1.1//EN"
 "http://www.w3.org/Graphics/SVG/1.1/DTD/svg11.dtd">
<!-- Generated by graphviz version 2.43.0 (0)
 -->
<!-- Title: App/Source/Mesh.cpp Pages: 1 -->
<svg width="829pt" height="302pt"
 viewBox="0.00 0.00 829.01 302.00" xmlns="http://www.w3.org/2000/svg" xmlns:xlink="http://www.w3.org/1999/xlink">
<g id="graph0" class="graph" transform="scale(1 1) rotate(0) translate(4 298)">
<title>App/Source/Mesh.cpp</title>
<!-- Node1 -->
<g id="Node000001" class="node">
<title>Node1</title>
<g id="a_Node000001"><a xlink:title=" ">
<polygon fill="#999999" stroke="#666666" points="590,-294 469,-294 469,-275 590,-275 590,-294"/>
<text text-anchor="middle" x="529.5" y="-282" font-family="Helvetica,sans-Serif" font-size="10.00">App/Source/Mesh.cpp</text>
</a>
</g>
</g>
<!-- Node2 -->
<g id="Node000002" class="node">
<title>Node2</title>
<g id="a_Node000002"><a xlink:href="Mesh_8h.html" target="_top" xlink:title=" ">
<polygon fill="white" stroke="#666666" points="416.5,-184 306.5,-184 306.5,-165 416.5,-165 416.5,-184"/>
<text text-anchor="middle" x="361.5" y="-172" font-family="Helvetica,sans-Serif" font-size="10.00">Application/Mesh.h</text>
</a>
</g>
</g>
<!-- Node1&#45;&gt;Node2 -->
<g id="edge1_Node000001_Node000002" class="edge">
<title>Node1&#45;&gt;Node2</title>
<g id="a_edge1_Node000001_Node000002"><a xlink:title=" ">
<path fill="none" stroke="#63b8ff" d="M519.33,-274.64C504.26,-261.75 474.82,-237.44 447.5,-220 429.02,-208.2 407.05,-196.88 389.95,-188.6"/>
<polygon fill="#63b8ff" stroke="#63b8ff" points="391.03,-185.24 380.5,-184.11 388.02,-191.56 391.03,-185.24"/>
</a>
</g>
</g>
<!-- Node15 -->
<g id="Node000015" class="node">
<title>Node15</title>
<g id="a_Node000015"><a xlink:href="ExtraDataType_8h.html" target="_top" xlink:title=" ">
<polygon fill="white" stroke="#666666" points="590,-184 435,-184 435,-165 590,-165 590,-184"/>
<text text-anchor="middle" x="512.5" y="-172" font-family="Helvetica,sans-Serif" font-size="10.00">Application/ExtraDataType.h</text>
</a>
</g>
</g>
<!-- Node1&#45;&gt;Node15 -->
<g id="edge15_Node000001_Node000015" class="edge">
<title>Node1&#45;&gt;Node15</title>
<g id="a_edge15_Node000001_Node000015"><a xlink:title=" ">
<path fill="none" stroke="#63b8ff" d="M528.11,-274.66C525.36,-257.17 519.16,-217.8 515.46,-194.27"/>
<polygon fill="#63b8ff" stroke="#63b8ff" points="518.88,-193.49 513.86,-184.16 511.96,-194.58 518.88,-193.49"/>
</a>
</g>
</g>
<!-- Node17 -->
<g id="Node000017" class="node">
<title>Node17</title>
<g id="a_Node000017"><a xlink:href="PrimitiveProxy_8h.html" target="_top" xlink:title=" ">
<polygon fill="white" stroke="#666666" points="438.5,-239 284.5,-239 284.5,-220 438.5,-220 438.5,-239"/>
<text text-anchor="middle" x="361.5" y="-227" font-family="Helvetica,sans-Serif" font-size="10.00">Application/PrimitiveProxy.h</text>
</a>
</g>
</g>
<!-- Node1&#45;&gt;Node17 -->
<g id="edge20_Node000001_Node000017" class="edge">
<title>Node1&#45;&gt;Node17</title>
<g id="a_edge20_Node000001_Node000017"><a xlink:title=" ">
<path fill="none" stroke="#63b8ff" d="M502.51,-274.98C474.3,-266.09 429.86,-252.07 398.42,-242.15"/>
<polygon fill="#63b8ff" stroke="#63b8ff" points="399.29,-238.75 388.7,-239.08 397.19,-245.43 399.29,-238.75"/>
</a>
</g>
</g>
<!-- Node18 -->
<g id="Node000018" class="node">
<title>Node18</title>
<g id="a_Node000018"><a xlink:href="VertexPair_8h.html" target="_top" xlink:title=" ">
<polygon fill="white" stroke="#666666" points="789.5,-184 657.5,-184 657.5,-165 789.5,-165 789.5,-184"/>
<text text-anchor="middle" x="723.5" y="-172" font-family="Helvetica,sans-Serif" font-size="10.00">Application/VertexPair.h</text>
</a>
</g>
</g>
<!-- Node1&#45;&gt;Node18 -->
<g id="edge23_Node000001_Node000018" class="edge">
<title>Node1&#45;&gt;Node18</title>
<g id="a_edge23_Node000001_Node000018"><a xlink:title=" ">
<path fill="none" stroke="#63b8ff" d="M532.52,-274.67C537.69,-260.91 549.55,-234.4 568.5,-220 591.23,-202.73 620.45,-192.15 647.38,-185.68"/>
<polygon fill="#63b8ff" stroke="#63b8ff" points="648.19,-189.09 657.18,-183.48 646.65,-182.26 648.19,-189.09"/>
</a>
</g>
</g>
<!-- Node20 -->
<g id="Node000020" class="node">
<title>Node20</title>
<g id="a_Node000020"><a xlink:title=" ">
<polygon fill="#e0e0e0" stroke="#999999" points="718,-239 577,-239 577,-220 718,-220 718,-239"/>
<text text-anchor="middle" x="647.5" y="-227" font-family="Helvetica,sans-Serif" font-size="10.00">glm/gtx/vector_angle.hpp</text>
</a>
</g>
</g>
<!-- Node1&#45;&gt;Node20 -->
<g id="edge27_Node000001_Node000020" class="edge">
<title>Node1&#45;&gt;Node20</title>
<g id="a_edge27_Node000001_Node000020"><a xlink:title=" ">
<path fill="none" stroke="#63b8ff" d="M548.46,-274.98C567.53,-266.42 597.16,-253.11 619.05,-243.28"/>
<polygon fill="#63b8ff" stroke="#63b8ff" points="620.51,-246.46 628.2,-239.17 617.64,-240.07 620.51,-246.46"/>
</a>
</g>
</g>
<!-- Node21 -->
<g id="Node000021" class="node">
<title>Node21</title>
<g id="a_Node000021"><a xlink:title=" ">
<polygon fill="#e0e0e0" stroke="#999999" points="792.5,-239 736.5,-239 736.5,-220 792.5,-220 792.5,-239"/>
<text text-anchor="middle" x="764.5" y="-227" font-family="Helvetica,sans-Serif" font-size="10.00">numeric</text>
</a>
</g>
</g>
<!-- Node1&#45;&gt;Node21 -->
<g id="edge28_Node000001_Node000021" class="edge">
<title>Node1&#45;&gt;Node21</title>
<g id="a_edge28_Node000001_Node000021"><a xlink:title=" ">
<path fill="none" stroke="#63b8ff" d="M567.84,-274.94C605.71,-266.47 665.55,-253.06 726.44,-239.23"/>
<polygon fill="#63b8ff" stroke="#63b8ff" points="727.25,-242.64 736.22,-237.01 725.69,-235.81 727.25,-242.64"/>
</a>
</g>
</g>
<!-- Node3 -->
<g id="Node000003" class="node">
<title>Node3</title>
<g id="a_Node000003"><a xlink:href="BaseType_8h.html" target="_top" xlink:title=" ">
<polygon fill="white" stroke="#666666" points="530.5,-74 400.5,-74 400.5,-55 530.5,-55 530.5,-74"/>
<text text-anchor="middle" x="465.5" y="-62" font-family="Helvetica,sans-Serif" font-size="10.00">Application/BaseType.h</text>
</a>
</g>
</g>
<!-- Node2&#45;&gt;Node3 -->
<g id="edge2_Node000002_Node000003" class="edge">
<title>Node2&#45;&gt;Node3</title>
<g id="a_edge2_Node000002_Node000003"><a xlink:title=" ">
<path fill="none" stroke="#63b8ff" d="M362.17,-164.7C363.61,-151.44 368.04,-126.17 381.5,-110 393.59,-95.48 411.68,-85.04 427.97,-77.94"/>
<polygon fill="#63b8ff" stroke="#63b8ff" points="429.36,-81.16 437.3,-74.14 426.72,-74.67 429.36,-81.16"/>
</a>
</g>
</g>
<!-- Node7 -->
<g id="Node000007" class="node">
<title>Node7</title>
<g id="a_Node000007"><a xlink:href="ExtraDataContainer_8h.html" target="_top" xlink:title=" ">
<polygon fill="white" stroke="#666666" points="219,-129 40,-129 40,-110 219,-110 219,-129"/>
<text text-anchor="middle" x="129.5" y="-117" font-family="Helvetica,sans-Serif" font-size="10.00">Application/ExtraDataContainer.h</text>
</a>
</g>
</g>
<!-- Node2&#45;&gt;Node7 -->
<g id="edge6_Node000002_Node000007" class="edge">
<title>Node2&#45;&gt;Node7</title>
<g id="a_edge6_Node000002_Node000007"><a xlink:title=" ">
<path fill="none" stroke="#63b8ff" d="M324.23,-164.98C284.18,-155.84 220.43,-141.27 176.86,-131.32"/>
<polygon fill="#63b8ff" stroke="#63b8ff" points="177.6,-127.9 167.07,-129.08 176.04,-134.72 177.6,-127.9"/>
</a>
</g>
</g>
<!-- Node11 -->
<g id="Node000011" class="node">
<title>Node11</title>
<g id="a_Node000011"><a xlink:href="Primitive_8h.html" target="_top" xlink:title=" ">
<polygon fill="white" stroke="#666666" points="621.5,-129 493.5,-129 493.5,-110 621.5,-110 621.5,-129"/>
<text text-anchor="middle" x="557.5" y="-117" font-family="Helvetica,sans-Serif" font-size="10.00">Application/Primitive.h</text>
</a>
</g>
</g>
<!-- Node2&#45;&gt;Node11 -->
<g id="edge10_Node000002_Node000011" class="edge">
<title>Node2&#45;&gt;Node11</title>
<g id="a_edge10_Node000002_Node000011"><a xlink:title=" ">
<path fill="none" stroke="#63b8ff" d="M392.99,-164.98C426.32,-155.97 479.1,-141.7 515.85,-131.76"/>
<polygon fill="#63b8ff" stroke="#63b8ff" points="517.02,-135.07 525.76,-129.08 515.2,-128.31 517.02,-135.07"/>
</a>
</g>
</g>
<!-- Node13 -->
<g id="Node000013" class="node">
<title>Node13</title>
<g id="a_Node000013"><a xlink:title=" ">
<polygon fill="#e0e0e0" stroke="#999999" points="333.5,-129 275.5,-129 275.5,-110 333.5,-110 333.5,-129"/>
<text text-anchor="middle" x="304.5" y="-117" font-family="Helvetica,sans-Serif" font-size="10.00">memory</text>
</a>
</g>
</g>
<!-- Node2&#45;&gt;Node13 -->
<g id="edge13_Node000002_Node000013" class="edge">
<title>Node2&#45;&gt;Node13</title>
<g id="a_edge13_Node000002_Node000013"><a xlink:title=" ">
<path fill="none" stroke="#63b8ff" d="M352.34,-164.98C344,-157.23 331.47,-145.58 321.32,-136.14"/>
<polygon fill="#63b8ff" stroke="#63b8ff" points="323.53,-133.42 313.82,-129.17 318.76,-138.54 323.53,-133.42"/>
</a>
</g>
</g>
<!-- Node14 -->
<g id="Node000014" class="node">
<title>Node14</title>
<g id="a_Node000014"><a xlink:title=" ">
<polygon fill="#e0e0e0" stroke="#999999" points="437,-129 390,-129 390,-110 437,-110 437,-129"/>
<text text-anchor="middle" x="413.5" y="-117" font-family="Helvetica,sans-Serif" font-size="10.00">vector</text>
</a>
</g>
</g>
<!-- Node2&#45;&gt;Node14 -->
<g id="edge14_Node000002_Node000014" class="edge">
<title>Node2&#45;&gt;Node14</title>
<g id="a_edge14_Node000002_Node000014"><a xlink:title=" ">
<path fill="none" stroke="#63b8ff" d="M370.09,-164.75C377.66,-157.03 388.88,-145.6 398.01,-136.28"/>
<polygon fill="#63b8ff" stroke="#63b8ff" points="400.57,-138.68 405.07,-129.09 395.57,-133.78 400.57,-138.68"/>
</a>
</g>
</g>
<!-- Node4 -->
<g id="Node000004" class="node">
<title>Node4</title>
<g id="a_Node000004"><a xlink:title=" ">
<polygon fill="#e0e0e0" stroke="#999999" points="545.5,-19 467.5,-19 467.5,0 545.5,0 545.5,-19"/>
<text text-anchor="middle" x="506.5" y="-7" font-family="Helvetica,sans-Serif" font-size="10.00">glm/glm.hpp</text>
</a>
</g>
</g>
<!-- Node3&#45;&gt;Node4 -->
<g id="edge3_Node000003_Node000004" class="edge">
<title>Node3&#45;&gt;Node4</title>
<g id="a_edge3_Node000003_Node000004"><a xlink:title=" ">
<path fill="none" stroke="#63b8ff" d="M472.27,-54.75C478.06,-47.26 486.56,-36.28 493.64,-27.13"/>
<polygon fill="#63b8ff" stroke="#63b8ff" points="496.51,-29.14 499.86,-19.09 490.97,-24.86 496.51,-29.14"/>
</a>
</g>
</g>
<!-- Node5 -->
<g id="Node000005" class="node">
<title>Node5</title>
<g id="a_Node000005"><a xlink:title=" ">
<polygon fill="#e0e0e0" stroke="#999999" points="751.5,-19 707.5,-19 707.5,0 751.5,0 751.5,-19"/>
<text text-anchor="middle" x="729.5" y="-7" font-family="Helvetica,sans-Serif" font-size="10.00">bitset</text>
</a>
</g>
</g>
<!-- Node3&#45;&gt;Node5 -->
<g id="edge4_Node000003_Node000005" class="edge">
<title>Node3&#45;&gt;Node5</title>
<g id="a_edge4_Node000003_Node000005"><a xlink:title=" ">
<path fill="none" stroke="#63b8ff" d="M507.92,-54.98C560.76,-44.38 649.88,-26.48 697.4,-16.94"/>
<polygon fill="#63b8ff" stroke="#63b8ff" points="698.32,-20.33 707.43,-14.93 696.94,-13.47 698.32,-20.33"/>
</a>
</g>
</g>
<!-- Node6 -->
<g id="Node000006" class="node">
<title>Node6</title>
<g id="a_Node000006"><a xlink:title=" ">
<polygon fill="#e0e0e0" stroke="#999999" points="449.5,-19 399.5,-19 399.5,0 449.5,0 449.5,-19"/>
<text text-anchor="middle" x="424.5" y="-7" font-family="Helvetica,sans-Serif" font-size="10.00">cstdint</text>
</a>
</g>
</g>
<!-- Node3&#45;&gt;Node6 -->
<g id="edge5_Node000003_Node000006" class="edge">
<title>Node3&#45;&gt;Node6</title>
<g id="a_edge5_Node000003_Node000006"><a xlink:title=" ">
<path fill="none" stroke="#63b8ff" d="M458.73,-54.75C452.94,-47.26 444.44,-36.28 437.36,-27.13"/>
<polygon fill="#63b8ff" stroke="#63b8ff" points="440.03,-24.86 431.14,-19.09 434.49,-29.14 440.03,-24.86"/>
</a>
</g>
</g>
<!-- Node8 -->
<g id="Node000008" class="node">
<title>Node8</title>
<g id="a_Node000008"><a xlink:title=" ">
<polygon fill="#e0e0e0" stroke="#999999" points="229,-74 194,-74 194,-55 229,-55 229,-74"/>
<text text-anchor="middle" x="211.5" y="-62" font-family="Helvetica,sans-Serif" font-size="10.00">any</text>
</a>
</g>
</g>
<!-- Node7&#45;&gt;Node8 -->
<g id="edge7_Node000007_Node000008" class="edge">
<title>Node7&#45;&gt;Node8</title>
<g id="a_edge7_Node000007_Node000008"><a xlink:title=" ">
<path fill="none" stroke="#63b8ff" d="M142.67,-109.98C155.27,-101.84 174.5,-89.41 189.44,-79.76"/>
<polygon fill="#63b8ff" stroke="#63b8ff" points="191.59,-82.54 198.09,-74.17 187.79,-76.66 191.59,-82.54"/>
</a>
</g>
</g>
<!-- Node9 -->
<g id="Node000009" class="node">
<title>Node9</title>
<g id="a_Node000009"><a xlink:title=" ">
<polygon fill="#e0e0e0" stroke="#999999" points="65,-74 0,-74 0,-55 65,-55 65,-74"/>
<text text-anchor="middle" x="32.5" y="-62" font-family="Helvetica,sans-Serif" font-size="10.00">typeindex</text>
</a>
</g>
</g>
<!-- Node7&#45;&gt;Node9 -->
<g id="edge8_Node000007_Node000009" class="edge">
<title>Node7&#45;&gt;Node9</title>
<g id="a_edge8_Node000007_Node000009"><a xlink:title=" ">
<path fill="none" stroke="#63b8ff" d="M113.92,-109.98C98.73,-101.69 75.4,-88.94 57.6,-79.22"/>
<polygon fill="#63b8ff" stroke="#63b8ff" points="58.82,-75.89 48.37,-74.17 55.47,-82.04 58.82,-75.89"/>
</a>
</g>
</g>
<!-- Node10 -->
<g id="Node000010" class="node">
<title>Node10</title>
<g id="a_Node000010"><a xlink:title=" ">
<polygon fill="#e0e0e0" stroke="#999999" points="176,-74 83,-74 83,-55 176,-55 176,-74"/>
<text text-anchor="middle" x="129.5" y="-62" font-family="Helvetica,sans-Serif" font-size="10.00">unordered_map</text>
</a>
</g>
</g>
<!-- Node7&#45;&gt;Node10 -->
<g id="edge9_Node000007_Node000010" class="edge">
<title>Node7&#45;&gt;Node10</title>
<g id="a_edge9_Node000007_Node000010"><a xlink:title=" ">
<path fill="none" stroke="#63b8ff" d="M129.5,-109.75C129.5,-102.8 129.5,-92.85 129.5,-84.13"/>
<polygon fill="#63b8ff" stroke="#63b8ff" points="133,-84.09 129.5,-74.09 126,-84.09 133,-84.09"/>
</a>
</g>
</g>
<!-- Node11&#45;&gt;Node3 -->
<g id="edge11_Node000011_Node000003" class="edge">
<title>Node11&#45;&gt;Node3</title>
<g id="a_edge11_Node000011_Node000003"><a xlink:title=" ">
<path fill="none" stroke="#63b8ff" d="M542.72,-109.98C528.32,-101.69 506.19,-88.94 489.31,-79.22"/>
<polygon fill="#63b8ff" stroke="#63b8ff" points="490.96,-76.13 480.55,-74.17 487.47,-82.19 490.96,-76.13"/>
</a>
</g>
</g>
<!-- Node12 -->
<g id="Node000012" class="node">
<title>Node12</title>
<g id="a_Node000012"><a xlink:title=" ">
<polygon fill="#e0e0e0" stroke="#999999" points="661.5,-74 619.5,-74 619.5,-55 661.5,-55 661.5,-74"/>
<text text-anchor="middle" x="640.5" y="-62" font-family="Helvetica,sans-Serif" font-size="10.00">array</text>
</a>
</g>
</g>
<!-- Node11&#45;&gt;Node12 -->
<g id="edge12_Node000011_Node000012" class="edge">
<title>Node11&#45;&gt;Node12</title>
<g id="a_edge12_Node000011_Node000012"><a xlink:title=" ">
<path fill="none" stroke="#63b8ff" d="M570.84,-109.98C583.59,-101.84 603.05,-89.41 618.17,-79.76"/>
<polygon fill="#63b8ff" stroke="#63b8ff" points="620.38,-82.5 626.92,-74.17 616.61,-76.6 620.38,-82.5"/>
</a>
</g>
</g>
<!-- Node15&#45;&gt;Node3 -->
<g id="edge16_Node000015_Node000003" class="edge">
<title>Node15&#45;&gt;Node3</title>
<g id="a_edge16_Node000015_Node000003"><a xlink:title=" ">
<path fill="none" stroke="#63b8ff" d="M505.95,-164.7C499.73,-156.01 490.46,-142.13 484.5,-129 477.95,-114.57 472.95,-97.3 469.73,-84.41"/>
<polygon fill="#63b8ff" stroke="#63b8ff" points="473.07,-83.32 467.36,-74.4 466.25,-84.94 473.07,-83.32"/>
</a>
</g>
</g>
<!-- Node15&#45;&gt;Node12 -->
<g id="edge17_Node000015_Node000012" class="edge">
<title>Node15&#45;&gt;Node12</title>
<g id="a_edge17_Node000015_Node000012"><a xlink:title=" ">
<path fill="none" stroke="#63b8ff" d="M583.25,-165C627.57,-158.05 678.81,-146.49 692.5,-129 706.06,-111.68 684.36,-92.16 664.99,-79.39"/>
<polygon fill="#63b8ff" stroke="#63b8ff" points="666.73,-76.35 656.39,-74.03 663.03,-82.29 666.73,-76.35"/>
</a>
</g>
</g>
<!-- Node15&#45;&gt;Node14 -->
<g id="edge19_Node000015_Node000014" class="edge">
<title>Node15&#45;&gt;Node14</title>
<g id="a_edge19_Node000015_Node000014"><a xlink:title=" ">
<path fill="none" stroke="#63b8ff" d="M496.59,-164.98C480.95,-156.61 456.84,-143.7 438.62,-133.95"/>
<polygon fill="#63b8ff" stroke="#63b8ff" points="440.16,-130.8 429.7,-129.17 436.86,-136.98 440.16,-130.8"/>
</a>
</g>
</g>
<!-- Node16 -->
<g id="Node000016" class="node">
<title>Node16</title>
<g id="a_Node000016"><a xlink:title=" ">
<polygon fill="#e0e0e0" stroke="#999999" points="683.5,-129 639.5,-129 639.5,-110 683.5,-110 683.5,-129"/>
<text text-anchor="middle" x="661.5" y="-117" font-family="Helvetica,sans-Serif" font-size="10.00">string</text>
</a>
</g>
</g>
<!-- Node15&#45;&gt;Node16 -->
<g id="edge18_Node000015_Node000016" class="edge">
<title>Node15&#45;&gt;Node16</title>
<g id="a_edge18_Node000015_Node000016"><a xlink:title=" ">
<path fill="none" stroke="#63b8ff" d="M536.44,-164.98C561.64,-156.02 601.46,-141.86 629.38,-131.92"/>
<polygon fill="#63b8ff" stroke="#63b8ff" points="630.83,-135.12 639.08,-128.47 628.49,-128.53 630.83,-135.12"/>
</a>
</g>
</g>
<!-- Node17&#45;&gt;Node2 -->
<g id="edge22_Node000017_Node000002" class="edge">
<title>Node17&#45;&gt;Node2</title>
<g id="a_edge22_Node000017_Node000002"><a xlink:title=" ">
<path fill="none" stroke="#63b8ff" d="M361.5,-219.75C361.5,-212.8 361.5,-202.85 361.5,-194.13"/>
<polygon fill="#63b8ff" stroke="#63b8ff" points="365,-194.09 361.5,-184.09 358,-194.09 365,-194.09"/>
</a>
</g>
</g>
<!-- Node17&#45;&gt;Node3 -->
<g id="edge21_Node000017_Node000003" class="edge">
<title>Node17&#45;&gt;Node3</title>
<g id="a_edge21_Node000017_Node000003"><a xlink:title=" ">
<path fill="none" stroke="#63b8ff" d="M345.12,-219.88C310.06,-200.33 233.53,-151.16 266.5,-110 282.08,-90.55 340.72,-79.03 390.34,-72.61"/>
<polygon fill="#63b8ff" stroke="#63b8ff" points="390.96,-76.06 400.45,-71.35 390.1,-69.11 390.96,-76.06"/>
</a>
</g>
</g>
<!-- Node18&#45;&gt;Node5 -->
<g id="edge25_Node000018_Node000005" class="edge">
<title>Node18&#45;&gt;Node5</title>
<g id="a_edge25_Node000018_Node000005"><a xlink:title=" ">
<path fill="none" stroke="#63b8ff" d="M761.92,-164.96C781.24,-158.52 802.95,-147.5 814.5,-129 838.88,-89.93 785.7,-46.56 752.87,-24.72"/>
<polygon fill="#63b8ff" stroke="#63b8ff" points="754.53,-21.63 744.23,-19.15 750.74,-27.51 754.53,-21.63"/>
</a>
</g>
</g>
<!-- Node18&#45;&gt;Node11 -->
<g id="edge24_Node000018_Node000011" class="edge">
<title>Node18&#45;&gt;Node11</title>
<g id="a_edge24_Node000018_Node000011"><a xlink:title=" ">
<path fill="none" stroke="#63b8ff" d="M696.83,-164.98C668.96,-156.09 625.05,-142.07 593.98,-132.15"/>
<polygon fill="#63b8ff" stroke="#63b8ff" points="594.97,-128.79 584.38,-129.08 592.84,-135.46 594.97,-128.79"/>
</a>
</g>
</g>
<!-- Node19 -->
<g id="Node000019" class="node">
<title>Node19</title>
<g id="a_Node000019"><a xlink:title=" ">
<polygon fill="#e0e0e0" stroke="#999999" points="805,-129 740,-129 740,-110 805,-110 805,-129"/>
<text text-anchor="middle" x="772.5" y="-117" font-family="Helvetica,sans-Serif" font-size="10.00">stdexcept</text>
</a>
</g>
</g>
<!-- Node18&#45;&gt;Node19 -->
<g id="edge26_Node000018_Node000019" class="edge">
<title>Node18&#45;&gt;Node19</title>
<g id="a_edge26_Node000018_Node000019"><a xlink:title=" ">
<path fill="none" stroke="#63b8ff" d="M731.59,-164.75C738.66,-157.11 749.09,-145.82 757.65,-136.56"/>
<polygon fill="#63b8ff" stroke="#63b8ff" points="760.34,-138.81 764.56,-129.09 755.2,-134.06 760.34,-138.81"/>
</a>
</g>
</g>
</g>
</svg>
