<?xml version="1.0" encoding="UTF-8" standalone="no"?>
<!DOCTYPE svg PUBLIC "-//W3C//DTD SVG 1.1//EN"
 "http://www.w3.org/Graphics/SVG/1.1/DTD/svg11.dtd">
<!-- Generated by graphviz version 2.43.0 (0)
 -->
<!-- Title: App/Include/Application/MeshExporter.h Pages: 1 -->
<svg width="720pt" height="258pt"
 viewBox="0.00 0.00 720.42 258.00" xmlns="http://www.w3.org/2000/svg" xmlns:xlink="http://www.w3.org/1999/xlink">
<g id="graph0" class="graph" transform="scale(1 1) rotate(0) translate(4 254)">
<title>App/Include/Application/MeshExporter.h</title>
<!-- Node1 -->
<g id="Node000001" class="node">
<title>Node1</title>
<g id="a_Node000001"><a xlink:title=" ">
<polygon fill="#999999" stroke="#666666" points="541.42,-250 410.42,-250 410.42,-220 541.42,-220 541.42,-250"/>
<text text-anchor="start" x="418.42" y="-238" font-family="Helvetica,sans-Serif" font-size="10.00">App/Include/Application</text>
<text text-anchor="middle" x="475.92" y="-227" font-family="Helvetica,sans-Serif" font-size="10.00">/MeshExporter.h</text>
</a>
</g>
</g>
<!-- Node2 -->
<g id="Node000002" class="node">
<title>Node2</title>
<g id="a_Node000002"><a xlink:href="BaseType_8h.html" target="_top" xlink:title=" ">
<polygon fill="white" stroke="#666666" points="578.92,-74 448.92,-74 448.92,-55 578.92,-55 578.92,-74"/>
<text text-anchor="middle" x="513.92" y="-62" font-family="Helvetica,sans-Serif" font-size="10.00">Application/BaseType.h</text>
</a>
</g>
</g>
<!-- Node1&#45;&gt;Node2 -->
<g id="edge1_Node000001_Node000002" class="edge">
<title>Node1&#45;&gt;Node2</title>
<g id="a_edge1_Node000001_Node000002"><a xlink:title=" ">
<path fill="none" stroke="#63b8ff" d="M483.03,-219.85C492.52,-200.1 508.83,-162.88 514.92,-129 516.41,-120.69 515.01,-118.44 514.92,-110 514.82,-101.49 514.62,-92.07 514.43,-84.09"/>
<polygon fill="#63b8ff" stroke="#63b8ff" points="517.92,-83.94 514.16,-74.03 510.93,-84.12 517.92,-83.94"/>
</a>
</g>
</g>
<!-- Node6 -->
<g id="Node000006" class="node">
<title>Node6</title>
<g id="a_Node000006"><a xlink:title=" ">
<polygon fill="#e0e0e0" stroke="#999999" points="205.92,-19 155.92,-19 155.92,0 205.92,0 205.92,-19"/>
<text text-anchor="middle" x="180.92" y="-7" font-family="Helvetica,sans-Serif" font-size="10.00">cstdint</text>
</a>
</g>
</g>
<!-- Node1&#45;&gt;Node6 -->
<g id="edge17_Node000001_Node000006" class="edge">
<title>Node1&#45;&gt;Node6</title>
<g id="a_edge17_Node000001_Node000006"><a xlink:title=" ">
<path fill="none" stroke="#63b8ff" d="M410.16,-229.05C293.82,-218.78 59.32,-190.77 9.92,-129 -33.36,-74.89 84.23,-35.34 145.9,-18.91"/>
<polygon fill="#63b8ff" stroke="#63b8ff" points="146.85,-22.28 155.65,-16.38 145.09,-15.5 146.85,-22.28"/>
</a>
</g>
</g>
<!-- Node7 -->
<g id="Node000007" class="node">
<title>Node7</title>
<g id="a_Node000007"><a xlink:href="Mesh_8h.html" target="_top" xlink:title=" ">
<polygon fill="white" stroke="#666666" points="379.92,-184 269.92,-184 269.92,-165 379.92,-165 379.92,-184"/>
<text text-anchor="middle" x="324.92" y="-172" font-family="Helvetica,sans-Serif" font-size="10.00">Application/Mesh.h</text>
</a>
</g>
</g>
<!-- Node1&#45;&gt;Node7 -->
<g id="edge6_Node000001_Node000007" class="edge">
<title>Node1&#45;&gt;Node7</title>
<g id="a_edge6_Node000001_Node000007"><a xlink:title=" ">
<path fill="none" stroke="#63b8ff" d="M439.75,-219.99C414.44,-210.18 380.96,-197.21 356.68,-187.81"/>
<polygon fill="#63b8ff" stroke="#63b8ff" points="357.81,-184.49 347.22,-184.14 355.28,-191.02 357.81,-184.49"/>
</a>
</g>
</g>
<!-- Node16 -->
<g id="Node000016" class="node">
<title>Node16</title>
<g id="a_Node000016"><a xlink:title=" ">
<polygon fill="#e0e0e0" stroke="#999999" points="647.92,-184 579.92,-184 579.92,-165 647.92,-165 647.92,-184"/>
<text text-anchor="middle" x="613.92" y="-172" font-family="Helvetica,sans-Serif" font-size="10.00">filesystem</text>
</a>
</g>
</g>
<!-- Node1&#45;&gt;Node16 -->
<g id="edge18_Node000001_Node000016" class="edge">
<title>Node1&#45;&gt;Node16</title>
<g id="a_edge18_Node000001_Node000016"><a xlink:title=" ">
<path fill="none" stroke="#63b8ff" d="M508.97,-219.99C531.89,-210.27 562.16,-197.44 584.29,-188.06"/>
<polygon fill="#63b8ff" stroke="#63b8ff" points="585.7,-191.26 593.54,-184.14 582.96,-184.82 585.7,-191.26"/>
</a>
</g>
</g>
<!-- Node3 -->
<g id="Node000003" class="node">
<title>Node3</title>
<g id="a_Node000003"><a xlink:title=" ">
<polygon fill="#e0e0e0" stroke="#999999" points="552.92,-19 474.92,-19 474.92,0 552.92,0 552.92,-19"/>
<text text-anchor="middle" x="513.92" y="-7" font-family="Helvetica,sans-Serif" font-size="10.00">glm/glm.hpp</text>
</a>
</g>
</g>
<!-- Node2&#45;&gt;Node3 -->
<g id="edge2_Node000002_Node000003" class="edge">
<title>Node2&#45;&gt;Node3</title>
<g id="a_edge2_Node000002_Node000003"><a xlink:title=" ">
<path fill="none" stroke="#63b8ff" d="M513.92,-54.75C513.92,-47.8 513.92,-37.85 513.92,-29.13"/>
<polygon fill="#63b8ff" stroke="#63b8ff" points="517.42,-29.09 513.92,-19.09 510.42,-29.09 517.42,-29.09"/>
</a>
</g>
</g>
<!-- Node4 -->
<g id="Node000004" class="node">
<title>Node4</title>
<g id="a_Node000004"><a xlink:title=" ">
<polygon fill="#e0e0e0" stroke="#999999" points="712.42,-19 571.42,-19 571.42,0 712.42,0 712.42,-19"/>
<text text-anchor="middle" x="641.92" y="-7" font-family="Helvetica,sans-Serif" font-size="10.00">glm/gtx/vector_angle.hpp</text>
</a>
</g>
</g>
<!-- Node2&#45;&gt;Node4 -->
<g id="edge3_Node000002_Node000004" class="edge">
<title>Node2&#45;&gt;Node4</title>
<g id="a_edge3_Node000002_Node000004"><a xlink:title=" ">
<path fill="none" stroke="#63b8ff" d="M534.48,-54.98C555.35,-46.34 587.89,-32.87 611.69,-23.02"/>
<polygon fill="#63b8ff" stroke="#63b8ff" points="613.08,-26.23 620.98,-19.17 610.4,-19.76 613.08,-26.23"/>
</a>
</g>
</g>
<!-- Node5 -->
<g id="Node000005" class="node">
<title>Node5</title>
<g id="a_Node000005"><a xlink:title=" ">
<polygon fill="#e0e0e0" stroke="#999999" points="456.92,-19 412.92,-19 412.92,0 456.92,0 456.92,-19"/>
<text text-anchor="middle" x="434.92" y="-7" font-family="Helvetica,sans-Serif" font-size="10.00">bitset</text>
</a>
</g>
</g>
<!-- Node2&#45;&gt;Node5 -->
<g id="edge4_Node000002_Node000005" class="edge">
<title>Node2&#45;&gt;Node5</title>
<g id="a_edge4_Node000002_Node000005"><a xlink:title=" ">
<path fill="none" stroke="#63b8ff" d="M501.22,-54.98C489.09,-46.84 470.56,-34.41 456.17,-24.76"/>
<polygon fill="#63b8ff" stroke="#63b8ff" points="458.09,-21.84 447.84,-19.17 454.19,-27.65 458.09,-21.84"/>
</a>
</g>
</g>
<!-- Node2&#45;&gt;Node6 -->
<g id="edge5_Node000002_Node000006" class="edge">
<title>Node2&#45;&gt;Node6</title>
<g id="a_edge5_Node000002_Node000006"><a xlink:title=" ">
<path fill="none" stroke="#63b8ff" d="M460.41,-54.98C391.88,-44.08 274.97,-25.47 216.46,-16.16"/>
<polygon fill="#63b8ff" stroke="#63b8ff" points="216.67,-12.65 206.24,-14.53 215.57,-19.56 216.67,-12.65"/>
</a>
</g>
</g>
<!-- Node7&#45;&gt;Node2 -->
<g id="edge7_Node000007_Node000002" class="edge">
<title>Node7&#45;&gt;Node2</title>
<g id="a_edge7_Node000007_Node000002"><a xlink:title=" ">
<path fill="none" stroke="#63b8ff" d="M380.27,-172.53C417.26,-168.97 464.52,-158.36 494.92,-129 506.93,-117.39 511.43,-98.53 513.07,-84.37"/>
<polygon fill="#63b8ff" stroke="#63b8ff" points="516.57,-84.5 513.87,-74.25 509.6,-83.95 516.57,-84.5"/>
</a>
</g>
</g>
<!-- Node8 -->
<g id="Node000008" class="node">
<title>Node8</title>
<g id="a_Node000008"><a xlink:href="ExtraDataContainer_8h.html" target="_top" xlink:title=" ">
<polygon fill="white" stroke="#666666" points="339.42,-129 160.42,-129 160.42,-110 339.42,-110 339.42,-129"/>
<text text-anchor="middle" x="249.92" y="-117" font-family="Helvetica,sans-Serif" font-size="10.00">Application/ExtraDataContainer.h</text>
</a>
</g>
</g>
<!-- Node7&#45;&gt;Node8 -->
<g id="edge8_Node000007_Node000008" class="edge">
<title>Node7&#45;&gt;Node8</title>
<g id="a_edge8_Node000007_Node000008"><a xlink:title=" ">
<path fill="none" stroke="#63b8ff" d="M312.87,-164.98C301.45,-156.92 284.09,-144.65 270.48,-135.03"/>
<polygon fill="#63b8ff" stroke="#63b8ff" points="272.37,-132.08 262.19,-129.17 268.33,-137.8 272.37,-132.08"/>
</a>
</g>
</g>
<!-- Node12 -->
<g id="Node000012" class="node">
<title>Node12</title>
<g id="a_Node000012"><a xlink:href="Primitive_8h.html" target="_top" xlink:title=" ">
<polygon fill="white" stroke="#666666" points="485.92,-129 357.92,-129 357.92,-110 485.92,-110 485.92,-129"/>
<text text-anchor="middle" x="421.92" y="-117" font-family="Helvetica,sans-Serif" font-size="10.00">Application/Primitive.h</text>
</a>
</g>
</g>
<!-- Node7&#45;&gt;Node12 -->
<g id="edge12_Node000007_Node000012" class="edge">
<title>Node7&#45;&gt;Node12</title>
<g id="a_edge12_Node000007_Node000012"><a xlink:title=" ">
<path fill="none" stroke="#63b8ff" d="M340.5,-164.98C355.68,-156.69 379.01,-143.94 396.81,-134.22"/>
<polygon fill="#63b8ff" stroke="#63b8ff" points="398.95,-137.04 406.05,-129.17 395.59,-130.89 398.95,-137.04"/>
</a>
</g>
</g>
<!-- Node14 -->
<g id="Node000014" class="node">
<title>Node14</title>
<g id="a_Node000014"><a xlink:title=" ">
<polygon fill="#e0e0e0" stroke="#999999" points="76.92,-129 18.92,-129 18.92,-110 76.92,-110 76.92,-129"/>
<text text-anchor="middle" x="47.92" y="-117" font-family="Helvetica,sans-Serif" font-size="10.00">memory</text>
</a>
</g>
</g>
<!-- Node7&#45;&gt;Node14 -->
<g id="edge15_Node000007_Node000014" class="edge">
<title>Node7&#45;&gt;Node14</title>
<g id="a_edge15_Node000007_Node000014"><a xlink:title=" ">
<path fill="none" stroke="#63b8ff" d="M276.3,-164.98C230.11,-156.76 158.46,-143.71 87.02,-129.17"/>
<polygon fill="#63b8ff" stroke="#63b8ff" points="87.44,-125.68 76.94,-127.1 86.03,-132.54 87.44,-125.68"/>
</a>
</g>
</g>
<!-- Node15 -->
<g id="Node000015" class="node">
<title>Node15</title>
<g id="a_Node000015"><a xlink:title=" ">
<polygon fill="#e0e0e0" stroke="#999999" points="142.42,-129 95.42,-129 95.42,-110 142.42,-110 142.42,-129"/>
<text text-anchor="middle" x="118.92" y="-117" font-family="Helvetica,sans-Serif" font-size="10.00">vector</text>
</a>
</g>
</g>
<!-- Node7&#45;&gt;Node15 -->
<g id="edge16_Node000007_Node000015" class="edge">
<title>Node7&#45;&gt;Node15</title>
<g id="a_edge16_Node000007_Node000015"><a xlink:title=" ">
<path fill="none" stroke="#63b8ff" d="M291.21,-164.98C258.2,-156.61 206.19,-143.37 152.68,-129.44"/>
<polygon fill="#63b8ff" stroke="#63b8ff" points="153.23,-125.97 142.68,-126.84 151.47,-132.75 153.23,-125.97"/>
</a>
</g>
</g>
<!-- Node9 -->
<g id="Node000009" class="node">
<title>Node9</title>
<g id="a_Node000009"><a xlink:title=" ">
<polygon fill="#e0e0e0" stroke="#999999" points="349.42,-74 314.42,-74 314.42,-55 349.42,-55 349.42,-74"/>
<text text-anchor="middle" x="331.92" y="-62" font-family="Helvetica,sans-Serif" font-size="10.00">any</text>
</a>
</g>
</g>
<!-- Node8&#45;&gt;Node9 -->
<g id="edge9_Node000008_Node000009" class="edge">
<title>Node8&#45;&gt;Node9</title>
<g id="a_edge9_Node000008_Node000009"><a xlink:title=" ">
<path fill="none" stroke="#63b8ff" d="M263.09,-109.98C275.69,-101.84 294.92,-89.41 309.86,-79.76"/>
<polygon fill="#63b8ff" stroke="#63b8ff" points="312,-82.54 318.5,-74.17 308.2,-76.66 312,-82.54"/>
</a>
</g>
</g>
<!-- Node10 -->
<g id="Node000010" class="node">
<title>Node10</title>
<g id="a_Node000010"><a xlink:title=" ">
<polygon fill="#e0e0e0" stroke="#999999" points="185.42,-74 120.42,-74 120.42,-55 185.42,-55 185.42,-74"/>
<text text-anchor="middle" x="152.92" y="-62" font-family="Helvetica,sans-Serif" font-size="10.00">typeindex</text>
</a>
</g>
</g>
<!-- Node8&#45;&gt;Node10 -->
<g id="edge10_Node000008_Node000010" class="edge">
<title>Node8&#45;&gt;Node10</title>
<g id="a_edge10_Node000008_Node000010"><a xlink:title=" ">
<path fill="none" stroke="#63b8ff" d="M234.33,-109.98C219.15,-101.69 195.82,-88.94 178.02,-79.22"/>
<polygon fill="#63b8ff" stroke="#63b8ff" points="179.24,-75.89 168.78,-74.17 175.88,-82.04 179.24,-75.89"/>
</a>
</g>
</g>
<!-- Node11 -->
<g id="Node000011" class="node">
<title>Node11</title>
<g id="a_Node000011"><a xlink:title=" ">
<polygon fill="#e0e0e0" stroke="#999999" points="296.42,-74 203.42,-74 203.42,-55 296.42,-55 296.42,-74"/>
<text text-anchor="middle" x="249.92" y="-62" font-family="Helvetica,sans-Serif" font-size="10.00">unordered_map</text>
</a>
</g>
</g>
<!-- Node8&#45;&gt;Node11 -->
<g id="edge11_Node000008_Node000011" class="edge">
<title>Node8&#45;&gt;Node11</title>
<g id="a_edge11_Node000008_Node000011"><a xlink:title=" ">
<path fill="none" stroke="#63b8ff" d="M249.92,-109.75C249.92,-102.8 249.92,-92.85 249.92,-84.13"/>
<polygon fill="#63b8ff" stroke="#63b8ff" points="253.42,-84.09 249.92,-74.09 246.42,-84.09 253.42,-84.09"/>
</a>
</g>
</g>
<!-- Node12&#45;&gt;Node2 -->
<g id="edge13_Node000012_Node000002" class="edge">
<title>Node12&#45;&gt;Node2</title>
<g id="a_edge13_Node000012_Node000002"><a xlink:title=" ">
<path fill="none" stroke="#63b8ff" d="M436.7,-109.98C451.1,-101.69 473.23,-88.94 490.11,-79.22"/>
<polygon fill="#63b8ff" stroke="#63b8ff" points="491.95,-82.19 498.87,-74.17 488.45,-76.13 491.95,-82.19"/>
</a>
</g>
</g>
<!-- Node13 -->
<g id="Node000013" class="node">
<title>Node13</title>
<g id="a_Node000013"><a xlink:title=" ">
<polygon fill="#e0e0e0" stroke="#999999" points="430.92,-74 388.92,-74 388.92,-55 430.92,-55 430.92,-74"/>
<text text-anchor="middle" x="409.92" y="-62" font-family="Helvetica,sans-Serif" font-size="10.00">array</text>
</a>
</g>
</g>
<!-- Node12&#45;&gt;Node13 -->
<g id="edge14_Node000012_Node000013" class="edge">
<title>Node12&#45;&gt;Node13</title>
<g id="a_edge14_Node000012_Node000013"><a xlink:title=" ">
<path fill="none" stroke="#63b8ff" d="M419.93,-109.75C418.34,-102.72 416.06,-92.62 414.07,-83.84"/>
<polygon fill="#63b8ff" stroke="#63b8ff" points="417.48,-83.07 411.86,-74.09 410.66,-84.62 417.48,-83.07"/>
</a>
</g>
</g>
</g>
</svg>
