<?xml version="1.0" encoding="UTF-8" standalone="no"?>
<!DOCTYPE svg PUBLIC "-//W3C//DTD SVG 1.1//EN"
 "http://www.w3.org/Graphics/SVG/1.1/DTD/svg11.dtd">
<!-- Generated by graphviz version 2.43.0 (0)
 -->
<!-- Title: App/Test/Source/Mesh_utest.cpp Pages: 1 -->
<svg width="854pt" height="368pt"
 viewBox="0.00 0.00 853.61 368.00" xmlns="http://www.w3.org/2000/svg" xmlns:xlink="http://www.w3.org/1999/xlink">
<g id="graph0" class="graph" transform="scale(1 1) rotate(0) translate(4 364)">
<title>App/Test/Source/Mesh_utest.cpp</title>
<!-- Node1 -->
<g id="Node000001" class="node">
<title>Node1</title>
<g id="a_Node000001"><a xlink:title=" ">
<polygon fill="#999999" stroke="#666666" points="494.11,-360 371.11,-360 371.11,-330 494.11,-330 494.11,-360"/>
<text text-anchor="start" x="379.11" y="-348" font-family="Helvetica,sans-Serif" font-size="10.00">App/Test/Source/Mesh</text>
<text text-anchor="middle" x="432.61" y="-337" font-family="Helvetica,sans-Serif" font-size="10.00">_utest.cpp</text>
</a>
</g>
</g>
<!-- Node2 -->
<g id="Node000002" class="node">
<title>Node2</title>
<g id="a_Node000002"><a xlink:href="ExtraDataType_8h.html" target="_top" xlink:title=" ">
<polygon fill="white" stroke="#666666" points="175.11,-184 20.11,-184 20.11,-165 175.11,-165 175.11,-184"/>
<text text-anchor="middle" x="97.61" y="-172" font-family="Helvetica,sans-Serif" font-size="10.00">Application/ExtraDataType.h</text>
</a>
</g>
</g>
<!-- Node1&#45;&gt;Node2 -->
<g id="edge1_Node000001_Node000002" class="edge">
<title>Node1&#45;&gt;Node2</title>
<g id="a_edge1_Node000001_Node000002"><a xlink:title=" ">
<path fill="none" stroke="#63b8ff" d="M370.8,-338.13C265.17,-326.61 57.42,-296.97 17.61,-239 2.48,-216.97 32.9,-198.87 60.47,-187.71"/>
<polygon fill="#63b8ff" stroke="#63b8ff" points="61.94,-190.89 70.03,-184.05 59.44,-184.35 61.94,-190.89"/>
</a>
</g>
</g>
<!-- Node8 -->
<g id="Node000008" class="node">
<title>Node8</title>
<g id="a_Node000008"><a xlink:href="MathUtils_8h.html" target="_top" xlink:title=" ">
<polygon fill="white" stroke="#666666" points="338.11,-294 207.11,-294 207.11,-275 338.11,-275 338.11,-294"/>
<text text-anchor="middle" x="272.61" y="-282" font-family="Helvetica,sans-Serif" font-size="10.00">Application/MathUtils.h</text>
</a>
</g>
</g>
<!-- Node1&#45;&gt;Node8 -->
<g id="edge7_Node000001_Node000008" class="edge">
<title>Node1&#45;&gt;Node8</title>
<g id="a_edge7_Node000001_Node000008"><a xlink:title=" ">
<path fill="none" stroke="#63b8ff" d="M394.29,-329.99C367.35,-320.14 331.67,-307.1 305.92,-297.68"/>
<polygon fill="#63b8ff" stroke="#63b8ff" points="306.83,-294.29 296.24,-294.14 304.43,-300.86 306.83,-294.29"/>
</a>
</g>
</g>
<!-- Node11 -->
<g id="Node000011" class="node">
<title>Node11</title>
<g id="a_Node000011"><a xlink:href="Mesh_8h.html" target="_top" xlink:title=" ">
<polygon fill="white" stroke="#666666" points="529.61,-184 419.61,-184 419.61,-165 529.61,-165 529.61,-184"/>
<text text-anchor="middle" x="474.61" y="-172" font-family="Helvetica,sans-Serif" font-size="10.00">Application/Mesh.h</text>
</a>
</g>
</g>
<!-- Node1&#45;&gt;Node11 -->
<g id="edge11_Node000001_Node000011" class="edge">
<title>Node1&#45;&gt;Node11</title>
<g id="a_edge11_Node000001_Node000011"><a xlink:title=" ">
<path fill="none" stroke="#63b8ff" d="M494.24,-335.28C519.16,-328.39 545.54,-316.07 560.61,-294 575.16,-272.69 549.35,-234.64 537.61,-220 527.5,-207.39 512.91,-196.78 500.33,-189.08"/>
<polygon fill="#63b8ff" stroke="#63b8ff" points="502.01,-186.01 491.6,-184.01 498.49,-192.06 502.01,-186.01"/>
</a>
</g>
</g>
<!-- Node19 -->
<g id="Node000019" class="node">
<title>Node19</title>
<g id="a_Node000019"><a xlink:href="MeshIntegrity_8h.html" target="_top" xlink:title=" ">
<polygon fill="white" stroke="#666666" points="176.11,-239 27.11,-239 27.11,-220 176.11,-220 176.11,-239"/>
<text text-anchor="middle" x="101.61" y="-227" font-family="Helvetica,sans-Serif" font-size="10.00">Application/MeshIntegrity.h</text>
</a>
</g>
</g>
<!-- Node1&#45;&gt;Node19 -->
<g id="edge22_Node000001_Node000019" class="edge">
<title>Node1&#45;&gt;Node19</title>
<g id="a_edge22_Node000001_Node000019"><a xlink:title=" ">
<path fill="none" stroke="#63b8ff" d="M370.84,-337.28C322.31,-330.5 253.77,-317.55 197.61,-294 168.18,-281.66 138.11,-260 119.65,-245.46"/>
<polygon fill="#63b8ff" stroke="#63b8ff" points="121.78,-242.68 111.8,-239.15 117.4,-248.14 121.78,-242.68"/>
</a>
</g>
</g>
<!-- Node20 -->
<g id="Node000020" class="node">
<title>Node20</title>
<g id="a_Node000020"><a xlink:href="MeshLoader_8h.html" target="_top" xlink:title=" ">
<polygon fill="white" stroke="#666666" points="749.61,-294 607.61,-294 607.61,-275 749.61,-275 749.61,-294"/>
<text text-anchor="middle" x="678.61" y="-282" font-family="Helvetica,sans-Serif" font-size="10.00">Application/MeshLoader.h</text>
</a>
</g>
</g>
<!-- Node1&#45;&gt;Node20 -->
<g id="edge25_Node000001_Node000020" class="edge">
<title>Node1&#45;&gt;Node20</title>
<g id="a_edge25_Node000001_Node000020"><a xlink:title=" ">
<path fill="none" stroke="#63b8ff" d="M491.53,-329.99C534.81,-319.7 592.78,-305.91 632.66,-296.43"/>
<polygon fill="#63b8ff" stroke="#63b8ff" points="633.72,-299.77 642.64,-294.05 632.1,-292.96 633.72,-299.77"/>
</a>
</g>
</g>
<!-- Node22 -->
<g id="Node000022" class="node">
<title>Node22</title>
<g id="a_Node000022"><a xlink:href="PrimitiveProxy_8h.html" target="_top" xlink:title=" ">
<polygon fill="white" stroke="#666666" points="513.61,-239 359.61,-239 359.61,-220 513.61,-220 513.61,-239"/>
<text text-anchor="middle" x="436.61" y="-227" font-family="Helvetica,sans-Serif" font-size="10.00">Application/PrimitiveProxy.h</text>
</a>
</g>
</g>
<!-- Node1&#45;&gt;Node22 -->
<g id="edge28_Node000001_Node000022" class="edge">
<title>Node1&#45;&gt;Node22</title>
<g id="a_edge28_Node000001_Node000022"><a xlink:title=" ">
<path fill="none" stroke="#63b8ff" d="M419.67,-329.74C408.81,-315.98 396.04,-294.43 402.61,-275 406.17,-264.47 413.33,-254.48 420.16,-246.63"/>
<polygon fill="#63b8ff" stroke="#63b8ff" points="422.74,-249.01 427,-239.31 417.62,-244.23 422.74,-249.01"/>
</a>
</g>
</g>
<!-- Node23 -->
<g id="Node000023" class="node">
<title>Node23</title>
<g id="a_Node000023"><a xlink:href="TestHelpers_8h.html" target="_top" xlink:title=" ">
<polygon fill="white" stroke="#666666" points="551.61,-294 411.61,-294 411.61,-275 551.61,-275 551.61,-294"/>
<text text-anchor="middle" x="481.61" y="-282" font-family="Helvetica,sans-Serif" font-size="10.00">Application/TestHelpers.h</text>
</a>
</g>
</g>
<!-- Node1&#45;&gt;Node23 -->
<g id="edge31_Node000001_Node000023" class="edge">
<title>Node1&#45;&gt;Node23</title>
<g id="a_edge31_Node000001_Node000023"><a xlink:title=" ">
<path fill="none" stroke="#63b8ff" d="M444.47,-329.84C451.51,-321.43 460.47,-310.74 467.82,-301.96"/>
<polygon fill="#63b8ff" stroke="#63b8ff" points="470.53,-304.18 474.27,-294.27 465.16,-299.68 470.53,-304.18"/>
</a>
</g>
</g>
<!-- Node24 -->
<g id="Node000024" class="node">
<title>Node24</title>
<g id="a_Node000024"><a xlink:title=" ">
<polygon fill="#e0e0e0" stroke="#999999" points="845.61,-294 767.61,-294 767.61,-275 845.61,-275 845.61,-294"/>
<text text-anchor="middle" x="806.61" y="-282" font-family="Helvetica,sans-Serif" font-size="10.00">gtest/gtest.h</text>
</a>
</g>
</g>
<!-- Node1&#45;&gt;Node24 -->
<g id="edge34_Node000001_Node000024" class="edge">
<title>Node1&#45;&gt;Node24</title>
<g id="a_edge34_Node000001_Node000024"><a xlink:title=" ">
<path fill="none" stroke="#63b8ff" d="M494.26,-334.98C557.69,-325.6 659.62,-310.25 757.52,-294.15"/>
<polygon fill="#63b8ff" stroke="#63b8ff" points="758.29,-297.57 767.59,-292.49 757.15,-290.66 758.29,-297.57"/>
</a>
</g>
</g>
<!-- Node3 -->
<g id="Node000003" class="node">
<title>Node3</title>
<g id="a_Node000003"><a xlink:href="BaseType_8h.html" target="_top" xlink:title=" ">
<polygon fill="white" stroke="#666666" points="287.61,-74 157.61,-74 157.61,-55 287.61,-55 287.61,-74"/>
<text text-anchor="middle" x="222.61" y="-62" font-family="Helvetica,sans-Serif" font-size="10.00">Application/BaseType.h</text>
</a>
</g>
</g>
<!-- Node2&#45;&gt;Node3 -->
<g id="edge2_Node000002_Node000003" class="edge">
<title>Node2&#45;&gt;Node3</title>
<g id="a_edge2_Node000002_Node000003"><a xlink:title=" ">
<path fill="none" stroke="#63b8ff" d="M107.84,-164.66C129.09,-146.3 178.26,-103.81 204.82,-80.87"/>
<polygon fill="#63b8ff" stroke="#63b8ff" points="207.31,-83.34 212.59,-74.16 202.73,-78.05 207.31,-83.34"/>
</a>
</g>
</g>
<!-- Node6 -->
<g id="Node000006" class="node">
<title>Node6</title>
<g id="a_Node000006"><a xlink:title=" ">
<polygon fill="#e0e0e0" stroke="#999999" points="119.61,-129 75.61,-129 75.61,-110 119.61,-110 119.61,-129"/>
<text text-anchor="middle" x="97.61" y="-117" font-family="Helvetica,sans-Serif" font-size="10.00">string</text>
</a>
</g>
</g>
<!-- Node2&#45;&gt;Node6 -->
<g id="edge5_Node000002_Node000006" class="edge">
<title>Node2&#45;&gt;Node6</title>
<g id="a_edge5_Node000002_Node000006"><a xlink:title=" ">
<path fill="none" stroke="#63b8ff" d="M97.61,-164.75C97.61,-157.8 97.61,-147.85 97.61,-139.13"/>
<polygon fill="#63b8ff" stroke="#63b8ff" points="101.11,-139.09 97.61,-129.09 94.11,-139.09 101.11,-139.09"/>
</a>
</g>
</g>
<!-- Node7 -->
<g id="Node000007" class="node">
<title>Node7</title>
<g id="a_Node000007"><a xlink:title=" ">
<polygon fill="#e0e0e0" stroke="#999999" points="317.11,-129 270.11,-129 270.11,-110 317.11,-110 317.11,-129"/>
<text text-anchor="middle" x="293.61" y="-117" font-family="Helvetica,sans-Serif" font-size="10.00">vector</text>
</a>
</g>
</g>
<!-- Node2&#45;&gt;Node7 -->
<g id="edge6_Node000002_Node000007" class="edge">
<title>Node2&#45;&gt;Node7</title>
<g id="a_edge6_Node000002_Node000007"><a xlink:title=" ">
<path fill="none" stroke="#63b8ff" d="M129.1,-164.98C165.01,-155.28 223.46,-139.47 260.16,-129.54"/>
<polygon fill="#63b8ff" stroke="#63b8ff" points="261.16,-132.9 269.9,-126.91 259.33,-126.14 261.16,-132.9"/>
</a>
</g>
</g>
<!-- Node4 -->
<g id="Node000004" class="node">
<title>Node4</title>
<g id="a_Node000004"><a xlink:title=" ">
<polygon fill="#e0e0e0" stroke="#999999" points="261.61,-19 183.61,-19 183.61,0 261.61,0 261.61,-19"/>
<text text-anchor="middle" x="222.61" y="-7" font-family="Helvetica,sans-Serif" font-size="10.00">glm/glm.hpp</text>
</a>
</g>
</g>
<!-- Node3&#45;&gt;Node4 -->
<g id="edge3_Node000003_Node000004" class="edge">
<title>Node3&#45;&gt;Node4</title>
<g id="a_edge3_Node000003_Node000004"><a xlink:title=" ">
<path fill="none" stroke="#63b8ff" d="M222.61,-54.75C222.61,-47.8 222.61,-37.85 222.61,-29.13"/>
<polygon fill="#63b8ff" stroke="#63b8ff" points="226.11,-29.09 222.61,-19.09 219.11,-29.09 226.11,-29.09"/>
</a>
</g>
</g>
<!-- Node5 -->
<g id="Node000005" class="node">
<title>Node5</title>
<g id="a_Node000005"><a xlink:title=" ">
<polygon fill="#e0e0e0" stroke="#999999" points="100.61,-19 50.61,-19 50.61,0 100.61,0 100.61,-19"/>
<text text-anchor="middle" x="75.61" y="-7" font-family="Helvetica,sans-Serif" font-size="10.00">cstdint</text>
</a>
</g>
</g>
<!-- Node3&#45;&gt;Node5 -->
<g id="edge4_Node000003_Node000005" class="edge">
<title>Node3&#45;&gt;Node5</title>
<g id="a_edge4_Node000003_Node000005"><a xlink:title=" ">
<path fill="none" stroke="#63b8ff" d="M198.99,-54.98C174.7,-46.23 136.66,-32.51 109.23,-22.62"/>
<polygon fill="#63b8ff" stroke="#63b8ff" points="110.25,-19.27 99.66,-19.17 107.88,-25.85 110.25,-19.27"/>
</a>
</g>
</g>
<!-- Node8&#45;&gt;Node3 -->
<g id="edge8_Node000008_Node000003" class="edge">
<title>Node8&#45;&gt;Node3</title>
<g id="a_edge8_Node000008_Node000003"><a xlink:title=" ">
<path fill="none" stroke="#63b8ff" d="M257.18,-274.8C245.26,-267.11 229.65,-254.69 222.61,-239 199.33,-187.13 210.38,-117.43 217.79,-84.39"/>
<polygon fill="#63b8ff" stroke="#63b8ff" points="221.28,-84.86 220.2,-74.32 214.47,-83.24 221.28,-84.86"/>
</a>
</g>
</g>
<!-- Node9 -->
<g id="Node000009" class="node">
<title>Node9</title>
<g id="a_Node000009"><a xlink:title=" ">
<polygon fill="#e0e0e0" stroke="#999999" points="279.11,-239 232.11,-239 232.11,-220 279.11,-220 279.11,-239"/>
<text text-anchor="middle" x="255.61" y="-227" font-family="Helvetica,sans-Serif" font-size="10.00">cmath</text>
</a>
</g>
</g>
<!-- Node8&#45;&gt;Node9 -->
<g id="edge9_Node000008_Node000009" class="edge">
<title>Node8&#45;&gt;Node9</title>
<g id="a_edge9_Node000008_Node000009"><a xlink:title=" ">
<path fill="none" stroke="#63b8ff" d="M269.8,-274.75C267.55,-267.72 264.31,-257.62 261.49,-248.84"/>
<polygon fill="#63b8ff" stroke="#63b8ff" points="264.75,-247.54 258.36,-239.09 258.09,-249.68 264.75,-247.54"/>
</a>
</g>
</g>
<!-- Node10 -->
<g id="Node000010" class="node">
<title>Node10</title>
<g id="a_Node000010"><a xlink:title=" ">
<polygon fill="#e0e0e0" stroke="#999999" points="341.61,-239 297.61,-239 297.61,-220 341.61,-220 341.61,-239"/>
<text text-anchor="middle" x="319.61" y="-227" font-family="Helvetica,sans-Serif" font-size="10.00">limits</text>
</a>
</g>
</g>
<!-- Node8&#45;&gt;Node10 -->
<g id="edge10_Node000008_Node000010" class="edge">
<title>Node8&#45;&gt;Node10</title>
<g id="a_edge10_Node000008_Node000010"><a xlink:title=" ">
<path fill="none" stroke="#63b8ff" d="M280.37,-274.75C287.08,-267.18 296.95,-256.05 305.11,-246.84"/>
<polygon fill="#63b8ff" stroke="#63b8ff" points="307.98,-248.89 311.99,-239.09 302.74,-244.25 307.98,-248.89"/>
</a>
</g>
</g>
<!-- Node11&#45;&gt;Node3 -->
<g id="edge12_Node000011_Node000003" class="edge">
<title>Node11&#45;&gt;Node3</title>
<g id="a_edge12_Node000011_Node000003"><a xlink:title=" ">
<path fill="none" stroke="#63b8ff" d="M452.06,-164.98C429.67,-156.38 394.46,-142.48 364.61,-129 347.4,-121.23 343.74,-117.94 326.61,-110 302,-98.59 273.67,-86.54 252.8,-77.86"/>
<polygon fill="#63b8ff" stroke="#63b8ff" points="254.07,-74.6 243.49,-74.01 251.39,-81.07 254.07,-74.6"/>
</a>
</g>
</g>
<!-- Node11&#45;&gt;Node7 -->
<g id="edge21_Node000011_Node000007" class="edge">
<title>Node11&#45;&gt;Node7</title>
<g id="a_edge21_Node000011_Node000007"><a xlink:title=" ">
<path fill="none" stroke="#63b8ff" d="M445.53,-164.98C413.2,-155.52 361.07,-140.25 327.07,-130.3"/>
<polygon fill="#63b8ff" stroke="#63b8ff" points="327.72,-126.84 317.14,-127.39 325.75,-133.56 327.72,-126.84"/>
</a>
</g>
</g>
<!-- Node12 -->
<g id="Node000012" class="node">
<title>Node12</title>
<g id="a_Node000012"><a xlink:href="ExtraDataContainer_8h.html" target="_top" xlink:title=" ">
<polygon fill="white" stroke="#666666" points="775.11,-129 596.11,-129 596.11,-110 775.11,-110 775.11,-129"/>
<text text-anchor="middle" x="685.61" y="-117" font-family="Helvetica,sans-Serif" font-size="10.00">Application/ExtraDataContainer.h</text>
</a>
</g>
</g>
<!-- Node11&#45;&gt;Node12 -->
<g id="edge13_Node000011_Node000012" class="edge">
<title>Node11&#45;&gt;Node12</title>
<g id="a_edge13_Node000011_Node000012"><a xlink:title=" ">
<path fill="none" stroke="#63b8ff" d="M508.51,-164.98C544.62,-155.91 601.93,-141.52 641.53,-131.57"/>
<polygon fill="#63b8ff" stroke="#63b8ff" points="642.6,-134.91 651.44,-129.08 640.89,-128.12 642.6,-134.91"/>
</a>
</g>
</g>
<!-- Node16 -->
<g id="Node000016" class="node">
<title>Node16</title>
<g id="a_Node000016"><a xlink:href="Primitive_8h.html" target="_top" xlink:title=" ">
<polygon fill="white" stroke="#666666" points="577.61,-129 449.61,-129 449.61,-110 577.61,-110 577.61,-129"/>
<text text-anchor="middle" x="513.61" y="-117" font-family="Helvetica,sans-Serif" font-size="10.00">Application/Primitive.h</text>
</a>
</g>
</g>
<!-- Node11&#45;&gt;Node16 -->
<g id="edge17_Node000011_Node000016" class="edge">
<title>Node11&#45;&gt;Node16</title>
<g id="a_edge17_Node000011_Node000016"><a xlink:title=" ">
<path fill="none" stroke="#63b8ff" d="M481.05,-164.75C486.5,-157.34 494.47,-146.5 501.17,-137.41"/>
<polygon fill="#63b8ff" stroke="#63b8ff" points="504.18,-139.22 507.29,-129.09 498.54,-135.07 504.18,-139.22"/>
</a>
</g>
</g>
<!-- Node18 -->
<g id="Node000018" class="node">
<title>Node18</title>
<g id="a_Node000018"><a xlink:title=" ">
<polygon fill="#e0e0e0" stroke="#999999" points="431.61,-129 373.61,-129 373.61,-110 431.61,-110 431.61,-129"/>
<text text-anchor="middle" x="402.61" y="-117" font-family="Helvetica,sans-Serif" font-size="10.00">memory</text>
</a>
</g>
</g>
<!-- Node11&#45;&gt;Node18 -->
<g id="edge20_Node000011_Node000018" class="edge">
<title>Node11&#45;&gt;Node18</title>
<g id="a_edge20_Node000011_Node000018"><a xlink:title=" ">
<path fill="none" stroke="#63b8ff" d="M463.04,-164.98C452.19,-157 435.73,-144.88 422.73,-135.31"/>
<polygon fill="#63b8ff" stroke="#63b8ff" points="424.52,-132.28 414.39,-129.17 420.37,-137.92 424.52,-132.28"/>
</a>
</g>
</g>
<!-- Node13 -->
<g id="Node000013" class="node">
<title>Node13</title>
<g id="a_Node000013"><a xlink:title=" ">
<polygon fill="#e0e0e0" stroke="#999999" points="703.11,-74 668.11,-74 668.11,-55 703.11,-55 703.11,-74"/>
<text text-anchor="middle" x="685.61" y="-62" font-family="Helvetica,sans-Serif" font-size="10.00">any</text>
</a>
</g>
</g>
<!-- Node12&#45;&gt;Node13 -->
<g id="edge14_Node000012_Node000013" class="edge">
<title>Node12&#45;&gt;Node13</title>
<g id="a_edge14_Node000012_Node000013"><a xlink:title=" ">
<path fill="none" stroke="#63b8ff" d="M685.61,-109.75C685.61,-102.8 685.61,-92.85 685.61,-84.13"/>
<polygon fill="#63b8ff" stroke="#63b8ff" points="689.11,-84.09 685.61,-74.09 682.11,-84.09 689.11,-84.09"/>
</a>
</g>
</g>
<!-- Node14 -->
<g id="Node000014" class="node">
<title>Node14</title>
<g id="a_Node000014"><a xlink:title=" ">
<polygon fill="#e0e0e0" stroke="#999999" points="786.11,-74 721.11,-74 721.11,-55 786.11,-55 786.11,-74"/>
<text text-anchor="middle" x="753.61" y="-62" font-family="Helvetica,sans-Serif" font-size="10.00">typeindex</text>
</a>
</g>
</g>
<!-- Node12&#45;&gt;Node14 -->
<g id="edge15_Node000012_Node000014" class="edge">
<title>Node12&#45;&gt;Node14</title>
<g id="a_edge15_Node000012_Node000014"><a xlink:title=" ">
<path fill="none" stroke="#63b8ff" d="M696.53,-109.98C706.69,-102.07 722.03,-90.11 734.25,-80.58"/>
<polygon fill="#63b8ff" stroke="#63b8ff" points="736.75,-83.08 742.48,-74.17 732.45,-77.56 736.75,-83.08"/>
</a>
</g>
</g>
<!-- Node15 -->
<g id="Node000015" class="node">
<title>Node15</title>
<g id="a_Node000015"><a xlink:title=" ">
<polygon fill="#e0e0e0" stroke="#999999" points="650.11,-74 557.11,-74 557.11,-55 650.11,-55 650.11,-74"/>
<text text-anchor="middle" x="603.61" y="-62" font-family="Helvetica,sans-Serif" font-size="10.00">unordered_map</text>
</a>
</g>
</g>
<!-- Node12&#45;&gt;Node15 -->
<g id="edge16_Node000012_Node000015" class="edge">
<title>Node12&#45;&gt;Node15</title>
<g id="a_edge16_Node000012_Node000015"><a xlink:title=" ">
<path fill="none" stroke="#63b8ff" d="M672.43,-109.98C659.84,-101.84 640.6,-89.41 625.67,-79.76"/>
<polygon fill="#63b8ff" stroke="#63b8ff" points="627.32,-76.66 617.02,-74.17 623.52,-82.54 627.32,-76.66"/>
</a>
</g>
</g>
<!-- Node16&#45;&gt;Node3 -->
<g id="edge18_Node000016_Node000003" class="edge">
<title>Node16&#45;&gt;Node3</title>
<g id="a_edge18_Node000016_Node000003"><a xlink:title=" ">
<path fill="none" stroke="#63b8ff" d="M466.85,-109.98C415.88,-100.7 334.3,-85.84 279.61,-75.88"/>
<polygon fill="#63b8ff" stroke="#63b8ff" points="280.2,-72.43 269.73,-74.08 278.94,-79.32 280.2,-72.43"/>
</a>
</g>
</g>
<!-- Node17 -->
<g id="Node000017" class="node">
<title>Node17</title>
<g id="a_Node000017"><a xlink:title=" ">
<polygon fill="#e0e0e0" stroke="#999999" points="534.61,-74 492.61,-74 492.61,-55 534.61,-55 534.61,-74"/>
<text text-anchor="middle" x="513.61" y="-62" font-family="Helvetica,sans-Serif" font-size="10.00">array</text>
</a>
</g>
</g>
<!-- Node16&#45;&gt;Node17 -->
<g id="edge19_Node000016_Node000017" class="edge">
<title>Node16&#45;&gt;Node17</title>
<g id="a_edge19_Node000016_Node000017"><a xlink:title=" ">
<path fill="none" stroke="#63b8ff" d="M513.61,-109.75C513.61,-102.8 513.61,-92.85 513.61,-84.13"/>
<polygon fill="#63b8ff" stroke="#63b8ff" points="517.11,-84.09 513.61,-74.09 510.11,-84.09 517.11,-84.09"/>
</a>
</g>
</g>
<!-- Node19&#45;&gt;Node5 -->
<g id="edge24_Node000019_Node000005" class="edge">
<title>Node19&#45;&gt;Node5</title>
<g id="a_edge24_Node000019_Node000005"><a xlink:title=" ">
<path fill="none" stroke="#63b8ff" d="M63.19,-219.96C43.87,-213.52 22.16,-202.5 10.61,-184 -22.38,-131.15 31.76,-58.95 60.07,-26.94"/>
<polygon fill="#63b8ff" stroke="#63b8ff" points="62.82,-29.11 66.96,-19.36 57.64,-24.41 62.82,-29.11"/>
</a>
</g>
</g>
<!-- Node19&#45;&gt;Node11 -->
<g id="edge23_Node000019_Node000011" class="edge">
<title>Node19&#45;&gt;Node11</title>
<g id="a_edge23_Node000019_Node000011"><a xlink:title=" ">
<path fill="none" stroke="#63b8ff" d="M161.54,-219.98C229.35,-210.35 339.44,-194.71 409.37,-184.77"/>
<polygon fill="#63b8ff" stroke="#63b8ff" points="409.98,-188.22 419.39,-183.35 409,-181.29 409.98,-188.22"/>
</a>
</g>
</g>
<!-- Node20&#45;&gt;Node11 -->
<g id="edge26_Node000020_Node000011" class="edge">
<title>Node20&#45;&gt;Node11</title>
<g id="a_edge26_Node000020_Node000011"><a xlink:title=" ">
<path fill="none" stroke="#63b8ff" d="M669.03,-274.89C653.92,-261.66 623.2,-236.15 593.61,-220 568.37,-206.22 537.97,-194.93 514.22,-187.18"/>
<polygon fill="#63b8ff" stroke="#63b8ff" points="515.07,-183.77 504.48,-184.07 512.94,-190.44 515.07,-183.77"/>
</a>
</g>
</g>
<!-- Node21 -->
<g id="Node000021" class="node">
<title>Node21</title>
<g id="a_Node000021"><a xlink:title=" ">
<polygon fill="#e0e0e0" stroke="#999999" points="713.61,-239 645.61,-239 645.61,-220 713.61,-220 713.61,-239"/>
<text text-anchor="middle" x="679.61" y="-227" font-family="Helvetica,sans-Serif" font-size="10.00">filesystem</text>
</a>
</g>
</g>
<!-- Node20&#45;&gt;Node21 -->
<g id="edge27_Node000020_Node000021" class="edge">
<title>Node20&#45;&gt;Node21</title>
<g id="a_edge27_Node000020_Node000021"><a xlink:title=" ">
<path fill="none" stroke="#63b8ff" d="M678.77,-274.75C678.91,-267.8 679.09,-257.85 679.26,-249.13"/>
<polygon fill="#63b8ff" stroke="#63b8ff" points="682.76,-249.15 679.45,-239.09 675.76,-249.02 682.76,-249.15"/>
</a>
</g>
</g>
<!-- Node22&#45;&gt;Node3 -->
<g id="edge29_Node000022_Node000003" class="edge">
<title>Node22&#45;&gt;Node3</title>
<g id="a_edge29_Node000022_Node000003"><a xlink:title=" ">
<path fill="none" stroke="#63b8ff" d="M413.35,-219.9C377.15,-205.6 306.71,-173.98 260.61,-129 247.27,-115.99 236.85,-97.34 230.32,-83.62"/>
<polygon fill="#63b8ff" stroke="#63b8ff" points="233.4,-81.94 226.1,-74.26 227.02,-84.81 233.4,-81.94"/>
</a>
</g>
</g>
<!-- Node22&#45;&gt;Node11 -->
<g id="edge30_Node000022_Node000011" class="edge">
<title>Node22&#45;&gt;Node11</title>
<g id="a_edge30_Node000022_Node000011"><a xlink:title=" ">
<path fill="none" stroke="#63b8ff" d="M442.88,-219.75C448.2,-212.34 455.96,-201.5 462.48,-192.41"/>
<polygon fill="#63b8ff" stroke="#63b8ff" points="465.47,-194.26 468.45,-184.09 459.78,-190.18 465.47,-194.26"/>
</a>
</g>
</g>
<!-- Node23&#45;&gt;Node11 -->
<g id="edge32_Node000023_Node000011" class="edge">
<title>Node23&#45;&gt;Node11</title>
<g id="a_edge32_Node000023_Node000011"><a xlink:title=" ">
<path fill="none" stroke="#63b8ff" d="M493.83,-274.97C509.01,-263.24 531.85,-241.17 522.61,-220 517.33,-207.92 506.98,-197.65 497.24,-190.03"/>
<polygon fill="#63b8ff" stroke="#63b8ff" points="499.13,-187.07 488.97,-184.04 495.02,-192.74 499.13,-187.07"/>
</a>
</g>
</g>
<!-- Node23&#45;&gt;Node22 -->
<g id="edge33_Node000023_Node000022" class="edge">
<title>Node23&#45;&gt;Node22</title>
<g id="a_edge33_Node000023_Node000022"><a xlink:title=" ">
<path fill="none" stroke="#63b8ff" d="M474.18,-274.75C467.76,-267.18 458.3,-256.05 450.49,-246.84"/>
<polygon fill="#63b8ff" stroke="#63b8ff" points="453.04,-244.45 443.9,-239.09 447.71,-248.98 453.04,-244.45"/>
</a>
</g>
</g>
</g>
</svg>
