<?xml version="1.0" encoding="UTF-8" standalone="no"?>
<!DOCTYPE svg PUBLIC "-//W3C//DTD SVG 1.1//EN"
 "http://www.w3.org/Graphics/SVG/1.1/DTD/svg11.dtd">
<!-- Generated by graphviz version 2.43.0 (0)
 -->
<!-- Title: App/Test/Source/MeshLoader_utest.cpp Pages: 1 -->
<svg width="916pt" height="313pt"
 viewBox="0.00 0.00 916.39 313.00" xmlns="http://www.w3.org/2000/svg" xmlns:xlink="http://www.w3.org/1999/xlink">
<g id="graph0" class="graph" transform="scale(1 1) rotate(0) translate(4 309)">
<title>App/Test/Source/MeshLoader_utest.cpp</title>
<!-- Node1 -->
<g id="Node000001" class="node">
<title>Node1</title>
<g id="a_Node000001"><a xlink:title=" ">
<polygon fill="#999999" stroke="#666666" points="569.39,-305 413.39,-305 413.39,-275 569.39,-275 569.39,-305"/>
<text text-anchor="start" x="421.39" y="-293" font-family="Helvetica,sans-Serif" font-size="10.00">App/Test/Source/MeshLoader</text>
<text text-anchor="middle" x="491.39" y="-282" font-family="Helvetica,sans-Serif" font-size="10.00">_utest.cpp</text>
</a>
</g>
</g>
<!-- Node2 -->
<g id="Node000002" class="node">
<title>Node2</title>
<g id="a_Node000002"><a xlink:href="ExtraDataType_8h.html" target="_top" xlink:title=" ">
<polygon fill="white" stroke="#666666" points="162.89,-184 7.89,-184 7.89,-165 162.89,-165 162.89,-184"/>
<text text-anchor="middle" x="85.39" y="-172" font-family="Helvetica,sans-Serif" font-size="10.00">Application/ExtraDataType.h</text>
</a>
</g>
</g>
<!-- Node1&#45;&gt;Node2 -->
<g id="edge1_Node000001_Node000002" class="edge">
<title>Node1&#45;&gt;Node2</title>
<g id="a_edge1_Node000001_Node000002"><a xlink:title=" ">
<path fill="none" stroke="#63b8ff" d="M413.32,-282.46C329.24,-274.51 201.58,-259.57 157.39,-239 133.9,-228.06 112.39,-206.99 99.11,-192.12"/>
<polygon fill="#63b8ff" stroke="#63b8ff" points="101.48,-189.5 92.3,-184.21 96.17,-194.07 101.48,-189.5"/>
</a>
</g>
</g>
<!-- Node11 -->
<g id="Node000011" class="node">
<title>Node11</title>
<g id="a_Node000011"><a xlink:href="MathHelpers_8h.html" target="_top" xlink:title=" ">
<polygon fill="white" stroke="#666666" points="812.39,-239 666.39,-239 666.39,-220 812.39,-220 812.39,-239"/>
<text text-anchor="middle" x="739.39" y="-227" font-family="Helvetica,sans-Serif" font-size="10.00">Application/MathHelpers.h</text>
</a>
</g>
</g>
<!-- Node1&#45;&gt;Node11 -->
<g id="edge10_Node000001_Node000011" class="edge">
<title>Node1&#45;&gt;Node11</title>
<g id="a_edge10_Node000001_Node000011"><a xlink:title=" ">
<path fill="none" stroke="#63b8ff" d="M550.8,-274.99C594.52,-264.67 653.12,-250.85 693.33,-241.37"/>
<polygon fill="#63b8ff" stroke="#63b8ff" points="694.2,-244.76 703.13,-239.05 692.6,-237.94 694.2,-244.76"/>
</a>
</g>
</g>
<!-- Node14 -->
<g id="Node000014" class="node">
<title>Node14</title>
<g id="a_Node000014"><a xlink:href="MeshIntegrity_8h.html" target="_top" xlink:title=" ">
<polygon fill="white" stroke="#666666" points="647.89,-239 498.89,-239 498.89,-220 647.89,-220 647.89,-239"/>
<text text-anchor="middle" x="573.39" y="-227" font-family="Helvetica,sans-Serif" font-size="10.00">Application/MeshIntegrity.h</text>
</a>
</g>
</g>
<!-- Node1&#45;&gt;Node14 -->
<g id="edge14_Node000001_Node000014" class="edge">
<title>Node1&#45;&gt;Node14</title>
<g id="a_edge14_Node000001_Node000014"><a xlink:title=" ">
<path fill="none" stroke="#63b8ff" d="M511.24,-274.84C523.88,-265.83 540.2,-254.18 552.94,-245.09"/>
<polygon fill="#63b8ff" stroke="#63b8ff" points="555,-247.92 561.11,-239.27 550.93,-242.22 555,-247.92"/>
</a>
</g>
</g>
<!-- Node22 -->
<g id="Node000022" class="node">
<title>Node22</title>
<g id="a_Node000022"><a xlink:href="MeshLoader_8h.html" target="_top" xlink:title=" ">
<polygon fill="white" stroke="#666666" points="480.39,-239 338.39,-239 338.39,-220 480.39,-220 480.39,-239"/>
<text text-anchor="middle" x="409.39" y="-227" font-family="Helvetica,sans-Serif" font-size="10.00">Application/MeshLoader.h</text>
</a>
</g>
</g>
<!-- Node1&#45;&gt;Node22 -->
<g id="edge27_Node000001_Node000022" class="edge">
<title>Node1&#45;&gt;Node22</title>
<g id="a_edge27_Node000001_Node000022"><a xlink:title=" ">
<path fill="none" stroke="#63b8ff" d="M471.54,-274.84C458.91,-265.83 442.59,-254.18 429.85,-245.09"/>
<polygon fill="#63b8ff" stroke="#63b8ff" points="431.86,-242.22 421.68,-239.27 427.79,-247.92 431.86,-242.22"/>
</a>
</g>
</g>
<!-- Node24 -->
<g id="Node000024" class="node">
<title>Node24</title>
<g id="a_Node000024"><a xlink:href="PrimitiveProxy_8h.html" target="_top" xlink:title=" ">
<polygon fill="white" stroke="#666666" points="320.39,-239 166.39,-239 166.39,-220 320.39,-220 320.39,-239"/>
<text text-anchor="middle" x="243.39" y="-227" font-family="Helvetica,sans-Serif" font-size="10.00">Application/PrimitiveProxy.h</text>
</a>
</g>
</g>
<!-- Node1&#45;&gt;Node24 -->
<g id="edge30_Node000001_Node000024" class="edge">
<title>Node1&#45;&gt;Node24</title>
<g id="a_edge30_Node000001_Node000024"><a xlink:title=" ">
<path fill="none" stroke="#63b8ff" d="M431.99,-274.99C388.27,-264.67 329.67,-250.85 289.46,-241.37"/>
<polygon fill="#63b8ff" stroke="#63b8ff" points="290.19,-237.94 279.66,-239.05 288.59,-244.76 290.19,-237.94"/>
</a>
</g>
</g>
<!-- Node25 -->
<g id="Node000025" class="node">
<title>Node25</title>
<g id="a_Node000025"><a xlink:title=" ">
<polygon fill="#e0e0e0" stroke="#999999" points="908.39,-239 830.39,-239 830.39,-220 908.39,-220 908.39,-239"/>
<text text-anchor="middle" x="869.39" y="-227" font-family="Helvetica,sans-Serif" font-size="10.00">gtest/gtest.h</text>
</a>
</g>
</g>
<!-- Node1&#45;&gt;Node25 -->
<g id="edge33_Node000001_Node000025" class="edge">
<title>Node1&#45;&gt;Node25</title>
<g id="a_edge33_Node000001_Node000025"><a xlink:title=" ">
<path fill="none" stroke="#63b8ff" d="M569.49,-277.73C634.06,-268.28 728.42,-254.17 820.34,-239.14"/>
<polygon fill="#63b8ff" stroke="#63b8ff" points="821.07,-242.57 830.38,-237.49 819.94,-235.66 821.07,-242.57"/>
</a>
</g>
</g>
<!-- Node3 -->
<g id="Node000003" class="node">
<title>Node3</title>
<g id="a_Node000003"><a xlink:href="BaseType_8h.html" target="_top" xlink:title=" ">
<polygon fill="white" stroke="#666666" points="419.39,-74 289.39,-74 289.39,-55 419.39,-55 419.39,-74"/>
<text text-anchor="middle" x="354.39" y="-62" font-family="Helvetica,sans-Serif" font-size="10.00">Application/BaseType.h</text>
</a>
</g>
</g>
<!-- Node2&#45;&gt;Node3 -->
<g id="edge2_Node000002_Node000003" class="edge">
<title>Node2&#45;&gt;Node3</title>
<g id="a_edge2_Node000002_Node000003"><a xlink:title=" ">
<path fill="none" stroke="#63b8ff" d="M85.31,-164.6C85.69,-150.73 88.59,-124.09 104.39,-110 129.73,-87.41 215.07,-75.89 279.04,-70.3"/>
<polygon fill="#63b8ff" stroke="#63b8ff" points="279.44,-73.78 289.11,-69.46 278.85,-66.81 279.44,-73.78"/>
</a>
</g>
</g>
<!-- Node8 -->
<g id="Node000008" class="node">
<title>Node8</title>
<g id="a_Node000008"><a xlink:title=" ">
<polygon fill="#e0e0e0" stroke="#999999" points="148.39,-74 106.39,-74 106.39,-55 148.39,-55 148.39,-74"/>
<text text-anchor="middle" x="127.39" y="-62" font-family="Helvetica,sans-Serif" font-size="10.00">array</text>
</a>
</g>
</g>
<!-- Node2&#45;&gt;Node8 -->
<g id="edge7_Node000002_Node000008" class="edge">
<title>Node2&#45;&gt;Node8</title>
<g id="a_edge7_Node000002_Node000008"><a xlink:title=" ">
<path fill="none" stroke="#63b8ff" d="M57.41,-164.95C27.66,-154.36 -12.9,-134.65 4.39,-110 24.96,-80.7 66.84,-70.61 95.98,-67.18"/>
<polygon fill="#63b8ff" stroke="#63b8ff" points="96.47,-70.65 106.08,-66.2 95.79,-63.68 96.47,-70.65"/>
</a>
</g>
</g>
<!-- Node9 -->
<g id="Node000009" class="node">
<title>Node9</title>
<g id="a_Node000009"><a xlink:title=" ">
<polygon fill="#e0e0e0" stroke="#999999" points="57.39,-129 13.39,-129 13.39,-110 57.39,-110 57.39,-129"/>
<text text-anchor="middle" x="35.39" y="-117" font-family="Helvetica,sans-Serif" font-size="10.00">string</text>
</a>
</g>
</g>
<!-- Node2&#45;&gt;Node9 -->
<g id="edge8_Node000002_Node000009" class="edge">
<title>Node2&#45;&gt;Node9</title>
<g id="a_edge8_Node000002_Node000009"><a xlink:title=" ">
<path fill="none" stroke="#63b8ff" d="M77.14,-164.75C69.93,-157.11 59.29,-145.82 50.55,-136.56"/>
<polygon fill="#63b8ff" stroke="#63b8ff" points="52.91,-133.96 43.5,-129.09 47.81,-138.76 52.91,-133.96"/>
</a>
</g>
</g>
<!-- Node10 -->
<g id="Node000010" class="node">
<title>Node10</title>
<g id="a_Node000010"><a xlink:title=" ">
<polygon fill="#e0e0e0" stroke="#999999" points="160.89,-129 113.89,-129 113.89,-110 160.89,-110 160.89,-129"/>
<text text-anchor="middle" x="137.39" y="-117" font-family="Helvetica,sans-Serif" font-size="10.00">vector</text>
</a>
</g>
</g>
<!-- Node2&#45;&gt;Node10 -->
<g id="edge9_Node000002_Node000010" class="edge">
<title>Node2&#45;&gt;Node10</title>
<g id="a_edge9_Node000002_Node000010"><a xlink:title=" ">
<path fill="none" stroke="#63b8ff" d="M93.98,-164.75C101.55,-157.03 112.77,-145.6 121.91,-136.28"/>
<polygon fill="#63b8ff" stroke="#63b8ff" points="124.46,-138.68 128.97,-129.09 119.47,-133.78 124.46,-138.68"/>
</a>
</g>
</g>
<!-- Node4 -->
<g id="Node000004" class="node">
<title>Node4</title>
<g id="a_Node000004"><a xlink:title=" ">
<polygon fill="#e0e0e0" stroke="#999999" points="265.39,-19 187.39,-19 187.39,0 265.39,0 265.39,-19"/>
<text text-anchor="middle" x="226.39" y="-7" font-family="Helvetica,sans-Serif" font-size="10.00">glm/glm.hpp</text>
</a>
</g>
</g>
<!-- Node3&#45;&gt;Node4 -->
<g id="edge3_Node000003_Node000004" class="edge">
<title>Node3&#45;&gt;Node4</title>
<g id="a_edge3_Node000003_Node000004"><a xlink:title=" ">
<path fill="none" stroke="#63b8ff" d="M333.83,-54.98C312.96,-46.34 280.42,-32.87 256.62,-23.02"/>
<polygon fill="#63b8ff" stroke="#63b8ff" points="257.91,-19.76 247.33,-19.17 255.23,-26.23 257.91,-19.76"/>
</a>
</g>
</g>
<!-- Node5 -->
<g id="Node000005" class="node">
<title>Node5</title>
<g id="a_Node000005"><a xlink:title=" ">
<polygon fill="#e0e0e0" stroke="#999999" points="424.89,-19 283.89,-19 283.89,0 424.89,0 424.89,-19"/>
<text text-anchor="middle" x="354.39" y="-7" font-family="Helvetica,sans-Serif" font-size="10.00">glm/gtx/vector_angle.hpp</text>
</a>
</g>
</g>
<!-- Node3&#45;&gt;Node5 -->
<g id="edge4_Node000003_Node000005" class="edge">
<title>Node3&#45;&gt;Node5</title>
<g id="a_edge4_Node000003_Node000005"><a xlink:title=" ">
<path fill="none" stroke="#63b8ff" d="M354.39,-54.75C354.39,-47.8 354.39,-37.85 354.39,-29.13"/>
<polygon fill="#63b8ff" stroke="#63b8ff" points="357.89,-29.09 354.39,-19.09 350.89,-29.09 357.89,-29.09"/>
</a>
</g>
</g>
<!-- Node6 -->
<g id="Node000006" class="node">
<title>Node6</title>
<g id="a_Node000006"><a xlink:title=" ">
<polygon fill="#e0e0e0" stroke="#999999" points="487.39,-19 443.39,-19 443.39,0 487.39,0 487.39,-19"/>
<text text-anchor="middle" x="465.39" y="-7" font-family="Helvetica,sans-Serif" font-size="10.00">bitset</text>
</a>
</g>
</g>
<!-- Node3&#45;&gt;Node6 -->
<g id="edge5_Node000003_Node000006" class="edge">
<title>Node3&#45;&gt;Node6</title>
<g id="a_edge5_Node000003_Node000006"><a xlink:title=" ">
<path fill="none" stroke="#63b8ff" d="M372.23,-54.98C390,-46.5 417.54,-33.35 438.07,-23.54"/>
<polygon fill="#63b8ff" stroke="#63b8ff" points="439.72,-26.64 447.24,-19.17 436.7,-20.32 439.72,-26.64"/>
</a>
</g>
</g>
<!-- Node7 -->
<g id="Node000007" class="node">
<title>Node7</title>
<g id="a_Node000007"><a xlink:title=" ">
<polygon fill="#e0e0e0" stroke="#999999" points="661.39,-19 611.39,-19 611.39,0 661.39,0 661.39,-19"/>
<text text-anchor="middle" x="636.39" y="-7" font-family="Helvetica,sans-Serif" font-size="10.00">cstdint</text>
</a>
</g>
</g>
<!-- Node3&#45;&gt;Node7 -->
<g id="edge6_Node000003_Node000007" class="edge">
<title>Node3&#45;&gt;Node7</title>
<g id="a_edge6_Node000003_Node000007"><a xlink:title=" ">
<path fill="none" stroke="#63b8ff" d="M399.7,-54.98C455.93,-44.42 550.59,-26.63 601.49,-17.06"/>
<polygon fill="#63b8ff" stroke="#63b8ff" points="602.18,-20.49 611.37,-15.2 600.89,-13.61 602.18,-20.49"/>
</a>
</g>
</g>
<!-- Node11&#45;&gt;Node3 -->
<g id="edge11_Node000011_Node000003" class="edge">
<title>Node11&#45;&gt;Node3</title>
<g id="a_edge11_Node000011_Node000003"><a xlink:title=" ">
<path fill="none" stroke="#63b8ff" d="M718.32,-220C677.23,-203.31 583.63,-164.76 506.39,-129 489.26,-121.07 485.65,-117.66 468.39,-110 441.67,-98.13 410.73,-86.16 387.83,-77.63"/>
<polygon fill="#63b8ff" stroke="#63b8ff" points="388.83,-74.27 378.23,-74.08 386.4,-80.83 388.83,-74.27"/>
</a>
</g>
</g>
<!-- Node12 -->
<g id="Node000012" class="node">
<title>Node12</title>
<g id="a_Node000012"><a xlink:title=" ">
<polygon fill="#e0e0e0" stroke="#999999" points="794.89,-184 747.89,-184 747.89,-165 794.89,-165 794.89,-184"/>
<text text-anchor="middle" x="771.39" y="-172" font-family="Helvetica,sans-Serif" font-size="10.00">cmath</text>
</a>
</g>
</g>
<!-- Node11&#45;&gt;Node12 -->
<g id="edge12_Node000011_Node000012" class="edge">
<title>Node11&#45;&gt;Node12</title>
<g id="a_edge12_Node000011_Node000012"><a xlink:title=" ">
<path fill="none" stroke="#63b8ff" d="M744.68,-219.75C749.11,-212.42 755.56,-201.73 761.01,-192.7"/>
<polygon fill="#63b8ff" stroke="#63b8ff" points="764.04,-194.46 766.21,-184.09 758.04,-190.84 764.04,-194.46"/>
</a>
</g>
</g>
<!-- Node13 -->
<g id="Node000013" class="node">
<title>Node13</title>
<g id="a_Node000013"><a xlink:title=" ">
<polygon fill="#e0e0e0" stroke="#999999" points="729.39,-184 685.39,-184 685.39,-165 729.39,-165 729.39,-184"/>
<text text-anchor="middle" x="707.39" y="-172" font-family="Helvetica,sans-Serif" font-size="10.00">limits</text>
</a>
</g>
</g>
<!-- Node11&#45;&gt;Node13 -->
<g id="edge13_Node000011_Node000013" class="edge">
<title>Node11&#45;&gt;Node13</title>
<g id="a_edge13_Node000011_Node000013"><a xlink:title=" ">
<path fill="none" stroke="#63b8ff" d="M734.11,-219.75C729.68,-212.42 723.23,-201.73 717.78,-192.7"/>
<polygon fill="#63b8ff" stroke="#63b8ff" points="720.75,-190.84 712.58,-184.09 714.75,-194.46 720.75,-190.84"/>
</a>
</g>
</g>
<!-- Node14&#45;&gt;Node7 -->
<g id="edge26_Node000014_Node000007" class="edge">
<title>Node14&#45;&gt;Node7</title>
<g id="a_edge26_Node000014_Node000007"><a xlink:title=" ">
<path fill="none" stroke="#63b8ff" d="M587.53,-219.96C618.54,-200.88 690.81,-154.48 703.39,-129 717.96,-99.51 718.94,-83.98 703.39,-55 695.89,-41 681.82,-30.66 668.51,-23.48"/>
<polygon fill="#63b8ff" stroke="#63b8ff" points="670.02,-20.33 659.51,-19.02 666.91,-26.6 670.02,-20.33"/>
</a>
</g>
</g>
<!-- Node15 -->
<g id="Node000015" class="node">
<title>Node15</title>
<g id="a_Node000015"><a xlink:href="Mesh_8h.html" target="_top" xlink:title=" ">
<polygon fill="white" stroke="#666666" points="518.39,-184 408.39,-184 408.39,-165 518.39,-165 518.39,-184"/>
<text text-anchor="middle" x="463.39" y="-172" font-family="Helvetica,sans-Serif" font-size="10.00">Application/Mesh.h</text>
</a>
</g>
</g>
<!-- Node14&#45;&gt;Node15 -->
<g id="edge15_Node000014_Node000015" class="edge">
<title>Node14&#45;&gt;Node15</title>
<g id="a_edge15_Node000014_Node000015"><a xlink:title=" ">
<path fill="none" stroke="#63b8ff" d="M555.72,-219.98C538.11,-211.5 510.82,-198.35 490.47,-188.54"/>
<polygon fill="#63b8ff" stroke="#63b8ff" points="491.92,-185.36 481.39,-184.17 488.88,-191.66 491.92,-185.36"/>
</a>
</g>
</g>
<!-- Node15&#45;&gt;Node3 -->
<g id="edge16_Node000015_Node000003" class="edge">
<title>Node15&#45;&gt;Node3</title>
<g id="a_edge16_Node000015_Node000003"><a xlink:title=" ">
<path fill="none" stroke="#63b8ff" d="M444.81,-164.95C429.42,-157.19 407.66,-144.59 392.39,-129 379.36,-115.69 368.89,-97.08 362.28,-83.45"/>
<polygon fill="#63b8ff" stroke="#63b8ff" points="365.36,-81.77 357.98,-74.16 359,-84.71 365.36,-81.77"/>
</a>
</g>
</g>
<!-- Node15&#45;&gt;Node10 -->
<g id="edge25_Node000015_Node000010" class="edge">
<title>Node15&#45;&gt;Node10</title>
<g id="a_edge25_Node000015_Node000010"><a xlink:title=" ">
<path fill="none" stroke="#63b8ff" d="M408.13,-165.79C340.47,-156.24 228.77,-140.08 171.21,-128.94"/>
<polygon fill="#63b8ff" stroke="#63b8ff" points="171.61,-125.45 161.12,-126.92 170.24,-132.31 171.61,-125.45"/>
</a>
</g>
</g>
<!-- Node16 -->
<g id="Node000016" class="node">
<title>Node16</title>
<g id="a_Node000016"><a xlink:href="ExtraDataContainer_8h.html" target="_top" xlink:title=" ">
<polygon fill="white" stroke="#666666" points="694.89,-129 515.89,-129 515.89,-110 694.89,-110 694.89,-129"/>
<text text-anchor="middle" x="605.39" y="-117" font-family="Helvetica,sans-Serif" font-size="10.00">Application/ExtraDataContainer.h</text>
</a>
</g>
</g>
<!-- Node15&#45;&gt;Node16 -->
<g id="edge17_Node000015_Node000016" class="edge">
<title>Node15&#45;&gt;Node16</title>
<g id="a_edge17_Node000015_Node000016"><a xlink:title=" ">
<path fill="none" stroke="#63b8ff" d="M486.21,-164.98C509.57,-156.27 546.1,-142.63 572.56,-132.75"/>
<polygon fill="#63b8ff" stroke="#63b8ff" points="574.02,-135.95 582.17,-129.17 571.57,-129.39 574.02,-135.95"/>
</a>
</g>
</g>
<!-- Node20 -->
<g id="Node000020" class="node">
<title>Node20</title>
<g id="a_Node000020"><a xlink:href="Primitive_8h.html" target="_top" xlink:title=" ">
<polygon fill="white" stroke="#666666" points="307.39,-129 179.39,-129 179.39,-110 307.39,-110 307.39,-129"/>
<text text-anchor="middle" x="243.39" y="-117" font-family="Helvetica,sans-Serif" font-size="10.00">Application/Primitive.h</text>
</a>
</g>
</g>
<!-- Node15&#45;&gt;Node20 -->
<g id="edge21_Node000015_Node000020" class="edge">
<title>Node15&#45;&gt;Node20</title>
<g id="a_edge21_Node000015_Node000020"><a xlink:title=" ">
<path fill="none" stroke="#63b8ff" d="M428.05,-164.98C390.23,-155.87 330.13,-141.4 288.83,-131.45"/>
<polygon fill="#63b8ff" stroke="#63b8ff" points="289.56,-128.02 279.02,-129.08 287.92,-134.83 289.56,-128.02"/>
</a>
</g>
</g>
<!-- Node21 -->
<g id="Node000021" class="node">
<title>Node21</title>
<g id="a_Node000021"><a xlink:title=" ">
<polygon fill="#e0e0e0" stroke="#999999" points="459.39,-129 401.39,-129 401.39,-110 459.39,-110 459.39,-129"/>
<text text-anchor="middle" x="430.39" y="-117" font-family="Helvetica,sans-Serif" font-size="10.00">memory</text>
</a>
</g>
</g>
<!-- Node15&#45;&gt;Node21 -->
<g id="edge24_Node000015_Node000021" class="edge">
<title>Node15&#45;&gt;Node21</title>
<g id="a_edge24_Node000015_Node000021"><a xlink:title=" ">
<path fill="none" stroke="#63b8ff" d="M457.95,-164.75C453.38,-157.42 446.73,-146.73 441.1,-137.7"/>
<polygon fill="#63b8ff" stroke="#63b8ff" points="444,-135.73 435.74,-129.09 438.06,-139.43 444,-135.73"/>
</a>
</g>
</g>
<!-- Node17 -->
<g id="Node000017" class="node">
<title>Node17</title>
<g id="a_Node000017"><a xlink:title=" ">
<polygon fill="#e0e0e0" stroke="#999999" points="611.89,-74 576.89,-74 576.89,-55 611.89,-55 611.89,-74"/>
<text text-anchor="middle" x="594.39" y="-62" font-family="Helvetica,sans-Serif" font-size="10.00">any</text>
</a>
</g>
</g>
<!-- Node16&#45;&gt;Node17 -->
<g id="edge18_Node000016_Node000017" class="edge">
<title>Node16&#45;&gt;Node17</title>
<g id="a_edge18_Node000016_Node000017"><a xlink:title=" ">
<path fill="none" stroke="#63b8ff" d="M603.58,-109.75C602.14,-102.8 600.07,-92.85 598.26,-84.13"/>
<polygon fill="#63b8ff" stroke="#63b8ff" points="601.64,-83.17 596.18,-74.09 594.78,-84.59 601.64,-83.17"/>
</a>
</g>
</g>
<!-- Node18 -->
<g id="Node000018" class="node">
<title>Node18</title>
<g id="a_Node000018"><a xlink:title=" ">
<polygon fill="#e0e0e0" stroke="#999999" points="694.89,-74 629.89,-74 629.89,-55 694.89,-55 694.89,-74"/>
<text text-anchor="middle" x="662.39" y="-62" font-family="Helvetica,sans-Serif" font-size="10.00">typeindex</text>
</a>
</g>
</g>
<!-- Node16&#45;&gt;Node18 -->
<g id="edge19_Node000016_Node000018" class="edge">
<title>Node16&#45;&gt;Node18</title>
<g id="a_edge19_Node000016_Node000018"><a xlink:title=" ">
<path fill="none" stroke="#63b8ff" d="M614.55,-109.98C622.9,-102.23 635.43,-90.58 645.57,-81.14"/>
<polygon fill="#63b8ff" stroke="#63b8ff" points="648.13,-83.54 653.07,-74.17 643.36,-78.42 648.13,-83.54"/>
</a>
</g>
</g>
<!-- Node19 -->
<g id="Node000019" class="node">
<title>Node19</title>
<g id="a_Node000019"><a xlink:title=" ">
<polygon fill="#e0e0e0" stroke="#999999" points="558.89,-74 465.89,-74 465.89,-55 558.89,-55 558.89,-74"/>
<text text-anchor="middle" x="512.39" y="-62" font-family="Helvetica,sans-Serif" font-size="10.00">unordered_map</text>
</a>
</g>
</g>
<!-- Node16&#45;&gt;Node19 -->
<g id="edge20_Node000016_Node000019" class="edge">
<title>Node16&#45;&gt;Node19</title>
<g id="a_edge20_Node000016_Node000019"><a xlink:title=" ">
<path fill="none" stroke="#63b8ff" d="M590.45,-109.98C575.9,-101.69 553.53,-88.94 536.46,-79.22"/>
<polygon fill="#63b8ff" stroke="#63b8ff" points="538.03,-76.08 527.61,-74.17 534.56,-82.16 538.03,-76.08"/>
</a>
</g>
</g>
<!-- Node20&#45;&gt;Node3 -->
<g id="edge22_Node000020_Node000003" class="edge">
<title>Node20&#45;&gt;Node3</title>
<g id="a_edge22_Node000020_Node000003"><a xlink:title=" ">
<path fill="none" stroke="#63b8ff" d="M261.23,-109.98C279,-101.5 306.54,-88.35 327.07,-78.54"/>
<polygon fill="#63b8ff" stroke="#63b8ff" points="328.72,-81.64 336.24,-74.17 325.7,-75.32 328.72,-81.64"/>
</a>
</g>
</g>
<!-- Node20&#45;&gt;Node8 -->
<g id="edge23_Node000020_Node000008" class="edge">
<title>Node20&#45;&gt;Node8</title>
<g id="a_edge23_Node000020_Node000008"><a xlink:title=" ">
<path fill="none" stroke="#63b8ff" d="M224.76,-109.98C206.1,-101.46 177.14,-88.23 155.66,-78.41"/>
<polygon fill="#63b8ff" stroke="#63b8ff" points="156.92,-75.14 146.37,-74.17 154.01,-81.51 156.92,-75.14"/>
</a>
</g>
</g>
<!-- Node22&#45;&gt;Node15 -->
<g id="edge28_Node000022_Node000015" class="edge">
<title>Node22&#45;&gt;Node15</title>
<g id="a_edge28_Node000022_Node000015"><a xlink:title=" ">
<path fill="none" stroke="#63b8ff" d="M418.31,-219.75C426.18,-212.03 437.83,-200.6 447.31,-191.28"/>
<polygon fill="#63b8ff" stroke="#63b8ff" points="449.96,-193.59 454.64,-184.09 445.06,-188.6 449.96,-193.59"/>
</a>
</g>
</g>
<!-- Node23 -->
<g id="Node000023" class="node">
<title>Node23</title>
<g id="a_Node000023"><a xlink:title=" ">
<polygon fill="#e0e0e0" stroke="#999999" points="390.39,-184 322.39,-184 322.39,-165 390.39,-165 390.39,-184"/>
<text text-anchor="middle" x="356.39" y="-172" font-family="Helvetica,sans-Serif" font-size="10.00">filesystem</text>
</a>
</g>
</g>
<!-- Node22&#45;&gt;Node23 -->
<g id="edge29_Node000022_Node000023" class="edge">
<title>Node22&#45;&gt;Node23</title>
<g id="a_edge29_Node000022_Node000023"><a xlink:title=" ">
<path fill="none" stroke="#63b8ff" d="M400.64,-219.75C392.93,-212.03 381.49,-200.6 372.18,-191.28"/>
<polygon fill="#63b8ff" stroke="#63b8ff" points="374.53,-188.69 364.98,-184.09 369.58,-193.64 374.53,-188.69"/>
</a>
</g>
</g>
<!-- Node24&#45;&gt;Node3 -->
<g id="edge31_Node000024_Node000003" class="edge">
<title>Node24&#45;&gt;Node3</title>
<g id="a_edge31_Node000024_Node000003"><a xlink:title=" ">
<path fill="none" stroke="#63b8ff" d="M250.12,-219.91C263.34,-202.91 293.4,-163.63 316.39,-129 326.47,-113.82 337.05,-95.97 344.48,-83.06"/>
<polygon fill="#63b8ff" stroke="#63b8ff" points="347.57,-84.71 349.48,-74.29 341.49,-81.24 347.57,-84.71"/>
</a>
</g>
</g>
<!-- Node24&#45;&gt;Node15 -->
<g id="edge32_Node000024_Node000015" class="edge">
<title>Node24&#45;&gt;Node15</title>
<g id="a_edge32_Node000024_Node000015"><a xlink:title=" ">
<path fill="none" stroke="#63b8ff" d="M278.74,-219.98C316.56,-210.87 376.66,-196.4 417.96,-186.45"/>
<polygon fill="#63b8ff" stroke="#63b8ff" points="418.87,-189.83 427.77,-184.08 417.23,-183.02 418.87,-189.83"/>
</a>
</g>
</g>
</g>
</svg>
