<?xml version="1.0" encoding="UTF-8" standalone="no"?>
<!DOCTYPE svg PUBLIC "-//W3C//DTD SVG 1.1//EN"
 "http://www.w3.org/Graphics/SVG/1.1/DTD/svg11.dtd">
<!-- Generated by graphviz version 2.43.0 (0)
 -->
<!-- Title: App/Include/Application/MeshExporter.h Pages: 1 -->
<svg width="676pt" height="258pt"
 viewBox="0.00 0.00 675.50 258.00" xmlns="http://www.w3.org/2000/svg" xmlns:xlink="http://www.w3.org/1999/xlink">
<g id="graph0" class="graph" transform="scale(1 1) rotate(0) translate(4 254)">
<title>App/Include/Application/MeshExporter.h</title>
<!-- Node1 -->
<g id="Node000001" class="node">
<title>Node1</title>
<g id="a_Node000001"><a xlink:title=" ">
<polygon fill="#999999" stroke="#666666" points="618,-250 487,-250 487,-220 618,-220 618,-250"/>
<text text-anchor="start" x="495" y="-238" font-family="Helvetica,sans-Serif" font-size="10.00">App/Include/Application</text>
<text text-anchor="middle" x="552.5" y="-227" font-family="Helvetica,sans-Serif" font-size="10.00">/MeshExporter.h</text>
</a>
</g>
</g>
<!-- Node2 -->
<g id="Node000002" class="node">
<title>Node2</title>
<g id="a_Node000002"><a xlink:href="Mesh_8h.html" target="_top" xlink:title=" ">
<polygon fill="white" stroke="#666666" points="405.5,-184 295.5,-184 295.5,-165 405.5,-165 405.5,-184"/>
<text text-anchor="middle" x="350.5" y="-172" font-family="Helvetica,sans-Serif" font-size="10.00">Application/Mesh.h</text>
</a>
</g>
</g>
<!-- Node1&#45;&gt;Node2 -->
<g id="edge1_Node000001_Node000002" class="edge">
<title>Node1&#45;&gt;Node2</title>
<g id="a_edge1_Node000001_Node000002"><a xlink:title=" ">
<path fill="none" stroke="#63b8ff" d="M504.12,-219.99C469.1,-209.85 422.39,-196.32 389.7,-186.85"/>
<polygon fill="#63b8ff" stroke="#63b8ff" points="390.61,-183.47 380.04,-184.05 388.67,-190.2 390.61,-183.47"/>
</a>
</g>
</g>
<!-- Node8 -->
<g id="Node000008" class="node">
<title>Node8</title>
<g id="a_Node000008"><a xlink:href="BaseType_8h.html" target="_top" xlink:title=" ">
<polygon fill="white" stroke="#666666" points="541.5,-74 443.5,-74 443.5,-55 541.5,-55 541.5,-74"/>
<text text-anchor="middle" x="492.5" y="-62" font-family="Helvetica,sans-Serif" font-size="10.00">Core/BaseType.h</text>
</a>
</g>
</g>
<!-- Node1&#45;&gt;Node8 -->
<g id="edge16_Node000001_Node000008" class="edge">
<title>Node1&#45;&gt;Node8</title>
<g id="a_edge16_Node000001_Node000008"><a xlink:title=" ">
<path fill="none" stroke="#63b8ff" d="M547.49,-219.92C536.66,-189.52 511.1,-117.73 499.03,-83.83"/>
<polygon fill="#63b8ff" stroke="#63b8ff" points="502.27,-82.5 495.62,-74.25 495.67,-84.85 502.27,-82.5"/>
</a>
</g>
</g>
<!-- Node12 -->
<g id="Node000012" class="node">
<title>Node12</title>
<g id="a_Node000012"><a xlink:title=" ">
<polygon fill="#e0e0e0" stroke="#999999" points="599.5,-19 549.5,-19 549.5,0 599.5,0 599.5,-19"/>
<text text-anchor="middle" x="574.5" y="-7" font-family="Helvetica,sans-Serif" font-size="10.00">cstdint</text>
</a>
</g>
</g>
<!-- Node1&#45;&gt;Node12 -->
<g id="edge17_Node000001_Node000012" class="edge">
<title>Node1&#45;&gt;Node12</title>
<g id="a_edge17_Node000001_Node000012"><a xlink:title=" ">
<path fill="none" stroke="#63b8ff" d="M553.91,-219.68C557.74,-180.76 568.34,-73.07 572.65,-29.33"/>
<polygon fill="#63b8ff" stroke="#63b8ff" points="576.14,-29.53 573.64,-19.23 569.18,-28.84 576.14,-29.53"/>
</a>
</g>
</g>
<!-- Node16 -->
<g id="Node000016" class="node">
<title>Node16</title>
<g id="a_Node000016"><a xlink:title=" ">
<polygon fill="#e0e0e0" stroke="#999999" points="667.5,-184 599.5,-184 599.5,-165 667.5,-165 667.5,-184"/>
<text text-anchor="middle" x="633.5" y="-172" font-family="Helvetica,sans-Serif" font-size="10.00">filesystem</text>
</a>
</g>
</g>
<!-- Node1&#45;&gt;Node16 -->
<g id="edge18_Node000001_Node000016" class="edge">
<title>Node1&#45;&gt;Node16</title>
<g id="a_edge18_Node000001_Node000016"><a xlink:title=" ">
<path fill="none" stroke="#63b8ff" d="M572.11,-219.84C584.47,-210.91 600.4,-199.41 612.93,-190.35"/>
<polygon fill="#63b8ff" stroke="#63b8ff" points="615.3,-192.96 621.36,-184.27 611.21,-187.28 615.3,-192.96"/>
</a>
</g>
</g>
<!-- Node3 -->
<g id="Node000003" class="node">
<title>Node3</title>
<g id="a_Node000003"><a xlink:href="ExtraDataContainer_8h.html" target="_top" xlink:title=" ">
<polygon fill="white" stroke="#666666" points="179,-129 0,-129 0,-110 179,-110 179,-129"/>
<text text-anchor="middle" x="89.5" y="-117" font-family="Helvetica,sans-Serif" font-size="10.00">Application/ExtraDataContainer.h</text>
</a>
</g>
</g>
<!-- Node2&#45;&gt;Node3 -->
<g id="edge2_Node000002_Node000003" class="edge">
<title>Node2&#45;&gt;Node3</title>
<g id="a_edge2_Node000002_Node000003"><a xlink:title=" ">
<path fill="none" stroke="#63b8ff" d="M308.57,-164.98C263.23,-155.78 190.89,-141.09 141.85,-131.13"/>
<polygon fill="#63b8ff" stroke="#63b8ff" points="142.26,-127.64 131.76,-129.08 140.87,-134.5 142.26,-127.64"/>
</a>
</g>
</g>
<!-- Node7 -->
<g id="Node000007" class="node">
<title>Node7</title>
<g id="a_Node000007"><a xlink:href="Primitive_8h.html" target="_top" xlink:title=" ">
<polygon fill="white" stroke="#666666" points="467.5,-129 339.5,-129 339.5,-110 467.5,-110 467.5,-129"/>
<text text-anchor="middle" x="403.5" y="-117" font-family="Helvetica,sans-Serif" font-size="10.00">Application/Primitive.h</text>
</a>
</g>
</g>
<!-- Node2&#45;&gt;Node7 -->
<g id="edge6_Node000002_Node000007" class="edge">
<title>Node2&#45;&gt;Node7</title>
<g id="a_edge6_Node000002_Node000007"><a xlink:title=" ">
<path fill="none" stroke="#63b8ff" d="M359.25,-164.75C366.97,-157.03 378.4,-145.6 387.72,-136.28"/>
<polygon fill="#63b8ff" stroke="#63b8ff" points="390.31,-138.64 394.91,-129.09 385.36,-133.69 390.31,-138.64"/>
</a>
</g>
</g>
<!-- Node2&#45;&gt;Node8 -->
<g id="edge13_Node000002_Node000008" class="edge">
<title>Node2&#45;&gt;Node8</title>
<g id="a_edge13_Node000002_Node000008"><a xlink:title=" ">
<path fill="none" stroke="#63b8ff" d="M405.75,-166.05C430.56,-159.99 458.29,-148.98 476.5,-129 487.51,-116.92 491.2,-98.39 492.32,-84.45"/>
<polygon fill="#63b8ff" stroke="#63b8ff" points="495.83,-84.21 492.76,-74.07 488.84,-83.92 495.83,-84.21"/>
</a>
</g>
</g>
<!-- Node14 -->
<g id="Node000014" class="node">
<title>Node14</title>
<g id="a_Node000014"><a xlink:title=" ">
<polygon fill="#e0e0e0" stroke="#999999" points="255.5,-129 197.5,-129 197.5,-110 255.5,-110 255.5,-129"/>
<text text-anchor="middle" x="226.5" y="-117" font-family="Helvetica,sans-Serif" font-size="10.00">memory</text>
</a>
</g>
</g>
<!-- Node2&#45;&gt;Node14 -->
<g id="edge14_Node000002_Node000014" class="edge">
<title>Node2&#45;&gt;Node14</title>
<g id="a_edge14_Node000002_Node000014"><a xlink:title=" ">
<path fill="none" stroke="#63b8ff" d="M330.58,-164.98C310.45,-156.38 279.12,-142.99 256.09,-133.15"/>
<polygon fill="#63b8ff" stroke="#63b8ff" points="257.36,-129.88 246.79,-129.17 254.6,-136.32 257.36,-129.88"/>
</a>
</g>
</g>
<!-- Node15 -->
<g id="Node000015" class="node">
<title>Node15</title>
<g id="a_Node000015"><a xlink:title=" ">
<polygon fill="#e0e0e0" stroke="#999999" points="321,-129 274,-129 274,-110 321,-110 321,-129"/>
<text text-anchor="middle" x="297.5" y="-117" font-family="Helvetica,sans-Serif" font-size="10.00">vector</text>
</a>
</g>
</g>
<!-- Node2&#45;&gt;Node15 -->
<g id="edge15_Node000002_Node000015" class="edge">
<title>Node2&#45;&gt;Node15</title>
<g id="a_edge15_Node000002_Node000015"><a xlink:title=" ">
<path fill="none" stroke="#63b8ff" d="M341.75,-164.75C334.03,-157.03 322.6,-145.6 313.28,-136.28"/>
<polygon fill="#63b8ff" stroke="#63b8ff" points="315.64,-133.69 306.09,-129.09 310.69,-138.64 315.64,-133.69"/>
</a>
</g>
</g>
<!-- Node4 -->
<g id="Node000004" class="node">
<title>Node4</title>
<g id="a_Node000004"><a xlink:title=" ">
<polygon fill="#e0e0e0" stroke="#999999" points="39,-74 4,-74 4,-55 39,-55 39,-74"/>
<text text-anchor="middle" x="21.5" y="-62" font-family="Helvetica,sans-Serif" font-size="10.00">any</text>
</a>
</g>
</g>
<!-- Node3&#45;&gt;Node4 -->
<g id="edge3_Node000003_Node000004" class="edge">
<title>Node3&#45;&gt;Node4</title>
<g id="a_edge3_Node000003_Node000004"><a xlink:title=" ">
<path fill="none" stroke="#63b8ff" d="M78.57,-109.98C68.42,-102.07 53.08,-90.11 40.85,-80.58"/>
<polygon fill="#63b8ff" stroke="#63b8ff" points="42.66,-77.56 32.62,-74.17 38.36,-83.08 42.66,-77.56"/>
</a>
</g>
</g>
<!-- Node5 -->
<g id="Node000005" class="node">
<title>Node5</title>
<g id="a_Node000005"><a xlink:title=" ">
<polygon fill="#e0e0e0" stroke="#999999" points="122,-74 57,-74 57,-55 122,-55 122,-74"/>
<text text-anchor="middle" x="89.5" y="-62" font-family="Helvetica,sans-Serif" font-size="10.00">typeindex</text>
</a>
</g>
</g>
<!-- Node3&#45;&gt;Node5 -->
<g id="edge4_Node000003_Node000005" class="edge">
<title>Node3&#45;&gt;Node5</title>
<g id="a_edge4_Node000003_Node000005"><a xlink:title=" ">
<path fill="none" stroke="#63b8ff" d="M89.5,-109.75C89.5,-102.8 89.5,-92.85 89.5,-84.13"/>
<polygon fill="#63b8ff" stroke="#63b8ff" points="93,-84.09 89.5,-74.09 86,-84.09 93,-84.09"/>
</a>
</g>
</g>
<!-- Node6 -->
<g id="Node000006" class="node">
<title>Node6</title>
<g id="a_Node000006"><a xlink:title=" ">
<polygon fill="#e0e0e0" stroke="#999999" points="233,-74 140,-74 140,-55 233,-55 233,-74"/>
<text text-anchor="middle" x="186.5" y="-62" font-family="Helvetica,sans-Serif" font-size="10.00">unordered_map</text>
</a>
</g>
</g>
<!-- Node3&#45;&gt;Node6 -->
<g id="edge5_Node000003_Node000006" class="edge">
<title>Node3&#45;&gt;Node6</title>
<g id="a_edge5_Node000003_Node000006"><a xlink:title=" ">
<path fill="none" stroke="#63b8ff" d="M105.08,-109.98C120.27,-101.69 143.6,-88.94 161.4,-79.22"/>
<polygon fill="#63b8ff" stroke="#63b8ff" points="163.53,-82.04 170.63,-74.17 160.18,-75.89 163.53,-82.04"/>
</a>
</g>
</g>
<!-- Node7&#45;&gt;Node8 -->
<g id="edge7_Node000007_Node000008" class="edge">
<title>Node7&#45;&gt;Node8</title>
<g id="a_edge7_Node000007_Node000008"><a xlink:title=" ">
<path fill="none" stroke="#63b8ff" d="M417.8,-109.98C431.6,-101.77 452.74,-89.18 469.01,-79.49"/>
<polygon fill="#63b8ff" stroke="#63b8ff" points="471.14,-82.29 477.94,-74.17 467.56,-76.28 471.14,-82.29"/>
</a>
</g>
</g>
<!-- Node13 -->
<g id="Node000013" class="node">
<title>Node13</title>
<g id="a_Node000013"><a xlink:title=" ">
<polygon fill="#e0e0e0" stroke="#999999" points="424.5,-74 382.5,-74 382.5,-55 424.5,-55 424.5,-74"/>
<text text-anchor="middle" x="403.5" y="-62" font-family="Helvetica,sans-Serif" font-size="10.00">array</text>
</a>
</g>
</g>
<!-- Node7&#45;&gt;Node13 -->
<g id="edge12_Node000007_Node000013" class="edge">
<title>Node7&#45;&gt;Node13</title>
<g id="a_edge12_Node000007_Node000013"><a xlink:title=" ">
<path fill="none" stroke="#63b8ff" d="M403.5,-109.75C403.5,-102.8 403.5,-92.85 403.5,-84.13"/>
<polygon fill="#63b8ff" stroke="#63b8ff" points="407,-84.09 403.5,-74.09 400,-84.09 407,-84.09"/>
</a>
</g>
</g>
<!-- Node9 -->
<g id="Node000009" class="node">
<title>Node9</title>
<g id="a_Node000009"><a xlink:title=" ">
<polygon fill="#e0e0e0" stroke="#999999" points="531.5,-19 453.5,-19 453.5,0 531.5,0 531.5,-19"/>
<text text-anchor="middle" x="492.5" y="-7" font-family="Helvetica,sans-Serif" font-size="10.00">glm/glm.hpp</text>
</a>
</g>
</g>
<!-- Node8&#45;&gt;Node9 -->
<g id="edge8_Node000008_Node000009" class="edge">
<title>Node8&#45;&gt;Node9</title>
<g id="a_edge8_Node000008_Node000009"><a xlink:title=" ">
<path fill="none" stroke="#63b8ff" d="M492.5,-54.75C492.5,-47.8 492.5,-37.85 492.5,-29.13"/>
<polygon fill="#63b8ff" stroke="#63b8ff" points="496,-29.09 492.5,-19.09 489,-29.09 496,-29.09"/>
</a>
</g>
</g>
<!-- Node10 -->
<g id="Node000010" class="node">
<title>Node10</title>
<g id="a_Node000010"><a xlink:title=" ">
<polygon fill="#e0e0e0" stroke="#999999" points="373,-19 232,-19 232,0 373,0 373,-19"/>
<text text-anchor="middle" x="302.5" y="-7" font-family="Helvetica,sans-Serif" font-size="10.00">glm/gtx/vector_angle.hpp</text>
</a>
</g>
</g>
<!-- Node8&#45;&gt;Node10 -->
<g id="edge9_Node000008_Node000010" class="edge">
<title>Node8&#45;&gt;Node10</title>
<g id="a_edge9_Node000008_Node000010"><a xlink:title=" ">
<path fill="none" stroke="#63b8ff" d="M461.97,-54.98C429.8,-46.01 378.94,-31.82 343.33,-21.89"/>
<polygon fill="#63b8ff" stroke="#63b8ff" points="343.84,-18.4 333.27,-19.08 341.96,-25.14 343.84,-18.4"/>
</a>
</g>
</g>
<!-- Node11 -->
<g id="Node000011" class="node">
<title>Node11</title>
<g id="a_Node000011"><a xlink:title=" ">
<polygon fill="#e0e0e0" stroke="#999999" points="435.5,-19 391.5,-19 391.5,0 435.5,0 435.5,-19"/>
<text text-anchor="middle" x="413.5" y="-7" font-family="Helvetica,sans-Serif" font-size="10.00">bitset</text>
</a>
</g>
</g>
<!-- Node8&#45;&gt;Node11 -->
<g id="edge10_Node000008_Node000011" class="edge">
<title>Node8&#45;&gt;Node11</title>
<g id="a_edge10_Node000008_Node000011"><a xlink:title=" ">
<path fill="none" stroke="#63b8ff" d="M479.81,-54.98C467.67,-46.84 449.14,-34.41 434.75,-24.76"/>
<polygon fill="#63b8ff" stroke="#63b8ff" points="436.68,-21.84 426.42,-19.17 432.78,-27.65 436.68,-21.84"/>
</a>
</g>
</g>
<!-- Node8&#45;&gt;Node12 -->
<g id="edge11_Node000008_Node000012" class="edge">
<title>Node8&#45;&gt;Node12</title>
<g id="a_edge11_Node000008_Node000012"><a xlink:title=" ">
<path fill="none" stroke="#63b8ff" d="M505.67,-54.98C518.27,-46.84 537.5,-34.41 552.44,-24.76"/>
<polygon fill="#63b8ff" stroke="#63b8ff" points="554.59,-27.54 561.09,-19.17 550.79,-21.66 554.59,-27.54"/>
</a>
</g>
</g>
</g>
</svg>
