<?xml version="1.0" encoding="UTF-8" standalone="no"?>
<!DOCTYPE svg PUBLIC "-//W3C//DTD SVG 1.1//EN"
 "http://www.w3.org/Graphics/SVG/1.1/DTD/svg11.dtd">
<!-- Generated by graphviz version 2.43.0 (0)
 -->
<!-- Title: App/Test/Source/MeshExporter_utest.cpp Pages: 1 -->
<svg width="1441pt" height="368pt"
 viewBox="0.00 0.00 1441.29 368.00" xmlns="http://www.w3.org/2000/svg" xmlns:xlink="http://www.w3.org/1999/xlink">
<g id="graph0" class="graph" transform="scale(1 1) rotate(0) translate(4 364)">
<title>App/Test/Source/MeshExporter_utest.cpp</title>
<!-- Node1 -->
<g id="Node000001" class="node">
<title>Node1</title>
<g id="a_Node000001"><a xlink:title=" ">
<polygon fill="#999999" stroke="#666666" points="976.79,-360 812.79,-360 812.79,-330 976.79,-330 976.79,-360"/>
<text text-anchor="start" x="820.79" y="-348" font-family="Helvetica,sans-Serif" font-size="10.00">App/Test/Source/MeshExporter</text>
<text text-anchor="middle" x="894.79" y="-337" font-family="Helvetica,sans-Serif" font-size="10.00">_utest.cpp</text>
</a>
</g>
</g>
<!-- Node2 -->
<g id="Node000002" class="node">
<title>Node2</title>
<g id="a_Node000002"><a xlink:href="ExtraDataType_8h.html" target="_top" xlink:title=" ">
<polygon fill="white" stroke="#666666" points="210.29,-184 55.29,-184 55.29,-165 210.29,-165 210.29,-184"/>
<text text-anchor="middle" x="132.79" y="-172" font-family="Helvetica,sans-Serif" font-size="10.00">Application/ExtraDataType.h</text>
</a>
</g>
</g>
<!-- Node1&#45;&gt;Node2 -->
<g id="edge1_Node000001_Node000002" class="edge">
<title>Node1&#45;&gt;Node2</title>
<g id="a_edge1_Node000001_Node000002"><a xlink:title=" ">
<path fill="none" stroke="#63b8ff" d="M812.52,-343.54C713.31,-341.2 542.25,-331.42 400.79,-294 305.97,-268.92 201.97,-214.41 156.4,-189.02"/>
<polygon fill="#63b8ff" stroke="#63b8ff" points="158.01,-185.91 147.58,-184.06 154.58,-192.02 158.01,-185.91"/>
</a>
</g>
</g>
<!-- Node11 -->
<g id="Node000011" class="node">
<title>Node11</title>
<g id="a_Node000011"><a xlink:href="MathHelpers_8h.html" target="_top" xlink:title=" ">
<polygon fill="white" stroke="#666666" points="967.79,-294 821.79,-294 821.79,-275 967.79,-275 967.79,-294"/>
<text text-anchor="middle" x="894.79" y="-282" font-family="Helvetica,sans-Serif" font-size="10.00">Application/MathHelpers.h</text>
</a>
</g>
</g>
<!-- Node1&#45;&gt;Node11 -->
<g id="edge10_Node000001_Node000011" class="edge">
<title>Node1&#45;&gt;Node11</title>
<g id="a_edge10_Node000001_Node000011"><a xlink:title=" ">
<path fill="none" stroke="#63b8ff" d="M894.79,-329.84C894.79,-322.21 894.79,-312.7 894.79,-304.45"/>
<polygon fill="#63b8ff" stroke="#63b8ff" points="898.29,-304.27 894.79,-294.27 891.29,-304.27 898.29,-304.27"/>
</a>
</g>
</g>
<!-- Node14 -->
<g id="Node000014" class="node">
<title>Node14</title>
<g id="a_Node000014"><a xlink:href="MeshExporter_8h.html" target="_top" xlink:title=" ">
<polygon fill="white" stroke="#666666" points="765.79,-239 615.79,-239 615.79,-220 765.79,-220 765.79,-239"/>
<text text-anchor="middle" x="690.79" y="-227" font-family="Helvetica,sans-Serif" font-size="10.00">Application/MeshExporter.h</text>
</a>
</g>
</g>
<!-- Node1&#45;&gt;Node14 -->
<g id="edge14_Node000001_Node000014" class="edge">
<title>Node1&#45;&gt;Node14</title>
<g id="a_edge14_Node000001_Node000014"><a xlink:title=" ">
<path fill="none" stroke="#63b8ff" d="M857.06,-329.92C834.14,-320.81 804.61,-308.04 779.79,-294 754.18,-279.51 726.96,-259.29 709.46,-245.59"/>
<polygon fill="#63b8ff" stroke="#63b8ff" points="711.27,-242.56 701.26,-239.09 706.92,-248.04 711.27,-242.56"/>
</a>
</g>
</g>
<!-- Node22 -->
<g id="Node000022" class="node">
<title>Node22</title>
<g id="a_Node000022"><a xlink:title=" ">
<polygon fill="#e0e0e0" stroke="#999999" points="819.79,-184 751.79,-184 751.79,-165 819.79,-165 819.79,-184"/>
<text text-anchor="middle" x="785.79" y="-172" font-family="Helvetica,sans-Serif" font-size="10.00">filesystem</text>
</a>
</g>
</g>
<!-- Node1&#45;&gt;Node22 -->
<g id="edge41_Node000001_Node000022" class="edge">
<title>Node1&#45;&gt;Node22</title>
<g id="a_edge41_Node000001_Node000022"><a xlink:title=" ">
<path fill="none" stroke="#63b8ff" d="M859.01,-330C842.6,-321.84 824.28,-309.97 812.79,-294 791.19,-263.98 786.51,-219.53 785.71,-194.47"/>
<polygon fill="#63b8ff" stroke="#63b8ff" points="789.2,-194.11 785.56,-184.16 782.2,-194.21 789.2,-194.11"/>
</a>
</g>
</g>
<!-- Node23 -->
<g id="Node000023" class="node">
<title>Node23</title>
<g id="a_Node000023"><a xlink:href="PrimitiveProxy_8h.html" target="_top" xlink:title=" ">
<polygon fill="white" stroke="#666666" points="597.79,-239 443.79,-239 443.79,-220 597.79,-220 597.79,-239"/>
<text text-anchor="middle" x="520.79" y="-227" font-family="Helvetica,sans-Serif" font-size="10.00">Application/PrimitiveProxy.h</text>
</a>
</g>
</g>
<!-- Node1&#45;&gt;Node23 -->
<g id="edge29_Node000001_Node000023" class="edge">
<title>Node1&#45;&gt;Node23</title>
<g id="a_edge29_Node000001_Node000023"><a xlink:title=" ">
<path fill="none" stroke="#63b8ff" d="M848.55,-329.97C773.86,-307.3 628.03,-263.05 558.9,-242.07"/>
<polygon fill="#63b8ff" stroke="#63b8ff" points="559.86,-238.7 549.27,-239.14 557.83,-245.4 559.86,-238.7"/>
</a>
</g>
</g>
<!-- Node24 -->
<g id="Node000024" class="node">
<title>Node24</title>
<g id="a_Node000024"><a xlink:href="TestHelpers_8h.html" target="_top" xlink:title=" ">
<polygon fill="white" stroke="#666666" points="549.79,-294 409.79,-294 409.79,-275 549.79,-275 549.79,-294"/>
<text text-anchor="middle" x="479.79" y="-282" font-family="Helvetica,sans-Serif" font-size="10.00">Application/TestHelpers.h</text>
</a>
</g>
</g>
<!-- Node1&#45;&gt;Node24 -->
<g id="edge32_Node000001_Node000024" class="edge">
<title>Node1&#45;&gt;Node24</title>
<g id="a_edge32_Node000001_Node000024"><a xlink:title=" ">
<path fill="none" stroke="#63b8ff" d="M812.3,-332.37C735.65,-321.57 622.73,-305.65 550.21,-295.43"/>
<polygon fill="#63b8ff" stroke="#63b8ff" points="550.65,-291.95 540.26,-294.02 549.67,-298.89 550.65,-291.95"/>
</a>
</g>
</g>
<!-- Node25 -->
<g id="Node000025" class="node">
<title>Node25</title>
<g id="a_Node000025"><a xlink:href="PrintHelpers_8h.html" target="_top" xlink:title=" ">
<polygon fill="white" stroke="#666666" points="1097.29,-294 986.29,-294 986.29,-275 1097.29,-275 1097.29,-294"/>
<text text-anchor="middle" x="1041.79" y="-282" font-family="Helvetica,sans-Serif" font-size="10.00">Core/PrintHelpers.h</text>
</a>
</g>
</g>
<!-- Node1&#45;&gt;Node25 -->
<g id="edge36_Node000001_Node000025" class="edge">
<title>Node1&#45;&gt;Node25</title>
<g id="a_edge36_Node000001_Node000025"><a xlink:title=" ">
<path fill="none" stroke="#63b8ff" d="M930,-329.99C954.52,-320.23 986.94,-307.33 1010.55,-297.93"/>
<polygon fill="#63b8ff" stroke="#63b8ff" points="1012.08,-301.09 1020.08,-294.14 1009.49,-294.58 1012.08,-301.09"/>
</a>
</g>
</g>
<!-- Node29 -->
<g id="Node000029" class="node">
<title>Node29</title>
<g id="a_Node000029"><a xlink:title=" ">
<polygon fill="#e0e0e0" stroke="#999999" points="1193.79,-294 1115.79,-294 1115.79,-275 1193.79,-275 1193.79,-294"/>
<text text-anchor="middle" x="1154.79" y="-282" font-family="Helvetica,sans-Serif" font-size="10.00">gtest/gtest.h</text>
</a>
</g>
</g>
<!-- Node1&#45;&gt;Node29 -->
<g id="edge40_Node000001_Node000029" class="edge">
<title>Node1&#45;&gt;Node29</title>
<g id="a_edge40_Node000001_Node000029"><a xlink:title=" ">
<path fill="none" stroke="#63b8ff" d="M957.06,-329.99C1003,-319.65 1064.6,-305.79 1106.76,-296.31"/>
<polygon fill="#63b8ff" stroke="#63b8ff" points="1107.78,-299.66 1116.77,-294.05 1106.25,-292.83 1107.78,-299.66"/>
</a>
</g>
</g>
<!-- Node30 -->
<g id="Node000030" class="node">
<title>Node30</title>
<g id="a_Node000030"><a xlink:title=" ">
<polygon fill="#e0e0e0" stroke="#999999" points="1267.29,-294 1212.29,-294 1212.29,-275 1267.29,-275 1267.29,-294"/>
<text text-anchor="middle" x="1239.79" y="-282" font-family="Helvetica,sans-Serif" font-size="10.00">fstream</text>
</a>
</g>
</g>
<!-- Node1&#45;&gt;Node30 -->
<g id="edge42_Node000001_Node000030" class="edge">
<title>Node1&#45;&gt;Node30</title>
<g id="a_edge42_Node000001_Node000030"><a xlink:title=" ">
<path fill="none" stroke="#63b8ff" d="M977.08,-332.12C1036.84,-323.16 1119.84,-309.99 1201.94,-294.06"/>
<polygon fill="#63b8ff" stroke="#63b8ff" points="1202.81,-297.45 1211.95,-292.1 1201.46,-290.58 1202.81,-297.45"/>
</a>
</g>
</g>
<!-- Node31 -->
<g id="Node000031" class="node">
<title>Node31</title>
<g id="a_Node000031"><a xlink:title=" ">
<polygon fill="#e0e0e0" stroke="#999999" points="1341.79,-294 1285.79,-294 1285.79,-275 1341.79,-275 1341.79,-294"/>
<text text-anchor="middle" x="1313.79" y="-282" font-family="Helvetica,sans-Serif" font-size="10.00">sstream</text>
</a>
</g>
</g>
<!-- Node1&#45;&gt;Node31 -->
<g id="edge43_Node000001_Node000031" class="edge">
<title>Node1&#45;&gt;Node31</title>
<g id="a_edge43_Node000001_Node000031"><a xlink:title=" ">
<path fill="none" stroke="#63b8ff" d="M977.11,-335.53C1052.36,-327.26 1166.9,-313.35 1275.42,-294.1"/>
<polygon fill="#63b8ff" stroke="#63b8ff" points="1276.34,-297.49 1285.56,-292.28 1275.1,-290.6 1276.34,-297.49"/>
</a>
</g>
</g>
<!-- Node32 -->
<g id="Node000032" class="node">
<title>Node32</title>
<g id="a_Node000032"><a xlink:title=" ">
<polygon fill="#e0e0e0" stroke="#999999" points="1433.29,-294 1360.29,-294 1360.29,-275 1433.29,-275 1433.29,-294"/>
<text text-anchor="middle" x="1396.79" y="-282" font-family="Helvetica,sans-Serif" font-size="10.00">string_view</text>
</a>
</g>
</g>
<!-- Node1&#45;&gt;Node32 -->
<g id="edge44_Node000001_Node000032" class="edge">
<title>Node1&#45;&gt;Node32</title>
<g id="a_edge44_Node000001_Node000032"><a xlink:title=" ">
<path fill="none" stroke="#63b8ff" d="M976.98,-336.82C1066.23,-328.61 1213.19,-313.88 1349.92,-294.02"/>
<polygon fill="#63b8ff" stroke="#63b8ff" points="1350.78,-297.43 1360.17,-292.52 1349.77,-290.5 1350.78,-297.43"/>
</a>
</g>
</g>
<!-- Node3 -->
<g id="Node000003" class="node">
<title>Node3</title>
<g id="a_Node000003"><a xlink:href="BaseType_8h.html" target="_top" xlink:title=" ">
<polygon fill="white" stroke="#666666" points="646.79,-74 548.79,-74 548.79,-55 646.79,-55 646.79,-74"/>
<text text-anchor="middle" x="597.79" y="-62" font-family="Helvetica,sans-Serif" font-size="10.00">Core/BaseType.h</text>
</a>
</g>
</g>
<!-- Node2&#45;&gt;Node3 -->
<g id="edge2_Node000002_Node000003" class="edge">
<title>Node2&#45;&gt;Node3</title>
<g id="a_edge2_Node000002_Node000003"><a xlink:title=" ">
<path fill="none" stroke="#63b8ff" d="M185.98,-164.93C226.16,-157.64 282.31,-145.67 329.79,-129 347.98,-122.61 350.5,-116.11 368.79,-110 424.97,-91.22 491.71,-79.37 538.6,-72.67"/>
<polygon fill="#63b8ff" stroke="#63b8ff" points="539.17,-76.12 548.59,-71.27 538.2,-69.19 539.17,-76.12"/>
</a>
</g>
</g>
<!-- Node8 -->
<g id="Node000008" class="node">
<title>Node8</title>
<g id="a_Node000008"><a xlink:title=" ">
<polygon fill="#e0e0e0" stroke="#999999" points="166.79,-74 124.79,-74 124.79,-55 166.79,-55 166.79,-74"/>
<text text-anchor="middle" x="145.79" y="-62" font-family="Helvetica,sans-Serif" font-size="10.00">array</text>
</a>
</g>
</g>
<!-- Node2&#45;&gt;Node8 -->
<g id="edge7_Node000002_Node000008" class="edge">
<title>Node2&#45;&gt;Node8</title>
<g id="a_edge7_Node000002_Node000008"><a xlink:title=" ">
<path fill="none" stroke="#63b8ff" d="M72.98,-164.94C30.37,-156.18 -15.82,-139.55 5.79,-110 9.12,-105.45 74.77,-85.92 114.97,-74.3"/>
<polygon fill="#63b8ff" stroke="#63b8ff" points="115.95,-77.66 124.59,-71.53 114.01,-70.93 115.95,-77.66"/>
</a>
</g>
</g>
<!-- Node9 -->
<g id="Node000009" class="node">
<title>Node9</title>
<g id="a_Node000009"><a xlink:title=" ">
<polygon fill="#e0e0e0" stroke="#999999" points="58.79,-129 14.79,-129 14.79,-110 58.79,-110 58.79,-129"/>
<text text-anchor="middle" x="36.79" y="-117" font-family="Helvetica,sans-Serif" font-size="10.00">string</text>
</a>
</g>
</g>
<!-- Node2&#45;&gt;Node9 -->
<g id="edge8_Node000002_Node000009" class="edge">
<title>Node2&#45;&gt;Node9</title>
<g id="a_edge8_Node000002_Node000009"><a xlink:title=" ">
<path fill="none" stroke="#63b8ff" d="M117.36,-164.98C102.34,-156.69 79.25,-143.94 61.63,-134.22"/>
<polygon fill="#63b8ff" stroke="#63b8ff" points="62.94,-130.94 52.49,-129.17 59.55,-137.07 62.94,-130.94"/>
</a>
</g>
</g>
<!-- Node10 -->
<g id="Node000010" class="node">
<title>Node10</title>
<g id="a_Node000010"><a xlink:title=" ">
<polygon fill="#e0e0e0" stroke="#999999" points="124.29,-129 77.29,-129 77.29,-110 124.29,-110 124.29,-129"/>
<text text-anchor="middle" x="100.79" y="-117" font-family="Helvetica,sans-Serif" font-size="10.00">vector</text>
</a>
</g>
</g>
<!-- Node2&#45;&gt;Node10 -->
<g id="edge9_Node000002_Node000010" class="edge">
<title>Node2&#45;&gt;Node10</title>
<g id="a_edge9_Node000002_Node000010"><a xlink:title=" ">
<path fill="none" stroke="#63b8ff" d="M127.5,-164.75C123.08,-157.42 116.62,-146.73 111.17,-137.7"/>
<polygon fill="#63b8ff" stroke="#63b8ff" points="114.14,-135.84 105.97,-129.09 108.15,-139.46 114.14,-135.84"/>
</a>
</g>
</g>
<!-- Node4 -->
<g id="Node000004" class="node">
<title>Node4</title>
<g id="a_Node000004"><a xlink:title=" ">
<polygon fill="#e0e0e0" stroke="#999999" points="458.79,-19 380.79,-19 380.79,0 458.79,0 458.79,-19"/>
<text text-anchor="middle" x="419.79" y="-7" font-family="Helvetica,sans-Serif" font-size="10.00">glm/glm.hpp</text>
</a>
</g>
</g>
<!-- Node3&#45;&gt;Node4 -->
<g id="edge3_Node000003_Node000004" class="edge">
<title>Node3&#45;&gt;Node4</title>
<g id="a_edge3_Node000003_Node000004"><a xlink:title=" ">
<path fill="none" stroke="#63b8ff" d="M569.19,-54.98C539.17,-46.05 491.81,-31.94 458.47,-22.02"/>
<polygon fill="#63b8ff" stroke="#63b8ff" points="459.19,-18.58 448.61,-19.08 457.2,-25.29 459.19,-18.58"/>
</a>
</g>
</g>
<!-- Node5 -->
<g id="Node000005" class="node">
<title>Node5</title>
<g id="a_Node000005"><a xlink:title=" ">
<polygon fill="#e0e0e0" stroke="#999999" points="618.29,-19 477.29,-19 477.29,0 618.29,0 618.29,-19"/>
<text text-anchor="middle" x="547.79" y="-7" font-family="Helvetica,sans-Serif" font-size="10.00">glm/gtx/vector_angle.hpp</text>
</a>
</g>
</g>
<!-- Node3&#45;&gt;Node5 -->
<g id="edge4_Node000003_Node000005" class="edge">
<title>Node3&#45;&gt;Node5</title>
<g id="a_edge4_Node000003_Node000005"><a xlink:title=" ">
<path fill="none" stroke="#63b8ff" d="M589.53,-54.75C582.32,-47.11 571.68,-35.82 562.94,-26.56"/>
<polygon fill="#63b8ff" stroke="#63b8ff" points="565.3,-23.96 555.89,-19.09 560.21,-28.76 565.3,-23.96"/>
</a>
</g>
</g>
<!-- Node6 -->
<g id="Node000006" class="node">
<title>Node6</title>
<g id="a_Node000006"><a xlink:title=" ">
<polygon fill="#e0e0e0" stroke="#999999" points="680.79,-19 636.79,-19 636.79,0 680.79,0 680.79,-19"/>
<text text-anchor="middle" x="658.79" y="-7" font-family="Helvetica,sans-Serif" font-size="10.00">bitset</text>
</a>
</g>
</g>
<!-- Node3&#45;&gt;Node6 -->
<g id="edge5_Node000003_Node000006" class="edge">
<title>Node3&#45;&gt;Node6</title>
<g id="a_edge5_Node000003_Node000006"><a xlink:title=" ">
<path fill="none" stroke="#63b8ff" d="M607.59,-54.98C616.61,-47.15 630.19,-35.34 641.11,-25.86"/>
<polygon fill="#63b8ff" stroke="#63b8ff" points="643.56,-28.37 648.81,-19.17 638.96,-23.09 643.56,-28.37"/>
</a>
</g>
</g>
<!-- Node7 -->
<g id="Node000007" class="node">
<title>Node7</title>
<g id="a_Node000007"><a xlink:title=" ">
<polygon fill="#e0e0e0" stroke="#999999" points="748.79,-19 698.79,-19 698.79,0 748.79,0 748.79,-19"/>
<text text-anchor="middle" x="723.79" y="-7" font-family="Helvetica,sans-Serif" font-size="10.00">cstdint</text>
</a>
</g>
</g>
<!-- Node3&#45;&gt;Node7 -->
<g id="edge6_Node000003_Node000007" class="edge">
<title>Node3&#45;&gt;Node7</title>
<g id="a_edge6_Node000003_Node000007"><a xlink:title=" ">
<path fill="none" stroke="#63b8ff" d="M618.03,-54.98C638.48,-46.38 670.32,-32.99 693.72,-23.15"/>
<polygon fill="#63b8ff" stroke="#63b8ff" points="695.31,-26.27 703.17,-19.17 692.6,-19.82 695.31,-26.27"/>
</a>
</g>
</g>
<!-- Node11&#45;&gt;Node3 -->
<g id="edge11_Node000011_Node000003" class="edge">
<title>Node11&#45;&gt;Node3</title>
<g id="a_edge11_Node000011_Node000003"><a xlink:title=" ">
<path fill="none" stroke="#63b8ff" d="M888.98,-274.77C883.15,-265.9 874.02,-251.69 866.79,-239 848.48,-206.88 855.8,-190.24 828.79,-165 777.34,-116.92 699.06,-89.94 648.15,-76.54"/>
<polygon fill="#63b8ff" stroke="#63b8ff" points="648.91,-73.12 638.35,-74.04 647.18,-79.91 648.91,-73.12"/>
</a>
</g>
</g>
<!-- Node12 -->
<g id="Node000012" class="node">
<title>Node12</title>
<g id="a_Node000012"><a xlink:title=" ">
<polygon fill="#e0e0e0" stroke="#999999" points="923.29,-239 876.29,-239 876.29,-220 923.29,-220 923.29,-239"/>
<text text-anchor="middle" x="899.79" y="-227" font-family="Helvetica,sans-Serif" font-size="10.00">cmath</text>
</a>
</g>
</g>
<!-- Node11&#45;&gt;Node12 -->
<g id="edge12_Node000011_Node000012" class="edge">
<title>Node11&#45;&gt;Node12</title>
<g id="a_edge12_Node000011_Node000012"><a xlink:title=" ">
<path fill="none" stroke="#63b8ff" d="M895.61,-274.75C896.27,-267.8 897.21,-257.85 898.03,-249.13"/>
<polygon fill="#63b8ff" stroke="#63b8ff" points="901.52,-249.37 898.98,-239.09 894.55,-248.72 901.52,-249.37"/>
</a>
</g>
</g>
<!-- Node13 -->
<g id="Node000013" class="node">
<title>Node13</title>
<g id="a_Node000013"><a xlink:title=" ">
<polygon fill="#e0e0e0" stroke="#999999" points="985.79,-239 941.79,-239 941.79,-220 985.79,-220 985.79,-239"/>
<text text-anchor="middle" x="963.79" y="-227" font-family="Helvetica,sans-Serif" font-size="10.00">limits</text>
</a>
</g>
</g>
<!-- Node11&#45;&gt;Node13 -->
<g id="edge13_Node000011_Node000013" class="edge">
<title>Node11&#45;&gt;Node13</title>
<g id="a_edge13_Node000011_Node000013"><a xlink:title=" ">
<path fill="none" stroke="#63b8ff" d="M905.87,-274.98C916.27,-267 932.05,-254.88 944.51,-245.31"/>
<polygon fill="#63b8ff" stroke="#63b8ff" points="946.7,-248.04 952.5,-239.17 942.44,-242.49 946.7,-248.04"/>
</a>
</g>
</g>
<!-- Node14&#45;&gt;Node3 -->
<g id="edge26_Node000014_Node000003" class="edge">
<title>Node14&#45;&gt;Node3</title>
<g id="a_edge26_Node000014_Node000003"><a xlink:title=" ">
<path fill="none" stroke="#63b8ff" d="M688.83,-219.85C683.91,-199.39 669.64,-147 644.79,-110 637.4,-99 626.85,-88.7 617.61,-80.78"/>
<polygon fill="#63b8ff" stroke="#63b8ff" points="619.58,-77.86 609.63,-74.22 615.14,-83.27 619.58,-77.86"/>
</a>
</g>
</g>
<!-- Node14&#45;&gt;Node7 -->
<g id="edge27_Node000014_Node000007" class="edge">
<title>Node14&#45;&gt;Node7</title>
<g id="a_edge27_Node000014_Node000007"><a xlink:title=" ">
<path fill="none" stroke="#63b8ff" d="M692.08,-219.95C696.94,-187.88 714.15,-74.2 720.97,-29.12"/>
<polygon fill="#63b8ff" stroke="#63b8ff" points="724.43,-29.63 722.47,-19.22 717.51,-28.59 724.43,-29.63"/>
</a>
</g>
</g>
<!-- Node15 -->
<g id="Node000015" class="node">
<title>Node15</title>
<g id="a_Node000015"><a xlink:href="Mesh_8h.html" target="_top" xlink:title=" ">
<polygon fill="white" stroke="#666666" points="535.79,-184 425.79,-184 425.79,-165 535.79,-165 535.79,-184"/>
<text text-anchor="middle" x="480.79" y="-172" font-family="Helvetica,sans-Serif" font-size="10.00">Application/Mesh.h</text>
</a>
</g>
</g>
<!-- Node14&#45;&gt;Node15 -->
<g id="edge15_Node000014_Node000015" class="edge">
<title>Node14&#45;&gt;Node15</title>
<g id="a_edge15_Node000014_Node000015"><a xlink:title=" ">
<path fill="none" stroke="#63b8ff" d="M657.05,-219.98C621.1,-210.91 564.07,-196.52 524.66,-186.57"/>
<polygon fill="#63b8ff" stroke="#63b8ff" points="525.34,-183.14 514.79,-184.08 523.63,-189.92 525.34,-183.14"/>
</a>
</g>
</g>
<!-- Node14&#45;&gt;Node22 -->
<g id="edge28_Node000014_Node000022" class="edge">
<title>Node14&#45;&gt;Node22</title>
<g id="a_edge28_Node000014_Node000022"><a xlink:title=" ">
<path fill="none" stroke="#63b8ff" d="M706.05,-219.98C720.92,-211.69 743.77,-198.94 761.2,-189.22"/>
<polygon fill="#63b8ff" stroke="#63b8ff" points="763.22,-192.1 770.25,-184.17 759.81,-185.99 763.22,-192.1"/>
</a>
</g>
</g>
<!-- Node15&#45;&gt;Node3 -->
<g id="edge23_Node000015_Node000003" class="edge">
<title>Node15&#45;&gt;Node3</title>
<g id="a_edge23_Node000015_Node000003"><a xlink:title=" ">
<path fill="none" stroke="#63b8ff" d="M490.36,-164.66C510.17,-146.38 555.88,-104.18 580.82,-81.17"/>
<polygon fill="#63b8ff" stroke="#63b8ff" points="583.43,-83.51 588.41,-74.16 578.69,-78.37 583.43,-83.51"/>
</a>
</g>
</g>
<!-- Node15&#45;&gt;Node10 -->
<g id="edge25_Node000015_Node000010" class="edge">
<title>Node15&#45;&gt;Node10</title>
<g id="a_edge25_Node000015_Node000010"><a xlink:title=" ">
<path fill="none" stroke="#63b8ff" d="M425.58,-168.72C358.73,-162.42 242.6,-149.87 134.56,-129.13"/>
<polygon fill="#63b8ff" stroke="#63b8ff" points="134.96,-125.64 124.47,-127.17 133.62,-132.51 134.96,-125.64"/>
</a>
</g>
</g>
<!-- Node16 -->
<g id="Node000016" class="node">
<title>Node16</title>
<g id="a_Node000016"><a xlink:href="ExtraDataContainer_8h.html" target="_top" xlink:title=" ">
<polygon fill="white" stroke="#666666" points="321.29,-129 142.29,-129 142.29,-110 321.29,-110 321.29,-129"/>
<text text-anchor="middle" x="231.79" y="-117" font-family="Helvetica,sans-Serif" font-size="10.00">Application/ExtraDataContainer.h</text>
</a>
</g>
</g>
<!-- Node15&#45;&gt;Node16 -->
<g id="edge16_Node000015_Node000016" class="edge">
<title>Node15&#45;&gt;Node16</title>
<g id="a_edge16_Node000015_Node000016"><a xlink:title=" ">
<path fill="none" stroke="#63b8ff" d="M440.78,-164.98C397.62,-155.8 328.81,-141.15 282.03,-131.19"/>
<polygon fill="#63b8ff" stroke="#63b8ff" points="282.62,-127.74 272.11,-129.08 281.16,-134.59 282.62,-127.74"/>
</a>
</g>
</g>
<!-- Node20 -->
<g id="Node000020" class="node">
<title>Node20</title>
<g id="a_Node000020"><a xlink:href="Primitive_8h.html" target="_top" xlink:title=" ">
<polygon fill="white" stroke="#666666" points="505.79,-129 377.79,-129 377.79,-110 505.79,-110 505.79,-129"/>
<text text-anchor="middle" x="441.79" y="-117" font-family="Helvetica,sans-Serif" font-size="10.00">Application/Primitive.h</text>
</a>
</g>
</g>
<!-- Node15&#45;&gt;Node20 -->
<g id="edge20_Node000015_Node000020" class="edge">
<title>Node15&#45;&gt;Node20</title>
<g id="a_edge20_Node000015_Node000020"><a xlink:title=" ">
<path fill="none" stroke="#63b8ff" d="M474.35,-164.75C468.9,-157.34 460.92,-146.5 454.23,-137.41"/>
<polygon fill="#63b8ff" stroke="#63b8ff" points="456.85,-135.07 448.11,-129.09 451.22,-139.22 456.85,-135.07"/>
</a>
</g>
</g>
<!-- Node21 -->
<g id="Node000021" class="node">
<title>Node21</title>
<g id="a_Node000021"><a xlink:title=" ">
<polygon fill="#e0e0e0" stroke="#999999" points="619.79,-129 561.79,-129 561.79,-110 619.79,-110 619.79,-129"/>
<text text-anchor="middle" x="590.79" y="-117" font-family="Helvetica,sans-Serif" font-size="10.00">memory</text>
</a>
</g>
</g>
<!-- Node15&#45;&gt;Node21 -->
<g id="edge24_Node000015_Node000021" class="edge">
<title>Node15&#45;&gt;Node21</title>
<g id="a_edge24_Node000015_Node000021"><a xlink:title=" ">
<path fill="none" stroke="#63b8ff" d="M498.46,-164.98C516.08,-156.5 543.37,-143.35 563.71,-133.54"/>
<polygon fill="#63b8ff" stroke="#63b8ff" points="565.3,-136.66 572.79,-129.17 562.26,-130.36 565.3,-136.66"/>
</a>
</g>
</g>
<!-- Node17 -->
<g id="Node000017" class="node">
<title>Node17</title>
<g id="a_Node000017"><a xlink:title=" ">
<polygon fill="#e0e0e0" stroke="#999999" points="331.29,-74 296.29,-74 296.29,-55 331.29,-55 331.29,-74"/>
<text text-anchor="middle" x="313.79" y="-62" font-family="Helvetica,sans-Serif" font-size="10.00">any</text>
</a>
</g>
</g>
<!-- Node16&#45;&gt;Node17 -->
<g id="edge17_Node000016_Node000017" class="edge">
<title>Node16&#45;&gt;Node17</title>
<g id="a_edge17_Node000016_Node000017"><a xlink:title=" ">
<path fill="none" stroke="#63b8ff" d="M244.96,-109.98C257.56,-101.84 276.79,-89.41 291.73,-79.76"/>
<polygon fill="#63b8ff" stroke="#63b8ff" points="293.87,-82.54 300.37,-74.17 290.07,-76.66 293.87,-82.54"/>
</a>
</g>
</g>
<!-- Node18 -->
<g id="Node000018" class="node">
<title>Node18</title>
<g id="a_Node000018"><a xlink:title=" ">
<polygon fill="#e0e0e0" stroke="#999999" points="106.29,-74 41.29,-74 41.29,-55 106.29,-55 106.29,-74"/>
<text text-anchor="middle" x="73.79" y="-62" font-family="Helvetica,sans-Serif" font-size="10.00">typeindex</text>
</a>
</g>
</g>
<!-- Node16&#45;&gt;Node18 -->
<g id="edge18_Node000016_Node000018" class="edge">
<title>Node16&#45;&gt;Node18</title>
<g id="a_edge18_Node000016_Node000018"><a xlink:title=" ">
<path fill="none" stroke="#63b8ff" d="M206.4,-109.98C179.99,-101.13 138.44,-87.19 108.89,-77.28"/>
<polygon fill="#63b8ff" stroke="#63b8ff" points="109.97,-73.94 99.37,-74.08 107.74,-80.58 109.97,-73.94"/>
</a>
</g>
</g>
<!-- Node19 -->
<g id="Node000019" class="node">
<title>Node19</title>
<g id="a_Node000019"><a xlink:title=" ">
<polygon fill="#e0e0e0" stroke="#999999" points="278.29,-74 185.29,-74 185.29,-55 278.29,-55 278.29,-74"/>
<text text-anchor="middle" x="231.79" y="-62" font-family="Helvetica,sans-Serif" font-size="10.00">unordered_map</text>
</a>
</g>
</g>
<!-- Node16&#45;&gt;Node19 -->
<g id="edge19_Node000016_Node000019" class="edge">
<title>Node16&#45;&gt;Node19</title>
<g id="a_edge19_Node000016_Node000019"><a xlink:title=" ">
<path fill="none" stroke="#63b8ff" d="M231.79,-109.75C231.79,-102.8 231.79,-92.85 231.79,-84.13"/>
<polygon fill="#63b8ff" stroke="#63b8ff" points="235.29,-84.09 231.79,-74.09 228.29,-84.09 235.29,-84.09"/>
</a>
</g>
</g>
<!-- Node20&#45;&gt;Node3 -->
<g id="edge21_Node000020_Node000003" class="edge">
<title>Node20&#45;&gt;Node3</title>
<g id="a_edge21_Node000020_Node000003"><a xlink:title=" ">
<path fill="none" stroke="#63b8ff" d="M466.85,-109.98C492.82,-101.16 533.6,-87.31 562.74,-77.41"/>
<polygon fill="#63b8ff" stroke="#63b8ff" points="564.18,-80.61 572.53,-74.08 561.93,-73.99 564.18,-80.61"/>
</a>
</g>
</g>
<!-- Node20&#45;&gt;Node8 -->
<g id="edge22_Node000020_Node000008" class="edge">
<title>Node20&#45;&gt;Node8</title>
<g id="a_edge22_Node000020_Node000008"><a xlink:title=" ">
<path fill="none" stroke="#63b8ff" d="M378.79,-109.96C326.98,-102.49 251.48,-90.55 177.04,-74.07"/>
<polygon fill="#63b8ff" stroke="#63b8ff" points="177.54,-70.6 167.02,-71.83 176.01,-77.43 177.54,-70.6"/>
</a>
</g>
</g>
<!-- Node23&#45;&gt;Node3 -->
<g id="edge31_Node000023_Node000003" class="edge">
<title>Node23&#45;&gt;Node3</title>
<g id="a_edge31_Node000023_Node000003"><a xlink:title=" ">
<path fill="none" stroke="#63b8ff" d="M536.33,-219.99C561.36,-205.28 609.75,-172.43 628.79,-129 635.98,-112.59 624.88,-94.25 614.02,-81.51"/>
<polygon fill="#63b8ff" stroke="#63b8ff" points="616.46,-79 607.11,-74.02 611.32,-83.74 616.46,-79"/>
</a>
</g>
</g>
<!-- Node23&#45;&gt;Node15 -->
<g id="edge30_Node000023_Node000015" class="edge">
<title>Node23&#45;&gt;Node15</title>
<g id="a_edge30_Node000023_Node000015"><a xlink:title=" ">
<path fill="none" stroke="#63b8ff" d="M514.18,-219.75C508.53,-212.26 500.24,-201.28 493.34,-192.13"/>
<polygon fill="#63b8ff" stroke="#63b8ff" points="496.09,-189.96 487.27,-184.09 490.5,-194.18 496.09,-189.96"/>
</a>
</g>
</g>
<!-- Node24&#45;&gt;Node2 -->
<g id="edge33_Node000024_Node000002" class="edge">
<title>Node24&#45;&gt;Node2</title>
<g id="a_edge33_Node000024_Node000002"><a xlink:title=" ">
<path fill="none" stroke="#63b8ff" d="M452.27,-274.94C390.39,-255.68 240.22,-208.94 170.06,-187.1"/>
<polygon fill="#63b8ff" stroke="#63b8ff" points="170.9,-183.7 160.31,-184.07 168.82,-190.38 170.9,-183.7"/>
</a>
</g>
</g>
<!-- Node24&#45;&gt;Node15 -->
<g id="edge34_Node000024_Node000015" class="edge">
<title>Node24&#45;&gt;Node15</title>
<g id="a_edge34_Node000024_Node000015"><a xlink:title=" ">
<path fill="none" stroke="#63b8ff" d="M466.35,-274.99C449.98,-263.45 425.56,-241.77 434.79,-220 439.77,-208.25 449.54,-198.09 458.8,-190.45"/>
<polygon fill="#63b8ff" stroke="#63b8ff" points="461.19,-193.03 467,-184.18 456.93,-187.47 461.19,-193.03"/>
</a>
</g>
</g>
<!-- Node24&#45;&gt;Node23 -->
<g id="edge35_Node000024_Node000023" class="edge">
<title>Node24&#45;&gt;Node23</title>
<g id="a_edge35_Node000024_Node000023"><a xlink:title=" ">
<path fill="none" stroke="#63b8ff" d="M486.56,-274.75C492.35,-267.26 500.85,-256.28 507.92,-247.13"/>
<polygon fill="#63b8ff" stroke="#63b8ff" points="510.79,-249.14 514.14,-239.09 505.26,-244.86 510.79,-249.14"/>
</a>
</g>
</g>
<!-- Node26 -->
<g id="Node000026" class="node">
<title>Node26</title>
<g id="a_Node000026"><a xlink:title=" ">
<polygon fill="#e0e0e0" stroke="#999999" points="1053.79,-239 1003.79,-239 1003.79,-220 1053.79,-220 1053.79,-239"/>
<text text-anchor="middle" x="1028.79" y="-227" font-family="Helvetica,sans-Serif" font-size="10.00">format</text>
</a>
</g>
</g>
<!-- Node25&#45;&gt;Node26 -->
<g id="edge37_Node000025_Node000026" class="edge">
<title>Node25&#45;&gt;Node26</title>
<g id="a_edge37_Node000025_Node000026"><a xlink:title=" ">
<path fill="none" stroke="#63b8ff" d="M1039.64,-274.75C1037.92,-267.72 1035.44,-257.62 1033.29,-248.84"/>
<polygon fill="#63b8ff" stroke="#63b8ff" points="1036.68,-247.97 1030.89,-239.09 1029.88,-249.63 1036.68,-247.97"/>
</a>
</g>
</g>
<!-- Node27 -->
<g id="Node000027" class="node">
<title>Node27</title>
<g id="a_Node000027"><a xlink:title=" ">
<polygon fill="#e0e0e0" stroke="#999999" points="1131.79,-239 1071.79,-239 1071.79,-220 1131.79,-220 1131.79,-239"/>
<text text-anchor="middle" x="1101.79" y="-227" font-family="Helvetica,sans-Serif" font-size="10.00">iostream</text>
</a>
</g>
</g>
<!-- Node25&#45;&gt;Node27 -->
<g id="edge38_Node000025_Node000027" class="edge">
<title>Node25&#45;&gt;Node27</title>
<g id="a_edge38_Node000025_Node000027"><a xlink:title=" ">
<path fill="none" stroke="#63b8ff" d="M1051.43,-274.98C1060.3,-267.15 1073.66,-255.34 1084.4,-245.86"/>
<polygon fill="#63b8ff" stroke="#63b8ff" points="1086.79,-248.41 1091.97,-239.17 1082.16,-243.17 1086.79,-248.41"/>
</a>
</g>
</g>
<!-- Node28 -->
<g id="Node000028" class="node">
<title>Node28</title>
<g id="a_Node000028"><a xlink:title=" ">
<polygon fill="#e0e0e0" stroke="#999999" points="1243.29,-239 1150.29,-239 1150.29,-220 1243.29,-220 1243.29,-239"/>
<text text-anchor="middle" x="1196.79" y="-227" font-family="Helvetica,sans-Serif" font-size="10.00">source_location</text>
</a>
</g>
</g>
<!-- Node25&#45;&gt;Node28 -->
<g id="edge39_Node000025_Node000028" class="edge">
<title>Node25&#45;&gt;Node28</title>
<g id="a_edge39_Node000025_Node000028"><a xlink:title=" ">
<path fill="none" stroke="#63b8ff" d="M1066.69,-274.98C1092.49,-266.16 1133.01,-252.31 1161.97,-242.41"/>
<polygon fill="#63b8ff" stroke="#63b8ff" points="1163.36,-245.63 1171.69,-239.08 1161.09,-239.01 1163.36,-245.63"/>
</a>
</g>
</g>
</g>
</svg>
