<?xml version="1.0" encoding="UTF-8" standalone="no"?>
<!DOCTYPE svg PUBLIC "-//W3C//DTD SVG 1.1//EN"
 "http://www.w3.org/Graphics/SVG/1.1/DTD/svg11.dtd">
<!-- Generated by graphviz version 2.43.0 (0)
 -->
<!-- Title: App/Include/Application/MeshLoader.h Pages: 1 -->
<svg width="570pt" height="258pt"
 viewBox="0.00 0.00 570.00 258.00" xmlns="http://www.w3.org/2000/svg" xmlns:xlink="http://www.w3.org/1999/xlink">
<g id="graph0" class="graph" transform="scale(1 1) rotate(0) translate(4 254)">
<title>App/Include/Application/MeshLoader.h</title>
<!-- Node1 -->
<g id="Node000001" class="node">
<title>Node1</title>
<g id="a_Node000001"><a xlink:title=" ">
<polygon fill="#999999" stroke="#666666" points="475,-250 344,-250 344,-220 475,-220 475,-250"/>
<text text-anchor="start" x="352" y="-238" font-family="Helvetica,sans-Serif" font-size="10.00">App/Include/Application</text>
<text text-anchor="middle" x="409.5" y="-227" font-family="Helvetica,sans-Serif" font-size="10.00">/MeshLoader.h</text>
</a>
</g>
</g>
<!-- Node2 -->
<g id="Node000002" class="node">
<title>Node2</title>
<g id="a_Node000002"><a xlink:href="Mesh_8h.html" target="_top" xlink:title=" ">
<polygon fill="white" stroke="#666666" points="411.5,-184 301.5,-184 301.5,-165 411.5,-165 411.5,-184"/>
<text text-anchor="middle" x="356.5" y="-172" font-family="Helvetica,sans-Serif" font-size="10.00">Application/Mesh.h</text>
</a>
</g>
</g>
<!-- Node1&#45;&gt;Node2 -->
<g id="edge1_Node000001_Node000002" class="edge">
<title>Node1&#45;&gt;Node2</title>
<g id="a_edge1_Node000001_Node000002"><a xlink:title=" ">
<path fill="none" stroke="#63b8ff" d="M396.67,-219.84C388.98,-211.35 379.17,-200.52 371.17,-191.69"/>
<polygon fill="#63b8ff" stroke="#63b8ff" points="373.75,-189.33 364.44,-184.27 368.56,-194.03 373.75,-189.33"/>
</a>
</g>
</g>
<!-- Node15 -->
<g id="Node000015" class="node">
<title>Node15</title>
<g id="a_Node000015"><a xlink:title=" ">
<polygon fill="#e0e0e0" stroke="#999999" points="497.5,-184 429.5,-184 429.5,-165 497.5,-165 497.5,-184"/>
<text text-anchor="middle" x="463.5" y="-172" font-family="Helvetica,sans-Serif" font-size="10.00">filesystem</text>
</a>
</g>
</g>
<!-- Node1&#45;&gt;Node15 -->
<g id="edge15_Node000001_Node000015" class="edge">
<title>Node1&#45;&gt;Node15</title>
<g id="a_edge15_Node000001_Node000015"><a xlink:title=" ">
<path fill="none" stroke="#63b8ff" d="M422.57,-219.84C430.41,-211.35 440.41,-200.52 448.56,-191.69"/>
<polygon fill="#63b8ff" stroke="#63b8ff" points="451.2,-193.99 455.41,-184.27 446.05,-189.24 451.2,-193.99"/>
</a>
</g>
</g>
<!-- Node3 -->
<g id="Node000003" class="node">
<title>Node3</title>
<g id="a_Node000003"><a xlink:href="BaseType_8h.html" target="_top" xlink:title=" ">
<polygon fill="white" stroke="#666666" points="377.5,-74 247.5,-74 247.5,-55 377.5,-55 377.5,-74"/>
<text text-anchor="middle" x="312.5" y="-62" font-family="Helvetica,sans-Serif" font-size="10.00">Application/BaseType.h</text>
</a>
</g>
</g>
<!-- Node2&#45;&gt;Node3 -->
<g id="edge2_Node000002_Node000003" class="edge">
<title>Node2&#45;&gt;Node3</title>
<g id="a_edge2_Node000002_Node000003"><a xlink:title=" ">
<path fill="none" stroke="#63b8ff" d="M329.93,-164.94C313.37,-158.06 293.38,-146.6 283.5,-129 274.84,-113.57 285.49,-95.08 296.24,-82.05"/>
<polygon fill="#63b8ff" stroke="#63b8ff" points="299.07,-84.14 303.12,-74.35 293.85,-79.48 299.07,-84.14"/>
</a>
</g>
</g>
<!-- Node7 -->
<g id="Node000007" class="node">
<title>Node7</title>
<g id="a_Node000007"><a xlink:href="ExtraDataContainer_8h.html" target="_top" xlink:title=" ">
<polygon fill="white" stroke="#666666" points="228,-129 49,-129 49,-110 228,-110 228,-129"/>
<text text-anchor="middle" x="138.5" y="-117" font-family="Helvetica,sans-Serif" font-size="10.00">Application/ExtraDataContainer.h</text>
</a>
</g>
</g>
<!-- Node2&#45;&gt;Node7 -->
<g id="edge6_Node000002_Node000007" class="edge">
<title>Node2&#45;&gt;Node7</title>
<g id="a_edge6_Node000002_Node000007"><a xlink:title=" ">
<path fill="none" stroke="#63b8ff" d="M321.47,-164.98C284,-155.87 224.45,-141.4 183.52,-131.45"/>
<polygon fill="#63b8ff" stroke="#63b8ff" points="184.34,-128.04 173.8,-129.08 182.69,-134.85 184.34,-128.04"/>
</a>
</g>
</g>
<!-- Node11 -->
<g id="Node000011" class="node">
<title>Node11</title>
<g id="a_Node000011"><a xlink:href="Primitive_8h.html" target="_top" xlink:title=" ">
<polygon fill="white" stroke="#666666" points="420.5,-129 292.5,-129 292.5,-110 420.5,-110 420.5,-129"/>
<text text-anchor="middle" x="356.5" y="-117" font-family="Helvetica,sans-Serif" font-size="10.00">Application/Primitive.h</text>
</a>
</g>
</g>
<!-- Node2&#45;&gt;Node11 -->
<g id="edge10_Node000002_Node000011" class="edge">
<title>Node2&#45;&gt;Node11</title>
<g id="a_edge10_Node000002_Node000011"><a xlink:title=" ">
<path fill="none" stroke="#63b8ff" d="M356.5,-164.75C356.5,-157.8 356.5,-147.85 356.5,-139.13"/>
<polygon fill="#63b8ff" stroke="#63b8ff" points="360,-139.09 356.5,-129.09 353,-139.09 360,-139.09"/>
</a>
</g>
</g>
<!-- Node13 -->
<g id="Node000013" class="node">
<title>Node13</title>
<g id="a_Node000013"><a xlink:title=" ">
<polygon fill="#e0e0e0" stroke="#999999" points="496.5,-129 438.5,-129 438.5,-110 496.5,-110 496.5,-129"/>
<text text-anchor="middle" x="467.5" y="-117" font-family="Helvetica,sans-Serif" font-size="10.00">memory</text>
</a>
</g>
</g>
<!-- Node2&#45;&gt;Node13 -->
<g id="edge13_Node000002_Node000013" class="edge">
<title>Node2&#45;&gt;Node13</title>
<g id="a_edge13_Node000002_Node000013"><a xlink:title=" ">
<path fill="none" stroke="#63b8ff" d="M374.33,-164.98C392.11,-156.5 419.65,-143.35 440.18,-133.54"/>
<polygon fill="#63b8ff" stroke="#63b8ff" points="441.83,-136.64 449.34,-129.17 438.81,-130.32 441.83,-136.64"/>
</a>
</g>
</g>
<!-- Node14 -->
<g id="Node000014" class="node">
<title>Node14</title>
<g id="a_Node000014"><a xlink:title=" ">
<polygon fill="#e0e0e0" stroke="#999999" points="562,-129 515,-129 515,-110 562,-110 562,-129"/>
<text text-anchor="middle" x="538.5" y="-117" font-family="Helvetica,sans-Serif" font-size="10.00">vector</text>
</a>
</g>
</g>
<!-- Node2&#45;&gt;Node14 -->
<g id="edge14_Node000002_Node000014" class="edge">
<title>Node2&#45;&gt;Node14</title>
<g id="a_edge14_Node000002_Node000014"><a xlink:title=" ">
<path fill="none" stroke="#63b8ff" d="M385.74,-164.98C418.25,-155.52 470.67,-140.25 504.86,-130.3"/>
<polygon fill="#63b8ff" stroke="#63b8ff" points="506.22,-133.55 514.84,-127.39 504.26,-126.83 506.22,-133.55"/>
</a>
</g>
</g>
<!-- Node4 -->
<g id="Node000004" class="node">
<title>Node4</title>
<g id="a_Node000004"><a xlink:title=" ">
<polygon fill="#e0e0e0" stroke="#999999" points="272.5,-19 194.5,-19 194.5,0 272.5,0 272.5,-19"/>
<text text-anchor="middle" x="233.5" y="-7" font-family="Helvetica,sans-Serif" font-size="10.00">glm/glm.hpp</text>
</a>
</g>
</g>
<!-- Node3&#45;&gt;Node4 -->
<g id="edge3_Node000003_Node000004" class="edge">
<title>Node3&#45;&gt;Node4</title>
<g id="a_edge3_Node000003_Node000004"><a xlink:title=" ">
<path fill="none" stroke="#63b8ff" d="M299.81,-54.98C287.67,-46.84 269.14,-34.41 254.75,-24.76"/>
<polygon fill="#63b8ff" stroke="#63b8ff" points="256.68,-21.84 246.42,-19.17 252.78,-27.65 256.68,-21.84"/>
</a>
</g>
</g>
<!-- Node5 -->
<g id="Node000005" class="node">
<title>Node5</title>
<g id="a_Node000005"><a xlink:title=" ">
<polygon fill="#e0e0e0" stroke="#999999" points="334.5,-19 290.5,-19 290.5,0 334.5,0 334.5,-19"/>
<text text-anchor="middle" x="312.5" y="-7" font-family="Helvetica,sans-Serif" font-size="10.00">bitset</text>
</a>
</g>
</g>
<!-- Node3&#45;&gt;Node5 -->
<g id="edge4_Node000003_Node000005" class="edge">
<title>Node3&#45;&gt;Node5</title>
<g id="a_edge4_Node000003_Node000005"><a xlink:title=" ">
<path fill="none" stroke="#63b8ff" d="M312.5,-54.75C312.5,-47.8 312.5,-37.85 312.5,-29.13"/>
<polygon fill="#63b8ff" stroke="#63b8ff" points="316,-29.09 312.5,-19.09 309,-29.09 316,-29.09"/>
</a>
</g>
</g>
<!-- Node6 -->
<g id="Node000006" class="node">
<title>Node6</title>
<g id="a_Node000006"><a xlink:title=" ">
<polygon fill="#e0e0e0" stroke="#999999" points="402.5,-19 352.5,-19 352.5,0 402.5,0 402.5,-19"/>
<text text-anchor="middle" x="377.5" y="-7" font-family="Helvetica,sans-Serif" font-size="10.00">cstdint</text>
</a>
</g>
</g>
<!-- Node3&#45;&gt;Node6 -->
<g id="edge5_Node000003_Node000006" class="edge">
<title>Node3&#45;&gt;Node6</title>
<g id="a_edge5_Node000003_Node000006"><a xlink:title=" ">
<path fill="none" stroke="#63b8ff" d="M322.94,-54.98C332.65,-47.07 347.32,-35.11 359,-25.58"/>
<polygon fill="#63b8ff" stroke="#63b8ff" points="361.33,-28.2 366.87,-19.17 356.9,-22.78 361.33,-28.2"/>
</a>
</g>
</g>
<!-- Node8 -->
<g id="Node000008" class="node">
<title>Node8</title>
<g id="a_Node000008"><a xlink:title=" ">
<polygon fill="#e0e0e0" stroke="#999999" points="35,-74 0,-74 0,-55 35,-55 35,-74"/>
<text text-anchor="middle" x="17.5" y="-62" font-family="Helvetica,sans-Serif" font-size="10.00">any</text>
</a>
</g>
</g>
<!-- Node7&#45;&gt;Node8 -->
<g id="edge7_Node000007_Node000008" class="edge">
<title>Node7&#45;&gt;Node8</title>
<g id="a_edge7_Node000007_Node000008"><a xlink:title=" ">
<path fill="none" stroke="#63b8ff" d="M119.06,-109.98C98.92,-101.17 67.3,-87.31 44.69,-77.41"/>
<polygon fill="#63b8ff" stroke="#63b8ff" points="45.88,-74.11 35.32,-73.3 43.07,-80.52 45.88,-74.11"/>
</a>
</g>
</g>
<!-- Node9 -->
<g id="Node000009" class="node">
<title>Node9</title>
<g id="a_Node000009"><a xlink:title=" ">
<polygon fill="#e0e0e0" stroke="#999999" points="118,-74 53,-74 53,-55 118,-55 118,-74"/>
<text text-anchor="middle" x="85.5" y="-62" font-family="Helvetica,sans-Serif" font-size="10.00">typeindex</text>
</a>
</g>
</g>
<!-- Node7&#45;&gt;Node9 -->
<g id="edge8_Node000007_Node000009" class="edge">
<title>Node7&#45;&gt;Node9</title>
<g id="a_edge8_Node000007_Node000009"><a xlink:title=" ">
<path fill="none" stroke="#63b8ff" d="M129.75,-109.75C122.03,-102.03 110.6,-90.6 101.28,-81.28"/>
<polygon fill="#63b8ff" stroke="#63b8ff" points="103.64,-78.69 94.09,-74.09 98.69,-83.64 103.64,-78.69"/>
</a>
</g>
</g>
<!-- Node10 -->
<g id="Node000010" class="node">
<title>Node10</title>
<g id="a_Node000010"><a xlink:title=" ">
<polygon fill="#e0e0e0" stroke="#999999" points="229,-74 136,-74 136,-55 229,-55 229,-74"/>
<text text-anchor="middle" x="182.5" y="-62" font-family="Helvetica,sans-Serif" font-size="10.00">unordered_map</text>
</a>
</g>
</g>
<!-- Node7&#45;&gt;Node10 -->
<g id="edge9_Node000007_Node000010" class="edge">
<title>Node7&#45;&gt;Node10</title>
<g id="a_edge9_Node000007_Node000010"><a xlink:title=" ">
<path fill="none" stroke="#63b8ff" d="M145.77,-109.75C152.04,-102.18 161.29,-91.05 168.93,-81.84"/>
<polygon fill="#63b8ff" stroke="#63b8ff" points="171.67,-84.02 175.37,-74.09 166.29,-79.55 171.67,-84.02"/>
</a>
</g>
</g>
<!-- Node11&#45;&gt;Node3 -->
<g id="edge11_Node000011_Node000003" class="edge">
<title>Node11&#45;&gt;Node3</title>
<g id="a_edge11_Node000011_Node000003"><a xlink:title=" ">
<path fill="none" stroke="#63b8ff" d="M349.23,-109.75C342.96,-102.18 333.71,-91.05 326.07,-81.84"/>
<polygon fill="#63b8ff" stroke="#63b8ff" points="328.71,-79.55 319.63,-74.09 323.33,-84.02 328.71,-79.55"/>
</a>
</g>
</g>
<!-- Node12 -->
<g id="Node000012" class="node">
<title>Node12</title>
<g id="a_Node000012"><a xlink:title=" ">
<polygon fill="#e0e0e0" stroke="#999999" points="437.5,-74 395.5,-74 395.5,-55 437.5,-55 437.5,-74"/>
<text text-anchor="middle" x="416.5" y="-62" font-family="Helvetica,sans-Serif" font-size="10.00">array</text>
</a>
</g>
</g>
<!-- Node11&#45;&gt;Node12 -->
<g id="edge12_Node000011_Node000012" class="edge">
<title>Node11&#45;&gt;Node12</title>
<g id="a_edge12_Node000011_Node000012"><a xlink:title=" ">
<path fill="none" stroke="#63b8ff" d="M366.14,-109.98C375.01,-102.15 388.37,-90.34 399.11,-80.86"/>
<polygon fill="#63b8ff" stroke="#63b8ff" points="401.51,-83.41 406.68,-74.17 396.87,-78.17 401.51,-83.41"/>
</a>
</g>
</g>
</g>
</svg>
