<?xml version="1.0" encoding="UTF-8" standalone="no"?>
<!DOCTYPE svg PUBLIC "-//W3C//DTD SVG 1.1//EN"
 "http://www.w3.org/Graphics/SVG/1.1/DTD/svg11.dtd">
<!-- Generated by graphviz version 2.43.0 (0)
 -->
<!-- Title: App/Include/Application/MeshExporter.h Pages: 1 -->
<svg width="656pt" height="258pt"
 viewBox="0.00 0.00 656.37 258.00" xmlns="http://www.w3.org/2000/svg" xmlns:xlink="http://www.w3.org/1999/xlink">
<g id="graph0" class="graph" transform="scale(1 1) rotate(0) translate(4 254)">
<title>App/Include/Application/MeshExporter.h</title>
<!-- Node1 -->
<g id="Node000001" class="node">
<title>Node1</title>
<g id="a_Node000001"><a xlink:title=" ">
<polygon fill="#999999" stroke="#666666" points="541.87,-250 410.87,-250 410.87,-220 541.87,-220 541.87,-250"/>
<text text-anchor="start" x="418.87" y="-238" font-family="Helvetica,sans-Serif" font-size="10.00">App/Include/Application</text>
<text text-anchor="middle" x="476.37" y="-227" font-family="Helvetica,sans-Serif" font-size="10.00">/MeshExporter.h</text>
</a>
</g>
</g>
<!-- Node2 -->
<g id="Node000002" class="node">
<title>Node2</title>
<g id="a_Node000002"><a xlink:href="BaseType_8h.html" target="_top" xlink:title=" ">
<polygon fill="white" stroke="#666666" points="579.37,-74 449.37,-74 449.37,-55 579.37,-55 579.37,-74"/>
<text text-anchor="middle" x="514.37" y="-62" font-family="Helvetica,sans-Serif" font-size="10.00">Application/BaseType.h</text>
</a>
</g>
</g>
<!-- Node1&#45;&gt;Node2 -->
<g id="edge1_Node000001_Node000002" class="edge">
<title>Node1&#45;&gt;Node2</title>
<g id="a_edge1_Node000001_Node000002"><a xlink:title=" ">
<path fill="none" stroke="#63b8ff" d="M483.48,-219.85C492.97,-200.1 509.28,-162.88 515.37,-129 516.86,-120.69 515.46,-118.44 515.37,-110 515.27,-101.49 515.07,-92.07 514.88,-84.09"/>
<polygon fill="#63b8ff" stroke="#63b8ff" points="518.38,-83.94 514.62,-74.03 511.38,-84.12 518.38,-83.94"/>
</a>
</g>
</g>
<!-- Node5 -->
<g id="Node000005" class="node">
<title>Node5</title>
<g id="a_Node000005"><a xlink:title=" ">
<polygon fill="#e0e0e0" stroke="#999999" points="236.37,-19 186.37,-19 186.37,0 236.37,0 236.37,-19"/>
<text text-anchor="middle" x="211.37" y="-7" font-family="Helvetica,sans-Serif" font-size="10.00">cstdint</text>
</a>
</g>
</g>
<!-- Node1&#45;&gt;Node5 -->
<g id="edge16_Node000001_Node000005" class="edge">
<title>Node1&#45;&gt;Node5</title>
<g id="a_edge16_Node000001_Node000005"><a xlink:title=" ">
<path fill="none" stroke="#63b8ff" d="M410.61,-229.05C294.27,-218.78 59.77,-190.77 10.37,-129 -39.45,-66.71 106.26,-30.14 176.2,-16.57"/>
<polygon fill="#63b8ff" stroke="#63b8ff" points="177.16,-19.95 186.34,-14.66 175.86,-13.08 177.16,-19.95"/>
</a>
</g>
</g>
<!-- Node6 -->
<g id="Node000006" class="node">
<title>Node6</title>
<g id="a_Node000006"><a xlink:href="Mesh_8h.html" target="_top" xlink:title=" ">
<polygon fill="white" stroke="#666666" points="380.37,-184 270.37,-184 270.37,-165 380.37,-165 380.37,-184"/>
<text text-anchor="middle" x="325.37" y="-172" font-family="Helvetica,sans-Serif" font-size="10.00">Application/Mesh.h</text>
</a>
</g>
</g>
<!-- Node1&#45;&gt;Node6 -->
<g id="edge5_Node000001_Node000006" class="edge">
<title>Node1&#45;&gt;Node6</title>
<g id="a_edge5_Node000001_Node000006"><a xlink:title=" ">
<path fill="none" stroke="#63b8ff" d="M440.2,-219.99C414.89,-210.18 381.41,-197.21 357.13,-187.81"/>
<polygon fill="#63b8ff" stroke="#63b8ff" points="358.26,-184.49 347.67,-184.14 355.73,-191.02 358.26,-184.49"/>
</a>
</g>
</g>
<!-- Node15 -->
<g id="Node000015" class="node">
<title>Node15</title>
<g id="a_Node000015"><a xlink:title=" ">
<polygon fill="#e0e0e0" stroke="#999999" points="648.37,-184 580.37,-184 580.37,-165 648.37,-165 648.37,-184"/>
<text text-anchor="middle" x="614.37" y="-172" font-family="Helvetica,sans-Serif" font-size="10.00">filesystem</text>
</a>
</g>
</g>
<!-- Node1&#45;&gt;Node15 -->
<g id="edge17_Node000001_Node000015" class="edge">
<title>Node1&#45;&gt;Node15</title>
<g id="a_edge17_Node000001_Node000015"><a xlink:title=" ">
<path fill="none" stroke="#63b8ff" d="M509.42,-219.99C532.34,-210.27 562.61,-197.44 584.75,-188.06"/>
<polygon fill="#63b8ff" stroke="#63b8ff" points="586.15,-191.26 593.99,-184.14 583.42,-184.82 586.15,-191.26"/>
</a>
</g>
</g>
<!-- Node3 -->
<g id="Node000003" class="node">
<title>Node3</title>
<g id="a_Node000003"><a xlink:title=" ">
<polygon fill="#e0e0e0" stroke="#999999" points="513.37,-19 435.37,-19 435.37,0 513.37,0 513.37,-19"/>
<text text-anchor="middle" x="474.37" y="-7" font-family="Helvetica,sans-Serif" font-size="10.00">glm/glm.hpp</text>
</a>
</g>
</g>
<!-- Node2&#45;&gt;Node3 -->
<g id="edge2_Node000002_Node000003" class="edge">
<title>Node2&#45;&gt;Node3</title>
<g id="a_edge2_Node000002_Node000003"><a xlink:title=" ">
<path fill="none" stroke="#63b8ff" d="M507.76,-54.75C502.11,-47.26 493.82,-36.28 486.92,-27.13"/>
<polygon fill="#63b8ff" stroke="#63b8ff" points="489.67,-24.96 480.85,-19.09 484.08,-29.18 489.67,-24.96"/>
</a>
</g>
</g>
<!-- Node4 -->
<g id="Node000004" class="node">
<title>Node4</title>
<g id="a_Node000004"><a xlink:title=" ">
<polygon fill="#e0e0e0" stroke="#999999" points="575.37,-19 531.37,-19 531.37,0 575.37,0 575.37,-19"/>
<text text-anchor="middle" x="553.37" y="-7" font-family="Helvetica,sans-Serif" font-size="10.00">bitset</text>
</a>
</g>
</g>
<!-- Node2&#45;&gt;Node4 -->
<g id="edge3_Node000002_Node000004" class="edge">
<title>Node2&#45;&gt;Node4</title>
<g id="a_edge3_Node000002_Node000004"><a xlink:title=" ">
<path fill="none" stroke="#63b8ff" d="M520.81,-54.75C526.26,-47.34 534.23,-36.5 540.93,-27.41"/>
<polygon fill="#63b8ff" stroke="#63b8ff" points="543.94,-29.22 547.05,-19.09 538.3,-25.07 543.94,-29.22"/>
</a>
</g>
</g>
<!-- Node2&#45;&gt;Node5 -->
<g id="edge4_Node000002_Node000005" class="edge">
<title>Node2&#45;&gt;Node5</title>
<g id="a_edge4_Node000002_Node000005"><a xlink:title=" ">
<path fill="none" stroke="#63b8ff" d="M465.69,-54.98C404.52,-44.29 301.02,-26.18 246.84,-16.71"/>
<polygon fill="#63b8ff" stroke="#63b8ff" points="247.15,-13.21 236.69,-14.93 245.94,-20.1 247.15,-13.21"/>
</a>
</g>
</g>
<!-- Node6&#45;&gt;Node2 -->
<g id="edge6_Node000006_Node000002" class="edge">
<title>Node6&#45;&gt;Node2</title>
<g id="a_edge6_Node000006_Node000002"><a xlink:title=" ">
<path fill="none" stroke="#63b8ff" d="M380.73,-172.53C417.71,-168.97 464.98,-158.36 495.37,-129 507.39,-117.39 511.88,-98.53 513.53,-84.37"/>
<polygon fill="#63b8ff" stroke="#63b8ff" points="517.03,-84.5 514.32,-74.25 510.05,-83.95 517.03,-84.5"/>
</a>
</g>
</g>
<!-- Node7 -->
<g id="Node000007" class="node">
<title>Node7</title>
<g id="a_Node000007"><a xlink:href="ExtraDataContainer_8h.html" target="_top" xlink:title=" ">
<polygon fill="white" stroke="#666666" points="339.87,-129 160.87,-129 160.87,-110 339.87,-110 339.87,-129"/>
<text text-anchor="middle" x="250.37" y="-117" font-family="Helvetica,sans-Serif" font-size="10.00">Application/ExtraDataContainer.h</text>
</a>
</g>
</g>
<!-- Node6&#45;&gt;Node7 -->
<g id="edge7_Node000006_Node000007" class="edge">
<title>Node6&#45;&gt;Node7</title>
<g id="a_edge7_Node000006_Node000007"><a xlink:title=" ">
<path fill="none" stroke="#63b8ff" d="M313.32,-164.98C301.91,-156.92 284.54,-144.65 270.93,-135.03"/>
<polygon fill="#63b8ff" stroke="#63b8ff" points="272.82,-132.08 262.64,-129.17 268.78,-137.8 272.82,-132.08"/>
</a>
</g>
</g>
<!-- Node11 -->
<g id="Node000011" class="node">
<title>Node11</title>
<g id="a_Node000011"><a xlink:href="Primitive_8h.html" target="_top" xlink:title=" ">
<polygon fill="white" stroke="#666666" points="486.37,-129 358.37,-129 358.37,-110 486.37,-110 486.37,-129"/>
<text text-anchor="middle" x="422.37" y="-117" font-family="Helvetica,sans-Serif" font-size="10.00">Application/Primitive.h</text>
</a>
</g>
</g>
<!-- Node6&#45;&gt;Node11 -->
<g id="edge11_Node000006_Node000011" class="edge">
<title>Node6&#45;&gt;Node11</title>
<g id="a_edge11_Node000006_Node000011"><a xlink:title=" ">
<path fill="none" stroke="#63b8ff" d="M340.95,-164.98C356.14,-156.69 379.47,-143.94 397.27,-134.22"/>
<polygon fill="#63b8ff" stroke="#63b8ff" points="399.4,-137.04 406.5,-129.17 396.05,-130.89 399.4,-137.04"/>
</a>
</g>
</g>
<!-- Node13 -->
<g id="Node000013" class="node">
<title>Node13</title>
<g id="a_Node000013"><a xlink:title=" ">
<polygon fill="#e0e0e0" stroke="#999999" points="77.37,-129 19.37,-129 19.37,-110 77.37,-110 77.37,-129"/>
<text text-anchor="middle" x="48.37" y="-117" font-family="Helvetica,sans-Serif" font-size="10.00">memory</text>
</a>
</g>
</g>
<!-- Node6&#45;&gt;Node13 -->
<g id="edge14_Node000006_Node000013" class="edge">
<title>Node6&#45;&gt;Node13</title>
<g id="a_edge14_Node000006_Node000013"><a xlink:title=" ">
<path fill="none" stroke="#63b8ff" d="M276.75,-164.98C230.56,-156.76 158.91,-143.71 87.47,-129.17"/>
<polygon fill="#63b8ff" stroke="#63b8ff" points="87.89,-125.68 77.39,-127.1 86.49,-132.54 87.89,-125.68"/>
</a>
</g>
</g>
<!-- Node14 -->
<g id="Node000014" class="node">
<title>Node14</title>
<g id="a_Node000014"><a xlink:title=" ">
<polygon fill="#e0e0e0" stroke="#999999" points="142.87,-129 95.87,-129 95.87,-110 142.87,-110 142.87,-129"/>
<text text-anchor="middle" x="119.37" y="-117" font-family="Helvetica,sans-Serif" font-size="10.00">vector</text>
</a>
</g>
</g>
<!-- Node6&#45;&gt;Node14 -->
<g id="edge15_Node000006_Node000014" class="edge">
<title>Node6&#45;&gt;Node14</title>
<g id="a_edge15_Node000006_Node000014"><a xlink:title=" ">
<path fill="none" stroke="#63b8ff" d="M291.66,-164.98C258.65,-156.61 206.64,-143.37 153.13,-129.44"/>
<polygon fill="#63b8ff" stroke="#63b8ff" points="153.69,-125.97 143.13,-126.84 151.92,-132.75 153.69,-125.97"/>
</a>
</g>
</g>
<!-- Node8 -->
<g id="Node000008" class="node">
<title>Node8</title>
<g id="a_Node000008"><a xlink:title=" ">
<polygon fill="#e0e0e0" stroke="#999999" points="349.87,-74 314.87,-74 314.87,-55 349.87,-55 349.87,-74"/>
<text text-anchor="middle" x="332.37" y="-62" font-family="Helvetica,sans-Serif" font-size="10.00">any</text>
</a>
</g>
</g>
<!-- Node7&#45;&gt;Node8 -->
<g id="edge8_Node000007_Node000008" class="edge">
<title>Node7&#45;&gt;Node8</title>
<g id="a_edge8_Node000007_Node000008"><a xlink:title=" ">
<path fill="none" stroke="#63b8ff" d="M263.54,-109.98C276.14,-101.84 295.37,-89.41 310.31,-79.76"/>
<polygon fill="#63b8ff" stroke="#63b8ff" points="312.46,-82.54 318.95,-74.17 308.66,-76.66 312.46,-82.54"/>
</a>
</g>
</g>
<!-- Node9 -->
<g id="Node000009" class="node">
<title>Node9</title>
<g id="a_Node000009"><a xlink:title=" ">
<polygon fill="#e0e0e0" stroke="#999999" points="185.87,-74 120.87,-74 120.87,-55 185.87,-55 185.87,-74"/>
<text text-anchor="middle" x="153.37" y="-62" font-family="Helvetica,sans-Serif" font-size="10.00">typeindex</text>
</a>
</g>
</g>
<!-- Node7&#45;&gt;Node9 -->
<g id="edge9_Node000007_Node000009" class="edge">
<title>Node7&#45;&gt;Node9</title>
<g id="a_edge9_Node000007_Node000009"><a xlink:title=" ">
<path fill="none" stroke="#63b8ff" d="M234.78,-109.98C219.6,-101.69 196.27,-88.94 178.47,-79.22"/>
<polygon fill="#63b8ff" stroke="#63b8ff" points="179.69,-75.89 169.24,-74.17 176.33,-82.04 179.69,-75.89"/>
</a>
</g>
</g>
<!-- Node10 -->
<g id="Node000010" class="node">
<title>Node10</title>
<g id="a_Node000010"><a xlink:title=" ">
<polygon fill="#e0e0e0" stroke="#999999" points="296.87,-74 203.87,-74 203.87,-55 296.87,-55 296.87,-74"/>
<text text-anchor="middle" x="250.37" y="-62" font-family="Helvetica,sans-Serif" font-size="10.00">unordered_map</text>
</a>
</g>
</g>
<!-- Node7&#45;&gt;Node10 -->
<g id="edge10_Node000007_Node000010" class="edge">
<title>Node7&#45;&gt;Node10</title>
<g id="a_edge10_Node000007_Node000010"><a xlink:title=" ">
<path fill="none" stroke="#63b8ff" d="M250.37,-109.75C250.37,-102.8 250.37,-92.85 250.37,-84.13"/>
<polygon fill="#63b8ff" stroke="#63b8ff" points="253.87,-84.09 250.37,-74.09 246.87,-84.09 253.87,-84.09"/>
</a>
</g>
</g>
<!-- Node11&#45;&gt;Node2 -->
<g id="edge12_Node000011_Node000002" class="edge">
<title>Node11&#45;&gt;Node2</title>
<g id="a_edge12_Node000011_Node000002"><a xlink:title=" ">
<path fill="none" stroke="#63b8ff" d="M437.15,-109.98C451.55,-101.69 473.68,-88.94 490.56,-79.22"/>
<polygon fill="#63b8ff" stroke="#63b8ff" points="492.4,-82.19 499.32,-74.17 488.91,-76.13 492.4,-82.19"/>
</a>
</g>
</g>
<!-- Node12 -->
<g id="Node000012" class="node">
<title>Node12</title>
<g id="a_Node000012"><a xlink:title=" ">
<polygon fill="#e0e0e0" stroke="#999999" points="431.37,-74 389.37,-74 389.37,-55 431.37,-55 431.37,-74"/>
<text text-anchor="middle" x="410.37" y="-62" font-family="Helvetica,sans-Serif" font-size="10.00">array</text>
</a>
</g>
</g>
<!-- Node11&#45;&gt;Node12 -->
<g id="edge13_Node000011_Node000012" class="edge">
<title>Node11&#45;&gt;Node12</title>
<g id="a_edge13_Node000011_Node000012"><a xlink:title=" ">
<path fill="none" stroke="#63b8ff" d="M420.39,-109.75C418.8,-102.72 416.51,-92.62 414.52,-83.84"/>
<polygon fill="#63b8ff" stroke="#63b8ff" points="417.94,-83.07 412.31,-74.09 411.11,-84.62 417.94,-83.07"/>
</a>
</g>
</g>
</g>
</svg>
