<?xml version="1.0" encoding="UTF-8" standalone="no"?>
<!DOCTYPE svg PUBLIC "-//W3C//DTD SVG 1.1//EN"
 "http://www.w3.org/Graphics/SVG/1.1/DTD/svg11.dtd">
<!-- Generated by graphviz version 2.43.0 (0)
 -->
<!-- Title: App/Test/Source/MeshCirculator_utest.cpp Pages: 1 -->
<svg width="739pt" height="368pt"
 viewBox="0.00 0.00 739.00 368.00" xmlns="http://www.w3.org/2000/svg" xmlns:xlink="http://www.w3.org/1999/xlink">
<g id="graph0" class="graph" transform="scale(1 1) rotate(0) translate(4 364)">
<title>App/Test/Source/MeshCirculator_utest.cpp</title>
<!-- Node1 -->
<g id="Node000001" class="node">
<title>Node1</title>
<g id="a_Node000001"><a xlink:title=" ">
<polygon fill="#999999" stroke="#666666" points="582,-360 412,-360 412,-330 582,-330 582,-360"/>
<text text-anchor="start" x="420" y="-348" font-family="Helvetica,sans-Serif" font-size="10.00">App/Test/Source/MeshCirculator</text>
<text text-anchor="middle" x="497" y="-337" font-family="Helvetica,sans-Serif" font-size="10.00">_utest.cpp</text>
</a>
</g>
</g>
<!-- Node2 -->
<g id="Node000002" class="node">
<title>Node2</title>
<g id="a_Node000002"><a xlink:href="Mesh_8h.html" target="_top" xlink:title=" ">
<polygon fill="white" stroke="#666666" points="454,-184 344,-184 344,-165 454,-165 454,-184"/>
<text text-anchor="middle" x="399" y="-172" font-family="Helvetica,sans-Serif" font-size="10.00">Application/Mesh.h</text>
</a>
</g>
</g>
<!-- Node1&#45;&gt;Node2 -->
<g id="edge1_Node000001_Node000002" class="edge">
<title>Node1&#45;&gt;Node2</title>
<g id="a_edge1_Node000001_Node000002"><a xlink:title=" ">
<path fill="none" stroke="#63b8ff" d="M461.66,-329.81C445.85,-321.66 428.45,-309.86 418,-294 397.91,-263.51 396.42,-219.24 397.48,-194.33"/>
<polygon fill="#63b8ff" stroke="#63b8ff" points="400.99,-194.29 398.11,-184.09 394,-193.86 400.99,-194.29"/>
</a>
</g>
</g>
<!-- Node16 -->
<g id="Node000016" class="node">
<title>Node16</title>
<g id="a_Node000016"><a xlink:href="TestHelpers_8h.html" target="_top" xlink:title=" ">
<polygon fill="white" stroke="#666666" points="567,-294 427,-294 427,-275 567,-275 567,-294"/>
<text text-anchor="middle" x="497" y="-282" font-family="Helvetica,sans-Serif" font-size="10.00">Application/TestHelpers.h</text>
</a>
</g>
</g>
<!-- Node1&#45;&gt;Node16 -->
<g id="edge16_Node000001_Node000016" class="edge">
<title>Node1&#45;&gt;Node16</title>
<g id="a_edge16_Node000001_Node000016"><a xlink:title=" ">
<path fill="none" stroke="#63b8ff" d="M497,-329.84C497,-322.21 497,-312.7 497,-304.45"/>
<polygon fill="#63b8ff" stroke="#63b8ff" points="500.5,-304.27 497,-294.27 493.5,-304.27 500.5,-304.27"/>
</a>
</g>
</g>
<!-- Node20 -->
<g id="Node000020" class="node">
<title>Node20</title>
<g id="a_Node000020"><a xlink:title=" ">
<polygon fill="#e0e0e0" stroke="#999999" points="663,-294 585,-294 585,-275 663,-275 663,-294"/>
<text text-anchor="middle" x="624" y="-282" font-family="Helvetica,sans-Serif" font-size="10.00">gtest/gtest.h</text>
</a>
</g>
</g>
<!-- Node1&#45;&gt;Node20 -->
<g id="edge26_Node000001_Node000020" class="edge">
<title>Node1&#45;&gt;Node20</title>
<g id="a_edge26_Node000001_Node000020"><a xlink:title=" ">
<path fill="none" stroke="#63b8ff" d="M527.42,-329.99C548.23,-320.4 575.62,-307.79 595.91,-298.44"/>
<polygon fill="#63b8ff" stroke="#63b8ff" points="597.63,-301.5 605.24,-294.14 594.7,-295.14 597.63,-301.5"/>
</a>
</g>
</g>
<!-- Node3 -->
<g id="Node000003" class="node">
<title>Node3</title>
<g id="a_Node000003"><a xlink:href="BaseType_8h.html" target="_top" xlink:title=" ">
<polygon fill="white" stroke="#666666" points="651,-74 521,-74 521,-55 651,-55 651,-74"/>
<text text-anchor="middle" x="586" y="-62" font-family="Helvetica,sans-Serif" font-size="10.00">Application/BaseType.h</text>
</a>
</g>
</g>
<!-- Node2&#45;&gt;Node3 -->
<g id="edge2_Node000002_Node000003" class="edge">
<title>Node2&#45;&gt;Node3</title>
<g id="a_edge2_Node000002_Node000003"><a xlink:title=" ">
<path fill="none" stroke="#63b8ff" d="M403.76,-164.77C411.62,-151.13 428.6,-124.8 450,-110 473.27,-93.9 502.75,-83.32 528.31,-76.53"/>
<polygon fill="#63b8ff" stroke="#63b8ff" points="529.41,-79.87 538.26,-74.03 527.7,-73.08 529.41,-79.87"/>
</a>
</g>
</g>
<!-- Node8 -->
<g id="Node000008" class="node">
<title>Node8</title>
<g id="a_Node000008"><a xlink:href="ExtraDataContainer_8h.html" target="_top" xlink:title=" ">
<polygon fill="white" stroke="#666666" points="255.5,-129 76.5,-129 76.5,-110 255.5,-110 255.5,-129"/>
<text text-anchor="middle" x="166" y="-117" font-family="Helvetica,sans-Serif" font-size="10.00">Application/ExtraDataContainer.h</text>
</a>
</g>
</g>
<!-- Node2&#45;&gt;Node8 -->
<g id="edge7_Node000002_Node000008" class="edge">
<title>Node2&#45;&gt;Node8</title>
<g id="a_edge7_Node000002_Node000008"><a xlink:title=" ">
<path fill="none" stroke="#63b8ff" d="M361.56,-164.98C321.35,-155.84 257.32,-141.27 213.56,-131.32"/>
<polygon fill="#63b8ff" stroke="#63b8ff" points="214.26,-127.89 203.73,-129.08 212.7,-134.71 214.26,-127.89"/>
</a>
</g>
</g>
<!-- Node12 -->
<g id="Node000012" class="node">
<title>Node12</title>
<g id="a_Node000012"><a xlink:href="Primitive_8h.html" target="_top" xlink:title=" ">
<polygon fill="white" stroke="#666666" points="402,-129 274,-129 274,-110 402,-110 402,-129"/>
<text text-anchor="middle" x="338" y="-117" font-family="Helvetica,sans-Serif" font-size="10.00">Application/Primitive.h</text>
</a>
</g>
</g>
<!-- Node2&#45;&gt;Node12 -->
<g id="edge11_Node000002_Node000012" class="edge">
<title>Node2&#45;&gt;Node12</title>
<g id="a_edge11_Node000002_Node000012"><a xlink:title=" ">
<path fill="none" stroke="#63b8ff" d="M389.2,-164.98C380.18,-157.15 366.59,-145.34 355.68,-135.86"/>
<polygon fill="#63b8ff" stroke="#63b8ff" points="357.82,-133.09 347.98,-129.17 353.23,-138.37 357.82,-133.09"/>
</a>
</g>
</g>
<!-- Node14 -->
<g id="Node000014" class="node">
<title>Node14</title>
<g id="a_Node000014"><a xlink:title=" ">
<polygon fill="#e0e0e0" stroke="#999999" points="58,-129 0,-129 0,-110 58,-110 58,-129"/>
<text text-anchor="middle" x="29" y="-117" font-family="Helvetica,sans-Serif" font-size="10.00">memory</text>
</a>
</g>
</g>
<!-- Node2&#45;&gt;Node14 -->
<g id="edge14_Node000002_Node000014" class="edge">
<title>Node2&#45;&gt;Node14</title>
<g id="a_edge14_Node000002_Node000014"><a xlink:title=" ">
<path fill="none" stroke="#63b8ff" d="M343.85,-167.59C279.85,-160.41 170.97,-147.16 68.32,-129.1"/>
<polygon fill="#63b8ff" stroke="#63b8ff" points="68.87,-125.65 58.41,-127.34 67.64,-132.54 68.87,-125.65"/>
</a>
</g>
</g>
<!-- Node15 -->
<g id="Node000015" class="node">
<title>Node15</title>
<g id="a_Node000015"><a xlink:title=" ">
<polygon fill="#e0e0e0" stroke="#999999" points="505.5,-129 458.5,-129 458.5,-110 505.5,-110 505.5,-129"/>
<text text-anchor="middle" x="482" y="-117" font-family="Helvetica,sans-Serif" font-size="10.00">vector</text>
</a>
</g>
</g>
<!-- Node2&#45;&gt;Node15 -->
<g id="edge15_Node000002_Node000015" class="edge">
<title>Node2&#45;&gt;Node15</title>
<g id="a_edge15_Node000002_Node000015"><a xlink:title=" ">
<path fill="none" stroke="#63b8ff" d="M412.34,-164.98C425.09,-156.84 444.55,-144.41 459.67,-134.76"/>
<polygon fill="#63b8ff" stroke="#63b8ff" points="461.88,-137.5 468.42,-129.17 458.11,-131.6 461.88,-137.5"/>
</a>
</g>
</g>
<!-- Node4 -->
<g id="Node000004" class="node">
<title>Node4</title>
<g id="a_Node000004"><a xlink:title=" ">
<polygon fill="#e0e0e0" stroke="#999999" points="441,-19 363,-19 363,0 441,0 441,-19"/>
<text text-anchor="middle" x="402" y="-7" font-family="Helvetica,sans-Serif" font-size="10.00">glm/glm.hpp</text>
</a>
</g>
</g>
<!-- Node3&#45;&gt;Node4 -->
<g id="edge3_Node000003_Node000004" class="edge">
<title>Node3&#45;&gt;Node4</title>
<g id="a_edge3_Node000003_Node000004"><a xlink:title=" ">
<path fill="none" stroke="#63b8ff" d="M556.44,-54.98C525.28,-46.01 476.03,-31.82 441.54,-21.89"/>
<polygon fill="#63b8ff" stroke="#63b8ff" points="442.37,-18.49 431.79,-19.08 440.43,-25.21 442.37,-18.49"/>
</a>
</g>
</g>
<!-- Node5 -->
<g id="Node000005" class="node">
<title>Node5</title>
<g id="a_Node000005"><a xlink:title=" ">
<polygon fill="#e0e0e0" stroke="#999999" points="600.5,-19 459.5,-19 459.5,0 600.5,0 600.5,-19"/>
<text text-anchor="middle" x="530" y="-7" font-family="Helvetica,sans-Serif" font-size="10.00">glm/gtx/vector_angle.hpp</text>
</a>
</g>
</g>
<!-- Node3&#45;&gt;Node5 -->
<g id="edge4_Node000003_Node000005" class="edge">
<title>Node3&#45;&gt;Node5</title>
<g id="a_edge4_Node000003_Node000005"><a xlink:title=" ">
<path fill="none" stroke="#63b8ff" d="M577,-54.98C568.81,-47.23 556.49,-35.58 546.53,-26.14"/>
<polygon fill="#63b8ff" stroke="#63b8ff" points="548.83,-23.5 539.16,-19.17 544.02,-28.59 548.83,-23.5"/>
</a>
</g>
</g>
<!-- Node6 -->
<g id="Node000006" class="node">
<title>Node6</title>
<g id="a_Node000006"><a xlink:title=" ">
<polygon fill="#e0e0e0" stroke="#999999" points="663,-19 619,-19 619,0 663,0 663,-19"/>
<text text-anchor="middle" x="641" y="-7" font-family="Helvetica,sans-Serif" font-size="10.00">bitset</text>
</a>
</g>
</g>
<!-- Node3&#45;&gt;Node6 -->
<g id="edge5_Node000003_Node000006" class="edge">
<title>Node3&#45;&gt;Node6</title>
<g id="a_edge5_Node000003_Node000006"><a xlink:title=" ">
<path fill="none" stroke="#63b8ff" d="M595.08,-54.75C603.09,-47.03 614.96,-35.6 624.62,-26.28"/>
<polygon fill="#63b8ff" stroke="#63b8ff" points="627.31,-28.55 632.09,-19.09 622.46,-23.51 627.31,-28.55"/>
</a>
</g>
</g>
<!-- Node7 -->
<g id="Node000007" class="node">
<title>Node7</title>
<g id="a_Node000007"><a xlink:title=" ">
<polygon fill="#e0e0e0" stroke="#999999" points="731,-19 681,-19 681,0 731,0 731,-19"/>
<text text-anchor="middle" x="706" y="-7" font-family="Helvetica,sans-Serif" font-size="10.00">cstdint</text>
</a>
</g>
</g>
<!-- Node3&#45;&gt;Node7 -->
<g id="edge6_Node000003_Node000007" class="edge">
<title>Node3&#45;&gt;Node7</title>
<g id="a_edge6_Node000003_Node000007"><a xlink:title=" ">
<path fill="none" stroke="#63b8ff" d="M605.28,-54.98C624.67,-46.42 654.81,-33.11 677.07,-23.28"/>
<polygon fill="#63b8ff" stroke="#63b8ff" points="678.64,-26.41 686.37,-19.17 675.81,-20.01 678.64,-26.41"/>
</a>
</g>
</g>
<!-- Node9 -->
<g id="Node000009" class="node">
<title>Node9</title>
<g id="a_Node000009"><a xlink:title=" ">
<polygon fill="#e0e0e0" stroke="#999999" points="183.5,-74 148.5,-74 148.5,-55 183.5,-55 183.5,-74"/>
<text text-anchor="middle" x="166" y="-62" font-family="Helvetica,sans-Serif" font-size="10.00">any</text>
</a>
</g>
</g>
<!-- Node8&#45;&gt;Node9 -->
<g id="edge8_Node000008_Node000009" class="edge">
<title>Node8&#45;&gt;Node9</title>
<g id="a_edge8_Node000008_Node000009"><a xlink:title=" ">
<path fill="none" stroke="#63b8ff" d="M166,-109.75C166,-102.8 166,-92.85 166,-84.13"/>
<polygon fill="#63b8ff" stroke="#63b8ff" points="169.5,-84.09 166,-74.09 162.5,-84.09 169.5,-84.09"/>
</a>
</g>
</g>
<!-- Node10 -->
<g id="Node000010" class="node">
<title>Node10</title>
<g id="a_Node000010"><a xlink:title=" ">
<polygon fill="#e0e0e0" stroke="#999999" points="266.5,-74 201.5,-74 201.5,-55 266.5,-55 266.5,-74"/>
<text text-anchor="middle" x="234" y="-62" font-family="Helvetica,sans-Serif" font-size="10.00">typeindex</text>
</a>
</g>
</g>
<!-- Node8&#45;&gt;Node10 -->
<g id="edge9_Node000008_Node000010" class="edge">
<title>Node8&#45;&gt;Node10</title>
<g id="a_edge9_Node000008_Node000010"><a xlink:title=" ">
<path fill="none" stroke="#63b8ff" d="M176.93,-109.98C187.08,-102.07 202.42,-90.11 214.65,-80.58"/>
<polygon fill="#63b8ff" stroke="#63b8ff" points="217.14,-83.08 222.88,-74.17 212.84,-77.56 217.14,-83.08"/>
</a>
</g>
</g>
<!-- Node11 -->
<g id="Node000011" class="node">
<title>Node11</title>
<g id="a_Node000011"><a xlink:title=" ">
<polygon fill="#e0e0e0" stroke="#999999" points="130.5,-74 37.5,-74 37.5,-55 130.5,-55 130.5,-74"/>
<text text-anchor="middle" x="84" y="-62" font-family="Helvetica,sans-Serif" font-size="10.00">unordered_map</text>
</a>
</g>
</g>
<!-- Node8&#45;&gt;Node11 -->
<g id="edge10_Node000008_Node000011" class="edge">
<title>Node8&#45;&gt;Node11</title>
<g id="a_edge10_Node000008_Node000011"><a xlink:title=" ">
<path fill="none" stroke="#63b8ff" d="M152.83,-109.98C140.23,-101.84 121,-89.41 106.06,-79.76"/>
<polygon fill="#63b8ff" stroke="#63b8ff" points="107.71,-76.66 97.41,-74.17 103.91,-82.54 107.71,-76.66"/>
</a>
</g>
</g>
<!-- Node12&#45;&gt;Node3 -->
<g id="edge12_Node000012_Node000003" class="edge">
<title>Node12&#45;&gt;Node3</title>
<g id="a_edge12_Node000012_Node000003"><a xlink:title=" ">
<path fill="none" stroke="#63b8ff" d="M377.85,-109.98C420.83,-100.8 489.37,-86.15 535.96,-76.19"/>
<polygon fill="#63b8ff" stroke="#63b8ff" points="536.79,-79.59 545.84,-74.08 535.33,-72.75 536.79,-79.59"/>
</a>
</g>
</g>
<!-- Node13 -->
<g id="Node000013" class="node">
<title>Node13</title>
<g id="a_Node000013"><a xlink:title=" ">
<polygon fill="#e0e0e0" stroke="#999999" points="407,-74 365,-74 365,-55 407,-55 407,-74"/>
<text text-anchor="middle" x="386" y="-62" font-family="Helvetica,sans-Serif" font-size="10.00">array</text>
</a>
</g>
</g>
<!-- Node12&#45;&gt;Node13 -->
<g id="edge13_Node000012_Node000013" class="edge">
<title>Node12&#45;&gt;Node13</title>
<g id="a_edge13_Node000012_Node000013"><a xlink:title=" ">
<path fill="none" stroke="#63b8ff" d="M345.93,-109.75C352.85,-102.11 363.07,-90.82 371.45,-81.56"/>
<polygon fill="#63b8ff" stroke="#63b8ff" points="374.1,-83.85 378.22,-74.09 368.91,-79.15 374.1,-83.85"/>
</a>
</g>
</g>
<!-- Node16&#45;&gt;Node2 -->
<g id="edge22_Node000016_Node000002" class="edge">
<title>Node16&#45;&gt;Node2</title>
<g id="a_edge22_Node000016_Node000002"><a xlink:title=" ">
<path fill="none" stroke="#63b8ff" d="M488.98,-274.66C472.53,-256.54 434.76,-214.91 413.76,-191.77"/>
<polygon fill="#63b8ff" stroke="#63b8ff" points="416.17,-189.21 406.86,-184.16 410.98,-193.92 416.17,-189.21"/>
</a>
</g>
</g>
<!-- Node17 -->
<g id="Node000017" class="node">
<title>Node17</title>
<g id="a_Node000017"><a xlink:href="ExtraDataType_8h.html" target="_top" xlink:title=" ">
<polygon fill="white" stroke="#666666" points="627.5,-184 472.5,-184 472.5,-165 627.5,-165 627.5,-184"/>
<text text-anchor="middle" x="550" y="-172" font-family="Helvetica,sans-Serif" font-size="10.00">Application/ExtraDataType.h</text>
</a>
</g>
</g>
<!-- Node16&#45;&gt;Node17 -->
<g id="edge17_Node000016_Node000017" class="edge">
<title>Node16&#45;&gt;Node17</title>
<g id="a_edge17_Node000016_Node000017"><a xlink:title=" ">
<path fill="none" stroke="#63b8ff" d="M498.54,-274.91C501.02,-262.35 506.59,-238.45 516,-220 521.13,-209.95 528.59,-199.87 535.22,-191.85"/>
<polygon fill="#63b8ff" stroke="#63b8ff" points="538.06,-193.91 541.94,-184.05 532.76,-189.35 538.06,-193.91"/>
</a>
</g>
</g>
<!-- Node19 -->
<g id="Node000019" class="node">
<title>Node19</title>
<g id="a_Node000019"><a xlink:href="PrimitiveProxy_8h.html" target="_top" xlink:title=" ">
<polygon fill="white" stroke="#666666" points="679,-239 525,-239 525,-220 679,-220 679,-239"/>
<text text-anchor="middle" x="602" y="-227" font-family="Helvetica,sans-Serif" font-size="10.00">Application/PrimitiveProxy.h</text>
</a>
</g>
</g>
<!-- Node16&#45;&gt;Node19 -->
<g id="edge23_Node000016_Node000019" class="edge">
<title>Node16&#45;&gt;Node19</title>
<g id="a_edge23_Node000016_Node000019"><a xlink:title=" ">
<path fill="none" stroke="#63b8ff" d="M513.87,-274.98C530.61,-266.54 556.5,-253.47 575.89,-243.68"/>
<polygon fill="#63b8ff" stroke="#63b8ff" points="577.47,-246.8 584.82,-239.17 574.32,-240.55 577.47,-246.8"/>
</a>
</g>
</g>
<!-- Node17&#45;&gt;Node3 -->
<g id="edge18_Node000017_Node000003" class="edge">
<title>Node17&#45;&gt;Node3</title>
<g id="a_edge18_Node000017_Node000003"><a xlink:title=" ">
<path fill="none" stroke="#63b8ff" d="M572.12,-164.95C587.2,-157.82 606.01,-146.06 615,-129 623.25,-113.35 612.66,-94.89 602.03,-81.92"/>
<polygon fill="#63b8ff" stroke="#63b8ff" points="604.5,-79.43 595.24,-74.28 599.26,-84.08 604.5,-79.43"/>
</a>
</g>
</g>
<!-- Node17&#45;&gt;Node13 -->
<g id="edge19_Node000017_Node000013" class="edge">
<title>Node17&#45;&gt;Node13</title>
<g id="a_edge19_Node000017_Node000013"><a xlink:title=" ">
<path fill="none" stroke="#63b8ff" d="M547.46,-164.8C543.05,-151.19 532.72,-124.91 515,-110 486.87,-86.33 445.45,-75 417.18,-69.75"/>
<polygon fill="#63b8ff" stroke="#63b8ff" points="417.49,-66.26 407.04,-68.03 416.31,-73.16 417.49,-66.26"/>
</a>
</g>
</g>
<!-- Node17&#45;&gt;Node15 -->
<g id="edge21_Node000017_Node000015" class="edge">
<title>Node17&#45;&gt;Node15</title>
<g id="a_edge21_Node000017_Node000015"><a xlink:title=" ">
<path fill="none" stroke="#63b8ff" d="M539.07,-164.98C528.92,-157.07 513.58,-145.11 501.35,-135.58"/>
<polygon fill="#63b8ff" stroke="#63b8ff" points="503.16,-132.56 493.12,-129.17 498.86,-138.08 503.16,-132.56"/>
</a>
</g>
</g>
<!-- Node18 -->
<g id="Node000018" class="node">
<title>Node18</title>
<g id="a_Node000018"><a xlink:title=" ">
<polygon fill="#e0e0e0" stroke="#999999" points="606,-129 562,-129 562,-110 606,-110 606,-129"/>
<text text-anchor="middle" x="584" y="-117" font-family="Helvetica,sans-Serif" font-size="10.00">string</text>
</a>
</g>
</g>
<!-- Node17&#45;&gt;Node18 -->
<g id="edge20_Node000017_Node000018" class="edge">
<title>Node17&#45;&gt;Node18</title>
<g id="a_edge20_Node000017_Node000018"><a xlink:title=" ">
<path fill="none" stroke="#63b8ff" d="M555.61,-164.75C560.32,-157.42 567.17,-146.73 572.97,-137.7"/>
<polygon fill="#63b8ff" stroke="#63b8ff" points="576.04,-139.4 578.49,-129.09 570.14,-135.62 576.04,-139.4"/>
</a>
</g>
</g>
<!-- Node19&#45;&gt;Node2 -->
<g id="edge25_Node000019_Node000002" class="edge">
<title>Node19&#45;&gt;Node2</title>
<g id="a_edge25_Node000019_Node000002"><a xlink:title=" ">
<path fill="none" stroke="#63b8ff" d="M569.38,-219.98C534.71,-210.93 479.74,-196.58 441.65,-186.64"/>
<polygon fill="#63b8ff" stroke="#63b8ff" points="442.43,-183.22 431.87,-184.08 440.66,-189.99 442.43,-183.22"/>
</a>
</g>
</g>
<!-- Node19&#45;&gt;Node3 -->
<g id="edge24_Node000019_Node000003" class="edge">
<title>Node19&#45;&gt;Node3</title>
<g id="a_edge24_Node000019_Node000003"><a xlink:title=" ">
<path fill="none" stroke="#63b8ff" d="M611.88,-219.75C620.39,-211.5 632.05,-198.3 637,-184 639.76,-176.02 637.53,-173.43 637,-165 635.44,-140.41 640.79,-132.15 630,-110 624.46,-98.63 614.87,-88.4 606.05,-80.63"/>
<polygon fill="#63b8ff" stroke="#63b8ff" points="608.24,-77.9 598.31,-74.21 603.77,-83.29 608.24,-77.9"/>
</a>
</g>
</g>
</g>
</svg>
