<?xml version="1.0" encoding="UTF-8" standalone="no"?>
<!DOCTYPE svg PUBLIC "-//W3C//DTD SVG 1.1//EN"
 "http://www.w3.org/Graphics/SVG/1.1/DTD/svg11.dtd">
<!-- Generated by graphviz version 2.43.0 (0)
 -->
<!-- Title: App/Test/Source/MeshExporter_utest.cpp Pages: 1 -->
<svg width="1448pt" height="368pt"
 viewBox="0.00 0.00 1447.50 368.00" xmlns="http://www.w3.org/2000/svg" xmlns:xlink="http://www.w3.org/1999/xlink">
<g id="graph0" class="graph" transform="scale(1 1) rotate(0) translate(4 364)">
<title>App/Test/Source/MeshExporter_utest.cpp</title>
<!-- Node1 -->
<g id="Node000001" class="node">
<title>Node1</title>
<g id="a_Node000001"><a xlink:title=" ">
<polygon fill="#999999" stroke="#666666" points="1000,-360 836,-360 836,-330 1000,-330 1000,-360"/>
<text text-anchor="start" x="844" y="-348" font-family="Helvetica,sans-Serif" font-size="10.00">App/Test/Source/MeshExporter</text>
<text text-anchor="middle" x="918" y="-337" font-family="Helvetica,sans-Serif" font-size="10.00">_utest.cpp</text>
</a>
</g>
</g>
<!-- Node2 -->
<g id="Node000002" class="node">
<title>Node2</title>
<g id="a_Node000002"><a xlink:href="ExtraDataType_8h.html" target="_top" xlink:title=" ">
<polygon fill="white" stroke="#666666" points="233.5,-184 78.5,-184 78.5,-165 233.5,-165 233.5,-184"/>
<text text-anchor="middle" x="156" y="-172" font-family="Helvetica,sans-Serif" font-size="10.00">Application/ExtraDataType.h</text>
</a>
</g>
</g>
<!-- Node1&#45;&gt;Node2 -->
<g id="edge1_Node000001_Node000002" class="edge">
<title>Node1&#45;&gt;Node2</title>
<g id="a_edge1_Node000001_Node000002"><a xlink:title=" ">
<path fill="none" stroke="#63b8ff" d="M835.96,-342.63C739.73,-339.39 576.03,-328.7 440,-294 339.99,-268.49 229.19,-214 180.84,-188.79"/>
<polygon fill="#63b8ff" stroke="#63b8ff" points="182.24,-185.57 171.76,-184.02 178.98,-191.77 182.24,-185.57"/>
</a>
</g>
</g>
<!-- Node11 -->
<g id="Node000011" class="node">
<title>Node11</title>
<g id="a_Node000011"><a xlink:href="MeshExporter_8h.html" target="_top" xlink:title=" ">
<polygon fill="white" stroke="#666666" points="805,-239 655,-239 655,-220 805,-220 805,-239"/>
<text text-anchor="middle" x="730" y="-227" font-family="Helvetica,sans-Serif" font-size="10.00">Application/MeshExporter.h</text>
</a>
</g>
</g>
<!-- Node1&#45;&gt;Node11 -->
<g id="edge10_Node000001_Node000011" class="edge">
<title>Node1&#45;&gt;Node11</title>
<g id="a_edge10_Node000001_Node000011"><a xlink:title=" ">
<path fill="none" stroke="#63b8ff" d="M887.02,-329.85C867.17,-320.42 841.08,-307.35 819,-294 793.96,-278.87 766.81,-258.94 749.17,-245.47"/>
<polygon fill="#63b8ff" stroke="#63b8ff" points="750.93,-242.41 740.87,-239.08 746.66,-247.96 750.93,-242.41"/>
</a>
</g>
</g>
<!-- Node19 -->
<g id="Node000019" class="node">
<title>Node19</title>
<g id="a_Node000019"><a xlink:title=" ">
<polygon fill="#e0e0e0" stroke="#999999" points="843,-184 775,-184 775,-165 843,-165 843,-184"/>
<text text-anchor="middle" x="809" y="-172" font-family="Helvetica,sans-Serif" font-size="10.00">filesystem</text>
</a>
</g>
</g>
<!-- Node1&#45;&gt;Node19 -->
<g id="edge41_Node000001_Node000019" class="edge">
<title>Node1&#45;&gt;Node19</title>
<g id="a_edge41_Node000001_Node000019"><a xlink:title=" ">
<path fill="none" stroke="#63b8ff" d="M892.87,-329.9C879.16,-321.11 862.83,-308.69 852,-294 829.14,-262.99 817.38,-218.59 812.27,-193.88"/>
<polygon fill="#63b8ff" stroke="#63b8ff" points="815.7,-193.19 810.38,-184.04 808.83,-194.52 815.7,-193.19"/>
</a>
</g>
</g>
<!-- Node20 -->
<g id="Node000020" class="node">
<title>Node20</title>
<g id="a_Node000020"><a xlink:href="PrimitiveProxy_8h.html" target="_top" xlink:title=" ">
<polygon fill="white" stroke="#666666" points="637,-239 483,-239 483,-220 637,-220 637,-239"/>
<text text-anchor="middle" x="560" y="-227" font-family="Helvetica,sans-Serif" font-size="10.00">Application/PrimitiveProxy.h</text>
</a>
</g>
</g>
<!-- Node1&#45;&gt;Node20 -->
<g id="edge25_Node000001_Node000020" class="edge">
<title>Node1&#45;&gt;Node20</title>
<g id="a_edge25_Node000001_Node000020"><a xlink:title=" ">
<path fill="none" stroke="#63b8ff" d="M873.74,-329.97C802.39,-307.35 663.23,-263.23 596.89,-242.2"/>
<polygon fill="#63b8ff" stroke="#63b8ff" points="597.86,-238.83 587.27,-239.14 595.74,-245.5 597.86,-238.83"/>
</a>
</g>
</g>
<!-- Node21 -->
<g id="Node000021" class="node">
<title>Node21</title>
<g id="a_Node000021"><a xlink:href="TestHelpers_8h.html" target="_top" xlink:title=" ">
<polygon fill="white" stroke="#666666" points="589,-294 449,-294 449,-275 589,-275 589,-294"/>
<text text-anchor="middle" x="519" y="-282" font-family="Helvetica,sans-Serif" font-size="10.00">Application/TestHelpers.h</text>
</a>
</g>
</g>
<!-- Node1&#45;&gt;Node21 -->
<g id="edge28_Node000001_Node000021" class="edge">
<title>Node1&#45;&gt;Node21</title>
<g id="a_edge28_Node000001_Node000021"><a xlink:title=" ">
<path fill="none" stroke="#63b8ff" d="M835.81,-331.95C762.47,-321.2 656.32,-305.63 587.48,-295.54"/>
<polygon fill="#63b8ff" stroke="#63b8ff" points="587.59,-292.02 577.18,-294.03 586.57,-298.94 587.59,-292.02"/>
</a>
</g>
</g>
<!-- Node22 -->
<g id="Node000022" class="node">
<title>Node22</title>
<g id="a_Node000022"><a xlink:href="MathHelpers_8h.html" target="_top" xlink:title=" ">
<polygon fill="white" stroke="#666666" points="974.5,-294 861.5,-294 861.5,-275 974.5,-275 974.5,-294"/>
<text text-anchor="middle" x="918" y="-282" font-family="Helvetica,sans-Serif" font-size="10.00">Core/MathHelpers.h</text>
</a>
</g>
</g>
<!-- Node1&#45;&gt;Node22 -->
<g id="edge32_Node000001_Node000022" class="edge">
<title>Node1&#45;&gt;Node22</title>
<g id="a_edge32_Node000001_Node000022"><a xlink:title=" ">
<path fill="none" stroke="#63b8ff" d="M918,-329.84C918,-322.21 918,-312.7 918,-304.45"/>
<polygon fill="#63b8ff" stroke="#63b8ff" points="921.5,-304.27 918,-294.27 914.5,-304.27 921.5,-304.27"/>
</a>
</g>
</g>
<!-- Node25 -->
<g id="Node000025" class="node">
<title>Node25</title>
<g id="a_Node000025"><a xlink:href="PrintHelpers_8h.html" target="_top" xlink:title=" ">
<polygon fill="white" stroke="#666666" points="1103.5,-294 992.5,-294 992.5,-275 1103.5,-275 1103.5,-294"/>
<text text-anchor="middle" x="1048" y="-282" font-family="Helvetica,sans-Serif" font-size="10.00">Core/PrintHelpers.h</text>
</a>
</g>
</g>
<!-- Node1&#45;&gt;Node25 -->
<g id="edge36_Node000001_Node000025" class="edge">
<title>Node1&#45;&gt;Node25</title>
<g id="a_edge36_Node000001_Node000025"><a xlink:title=" ">
<path fill="none" stroke="#63b8ff" d="M949.14,-329.99C970.54,-320.36 998.73,-307.67 1019.53,-298.31"/>
<polygon fill="#63b8ff" stroke="#63b8ff" points="1021.12,-301.43 1028.8,-294.14 1018.25,-295.05 1021.12,-301.43"/>
</a>
</g>
</g>
<!-- Node29 -->
<g id="Node000029" class="node">
<title>Node29</title>
<g id="a_Node000029"><a xlink:title=" ">
<polygon fill="#e0e0e0" stroke="#999999" points="1200,-294 1122,-294 1122,-275 1200,-275 1200,-294"/>
<text text-anchor="middle" x="1161" y="-282" font-family="Helvetica,sans-Serif" font-size="10.00">gtest/gtest.h</text>
</a>
</g>
</g>
<!-- Node1&#45;&gt;Node29 -->
<g id="edge40_Node000001_Node000029" class="edge">
<title>Node1&#45;&gt;Node29</title>
<g id="a_edge40_Node000001_Node000029"><a xlink:title=" ">
<path fill="none" stroke="#63b8ff" d="M976.2,-329.99C1018.96,-319.7 1076.22,-305.91 1115.61,-296.43"/>
<polygon fill="#63b8ff" stroke="#63b8ff" points="1116.57,-299.8 1125.47,-294.05 1114.93,-292.99 1116.57,-299.8"/>
</a>
</g>
</g>
<!-- Node30 -->
<g id="Node000030" class="node">
<title>Node30</title>
<g id="a_Node000030"><a xlink:title=" ">
<polygon fill="#e0e0e0" stroke="#999999" points="1273.5,-294 1218.5,-294 1218.5,-275 1273.5,-275 1273.5,-294"/>
<text text-anchor="middle" x="1246" y="-282" font-family="Helvetica,sans-Serif" font-size="10.00">fstream</text>
</a>
</g>
</g>
<!-- Node1&#45;&gt;Node30 -->
<g id="edge42_Node000001_Node000030" class="edge">
<title>Node1&#45;&gt;Node30</title>
<g id="a_edge42_Node000001_Node000030"><a xlink:title=" ">
<path fill="none" stroke="#63b8ff" d="M1000.07,-331.15C1055.98,-322.1 1131.9,-309.25 1207.92,-294.12"/>
<polygon fill="#63b8ff" stroke="#63b8ff" points="1209.04,-297.47 1218.16,-292.07 1207.66,-290.6 1209.04,-297.47"/>
</a>
</g>
</g>
<!-- Node31 -->
<g id="Node000031" class="node">
<title>Node31</title>
<g id="a_Node000031"><a xlink:title=" ">
<polygon fill="#e0e0e0" stroke="#999999" points="1348,-294 1292,-294 1292,-275 1348,-275 1348,-294"/>
<text text-anchor="middle" x="1320" y="-282" font-family="Helvetica,sans-Serif" font-size="10.00">sstream</text>
</a>
</g>
</g>
<!-- Node1&#45;&gt;Node31 -->
<g id="edge43_Node000001_Node000031" class="edge">
<title>Node1&#45;&gt;Node31</title>
<g id="a_edge43_Node000001_Node000031"><a xlink:title=" ">
<path fill="none" stroke="#63b8ff" d="M1000.24,-334.87C1072.12,-326.4 1179.46,-312.57 1281.88,-294.06"/>
<polygon fill="#63b8ff" stroke="#63b8ff" points="1282.56,-297.5 1291.77,-292.26 1281.31,-290.61 1282.56,-297.5"/>
</a>
</g>
</g>
<!-- Node32 -->
<g id="Node000032" class="node">
<title>Node32</title>
<g id="a_Node000032"><a xlink:title=" ">
<polygon fill="#e0e0e0" stroke="#999999" points="1439.5,-294 1366.5,-294 1366.5,-275 1439.5,-275 1439.5,-294"/>
<text text-anchor="middle" x="1403" y="-282" font-family="Helvetica,sans-Serif" font-size="10.00">string_view</text>
</a>
</g>
</g>
<!-- Node1&#45;&gt;Node32 -->
<g id="edge44_Node000001_Node000032" class="edge">
<title>Node1&#45;&gt;Node32</title>
<g id="a_edge44_Node000001_Node000032"><a xlink:title=" ">
<path fill="none" stroke="#63b8ff" d="M1000.35,-336.34C1086.49,-327.94 1225.85,-313.24 1356.21,-294.02"/>
<polygon fill="#63b8ff" stroke="#63b8ff" points="1357,-297.44 1366.38,-292.5 1355.97,-290.51 1357,-297.44"/>
</a>
</g>
</g>
<!-- Node3 -->
<g id="Node000003" class="node">
<title>Node3</title>
<g id="a_Node000003"><a xlink:href="BaseType_8h.html" target="_top" xlink:title=" ">
<polygon fill="white" stroke="#666666" points="670,-74 572,-74 572,-55 670,-55 670,-74"/>
<text text-anchor="middle" x="621" y="-62" font-family="Helvetica,sans-Serif" font-size="10.00">Core/BaseType.h</text>
</a>
</g>
</g>
<!-- Node2&#45;&gt;Node3 -->
<g id="edge2_Node000002_Node000003" class="edge">
<title>Node2&#45;&gt;Node3</title>
<g id="a_edge2_Node000002_Node000003"><a xlink:title=" ">
<path fill="none" stroke="#63b8ff" d="M209.19,-164.93C249.38,-157.64 305.53,-145.67 353,-129 371.19,-122.61 373.71,-116.11 392,-110 448.18,-91.22 514.92,-79.37 561.81,-72.67"/>
<polygon fill="#63b8ff" stroke="#63b8ff" points="562.38,-76.12 571.8,-71.27 561.41,-69.19 562.38,-76.12"/>
</a>
</g>
</g>
<!-- Node8 -->
<g id="Node000008" class="node">
<title>Node8</title>
<g id="a_Node000008"><a xlink:title=" ">
<polygon fill="#e0e0e0" stroke="#999999" points="219,-74 177,-74 177,-55 219,-55 219,-74"/>
<text text-anchor="middle" x="198" y="-62" font-family="Helvetica,sans-Serif" font-size="10.00">array</text>
</a>
</g>
</g>
<!-- Node2&#45;&gt;Node8 -->
<g id="edge7_Node000002_Node000008" class="edge">
<title>Node2&#45;&gt;Node8</title>
<g id="a_edge7_Node000002_Node000008"><a xlink:title=" ">
<path fill="none" stroke="#63b8ff" d="M135.16,-164.96C110.86,-153.72 75.85,-132.7 91,-110 99.8,-96.81 138.34,-82.99 166.65,-74.32"/>
<polygon fill="#63b8ff" stroke="#63b8ff" points="167.96,-77.58 176.54,-71.37 165.96,-70.87 167.96,-77.58"/>
</a>
</g>
</g>
<!-- Node9 -->
<g id="Node000009" class="node">
<title>Node9</title>
<g id="a_Node000009"><a xlink:title=" ">
<polygon fill="#e0e0e0" stroke="#999999" points="44,-129 0,-129 0,-110 44,-110 44,-129"/>
<text text-anchor="middle" x="22" y="-117" font-family="Helvetica,sans-Serif" font-size="10.00">string</text>
</a>
</g>
</g>
<!-- Node2&#45;&gt;Node9 -->
<g id="edge8_Node000002_Node000009" class="edge">
<title>Node2&#45;&gt;Node9</title>
<g id="a_edge8_Node000002_Node000009"><a xlink:title=" ">
<path fill="none" stroke="#63b8ff" d="M134.47,-164.98C112.53,-156.3 78.26,-142.75 53.31,-132.88"/>
<polygon fill="#63b8ff" stroke="#63b8ff" points="54.51,-129.59 43.92,-129.17 51.93,-136.1 54.51,-129.59"/>
</a>
</g>
</g>
<!-- Node10 -->
<g id="Node000010" class="node">
<title>Node10</title>
<g id="a_Node000010"><a xlink:title=" ">
<polygon fill="#e0e0e0" stroke="#999999" points="147.5,-129 100.5,-129 100.5,-110 147.5,-110 147.5,-129"/>
<text text-anchor="middle" x="124" y="-117" font-family="Helvetica,sans-Serif" font-size="10.00">vector</text>
</a>
</g>
</g>
<!-- Node2&#45;&gt;Node10 -->
<g id="edge9_Node000002_Node000010" class="edge">
<title>Node2&#45;&gt;Node10</title>
<g id="a_edge9_Node000002_Node000010"><a xlink:title=" ">
<path fill="none" stroke="#63b8ff" d="M150.72,-164.75C146.29,-157.42 139.84,-146.73 134.38,-137.7"/>
<polygon fill="#63b8ff" stroke="#63b8ff" points="137.35,-135.84 129.19,-129.09 131.36,-139.46 137.35,-135.84"/>
</a>
</g>
</g>
<!-- Node4 -->
<g id="Node000004" class="node">
<title>Node4</title>
<g id="a_Node000004"><a xlink:title=" ">
<polygon fill="#e0e0e0" stroke="#999999" points="482,-19 404,-19 404,0 482,0 482,-19"/>
<text text-anchor="middle" x="443" y="-7" font-family="Helvetica,sans-Serif" font-size="10.00">glm/glm.hpp</text>
</a>
</g>
</g>
<!-- Node3&#45;&gt;Node4 -->
<g id="edge3_Node000003_Node000004" class="edge">
<title>Node3&#45;&gt;Node4</title>
<g id="a_edge3_Node000003_Node000004"><a xlink:title=" ">
<path fill="none" stroke="#63b8ff" d="M592.4,-54.98C562.39,-46.05 515.02,-31.94 481.68,-22.02"/>
<polygon fill="#63b8ff" stroke="#63b8ff" points="482.41,-18.58 471.82,-19.08 480.41,-25.29 482.41,-18.58"/>
</a>
</g>
</g>
<!-- Node5 -->
<g id="Node000005" class="node">
<title>Node5</title>
<g id="a_Node000005"><a xlink:title=" ">
<polygon fill="#e0e0e0" stroke="#999999" points="641.5,-19 500.5,-19 500.5,0 641.5,0 641.5,-19"/>
<text text-anchor="middle" x="571" y="-7" font-family="Helvetica,sans-Serif" font-size="10.00">glm/gtx/vector_angle.hpp</text>
</a>
</g>
</g>
<!-- Node3&#45;&gt;Node5 -->
<g id="edge4_Node000003_Node000005" class="edge">
<title>Node3&#45;&gt;Node5</title>
<g id="a_edge4_Node000003_Node000005"><a xlink:title=" ">
<path fill="none" stroke="#63b8ff" d="M612.74,-54.75C605.54,-47.11 594.89,-35.82 586.15,-26.56"/>
<polygon fill="#63b8ff" stroke="#63b8ff" points="588.51,-23.96 579.1,-19.09 583.42,-28.76 588.51,-23.96"/>
</a>
</g>
</g>
<!-- Node6 -->
<g id="Node000006" class="node">
<title>Node6</title>
<g id="a_Node000006"><a xlink:title=" ">
<polygon fill="#e0e0e0" stroke="#999999" points="704,-19 660,-19 660,0 704,0 704,-19"/>
<text text-anchor="middle" x="682" y="-7" font-family="Helvetica,sans-Serif" font-size="10.00">bitset</text>
</a>
</g>
</g>
<!-- Node3&#45;&gt;Node6 -->
<g id="edge5_Node000003_Node000006" class="edge">
<title>Node3&#45;&gt;Node6</title>
<g id="a_edge5_Node000003_Node000006"><a xlink:title=" ">
<path fill="none" stroke="#63b8ff" d="M630.8,-54.98C639.82,-47.15 653.41,-35.34 664.32,-25.86"/>
<polygon fill="#63b8ff" stroke="#63b8ff" points="666.77,-28.37 672.02,-19.17 662.18,-23.09 666.77,-28.37"/>
</a>
</g>
</g>
<!-- Node7 -->
<g id="Node000007" class="node">
<title>Node7</title>
<g id="a_Node000007"><a xlink:title=" ">
<polygon fill="#e0e0e0" stroke="#999999" points="772,-19 722,-19 722,0 772,0 772,-19"/>
<text text-anchor="middle" x="747" y="-7" font-family="Helvetica,sans-Serif" font-size="10.00">cstdint</text>
</a>
</g>
</g>
<!-- Node3&#45;&gt;Node7 -->
<g id="edge6_Node000003_Node000007" class="edge">
<title>Node3&#45;&gt;Node7</title>
<g id="a_edge6_Node000003_Node000007"><a xlink:title=" ">
<path fill="none" stroke="#63b8ff" d="M641.24,-54.98C661.7,-46.38 693.53,-32.99 716.93,-23.15"/>
<polygon fill="#63b8ff" stroke="#63b8ff" points="718.53,-26.27 726.39,-19.17 715.81,-19.82 718.53,-26.27"/>
</a>
</g>
</g>
<!-- Node11&#45;&gt;Node3 -->
<g id="edge22_Node000011_Node000003" class="edge">
<title>Node11&#45;&gt;Node3</title>
<g id="a_edge22_Node000011_Node000003"><a xlink:title=" ">
<path fill="none" stroke="#63b8ff" d="M726.55,-219.93C718.17,-199.64 695.31,-147.6 667,-110 659.02,-99.4 648.47,-89 639.49,-80.93"/>
<polygon fill="#63b8ff" stroke="#63b8ff" points="641.64,-78.16 631.8,-74.23 637.04,-83.44 641.64,-78.16"/>
</a>
</g>
</g>
<!-- Node11&#45;&gt;Node7 -->
<g id="edge23_Node000011_Node000007" class="edge">
<title>Node11&#45;&gt;Node7</title>
<g id="a_edge23_Node000011_Node000007"><a xlink:title=" ">
<path fill="none" stroke="#63b8ff" d="M730.67,-219.95C733.16,-187.95 742,-74.68 745.53,-29.4"/>
<polygon fill="#63b8ff" stroke="#63b8ff" points="749.03,-29.47 746.32,-19.22 742.05,-28.92 749.03,-29.47"/>
</a>
</g>
</g>
<!-- Node12 -->
<g id="Node000012" class="node">
<title>Node12</title>
<g id="a_Node000012"><a xlink:href="Mesh_8h.html" target="_top" xlink:title=" ">
<polygon fill="white" stroke="#666666" points="566,-184 456,-184 456,-165 566,-165 566,-184"/>
<text text-anchor="middle" x="511" y="-172" font-family="Helvetica,sans-Serif" font-size="10.00">Application/Mesh.h</text>
</a>
</g>
</g>
<!-- Node11&#45;&gt;Node12 -->
<g id="edge11_Node000011_Node000012" class="edge">
<title>Node11&#45;&gt;Node12</title>
<g id="a_edge11_Node000011_Node000012"><a xlink:title=" ">
<path fill="none" stroke="#63b8ff" d="M694.81,-219.98C657.17,-210.87 597.34,-196.4 556.23,-186.45"/>
<polygon fill="#63b8ff" stroke="#63b8ff" points="557,-183.03 546.46,-184.08 555.36,-189.84 557,-183.03"/>
</a>
</g>
</g>
<!-- Node11&#45;&gt;Node19 -->
<g id="edge24_Node000011_Node000019" class="edge">
<title>Node11&#45;&gt;Node19</title>
<g id="a_edge24_Node000011_Node000019"><a xlink:title=" ">
<path fill="none" stroke="#63b8ff" d="M742.69,-219.98C754.83,-211.84 773.36,-199.41 787.75,-189.76"/>
<polygon fill="#63b8ff" stroke="#63b8ff" points="789.72,-192.65 796.08,-184.17 785.82,-186.84 789.72,-192.65"/>
</a>
</g>
</g>
<!-- Node12&#45;&gt;Node3 -->
<g id="edge19_Node000012_Node000003" class="edge">
<title>Node12&#45;&gt;Node3</title>
<g id="a_edge19_Node000012_Node000003"><a xlink:title=" ">
<path fill="none" stroke="#63b8ff" d="M520,-164.66C538.63,-146.38 581.6,-104.18 605.04,-81.17"/>
<polygon fill="#63b8ff" stroke="#63b8ff" points="607.5,-83.66 612.18,-74.16 602.59,-78.67 607.5,-83.66"/>
</a>
</g>
</g>
<!-- Node12&#45;&gt;Node10 -->
<g id="edge21_Node000012_Node000010" class="edge">
<title>Node12&#45;&gt;Node10</title>
<g id="a_edge21_Node000012_Node000010"><a xlink:title=" ">
<path fill="none" stroke="#63b8ff" d="M455.9,-168.92C387.85,-162.74 268.43,-150.22 157.68,-129.11"/>
<polygon fill="#63b8ff" stroke="#63b8ff" points="158.17,-125.64 147.68,-127.17 156.84,-132.51 158.17,-125.64"/>
</a>
</g>
</g>
<!-- Node13 -->
<g id="Node000013" class="node">
<title>Node13</title>
<g id="a_Node000013"><a xlink:href="ExtraDataContainer_8h.html" target="_top" xlink:title=" ">
<polygon fill="white" stroke="#666666" points="344.5,-129 165.5,-129 165.5,-110 344.5,-110 344.5,-129"/>
<text text-anchor="middle" x="255" y="-117" font-family="Helvetica,sans-Serif" font-size="10.00">Application/ExtraDataContainer.h</text>
</a>
</g>
</g>
<!-- Node12&#45;&gt;Node13 -->
<g id="edge12_Node000012_Node000013" class="edge">
<title>Node12&#45;&gt;Node13</title>
<g id="a_edge12_Node000012_Node000013"><a xlink:title=" ">
<path fill="none" stroke="#63b8ff" d="M469.87,-164.98C425.4,-155.78 354.45,-141.09 306.35,-131.13"/>
<polygon fill="#63b8ff" stroke="#63b8ff" points="306.96,-127.68 296.45,-129.08 305.54,-134.54 306.96,-127.68"/>
</a>
</g>
</g>
<!-- Node17 -->
<g id="Node000017" class="node">
<title>Node17</title>
<g id="a_Node000017"><a xlink:href="Primitive_8h.html" target="_top" xlink:title=" ">
<polygon fill="white" stroke="#666666" points="529,-129 401,-129 401,-110 529,-110 529,-129"/>
<text text-anchor="middle" x="465" y="-117" font-family="Helvetica,sans-Serif" font-size="10.00">Application/Primitive.h</text>
</a>
</g>
</g>
<!-- Node12&#45;&gt;Node17 -->
<g id="edge16_Node000012_Node000017" class="edge">
<title>Node12&#45;&gt;Node17</title>
<g id="a_edge16_Node000012_Node000017"><a xlink:title=" ">
<path fill="none" stroke="#63b8ff" d="M503.4,-164.75C496.84,-157.18 487.18,-146.05 479.19,-136.84"/>
<polygon fill="#63b8ff" stroke="#63b8ff" points="481.65,-134.35 472.45,-129.09 476.37,-138.94 481.65,-134.35"/>
</a>
</g>
</g>
<!-- Node18 -->
<g id="Node000018" class="node">
<title>Node18</title>
<g id="a_Node000018"><a xlink:title=" ">
<polygon fill="#e0e0e0" stroke="#999999" points="643,-129 585,-129 585,-110 643,-110 643,-129"/>
<text text-anchor="middle" x="614" y="-117" font-family="Helvetica,sans-Serif" font-size="10.00">memory</text>
</a>
</g>
</g>
<!-- Node12&#45;&gt;Node18 -->
<g id="edge20_Node000012_Node000018" class="edge">
<title>Node12&#45;&gt;Node18</title>
<g id="a_edge20_Node000012_Node000018"><a xlink:title=" ">
<path fill="none" stroke="#63b8ff" d="M527.55,-164.98C543.89,-156.57 569.13,-143.59 588.13,-133.81"/>
<polygon fill="#63b8ff" stroke="#63b8ff" points="589.86,-136.86 597.15,-129.17 586.66,-130.63 589.86,-136.86"/>
</a>
</g>
</g>
<!-- Node14 -->
<g id="Node000014" class="node">
<title>Node14</title>
<g id="a_Node000014"><a xlink:title=" ">
<polygon fill="#e0e0e0" stroke="#999999" points="272.5,-74 237.5,-74 237.5,-55 272.5,-55 272.5,-74"/>
<text text-anchor="middle" x="255" y="-62" font-family="Helvetica,sans-Serif" font-size="10.00">any</text>
</a>
</g>
</g>
<!-- Node13&#45;&gt;Node14 -->
<g id="edge13_Node000013_Node000014" class="edge">
<title>Node13&#45;&gt;Node14</title>
<g id="a_edge13_Node000013_Node000014"><a xlink:title=" ">
<path fill="none" stroke="#63b8ff" d="M255,-109.75C255,-102.8 255,-92.85 255,-84.13"/>
<polygon fill="#63b8ff" stroke="#63b8ff" points="258.5,-84.09 255,-74.09 251.5,-84.09 258.5,-84.09"/>
</a>
</g>
</g>
<!-- Node15 -->
<g id="Node000015" class="node">
<title>Node15</title>
<g id="a_Node000015"><a xlink:title=" ">
<polygon fill="#e0e0e0" stroke="#999999" points="355.5,-74 290.5,-74 290.5,-55 355.5,-55 355.5,-74"/>
<text text-anchor="middle" x="323" y="-62" font-family="Helvetica,sans-Serif" font-size="10.00">typeindex</text>
</a>
</g>
</g>
<!-- Node13&#45;&gt;Node15 -->
<g id="edge14_Node000013_Node000015" class="edge">
<title>Node13&#45;&gt;Node15</title>
<g id="a_edge14_Node000013_Node000015"><a xlink:title=" ">
<path fill="none" stroke="#63b8ff" d="M265.93,-109.98C276.08,-102.07 291.42,-90.11 303.65,-80.58"/>
<polygon fill="#63b8ff" stroke="#63b8ff" points="306.14,-83.08 311.88,-74.17 301.84,-77.56 306.14,-83.08"/>
</a>
</g>
</g>
<!-- Node16 -->
<g id="Node000016" class="node">
<title>Node16</title>
<g id="a_Node000016"><a xlink:title=" ">
<polygon fill="#e0e0e0" stroke="#999999" points="158.5,-74 65.5,-74 65.5,-55 158.5,-55 158.5,-74"/>
<text text-anchor="middle" x="112" y="-62" font-family="Helvetica,sans-Serif" font-size="10.00">unordered_map</text>
</a>
</g>
</g>
<!-- Node13&#45;&gt;Node16 -->
<g id="edge15_Node000013_Node000016" class="edge">
<title>Node13&#45;&gt;Node16</title>
<g id="a_edge15_Node000013_Node000016"><a xlink:title=" ">
<path fill="none" stroke="#63b8ff" d="M232.02,-109.98C208.5,-101.27 171.71,-87.63 145.06,-77.75"/>
<polygon fill="#63b8ff" stroke="#63b8ff" points="145.99,-74.36 135.39,-74.17 143.55,-80.93 145.99,-74.36"/>
</a>
</g>
</g>
<!-- Node17&#45;&gt;Node3 -->
<g id="edge17_Node000017_Node000003" class="edge">
<title>Node17&#45;&gt;Node3</title>
<g id="a_edge17_Node000017_Node000003"><a xlink:title=" ">
<path fill="none" stroke="#63b8ff" d="M490.06,-109.98C516.03,-101.16 556.81,-87.31 585.96,-77.41"/>
<polygon fill="#63b8ff" stroke="#63b8ff" points="587.4,-80.61 595.74,-74.08 585.15,-73.99 587.4,-80.61"/>
</a>
</g>
</g>
<!-- Node17&#45;&gt;Node8 -->
<g id="edge18_Node000017_Node000008" class="edge">
<title>Node17&#45;&gt;Node8</title>
<g id="a_edge18_Node000017_Node000008"><a xlink:title=" ">
<path fill="none" stroke="#63b8ff" d="M412,-109.96C366.04,-102.24 297.55,-89.97 229.31,-74.14"/>
<polygon fill="#63b8ff" stroke="#63b8ff" points="229.78,-70.65 219.24,-71.78 228.18,-77.47 229.78,-70.65"/>
</a>
</g>
</g>
<!-- Node20&#45;&gt;Node3 -->
<g id="edge27_Node000020_Node000003" class="edge">
<title>Node20&#45;&gt;Node3</title>
<g id="a_edge27_Node000020_Node000003"><a xlink:title=" ">
<path fill="none" stroke="#63b8ff" d="M572.61,-219.89C593.82,-204.54 635.88,-170.19 652,-129 658.46,-112.51 647.77,-94.42 637.22,-81.78"/>
<polygon fill="#63b8ff" stroke="#63b8ff" points="639.8,-79.41 630.5,-74.34 634.6,-84.1 639.8,-79.41"/>
</a>
</g>
</g>
<!-- Node20&#45;&gt;Node12 -->
<g id="edge26_Node000020_Node000012" class="edge">
<title>Node20&#45;&gt;Node12</title>
<g id="a_edge26_Node000020_Node000012"><a xlink:title=" ">
<path fill="none" stroke="#63b8ff" d="M551.91,-219.75C544.84,-212.11 534.41,-200.82 525.85,-191.56"/>
<polygon fill="#63b8ff" stroke="#63b8ff" points="528.3,-189.06 518.94,-184.09 523.16,-193.81 528.3,-189.06"/>
</a>
</g>
</g>
<!-- Node21&#45;&gt;Node2 -->
<g id="edge29_Node000021_Node000002" class="edge">
<title>Node21&#45;&gt;Node2</title>
<g id="a_edge29_Node000021_Node000002"><a xlink:title=" ">
<path fill="none" stroke="#63b8ff" d="M490.21,-274.94C425.35,-255.64 267.74,-208.74 194.54,-186.97"/>
<polygon fill="#63b8ff" stroke="#63b8ff" points="195.37,-183.56 184.79,-184.07 193.38,-190.27 195.37,-183.56"/>
</a>
</g>
</g>
<!-- Node21&#45;&gt;Node12 -->
<g id="edge30_Node000021_Node000012" class="edge">
<title>Node21&#45;&gt;Node12</title>
<g id="a_edge30_Node000021_Node000012"><a xlink:title=" ">
<path fill="none" stroke="#63b8ff" d="M505.51,-274.75C494.71,-266.87 480.35,-254.21 474,-239 466.84,-221.84 479.82,-203.64 492.34,-191.14"/>
<polygon fill="#63b8ff" stroke="#63b8ff" points="494.92,-193.52 499.88,-184.16 490.17,-188.38 494.92,-193.52"/>
</a>
</g>
</g>
<!-- Node21&#45;&gt;Node20 -->
<g id="edge31_Node000021_Node000020" class="edge">
<title>Node21&#45;&gt;Node20</title>
<g id="a_edge31_Node000021_Node000020"><a xlink:title=" ">
<path fill="none" stroke="#63b8ff" d="M525.77,-274.75C531.56,-267.26 540.06,-256.28 547.14,-247.13"/>
<polygon fill="#63b8ff" stroke="#63b8ff" points="550.01,-249.14 553.36,-239.09 544.47,-244.86 550.01,-249.14"/>
</a>
</g>
</g>
<!-- Node22&#45;&gt;Node3 -->
<g id="edge33_Node000022_Node000003" class="edge">
<title>Node22&#45;&gt;Node3</title>
<g id="a_edge33_Node000022_Node000003"><a xlink:title=" ">
<path fill="none" stroke="#63b8ff" d="M912.19,-274.77C906.36,-265.9 897.23,-251.69 890,-239 871.69,-206.88 879.01,-190.24 852,-165 800.56,-116.92 722.27,-89.94 671.37,-76.54"/>
<polygon fill="#63b8ff" stroke="#63b8ff" points="672.12,-73.12 661.57,-74.04 670.39,-79.91 672.12,-73.12"/>
</a>
</g>
</g>
<!-- Node23 -->
<g id="Node000023" class="node">
<title>Node23</title>
<g id="a_Node000023"><a xlink:title=" ">
<polygon fill="#e0e0e0" stroke="#999999" points="946.5,-239 899.5,-239 899.5,-220 946.5,-220 946.5,-239"/>
<text text-anchor="middle" x="923" y="-227" font-family="Helvetica,sans-Serif" font-size="10.00">cmath</text>
</a>
</g>
</g>
<!-- Node22&#45;&gt;Node23 -->
<g id="edge34_Node000022_Node000023" class="edge">
<title>Node22&#45;&gt;Node23</title>
<g id="a_edge34_Node000022_Node000023"><a xlink:title=" ">
<path fill="none" stroke="#63b8ff" d="M918.83,-274.75C919.48,-267.8 920.42,-257.85 921.24,-249.13"/>
<polygon fill="#63b8ff" stroke="#63b8ff" points="924.73,-249.37 922.19,-239.09 917.77,-248.72 924.73,-249.37"/>
</a>
</g>
</g>
<!-- Node24 -->
<g id="Node000024" class="node">
<title>Node24</title>
<g id="a_Node000024"><a xlink:title=" ">
<polygon fill="#e0e0e0" stroke="#999999" points="1009,-239 965,-239 965,-220 1009,-220 1009,-239"/>
<text text-anchor="middle" x="987" y="-227" font-family="Helvetica,sans-Serif" font-size="10.00">limits</text>
</a>
</g>
</g>
<!-- Node22&#45;&gt;Node24 -->
<g id="edge35_Node000022_Node000024" class="edge">
<title>Node22&#45;&gt;Node24</title>
<g id="a_edge35_Node000022_Node000024"><a xlink:title=" ">
<path fill="none" stroke="#63b8ff" d="M929.09,-274.98C939.49,-267 955.26,-254.88 967.72,-245.31"/>
<polygon fill="#63b8ff" stroke="#63b8ff" points="969.91,-248.04 975.71,-239.17 965.65,-242.49 969.91,-248.04"/>
</a>
</g>
</g>
<!-- Node26 -->
<g id="Node000026" class="node">
<title>Node26</title>
<g id="a_Node000026"><a xlink:title=" ">
<polygon fill="#e0e0e0" stroke="#999999" points="1077,-239 1027,-239 1027,-220 1077,-220 1077,-239"/>
<text text-anchor="middle" x="1052" y="-227" font-family="Helvetica,sans-Serif" font-size="10.00">format</text>
</a>
</g>
</g>
<!-- Node25&#45;&gt;Node26 -->
<g id="edge37_Node000025_Node000026" class="edge">
<title>Node25&#45;&gt;Node26</title>
<g id="a_edge37_Node000025_Node000026"><a xlink:title=" ">
<path fill="none" stroke="#63b8ff" d="M1048.66,-274.75C1049.18,-267.8 1049.94,-257.85 1050.59,-249.13"/>
<polygon fill="#63b8ff" stroke="#63b8ff" points="1054.09,-249.32 1051.35,-239.09 1047.11,-248.8 1054.09,-249.32"/>
</a>
</g>
</g>
<!-- Node27 -->
<g id="Node000027" class="node">
<title>Node27</title>
<g id="a_Node000027"><a xlink:title=" ">
<polygon fill="#e0e0e0" stroke="#999999" points="1155,-239 1095,-239 1095,-220 1155,-220 1155,-239"/>
<text text-anchor="middle" x="1125" y="-227" font-family="Helvetica,sans-Serif" font-size="10.00">iostream</text>
</a>
</g>
</g>
<!-- Node25&#45;&gt;Node27 -->
<g id="edge38_Node000025_Node000027" class="edge">
<title>Node25&#45;&gt;Node27</title>
<g id="a_edge38_Node000025_Node000027"><a xlink:title=" ">
<path fill="none" stroke="#63b8ff" d="M1060.37,-274.98C1072.09,-266.92 1089.92,-254.65 1103.89,-245.03"/>
<polygon fill="#63b8ff" stroke="#63b8ff" points="1106.15,-247.72 1112.4,-239.17 1102.18,-241.96 1106.15,-247.72"/>
</a>
</g>
</g>
<!-- Node28 -->
<g id="Node000028" class="node">
<title>Node28</title>
<g id="a_Node000028"><a xlink:title=" ">
<polygon fill="#e0e0e0" stroke="#999999" points="1266.5,-239 1173.5,-239 1173.5,-220 1266.5,-220 1266.5,-239"/>
<text text-anchor="middle" x="1220" y="-227" font-family="Helvetica,sans-Serif" font-size="10.00">source_location</text>
</a>
</g>
</g>
<!-- Node25&#45;&gt;Node28 -->
<g id="edge39_Node000025_Node000028" class="edge">
<title>Node25&#45;&gt;Node28</title>
<g id="a_edge39_Node000025_Node000028"><a xlink:title=" ">
<path fill="none" stroke="#63b8ff" d="M1075.63,-274.98C1104.51,-266.09 1150.01,-252.07 1182.2,-242.15"/>
<polygon fill="#63b8ff" stroke="#63b8ff" points="1183.62,-245.37 1192.15,-239.08 1181.56,-238.68 1183.62,-245.37"/>
</a>
</g>
</g>
</g>
</svg>
