<?xml version="1.0" encoding="UTF-8" standalone="no"?>
<!DOCTYPE svg PUBLIC "-//W3C//DTD SVG 1.1//EN"
 "http://www.w3.org/Graphics/SVG/1.1/DTD/svg11.dtd">
<!-- Generated by graphviz version 2.43.0 (0)
 -->
<!-- Title: App/Include/Application/Mesh.h Pages: 1 -->
<svg width="1648pt" height="236pt"
 viewBox="0.00 0.00 1647.59 236.00" xmlns="http://www.w3.org/2000/svg" xmlns:xlink="http://www.w3.org/1999/xlink">
<g id="graph0" class="graph" transform="scale(1 1) rotate(0) translate(4 232)">
<title>App/Include/Application/Mesh.h</title>
<!-- Node1 -->
<g id="Node000001" class="node">
<title>Node1</title>
<g id="a_Node000001"><a xlink:title=" ">
<polygon fill="#999999" stroke="#666666" points="962.59,-228 831.59,-228 831.59,-198 962.59,-198 962.59,-228"/>
<text text-anchor="start" x="839.59" y="-216" font-family="Helvetica,sans-Serif" font-size="10.00">App/Include/Application</text>
<text text-anchor="middle" x="897.09" y="-205" font-family="Helvetica,sans-Serif" font-size="10.00">/Mesh.h</text>
</a>
</g>
</g>
<!-- Node2 -->
<g id="Node000002" class="node">
<title>Node2</title>
<g id="a_Node000002"><a xlink:href="MeshExporter_8h.html" target="_top" xlink:title=" ">
<polygon fill="white" stroke="#666666" points="813.59,-162 682.59,-162 682.59,-132 813.59,-132 813.59,-162"/>
<text text-anchor="start" x="690.59" y="-150" font-family="Helvetica,sans-Serif" font-size="10.00">App/Include/Application</text>
<text text-anchor="middle" x="748.09" y="-139" font-family="Helvetica,sans-Serif" font-size="10.00">/MeshExporter.h</text>
</a>
</g>
</g>
<!-- Node1&#45;&gt;Node2 -->
<g id="edge1_Node000001_Node000002" class="edge">
<title>Node1&#45;&gt;Node2</title>
<g id="a_edge1_Node000001_Node000002"><a xlink:title=" ">
<path fill="none" stroke="#63b8ff" d="M855,-193.92C831.45,-183.8 802.53,-171.38 780.71,-162.01"/>
<polygon fill="#63b8ff" stroke="#63b8ff" points="853.82,-197.22 864.39,-197.95 856.59,-190.79 853.82,-197.22"/>
</a>
</g>
</g>
<!-- Node5 -->
<g id="Node000005" class="node">
<title>Node5</title>
<g id="a_Node000005"><a xlink:href="MeshIntegrity_8h.html" target="_top" xlink:title=" ">
<polygon fill="white" stroke="#666666" points="283.59,-162 152.59,-162 152.59,-132 283.59,-132 283.59,-162"/>
<text text-anchor="start" x="160.59" y="-150" font-family="Helvetica,sans-Serif" font-size="10.00">App/Include/Application</text>
<text text-anchor="middle" x="218.09" y="-139" font-family="Helvetica,sans-Serif" font-size="10.00">/MeshIntegrity.h</text>
</a>
</g>
</g>
<!-- Node1&#45;&gt;Node5 -->
<g id="edge4_Node000001_Node000005" class="edge">
<title>Node1&#45;&gt;Node5</title>
<g id="a_edge4_Node000001_Node000005"><a xlink:title=" ">
<path fill="none" stroke="#63b8ff" d="M821.18,-204.85C687.05,-192.2 410.38,-166.12 283.85,-154.2"/>
<polygon fill="#63b8ff" stroke="#63b8ff" points="821.09,-208.35 831.37,-205.81 821.74,-201.38 821.09,-208.35"/>
</a>
</g>
</g>
<!-- Node9 -->
<g id="Node000009" class="node">
<title>Node9</title>
<g id="a_Node000009"><a xlink:href="Mesh__utest_8cpp.html" target="_top" xlink:title=" ">
<polygon fill="white" stroke="#666666" points="491.59,-30 368.59,-30 368.59,0 491.59,0 491.59,-30"/>
<text text-anchor="start" x="376.59" y="-18" font-family="Helvetica,sans-Serif" font-size="10.00">App/Test/Source/Mesh</text>
<text text-anchor="middle" x="430.09" y="-7" font-family="Helvetica,sans-Serif" font-size="10.00">_utest.cpp</text>
</a>
</g>
</g>
<!-- Node1&#45;&gt;Node9 -->
<g id="edge32_Node000001_Node000009" class="edge">
<title>Node1&#45;&gt;Node9</title>
<g id="a_edge32_Node000001_Node000009"><a xlink:title=" ">
<path fill="none" stroke="#63b8ff" d="M821.49,-210.64C656.66,-207.07 269.61,-195.33 143.09,-162 77.74,-144.78 42.05,-153.23 6.09,-96 -1,-84.71 -2.77,-75.96 6.09,-66 29.73,-39.41 256.41,-24.58 368.27,-18.83"/>
<polygon fill="#63b8ff" stroke="#63b8ff" points="821.47,-214.14 831.54,-210.85 821.62,-207.14 821.47,-214.14"/>
</a>
</g>
</g>
<!-- Node10 -->
<g id="Node000010" class="node">
<title>Node10</title>
<g id="a_Node000010"><a xlink:href="MeshLoader_8h.html" target="_top" xlink:title=" ">
<polygon fill="white" stroke="#666666" points="547.59,-162 416.59,-162 416.59,-132 547.59,-132 547.59,-162"/>
<text text-anchor="start" x="424.59" y="-150" font-family="Helvetica,sans-Serif" font-size="10.00">App/Include/Application</text>
<text text-anchor="middle" x="482.09" y="-139" font-family="Helvetica,sans-Serif" font-size="10.00">/MeshLoader.h</text>
</a>
</g>
</g>
<!-- Node1&#45;&gt;Node10 -->
<g id="edge9_Node000001_Node000010" class="edge">
<title>Node1&#45;&gt;Node10</title>
<g id="a_edge9_Node000001_Node000010"><a xlink:title=" ">
<path fill="none" stroke="#63b8ff" d="M821.06,-200.27C742.81,-188.21 622.16,-169.6 547.89,-158.15"/>
<polygon fill="#63b8ff" stroke="#63b8ff" points="820.92,-203.79 831.33,-201.86 821.98,-196.88 820.92,-203.79"/>
</a>
</g>
</g>
<!-- Node12 -->
<g id="Node000012" class="node">
<title>Node12</title>
<g id="a_Node000012"><a xlink:href="PrimitiveProxy_8h.html" target="_top" xlink:title=" ">
<polygon fill="white" stroke="#666666" points="962.59,-162 831.59,-162 831.59,-132 962.59,-132 962.59,-162"/>
<text text-anchor="start" x="839.59" y="-150" font-family="Helvetica,sans-Serif" font-size="10.00">App/Include/Application</text>
<text text-anchor="middle" x="897.09" y="-139" font-family="Helvetica,sans-Serif" font-size="10.00">/PrimitiveProxy.h</text>
</a>
</g>
</g>
<!-- Node1&#45;&gt;Node12 -->
<g id="edge13_Node000001_Node000012" class="edge">
<title>Node1&#45;&gt;Node12</title>
<g id="a_edge13_Node000001_Node000012"><a xlink:title=" ">
<path fill="none" stroke="#63b8ff" d="M897.09,-187.54C897.09,-178.96 897.09,-169.61 897.09,-162.16"/>
<polygon fill="#63b8ff" stroke="#63b8ff" points="893.59,-187.8 897.09,-197.8 900.59,-187.8 893.59,-187.8"/>
</a>
</g>
</g>
<!-- Node13 -->
<g id="Node000013" class="node">
<title>Node13</title>
<g id="a_Node000013"><a xlink:href="TestHelpers_8h.html" target="_top" xlink:title=" ">
<polygon fill="white" stroke="#666666" points="1238.59,-96 1107.59,-96 1107.59,-66 1238.59,-66 1238.59,-96"/>
<text text-anchor="start" x="1115.59" y="-84" font-family="Helvetica,sans-Serif" font-size="10.00">App/Include/Application</text>
<text text-anchor="middle" x="1173.09" y="-73" font-family="Helvetica,sans-Serif" font-size="10.00">/TestHelpers.h</text>
</a>
</g>
</g>
<!-- Node1&#45;&gt;Node13 -->
<g id="edge28_Node000001_Node000013" class="edge">
<title>Node1&#45;&gt;Node13</title>
<g id="a_edge28_Node000001_Node000013"><a xlink:title=" ">
<path fill="none" stroke="#63b8ff" d="M936.07,-193.64C991.72,-167.43 1092.73,-119.85 1143,-96.17"/>
<polygon fill="#63b8ff" stroke="#63b8ff" points="934.45,-190.54 926.89,-197.96 937.43,-196.87 934.45,-190.54"/>
</a>
</g>
</g>
<!-- Node14 -->
<g id="Node000014" class="node">
<title>Node14</title>
<g id="a_Node000014"><a xlink:href="MeshCirculator__utest_8cpp.html" target="_top" xlink:title=" ">
<polygon fill="white" stroke="#666666" points="1505.09,-30 1335.09,-30 1335.09,0 1505.09,0 1505.09,-30"/>
<text text-anchor="start" x="1343.09" y="-18" font-family="Helvetica,sans-Serif" font-size="10.00">App/Test/Source/MeshCirculator</text>
<text text-anchor="middle" x="1420.09" y="-7" font-family="Helvetica,sans-Serif" font-size="10.00">_utest.cpp</text>
</a>
</g>
</g>
<!-- Node1&#45;&gt;Node14 -->
<g id="edge31_Node000001_Node000014" class="edge">
<title>Node1&#45;&gt;Node14</title>
<g id="a_edge31_Node000001_Node000014"><a xlink:title=" ">
<path fill="none" stroke="#63b8ff" d="M972.75,-206.84C1105.22,-196.04 1370.43,-166.03 1426.09,-96 1441,-77.25 1433.17,-47.58 1426.42,-30.13"/>
<polygon fill="#63b8ff" stroke="#63b8ff" points="972.36,-203.36 962.67,-207.64 972.92,-210.34 972.36,-203.36"/>
</a>
</g>
</g>
<!-- Node16 -->
<g id="Node000016" class="node">
<title>Node16</title>
<g id="a_Node000016"><a xlink:href="Mesh_8cpp.html" target="_top" xlink:title=" ">
<polygon fill="white" stroke="#666666" points="1416.59,-90.5 1295.59,-90.5 1295.59,-71.5 1416.59,-71.5 1416.59,-90.5"/>
<text text-anchor="middle" x="1356.09" y="-78.5" font-family="Helvetica,sans-Serif" font-size="10.00">App/Source/Mesh.cpp</text>
</a>
</g>
</g>
<!-- Node1&#45;&gt;Node16 -->
<g id="edge29_Node000001_Node000016" class="edge">
<title>Node1&#45;&gt;Node16</title>
<g id="a_edge29_Node000001_Node000016"><a xlink:title=" ">
<path fill="none" stroke="#63b8ff" d="M956.51,-195.17C1055.61,-167.1 1251.15,-111.72 1325.98,-90.53"/>
<polygon fill="#63b8ff" stroke="#63b8ff" points="955.32,-191.87 946.65,-197.96 957.22,-198.61 955.32,-191.87"/>
</a>
</g>
</g>
<!-- Node18 -->
<g id="Node000018" class="node">
<title>Node18</title>
<g id="a_Node000018"><a xlink:href="MeshCirculator_8cpp.html" target="_top" xlink:title=" ">
<polygon fill="white" stroke="#666666" points="1639.59,-156.5 1472.59,-156.5 1472.59,-137.5 1639.59,-137.5 1639.59,-156.5"/>
<text text-anchor="middle" x="1556.09" y="-144.5" font-family="Helvetica,sans-Serif" font-size="10.00">App/Source/MeshCirculator.cpp</text>
</a>
</g>
</g>
<!-- Node1&#45;&gt;Node18 -->
<g id="edge30_Node000001_Node000018" class="edge">
<title>Node1&#45;&gt;Node18</title>
<g id="a_edge30_Node000001_Node000018"><a xlink:title=" ">
<path fill="none" stroke="#63b8ff" d="M973.13,-206.56C1081.28,-198.52 1285.66,-182.22 1459.09,-162 1472.61,-160.42 1487.16,-158.47 1500.76,-156.52"/>
<polygon fill="#63b8ff" stroke="#63b8ff" points="972.68,-203.08 962.97,-207.31 973.2,-210.06 972.68,-203.08"/>
</a>
</g>
</g>
<!-- Node3 -->
<g id="Node000003" class="node">
<title>Node3</title>
<g id="a_Node000003"><a xlink:href="MeshExporter_8cpp.html" target="_top" xlink:title=" ">
<polygon fill="white" stroke="#666666" points="829.59,-90.5 668.59,-90.5 668.59,-71.5 829.59,-71.5 829.59,-90.5"/>
<text text-anchor="middle" x="749.09" y="-78.5" font-family="Helvetica,sans-Serif" font-size="10.00">App/Source/MeshExporter.cpp</text>
</a>
</g>
</g>
<!-- Node2&#45;&gt;Node3 -->
<g id="edge2_Node000002_Node000003" class="edge">
<title>Node2&#45;&gt;Node3</title>
<g id="a_edge2_Node000002_Node000003"><a xlink:title=" ">
<path fill="none" stroke="#63b8ff" d="M748.47,-121.6C748.64,-110.8 748.83,-98.78 748.95,-90.84"/>
<polygon fill="#63b8ff" stroke="#63b8ff" points="744.97,-121.74 748.31,-131.8 751.97,-121.85 744.97,-121.74"/>
</a>
</g>
</g>
<!-- Node4 -->
<g id="Node000004" class="node">
<title>Node4</title>
<g id="a_Node000004"><a xlink:href="MeshExporter__utest_8cpp.html" target="_top" xlink:title=" ">
<polygon fill="white" stroke="#666666" points="978.09,-30 814.09,-30 814.09,0 978.09,0 978.09,-30"/>
<text text-anchor="start" x="822.09" y="-18" font-family="Helvetica,sans-Serif" font-size="10.00">App/Test/Source/MeshExporter</text>
<text text-anchor="middle" x="896.09" y="-7" font-family="Helvetica,sans-Serif" font-size="10.00">_utest.cpp</text>
</a>
</g>
</g>
<!-- Node2&#45;&gt;Node4 -->
<g id="edge3_Node000002_Node000004" class="edge">
<title>Node2&#45;&gt;Node4</title>
<g id="a_edge3_Node000002_Node000004"><a xlink:title=" ">
<path fill="none" stroke="#63b8ff" d="M702.96,-127.74C672.05,-112.57 639.86,-89.72 659.09,-66 678.53,-42.04 753.56,-29.12 814.06,-22.45"/>
<polygon fill="#63b8ff" stroke="#63b8ff" points="701.48,-130.91 712.02,-132 704.46,-124.58 701.48,-130.91"/>
</a>
</g>
</g>
<!-- Node6 -->
<g id="Node000006" class="node">
<title>Node6</title>
<g id="a_Node000006"><a xlink:href="MeshIntegrity_8cpp.html" target="_top" xlink:title=" ">
<polygon fill="white" stroke="#666666" points="189.59,-90.5 28.59,-90.5 28.59,-71.5 189.59,-71.5 189.59,-90.5"/>
<text text-anchor="middle" x="109.09" y="-78.5" font-family="Helvetica,sans-Serif" font-size="10.00">App/Source/MeshIntegrity.cpp</text>
</a>
</g>
</g>
<!-- Node5&#45;&gt;Node6 -->
<g id="edge5_Node000005_Node000006" class="edge">
<title>Node5&#45;&gt;Node6</title>
<g id="a_edge5_Node000005_Node000006"><a xlink:title=" ">
<path fill="none" stroke="#63b8ff" d="M185.41,-126.81C164.84,-114.73 139.3,-99.73 123.6,-90.52"/>
<polygon fill="#63b8ff" stroke="#63b8ff" points="183.78,-129.91 194.17,-131.95 187.32,-123.87 183.78,-129.91"/>
</a>
</g>
</g>
<!-- Node7 -->
<g id="Node000007" class="node">
<title>Node7</title>
<g id="a_Node000007"><a xlink:href="MeshIntegrity__utest_8cpp.html" target="_top" xlink:title=" ">
<polygon fill="white" stroke="#666666" points="735.09,-30 571.09,-30 571.09,0 735.09,0 735.09,-30"/>
<text text-anchor="start" x="579.09" y="-18" font-family="Helvetica,sans-Serif" font-size="10.00">App/Test/Source/MeshIntegrity</text>
<text text-anchor="middle" x="653.09" y="-7" font-family="Helvetica,sans-Serif" font-size="10.00">_utest.cpp</text>
</a>
</g>
</g>
<!-- Node5&#45;&gt;Node7 -->
<g id="edge6_Node000005_Node000007" class="edge">
<title>Node5&#45;&gt;Node7</title>
<g id="a_edge6_Node000005_Node000007"><a xlink:title=" ">
<path fill="none" stroke="#63b8ff" d="M217,-121.61C217.62,-103.54 221.67,-79.76 237.09,-66 249.41,-55.01 453.36,-34.47 571.03,-23.45"/>
<polygon fill="#63b8ff" stroke="#63b8ff" points="213.5,-121.72 216.99,-131.72 220.5,-121.73 213.5,-121.72"/>
</a>
</g>
</g>
<!-- Node8 -->
<g id="Node000008" class="node">
<title>Node8</title>
<g id="a_Node000008"><a xlink:href="MeshLoader__utest_8cpp.html" target="_top" xlink:title=" ">
<polygon fill="white" stroke="#666666" points="402.09,-96 246.09,-96 246.09,-66 402.09,-66 402.09,-96"/>
<text text-anchor="start" x="254.09" y="-84" font-family="Helvetica,sans-Serif" font-size="10.00">App/Test/Source/MeshLoader</text>
<text text-anchor="middle" x="324.09" y="-73" font-family="Helvetica,sans-Serif" font-size="10.00">_utest.cpp</text>
</a>
</g>
</g>
<!-- Node5&#45;&gt;Node8 -->
<g id="edge7_Node000005_Node000008" class="edge">
<title>Node5&#45;&gt;Node8</title>
<g id="a_edge7_Node000005_Node000008"><a xlink:title=" ">
<path fill="none" stroke="#63b8ff" d="M250.07,-126.69C266.43,-116.82 285.98,-105.01 300.88,-96.01"/>
<polygon fill="#63b8ff" stroke="#63b8ff" points="248.11,-123.79 241.35,-131.95 251.72,-129.78 248.11,-123.79"/>
</a>
</g>
</g>
<!-- Node5&#45;&gt;Node9 -->
<g id="edge8_Node000005_Node000009" class="edge">
<title>Node5&#45;&gt;Node9</title>
<g id="a_edge8_Node000005_Node000009"><a xlink:title=" ">
<path fill="none" stroke="#63b8ff" d="M142.56,-140C70.62,-131.46 -21.17,-111.46 19.09,-66 41.85,-40.31 259.43,-25.12 368.46,-19.06"/>
<polygon fill="#63b8ff" stroke="#63b8ff" points="142.23,-143.48 152.56,-141.13 143.02,-136.53 142.23,-143.48"/>
</a>
</g>
</g>
<!-- Node10&#45;&gt;Node8 -->
<g id="edge11_Node000010_Node000008" class="edge">
<title>Node10&#45;&gt;Node8</title>
<g id="a_edge11_Node000010_Node000008"><a xlink:title=" ">
<path fill="none" stroke="#63b8ff" d="M438.12,-128.19C413.03,-118.02 382.03,-105.47 358.69,-96.01"/>
<polygon fill="#63b8ff" stroke="#63b8ff" points="436.84,-131.44 447.42,-131.95 439.46,-124.96 436.84,-131.44"/>
</a>
</g>
</g>
<!-- Node10&#45;&gt;Node9 -->
<g id="edge12_Node000010_Node000009" class="edge">
<title>Node10&#45;&gt;Node9</title>
<g id="a_edge12_Node000010_Node000009"><a xlink:title=" ">
<path fill="none" stroke="#63b8ff" d="M464.84,-123.53C459.15,-115.24 453.22,-105.53 449.09,-96 439.57,-73.99 434.36,-46.41 431.91,-30.06"/>
<polygon fill="#63b8ff" stroke="#63b8ff" points="462.17,-125.81 470.84,-131.9 467.86,-121.73 462.17,-125.81"/>
</a>
</g>
</g>
<!-- Node11 -->
<g id="Node000011" class="node">
<title>Node11</title>
<g id="a_Node000011"><a xlink:href="MeshLoader_8cpp.html" target="_top" xlink:title=" ">
<polygon fill="white" stroke="#666666" points="611.59,-90.5 458.59,-90.5 458.59,-71.5 611.59,-71.5 611.59,-90.5"/>
<text text-anchor="middle" x="535.09" y="-78.5" font-family="Helvetica,sans-Serif" font-size="10.00">App/Source/MeshLoader.cpp</text>
</a>
</g>
</g>
<!-- Node10&#45;&gt;Node11 -->
<g id="edge10_Node000010_Node000011" class="edge">
<title>Node10&#45;&gt;Node11</title>
<g id="a_edge10_Node000010_Node000011"><a xlink:title=" ">
<path fill="none" stroke="#63b8ff" d="M500.36,-123.94C509.77,-112.58 520.72,-99.36 527.77,-90.84"/>
<polygon fill="#63b8ff" stroke="#63b8ff" points="497.54,-121.86 493.85,-131.8 502.93,-126.33 497.54,-121.86"/>
</a>
</g>
</g>
<!-- Node12&#45;&gt;Node3 -->
<g id="edge21_Node000012_Node000003" class="edge">
<title>Node12&#45;&gt;Node3</title>
<g id="a_edge21_Node000012_Node000003"><a xlink:title=" ">
<path fill="none" stroke="#63b8ff" d="M855.33,-127.94C826.98,-115.68 790.77,-100.02 768.79,-90.52"/>
<polygon fill="#63b8ff" stroke="#63b8ff" points="854.05,-131.2 864.61,-131.95 856.82,-124.77 854.05,-131.2"/>
</a>
</g>
</g>
<!-- Node12&#45;&gt;Node4 -->
<g id="edge24_Node000012_Node000004" class="edge">
<title>Node12&#45;&gt;Node4</title>
<g id="a_edge24_Node000012_Node000004"><a xlink:title=" ">
<path fill="none" stroke="#63b8ff" d="M896.91,-121.68C896.7,-94.7 896.37,-52.11 896.2,-30.14"/>
<polygon fill="#63b8ff" stroke="#63b8ff" points="893.41,-121.87 896.98,-131.84 900.41,-121.81 893.41,-121.87"/>
</a>
</g>
</g>
<!-- Node12&#45;&gt;Node8 -->
<g id="edge25_Node000012_Node000008" class="edge">
<title>Node12&#45;&gt;Node8</title>
<g id="a_edge25_Node000012_Node000008"><a xlink:title=" ">
<path fill="none" stroke="#63b8ff" d="M821.24,-131.96C655.48,-108.87 611.51,-112.93 449.09,-96 434,-94.43 417.89,-92.68 402.42,-90.96"/>
<polygon fill="#63b8ff" stroke="#63b8ff" points="820.91,-135.45 831.3,-133.38 821.88,-128.52 820.91,-135.45"/>
</a>
</g>
</g>
<!-- Node12&#45;&gt;Node9 -->
<g id="edge26_Node000012_Node000009" class="edge">
<title>Node12&#45;&gt;Node9</title>
<g id="a_edge26_Node000012_Node000009"><a xlink:title=" ">
<path fill="none" stroke="#63b8ff" d="M886.6,-122.88C876.83,-104.24 860.43,-79.05 838.09,-66 830.69,-61.68 604.31,-35.65 492.02,-22.95"/>
<polygon fill="#63b8ff" stroke="#63b8ff" points="883.51,-124.53 891.09,-131.93 889.78,-121.42 883.51,-124.53"/>
</a>
</g>
</g>
<!-- Node12&#45;&gt;Node11 -->
<g id="edge22_Node000012_Node000011" class="edge">
<title>Node12&#45;&gt;Node11</title>
<g id="a_edge22_Node000012_Node000011"><a xlink:title=" ">
<path fill="none" stroke="#63b8ff" d="M821.25,-131.86C732.16,-115.83 640.38,-99.99 585.16,-90.53"/>
<polygon fill="#63b8ff" stroke="#63b8ff" points="820.79,-135.33 831.25,-133.66 822.03,-128.44 820.79,-135.33"/>
</a>
</g>
</g>
<!-- Node12&#45;&gt;Node13 -->
<g id="edge14_Node000012_Node000013" class="edge">
<title>Node12&#45;&gt;Node13</title>
<g id="a_edge14_Node000012_Node000013"><a xlink:title=" ">
<path fill="none" stroke="#63b8ff" d="M967.61,-129.65C1012.45,-119.25 1069.91,-105.93 1112.66,-96.01"/>
<polygon fill="#63b8ff" stroke="#63b8ff" points="966.61,-126.29 957.66,-131.95 968.19,-133.11 966.61,-126.29"/>
</a>
</g>
</g>
<!-- Node15 -->
<g id="Node000015" class="node">
<title>Node15</title>
<g id="a_Node000015"><a xlink:href="PrimitiveProxy__utest_8cpp.html" target="_top" xlink:title=" ">
<polygon fill="white" stroke="#666666" points="1267.59,-30 1126.59,-30 1126.59,0 1267.59,0 1267.59,-30"/>
<text text-anchor="start" x="1134.59" y="-18" font-family="Helvetica,sans-Serif" font-size="10.00">App/Test/Source/Primitive</text>
<text text-anchor="middle" x="1197.09" y="-7" font-family="Helvetica,sans-Serif" font-size="10.00">Proxy_utest.cpp</text>
</a>
</g>
</g>
<!-- Node12&#45;&gt;Node15 -->
<g id="edge27_Node000012_Node000015" class="edge">
<title>Node12&#45;&gt;Node15</title>
<g id="a_edge27_Node000012_Node000015"><a xlink:title=" ">
<path fill="none" stroke="#63b8ff" d="M972.83,-146.32C1065.15,-144.91 1213.2,-136.22 1248.09,-96 1266.33,-74.97 1238.27,-46.84 1217.08,-30.15"/>
<polygon fill="#63b8ff" stroke="#63b8ff" points="972.65,-142.82 962.69,-146.45 972.74,-149.82 972.65,-142.82"/>
</a>
</g>
</g>
<!-- Node12&#45;&gt;Node16 -->
<g id="edge20_Node000012_Node000016" class="edge">
<title>Node12&#45;&gt;Node16</title>
<g id="a_edge20_Node000012_Node000016"><a xlink:title=" ">
<path fill="none" stroke="#63b8ff" d="M972.98,-137.37C1050.57,-128.25 1174.49,-112.88 1281.09,-96 1291.3,-94.38 1302.25,-92.45 1312.54,-90.55"/>
<polygon fill="#63b8ff" stroke="#63b8ff" points="972.34,-133.92 962.82,-138.56 973.16,-140.87 972.34,-133.92"/>
</a>
</g>
</g>
<!-- Node17 -->
<g id="Node000017" class="node">
<title>Node17</title>
<g id="a_Node000017"><a xlink:href="PrimitiveProxy_8cpp.html" target="_top" xlink:title=" ">
<polygon fill="white" stroke="#666666" points="1089.59,-90.5 924.59,-90.5 924.59,-71.5 1089.59,-71.5 1089.59,-90.5"/>
<text text-anchor="middle" x="1007.09" y="-78.5" font-family="Helvetica,sans-Serif" font-size="10.00">App/Source/PrimitiveProxy.cpp</text>
</a>
</g>
</g>
<!-- Node12&#45;&gt;Node17 -->
<g id="edge23_Node000012_Node000017" class="edge">
<title>Node12&#45;&gt;Node17</title>
<g id="a_edge23_Node000012_Node000017"><a xlink:title=" ">
<path fill="none" stroke="#63b8ff" d="M930.07,-126.81C950.83,-114.73 976.61,-99.73 992.45,-90.52"/>
<polygon fill="#63b8ff" stroke="#63b8ff" points="928.12,-123.9 921.23,-131.95 931.64,-129.95 928.12,-123.9"/>
</a>
</g>
</g>
<!-- Node13&#45;&gt;Node4 -->
<g id="edge16_Node000013_Node000004" class="edge">
<title>Node13&#45;&gt;Node4</title>
<g id="a_edge16_Node000013_Node000004"><a xlink:title=" ">
<path fill="none" stroke="#63b8ff" d="M1102.32,-63.65C1057.31,-53.25 999.64,-39.93 956.74,-30.01"/>
<polygon fill="#63b8ff" stroke="#63b8ff" points="1101.77,-67.11 1112.3,-65.95 1103.35,-60.29 1101.77,-67.11"/>
</a>
</g>
</g>
<!-- Node13&#45;&gt;Node7 -->
<g id="edge17_Node000013_Node000007" class="edge">
<title>Node13&#45;&gt;Node7</title>
<g id="a_edge17_Node000013_Node000007"><a xlink:title=" ">
<path fill="none" stroke="#63b8ff" d="M1097.36,-65.96C964.84,-46.43 822.64,-31.74 735.34,-23.44"/>
<polygon fill="#63b8ff" stroke="#63b8ff" points="1096.88,-69.43 1107.29,-67.44 1097.91,-62.51 1096.88,-69.43"/>
</a>
</g>
</g>
<!-- Node13&#45;&gt;Node9 -->
<g id="edge18_Node000013_Node000009" class="edge">
<title>Node13&#45;&gt;Node9</title>
<g id="a_edge18_Node000013_Node000009"><a xlink:title=" ">
<path fill="none" stroke="#63b8ff" d="M1097.32,-66.01C859.51,-36.43 796.71,-50.31 562.09,-30 539.13,-28.01 513.97,-25.44 491.83,-23.05"/>
<polygon fill="#63b8ff" stroke="#63b8ff" points="1096.95,-69.49 1107.31,-67.27 1097.83,-62.55 1096.95,-69.49"/>
</a>
</g>
</g>
<!-- Node13&#45;&gt;Node14 -->
<g id="edge15_Node000013_Node000014" class="edge">
<title>Node13&#45;&gt;Node14</title>
<g id="a_edge15_Node000013_Node000014"><a xlink:title=" ">
<path fill="none" stroke="#63b8ff" d="M1237.21,-63.39C1277.2,-53.03 1328.08,-39.84 1366.01,-30.01"/>
<polygon fill="#63b8ff" stroke="#63b8ff" points="1236.1,-60.06 1227.3,-65.95 1237.86,-66.83 1236.1,-60.06"/>
</a>
</g>
</g>
<!-- Node13&#45;&gt;Node15 -->
<g id="edge19_Node000013_Node000015" class="edge">
<title>Node13&#45;&gt;Node15</title>
<g id="a_edge19_Node000013_Node000015"><a xlink:title=" ">
<path fill="none" stroke="#63b8ff" d="M1181.94,-56.39C1185.25,-47.59 1188.89,-37.86 1191.78,-30.16"/>
<polygon fill="#63b8ff" stroke="#63b8ff" points="1178.65,-55.2 1178.42,-65.8 1185.21,-57.66 1178.65,-55.2"/>
</a>
</g>
</g>
</g>
</svg>
