<?xml version="1.0" encoding="UTF-8" standalone="no"?>
<!DOCTYPE svg PUBLIC "-//W3C//DTD SVG 1.1//EN"
 "http://www.w3.org/Graphics/SVG/1.1/DTD/svg11.dtd">
<!-- Generated by graphviz version 2.43.0 (0)
 -->
<!-- Title: App/Test/Source/MeshExporter_utest.cpp Pages: 1 -->
<svg width="1433pt" height="368pt"
 viewBox="0.00 0.00 1433.23 368.00" xmlns="http://www.w3.org/2000/svg" xmlns:xlink="http://www.w3.org/1999/xlink">
<g id="graph0" class="graph" transform="scale(1 1) rotate(0) translate(4 364)">
<title>App/Test/Source/MeshExporter_utest.cpp</title>
<!-- Node1 -->
<g id="Node000001" class="node">
<title>Node1</title>
<g id="a_Node000001"><a xlink:title=" ">
<polygon fill="#999999" stroke="#666666" points="976.73,-360 812.73,-360 812.73,-330 976.73,-330 976.73,-360"/>
<text text-anchor="start" x="820.73" y="-348" font-family="Helvetica,sans-Serif" font-size="10.00">App/Test/Source/MeshExporter</text>
<text text-anchor="middle" x="894.73" y="-337" font-family="Helvetica,sans-Serif" font-size="10.00">_utest.cpp</text>
</a>
</g>
</g>
<!-- Node2 -->
<g id="Node000002" class="node">
<title>Node2</title>
<g id="a_Node000002"><a xlink:href="ExtraDataType_8h.html" target="_top" xlink:title=" ">
<polygon fill="white" stroke="#666666" points="208.23,-184 53.23,-184 53.23,-165 208.23,-165 208.23,-184"/>
<text text-anchor="middle" x="130.73" y="-172" font-family="Helvetica,sans-Serif" font-size="10.00">Application/ExtraDataType.h</text>
</a>
</g>
</g>
<!-- Node1&#45;&gt;Node2 -->
<g id="edge1_Node000001_Node000002" class="edge">
<title>Node1&#45;&gt;Node2</title>
<g id="a_edge1_Node000001_Node000002"><a xlink:title=" ">
<path fill="none" stroke="#63b8ff" d="M812.4,-343.07C714.48,-340.25 546.79,-329.99 407.73,-294 309.9,-268.68 201.98,-214.09 154.91,-188.83"/>
<polygon fill="#63b8ff" stroke="#63b8ff" points="156.53,-185.72 146.07,-184.04 153.2,-191.88 156.53,-185.72"/>
</a>
</g>
</g>
<!-- Node10 -->
<g id="Node000010" class="node">
<title>Node10</title>
<g id="a_Node000010"><a xlink:href="MathUtils_8h.html" target="_top" xlink:title=" ">
<polygon fill="white" stroke="#666666" points="960.23,-294 829.23,-294 829.23,-275 960.23,-275 960.23,-294"/>
<text text-anchor="middle" x="894.73" y="-282" font-family="Helvetica,sans-Serif" font-size="10.00">Application/MathUtils.h</text>
</a>
</g>
</g>
<!-- Node1&#45;&gt;Node10 -->
<g id="edge9_Node000001_Node000010" class="edge">
<title>Node1&#45;&gt;Node10</title>
<g id="a_edge9_Node000001_Node000010"><a xlink:title=" ">
<path fill="none" stroke="#63b8ff" d="M894.73,-329.84C894.73,-322.21 894.73,-312.7 894.73,-304.45"/>
<polygon fill="#63b8ff" stroke="#63b8ff" points="898.23,-304.27 894.73,-294.27 891.23,-304.27 898.23,-304.27"/>
</a>
</g>
</g>
<!-- Node13 -->
<g id="Node000013" class="node">
<title>Node13</title>
<g id="a_Node000013"><a xlink:href="MeshExporter_8h.html" target="_top" xlink:title=" ">
<polygon fill="white" stroke="#666666" points="772.73,-239 622.73,-239 622.73,-220 772.73,-220 772.73,-239"/>
<text text-anchor="middle" x="697.73" y="-227" font-family="Helvetica,sans-Serif" font-size="10.00">Application/MeshExporter.h</text>
</a>
</g>
</g>
<!-- Node1&#45;&gt;Node13 -->
<g id="edge13_Node000001_Node000013" class="edge">
<title>Node1&#45;&gt;Node13</title>
<g id="a_edge13_Node000001_Node000013"><a xlink:title=" ">
<path fill="none" stroke="#63b8ff" d="M859.86,-329.82C838.29,-320.57 810.31,-307.71 786.73,-294 761.44,-279.29 734.34,-259.28 716.78,-245.68"/>
<polygon fill="#63b8ff" stroke="#63b8ff" points="718.56,-242.62 708.52,-239.21 714.24,-248.13 718.56,-242.62"/>
</a>
</g>
</g>
<!-- Node21 -->
<g id="Node000021" class="node">
<title>Node21</title>
<g id="a_Node000021"><a xlink:title=" ">
<polygon fill="#e0e0e0" stroke="#999999" points="819.73,-184 751.73,-184 751.73,-165 819.73,-165 819.73,-184"/>
<text text-anchor="middle" x="785.73" y="-172" font-family="Helvetica,sans-Serif" font-size="10.00">filesystem</text>
</a>
</g>
</g>
<!-- Node1&#45;&gt;Node21 -->
<g id="edge40_Node000001_Node000021" class="edge">
<title>Node1&#45;&gt;Node21</title>
<g id="a_edge40_Node000001_Node000021"><a xlink:title=" ">
<path fill="none" stroke="#63b8ff" d="M863.86,-329.91C848.56,-321.49 831,-309.41 819.73,-294 797.6,-263.72 789.84,-219.36 787.14,-194.4"/>
<polygon fill="#63b8ff" stroke="#63b8ff" points="790.6,-193.76 786.2,-184.12 783.63,-194.4 790.6,-193.76"/>
</a>
</g>
</g>
<!-- Node22 -->
<g id="Node000022" class="node">
<title>Node22</title>
<g id="a_Node000022"><a xlink:href="PrimitiveProxy_8h.html" target="_top" xlink:title=" ">
<polygon fill="white" stroke="#666666" points="604.73,-239 450.73,-239 450.73,-220 604.73,-220 604.73,-239"/>
<text text-anchor="middle" x="527.73" y="-227" font-family="Helvetica,sans-Serif" font-size="10.00">Application/PrimitiveProxy.h</text>
</a>
</g>
</g>
<!-- Node1&#45;&gt;Node22 -->
<g id="edge28_Node000001_Node000022" class="edge">
<title>Node1&#45;&gt;Node22</title>
<g id="a_edge28_Node000001_Node000022"><a xlink:title=" ">
<path fill="none" stroke="#63b8ff" d="M849.36,-329.97C776.21,-307.35 633.56,-263.23 565.55,-242.2"/>
<polygon fill="#63b8ff" stroke="#63b8ff" points="566.27,-238.76 555.68,-239.14 564.2,-245.44 566.27,-238.76"/>
</a>
</g>
</g>
<!-- Node23 -->
<g id="Node000023" class="node">
<title>Node23</title>
<g id="a_Node000023"><a xlink:href="TestHelpers_8h.html" target="_top" xlink:title=" ">
<polygon fill="white" stroke="#666666" points="556.73,-294 416.73,-294 416.73,-275 556.73,-275 556.73,-294"/>
<text text-anchor="middle" x="486.73" y="-282" font-family="Helvetica,sans-Serif" font-size="10.00">Application/TestHelpers.h</text>
</a>
</g>
</g>
<!-- Node1&#45;&gt;Node23 -->
<g id="edge31_Node000001_Node000023" class="edge">
<title>Node1&#45;&gt;Node23</title>
<g id="a_edge31_Node000001_Node000023"><a xlink:title=" ">
<path fill="none" stroke="#63b8ff" d="M812.66,-332.23C737.47,-321.45 627.38,-305.67 556.38,-295.49"/>
<polygon fill="#63b8ff" stroke="#63b8ff" points="556.59,-291.98 546.2,-294.03 555.6,-298.91 556.59,-291.98"/>
</a>
</g>
</g>
<!-- Node24 -->
<g id="Node000024" class="node">
<title>Node24</title>
<g id="a_Node000024"><a xlink:href="PrintHelpers_8h.html" target="_top" xlink:title=" ">
<polygon fill="white" stroke="#666666" points="1089.23,-294 978.23,-294 978.23,-275 1089.23,-275 1089.23,-294"/>
<text text-anchor="middle" x="1033.73" y="-282" font-family="Helvetica,sans-Serif" font-size="10.00">Core/PrintHelpers.h</text>
</a>
</g>
</g>
<!-- Node1&#45;&gt;Node24 -->
<g id="edge35_Node000001_Node000024" class="edge">
<title>Node1&#45;&gt;Node24</title>
<g id="a_edge35_Node000001_Node000024"><a xlink:title=" ">
<path fill="none" stroke="#63b8ff" d="M928.03,-329.99C951.11,-320.27 981.6,-307.44 1003.89,-298.06"/>
<polygon fill="#63b8ff" stroke="#63b8ff" points="1005.34,-301.24 1013.2,-294.14 1002.63,-294.79 1005.34,-301.24"/>
</a>
</g>
</g>
<!-- Node28 -->
<g id="Node000028" class="node">
<title>Node28</title>
<g id="a_Node000028"><a xlink:title=" ">
<polygon fill="#e0e0e0" stroke="#999999" points="1185.73,-294 1107.73,-294 1107.73,-275 1185.73,-275 1185.73,-294"/>
<text text-anchor="middle" x="1146.73" y="-282" font-family="Helvetica,sans-Serif" font-size="10.00">gtest/gtest.h</text>
</a>
</g>
</g>
<!-- Node1&#45;&gt;Node28 -->
<g id="edge39_Node000001_Node000028" class="edge">
<title>Node1&#45;&gt;Node28</title>
<g id="a_edge39_Node000001_Node000028"><a xlink:title=" ">
<path fill="none" stroke="#63b8ff" d="M955.09,-329.99C999.52,-319.67 1059.06,-305.85 1099.92,-296.37"/>
<polygon fill="#63b8ff" stroke="#63b8ff" points="1100.94,-299.72 1109.88,-294.05 1099.35,-292.91 1100.94,-299.72"/>
</a>
</g>
</g>
<!-- Node29 -->
<g id="Node000029" class="node">
<title>Node29</title>
<g id="a_Node000029"><a xlink:title=" ">
<polygon fill="#e0e0e0" stroke="#999999" points="1259.23,-294 1204.23,-294 1204.23,-275 1259.23,-275 1259.23,-294"/>
<text text-anchor="middle" x="1231.73" y="-282" font-family="Helvetica,sans-Serif" font-size="10.00">fstream</text>
</a>
</g>
</g>
<!-- Node1&#45;&gt;Node29 -->
<g id="edge41_Node000001_Node000029" class="edge">
<title>Node1&#45;&gt;Node29</title>
<g id="a_edge41_Node000001_Node000029"><a xlink:title=" ">
<path fill="none" stroke="#63b8ff" d="M976.78,-331.7C1034.74,-322.69 1114.45,-309.66 1193.72,-294.1"/>
<polygon fill="#63b8ff" stroke="#63b8ff" points="1194.76,-297.46 1203.89,-292.09 1193.4,-290.59 1194.76,-297.46"/>
</a>
</g>
</g>
<!-- Node30 -->
<g id="Node000030" class="node">
<title>Node30</title>
<g id="a_Node000030"><a xlink:title=" ">
<polygon fill="#e0e0e0" stroke="#999999" points="1333.73,-294 1277.73,-294 1277.73,-275 1333.73,-275 1333.73,-294"/>
<text text-anchor="middle" x="1305.73" y="-282" font-family="Helvetica,sans-Serif" font-size="10.00">sstream</text>
</a>
</g>
</g>
<!-- Node1&#45;&gt;Node30 -->
<g id="edge42_Node000001_Node000030" class="edge">
<title>Node1&#45;&gt;Node30</title>
<g id="a_edge42_Node000001_Node000030"><a xlink:title=" ">
<path fill="none" stroke="#63b8ff" d="M976.79,-335.25C1050.49,-326.88 1161.83,-312.99 1267.62,-294.06"/>
<polygon fill="#63b8ff" stroke="#63b8ff" points="1268.29,-297.49 1277.51,-292.27 1267.04,-290.6 1268.29,-297.49"/>
</a>
</g>
</g>
<!-- Node31 -->
<g id="Node000031" class="node">
<title>Node31</title>
<g id="a_Node000031"><a xlink:title=" ">
<polygon fill="#e0e0e0" stroke="#999999" points="1425.23,-294 1352.23,-294 1352.23,-275 1425.23,-275 1425.23,-294"/>
<text text-anchor="middle" x="1388.73" y="-282" font-family="Helvetica,sans-Serif" font-size="10.00">string_view</text>
</a>
</g>
</g>
<!-- Node1&#45;&gt;Node31 -->
<g id="edge43_Node000001_Node000031" class="edge">
<title>Node1&#45;&gt;Node31</title>
<g id="a_edge43_Node000001_Node000031"><a xlink:title=" ">
<path fill="none" stroke="#63b8ff" d="M977.12,-336.59C1064.97,-328.28 1208.36,-313.56 1342.09,-293.99"/>
<polygon fill="#63b8ff" stroke="#63b8ff" points="1342.73,-297.43 1352.11,-292.51 1341.71,-290.51 1342.73,-297.43"/>
</a>
</g>
</g>
<!-- Node3 -->
<g id="Node000003" class="node">
<title>Node3</title>
<g id="a_Node000003"><a xlink:href="BaseType_8h.html" target="_top" xlink:title=" ">
<polygon fill="white" stroke="#666666" points="695.73,-74 565.73,-74 565.73,-55 695.73,-55 695.73,-74"/>
<text text-anchor="middle" x="630.73" y="-62" font-family="Helvetica,sans-Serif" font-size="10.00">Application/BaseType.h</text>
</a>
</g>
</g>
<!-- Node2&#45;&gt;Node3 -->
<g id="edge2_Node000002_Node000003" class="edge">
<title>Node2&#45;&gt;Node3</title>
<g id="a_edge2_Node000002_Node000003"><a xlink:title=" ">
<path fill="none" stroke="#63b8ff" d="M184.47,-164.99C225.06,-157.73 281.78,-145.78 329.73,-129 347.93,-122.63 350.37,-115.9 368.73,-110 430.12,-90.28 502.56,-78.83 555.69,-72.5"/>
<polygon fill="#63b8ff" stroke="#63b8ff" points="556.18,-75.96 565.71,-71.34 555.38,-69.01 556.18,-75.96"/>
</a>
</g>
</g>
<!-- Node7 -->
<g id="Node000007" class="node">
<title>Node7</title>
<g id="a_Node000007"><a xlink:title=" ">
<polygon fill="#e0e0e0" stroke="#999999" points="166.73,-74 124.73,-74 124.73,-55 166.73,-55 166.73,-74"/>
<text text-anchor="middle" x="145.73" y="-62" font-family="Helvetica,sans-Serif" font-size="10.00">array</text>
</a>
</g>
</g>
<!-- Node2&#45;&gt;Node7 -->
<g id="edge6_Node000002_Node000007" class="edge">
<title>Node2&#45;&gt;Node7</title>
<g id="a_edge6_Node000002_Node000007"><a xlink:title=" ">
<path fill="none" stroke="#63b8ff" d="M72.68,-164.92C30.49,-156.09 -15.75,-139.37 5.73,-110 9.06,-105.45 74.71,-85.92 114.91,-74.3"/>
<polygon fill="#63b8ff" stroke="#63b8ff" points="115.89,-77.66 124.53,-71.53 113.96,-70.93 115.89,-77.66"/>
</a>
</g>
</g>
<!-- Node8 -->
<g id="Node000008" class="node">
<title>Node8</title>
<g id="a_Node000008"><a xlink:title=" ">
<polygon fill="#e0e0e0" stroke="#999999" points="58.73,-129 14.73,-129 14.73,-110 58.73,-110 58.73,-129"/>
<text text-anchor="middle" x="36.73" y="-117" font-family="Helvetica,sans-Serif" font-size="10.00">string</text>
</a>
</g>
</g>
<!-- Node2&#45;&gt;Node8 -->
<g id="edge7_Node000002_Node000008" class="edge">
<title>Node2&#45;&gt;Node8</title>
<g id="a_edge7_Node000002_Node000008"><a xlink:title=" ">
<path fill="none" stroke="#63b8ff" d="M115.63,-164.98C100.92,-156.69 78.31,-143.94 61.06,-134.22"/>
<polygon fill="#63b8ff" stroke="#63b8ff" points="62.54,-131.03 52.11,-129.17 59.1,-137.13 62.54,-131.03"/>
</a>
</g>
</g>
<!-- Node9 -->
<g id="Node000009" class="node">
<title>Node9</title>
<g id="a_Node000009"><a xlink:title=" ">
<polygon fill="#e0e0e0" stroke="#999999" points="124.23,-129 77.23,-129 77.23,-110 124.23,-110 124.23,-129"/>
<text text-anchor="middle" x="100.73" y="-117" font-family="Helvetica,sans-Serif" font-size="10.00">vector</text>
</a>
</g>
</g>
<!-- Node2&#45;&gt;Node9 -->
<g id="edge8_Node000002_Node000009" class="edge">
<title>Node2&#45;&gt;Node9</title>
<g id="a_edge8_Node000002_Node000009"><a xlink:title=" ">
<path fill="none" stroke="#63b8ff" d="M125.78,-164.75C121.67,-157.49 115.71,-146.95 110.63,-137.98"/>
<polygon fill="#63b8ff" stroke="#63b8ff" points="113.56,-136.07 105.59,-129.09 107.47,-139.52 113.56,-136.07"/>
</a>
</g>
</g>
<!-- Node4 -->
<g id="Node000004" class="node">
<title>Node4</title>
<g id="a_Node000004"><a xlink:title=" ">
<polygon fill="#e0e0e0" stroke="#999999" points="672.73,-19 594.73,-19 594.73,0 672.73,0 672.73,-19"/>
<text text-anchor="middle" x="633.73" y="-7" font-family="Helvetica,sans-Serif" font-size="10.00">glm/glm.hpp</text>
</a>
</g>
</g>
<!-- Node3&#45;&gt;Node4 -->
<g id="edge3_Node000003_Node000004" class="edge">
<title>Node3&#45;&gt;Node4</title>
<g id="a_edge3_Node000003_Node000004"><a xlink:title=" ">
<path fill="none" stroke="#63b8ff" d="M631.23,-54.75C631.62,-47.8 632.18,-37.85 632.68,-29.13"/>
<polygon fill="#63b8ff" stroke="#63b8ff" points="636.17,-29.27 633.25,-19.09 629.19,-28.88 636.17,-29.27"/>
</a>
</g>
</g>
<!-- Node5 -->
<g id="Node000005" class="node">
<title>Node5</title>
<g id="a_Node000005"><a xlink:title=" ">
<polygon fill="#e0e0e0" stroke="#999999" points="576.73,-19 532.73,-19 532.73,0 576.73,0 576.73,-19"/>
<text text-anchor="middle" x="554.73" y="-7" font-family="Helvetica,sans-Serif" font-size="10.00">bitset</text>
</a>
</g>
</g>
<!-- Node3&#45;&gt;Node5 -->
<g id="edge4_Node000003_Node000005" class="edge">
<title>Node3&#45;&gt;Node5</title>
<g id="a_edge4_Node000003_Node000005"><a xlink:title=" ">
<path fill="none" stroke="#63b8ff" d="M618.52,-54.98C606.96,-46.92 589.36,-34.65 575.57,-25.03"/>
<polygon fill="#63b8ff" stroke="#63b8ff" points="577.37,-22.02 567.16,-19.17 573.36,-27.76 577.37,-22.02"/>
</a>
</g>
</g>
<!-- Node6 -->
<g id="Node000006" class="node">
<title>Node6</title>
<g id="a_Node000006"><a xlink:title=" ">
<polygon fill="#e0e0e0" stroke="#999999" points="745.73,-19 695.73,-19 695.73,0 745.73,0 745.73,-19"/>
<text text-anchor="middle" x="720.73" y="-7" font-family="Helvetica,sans-Serif" font-size="10.00">cstdint</text>
</a>
</g>
</g>
<!-- Node3&#45;&gt;Node6 -->
<g id="edge5_Node000003_Node000006" class="edge">
<title>Node3&#45;&gt;Node6</title>
<g id="a_edge5_Node000003_Node000006"><a xlink:title=" ">
<path fill="none" stroke="#63b8ff" d="M645.19,-54.98C659.15,-46.77 680.53,-34.18 696.98,-24.49"/>
<polygon fill="#63b8ff" stroke="#63b8ff" points="699.17,-27.26 706.01,-19.17 695.62,-21.23 699.17,-27.26"/>
</a>
</g>
</g>
<!-- Node10&#45;&gt;Node3 -->
<g id="edge10_Node000010_Node000003" class="edge">
<title>Node10&#45;&gt;Node3</title>
<g id="a_edge10_Node000010_Node000003"><a xlink:title=" ">
<path fill="none" stroke="#63b8ff" d="M888.92,-274.77C883.09,-265.9 873.96,-251.69 866.73,-239 848.42,-206.88 854.99,-191.03 828.73,-165 783.49,-120.15 713.92,-91.69 670.44,-77.18"/>
<polygon fill="#63b8ff" stroke="#63b8ff" points="671.37,-73.8 660.77,-74.04 669.2,-80.46 671.37,-73.8"/>
</a>
</g>
</g>
<!-- Node11 -->
<g id="Node000011" class="node">
<title>Node11</title>
<g id="a_Node000011"><a xlink:title=" ">
<polygon fill="#e0e0e0" stroke="#999999" points="923.23,-239 876.23,-239 876.23,-220 923.23,-220 923.23,-239"/>
<text text-anchor="middle" x="899.73" y="-227" font-family="Helvetica,sans-Serif" font-size="10.00">cmath</text>
</a>
</g>
</g>
<!-- Node10&#45;&gt;Node11 -->
<g id="edge11_Node000010_Node000011" class="edge">
<title>Node10&#45;&gt;Node11</title>
<g id="a_edge11_Node000010_Node000011"><a xlink:title=" ">
<path fill="none" stroke="#63b8ff" d="M895.56,-274.75C896.21,-267.8 897.15,-257.85 897.97,-249.13"/>
<polygon fill="#63b8ff" stroke="#63b8ff" points="901.47,-249.37 898.92,-239.09 894.5,-248.72 901.47,-249.37"/>
</a>
</g>
</g>
<!-- Node12 -->
<g id="Node000012" class="node">
<title>Node12</title>
<g id="a_Node000012"><a xlink:title=" ">
<polygon fill="#e0e0e0" stroke="#999999" points="985.73,-239 941.73,-239 941.73,-220 985.73,-220 985.73,-239"/>
<text text-anchor="middle" x="963.73" y="-227" font-family="Helvetica,sans-Serif" font-size="10.00">limits</text>
</a>
</g>
</g>
<!-- Node10&#45;&gt;Node12 -->
<g id="edge12_Node000010_Node000012" class="edge">
<title>Node10&#45;&gt;Node12</title>
<g id="a_edge12_Node000010_Node000012"><a xlink:title=" ">
<path fill="none" stroke="#63b8ff" d="M905.82,-274.98C916.22,-267 931.99,-254.88 944.45,-245.31"/>
<polygon fill="#63b8ff" stroke="#63b8ff" points="946.65,-248.04 952.44,-239.17 942.38,-242.49 946.65,-248.04"/>
</a>
</g>
</g>
<!-- Node13&#45;&gt;Node3 -->
<g id="edge14_Node000013_Node000003" class="edge">
<title>Node13&#45;&gt;Node3</title>
<g id="a_edge14_Node000013_Node000003"><a xlink:title=" ">
<path fill="none" stroke="#63b8ff" d="M696.07,-219.83C692.03,-199.76 680.6,-148.88 661.73,-110 657.01,-100.28 650.29,-90.32 644.31,-82.3"/>
<polygon fill="#63b8ff" stroke="#63b8ff" points="646.92,-79.95 638.03,-74.19 641.38,-84.24 646.92,-79.95"/>
</a>
</g>
</g>
<!-- Node13&#45;&gt;Node6 -->
<g id="edge26_Node000013_Node000006" class="edge">
<title>Node13&#45;&gt;Node6</title>
<g id="a_edge26_Node000013_Node000006"><a xlink:title=" ">
<path fill="none" stroke="#63b8ff" d="M698.63,-219.95C702.01,-187.95 713.96,-74.68 718.74,-29.4"/>
<polygon fill="#63b8ff" stroke="#63b8ff" points="722.24,-29.54 719.81,-19.22 715.28,-28.8 722.24,-29.54"/>
</a>
</g>
</g>
<!-- Node14 -->
<g id="Node000014" class="node">
<title>Node14</title>
<g id="a_Node000014"><a xlink:href="Mesh_8h.html" target="_top" xlink:title=" ">
<polygon fill="white" stroke="#666666" points="536.73,-184 426.73,-184 426.73,-165 536.73,-165 536.73,-184"/>
<text text-anchor="middle" x="481.73" y="-172" font-family="Helvetica,sans-Serif" font-size="10.00">Application/Mesh.h</text>
</a>
</g>
</g>
<!-- Node13&#45;&gt;Node14 -->
<g id="edge15_Node000013_Node000014" class="edge">
<title>Node13&#45;&gt;Node14</title>
<g id="a_edge15_Node000013_Node000014"><a xlink:title=" ">
<path fill="none" stroke="#63b8ff" d="M663.03,-219.98C625.98,-210.89 567.14,-196.46 526.6,-186.51"/>
<polygon fill="#63b8ff" stroke="#63b8ff" points="527.25,-183.07 516.71,-184.08 525.59,-189.86 527.25,-183.07"/>
</a>
</g>
</g>
<!-- Node13&#45;&gt;Node21 -->
<g id="edge27_Node000013_Node000021" class="edge">
<title>Node13&#45;&gt;Node21</title>
<g id="a_edge27_Node000013_Node000021"><a xlink:title=" ">
<path fill="none" stroke="#63b8ff" d="M711.87,-219.98C725.52,-211.77 746.42,-199.18 762.51,-189.49"/>
<polygon fill="#63b8ff" stroke="#63b8ff" points="764.57,-192.33 771.34,-184.17 760.96,-186.33 764.57,-192.33"/>
</a>
</g>
</g>
<!-- Node14&#45;&gt;Node3 -->
<g id="edge16_Node000014_Node000003" class="edge">
<title>Node14&#45;&gt;Node3</title>
<g id="a_edge16_Node000014_Node000003"><a xlink:title=" ">
<path fill="none" stroke="#63b8ff" d="M490.4,-164.63C503.29,-151.72 528.58,-127.39 552.73,-110 569.08,-98.23 588.79,-87.01 604.31,-78.78"/>
<polygon fill="#63b8ff" stroke="#63b8ff" points="606.11,-81.78 613.36,-74.06 602.87,-75.58 606.11,-81.78"/>
</a>
</g>
</g>
<!-- Node14&#45;&gt;Node9 -->
<g id="edge25_Node000014_Node000009" class="edge">
<title>Node14&#45;&gt;Node9</title>
<g id="a_edge25_Node000014_Node000009"><a xlink:title=" ">
<path fill="none" stroke="#63b8ff" d="M426.66,-168.76C359.67,-162.48 243.02,-149.93 134.55,-129.14"/>
<polygon fill="#63b8ff" stroke="#63b8ff" points="134.9,-125.64 124.42,-127.17 133.56,-132.51 134.9,-125.64"/>
</a>
</g>
</g>
<!-- Node15 -->
<g id="Node000015" class="node">
<title>Node15</title>
<g id="a_Node000015"><a xlink:href="ExtraDataContainer_8h.html" target="_top" xlink:title=" ">
<polygon fill="white" stroke="#666666" points="321.23,-129 142.23,-129 142.23,-110 321.23,-110 321.23,-129"/>
<text text-anchor="middle" x="231.73" y="-117" font-family="Helvetica,sans-Serif" font-size="10.00">Application/ExtraDataContainer.h</text>
</a>
</g>
</g>
<!-- Node14&#45;&gt;Node15 -->
<g id="edge17_Node000014_Node000015" class="edge">
<title>Node14&#45;&gt;Node15</title>
<g id="a_edge17_Node000014_Node000015"><a xlink:title=" ">
<path fill="none" stroke="#63b8ff" d="M441.56,-164.98C398.23,-155.8 329.14,-141.15 282.17,-131.19"/>
<polygon fill="#63b8ff" stroke="#63b8ff" points="282.72,-127.73 272.21,-129.08 281.27,-134.58 282.72,-127.73"/>
</a>
</g>
</g>
<!-- Node19 -->
<g id="Node000019" class="node">
<title>Node19</title>
<g id="a_Node000019"><a xlink:href="Primitive_8h.html" target="_top" xlink:title=" ">
<polygon fill="white" stroke="#666666" points="505.73,-129 377.73,-129 377.73,-110 505.73,-110 505.73,-129"/>
<text text-anchor="middle" x="441.73" y="-117" font-family="Helvetica,sans-Serif" font-size="10.00">Application/Primitive.h</text>
</a>
</g>
</g>
<!-- Node14&#45;&gt;Node19 -->
<g id="edge21_Node000014_Node000019" class="edge">
<title>Node14&#45;&gt;Node19</title>
<g id="a_edge21_Node000014_Node000019"><a xlink:title=" ">
<path fill="none" stroke="#63b8ff" d="M475.13,-164.75C469.48,-157.26 461.19,-146.28 454.28,-137.13"/>
<polygon fill="#63b8ff" stroke="#63b8ff" points="457.03,-134.96 448.21,-129.09 451.44,-139.18 457.03,-134.96"/>
</a>
</g>
</g>
<!-- Node20 -->
<g id="Node000020" class="node">
<title>Node20</title>
<g id="a_Node000020"><a xlink:title=" ">
<polygon fill="#e0e0e0" stroke="#999999" points="619.73,-129 561.73,-129 561.73,-110 619.73,-110 619.73,-129"/>
<text text-anchor="middle" x="590.73" y="-117" font-family="Helvetica,sans-Serif" font-size="10.00">memory</text>
</a>
</g>
</g>
<!-- Node14&#45;&gt;Node20 -->
<g id="edge24_Node000014_Node000020" class="edge">
<title>Node14&#45;&gt;Node20</title>
<g id="a_edge24_Node000014_Node000020"><a xlink:title=" ">
<path fill="none" stroke="#63b8ff" d="M499.24,-164.98C516.7,-156.5 543.74,-143.35 563.9,-133.54"/>
<polygon fill="#63b8ff" stroke="#63b8ff" points="565.44,-136.69 572.9,-129.17 562.38,-130.4 565.44,-136.69"/>
</a>
</g>
</g>
<!-- Node16 -->
<g id="Node000016" class="node">
<title>Node16</title>
<g id="a_Node000016"><a xlink:title=" ">
<polygon fill="#e0e0e0" stroke="#999999" points="331.23,-74 296.23,-74 296.23,-55 331.23,-55 331.23,-74"/>
<text text-anchor="middle" x="313.73" y="-62" font-family="Helvetica,sans-Serif" font-size="10.00">any</text>
</a>
</g>
</g>
<!-- Node15&#45;&gt;Node16 -->
<g id="edge18_Node000015_Node000016" class="edge">
<title>Node15&#45;&gt;Node16</title>
<g id="a_edge18_Node000015_Node000016"><a xlink:title=" ">
<path fill="none" stroke="#63b8ff" d="M244.91,-109.98C257.5,-101.84 276.74,-89.41 291.67,-79.76"/>
<polygon fill="#63b8ff" stroke="#63b8ff" points="293.82,-82.54 300.32,-74.17 290.02,-76.66 293.82,-82.54"/>
</a>
</g>
</g>
<!-- Node17 -->
<g id="Node000017" class="node">
<title>Node17</title>
<g id="a_Node000017"><a xlink:title=" ">
<polygon fill="#e0e0e0" stroke="#999999" points="106.23,-74 41.23,-74 41.23,-55 106.23,-55 106.23,-74"/>
<text text-anchor="middle" x="73.73" y="-62" font-family="Helvetica,sans-Serif" font-size="10.00">typeindex</text>
</a>
</g>
</g>
<!-- Node15&#45;&gt;Node17 -->
<g id="edge19_Node000015_Node000017" class="edge">
<title>Node15&#45;&gt;Node17</title>
<g id="a_edge19_Node000015_Node000017"><a xlink:title=" ">
<path fill="none" stroke="#63b8ff" d="M206.35,-109.98C179.93,-101.13 138.38,-87.19 108.84,-77.28"/>
<polygon fill="#63b8ff" stroke="#63b8ff" points="109.91,-73.94 99.32,-74.08 107.68,-80.58 109.91,-73.94"/>
</a>
</g>
</g>
<!-- Node18 -->
<g id="Node000018" class="node">
<title>Node18</title>
<g id="a_Node000018"><a xlink:title=" ">
<polygon fill="#e0e0e0" stroke="#999999" points="278.23,-74 185.23,-74 185.23,-55 278.23,-55 278.23,-74"/>
<text text-anchor="middle" x="231.73" y="-62" font-family="Helvetica,sans-Serif" font-size="10.00">unordered_map</text>
</a>
</g>
</g>
<!-- Node15&#45;&gt;Node18 -->
<g id="edge20_Node000015_Node000018" class="edge">
<title>Node15&#45;&gt;Node18</title>
<g id="a_edge20_Node000015_Node000018"><a xlink:title=" ">
<path fill="none" stroke="#63b8ff" d="M231.73,-109.75C231.73,-102.8 231.73,-92.85 231.73,-84.13"/>
<polygon fill="#63b8ff" stroke="#63b8ff" points="235.23,-84.09 231.73,-74.09 228.23,-84.09 235.23,-84.09"/>
</a>
</g>
</g>
<!-- Node19&#45;&gt;Node3 -->
<g id="edge22_Node000019_Node000003" class="edge">
<title>Node19&#45;&gt;Node3</title>
<g id="a_edge22_Node000019_Node000003"><a xlink:title=" ">
<path fill="none" stroke="#63b8ff" d="M472.1,-109.98C504.1,-101.01 554.69,-86.82 590.11,-76.89"/>
<polygon fill="#63b8ff" stroke="#63b8ff" points="591.44,-80.15 600.13,-74.08 589.55,-73.41 591.44,-80.15"/>
</a>
</g>
</g>
<!-- Node19&#45;&gt;Node7 -->
<g id="edge23_Node000019_Node000007" class="edge">
<title>Node19&#45;&gt;Node7</title>
<g id="a_edge23_Node000019_Node000007"><a xlink:title=" ">
<path fill="none" stroke="#63b8ff" d="M378.74,-109.96C326.93,-102.49 251.43,-90.55 176.98,-74.07"/>
<polygon fill="#63b8ff" stroke="#63b8ff" points="177.49,-70.6 166.96,-71.83 175.95,-77.43 177.49,-70.6"/>
</a>
</g>
</g>
<!-- Node22&#45;&gt;Node3 -->
<g id="edge29_Node000022_Node000003" class="edge">
<title>Node22&#45;&gt;Node3</title>
<g id="a_edge29_Node000022_Node000003"><a xlink:title=" ">
<path fill="none" stroke="#63b8ff" d="M541.77,-219.9C564.9,-204.83 610.29,-171.17 628.73,-129 634.88,-114.93 634.94,-97.38 633.7,-84.3"/>
<polygon fill="#63b8ff" stroke="#63b8ff" points="637.15,-83.63 632.41,-74.16 630.2,-84.52 637.15,-83.63"/>
</a>
</g>
</g>
<!-- Node22&#45;&gt;Node14 -->
<g id="edge30_Node000022_Node000014" class="edge">
<title>Node22&#45;&gt;Node14</title>
<g id="a_edge30_Node000022_Node000014"><a xlink:title=" ">
<path fill="none" stroke="#63b8ff" d="M520.14,-219.75C513.57,-212.18 503.91,-201.05 495.92,-191.84"/>
<polygon fill="#63b8ff" stroke="#63b8ff" points="498.38,-189.35 489.19,-184.09 493.1,-193.94 498.38,-189.35"/>
</a>
</g>
</g>
<!-- Node23&#45;&gt;Node2 -->
<g id="edge32_Node000023_Node000002" class="edge">
<title>Node23&#45;&gt;Node2</title>
<g id="a_edge32_Node000023_Node000002"><a xlink:title=" ">
<path fill="none" stroke="#63b8ff" d="M458.5,-274.94C395.02,-255.68 240.95,-208.94 168.97,-187.1"/>
<polygon fill="#63b8ff" stroke="#63b8ff" points="169.55,-183.62 158.97,-184.07 167.52,-190.32 169.55,-183.62"/>
</a>
</g>
</g>
<!-- Node23&#45;&gt;Node14 -->
<g id="edge33_Node000023_Node000014" class="edge">
<title>Node23&#45;&gt;Node14</title>
<g id="a_edge33_Node000023_Node000014"><a xlink:title=" ">
<path fill="none" stroke="#63b8ff" d="M473.24,-274.75C462.44,-266.87 448.08,-254.21 441.73,-239 434.35,-221.31 448.66,-202.98 462.17,-190.59"/>
<polygon fill="#63b8ff" stroke="#63b8ff" points="464.53,-193.18 469.87,-184.03 459.99,-187.85 464.53,-193.18"/>
</a>
</g>
</g>
<!-- Node23&#45;&gt;Node22 -->
<g id="edge34_Node000023_Node000022" class="edge">
<title>Node23&#45;&gt;Node22</title>
<g id="a_edge34_Node000023_Node000022"><a xlink:title=" ">
<path fill="none" stroke="#63b8ff" d="M493.5,-274.75C499.29,-267.26 507.79,-256.28 514.87,-247.13"/>
<polygon fill="#63b8ff" stroke="#63b8ff" points="517.74,-249.14 521.09,-239.09 512.2,-244.86 517.74,-249.14"/>
</a>
</g>
</g>
<!-- Node25 -->
<g id="Node000025" class="node">
<title>Node25</title>
<g id="a_Node000025"><a xlink:title=" ">
<polygon fill="#e0e0e0" stroke="#999999" points="1053.73,-239 1003.73,-239 1003.73,-220 1053.73,-220 1053.73,-239"/>
<text text-anchor="middle" x="1028.73" y="-227" font-family="Helvetica,sans-Serif" font-size="10.00">format</text>
</a>
</g>
</g>
<!-- Node24&#45;&gt;Node25 -->
<g id="edge36_Node000024_Node000025" class="edge">
<title>Node24&#45;&gt;Node25</title>
<g id="a_edge36_Node000024_Node000025"><a xlink:title=" ">
<path fill="none" stroke="#63b8ff" d="M1032.91,-274.75C1032.25,-267.8 1031.31,-257.85 1030.49,-249.13"/>
<polygon fill="#63b8ff" stroke="#63b8ff" points="1033.97,-248.72 1029.54,-239.09 1027,-249.37 1033.97,-248.72"/>
</a>
</g>
</g>
<!-- Node26 -->
<g id="Node000026" class="node">
<title>Node26</title>
<g id="a_Node000026"><a xlink:title=" ">
<polygon fill="#e0e0e0" stroke="#999999" points="1131.73,-239 1071.73,-239 1071.73,-220 1131.73,-220 1131.73,-239"/>
<text text-anchor="middle" x="1101.73" y="-227" font-family="Helvetica,sans-Serif" font-size="10.00">iostream</text>
</a>
</g>
</g>
<!-- Node24&#45;&gt;Node26 -->
<g id="edge37_Node000024_Node000026" class="edge">
<title>Node24&#45;&gt;Node26</title>
<g id="a_edge37_Node000024_Node000026"><a xlink:title=" ">
<path fill="none" stroke="#63b8ff" d="M1044.66,-274.98C1054.81,-267.07 1070.15,-255.11 1082.38,-245.58"/>
<polygon fill="#63b8ff" stroke="#63b8ff" points="1084.87,-248.08 1090.61,-239.17 1080.57,-242.56 1084.87,-248.08"/>
</a>
</g>
</g>
<!-- Node27 -->
<g id="Node000027" class="node">
<title>Node27</title>
<g id="a_Node000027"><a xlink:title=" ">
<polygon fill="#e0e0e0" stroke="#999999" points="1243.23,-239 1150.23,-239 1150.23,-220 1243.23,-220 1243.23,-239"/>
<text text-anchor="middle" x="1196.73" y="-227" font-family="Helvetica,sans-Serif" font-size="10.00">source_location</text>
</a>
</g>
</g>
<!-- Node24&#45;&gt;Node27 -->
<g id="edge38_Node000024_Node000027" class="edge">
<title>Node24&#45;&gt;Node27</title>
<g id="a_edge38_Node000024_Node000027"><a xlink:title=" ">
<path fill="none" stroke="#63b8ff" d="M1059.92,-274.98C1087.17,-266.13 1130.03,-252.19 1160.51,-242.28"/>
<polygon fill="#63b8ff" stroke="#63b8ff" points="1161.91,-245.5 1170.34,-239.08 1159.75,-238.85 1161.91,-245.5"/>
</a>
</g>
</g>
</g>
</svg>
