<?xml version="1.0" encoding="UTF-8" standalone="no"?>
<!DOCTYPE svg PUBLIC "-//W3C//DTD SVG 1.1//EN"
 "http://www.w3.org/Graphics/SVG/1.1/DTD/svg11.dtd">
<!-- Generated by graphviz version 2.43.0 (0)
 -->
<!-- Title: App/Source/MeshLoader.cpp Pages: 1 -->
<svg width="1154pt" height="302pt"
 viewBox="0.00 0.00 1154.00 302.00" xmlns="http://www.w3.org/2000/svg" xmlns:xlink="http://www.w3.org/1999/xlink">
<g id="graph0" class="graph" transform="scale(1 1) rotate(0) translate(4 298)">
<title>App/Source/MeshLoader.cpp</title>
<!-- Node1 -->
<g id="Node000001" class="node">
<title>Node1</title>
<g id="a_Node000001"><a xlink:title=" ">
<polygon fill="#999999" stroke="#666666" points="880,-294 727,-294 727,-275 880,-275 880,-294"/>
<text text-anchor="middle" x="803.5" y="-282" font-family="Helvetica,sans-Serif" font-size="10.00">App/Source/MeshLoader.cpp</text>
</a>
</g>
</g>
<!-- Node2 -->
<g id="Node000002" class="node">
<title>Node2</title>
<g id="a_Node000002"><a xlink:href="MeshLoader_8h.html" target="_top" xlink:title=" ">
<polygon fill="white" stroke="#666666" points="577.5,-239 435.5,-239 435.5,-220 577.5,-220 577.5,-239"/>
<text text-anchor="middle" x="506.5" y="-227" font-family="Helvetica,sans-Serif" font-size="10.00">Application/MeshLoader.h</text>
</a>
</g>
</g>
<!-- Node1&#45;&gt;Node2 -->
<g id="edge1_Node000001_Node000002" class="edge">
<title>Node1&#45;&gt;Node2</title>
<g id="a_edge1_Node000001_Node000002"><a xlink:title=" ">
<path fill="none" stroke="#63b8ff" d="M755.78,-274.98C703.76,-265.7 620.5,-250.84 564.68,-240.88"/>
<polygon fill="#63b8ff" stroke="#63b8ff" points="565.05,-237.39 554.59,-239.08 563.82,-244.28 565.05,-237.39"/>
</a>
</g>
</g>
<!-- Node7 -->
<g id="Node000007" class="node">
<title>Node7</title>
<g id="a_Node000007"><a xlink:title=" ">
<polygon fill="#e0e0e0" stroke="#999999" points="93,-74 0,-74 0,-55 93,-55 93,-74"/>
<text text-anchor="middle" x="46.5" y="-62" font-family="Helvetica,sans-Serif" font-size="10.00">unordered_map</text>
</a>
</g>
</g>
<!-- Node1&#45;&gt;Node7 -->
<g id="edge37_Node000001_Node000007" class="edge">
<title>Node1&#45;&gt;Node7</title>
<g id="a_edge37_Node000001_Node000007"><a xlink:title=" ">
<path fill="none" stroke="#63b8ff" d="M726.86,-281.29C597.3,-276.88 340.7,-265.1 254.5,-239 158.15,-209.83 114.17,-211.52 56.5,-129 47.41,-115.99 45.33,-97.85 45.28,-84.28"/>
<polygon fill="#63b8ff" stroke="#63b8ff" points="48.78,-84.28 45.61,-74.18 41.79,-84.06 48.78,-84.28"/>
</a>
</g>
</g>
<!-- Node18 -->
<g id="Node000018" class="node">
<title>Node18</title>
<g id="a_Node000018"><a xlink:href="ExtraDataType_8h.html" target="_top" xlink:title=" ">
<polygon fill="white" stroke="#666666" points="677,-184 522,-184 522,-165 677,-165 677,-184"/>
<text text-anchor="middle" x="599.5" y="-172" font-family="Helvetica,sans-Serif" font-size="10.00">Application/ExtraDataType.h</text>
</a>
</g>
</g>
<!-- Node1&#45;&gt;Node18 -->
<g id="edge18_Node000001_Node000018" class="edge">
<title>Node1&#45;&gt;Node18</title>
<g id="a_edge18_Node000001_Node000018"><a xlink:title=" ">
<path fill="none" stroke="#63b8ff" d="M787.15,-274.84C751.55,-256 666.83,-211.14 624.48,-188.73"/>
<polygon fill="#63b8ff" stroke="#63b8ff" points="626.12,-185.63 615.64,-184.05 622.84,-191.82 626.12,-185.63"/>
</a>
</g>
</g>
<!-- Node20 -->
<g id="Node000020" class="node">
<title>Node20</title>
<g id="a_Node000020"><a xlink:href="PrimitiveProxy_8h.html" target="_top" xlink:title=" ">
<polygon fill="white" stroke="#666666" points="417.5,-239 263.5,-239 263.5,-220 417.5,-220 417.5,-239"/>
<text text-anchor="middle" x="340.5" y="-227" font-family="Helvetica,sans-Serif" font-size="10.00">Application/PrimitiveProxy.h</text>
</a>
</g>
</g>
<!-- Node1&#45;&gt;Node20 -->
<g id="edge23_Node000001_Node000020" class="edge">
<title>Node1&#45;&gt;Node20</title>
<g id="a_edge23_Node000001_Node000020"><a xlink:title=" ">
<path fill="none" stroke="#63b8ff" d="M729.11,-274.98C646.12,-265.49 512.14,-250.15 425.19,-240.19"/>
<polygon fill="#63b8ff" stroke="#63b8ff" points="425.42,-236.7 415.09,-239.04 424.62,-243.65 425.42,-236.7"/>
</a>
</g>
</g>
<!-- Node21 -->
<g id="Node000021" class="node">
<title>Node21</title>
<g id="a_Node000021"><a xlink:href="VertexPair_8h.html" target="_top" xlink:title=" ">
<polygon fill="white" stroke="#666666" points="827.5,-184 695.5,-184 695.5,-165 827.5,-165 827.5,-184"/>
<text text-anchor="middle" x="761.5" y="-172" font-family="Helvetica,sans-Serif" font-size="10.00">Application/VertexPair.h</text>
</a>
</g>
</g>
<!-- Node1&#45;&gt;Node21 -->
<g id="edge26_Node000001_Node000021" class="edge">
<title>Node1&#45;&gt;Node21</title>
<g id="a_edge26_Node000001_Node000021"><a xlink:title=" ">
<path fill="none" stroke="#63b8ff" d="M798.71,-274.82C793.95,-265.98 786.64,-251.79 781.5,-239 775.57,-224.24 770.23,-206.99 766.57,-194.19"/>
<polygon fill="#63b8ff" stroke="#63b8ff" points="769.86,-192.97 763.8,-184.28 763.11,-194.85 769.86,-192.97"/>
</a>
</g>
</g>
<!-- Node23 -->
<g id="Node000023" class="node">
<title>Node23</title>
<g id="a_Node000023"><a xlink:href="PrintHelpers_8h.html" target="_top" xlink:title=" ">
<polygon fill="white" stroke="#666666" points="901,-239 790,-239 790,-220 901,-220 901,-239"/>
<text text-anchor="middle" x="845.5" y="-227" font-family="Helvetica,sans-Serif" font-size="10.00">Core/PrintHelpers.h</text>
</a>
</g>
</g>
<!-- Node1&#45;&gt;Node23 -->
<g id="edge30_Node000001_Node000023" class="edge">
<title>Node1&#45;&gt;Node23</title>
<g id="a_edge30_Node000001_Node000023"><a xlink:title=" ">
<path fill="none" stroke="#63b8ff" d="M810.44,-274.75C816.37,-267.26 825.07,-256.28 832.32,-247.13"/>
<polygon fill="#63b8ff" stroke="#63b8ff" points="835.23,-249.1 838.69,-239.09 829.74,-244.75 835.23,-249.1"/>
</a>
</g>
</g>
<!-- Node25 -->
<g id="Node000025" class="node">
<title>Node25</title>
<g id="a_Node000025"><a xlink:title=" ">
<polygon fill="#e0e0e0" stroke="#999999" points="1085.5,-184 1025.5,-184 1025.5,-165 1085.5,-165 1085.5,-184"/>
<text text-anchor="middle" x="1055.5" y="-172" font-family="Helvetica,sans-Serif" font-size="10.00">iostream</text>
</a>
</g>
</g>
<!-- Node1&#45;&gt;Node25 -->
<g id="edge36_Node000001_Node000025" class="edge">
<title>Node1&#45;&gt;Node25</title>
<g id="a_edge36_Node000001_Node000025"><a xlink:title=" ">
<path fill="none" stroke="#63b8ff" d="M825.41,-274.9C847.18,-266.25 881.41,-252.3 910.5,-239 927.67,-231.15 931.33,-227.85 948.5,-220 973.73,-208.46 1002.82,-196.45 1024.3,-187.81"/>
<polygon fill="#63b8ff" stroke="#63b8ff" points="1025.6,-191.06 1033.59,-184.1 1023,-184.56 1025.6,-191.06"/>
</a>
</g>
</g>
<!-- Node27 -->
<g id="Node000027" class="node">
<title>Node27</title>
<g id="a_Node000027"><a xlink:title=" ">
<polygon fill="#e0e0e0" stroke="#999999" points="1009.5,-239 957.5,-239 957.5,-220 1009.5,-220 1009.5,-239"/>
<text text-anchor="middle" x="983.5" y="-227" font-family="Helvetica,sans-Serif" font-size="10.00">cassert</text>
</a>
</g>
</g>
<!-- Node1&#45;&gt;Node27 -->
<g id="edge34_Node000001_Node000027" class="edge">
<title>Node1&#45;&gt;Node27</title>
<g id="a_edge34_Node000001_Node000027"><a xlink:title=" ">
<path fill="none" stroke="#63b8ff" d="M832.42,-274.98C863.67,-265.78 913.53,-251.1 947.34,-241.15"/>
<polygon fill="#63b8ff" stroke="#63b8ff" points="948.68,-244.4 957.29,-238.22 946.7,-237.69 948.68,-244.4"/>
</a>
</g>
</g>
<!-- Node28 -->
<g id="Node000028" class="node">
<title>Node28</title>
<g id="a_Node000028"><a xlink:title=" ">
<polygon fill="#e0e0e0" stroke="#999999" points="1083,-239 1028,-239 1028,-220 1083,-220 1083,-239"/>
<text text-anchor="middle" x="1055.5" y="-227" font-family="Helvetica,sans-Serif" font-size="10.00">fstream</text>
</a>
</g>
</g>
<!-- Node1&#45;&gt;Node28 -->
<g id="edge35_Node000001_Node000028" class="edge">
<title>Node1&#45;&gt;Node28</title>
<g id="a_edge35_Node000001_Node000028"><a xlink:title=" ">
<path fill="none" stroke="#63b8ff" d="M845.98,-274.99C887.28,-266.66 952.02,-253.42 1017.54,-239.17"/>
<polygon fill="#63b8ff" stroke="#63b8ff" points="1018.61,-242.52 1027.63,-236.97 1017.12,-235.68 1018.61,-242.52"/>
</a>
</g>
</g>
<!-- Node29 -->
<g id="Node000029" class="node">
<title>Node29</title>
<g id="a_Node000029"><a xlink:title=" ">
<polygon fill="#e0e0e0" stroke="#999999" points="1146,-239 1101,-239 1101,-220 1146,-220 1146,-239"/>
<text text-anchor="middle" x="1123.5" y="-227" font-family="Helvetica,sans-Serif" font-size="10.00">utility</text>
</a>
</g>
</g>
<!-- Node1&#45;&gt;Node29 -->
<g id="edge38_Node000001_Node000029" class="edge">
<title>Node1&#45;&gt;Node29</title>
<g id="a_edge38_Node000001_Node000029"><a xlink:title=" ">
<path fill="none" stroke="#63b8ff" d="M873.69,-274.99C930.06,-267.62 1011.4,-255.83 1090.72,-239.18"/>
<polygon fill="#63b8ff" stroke="#63b8ff" points="1091.83,-242.53 1100.89,-237.02 1090.38,-235.68 1091.83,-242.53"/>
</a>
</g>
</g>
<!-- Node3 -->
<g id="Node000003" class="node">
<title>Node3</title>
<g id="a_Node000003"><a xlink:href="Mesh_8h.html" target="_top" xlink:title=" ">
<polygon fill="white" stroke="#666666" points="417.5,-184 307.5,-184 307.5,-165 417.5,-165 417.5,-184"/>
<text text-anchor="middle" x="362.5" y="-172" font-family="Helvetica,sans-Serif" font-size="10.00">Application/Mesh.h</text>
</a>
</g>
</g>
<!-- Node2&#45;&gt;Node3 -->
<g id="edge2_Node000002_Node000003" class="edge">
<title>Node2&#45;&gt;Node3</title>
<g id="a_edge2_Node000002_Node000003"><a xlink:title=" ">
<path fill="none" stroke="#63b8ff" d="M483.36,-219.98C459.68,-211.27 422.63,-197.63 395.79,-187.75"/>
<polygon fill="#63b8ff" stroke="#63b8ff" points="396.65,-184.34 386.06,-184.17 394.23,-190.91 396.65,-184.34"/>
</a>
</g>
</g>
<!-- Node17 -->
<g id="Node000017" class="node">
<title>Node17</title>
<g id="a_Node000017"><a xlink:title=" ">
<polygon fill="#e0e0e0" stroke="#999999" points="503.5,-184 435.5,-184 435.5,-165 503.5,-165 503.5,-184"/>
<text text-anchor="middle" x="469.5" y="-172" font-family="Helvetica,sans-Serif" font-size="10.00">filesystem</text>
</a>
</g>
</g>
<!-- Node2&#45;&gt;Node17 -->
<g id="edge17_Node000002_Node000017" class="edge">
<title>Node2&#45;&gt;Node17</title>
<g id="a_edge17_Node000002_Node000017"><a xlink:title=" ">
<path fill="none" stroke="#63b8ff" d="M500.39,-219.75C495.22,-212.34 487.65,-201.5 481.31,-192.41"/>
<polygon fill="#63b8ff" stroke="#63b8ff" points="484.09,-190.29 475.5,-184.09 478.35,-194.29 484.09,-190.29"/>
</a>
</g>
</g>
<!-- Node4 -->
<g id="Node000004" class="node">
<title>Node4</title>
<g id="a_Node000004"><a xlink:href="ExtraDataContainer_8h.html" target="_top" xlink:title=" ">
<polygon fill="white" stroke="#666666" points="245,-129 66,-129 66,-110 245,-110 245,-129"/>
<text text-anchor="middle" x="155.5" y="-117" font-family="Helvetica,sans-Serif" font-size="10.00">Application/ExtraDataContainer.h</text>
</a>
</g>
</g>
<!-- Node3&#45;&gt;Node4 -->
<g id="edge3_Node000003_Node000004" class="edge">
<title>Node3&#45;&gt;Node4</title>
<g id="a_edge3_Node000003_Node000004"><a xlink:title=" ">
<path fill="none" stroke="#63b8ff" d="M329.24,-164.98C293.89,-155.93 237.83,-141.58 198.99,-131.64"/>
<polygon fill="#63b8ff" stroke="#63b8ff" points="199.57,-128.17 189.02,-129.08 197.84,-134.95 199.57,-128.17"/>
</a>
</g>
</g>
<!-- Node8 -->
<g id="Node000008" class="node">
<title>Node8</title>
<g id="a_Node000008"><a xlink:href="Primitive_8h.html" target="_top" xlink:title=" ">
<polygon fill="white" stroke="#666666" points="647.5,-129 519.5,-129 519.5,-110 647.5,-110 647.5,-129"/>
<text text-anchor="middle" x="583.5" y="-117" font-family="Helvetica,sans-Serif" font-size="10.00">Application/Primitive.h</text>
</a>
</g>
</g>
<!-- Node3&#45;&gt;Node8 -->
<g id="edge7_Node000003_Node000008" class="edge">
<title>Node3&#45;&gt;Node8</title>
<g id="a_edge7_Node000003_Node000008"><a xlink:title=" ">
<path fill="none" stroke="#63b8ff" d="M398.01,-164.98C435.99,-155.87 496.37,-141.4 537.86,-131.45"/>
<polygon fill="#63b8ff" stroke="#63b8ff" points="538.81,-134.82 547.71,-129.08 537.17,-128.01 538.81,-134.82"/>
</a>
</g>
</g>
<!-- Node9 -->
<g id="Node000009" class="node">
<title>Node9</title>
<g id="a_Node000009"><a xlink:href="BaseType_8h.html" target="_top" xlink:title=" ">
<polygon fill="white" stroke="#666666" points="540.5,-74 442.5,-74 442.5,-55 540.5,-55 540.5,-74"/>
<text text-anchor="middle" x="491.5" y="-62" font-family="Helvetica,sans-Serif" font-size="10.00">Core/BaseType.h</text>
</a>
</g>
</g>
<!-- Node3&#45;&gt;Node9 -->
<g id="edge14_Node000003_Node000009" class="edge">
<title>Node3&#45;&gt;Node9</title>
<g id="a_edge14_Node000003_Node000009"><a xlink:title=" ">
<path fill="none" stroke="#63b8ff" d="M352.16,-164.71C338.33,-151.89 317.04,-127.68 330.5,-110 343.07,-93.48 391.95,-81.52 432.59,-74.18"/>
<polygon fill="#63b8ff" stroke="#63b8ff" points="433.2,-77.63 442.45,-72.46 432,-70.73 433.2,-77.63"/>
</a>
</g>
</g>
<!-- Node15 -->
<g id="Node000015" class="node">
<title>Node15</title>
<g id="a_Node000015"><a xlink:title=" ">
<polygon fill="#e0e0e0" stroke="#999999" points="397.5,-129 339.5,-129 339.5,-110 397.5,-110 397.5,-129"/>
<text text-anchor="middle" x="368.5" y="-117" font-family="Helvetica,sans-Serif" font-size="10.00">memory</text>
</a>
</g>
</g>
<!-- Node3&#45;&gt;Node15 -->
<g id="edge15_Node000003_Node000015" class="edge">
<title>Node3&#45;&gt;Node15</title>
<g id="a_edge15_Node000003_Node000015"><a xlink:title=" ">
<path fill="none" stroke="#63b8ff" d="M363.49,-164.75C364.28,-157.8 365.4,-147.85 366.39,-139.13"/>
<polygon fill="#63b8ff" stroke="#63b8ff" points="369.88,-139.42 367.53,-129.09 362.92,-138.63 369.88,-139.42"/>
</a>
</g>
</g>
<!-- Node16 -->
<g id="Node000016" class="node">
<title>Node16</title>
<g id="a_Node000016"><a xlink:title=" ">
<polygon fill="#e0e0e0" stroke="#999999" points="463,-129 416,-129 416,-110 463,-110 463,-129"/>
<text text-anchor="middle" x="439.5" y="-117" font-family="Helvetica,sans-Serif" font-size="10.00">vector</text>
</a>
</g>
</g>
<!-- Node3&#45;&gt;Node16 -->
<g id="edge16_Node000003_Node000016" class="edge">
<title>Node3&#45;&gt;Node16</title>
<g id="a_edge16_Node000003_Node000016"><a xlink:title=" ">
<path fill="none" stroke="#63b8ff" d="M374.87,-164.98C386.59,-156.92 404.42,-144.65 418.39,-135.03"/>
<polygon fill="#63b8ff" stroke="#63b8ff" points="420.65,-137.72 426.9,-129.17 416.68,-131.96 420.65,-137.72"/>
</a>
</g>
</g>
<!-- Node5 -->
<g id="Node000005" class="node">
<title>Node5</title>
<g id="a_Node000005"><a xlink:title=" ">
<polygon fill="#e0e0e0" stroke="#999999" points="164,-74 129,-74 129,-55 164,-55 164,-74"/>
<text text-anchor="middle" x="146.5" y="-62" font-family="Helvetica,sans-Serif" font-size="10.00">any</text>
</a>
</g>
</g>
<!-- Node4&#45;&gt;Node5 -->
<g id="edge4_Node000004_Node000005" class="edge">
<title>Node4&#45;&gt;Node5</title>
<g id="a_edge4_Node000004_Node000005"><a xlink:title=" ">
<path fill="none" stroke="#63b8ff" d="M154.01,-109.75C152.83,-102.8 151.14,-92.85 149.66,-84.13"/>
<polygon fill="#63b8ff" stroke="#63b8ff" points="153.08,-83.36 147.96,-74.09 146.18,-84.53 153.08,-83.36"/>
</a>
</g>
</g>
<!-- Node6 -->
<g id="Node000006" class="node">
<title>Node6</title>
<g id="a_Node000006"><a xlink:title=" ">
<polygon fill="#e0e0e0" stroke="#999999" points="247,-74 182,-74 182,-55 247,-55 247,-74"/>
<text text-anchor="middle" x="214.5" y="-62" font-family="Helvetica,sans-Serif" font-size="10.00">typeindex</text>
</a>
</g>
</g>
<!-- Node4&#45;&gt;Node6 -->
<g id="edge5_Node000004_Node000006" class="edge">
<title>Node4&#45;&gt;Node6</title>
<g id="a_edge5_Node000004_Node000006"><a xlink:title=" ">
<path fill="none" stroke="#63b8ff" d="M164.98,-109.98C173.7,-102.15 186.84,-90.34 197.4,-80.86"/>
<polygon fill="#63b8ff" stroke="#63b8ff" points="199.75,-83.46 204.85,-74.17 195.07,-78.25 199.75,-83.46"/>
</a>
</g>
</g>
<!-- Node4&#45;&gt;Node7 -->
<g id="edge6_Node000004_Node000007" class="edge">
<title>Node4&#45;&gt;Node7</title>
<g id="a_edge6_Node000004_Node000007"><a xlink:title=" ">
<path fill="none" stroke="#63b8ff" d="M137.99,-109.98C120.53,-101.5 93.49,-88.35 73.33,-78.54"/>
<polygon fill="#63b8ff" stroke="#63b8ff" points="74.86,-75.4 64.33,-74.17 71.79,-81.69 74.86,-75.4"/>
</a>
</g>
</g>
<!-- Node8&#45;&gt;Node9 -->
<g id="edge8_Node000008_Node000009" class="edge">
<title>Node8&#45;&gt;Node9</title>
<g id="a_edge8_Node000008_Node000009"><a xlink:title=" ">
<path fill="none" stroke="#63b8ff" d="M568.72,-109.98C554.32,-101.69 532.19,-88.94 515.31,-79.22"/>
<polygon fill="#63b8ff" stroke="#63b8ff" points="516.96,-76.13 506.55,-74.17 513.47,-82.19 516.96,-76.13"/>
</a>
</g>
</g>
<!-- Node14 -->
<g id="Node000014" class="node">
<title>Node14</title>
<g id="a_Node000014"><a xlink:title=" ">
<polygon fill="#e0e0e0" stroke="#999999" points="650.5,-74 608.5,-74 608.5,-55 650.5,-55 650.5,-74"/>
<text text-anchor="middle" x="629.5" y="-62" font-family="Helvetica,sans-Serif" font-size="10.00">array</text>
</a>
</g>
</g>
<!-- Node8&#45;&gt;Node14 -->
<g id="edge13_Node000008_Node000014" class="edge">
<title>Node8&#45;&gt;Node14</title>
<g id="a_edge13_Node000008_Node000014"><a xlink:title=" ">
<path fill="none" stroke="#63b8ff" d="M591.1,-109.75C597.66,-102.18 607.32,-91.05 615.31,-81.84"/>
<polygon fill="#63b8ff" stroke="#63b8ff" points="618.13,-83.94 622.05,-74.09 612.85,-79.35 618.13,-83.94"/>
</a>
</g>
</g>
<!-- Node10 -->
<g id="Node000010" class="node">
<title>Node10</title>
<g id="a_Node000010"><a xlink:title=" ">
<polygon fill="#e0e0e0" stroke="#999999" points="402.5,-19 324.5,-19 324.5,0 402.5,0 402.5,-19"/>
<text text-anchor="middle" x="363.5" y="-7" font-family="Helvetica,sans-Serif" font-size="10.00">glm/glm.hpp</text>
</a>
</g>
</g>
<!-- Node9&#45;&gt;Node10 -->
<g id="edge9_Node000009_Node000010" class="edge">
<title>Node9&#45;&gt;Node10</title>
<g id="a_edge9_Node000009_Node000010"><a xlink:title=" ">
<path fill="none" stroke="#63b8ff" d="M470.93,-54.98C450.07,-46.34 417.53,-32.87 393.73,-23.02"/>
<polygon fill="#63b8ff" stroke="#63b8ff" points="395.02,-19.76 384.44,-19.17 392.34,-26.23 395.02,-19.76"/>
</a>
</g>
</g>
<!-- Node11 -->
<g id="Node000011" class="node">
<title>Node11</title>
<g id="a_Node000011"><a xlink:title=" ">
<polygon fill="#e0e0e0" stroke="#999999" points="562,-19 421,-19 421,0 562,0 562,-19"/>
<text text-anchor="middle" x="491.5" y="-7" font-family="Helvetica,sans-Serif" font-size="10.00">glm/gtx/vector_angle.hpp</text>
</a>
</g>
</g>
<!-- Node9&#45;&gt;Node11 -->
<g id="edge10_Node000009_Node000011" class="edge">
<title>Node9&#45;&gt;Node11</title>
<g id="a_edge10_Node000009_Node000011"><a xlink:title=" ">
<path fill="none" stroke="#63b8ff" d="M491.5,-54.75C491.5,-47.8 491.5,-37.85 491.5,-29.13"/>
<polygon fill="#63b8ff" stroke="#63b8ff" points="495,-29.09 491.5,-19.09 488,-29.09 495,-29.09"/>
</a>
</g>
</g>
<!-- Node12 -->
<g id="Node000012" class="node">
<title>Node12</title>
<g id="a_Node000012"><a xlink:title=" ">
<polygon fill="#e0e0e0" stroke="#999999" points="786.5,-19 742.5,-19 742.5,0 786.5,0 786.5,-19"/>
<text text-anchor="middle" x="764.5" y="-7" font-family="Helvetica,sans-Serif" font-size="10.00">bitset</text>
</a>
</g>
</g>
<!-- Node9&#45;&gt;Node12 -->
<g id="edge11_Node000009_Node000012" class="edge">
<title>Node9&#45;&gt;Node12</title>
<g id="a_edge11_Node000009_Node000012"><a xlink:title=" ">
<path fill="none" stroke="#63b8ff" d="M535.36,-54.98C590.41,-44.3 683.51,-26.22 732.37,-16.74"/>
<polygon fill="#63b8ff" stroke="#63b8ff" points="733.23,-20.14 742.38,-14.8 731.89,-13.27 733.23,-20.14"/>
</a>
</g>
</g>
<!-- Node13 -->
<g id="Node000013" class="node">
<title>Node13</title>
<g id="a_Node000013"><a xlink:title=" ">
<polygon fill="#e0e0e0" stroke="#999999" points="630.5,-19 580.5,-19 580.5,0 630.5,0 630.5,-19"/>
<text text-anchor="middle" x="605.5" y="-7" font-family="Helvetica,sans-Serif" font-size="10.00">cstdint</text>
</a>
</g>
</g>
<!-- Node9&#45;&gt;Node13 -->
<g id="edge12_Node000009_Node000013" class="edge">
<title>Node9&#45;&gt;Node13</title>
<g id="a_edge12_Node000009_Node000013"><a xlink:title=" ">
<path fill="none" stroke="#63b8ff" d="M509.82,-54.98C528.16,-46.46 556.61,-33.23 577.73,-23.41"/>
<polygon fill="#63b8ff" stroke="#63b8ff" points="579.26,-26.56 586.85,-19.17 576.31,-20.21 579.26,-26.56"/>
</a>
</g>
</g>
<!-- Node18&#45;&gt;Node9 -->
<g id="edge19_Node000018_Node000009" class="edge">
<title>Node18&#45;&gt;Node9</title>
<g id="a_edge19_Node000018_Node000009"><a xlink:title=" ">
<path fill="none" stroke="#63b8ff" d="M568.27,-164.89C549.08,-158.08 525.39,-146.72 510.5,-129 499.97,-116.47 495.28,-98.27 493.18,-84.57"/>
<polygon fill="#63b8ff" stroke="#63b8ff" points="496.62,-83.85 491.97,-74.33 489.67,-84.67 496.62,-83.85"/>
</a>
</g>
</g>
<!-- Node18&#45;&gt;Node14 -->
<g id="edge20_Node000018_Node000014" class="edge">
<title>Node18&#45;&gt;Node14</title>
<g id="a_edge20_Node000018_Node000014"><a xlink:title=" ">
<path fill="none" stroke="#63b8ff" d="M617.85,-164.88C631.29,-157.46 648.52,-145.36 656.5,-129 664.1,-113.43 654.49,-95.19 644.7,-82.26"/>
<polygon fill="#63b8ff" stroke="#63b8ff" points="647.16,-79.74 638.1,-74.26 641.76,-84.2 647.16,-79.74"/>
</a>
</g>
</g>
<!-- Node18&#45;&gt;Node16 -->
<g id="edge22_Node000018_Node000016" class="edge">
<title>Node18&#45;&gt;Node16</title>
<g id="a_edge22_Node000018_Node000016"><a xlink:title=" ">
<path fill="none" stroke="#63b8ff" d="M573.79,-164.98C546.33,-155.89 502.71,-141.44 472.68,-131.49"/>
<polygon fill="#63b8ff" stroke="#63b8ff" points="473.65,-128.13 463.06,-128.3 471.45,-134.77 473.65,-128.13"/>
</a>
</g>
</g>
<!-- Node19 -->
<g id="Node000019" class="node">
<title>Node19</title>
<g id="a_Node000019"><a xlink:title=" ">
<polygon fill="#e0e0e0" stroke="#999999" points="747.5,-129 703.5,-129 703.5,-110 747.5,-110 747.5,-129"/>
<text text-anchor="middle" x="725.5" y="-117" font-family="Helvetica,sans-Serif" font-size="10.00">string</text>
</a>
</g>
</g>
<!-- Node18&#45;&gt;Node19 -->
<g id="edge21_Node000018_Node000019" class="edge">
<title>Node18&#45;&gt;Node19</title>
<g id="a_edge21_Node000018_Node000019"><a xlink:title=" ">
<path fill="none" stroke="#63b8ff" d="M619.74,-164.98C640.2,-156.38 672.03,-142.99 695.43,-133.15"/>
<polygon fill="#63b8ff" stroke="#63b8ff" points="697.03,-136.27 704.89,-129.17 694.31,-129.82 697.03,-136.27"/>
</a>
</g>
</g>
<!-- Node20&#45;&gt;Node3 -->
<g id="edge24_Node000020_Node000003" class="edge">
<title>Node20&#45;&gt;Node3</title>
<g id="a_edge24_Node000020_Node000003"><a xlink:title=" ">
<path fill="none" stroke="#63b8ff" d="M344.13,-219.75C347.08,-212.65 351.33,-202.4 355.01,-193.56"/>
<polygon fill="#63b8ff" stroke="#63b8ff" points="358.33,-194.67 358.93,-184.09 351.87,-191.98 358.33,-194.67"/>
</a>
</g>
</g>
<!-- Node20&#45;&gt;Node9 -->
<g id="edge25_Node000020_Node000009" class="edge">
<title>Node20&#45;&gt;Node9</title>
<g id="a_edge25_Node000020_Node000009"><a xlink:title=" ">
<path fill="none" stroke="#63b8ff" d="M328.29,-219.86C318.15,-211.88 304.46,-199.01 298.5,-184 285.73,-151.87 296.24,-132.5 322.5,-110 352.8,-84.04 396.57,-73.01 431.98,-68.42"/>
<polygon fill="#63b8ff" stroke="#63b8ff" points="432.66,-71.86 442.2,-67.24 431.86,-64.91 432.66,-71.86"/>
</a>
</g>
</g>
<!-- Node21&#45;&gt;Node8 -->
<g id="edge27_Node000021_Node000008" class="edge">
<title>Node21&#45;&gt;Node8</title>
<g id="a_edge27_Node000021_Node000008"><a xlink:title=" ">
<path fill="none" stroke="#63b8ff" d="M732.9,-164.98C702.89,-156.05 655.52,-141.94 622.18,-132.02"/>
<polygon fill="#63b8ff" stroke="#63b8ff" points="622.91,-128.58 612.32,-129.08 620.91,-135.29 622.91,-128.58"/>
</a>
</g>
</g>
<!-- Node21&#45;&gt;Node12 -->
<g id="edge28_Node000021_Node000012" class="edge">
<title>Node21&#45;&gt;Node12</title>
<g id="a_edge28_Node000021_Node000012"><a xlink:title=" ">
<path fill="none" stroke="#63b8ff" d="M791,-164.97C808.44,-158.24 829.09,-146.93 839.5,-129 861.65,-90.87 814.91,-47.38 785.68,-25.2"/>
<polygon fill="#63b8ff" stroke="#63b8ff" points="787.75,-22.37 777.62,-19.28 783.61,-28.02 787.75,-22.37"/>
</a>
</g>
</g>
<!-- Node22 -->
<g id="Node000022" class="node">
<title>Node22</title>
<g id="a_Node000022"><a xlink:title=" ">
<polygon fill="#e0e0e0" stroke="#999999" points="831,-129 766,-129 766,-110 831,-110 831,-129"/>
<text text-anchor="middle" x="798.5" y="-117" font-family="Helvetica,sans-Serif" font-size="10.00">stdexcept</text>
</a>
</g>
</g>
<!-- Node21&#45;&gt;Node22 -->
<g id="edge29_Node000021_Node000022" class="edge">
<title>Node21&#45;&gt;Node22</title>
<g id="a_edge29_Node000021_Node000022"><a xlink:title=" ">
<path fill="none" stroke="#63b8ff" d="M767.61,-164.75C772.78,-157.34 780.35,-146.5 786.69,-137.41"/>
<polygon fill="#63b8ff" stroke="#63b8ff" points="789.65,-139.29 792.5,-129.09 783.91,-135.29 789.65,-139.29"/>
</a>
</g>
</g>
<!-- Node24 -->
<g id="Node000024" class="node">
<title>Node24</title>
<g id="a_Node000024"><a xlink:title=" ">
<polygon fill="#e0e0e0" stroke="#999999" points="1007.5,-184 957.5,-184 957.5,-165 1007.5,-165 1007.5,-184"/>
<text text-anchor="middle" x="982.5" y="-172" font-family="Helvetica,sans-Serif" font-size="10.00">format</text>
</a>
</g>
</g>
<!-- Node23&#45;&gt;Node24 -->
<g id="edge31_Node000023_Node000024" class="edge">
<title>Node23&#45;&gt;Node24</title>
<g id="a_edge31_Node000023_Node000024"><a xlink:title=" ">
<path fill="none" stroke="#63b8ff" d="M867.51,-219.98C889.95,-211.3 924.98,-197.75 950.49,-187.88"/>
<polygon fill="#63b8ff" stroke="#63b8ff" points="952.02,-191.04 960.09,-184.17 949.5,-184.51 952.02,-191.04"/>
</a>
</g>
</g>
<!-- Node23&#45;&gt;Node25 -->
<g id="edge32_Node000023_Node000025" class="edge">
<title>Node23&#45;&gt;Node25</title>
<g id="a_edge32_Node000023_Node000025"><a xlink:title=" ">
<path fill="none" stroke="#63b8ff" d="M879.24,-219.98C916.36,-210.62 975.97,-195.57 1015.43,-185.61"/>
<polygon fill="#63b8ff" stroke="#63b8ff" points="1016.41,-188.97 1025.25,-183.13 1014.7,-182.19 1016.41,-188.97"/>
</a>
</g>
</g>
<!-- Node26 -->
<g id="Node000026" class="node">
<title>Node26</title>
<g id="a_Node000026"><a xlink:title=" ">
<polygon fill="#e0e0e0" stroke="#999999" points="939,-184 846,-184 846,-165 939,-165 939,-184"/>
<text text-anchor="middle" x="892.5" y="-172" font-family="Helvetica,sans-Serif" font-size="10.00">source_location</text>
</a>
</g>
</g>
<!-- Node23&#45;&gt;Node26 -->
<g id="edge33_Node000023_Node000026" class="edge">
<title>Node23&#45;&gt;Node26</title>
<g id="a_edge33_Node000023_Node000026"><a xlink:title=" ">
<path fill="none" stroke="#63b8ff" d="M853.26,-219.75C859.97,-212.18 869.84,-201.05 878.01,-191.84"/>
<polygon fill="#63b8ff" stroke="#63b8ff" points="880.87,-193.89 884.88,-184.09 875.63,-189.25 880.87,-193.89"/>
</a>
</g>
</g>
</g>
</svg>
