<?xml version="1.0" encoding="UTF-8" standalone="no"?>
<!DOCTYPE svg PUBLIC "-//W3C//DTD SVG 1.1//EN"
 "http://www.w3.org/Graphics/SVG/1.1/DTD/svg11.dtd">
<!-- Generated by graphviz version 2.43.0 (0)
 -->
<!-- Title: App/Source/Mesh.cpp Pages: 1 -->
<svg width="853pt" height="302pt"
 viewBox="0.00 0.00 852.50 302.00" xmlns="http://www.w3.org/2000/svg" xmlns:xlink="http://www.w3.org/1999/xlink">
<g id="graph0" class="graph" transform="scale(1 1) rotate(0) translate(4 298)">
<title>App/Source/Mesh.cpp</title>
<!-- Node1 -->
<g id="Node000001" class="node">
<title>Node1</title>
<g id="a_Node000001"><a xlink:title=" ">
<polygon fill="#999999" stroke="#666666" points="552,-294 431,-294 431,-275 552,-275 552,-294"/>
<text text-anchor="middle" x="491.5" y="-282" font-family="Helvetica,sans-Serif" font-size="10.00">App/Source/Mesh.cpp</text>
</a>
</g>
</g>
<!-- Node2 -->
<g id="Node000002" class="node">
<title>Node2</title>
<g id="a_Node000002"><a xlink:href="Mesh_8h.html" target="_top" xlink:title=" ">
<polygon fill="white" stroke="#666666" points="345.5,-184 235.5,-184 235.5,-165 345.5,-165 345.5,-184"/>
<text text-anchor="middle" x="290.5" y="-172" font-family="Helvetica,sans-Serif" font-size="10.00">Application/Mesh.h</text>
</a>
</g>
</g>
<!-- Node1&#45;&gt;Node2 -->
<g id="edge1_Node000001_Node000002" class="edge">
<title>Node1&#45;&gt;Node2</title>
<g id="a_edge1_Node000001_Node000002"><a xlink:title=" ">
<path fill="none" stroke="#63b8ff" d="M476.32,-274.95C454.38,-262.63 412.5,-239.25 376.5,-220 356.55,-209.33 333.81,-197.58 316.72,-188.84"/>
<polygon fill="#63b8ff" stroke="#63b8ff" points="317.88,-185.5 307.38,-184.06 314.69,-191.73 317.88,-185.5"/>
</a>
</g>
</g>
<!-- Node14 -->
<g id="Node000014" class="node">
<title>Node14</title>
<g id="a_Node000014"><a xlink:href="ExtraDataType_8h.html" target="_top" xlink:title=" ">
<polygon fill="white" stroke="#666666" points="519,-184 364,-184 364,-165 519,-165 519,-184"/>
<text text-anchor="middle" x="441.5" y="-172" font-family="Helvetica,sans-Serif" font-size="10.00">Application/ExtraDataType.h</text>
</a>
</g>
</g>
<!-- Node1&#45;&gt;Node14 -->
<g id="edge14_Node000001_Node000014" class="edge">
<title>Node1&#45;&gt;Node14</title>
<g id="a_edge14_Node000001_Node000014"><a xlink:title=" ">
<path fill="none" stroke="#63b8ff" d="M487,-274.69C482.47,-265.75 475.34,-251.49 469.5,-239 462.41,-223.82 454.76,-206.4 449.25,-193.64"/>
<polygon fill="#63b8ff" stroke="#63b8ff" points="452.35,-191.99 445.19,-184.18 445.92,-194.75 452.35,-191.99"/>
</a>
</g>
</g>
<!-- Node16 -->
<g id="Node000016" class="node">
<title>Node16</title>
<g id="a_Node000016"><a xlink:href="PrimitiveProxy_8h.html" target="_top" xlink:title=" ">
<polygon fill="white" stroke="#666666" points="367.5,-239 213.5,-239 213.5,-220 367.5,-220 367.5,-239"/>
<text text-anchor="middle" x="290.5" y="-227" font-family="Helvetica,sans-Serif" font-size="10.00">Application/PrimitiveProxy.h</text>
</a>
</g>
</g>
<!-- Node1&#45;&gt;Node16 -->
<g id="edge18_Node000001_Node000016" class="edge">
<title>Node1&#45;&gt;Node16</title>
<g id="a_edge18_Node000001_Node000016"><a xlink:title=" ">
<path fill="none" stroke="#63b8ff" d="M459.21,-274.98C424.88,-265.93 370.44,-251.58 332.73,-241.64"/>
<polygon fill="#63b8ff" stroke="#63b8ff" points="333.61,-238.25 323.05,-239.08 331.82,-245.02 333.61,-238.25"/>
</a>
</g>
</g>
<!-- Node17 -->
<g id="Node000017" class="node">
<title>Node17</title>
<g id="a_Node000017"><a xlink:href="VertexPair_8h.html" target="_top" xlink:title=" ">
<polygon fill="white" stroke="#666666" points="610.5,-239 478.5,-239 478.5,-220 610.5,-220 610.5,-239"/>
<text text-anchor="middle" x="544.5" y="-227" font-family="Helvetica,sans-Serif" font-size="10.00">Application/VertexPair.h</text>
</a>
</g>
</g>
<!-- Node1&#45;&gt;Node17 -->
<g id="edge21_Node000001_Node000017" class="edge">
<title>Node1&#45;&gt;Node17</title>
<g id="a_edge21_Node000001_Node000017"><a xlink:title=" ">
<path fill="none" stroke="#63b8ff" d="M500.25,-274.75C507.97,-267.03 519.4,-255.6 528.72,-246.28"/>
<polygon fill="#63b8ff" stroke="#63b8ff" points="531.31,-248.64 535.91,-239.09 526.36,-243.69 531.31,-248.64"/>
</a>
</g>
</g>
<!-- Node20 -->
<g id="Node000020" class="node">
<title>Node20</title>
<g id="a_Node000020"><a xlink:title=" ">
<polygon fill="#e0e0e0" stroke="#999999" points="770,-239 629,-239 629,-220 770,-220 770,-239"/>
<text text-anchor="middle" x="699.5" y="-227" font-family="Helvetica,sans-Serif" font-size="10.00">glm/gtx/vector_angle.hpp</text>
</a>
</g>
</g>
<!-- Node1&#45;&gt;Node20 -->
<g id="edge25_Node000001_Node000020" class="edge">
<title>Node1&#45;&gt;Node20</title>
<g id="a_edge25_Node000001_Node000020"><a xlink:title=" ">
<path fill="none" stroke="#63b8ff" d="M524.92,-274.98C560.44,-265.93 616.77,-251.58 655.8,-241.64"/>
<polygon fill="#63b8ff" stroke="#63b8ff" points="656.99,-244.94 665.82,-239.08 655.26,-238.16 656.99,-244.94"/>
</a>
</g>
</g>
<!-- Node21 -->
<g id="Node000021" class="node">
<title>Node21</title>
<g id="a_Node000021"><a xlink:title=" ">
<polygon fill="#e0e0e0" stroke="#999999" points="844.5,-239 788.5,-239 788.5,-220 844.5,-220 844.5,-239"/>
<text text-anchor="middle" x="816.5" y="-227" font-family="Helvetica,sans-Serif" font-size="10.00">numeric</text>
</a>
</g>
</g>
<!-- Node1&#45;&gt;Node21 -->
<g id="edge26_Node000001_Node000021" class="edge">
<title>Node1&#45;&gt;Node21</title>
<g id="a_edge26_Node000001_Node000021"><a xlink:title=" ">
<path fill="none" stroke="#63b8ff" d="M552.12,-275.44C608.33,-267.66 694.5,-255 778.32,-239.11"/>
<polygon fill="#63b8ff" stroke="#63b8ff" points="779.1,-242.53 788.26,-237.21 777.78,-235.65 779.1,-242.53"/>
</a>
</g>
</g>
<!-- Node3 -->
<g id="Node000003" class="node">
<title>Node3</title>
<g id="a_Node000003"><a xlink:href="BaseType_8h.html" target="_top" xlink:title=" ">
<polygon fill="white" stroke="#666666" points="432.5,-74 302.5,-74 302.5,-55 432.5,-55 432.5,-74"/>
<text text-anchor="middle" x="367.5" y="-62" font-family="Helvetica,sans-Serif" font-size="10.00">Application/BaseType.h</text>
</a>
</g>
</g>
<!-- Node2&#45;&gt;Node3 -->
<g id="edge2_Node000002_Node000003" class="edge">
<title>Node2&#45;&gt;Node3</title>
<g id="a_edge2_Node000002_Node000003"><a xlink:title=" ">
<path fill="none" stroke="#63b8ff" d="M296.8,-164.66C309.61,-146.69 338.88,-105.64 355.46,-82.38"/>
<polygon fill="#63b8ff" stroke="#63b8ff" points="358.37,-84.33 361.33,-74.16 352.67,-80.27 358.37,-84.33"/>
</a>
</g>
</g>
<!-- Node6 -->
<g id="Node000006" class="node">
<title>Node6</title>
<g id="a_Node000006"><a xlink:href="ExtraDataContainer_8h.html" target="_top" xlink:title=" ">
<polygon fill="white" stroke="#666666" points="179,-129 0,-129 0,-110 179,-110 179,-129"/>
<text text-anchor="middle" x="89.5" y="-117" font-family="Helvetica,sans-Serif" font-size="10.00">Application/ExtraDataContainer.h</text>
</a>
</g>
</g>
<!-- Node2&#45;&gt;Node6 -->
<g id="edge5_Node000002_Node000006" class="edge">
<title>Node2&#45;&gt;Node6</title>
<g id="a_edge5_Node000002_Node000006"><a xlink:title=" ">
<path fill="none" stroke="#63b8ff" d="M258.21,-164.98C223.88,-155.93 169.44,-141.58 131.73,-131.64"/>
<polygon fill="#63b8ff" stroke="#63b8ff" points="132.61,-128.25 122.05,-129.08 130.82,-135.02 132.61,-128.25"/>
</a>
</g>
</g>
<!-- Node10 -->
<g id="Node000010" class="node">
<title>Node10</title>
<g id="a_Node000010"><a xlink:href="Primitive_8h.html" target="_top" xlink:title=" ">
<polygon fill="white" stroke="#666666" points="581.5,-129 453.5,-129 453.5,-110 581.5,-110 581.5,-129"/>
<text text-anchor="middle" x="517.5" y="-117" font-family="Helvetica,sans-Serif" font-size="10.00">Application/Primitive.h</text>
</a>
</g>
</g>
<!-- Node2&#45;&gt;Node10 -->
<g id="edge9_Node000002_Node000010" class="edge">
<title>Node2&#45;&gt;Node10</title>
<g id="a_edge9_Node000002_Node000010"><a xlink:title=" ">
<path fill="none" stroke="#63b8ff" d="M326.97,-164.98C366.07,-155.86 428.27,-141.33 470.89,-131.38"/>
<polygon fill="#63b8ff" stroke="#63b8ff" points="471.8,-134.76 480.74,-129.08 470.21,-127.95 471.8,-134.76"/>
</a>
</g>
</g>
<!-- Node12 -->
<g id="Node000012" class="node">
<title>Node12</title>
<g id="a_Node000012"><a xlink:title=" ">
<polygon fill="#e0e0e0" stroke="#999999" points="293.5,-129 235.5,-129 235.5,-110 293.5,-110 293.5,-129"/>
<text text-anchor="middle" x="264.5" y="-117" font-family="Helvetica,sans-Serif" font-size="10.00">memory</text>
</a>
</g>
</g>
<!-- Node2&#45;&gt;Node12 -->
<g id="edge12_Node000002_Node000012" class="edge">
<title>Node2&#45;&gt;Node12</title>
<g id="a_edge12_Node000002_Node000012"><a xlink:title=" ">
<path fill="none" stroke="#63b8ff" d="M286.21,-164.75C282.69,-157.57 277.59,-147.18 273.22,-138.27"/>
<polygon fill="#63b8ff" stroke="#63b8ff" points="276.26,-136.53 268.71,-129.09 269.98,-139.61 276.26,-136.53"/>
</a>
</g>
</g>
<!-- Node13 -->
<g id="Node000013" class="node">
<title>Node13</title>
<g id="a_Node000013"><a xlink:title=" ">
<polygon fill="#e0e0e0" stroke="#999999" points="397,-129 350,-129 350,-110 397,-110 397,-129"/>
<text text-anchor="middle" x="373.5" y="-117" font-family="Helvetica,sans-Serif" font-size="10.00">vector</text>
</a>
</g>
</g>
<!-- Node2&#45;&gt;Node13 -->
<g id="edge13_Node000002_Node000013" class="edge">
<title>Node2&#45;&gt;Node13</title>
<g id="a_edge13_Node000002_Node000013"><a xlink:title=" ">
<path fill="none" stroke="#63b8ff" d="M303.84,-164.98C316.59,-156.84 336.05,-144.41 351.17,-134.76"/>
<polygon fill="#63b8ff" stroke="#63b8ff" points="353.38,-137.5 359.92,-129.17 349.61,-131.6 353.38,-137.5"/>
</a>
</g>
</g>
<!-- Node4 -->
<g id="Node000004" class="node">
<title>Node4</title>
<g id="a_Node000004"><a xlink:title=" ">
<polygon fill="#e0e0e0" stroke="#999999" points="365.5,-19 287.5,-19 287.5,0 365.5,0 365.5,-19"/>
<text text-anchor="middle" x="326.5" y="-7" font-family="Helvetica,sans-Serif" font-size="10.00">glm/glm.hpp</text>
</a>
</g>
</g>
<!-- Node3&#45;&gt;Node4 -->
<g id="edge3_Node000003_Node000004" class="edge">
<title>Node3&#45;&gt;Node4</title>
<g id="a_edge3_Node000003_Node000004"><a xlink:title=" ">
<path fill="none" stroke="#63b8ff" d="M360.73,-54.75C354.94,-47.26 346.44,-36.28 339.36,-27.13"/>
<polygon fill="#63b8ff" stroke="#63b8ff" points="342.03,-24.86 333.14,-19.09 336.49,-29.14 342.03,-24.86"/>
</a>
</g>
</g>
<!-- Node5 -->
<g id="Node000005" class="node">
<title>Node5</title>
<g id="a_Node000005"><a xlink:title=" ">
<polygon fill="#e0e0e0" stroke="#999999" points="433.5,-19 383.5,-19 383.5,0 433.5,0 433.5,-19"/>
<text text-anchor="middle" x="408.5" y="-7" font-family="Helvetica,sans-Serif" font-size="10.00">cstdint</text>
</a>
</g>
</g>
<!-- Node3&#45;&gt;Node5 -->
<g id="edge4_Node000003_Node000005" class="edge">
<title>Node3&#45;&gt;Node5</title>
<g id="a_edge4_Node000003_Node000005"><a xlink:title=" ">
<path fill="none" stroke="#63b8ff" d="M374.27,-54.75C380.06,-47.26 388.56,-36.28 395.64,-27.13"/>
<polygon fill="#63b8ff" stroke="#63b8ff" points="398.51,-29.14 401.86,-19.09 392.97,-24.86 398.51,-29.14"/>
</a>
</g>
</g>
<!-- Node7 -->
<g id="Node000007" class="node">
<title>Node7</title>
<g id="a_Node000007"><a xlink:title=" ">
<polygon fill="#e0e0e0" stroke="#999999" points="39,-74 4,-74 4,-55 39,-55 39,-74"/>
<text text-anchor="middle" x="21.5" y="-62" font-family="Helvetica,sans-Serif" font-size="10.00">any</text>
</a>
</g>
</g>
<!-- Node6&#45;&gt;Node7 -->
<g id="edge6_Node000006_Node000007" class="edge">
<title>Node6&#45;&gt;Node7</title>
<g id="a_edge6_Node000006_Node000007"><a xlink:title=" ">
<path fill="none" stroke="#63b8ff" d="M78.57,-109.98C68.42,-102.07 53.08,-90.11 40.85,-80.58"/>
<polygon fill="#63b8ff" stroke="#63b8ff" points="42.66,-77.56 32.62,-74.17 38.36,-83.08 42.66,-77.56"/>
</a>
</g>
</g>
<!-- Node8 -->
<g id="Node000008" class="node">
<title>Node8</title>
<g id="a_Node000008"><a xlink:title=" ">
<polygon fill="#e0e0e0" stroke="#999999" points="122,-74 57,-74 57,-55 122,-55 122,-74"/>
<text text-anchor="middle" x="89.5" y="-62" font-family="Helvetica,sans-Serif" font-size="10.00">typeindex</text>
</a>
</g>
</g>
<!-- Node6&#45;&gt;Node8 -->
<g id="edge7_Node000006_Node000008" class="edge">
<title>Node6&#45;&gt;Node8</title>
<g id="a_edge7_Node000006_Node000008"><a xlink:title=" ">
<path fill="none" stroke="#63b8ff" d="M89.5,-109.75C89.5,-102.8 89.5,-92.85 89.5,-84.13"/>
<polygon fill="#63b8ff" stroke="#63b8ff" points="93,-84.09 89.5,-74.09 86,-84.09 93,-84.09"/>
</a>
</g>
</g>
<!-- Node9 -->
<g id="Node000009" class="node">
<title>Node9</title>
<g id="a_Node000009"><a xlink:title=" ">
<polygon fill="#e0e0e0" stroke="#999999" points="233,-74 140,-74 140,-55 233,-55 233,-74"/>
<text text-anchor="middle" x="186.5" y="-62" font-family="Helvetica,sans-Serif" font-size="10.00">unordered_map</text>
</a>
</g>
</g>
<!-- Node6&#45;&gt;Node9 -->
<g id="edge8_Node000006_Node000009" class="edge">
<title>Node6&#45;&gt;Node9</title>
<g id="a_edge8_Node000006_Node000009"><a xlink:title=" ">
<path fill="none" stroke="#63b8ff" d="M105.08,-109.98C120.27,-101.69 143.6,-88.94 161.4,-79.22"/>
<polygon fill="#63b8ff" stroke="#63b8ff" points="163.53,-82.04 170.63,-74.17 160.18,-75.89 163.53,-82.04"/>
</a>
</g>
</g>
<!-- Node10&#45;&gt;Node3 -->
<g id="edge10_Node000010_Node000003" class="edge">
<title>Node10&#45;&gt;Node3</title>
<g id="a_edge10_Node000010_Node000003"><a xlink:title=" ">
<path fill="none" stroke="#63b8ff" d="M493.4,-109.98C468.62,-101.23 429.8,-87.51 401.81,-77.62"/>
<polygon fill="#63b8ff" stroke="#63b8ff" points="402.63,-74.2 392.04,-74.17 400.3,-80.8 402.63,-74.2"/>
</a>
</g>
</g>
<!-- Node11 -->
<g id="Node000011" class="node">
<title>Node11</title>
<g id="a_Node000011"><a xlink:title=" ">
<polygon fill="#e0e0e0" stroke="#999999" points="538.5,-74 496.5,-74 496.5,-55 538.5,-55 538.5,-74"/>
<text text-anchor="middle" x="517.5" y="-62" font-family="Helvetica,sans-Serif" font-size="10.00">array</text>
</a>
</g>
</g>
<!-- Node10&#45;&gt;Node11 -->
<g id="edge11_Node000010_Node000011" class="edge">
<title>Node10&#45;&gt;Node11</title>
<g id="a_edge11_Node000010_Node000011"><a xlink:title=" ">
<path fill="none" stroke="#63b8ff" d="M517.5,-109.75C517.5,-102.8 517.5,-92.85 517.5,-84.13"/>
<polygon fill="#63b8ff" stroke="#63b8ff" points="521,-84.09 517.5,-74.09 514,-84.09 521,-84.09"/>
</a>
</g>
</g>
<!-- Node14&#45;&gt;Node3 -->
<g id="edge15_Node000014_Node000003" class="edge">
<title>Node14&#45;&gt;Node3</title>
<g id="a_edge15_Node000014_Node000003"><a xlink:title=" ">
<path fill="none" stroke="#63b8ff" d="M437.52,-164.94C431.53,-152.41 419.51,-128.55 406.5,-110 399.51,-100.03 390.63,-89.76 383.12,-81.6"/>
<polygon fill="#63b8ff" stroke="#63b8ff" points="385.58,-79.11 376.17,-74.23 380.48,-83.91 385.58,-79.11"/>
</a>
</g>
</g>
<!-- Node14&#45;&gt;Node13 -->
<g id="edge17_Node000014_Node000013" class="edge">
<title>Node14&#45;&gt;Node13</title>
<g id="a_edge17_Node000014_Node000013"><a xlink:title=" ">
<path fill="none" stroke="#63b8ff" d="M430.57,-164.98C420.42,-157.07 405.08,-145.11 392.85,-135.58"/>
<polygon fill="#63b8ff" stroke="#63b8ff" points="394.66,-132.56 384.62,-129.17 390.36,-138.08 394.66,-132.56"/>
</a>
</g>
</g>
<!-- Node15 -->
<g id="Node000015" class="node">
<title>Node15</title>
<g id="a_Node000015"><a xlink:title=" ">
<polygon fill="#e0e0e0" stroke="#999999" points="643.5,-129 599.5,-129 599.5,-110 643.5,-110 643.5,-129"/>
<text text-anchor="middle" x="621.5" y="-117" font-family="Helvetica,sans-Serif" font-size="10.00">string</text>
</a>
</g>
</g>
<!-- Node14&#45;&gt;Node15 -->
<g id="edge16_Node000014_Node000015" class="edge">
<title>Node14&#45;&gt;Node15</title>
<g id="a_edge16_Node000014_Node000015"><a xlink:title=" ">
<path fill="none" stroke="#63b8ff" d="M470.42,-164.98C503.02,-155.39 555.87,-139.82 589.64,-129.88"/>
<polygon fill="#63b8ff" stroke="#63b8ff" points="590.86,-133.17 599.46,-126.99 588.88,-126.46 590.86,-133.17"/>
</a>
</g>
</g>
<!-- Node16&#45;&gt;Node2 -->
<g id="edge20_Node000016_Node000002" class="edge">
<title>Node16&#45;&gt;Node2</title>
<g id="a_edge20_Node000016_Node000002"><a xlink:title=" ">
<path fill="none" stroke="#63b8ff" d="M290.5,-219.75C290.5,-212.8 290.5,-202.85 290.5,-194.13"/>
<polygon fill="#63b8ff" stroke="#63b8ff" points="294,-194.09 290.5,-184.09 287,-194.09 294,-194.09"/>
</a>
</g>
</g>
<!-- Node16&#45;&gt;Node3 -->
<g id="edge19_Node000016_Node000003" class="edge">
<title>Node16&#45;&gt;Node3</title>
<g id="a_edge19_Node000016_Node000003"><a xlink:title=" ">
<path fill="none" stroke="#63b8ff" d="M268.71,-219.87C253.86,-212.69 235.34,-200.91 226.5,-184 211.27,-154.85 207.06,-136.53 226.5,-110 241.91,-88.98 267.27,-77.64 292.27,-71.6"/>
<polygon fill="#63b8ff" stroke="#63b8ff" points="293.14,-74.99 302.18,-69.46 291.67,-68.14 293.14,-74.99"/>
</a>
</g>
</g>
<!-- Node17&#45;&gt;Node10 -->
<g id="edge22_Node000017_Node000010" class="edge">
<title>Node17&#45;&gt;Node10</title>
<g id="a_edge22_Node000017_Node000010"><a xlink:title=" ">
<path fill="none" stroke="#63b8ff" d="M542.29,-219.66C537.9,-202.09 527.99,-162.45 522.11,-138.95"/>
<polygon fill="#63b8ff" stroke="#63b8ff" points="525.49,-138.01 519.66,-129.16 518.69,-139.71 525.49,-138.01"/>
</a>
</g>
</g>
<!-- Node18 -->
<g id="Node000018" class="node">
<title>Node18</title>
<g id="a_Node000018"><a xlink:title=" ">
<polygon fill="#e0e0e0" stroke="#999999" points="619.5,-184 575.5,-184 575.5,-165 619.5,-165 619.5,-184"/>
<text text-anchor="middle" x="597.5" y="-172" font-family="Helvetica,sans-Serif" font-size="10.00">bitset</text>
</a>
</g>
</g>
<!-- Node17&#45;&gt;Node18 -->
<g id="edge23_Node000017_Node000018" class="edge">
<title>Node17&#45;&gt;Node18</title>
<g id="a_edge23_Node000017_Node000018"><a xlink:title=" ">
<path fill="none" stroke="#63b8ff" d="M553.25,-219.75C560.97,-212.03 572.4,-200.6 581.72,-191.28"/>
<polygon fill="#63b8ff" stroke="#63b8ff" points="584.31,-193.64 588.91,-184.09 579.36,-188.69 584.31,-193.64"/>
</a>
</g>
</g>
<!-- Node19 -->
<g id="Node000019" class="node">
<title>Node19</title>
<g id="a_Node000019"><a xlink:title=" ">
<polygon fill="#e0e0e0" stroke="#999999" points="703,-184 638,-184 638,-165 703,-165 703,-184"/>
<text text-anchor="middle" x="670.5" y="-172" font-family="Helvetica,sans-Serif" font-size="10.00">stdexcept</text>
</a>
</g>
</g>
<!-- Node17&#45;&gt;Node19 -->
<g id="edge24_Node000017_Node000019" class="edge">
<title>Node17&#45;&gt;Node19</title>
<g id="a_edge24_Node000017_Node000019"><a xlink:title=" ">
<path fill="none" stroke="#63b8ff" d="M564.74,-219.98C585.2,-211.38 617.03,-197.99 640.43,-188.15"/>
<polygon fill="#63b8ff" stroke="#63b8ff" points="642.03,-191.27 649.89,-184.17 639.31,-184.82 642.03,-191.27"/>
</a>
</g>
</g>
</g>
</svg>
