<?xml version="1.0" encoding="UTF-8" standalone="no"?>
<!DOCTYPE svg PUBLIC "-//W3C//DTD SVG 1.1//EN"
 "http://www.w3.org/Graphics/SVG/1.1/DTD/svg11.dtd">
<!-- Generated by graphviz version 2.43.0 (0)
 -->
<!-- Title: App/Include/Application/PrimitiveProxy.h Pages: 1 -->
<svg width="994pt" height="159pt"
 viewBox="0.00 0.00 994.00 159.00" xmlns="http://www.w3.org/2000/svg" xmlns:xlink="http://www.w3.org/1999/xlink">
<g id="graph0" class="graph" transform="scale(1 1) rotate(0) translate(4 155)">
<title>App/Include/Application/PrimitiveProxy.h</title>
<!-- Node1 -->
<g id="Node000001" class="node">
<title>Node1</title>
<g id="a_Node000001"><a xlink:title=" ">
<polygon fill="#999999" stroke="#666666" points="569,-151 438,-151 438,-121 569,-121 569,-151"/>
<text text-anchor="start" x="446" y="-139" font-family="Helvetica,sans-Serif" font-size="10.00">App/Include/Application</text>
<text text-anchor="middle" x="503.5" y="-128" font-family="Helvetica,sans-Serif" font-size="10.00">/PrimitiveProxy.h</text>
</a>
</g>
</g>
<!-- Node2 -->
<g id="Node000002" class="node">
<title>Node2</title>
<g id="a_Node000002"><a xlink:href="Mesh_8cpp.html" target="_top" xlink:title=" ">
<polygon fill="white" stroke="#666666" points="121,-85 0,-85 0,-66 121,-66 121,-85"/>
<text text-anchor="middle" x="60.5" y="-73" font-family="Helvetica,sans-Serif" font-size="10.00">App/Source/Mesh.cpp</text>
</a>
</g>
</g>
<!-- Node1&#45;&gt;Node2 -->
<g id="edge1_Node000001_Node000002" class="edge">
<title>Node1&#45;&gt;Node2</title>
<g id="a_edge1_Node000001_Node000002"><a xlink:title=" ">
<path fill="none" stroke="#63b8ff" d="M427.61,-124.98C340.9,-113.53 200.71,-95.02 121,-84.49"/>
<polygon fill="#63b8ff" stroke="#63b8ff" points="427.28,-128.47 437.66,-126.31 428.2,-121.53 427.28,-128.47"/>
</a>
</g>
</g>
<!-- Node3 -->
<g id="Node000003" class="node">
<title>Node3</title>
<g id="a_Node000003"><a xlink:href="MeshLoader_8cpp.html" target="_top" xlink:title=" ">
<polygon fill="white" stroke="#666666" points="292,-85 139,-85 139,-66 292,-66 292,-85"/>
<text text-anchor="middle" x="215.5" y="-73" font-family="Helvetica,sans-Serif" font-size="10.00">App/Source/MeshLoader.cpp</text>
</a>
</g>
</g>
<!-- Node1&#45;&gt;Node3 -->
<g id="edge2_Node000001_Node000003" class="edge">
<title>Node1&#45;&gt;Node3</title>
<g id="a_edge2_Node000001_Node000003"><a xlink:title=" ">
<path fill="none" stroke="#63b8ff" d="M427.85,-119.63C373.54,-108.6 302.33,-94.14 257.74,-85.08"/>
<polygon fill="#63b8ff" stroke="#63b8ff" points="427.29,-123.09 437.79,-121.65 428.68,-116.23 427.29,-123.09"/>
</a>
</g>
</g>
<!-- Node4 -->
<g id="Node000004" class="node">
<title>Node4</title>
<g id="a_Node000004"><a xlink:href="PrimitiveProxy_8cpp.html" target="_top" xlink:title=" ">
<polygon fill="white" stroke="#666666" points="475,-85 310,-85 310,-66 475,-66 475,-85"/>
<text text-anchor="middle" x="392.5" y="-73" font-family="Helvetica,sans-Serif" font-size="10.00">App/Source/PrimitiveProxy.cpp</text>
</a>
</g>
</g>
<!-- Node1&#45;&gt;Node4 -->
<g id="edge3_Node000001_Node000004" class="edge">
<title>Node1&#45;&gt;Node4</title>
<g id="a_edge3_Node000001_Node000004"><a xlink:title=" ">
<path fill="none" stroke="#63b8ff" d="M467.84,-116.21C448.04,-105.77 424.35,-93.29 408.89,-85.14"/>
<polygon fill="#63b8ff" stroke="#63b8ff" points="466.43,-119.42 476.91,-120.99 469.7,-113.23 466.43,-119.42"/>
</a>
</g>
</g>
<!-- Node5 -->
<g id="Node000005" class="node">
<title>Node5</title>
<g id="a_Node000005"><a xlink:href="TestHelpers_8h.html" target="_top" xlink:title=" ">
<polygon fill="white" stroke="#666666" points="697,-85 532,-85 532,-66 697,-66 697,-85"/>
<text text-anchor="middle" x="614.5" y="-73" font-family="Helvetica,sans-Serif" font-size="10.00">App/Test/Include/TestHelpers.h</text>
</a>
</g>
</g>
<!-- Node1&#45;&gt;Node5 -->
<g id="edge4_Node000001_Node000005" class="edge">
<title>Node1&#45;&gt;Node5</title>
<g id="a_edge4_Node000001_Node000005"><a xlink:title=" ">
<path fill="none" stroke="#63b8ff" d="M539.16,-116.21C558.96,-105.77 582.65,-93.29 598.11,-85.14"/>
<polygon fill="#63b8ff" stroke="#63b8ff" points="537.3,-113.23 530.09,-120.99 540.57,-119.42 537.3,-113.23"/>
</a>
</g>
</g>
<!-- Node7 -->
<g id="Node000007" class="node">
<title>Node7</title>
<g id="a_Node000007"><a xlink:href="MeshExporter__utest_8cpp.html" target="_top" xlink:title=" ">
<polygon fill="white" stroke="#666666" points="315.5,-30 151.5,-30 151.5,0 315.5,0 315.5,-30"/>
<text text-anchor="start" x="159.5" y="-18" font-family="Helvetica,sans-Serif" font-size="10.00">App/Test/Source/MeshExporter</text>
<text text-anchor="middle" x="233.5" y="-7" font-family="Helvetica,sans-Serif" font-size="10.00">_utest.cpp</text>
</a>
</g>
</g>
<!-- Node1&#45;&gt;Node7 -->
<g id="edge10_Node000001_Node000007" class="edge">
<title>Node1&#45;&gt;Node7</title>
<g id="a_edge10_Node000001_Node000007"><a xlink:title=" ">
<path fill="none" stroke="#63b8ff" d="M502.6,-110.76C500.74,-95.79 495.84,-77.34 483.5,-66 477.1,-60.12 384.52,-42.65 313.88,-30.01"/>
<polygon fill="#63b8ff" stroke="#63b8ff" points="499.13,-111.23 503.49,-120.89 506.11,-110.62 499.13,-111.23"/>
</a>
</g>
</g>
<!-- Node9 -->
<g id="Node000009" class="node">
<title>Node9</title>
<g id="a_Node000009"><a xlink:href="Mesh__utest_8cpp.html" target="_top" xlink:title=" ">
<polygon fill="white" stroke="#666666" points="827,-30 704,-30 704,0 827,0 827,-30"/>
<text text-anchor="start" x="712" y="-18" font-family="Helvetica,sans-Serif" font-size="10.00">App/Test/Source/Mesh</text>
<text text-anchor="middle" x="765.5" y="-7" font-family="Helvetica,sans-Serif" font-size="10.00">_utest.cpp</text>
</a>
</g>
</g>
<!-- Node1&#45;&gt;Node9 -->
<g id="edge11_Node000001_Node000009" class="edge">
<title>Node1&#45;&gt;Node9</title>
<g id="a_edge11_Node000001_Node000009"><a xlink:title=" ">
<path fill="none" stroke="#63b8ff" d="M579.2,-127.39C619.06,-120.74 667.43,-108.28 705.5,-85 728.12,-71.17 746.76,-46.02 756.99,-30.21"/>
<polygon fill="#63b8ff" stroke="#63b8ff" points="578.6,-123.95 569.26,-128.96 579.69,-130.86 578.6,-123.95"/>
</a>
</g>
</g>
<!-- Node10 -->
<g id="Node000010" class="node">
<title>Node10</title>
<g id="a_Node000010"><a xlink:href="PrimitiveProxy__utest_8cpp.html" target="_top" xlink:title=" ">
<polygon fill="white" stroke="#666666" points="986,-30 845,-30 845,0 986,0 986,-30"/>
<text text-anchor="start" x="853" y="-18" font-family="Helvetica,sans-Serif" font-size="10.00">App/Test/Source/Primitive</text>
<text text-anchor="middle" x="915.5" y="-7" font-family="Helvetica,sans-Serif" font-size="10.00">Proxy_utest.cpp</text>
</a>
</g>
</g>
<!-- Node1&#45;&gt;Node10 -->
<g id="edge12_Node000001_Node000010" class="edge">
<title>Node1&#45;&gt;Node10</title>
<g id="a_edge12_Node000001_Node000010"><a xlink:title=" ">
<path fill="none" stroke="#63b8ff" d="M579.05,-121.12C623.53,-112.27 680.66,-99.7 730.5,-85 784.58,-69.04 845.55,-45.1 882.22,-30.03"/>
<polygon fill="#63b8ff" stroke="#63b8ff" points="578.32,-117.7 569.19,-123.06 579.67,-124.56 578.32,-117.7"/>
</a>
</g>
</g>
<!-- Node6 -->
<g id="Node000006" class="node">
<title>Node6</title>
<g id="a_Node000006"><a xlink:href="MeshCirculator__utest_8cpp.html" target="_top" xlink:title=" ">
<polygon fill="white" stroke="#666666" points="685.5,-30 515.5,-30 515.5,0 685.5,0 685.5,-30"/>
<text text-anchor="start" x="523.5" y="-18" font-family="Helvetica,sans-Serif" font-size="10.00">App/Test/Source/MeshCirculator</text>
<text text-anchor="middle" x="600.5" y="-7" font-family="Helvetica,sans-Serif" font-size="10.00">_utest.cpp</text>
</a>
</g>
</g>
<!-- Node5&#45;&gt;Node6 -->
<g id="edge5_Node000005_Node000006" class="edge">
<title>Node5&#45;&gt;Node6</title>
<g id="a_edge5_Node000005_Node000006"><a xlink:title=" ">
<path fill="none" stroke="#63b8ff" d="M610.06,-55.93C608.06,-47.58 605.73,-37.87 603.88,-30.11"/>
<polygon fill="#63b8ff" stroke="#63b8ff" points="606.7,-56.96 612.43,-65.87 613.51,-55.33 606.7,-56.96"/>
</a>
</g>
</g>
<!-- Node5&#45;&gt;Node7 -->
<g id="edge6_Node000005_Node000007" class="edge">
<title>Node5&#45;&gt;Node7</title>
<g id="a_edge6_Node000005_Node000007"><a xlink:title=" ">
<path fill="none" stroke="#63b8ff" d="M549.01,-64.46C490.23,-55.44 401.6,-41.85 324.5,-30 321.66,-29.56 318.76,-29.12 315.84,-28.67"/>
<polygon fill="#63b8ff" stroke="#63b8ff" points="548.49,-67.92 558.9,-65.98 549.55,-61 548.49,-67.92"/>
</a>
</g>
</g>
<!-- Node8 -->
<g id="Node000008" class="node">
<title>Node8</title>
<g id="a_Node000008"><a xlink:href="MeshIntegrity__utest_8cpp.html" target="_top" xlink:title=" ">
<polygon fill="white" stroke="#666666" points="497.5,-30 333.5,-30 333.5,0 497.5,0 497.5,-30"/>
<text text-anchor="start" x="341.5" y="-18" font-family="Helvetica,sans-Serif" font-size="10.00">App/Test/Source/MeshIntegrity</text>
<text text-anchor="middle" x="415.5" y="-7" font-family="Helvetica,sans-Serif" font-size="10.00">_utest.cpp</text>
</a>
</g>
</g>
<!-- Node5&#45;&gt;Node8 -->
<g id="edge7_Node000005_Node000008" class="edge">
<title>Node5&#45;&gt;Node8</title>
<g id="a_edge7_Node000005_Node000008"><a xlink:title=" ">
<path fill="none" stroke="#63b8ff" d="M575.64,-63.08C543.51,-53.63 497.73,-40.17 463.34,-30.06"/>
<polygon fill="#63b8ff" stroke="#63b8ff" points="574.98,-66.53 585.56,-65.99 576.96,-59.82 574.98,-66.53"/>
</a>
</g>
</g>
<!-- Node5&#45;&gt;Node9 -->
<g id="edge8_Node000005_Node000009" class="edge">
<title>Node5&#45;&gt;Node9</title>
<g id="a_edge8_Node000005_Node000009"><a xlink:title=" ">
<path fill="none" stroke="#63b8ff" d="M645.91,-62.33C670.17,-52.93 703.78,-39.91 729.2,-30.06"/>
<polygon fill="#63b8ff" stroke="#63b8ff" points="644.52,-59.12 636.46,-65.99 647.05,-65.64 644.52,-59.12"/>
</a>
</g>
</g>
<!-- Node5&#45;&gt;Node10 -->
<g id="edge9_Node000005_Node000010" class="edge">
<title>Node5&#45;&gt;Node10</title>
<g id="a_edge9_Node000005_Node000010"><a xlink:title=" ">
<path fill="none" stroke="#63b8ff" d="M668.1,-64.08C717.39,-54.5 790.81,-40.23 844.88,-29.73"/>
<polygon fill="#63b8ff" stroke="#63b8ff" points="667.42,-60.65 658.27,-65.99 668.75,-67.52 667.42,-60.65"/>
</a>
</g>
</g>
</g>
</svg>
