<?xml version="1.0" encoding="UTF-8" standalone="no"?>
<!DOCTYPE svg PUBLIC "-//W3C//DTD SVG 1.1//EN"
 "http://www.w3.org/Graphics/SVG/1.1/DTD/svg11.dtd">
<!-- Generated by graphviz version 2.43.0 (0)
 -->
<!-- Title: App/Test/Source/PrimitiveProxy_utest.cpp Pages: 1 -->
<svg width="675pt" height="368pt"
 viewBox="0.00 0.00 674.97 368.00" xmlns="http://www.w3.org/2000/svg" xmlns:xlink="http://www.w3.org/1999/xlink">
<g id="graph0" class="graph" transform="scale(1 1) rotate(0) translate(4 364)">
<title>App/Test/Source/PrimitiveProxy_utest.cpp</title>
<!-- Node1 -->
<g id="Node000001" class="node">
<title>Node1</title>
<g id="a_Node000001"><a xlink:title=" ">
<polygon fill="#999999" stroke="#666666" points="469.97,-360 328.97,-360 328.97,-330 469.97,-330 469.97,-360"/>
<text text-anchor="start" x="336.97" y="-348" font-family="Helvetica,sans-Serif" font-size="10.00">App/Test/Source/Primitive</text>
<text text-anchor="middle" x="399.47" y="-337" font-family="Helvetica,sans-Serif" font-size="10.00">Proxy_utest.cpp</text>
</a>
</g>
</g>
<!-- Node2 -->
<g id="Node000002" class="node">
<title>Node2</title>
<g id="a_Node000002"><a xlink:href="PrimitiveProxy_8h.html" target="_top" xlink:title=" ">
<polygon fill="white" stroke="#666666" points="478.47,-239 324.47,-239 324.47,-220 478.47,-220 478.47,-239"/>
<text text-anchor="middle" x="401.47" y="-227" font-family="Helvetica,sans-Serif" font-size="10.00">Application/PrimitiveProxy.h</text>
</a>
</g>
</g>
<!-- Node1&#45;&gt;Node2 -->
<g id="edge1_Node000001_Node000002" class="edge">
<title>Node1&#45;&gt;Node2</title>
<g id="a_edge1_Node000001_Node000002"><a xlink:title=" ">
<path fill="none" stroke="#63b8ff" d="M399.72,-329.63C400.08,-309.21 400.74,-271.81 401.14,-249.24"/>
<polygon fill="#63b8ff" stroke="#63b8ff" points="404.64,-249.29 401.32,-239.23 397.64,-249.17 404.64,-249.29"/>
</a>
</g>
</g>
<!-- Node17 -->
<g id="Node000017" class="node">
<title>Node17</title>
<g id="a_Node000017"><a xlink:href="TestHelpers_8h.html" target="_top" xlink:title=" ">
<polygon fill="white" stroke="#666666" points="369.47,-294 229.47,-294 229.47,-275 369.47,-275 369.47,-294"/>
<text text-anchor="middle" x="299.47" y="-282" font-family="Helvetica,sans-Serif" font-size="10.00">Application/TestHelpers.h</text>
</a>
</g>
</g>
<!-- Node1&#45;&gt;Node17 -->
<g id="edge18_Node000001_Node000017" class="edge">
<title>Node1&#45;&gt;Node17</title>
<g id="a_edge18_Node000001_Node000017"><a xlink:title=" ">
<path fill="none" stroke="#63b8ff" d="M375.52,-329.99C359.58,-320.66 338.74,-308.47 322.91,-299.21"/>
<polygon fill="#63b8ff" stroke="#63b8ff" points="324.64,-296.17 314.24,-294.14 321.1,-302.21 324.64,-296.17"/>
</a>
</g>
</g>
<!-- Node20 -->
<g id="Node000020" class="node">
<title>Node20</title>
<g id="a_Node000020"><a xlink:title=" ">
<polygon fill="#e0e0e0" stroke="#999999" points="505.47,-294 427.47,-294 427.47,-275 505.47,-275 505.47,-294"/>
<text text-anchor="middle" x="466.47" y="-282" font-family="Helvetica,sans-Serif" font-size="10.00">gtest/gtest.h</text>
</a>
</g>
</g>
<!-- Node1&#45;&gt;Node20 -->
<g id="edge26_Node000001_Node000020" class="edge">
<title>Node1&#45;&gt;Node20</title>
<g id="a_edge26_Node000001_Node000020"><a xlink:title=" ">
<path fill="none" stroke="#63b8ff" d="M415.69,-329.84C425.71,-321.09 438.58,-309.85 448.85,-300.88"/>
<polygon fill="#63b8ff" stroke="#63b8ff" points="451.2,-303.48 456.43,-294.27 446.59,-298.21 451.2,-303.48"/>
</a>
</g>
</g>
<!-- Node3 -->
<g id="Node000003" class="node">
<title>Node3</title>
<g id="a_Node000003"><a xlink:href="Mesh_8h.html" target="_top" xlink:title=" ">
<polygon fill="white" stroke="#666666" points="409.47,-184 299.47,-184 299.47,-165 409.47,-165 409.47,-184"/>
<text text-anchor="middle" x="354.47" y="-172" font-family="Helvetica,sans-Serif" font-size="10.00">Application/Mesh.h</text>
</a>
</g>
</g>
<!-- Node2&#45;&gt;Node3 -->
<g id="edge2_Node000002_Node000003" class="edge">
<title>Node2&#45;&gt;Node3</title>
<g id="a_edge2_Node000002_Node000003"><a xlink:title=" ">
<path fill="none" stroke="#63b8ff" d="M393.71,-219.75C387,-212.18 377.13,-201.05 368.96,-191.84"/>
<polygon fill="#63b8ff" stroke="#63b8ff" points="371.34,-189.25 362.09,-184.09 366.1,-193.89 371.34,-189.25"/>
</a>
</g>
</g>
<!-- Node9 -->
<g id="Node000009" class="node">
<title>Node9</title>
<g id="a_Node000009"><a xlink:href="BaseType_8h.html" target="_top" xlink:title=" ">
<polygon fill="white" stroke="#666666" points="355.47,-74 257.47,-74 257.47,-55 355.47,-55 355.47,-74"/>
<text text-anchor="middle" x="306.47" y="-62" font-family="Helvetica,sans-Serif" font-size="10.00">Core/BaseType.h</text>
</a>
</g>
</g>
<!-- Node2&#45;&gt;Node9 -->
<g id="edge17_Node000002_Node000009" class="edge">
<title>Node2&#45;&gt;Node9</title>
<g id="a_edge17_Node000002_Node000009"><a xlink:title=" ">
<path fill="none" stroke="#63b8ff" d="M405.83,-219.91C410.03,-211.14 416.07,-197.01 418.47,-184 424.5,-151.3 428.29,-135.93 407.47,-110 394.8,-94.22 375.4,-83.89 356.97,-77.2"/>
<polygon fill="#63b8ff" stroke="#63b8ff" points="358.06,-73.87 347.47,-74.02 355.84,-80.51 358.06,-73.87"/>
</a>
</g>
</g>
<!-- Node4 -->
<g id="Node000004" class="node">
<title>Node4</title>
<g id="a_Node000004"><a xlink:href="ExtraDataContainer_8h.html" target="_top" xlink:title=" ">
<polygon fill="white" stroke="#666666" points="656.97,-129 477.97,-129 477.97,-110 656.97,-110 656.97,-129"/>
<text text-anchor="middle" x="567.47" y="-117" font-family="Helvetica,sans-Serif" font-size="10.00">Application/ExtraDataContainer.h</text>
</a>
</g>
</g>
<!-- Node3&#45;&gt;Node4 -->
<g id="edge3_Node000003_Node000004" class="edge">
<title>Node3&#45;&gt;Node4</title>
<g id="a_edge3_Node000003_Node000004"><a xlink:title=" ">
<path fill="none" stroke="#63b8ff" d="M388.69,-164.98C425.23,-155.89 483.25,-141.46 523.23,-131.51"/>
<polygon fill="#63b8ff" stroke="#63b8ff" points="524.12,-134.89 532.98,-129.08 522.43,-128.1 524.12,-134.89"/>
</a>
</g>
</g>
<!-- Node8 -->
<g id="Node000008" class="node">
<title>Node8</title>
<g id="a_Node000008"><a xlink:href="Primitive_8h.html" target="_top" xlink:title=" ">
<polygon fill="white" stroke="#666666" points="307.47,-129 179.47,-129 179.47,-110 307.47,-110 307.47,-129"/>
<text text-anchor="middle" x="243.47" y="-117" font-family="Helvetica,sans-Serif" font-size="10.00">Application/Primitive.h</text>
</a>
</g>
</g>
<!-- Node3&#45;&gt;Node8 -->
<g id="edge7_Node000003_Node000008" class="edge">
<title>Node3&#45;&gt;Node8</title>
<g id="a_edge7_Node000003_Node000008"><a xlink:title=" ">
<path fill="none" stroke="#63b8ff" d="M336.63,-164.98C318.86,-156.5 291.32,-143.35 270.79,-133.54"/>
<polygon fill="#63b8ff" stroke="#63b8ff" points="272.16,-130.32 261.63,-129.17 269.14,-136.64 272.16,-130.32"/>
</a>
</g>
</g>
<!-- Node3&#45;&gt;Node9 -->
<g id="edge14_Node000003_Node000009" class="edge">
<title>Node3&#45;&gt;Node9</title>
<g id="a_edge14_Node000003_Node000009"><a xlink:title=" ">
<path fill="none" stroke="#63b8ff" d="M366.21,-164.85C381.34,-152.6 404.36,-129.54 392.47,-110 383.28,-94.9 367.12,-84.69 351.28,-77.91"/>
<polygon fill="#63b8ff" stroke="#63b8ff" points="352.11,-74.48 341.52,-74.12 349.57,-81 352.11,-74.48"/>
</a>
</g>
</g>
<!-- Node15 -->
<g id="Node000015" class="node">
<title>Node15</title>
<g id="a_Node000015"><a xlink:title=" ">
<polygon fill="#e0e0e0" stroke="#999999" points="383.47,-129 325.47,-129 325.47,-110 383.47,-110 383.47,-129"/>
<text text-anchor="middle" x="354.47" y="-117" font-family="Helvetica,sans-Serif" font-size="10.00">memory</text>
</a>
</g>
</g>
<!-- Node3&#45;&gt;Node15 -->
<g id="edge15_Node000003_Node000015" class="edge">
<title>Node3&#45;&gt;Node15</title>
<g id="a_edge15_Node000003_Node000015"><a xlink:title=" ">
<path fill="none" stroke="#63b8ff" d="M354.47,-164.75C354.47,-157.8 354.47,-147.85 354.47,-139.13"/>
<polygon fill="#63b8ff" stroke="#63b8ff" points="357.97,-139.09 354.47,-129.09 350.97,-139.09 357.97,-139.09"/>
</a>
</g>
</g>
<!-- Node16 -->
<g id="Node000016" class="node">
<title>Node16</title>
<g id="a_Node000016"><a xlink:title=" ">
<polygon fill="#e0e0e0" stroke="#999999" points="160.97,-129 113.97,-129 113.97,-110 160.97,-110 160.97,-129"/>
<text text-anchor="middle" x="137.47" y="-117" font-family="Helvetica,sans-Serif" font-size="10.00">vector</text>
</a>
</g>
</g>
<!-- Node3&#45;&gt;Node16 -->
<g id="edge16_Node000003_Node000016" class="edge">
<title>Node3&#45;&gt;Node16</title>
<g id="a_edge16_Node000003_Node000016"><a xlink:title=" ">
<path fill="none" stroke="#63b8ff" d="M318.47,-164.96C283.38,-156.6 228.25,-143.37 171.17,-129.15"/>
<polygon fill="#63b8ff" stroke="#63b8ff" points="171.8,-125.7 161.25,-126.67 170.11,-132.49 171.8,-125.7"/>
</a>
</g>
</g>
<!-- Node5 -->
<g id="Node000005" class="node">
<title>Node5</title>
<g id="a_Node000005"><a xlink:title=" ">
<polygon fill="#e0e0e0" stroke="#999999" points="666.97,-74 631.97,-74 631.97,-55 666.97,-55 666.97,-74"/>
<text text-anchor="middle" x="649.47" y="-62" font-family="Helvetica,sans-Serif" font-size="10.00">any</text>
</a>
</g>
</g>
<!-- Node4&#45;&gt;Node5 -->
<g id="edge4_Node000004_Node000005" class="edge">
<title>Node4&#45;&gt;Node5</title>
<g id="a_edge4_Node000004_Node000005"><a xlink:title=" ">
<path fill="none" stroke="#63b8ff" d="M580.64,-109.98C593.24,-101.84 612.47,-89.41 627.41,-79.76"/>
<polygon fill="#63b8ff" stroke="#63b8ff" points="629.56,-82.54 636.05,-74.17 625.76,-76.66 629.56,-82.54"/>
</a>
</g>
</g>
<!-- Node6 -->
<g id="Node000006" class="node">
<title>Node6</title>
<g id="a_Node000006"><a xlink:title=" ">
<polygon fill="#e0e0e0" stroke="#999999" points="502.97,-74 437.97,-74 437.97,-55 502.97,-55 502.97,-74"/>
<text text-anchor="middle" x="470.47" y="-62" font-family="Helvetica,sans-Serif" font-size="10.00">typeindex</text>
</a>
</g>
</g>
<!-- Node4&#45;&gt;Node6 -->
<g id="edge5_Node000004_Node000006" class="edge">
<title>Node4&#45;&gt;Node6</title>
<g id="a_edge5_Node000004_Node000006"><a xlink:title=" ">
<path fill="none" stroke="#63b8ff" d="M551.88,-109.98C536.7,-101.69 513.37,-88.94 495.57,-79.22"/>
<polygon fill="#63b8ff" stroke="#63b8ff" points="496.79,-75.89 486.34,-74.17 493.43,-82.04 496.79,-75.89"/>
</a>
</g>
</g>
<!-- Node7 -->
<g id="Node000007" class="node">
<title>Node7</title>
<g id="a_Node000007"><a xlink:title=" ">
<polygon fill="#e0e0e0" stroke="#999999" points="613.97,-74 520.97,-74 520.97,-55 613.97,-55 613.97,-74"/>
<text text-anchor="middle" x="567.47" y="-62" font-family="Helvetica,sans-Serif" font-size="10.00">unordered_map</text>
</a>
</g>
</g>
<!-- Node4&#45;&gt;Node7 -->
<g id="edge6_Node000004_Node000007" class="edge">
<title>Node4&#45;&gt;Node7</title>
<g id="a_edge6_Node000004_Node000007"><a xlink:title=" ">
<path fill="none" stroke="#63b8ff" d="M567.47,-109.75C567.47,-102.8 567.47,-92.85 567.47,-84.13"/>
<polygon fill="#63b8ff" stroke="#63b8ff" points="570.97,-84.09 567.47,-74.09 563.97,-84.09 570.97,-84.09"/>
</a>
</g>
</g>
<!-- Node8&#45;&gt;Node9 -->
<g id="edge8_Node000008_Node000009" class="edge">
<title>Node8&#45;&gt;Node9</title>
<g id="a_edge8_Node000008_Node000009"><a xlink:title=" ">
<path fill="none" stroke="#63b8ff" d="M253.59,-109.98C262.9,-102.15 276.94,-90.34 288.21,-80.86"/>
<polygon fill="#63b8ff" stroke="#63b8ff" points="290.76,-83.29 296.16,-74.17 286.26,-77.93 290.76,-83.29"/>
</a>
</g>
</g>
<!-- Node14 -->
<g id="Node000014" class="node">
<title>Node14</title>
<g id="a_Node000014"><a xlink:title=" ">
<polygon fill="#e0e0e0" stroke="#999999" points="154.47,-74 112.47,-74 112.47,-55 154.47,-55 154.47,-74"/>
<text text-anchor="middle" x="133.47" y="-62" font-family="Helvetica,sans-Serif" font-size="10.00">array</text>
</a>
</g>
</g>
<!-- Node8&#45;&gt;Node14 -->
<g id="edge13_Node000008_Node000014" class="edge">
<title>Node8&#45;&gt;Node14</title>
<g id="a_edge13_Node000008_Node000014"><a xlink:title=" ">
<path fill="none" stroke="#63b8ff" d="M225.8,-109.98C208.18,-101.5 180.89,-88.35 160.54,-78.54"/>
<polygon fill="#63b8ff" stroke="#63b8ff" points="161.99,-75.36 151.46,-74.17 158.95,-81.66 161.99,-75.36"/>
</a>
</g>
</g>
<!-- Node10 -->
<g id="Node000010" class="node">
<title>Node10</title>
<g id="a_Node000010"><a xlink:title=" ">
<polygon fill="#e0e0e0" stroke="#999999" points="162.47,-19 84.47,-19 84.47,0 162.47,0 162.47,-19"/>
<text text-anchor="middle" x="123.47" y="-7" font-family="Helvetica,sans-Serif" font-size="10.00">glm/glm.hpp</text>
</a>
</g>
</g>
<!-- Node9&#45;&gt;Node10 -->
<g id="edge9_Node000009_Node000010" class="edge">
<title>Node9&#45;&gt;Node10</title>
<g id="a_edge9_Node000009_Node000010"><a xlink:title=" ">
<path fill="none" stroke="#63b8ff" d="M277.07,-54.98C246.08,-46.01 197.09,-31.82 162.8,-21.89"/>
<polygon fill="#63b8ff" stroke="#63b8ff" points="163.68,-18.5 153.1,-19.08 161.73,-25.23 163.68,-18.5"/>
</a>
</g>
</g>
<!-- Node11 -->
<g id="Node000011" class="node">
<title>Node11</title>
<g id="a_Node000011"><a xlink:title=" ">
<polygon fill="#e0e0e0" stroke="#999999" points="321.97,-19 180.97,-19 180.97,0 321.97,0 321.97,-19"/>
<text text-anchor="middle" x="251.47" y="-7" font-family="Helvetica,sans-Serif" font-size="10.00">glm/gtx/vector_angle.hpp</text>
</a>
</g>
</g>
<!-- Node9&#45;&gt;Node11 -->
<g id="edge10_Node000009_Node000011" class="edge">
<title>Node9&#45;&gt;Node11</title>
<g id="a_edge10_Node000009_Node000011"><a xlink:title=" ">
<path fill="none" stroke="#63b8ff" d="M297.39,-54.75C289.38,-47.03 277.51,-35.6 267.85,-26.28"/>
<polygon fill="#63b8ff" stroke="#63b8ff" points="270.01,-23.51 260.38,-19.09 265.15,-28.55 270.01,-23.51"/>
</a>
</g>
</g>
<!-- Node12 -->
<g id="Node000012" class="node">
<title>Node12</title>
<g id="a_Node000012"><a xlink:title=" ">
<polygon fill="#e0e0e0" stroke="#999999" points="384.47,-19 340.47,-19 340.47,0 384.47,0 384.47,-19"/>
<text text-anchor="middle" x="362.47" y="-7" font-family="Helvetica,sans-Serif" font-size="10.00">bitset</text>
</a>
</g>
</g>
<!-- Node9&#45;&gt;Node12 -->
<g id="edge11_Node000009_Node000012" class="edge">
<title>Node9&#45;&gt;Node12</title>
<g id="a_edge11_Node000009_Node000012"><a xlink:title=" ">
<path fill="none" stroke="#63b8ff" d="M315.47,-54.98C323.66,-47.23 335.97,-35.58 345.94,-26.14"/>
<polygon fill="#63b8ff" stroke="#63b8ff" points="348.45,-28.59 353.31,-19.17 343.64,-23.5 348.45,-28.59"/>
</a>
</g>
</g>
<!-- Node13 -->
<g id="Node000013" class="node">
<title>Node13</title>
<g id="a_Node000013"><a xlink:title=" ">
<polygon fill="#e0e0e0" stroke="#999999" points="452.47,-19 402.47,-19 402.47,0 452.47,0 452.47,-19"/>
<text text-anchor="middle" x="427.47" y="-7" font-family="Helvetica,sans-Serif" font-size="10.00">cstdint</text>
</a>
</g>
</g>
<!-- Node9&#45;&gt;Node13 -->
<g id="edge12_Node000009_Node000013" class="edge">
<title>Node9&#45;&gt;Node13</title>
<g id="a_edge12_Node000009_Node000013"><a xlink:title=" ">
<path fill="none" stroke="#63b8ff" d="M325.91,-54.98C345.46,-46.42 375.85,-33.11 398.29,-23.28"/>
<polygon fill="#63b8ff" stroke="#63b8ff" points="399.92,-26.39 407.67,-19.17 397.11,-19.98 399.92,-26.39"/>
</a>
</g>
</g>
<!-- Node17&#45;&gt;Node2 -->
<g id="edge25_Node000017_Node000002" class="edge">
<title>Node17&#45;&gt;Node2</title>
<g id="a_edge25_Node000017_Node000002"><a xlink:title=" ">
<path fill="none" stroke="#63b8ff" d="M315.86,-274.98C332.04,-266.57 357.04,-253.59 375.85,-243.81"/>
<polygon fill="#63b8ff" stroke="#63b8ff" points="377.52,-246.89 384.78,-239.17 374.3,-240.68 377.52,-246.89"/>
</a>
</g>
</g>
<!-- Node17&#45;&gt;Node3 -->
<g id="edge24_Node000017_Node000003" class="edge">
<title>Node17&#45;&gt;Node3</title>
<g id="a_edge24_Node000017_Node000003"><a xlink:title=" ">
<path fill="none" stroke="#63b8ff" d="M300.35,-274.82C301.91,-262.15 305.96,-238.12 315.47,-220 321.05,-209.36 329.68,-199.15 337.4,-191.2"/>
<polygon fill="#63b8ff" stroke="#63b8ff" points="339.98,-193.57 344.67,-184.07 335.08,-188.57 339.98,-193.57"/>
</a>
</g>
</g>
<!-- Node18 -->
<g id="Node000018" class="node">
<title>Node18</title>
<g id="a_Node000018"><a xlink:href="ExtraDataType_8h.html" target="_top" xlink:title=" ">
<polygon fill="white" stroke="#666666" points="162.97,-184 7.97,-184 7.97,-165 162.97,-165 162.97,-184"/>
<text text-anchor="middle" x="85.47" y="-172" font-family="Helvetica,sans-Serif" font-size="10.00">Application/ExtraDataType.h</text>
</a>
</g>
</g>
<!-- Node17&#45;&gt;Node18 -->
<g id="edge19_Node000017_Node000018" class="edge">
<title>Node17&#45;&gt;Node18</title>
<g id="a_edge19_Node000017_Node000018"><a xlink:title=" ">
<path fill="none" stroke="#63b8ff" d="M282.32,-274.84C244.9,-255.96 155.72,-210.96 111.4,-188.59"/>
<polygon fill="#63b8ff" stroke="#63b8ff" points="112.91,-185.43 102.4,-184.05 109.75,-191.68 112.91,-185.43"/>
</a>
</g>
</g>
<!-- Node18&#45;&gt;Node9 -->
<g id="edge20_Node000018_Node000009" class="edge">
<title>Node18&#45;&gt;Node9</title>
<g id="a_edge20_Node000018_Node000009"><a xlink:title=" ">
<path fill="none" stroke="#63b8ff" d="M85.45,-164.68C85.93,-150.91 88.95,-124.41 104.47,-110 124.94,-90.98 195.17,-78.64 247.1,-71.89"/>
<polygon fill="#63b8ff" stroke="#63b8ff" points="247.74,-75.34 257.22,-70.61 246.86,-68.39 247.74,-75.34"/>
</a>
</g>
</g>
<!-- Node18&#45;&gt;Node14 -->
<g id="edge21_Node000018_Node000014" class="edge">
<title>Node18&#45;&gt;Node14</title>
<g id="a_edge21_Node000018_Node000014"><a xlink:title=" ">
<path fill="none" stroke="#63b8ff" d="M57.42,-164.91C27.61,-154.27 -13.01,-134.52 4.47,-110 26.55,-79.02 71.68,-69.4 102.26,-66.53"/>
<polygon fill="#63b8ff" stroke="#63b8ff" points="102.7,-70.01 112.41,-65.77 102.18,-63.02 102.7,-70.01"/>
</a>
</g>
</g>
<!-- Node18&#45;&gt;Node16 -->
<g id="edge23_Node000018_Node000016" class="edge">
<title>Node18&#45;&gt;Node16</title>
<g id="a_edge23_Node000018_Node000016"><a xlink:title=" ">
<path fill="none" stroke="#63b8ff" d="M94.06,-164.75C101.63,-157.03 112.85,-145.6 121.98,-136.28"/>
<polygon fill="#63b8ff" stroke="#63b8ff" points="124.54,-138.68 129.04,-129.09 119.54,-133.78 124.54,-138.68"/>
</a>
</g>
</g>
<!-- Node19 -->
<g id="Node000019" class="node">
<title>Node19</title>
<g id="a_Node000019"><a xlink:title=" ">
<polygon fill="#e0e0e0" stroke="#999999" points="57.47,-129 13.47,-129 13.47,-110 57.47,-110 57.47,-129"/>
<text text-anchor="middle" x="35.47" y="-117" font-family="Helvetica,sans-Serif" font-size="10.00">string</text>
</a>
</g>
</g>
<!-- Node18&#45;&gt;Node19 -->
<g id="edge22_Node000018_Node000019" class="edge">
<title>Node18&#45;&gt;Node19</title>
<g id="a_edge22_Node000018_Node000019"><a xlink:title=" ">
<path fill="none" stroke="#63b8ff" d="M77.21,-164.75C70,-157.11 59.36,-145.82 50.62,-136.56"/>
<polygon fill="#63b8ff" stroke="#63b8ff" points="52.98,-133.96 43.57,-129.09 47.89,-138.76 52.98,-133.96"/>
</a>
</g>
</g>
</g>
</svg>
