<?xml version="1.0" encoding="UTF-8" standalone="no"?>
<!DOCTYPE svg PUBLIC "-//W3C//DTD SVG 1.1//EN"
 "http://www.w3.org/Graphics/SVG/1.1/DTD/svg11.dtd">
<!-- Generated by graphviz version 2.43.0 (0)
 -->
<!-- Title: App/Include/Application/PrimitiveProxy.h Pages: 1 -->
<svg width="1499pt" height="170pt"
 viewBox="0.00 0.00 1499.00 170.00" xmlns="http://www.w3.org/2000/svg" xmlns:xlink="http://www.w3.org/1999/xlink">
<g id="graph0" class="graph" transform="scale(1 1) rotate(0) translate(4 166)">
<title>App/Include/Application/PrimitiveProxy.h</title>
<!-- Node1 -->
<g id="Node000001" class="node">
<title>Node1</title>
<g id="a_Node000001"><a xlink:title=" ">
<polygon fill="#999999" stroke="#666666" points="788.5,-162 657.5,-162 657.5,-132 788.5,-132 788.5,-162"/>
<text text-anchor="start" x="665.5" y="-150" font-family="Helvetica,sans-Serif" font-size="10.00">App/Include/Application</text>
<text text-anchor="middle" x="723" y="-139" font-family="Helvetica,sans-Serif" font-size="10.00">/PrimitiveProxy.h</text>
</a>
</g>
</g>
<!-- Node2 -->
<g id="Node000002" class="node">
<title>Node2</title>
<g id="a_Node000002"><a xlink:href="TestHelpers_8h.html" target="_top" xlink:title=" ">
<polygon fill="white" stroke="#666666" points="532.5,-96 401.5,-96 401.5,-66 532.5,-66 532.5,-96"/>
<text text-anchor="start" x="409.5" y="-84" font-family="Helvetica,sans-Serif" font-size="10.00">App/Include/Application</text>
<text text-anchor="middle" x="467" y="-73" font-family="Helvetica,sans-Serif" font-size="10.00">/TestHelpers.h</text>
</a>
</g>
</g>
<!-- Node1&#45;&gt;Node2 -->
<g id="edge1_Node000001_Node000002" class="edge">
<title>Node1&#45;&gt;Node2</title>
<g id="a_edge1_Node000001_Node000002"><a xlink:title=" ">
<path fill="none" stroke="#63b8ff" d="M657.07,-129.52C615.55,-119.14 562.53,-105.88 523.05,-96.01"/>
<polygon fill="#63b8ff" stroke="#63b8ff" points="656.27,-132.92 666.82,-131.95 657.97,-126.13 656.27,-132.92"/>
</a>
</g>
</g>
<!-- Node4 -->
<g id="Node000004" class="node">
<title>Node4</title>
<g id="a_Node000004"><a xlink:href="MeshExporter__utest_8cpp.html" target="_top" xlink:title=" ">
<polygon fill="white" stroke="#666666" points="164,-30 0,-30 0,0 164,0 164,-30"/>
<text text-anchor="start" x="8" y="-18" font-family="Helvetica,sans-Serif" font-size="10.00">App/Test/Source/MeshExporter</text>
<text text-anchor="middle" x="82" y="-7" font-family="Helvetica,sans-Serif" font-size="10.00">_utest.cpp</text>
</a>
</g>
</g>
<!-- Node1&#45;&gt;Node4 -->
<g id="edge11_Node000001_Node000004" class="edge">
<title>Node1&#45;&gt;Node4</title>
<g id="a_edge11_Node000001_Node000004"><a xlink:title=" ">
<path fill="none" stroke="#63b8ff" d="M647.24,-136.81C579.89,-128.1 478.93,-113.73 392,-96 298.33,-76.89 190.59,-47.35 129.97,-30.02"/>
<polygon fill="#63b8ff" stroke="#63b8ff" points="646.97,-140.3 657.33,-138.1 647.86,-133.36 646.97,-140.3"/>
</a>
</g>
</g>
<!-- Node6 -->
<g id="Node000006" class="node">
<title>Node6</title>
<g id="a_Node000006"><a xlink:href="Mesh__utest_8cpp.html" target="_top" xlink:title=" ">
<polygon fill="white" stroke="#666666" points="675.5,-30 552.5,-30 552.5,0 675.5,0 675.5,-30"/>
<text text-anchor="start" x="560.5" y="-18" font-family="Helvetica,sans-Serif" font-size="10.00">App/Test/Source/Mesh</text>
<text text-anchor="middle" x="614" y="-7" font-family="Helvetica,sans-Serif" font-size="10.00">_utest.cpp</text>
</a>
</g>
</g>
<!-- Node1&#45;&gt;Node6 -->
<g id="edge13_Node000001_Node000006" class="edge">
<title>Node1&#45;&gt;Node6</title>
<g id="a_edge13_Node000001_Node000006"><a xlink:title=" ">
<path fill="none" stroke="#63b8ff" d="M683.11,-127.02C669.56,-118.99 655.27,-108.57 645,-96 628.88,-76.28 620.46,-47.21 616.65,-30.08"/>
<polygon fill="#63b8ff" stroke="#63b8ff" points="681.42,-130.08 691.85,-131.94 684.86,-123.98 681.42,-130.08"/>
</a>
</g>
</g>
<!-- Node7 -->
<g id="Node000007" class="node">
<title>Node7</title>
<g id="a_Node000007"><a xlink:href="PrimitiveProxy__utest_8cpp.html" target="_top" xlink:title=" ">
<polygon fill="white" stroke="#666666" points="834.5,-30 693.5,-30 693.5,0 834.5,0 834.5,-30"/>
<text text-anchor="start" x="701.5" y="-18" font-family="Helvetica,sans-Serif" font-size="10.00">App/Test/Source/Primitive</text>
<text text-anchor="middle" x="764" y="-7" font-family="Helvetica,sans-Serif" font-size="10.00">Proxy_utest.cpp</text>
</a>
</g>
</g>
<!-- Node1&#45;&gt;Node7 -->
<g id="edge14_Node000001_Node000007" class="edge">
<title>Node1&#45;&gt;Node7</title>
<g id="a_edge14_Node000001_Node000007"><a xlink:title=" ">
<path fill="none" stroke="#63b8ff" d="M682.97,-126.36C671.5,-118.59 660.38,-108.5 654,-96 647.94,-84.12 646.78,-77.21 654,-66 665.02,-48.89 683.48,-37.57 702.16,-30.11"/>
<polygon fill="#63b8ff" stroke="#63b8ff" points="681.41,-129.51 691.74,-131.84 685.12,-123.57 681.41,-129.51"/>
</a>
</g>
</g>
<!-- Node8 -->
<g id="Node000008" class="node">
<title>Node8</title>
<g id="a_Node000008"><a xlink:href="Mesh_8cpp.html" target="_top" xlink:title=" ">
<polygon fill="white" stroke="#666666" points="783.5,-90.5 662.5,-90.5 662.5,-71.5 783.5,-71.5 783.5,-90.5"/>
<text text-anchor="middle" x="723" y="-78.5" font-family="Helvetica,sans-Serif" font-size="10.00">App/Source/Mesh.cpp</text>
</a>
</g>
</g>
<!-- Node1&#45;&gt;Node8 -->
<g id="edge7_Node000001_Node000008" class="edge">
<title>Node1&#45;&gt;Node8</title>
<g id="a_edge7_Node000001_Node000008"><a xlink:title=" ">
<path fill="none" stroke="#63b8ff" d="M723,-121.6C723,-110.8 723,-98.78 723,-90.84"/>
<polygon fill="#63b8ff" stroke="#63b8ff" points="719.5,-121.8 723,-131.8 726.5,-121.8 719.5,-121.8"/>
</a>
</g>
</g>
<!-- Node9 -->
<g id="Node000009" class="node">
<title>Node9</title>
<g id="a_Node000009"><a xlink:href="MeshExporter_8cpp.html" target="_top" xlink:title=" ">
<polygon fill="white" stroke="#666666" points="962.5,-90.5 801.5,-90.5 801.5,-71.5 962.5,-71.5 962.5,-90.5"/>
<text text-anchor="middle" x="882" y="-78.5" font-family="Helvetica,sans-Serif" font-size="10.00">App/Source/MeshExporter.cpp</text>
</a>
</g>
</g>
<!-- Node1&#45;&gt;Node9 -->
<g id="edge8_Node000001_Node000009" class="edge">
<title>Node1&#45;&gt;Node9</title>
<g id="a_edge8_Node000001_Node000009"><a xlink:title=" ">
<path fill="none" stroke="#63b8ff" d="M767.47,-128.1C797.99,-115.82 837.12,-100.06 860.84,-90.52"/>
<polygon fill="#63b8ff" stroke="#63b8ff" points="765.86,-124.97 757.89,-131.95 768.48,-131.47 765.86,-124.97"/>
</a>
</g>
</g>
<!-- Node10 -->
<g id="Node000010" class="node">
<title>Node10</title>
<g id="a_Node000010"><a xlink:href="MeshLoader_8cpp.html" target="_top" xlink:title=" ">
<polygon fill="white" stroke="#666666" points="1133.5,-90.5 980.5,-90.5 980.5,-71.5 1133.5,-71.5 1133.5,-90.5"/>
<text text-anchor="middle" x="1057" y="-78.5" font-family="Helvetica,sans-Serif" font-size="10.00">App/Source/MeshLoader.cpp</text>
</a>
</g>
</g>
<!-- Node1&#45;&gt;Node10 -->
<g id="edge9_Node000001_Node000010" class="edge">
<title>Node1&#45;&gt;Node10</title>
<g id="a_edge9_Node000001_Node000010"><a xlink:title=" ">
<path fill="none" stroke="#63b8ff" d="M798.51,-131.53C864.39,-118.91 957.75,-101.02 1012.37,-90.55"/>
<polygon fill="#63b8ff" stroke="#63b8ff" points="797.75,-128.11 788.59,-133.43 799.07,-134.99 797.75,-128.11"/>
</a>
</g>
</g>
<!-- Node11 -->
<g id="Node000011" class="node">
<title>Node11</title>
<g id="a_Node000011"><a xlink:href="PrimitiveProxy_8cpp.html" target="_top" xlink:title=" ">
<polygon fill="white" stroke="#666666" points="1316.5,-90.5 1151.5,-90.5 1151.5,-71.5 1316.5,-71.5 1316.5,-90.5"/>
<text text-anchor="middle" x="1234" y="-78.5" font-family="Helvetica,sans-Serif" font-size="10.00">App/Source/PrimitiveProxy.cpp</text>
</a>
</g>
</g>
<!-- Node1&#45;&gt;Node11 -->
<g id="edge10_Node000001_Node000011" class="edge">
<title>Node1&#45;&gt;Node11</title>
<g id="a_edge10_Node000001_Node000011"><a xlink:title=" ">
<path fill="none" stroke="#63b8ff" d="M798.54,-137.79C882.7,-128.47 1022.75,-112.4 1143,-96 1155.2,-94.34 1168.29,-92.41 1180.63,-90.52"/>
<polygon fill="#63b8ff" stroke="#63b8ff" points="798.12,-134.32 788.56,-138.9 798.89,-141.28 798.12,-134.32"/>
</a>
</g>
</g>
<!-- Node12 -->
<g id="Node000012" class="node">
<title>Node12</title>
<g id="a_Node000012"><a xlink:href="MeshLoader__utest_8cpp.html" target="_top" xlink:title=" ">
<polygon fill="white" stroke="#666666" points="1491,-96 1335,-96 1335,-66 1491,-66 1491,-96"/>
<text text-anchor="start" x="1343" y="-84" font-family="Helvetica,sans-Serif" font-size="10.00">App/Test/Source/MeshLoader</text>
<text text-anchor="middle" x="1413" y="-73" font-family="Helvetica,sans-Serif" font-size="10.00">_utest.cpp</text>
</a>
</g>
</g>
<!-- Node1&#45;&gt;Node12 -->
<g id="edge12_Node000001_Node000012" class="edge">
<title>Node1&#45;&gt;Node12</title>
<g id="a_edge12_Node000001_Node000012"><a xlink:title=" ">
<path fill="none" stroke="#63b8ff" d="M798.81,-141.59C913.29,-134.51 1136.97,-119.01 1326,-96 1328.89,-95.65 1331.82,-95.27 1334.79,-94.88"/>
<polygon fill="#63b8ff" stroke="#63b8ff" points="798.52,-138.1 788.75,-142.21 798.95,-145.09 798.52,-138.1"/>
</a>
</g>
</g>
<!-- Node3 -->
<g id="Node000003" class="node">
<title>Node3</title>
<g id="a_Node000003"><a xlink:href="MeshCirculator__utest_8cpp.html" target="_top" xlink:title=" ">
<polygon fill="white" stroke="#666666" points="534,-30 364,-30 364,0 534,0 534,-30"/>
<text text-anchor="start" x="372" y="-18" font-family="Helvetica,sans-Serif" font-size="10.00">App/Test/Source/MeshCirculator</text>
<text text-anchor="middle" x="449" y="-7" font-family="Helvetica,sans-Serif" font-size="10.00">_utest.cpp</text>
</a>
</g>
</g>
<!-- Node2&#45;&gt;Node3 -->
<g id="edge2_Node000002_Node000003" class="edge">
<title>Node2&#45;&gt;Node3</title>
<g id="a_edge2_Node000002_Node000003"><a xlink:title=" ">
<path fill="none" stroke="#63b8ff" d="M460.28,-56.11C457.82,-47.38 455.13,-37.78 452.98,-30.16"/>
<polygon fill="#63b8ff" stroke="#63b8ff" points="456.93,-57.12 463.01,-65.8 463.67,-55.22 456.93,-57.12"/>
</a>
</g>
</g>
<!-- Node2&#45;&gt;Node4 -->
<g id="edge3_Node000002_Node000004" class="edge">
<title>Node2&#45;&gt;Node4</title>
<g id="a_edge3_Node000002_Node000004"><a xlink:title=" ">
<path fill="none" stroke="#63b8ff" d="M391.01,-67.37C325.59,-56.49 231.4,-40.84 164.24,-29.67"/>
<polygon fill="#63b8ff" stroke="#63b8ff" points="390.81,-70.88 401.25,-69.07 391.96,-63.98 390.81,-70.88"/>
</a>
</g>
</g>
<!-- Node5 -->
<g id="Node000005" class="node">
<title>Node5</title>
<g id="a_Node000005"><a xlink:href="MeshIntegrity__utest_8cpp.html" target="_top" xlink:title=" ">
<polygon fill="white" stroke="#666666" points="346,-30 182,-30 182,0 346,0 346,-30"/>
<text text-anchor="start" x="190" y="-18" font-family="Helvetica,sans-Serif" font-size="10.00">App/Test/Source/MeshIntegrity</text>
<text text-anchor="middle" x="264" y="-7" font-family="Helvetica,sans-Serif" font-size="10.00">_utest.cpp</text>
</a>
</g>
</g>
<!-- Node2&#45;&gt;Node5 -->
<g id="edge4_Node000002_Node000005" class="edge">
<title>Node2&#45;&gt;Node5</title>
<g id="a_edge4_Node000002_Node000005"><a xlink:title=" ">
<path fill="none" stroke="#63b8ff" d="M412.62,-62.86C380.03,-52.58 339.1,-39.68 308.45,-30.01"/>
<polygon fill="#63b8ff" stroke="#63b8ff" points="411.86,-66.29 422.45,-65.95 413.97,-59.61 411.86,-66.29"/>
</a>
</g>
</g>
<!-- Node2&#45;&gt;Node6 -->
<g id="edge5_Node000002_Node000006" class="edge">
<title>Node2&#45;&gt;Node6</title>
<g id="a_edge5_Node000002_Node000006"><a xlink:title=" ">
<path fill="none" stroke="#63b8ff" d="M508.53,-61.92C531.76,-51.8 560.29,-39.38 581.82,-30.01"/>
<polygon fill="#63b8ff" stroke="#63b8ff" points="507.03,-58.75 499.26,-65.95 509.83,-65.17 507.03,-58.75"/>
</a>
</g>
</g>
<!-- Node2&#45;&gt;Node7 -->
<g id="edge6_Node000002_Node000007" class="edge">
<title>Node2&#45;&gt;Node7</title>
<g id="a_edge6_Node000002_Node000007"><a xlink:title=" ">
<path fill="none" stroke="#63b8ff" d="M541.97,-63.84C590.36,-53.42 652.68,-39.99 698.97,-30.01"/>
<polygon fill="#63b8ff" stroke="#63b8ff" points="541.22,-60.43 532.18,-65.95 542.69,-67.27 541.22,-60.43"/>
</a>
</g>
</g>
</g>
</svg>
