<?xml version="1.0" encoding="UTF-8" standalone="no"?>
<!DOCTYPE svg PUBLIC "-//W3C//DTD SVG 1.1//EN"
 "http://www.w3.org/Graphics/SVG/1.1/DTD/svg11.dtd">
<!-- Generated by graphviz version 2.43.0 (0)
 -->
<!-- Title: App/Include/Application/Primitive.h Pages: 1 -->
<svg width="1814pt" height="302pt"
 viewBox="0.00 0.00 1814.20 302.00" xmlns="http://www.w3.org/2000/svg" xmlns:xlink="http://www.w3.org/1999/xlink">
<g id="graph0" class="graph" transform="scale(1 1) rotate(0) translate(4 298)">
<title>App/Include/Application/Primitive.h</title>
<!-- Node1 -->
<g id="Node000001" class="node">
<title>Node1</title>
<g id="a_Node000001"><a xlink:title=" ">
<polygon fill="#999999" stroke="#666666" points="1444.7,-294 1313.7,-294 1313.7,-264 1444.7,-264 1444.7,-294"/>
<text text-anchor="start" x="1321.7" y="-282" font-family="Helvetica,sans-Serif" font-size="10.00">App/Include/Application</text>
<text text-anchor="middle" x="1379.2" y="-271" font-family="Helvetica,sans-Serif" font-size="10.00">/Primitive.h</text>
</a>
</g>
</g>
<!-- Node2 -->
<g id="Node000002" class="node">
<title>Node2</title>
<g id="a_Node000002"><a xlink:href="Mesh_8h.html" target="_top" xlink:title=" ">
<polygon fill="white" stroke="#666666" points="1029.7,-228 898.7,-228 898.7,-198 1029.7,-198 1029.7,-228"/>
<text text-anchor="start" x="906.7" y="-216" font-family="Helvetica,sans-Serif" font-size="10.00">App/Include/Application</text>
<text text-anchor="middle" x="964.2" y="-205" font-family="Helvetica,sans-Serif" font-size="10.00">/Mesh.h</text>
</a>
</g>
</g>
<!-- Node1&#45;&gt;Node2 -->
<g id="edge1_Node000001_Node000002" class="edge">
<title>Node1&#45;&gt;Node2</title>
<g id="a_edge1_Node000001_Node000002"><a xlink:title=" ">
<path fill="none" stroke="#63b8ff" d="M1303.16,-266.27C1224.92,-254.21 1104.26,-235.6 1029.99,-224.15"/>
<polygon fill="#63b8ff" stroke="#63b8ff" points="1303.02,-269.79 1313.44,-267.86 1304.09,-262.88 1303.02,-269.79"/>
</a>
</g>
</g>
<!-- Node20 -->
<g id="Node000020" class="node">
<title>Node20</title>
<g id="a_Node000020"><a xlink:href="VertexPair_8h.html" target="_top" xlink:title=" ">
<polygon fill="white" stroke="#666666" points="1629.7,-162 1498.7,-162 1498.7,-132 1629.7,-132 1629.7,-162"/>
<text text-anchor="start" x="1506.7" y="-150" font-family="Helvetica,sans-Serif" font-size="10.00">App/Include/Application</text>
<text text-anchor="middle" x="1564.2" y="-139" font-family="Helvetica,sans-Serif" font-size="10.00">/VertexPair.h</text>
</a>
</g>
</g>
<!-- Node1&#45;&gt;Node20 -->
<g id="edge34_Node000001_Node000020" class="edge">
<title>Node1&#45;&gt;Node20</title>
<g id="a_edge34_Node000001_Node000020"><a xlink:title=" ">
<path fill="none" stroke="#63b8ff" d="M1360.22,-255.61C1348.05,-238.42 1336.83,-214.85 1350.2,-198 1354.94,-192.02 1437.35,-173.99 1498.49,-161.3"/>
<polygon fill="#63b8ff" stroke="#63b8ff" points="1357.71,-258.09 1366.54,-263.94 1363.28,-253.86 1357.71,-258.09"/>
</a>
</g>
</g>
<!-- Node23 -->
<g id="Node000023" class="node">
<title>Node23</title>
<g id="a_Node000023"><a xlink:href="Primitive_8cpp.html" target="_top" xlink:title=" ">
<polygon fill="white" stroke="#666666" points="1497.7,-222.5 1358.7,-222.5 1358.7,-203.5 1497.7,-203.5 1497.7,-222.5"/>
<text text-anchor="middle" x="1428.2" y="-210.5" font-family="Helvetica,sans-Serif" font-size="10.00">App/Source/Primitive.cpp</text>
</a>
</g>
</g>
<!-- Node1&#45;&gt;Node23 -->
<g id="edge39_Node000001_Node000023" class="edge">
<title>Node1&#45;&gt;Node23</title>
<g id="a_edge39_Node000001_Node000023"><a xlink:title=" ">
<path fill="none" stroke="#63b8ff" d="M1396.34,-255.61C1404.98,-244.32 1414.97,-231.28 1421.43,-222.84"/>
<polygon fill="#63b8ff" stroke="#63b8ff" points="1393.37,-253.73 1390.07,-263.8 1398.93,-257.98 1393.37,-253.73"/>
</a>
</g>
</g>
<!-- Node24 -->
<g id="Node000024" class="node">
<title>Node24</title>
<g id="a_Node000024"><a xlink:href="Primitive__utest_8cpp.html" target="_top" xlink:title=" ">
<polygon fill="white" stroke="#666666" points="1656.7,-228 1515.7,-228 1515.7,-198 1656.7,-198 1656.7,-228"/>
<text text-anchor="start" x="1523.7" y="-216" font-family="Helvetica,sans-Serif" font-size="10.00">App/Test/Source/Primitive</text>
<text text-anchor="middle" x="1586.2" y="-205" font-family="Helvetica,sans-Serif" font-size="10.00">_utest.cpp</text>
</a>
</g>
</g>
<!-- Node1&#45;&gt;Node24 -->
<g id="edge40_Node000001_Node000024" class="edge">
<title>Node1&#45;&gt;Node24</title>
<g id="a_edge40_Node000001_Node000024"><a xlink:title=" ">
<path fill="none" stroke="#63b8ff" d="M1434.22,-260.99C1467.53,-250.69 1509.49,-237.72 1540.88,-228.01"/>
<polygon fill="#63b8ff" stroke="#63b8ff" points="1433.14,-257.66 1424.62,-263.95 1435.21,-264.34 1433.14,-257.66"/>
</a>
</g>
</g>
<!-- Node3 -->
<g id="Node000003" class="node">
<title>Node3</title>
<g id="a_Node000003"><a xlink:href="MeshExporter_8h.html" target="_top" xlink:title=" ">
<polygon fill="white" stroke="#666666" points="1180.7,-162 1049.7,-162 1049.7,-132 1180.7,-132 1180.7,-162"/>
<text text-anchor="start" x="1057.7" y="-150" font-family="Helvetica,sans-Serif" font-size="10.00">App/Include/Application</text>
<text text-anchor="middle" x="1115.2" y="-139" font-family="Helvetica,sans-Serif" font-size="10.00">/MeshExporter.h</text>
</a>
</g>
</g>
<!-- Node2&#45;&gt;Node3 -->
<g id="edge2_Node000002_Node000003" class="edge">
<title>Node2&#45;&gt;Node3</title>
<g id="a_edge2_Node000002_Node000003"><a xlink:title=" ">
<path fill="none" stroke="#63b8ff" d="M1006.86,-193.92C1030.72,-183.8 1060.03,-171.38 1082.14,-162.01"/>
<polygon fill="#63b8ff" stroke="#63b8ff" points="1005.18,-190.83 997.34,-197.95 1007.91,-197.28 1005.18,-190.83"/>
</a>
</g>
</g>
<!-- Node6 -->
<g id="Node000006" class="node">
<title>Node6</title>
<g id="a_Node000006"><a xlink:href="MeshIntegrity_8h.html" target="_top" xlink:title=" ">
<polygon fill="white" stroke="#666666" points="308.7,-162 177.7,-162 177.7,-132 308.7,-132 308.7,-162"/>
<text text-anchor="start" x="185.7" y="-150" font-family="Helvetica,sans-Serif" font-size="10.00">App/Include/Application</text>
<text text-anchor="middle" x="243.2" y="-139" font-family="Helvetica,sans-Serif" font-size="10.00">/MeshIntegrity.h</text>
</a>
</g>
</g>
<!-- Node2&#45;&gt;Node6 -->
<g id="edge5_Node000002_Node000006" class="edge">
<title>Node2&#45;&gt;Node6</title>
<g id="a_edge5_Node000002_Node000006"><a xlink:title=" ">
<path fill="none" stroke="#63b8ff" d="M888.27,-205.26C746.2,-192.65 442.51,-165.69 308.75,-153.82"/>
<polygon fill="#63b8ff" stroke="#63b8ff" points="888.35,-208.78 898.62,-206.18 888.97,-201.81 888.35,-208.78"/>
</a>
</g>
</g>
<!-- Node10 -->
<g id="Node000010" class="node">
<title>Node10</title>
<g id="a_Node000010"><a xlink:href="Mesh__utest_8cpp.html" target="_top" xlink:title=" ">
<polygon fill="white" stroke="#666666" points="486.7,-30 363.7,-30 363.7,0 486.7,0 486.7,-30"/>
<text text-anchor="start" x="371.7" y="-18" font-family="Helvetica,sans-Serif" font-size="10.00">App/Test/Source/Mesh</text>
<text text-anchor="middle" x="425.2" y="-7" font-family="Helvetica,sans-Serif" font-size="10.00">_utest.cpp</text>
</a>
</g>
</g>
<!-- Node2&#45;&gt;Node10 -->
<g id="edge33_Node000002_Node000010" class="edge">
<title>Node2&#45;&gt;Node10</title>
<g id="a_edge33_Node000002_Node000010"><a xlink:title=" ">
<path fill="none" stroke="#63b8ff" d="M888.28,-210.36C716.77,-206.14 303.79,-193 168.2,-162 92.41,-144.67 49.58,-160.52 6.2,-96 -1.24,-84.94 -2.65,-75.97 6.2,-66 29.51,-39.74 252.97,-24.77 363.67,-18.9"/>
<polygon fill="#63b8ff" stroke="#63b8ff" points="888.4,-213.86 898.48,-210.6 888.57,-206.86 888.4,-213.86"/>
</a>
</g>
</g>
<!-- Node11 -->
<g id="Node000011" class="node">
<title>Node11</title>
<g id="a_Node000011"><a xlink:href="MeshLoader_8h.html" target="_top" xlink:title=" ">
<polygon fill="white" stroke="#666666" points="581.7,-162 450.7,-162 450.7,-132 581.7,-132 581.7,-162"/>
<text text-anchor="start" x="458.7" y="-150" font-family="Helvetica,sans-Serif" font-size="10.00">App/Include/Application</text>
<text text-anchor="middle" x="516.2" y="-139" font-family="Helvetica,sans-Serif" font-size="10.00">/MeshLoader.h</text>
</a>
</g>
</g>
<!-- Node2&#45;&gt;Node11 -->
<g id="edge10_Node000002_Node000011" class="edge">
<title>Node2&#45;&gt;Node11</title>
<g id="a_edge10_Node000002_Node000011"><a xlink:title=" ">
<path fill="none" stroke="#63b8ff" d="M888.62,-201.2C802.66,-188.92 663.67,-169.07 582,-157.4"/>
<polygon fill="#63b8ff" stroke="#63b8ff" points="888.18,-204.68 898.57,-202.63 889.17,-197.75 888.18,-204.68"/>
</a>
</g>
</g>
<!-- Node13 -->
<g id="Node000013" class="node">
<title>Node13</title>
<g id="a_Node000013"><a xlink:href="PrimitiveProxy_8h.html" target="_top" xlink:title=" ">
<polygon fill="white" stroke="#666666" points="955.7,-162 824.7,-162 824.7,-132 955.7,-132 955.7,-162"/>
<text text-anchor="start" x="832.7" y="-150" font-family="Helvetica,sans-Serif" font-size="10.00">App/Include/Application</text>
<text text-anchor="middle" x="890.2" y="-139" font-family="Helvetica,sans-Serif" font-size="10.00">/PrimitiveProxy.h</text>
</a>
</g>
</g>
<!-- Node2&#45;&gt;Node13 -->
<g id="edge14_Node000002_Node000013" class="edge">
<title>Node2&#45;&gt;Node13</title>
<g id="a_edge14_Node000002_Node000013"><a xlink:title=" ">
<path fill="none" stroke="#63b8ff" d="M940.15,-191.2C929.16,-181.7 916.43,-170.69 906.57,-162.16"/>
<polygon fill="#63b8ff" stroke="#63b8ff" points="937.92,-193.9 947.77,-197.8 942.5,-188.61 937.92,-193.9"/>
</a>
</g>
</g>
<!-- Node14 -->
<g id="Node000014" class="node">
<title>Node14</title>
<g id="a_Node000014"><a xlink:href="TestHelpers_8h.html" target="_top" xlink:title=" ">
<polygon fill="white" stroke="#666666" points="652.7,-96 521.7,-96 521.7,-66 652.7,-66 652.7,-96"/>
<text text-anchor="start" x="529.7" y="-84" font-family="Helvetica,sans-Serif" font-size="10.00">App/Include/Application</text>
<text text-anchor="middle" x="587.2" y="-73" font-family="Helvetica,sans-Serif" font-size="10.00">/TestHelpers.h</text>
</a>
</g>
</g>
<!-- Node2&#45;&gt;Node14 -->
<g id="edge29_Node000002_Node000014" class="edge">
<title>Node2&#45;&gt;Node14</title>
<g id="a_edge29_Node000002_Node000014"><a xlink:title=" ">
<path fill="none" stroke="#63b8ff" d="M912.64,-194.73C884.17,-185.15 848.2,-173 816.2,-162 749.88,-139.22 672.96,-112.23 627.28,-96.14"/>
<polygon fill="#63b8ff" stroke="#63b8ff" points="911.78,-198.13 922.37,-198 914.01,-191.49 911.78,-198.13"/>
</a>
</g>
</g>
<!-- Node15 -->
<g id="Node000015" class="node">
<title>Node15</title>
<g id="a_Node000015"><a xlink:href="MeshCirculator__utest_8cpp.html" target="_top" xlink:title=" ">
<polygon fill="white" stroke="#666666" points="1449.2,-30 1279.2,-30 1279.2,0 1449.2,0 1449.2,-30"/>
<text text-anchor="start" x="1287.2" y="-18" font-family="Helvetica,sans-Serif" font-size="10.00">App/Test/Source/MeshCirculator</text>
<text text-anchor="middle" x="1364.2" y="-7" font-family="Helvetica,sans-Serif" font-size="10.00">_utest.cpp</text>
</a>
</g>
</g>
<!-- Node2&#45;&gt;Node15 -->
<g id="edge32_Node000002_Node000015" class="edge">
<title>Node2&#45;&gt;Node15</title>
<g id="a_edge32_Node000002_Node000015"><a xlink:title=" ">
<path fill="none" stroke="#63b8ff" d="M1039.97,-211.68C1151.59,-209.88 1353.46,-201.11 1413.2,-162 1451.59,-136.87 1474.18,-105.72 1451.2,-66 1441.6,-49.41 1424.19,-37.85 1407.45,-30.05"/>
<polygon fill="#63b8ff" stroke="#63b8ff" points="1039.73,-208.19 1029.79,-211.83 1039.84,-215.19 1039.73,-208.19"/>
</a>
</g>
</g>
<!-- Node17 -->
<g id="Node000017" class="node">
<title>Node17</title>
<g id="a_Node000017"><a xlink:href="Mesh_8cpp.html" target="_top" xlink:title=" ">
<polygon fill="white" stroke="#666666" points="1441.7,-90.5 1320.7,-90.5 1320.7,-71.5 1441.7,-71.5 1441.7,-90.5"/>
<text text-anchor="middle" x="1381.2" y="-78.5" font-family="Helvetica,sans-Serif" font-size="10.00">App/Source/Mesh.cpp</text>
</a>
</g>
</g>
<!-- Node2&#45;&gt;Node17 -->
<g id="edge30_Node000002_Node000017" class="edge">
<title>Node2&#45;&gt;Node17</title>
<g id="a_edge30_Node000002_Node000017"><a xlink:title=" ">
<path fill="none" stroke="#63b8ff" d="M1040.09,-203.89C1085.32,-196.97 1142.94,-184.42 1190.2,-162 1209.64,-152.78 1209.23,-142.17 1228.2,-132 1265.02,-112.26 1311.01,-98.53 1342.91,-90.51"/>
<polygon fill="#63b8ff" stroke="#63b8ff" points="1039.43,-200.44 1030.05,-205.36 1040.45,-207.37 1039.43,-200.44"/>
</a>
</g>
</g>
<!-- Node19 -->
<g id="Node000019" class="node">
<title>Node19</title>
<g id="a_Node000019"><a xlink:href="MeshCirculator_8cpp.html" target="_top" xlink:title=" ">
<polygon fill="white" stroke="#666666" points="1403.7,-156.5 1236.7,-156.5 1236.7,-137.5 1403.7,-137.5 1403.7,-156.5"/>
<text text-anchor="middle" x="1320.2" y="-144.5" font-family="Helvetica,sans-Serif" font-size="10.00">App/Source/MeshCirculator.cpp</text>
</a>
</g>
</g>
<!-- Node2&#45;&gt;Node19 -->
<g id="edge31_Node000002_Node000019" class="edge">
<title>Node2&#45;&gt;Node19</title>
<g id="a_edge31_Node000002_Node000019"><a xlink:title=" ">
<path fill="none" stroke="#63b8ff" d="M1040.06,-198.36C1110.54,-185.69 1213.3,-167.22 1272.79,-156.52"/>
<polygon fill="#63b8ff" stroke="#63b8ff" points="1039.13,-194.97 1029.91,-200.19 1040.37,-201.86 1039.13,-194.97"/>
</a>
</g>
</g>
<!-- Node4 -->
<g id="Node000004" class="node">
<title>Node4</title>
<g id="a_Node000004"><a xlink:href="MeshExporter_8cpp.html" target="_top" xlink:title=" ">
<polygon fill="white" stroke="#666666" points="1263.7,-90.5 1102.7,-90.5 1102.7,-71.5 1263.7,-71.5 1263.7,-90.5"/>
<text text-anchor="middle" x="1183.2" y="-78.5" font-family="Helvetica,sans-Serif" font-size="10.00">App/Source/MeshExporter.cpp</text>
</a>
</g>
</g>
<!-- Node3&#45;&gt;Node4 -->
<g id="edge3_Node000003_Node000004" class="edge">
<title>Node3&#45;&gt;Node4</title>
<g id="a_edge3_Node000003_Node000004"><a xlink:title=" ">
<path fill="none" stroke="#63b8ff" d="M1137.58,-124.93C1149.88,-113.35 1164.49,-99.61 1173.8,-90.84"/>
<polygon fill="#63b8ff" stroke="#63b8ff" points="1135.17,-122.39 1130.29,-131.8 1139.97,-127.49 1135.17,-122.39"/>
</a>
</g>
</g>
<!-- Node5 -->
<g id="Node000005" class="node">
<title>Node5</title>
<g id="a_Node000005"><a xlink:href="MeshExporter__utest_8cpp.html" target="_top" xlink:title=" ">
<polygon fill="white" stroke="#666666" points="1156.2,-30 992.2,-30 992.2,0 1156.2,0 1156.2,-30"/>
<text text-anchor="start" x="1000.2" y="-18" font-family="Helvetica,sans-Serif" font-size="10.00">App/Test/Source/MeshExporter</text>
<text text-anchor="middle" x="1074.2" y="-7" font-family="Helvetica,sans-Serif" font-size="10.00">_utest.cpp</text>
</a>
</g>
</g>
<!-- Node3&#45;&gt;Node5 -->
<g id="edge4_Node000003_Node000005" class="edge">
<title>Node3&#45;&gt;Node5</title>
<g id="a_edge4_Node000003_Node000005"><a xlink:title=" ">
<path fill="none" stroke="#63b8ff" d="M1190.8,-130.99C1226.17,-122.27 1262.79,-110.22 1273.2,-96 1281.08,-85.24 1281.4,-76.51 1273.2,-66 1258.49,-47.14 1204.48,-34.31 1156.44,-26.38"/>
<polygon fill="#63b8ff" stroke="#63b8ff" points="1189.8,-127.63 1180.89,-133.35 1191.43,-134.44 1189.8,-127.63"/>
</a>
</g>
</g>
<!-- Node7 -->
<g id="Node000007" class="node">
<title>Node7</title>
<g id="a_Node000007"><a xlink:href="MeshIntegrity_8cpp.html" target="_top" xlink:title=" ">
<polygon fill="white" stroke="#666666" points="176.7,-90.5 15.7,-90.5 15.7,-71.5 176.7,-71.5 176.7,-90.5"/>
<text text-anchor="middle" x="96.2" y="-78.5" font-family="Helvetica,sans-Serif" font-size="10.00">App/Source/MeshIntegrity.cpp</text>
</a>
</g>
</g>
<!-- Node6&#45;&gt;Node7 -->
<g id="edge6_Node000006_Node000007" class="edge">
<title>Node6&#45;&gt;Node7</title>
<g id="a_edge6_Node000006_Node000007"><a xlink:title=" ">
<path fill="none" stroke="#63b8ff" d="M201.72,-127.94C173.55,-115.68 137.59,-100.02 115.76,-90.52"/>
<polygon fill="#63b8ff" stroke="#63b8ff" points="200.37,-131.17 210.94,-131.95 203.17,-124.75 200.37,-131.17"/>
</a>
</g>
</g>
<!-- Node8 -->
<g id="Node000008" class="node">
<title>Node8</title>
<g id="a_Node000008"><a xlink:href="MeshIntegrity__utest_8cpp.html" target="_top" xlink:title=" ">
<polygon fill="white" stroke="#666666" points="669.2,-30 505.2,-30 505.2,0 669.2,0 669.2,-30"/>
<text text-anchor="start" x="513.2" y="-18" font-family="Helvetica,sans-Serif" font-size="10.00">App/Test/Source/MeshIntegrity</text>
<text text-anchor="middle" x="587.2" y="-7" font-family="Helvetica,sans-Serif" font-size="10.00">_utest.cpp</text>
</a>
</g>
</g>
<!-- Node6&#45;&gt;Node8 -->
<g id="edge7_Node000006_Node000008" class="edge">
<title>Node6&#45;&gt;Node8</title>
<g id="a_edge7_Node000006_Node000008"><a xlink:title=" ">
<path fill="none" stroke="#63b8ff" d="M242.24,-121.75C242.92,-103.76 247.01,-80.01 262.2,-66 262.76,-65.48 408.85,-43.15 504.95,-28.51"/>
<polygon fill="#63b8ff" stroke="#63b8ff" points="238.74,-121.8 242.18,-131.82 245.74,-121.84 238.74,-121.8"/>
</a>
</g>
</g>
<!-- Node9 -->
<g id="Node000009" class="node">
<title>Node9</title>
<g id="a_Node000009"><a xlink:href="MeshLoader__utest_8cpp.html" target="_top" xlink:title=" ">
<polygon fill="white" stroke="#666666" points="427.2,-96 271.2,-96 271.2,-66 427.2,-66 427.2,-96"/>
<text text-anchor="start" x="279.2" y="-84" font-family="Helvetica,sans-Serif" font-size="10.00">App/Test/Source/MeshLoader</text>
<text text-anchor="middle" x="349.2" y="-73" font-family="Helvetica,sans-Serif" font-size="10.00">_utest.cpp</text>
</a>
</g>
</g>
<!-- Node6&#45;&gt;Node9 -->
<g id="edge8_Node000006_Node000009" class="edge">
<title>Node6&#45;&gt;Node9</title>
<g id="a_edge8_Node000006_Node000009"><a xlink:title=" ">
<path fill="none" stroke="#63b8ff" d="M275.17,-126.69C291.54,-116.82 311.09,-105.01 325.99,-96.01"/>
<polygon fill="#63b8ff" stroke="#63b8ff" points="273.21,-123.79 266.46,-131.95 276.83,-129.78 273.21,-123.79"/>
</a>
</g>
</g>
<!-- Node6&#45;&gt;Node10 -->
<g id="edge9_Node000006_Node000010" class="edge">
<title>Node6&#45;&gt;Node10</title>
<g id="a_edge9_Node000006_Node000010"><a xlink:title=" ">
<path fill="none" stroke="#63b8ff" d="M230.32,-122.59C222.71,-105.27 216.76,-82.01 229.2,-66 245.68,-44.79 312.47,-31.07 363.55,-23.47"/>
<polygon fill="#63b8ff" stroke="#63b8ff" points="227.36,-124.52 234.86,-132 233.66,-121.47 227.36,-124.52"/>
</a>
</g>
</g>
<!-- Node11&#45;&gt;Node9 -->
<g id="edge12_Node000011_Node000009" class="edge">
<title>Node11&#45;&gt;Node9</title>
<g id="a_edge12_Node000011_Node000009"><a xlink:title=" ">
<path fill="none" stroke="#63b8ff" d="M470.07,-128.32C443.49,-118.14 410.54,-105.51 385.76,-96.01"/>
<polygon fill="#63b8ff" stroke="#63b8ff" points="468.96,-131.64 479.55,-131.95 471.46,-125.11 468.96,-131.64"/>
</a>
</g>
</g>
<!-- Node11&#45;&gt;Node10 -->
<g id="edge13_Node000011_Node000010" class="edge">
<title>Node11&#45;&gt;Node10</title>
<g id="a_edge13_Node000011_Node000010"><a xlink:title=" ">
<path fill="none" stroke="#63b8ff" d="M499.32,-123.63C492.93,-115.05 485.65,-105.13 479.2,-96 463.14,-73.29 445.2,-46.39 434.57,-30.29"/>
<polygon fill="#63b8ff" stroke="#63b8ff" points="496.55,-125.77 505.34,-131.68 502.16,-121.58 496.55,-125.77"/>
</a>
</g>
</g>
<!-- Node12 -->
<g id="Node000012" class="node">
<title>Node12</title>
<g id="a_Node000012"><a xlink:href="MeshLoader_8cpp.html" target="_top" xlink:title=" ">
<polygon fill="white" stroke="#666666" points="823.7,-90.5 670.7,-90.5 670.7,-71.5 823.7,-71.5 823.7,-90.5"/>
<text text-anchor="middle" x="747.2" y="-78.5" font-family="Helvetica,sans-Serif" font-size="10.00">App/Source/MeshLoader.cpp</text>
</a>
</g>
</g>
<!-- Node11&#45;&gt;Node12 -->
<g id="edge11_Node000011_Node000012" class="edge">
<title>Node11&#45;&gt;Node12</title>
<g id="a_edge11_Node000011_Node000012"><a xlink:title=" ">
<path fill="none" stroke="#63b8ff" d="M576.81,-129.21C621.68,-116.78 680.95,-100.35 716.46,-90.52"/>
<polygon fill="#63b8ff" stroke="#63b8ff" points="575.59,-125.91 566.89,-131.95 577.46,-132.66 575.59,-125.91"/>
</a>
</g>
</g>
<!-- Node13&#45;&gt;Node4 -->
<g id="edge22_Node000013_Node000004" class="edge">
<title>Node13&#45;&gt;Node4</title>
<g id="a_edge22_Node000013_Node000004"><a xlink:title=" ">
<path fill="none" stroke="#63b8ff" d="M964.58,-129.75C1021.77,-117.26 1098.51,-100.5 1144.2,-90.52"/>
<polygon fill="#63b8ff" stroke="#63b8ff" points="963.52,-126.4 954.5,-131.95 965.01,-133.24 963.52,-126.4"/>
</a>
</g>
</g>
<!-- Node13&#45;&gt;Node5 -->
<g id="edge25_Node000013_Node000005" class="edge">
<title>Node13&#45;&gt;Node5</title>
<g id="a_edge25_Node000013_Node000005"><a xlink:title=" ">
<path fill="none" stroke="#63b8ff" d="M965.99,-139.57C997.56,-133.12 1032.16,-120.49 1055.2,-96 1072.12,-78.01 1074.85,-47.8 1074.84,-30.1"/>
<polygon fill="#63b8ff" stroke="#63b8ff" points="965.06,-136.19 955.87,-141.46 966.34,-143.07 965.06,-136.19"/>
</a>
</g>
</g>
<!-- Node13&#45;&gt;Node9 -->
<g id="edge26_Node000013_Node000009" class="edge">
<title>Node13&#45;&gt;Node9</title>
<g id="a_edge26_Node000013_Node000009"><a xlink:title=" ">
<path fill="none" stroke="#63b8ff" d="M814.73,-137.07C712.48,-124.98 530.86,-103.49 427.28,-91.24"/>
<polygon fill="#63b8ff" stroke="#63b8ff" points="814.33,-140.55 824.67,-138.25 815.15,-133.6 814.33,-140.55"/>
</a>
</g>
</g>
<!-- Node13&#45;&gt;Node10 -->
<g id="edge27_Node000013_Node000010" class="edge">
<title>Node13&#45;&gt;Node10</title>
<g id="a_edge27_Node000013_Node000010"><a xlink:title=" ">
<path fill="none" stroke="#63b8ff" d="M814.61,-141.4C720.09,-134.72 564.34,-120.39 512.2,-96 511.11,-95.49 465.19,-53.04 440.51,-30.19"/>
<polygon fill="#63b8ff" stroke="#63b8ff" points="814.47,-144.9 824.69,-142.1 814.96,-137.91 814.47,-144.9"/>
</a>
</g>
</g>
<!-- Node13&#45;&gt;Node12 -->
<g id="edge23_Node000013_Node000012" class="edge">
<title>Node13&#45;&gt;Node12</title>
<g id="a_edge23_Node000013_Node000012"><a xlink:title=" ">
<path fill="none" stroke="#63b8ff" d="M849.49,-127.78C822.15,-115.54 787.38,-99.98 766.23,-90.52"/>
<polygon fill="#63b8ff" stroke="#63b8ff" points="848.26,-131.06 858.82,-131.95 851.12,-124.68 848.26,-131.06"/>
</a>
</g>
</g>
<!-- Node13&#45;&gt;Node14 -->
<g id="edge15_Node000013_Node000014" class="edge">
<title>Node13&#45;&gt;Node14</title>
<g id="a_edge15_Node000013_Node000014"><a xlink:title=" ">
<path fill="none" stroke="#63b8ff" d="M814.4,-129.99C764.68,-119.49 700.33,-105.9 652.82,-95.86"/>
<polygon fill="#63b8ff" stroke="#63b8ff" points="813.94,-133.47 824.45,-132.11 815.39,-126.62 813.94,-133.47"/>
</a>
</g>
</g>
<!-- Node16 -->
<g id="Node000016" class="node">
<title>Node16</title>
<g id="a_Node000016"><a xlink:href="PrimitiveProxy__utest_8cpp.html" target="_top" xlink:title=" ">
<polygon fill="white" stroke="#666666" points="875.7,-30 734.7,-30 734.7,0 875.7,0 875.7,-30"/>
<text text-anchor="start" x="742.7" y="-18" font-family="Helvetica,sans-Serif" font-size="10.00">App/Test/Source/Primitive</text>
<text text-anchor="middle" x="805.2" y="-7" font-family="Helvetica,sans-Serif" font-size="10.00">Proxy_utest.cpp</text>
</a>
</g>
</g>
<!-- Node13&#45;&gt;Node16 -->
<g id="edge28_Node000013_Node000016" class="edge">
<title>Node13&#45;&gt;Node16</title>
<g id="a_edge28_Node000013_Node000016"><a xlink:title=" ">
<path fill="none" stroke="#63b8ff" d="M875.45,-123.45C857.9,-96.61 829.13,-52.6 814.44,-30.14"/>
<polygon fill="#63b8ff" stroke="#63b8ff" points="872.54,-125.39 880.94,-131.84 878.4,-121.56 872.54,-125.39"/>
</a>
</g>
</g>
<!-- Node13&#45;&gt;Node17 -->
<g id="edge21_Node000013_Node000017" class="edge">
<title>Node13&#45;&gt;Node17</title>
<g id="a_edge21_Node000013_Node000017"><a xlink:title=" ">
<path fill="none" stroke="#63b8ff" d="M965.99,-136.12C1063.5,-123.41 1230.95,-101.58 1320.5,-89.91"/>
<polygon fill="#63b8ff" stroke="#63b8ff" points="965.37,-132.67 955.91,-137.44 966.28,-139.61 965.37,-132.67"/>
</a>
</g>
</g>
<!-- Node18 -->
<g id="Node000018" class="node">
<title>Node18</title>
<g id="a_Node000018"><a xlink:href="PrimitiveProxy_8cpp.html" target="_top" xlink:title=" ">
<polygon fill="white" stroke="#666666" points="1045.7,-90.5 880.7,-90.5 880.7,-71.5 1045.7,-71.5 1045.7,-90.5"/>
<text text-anchor="middle" x="963.2" y="-78.5" font-family="Helvetica,sans-Serif" font-size="10.00">App/Source/PrimitiveProxy.cpp</text>
</a>
</g>
</g>
<!-- Node13&#45;&gt;Node18 -->
<g id="edge24_Node000013_Node000018" class="edge">
<title>Node13&#45;&gt;Node18</title>
<g id="a_edge24_Node000013_Node000018"><a xlink:title=" ">
<path fill="none" stroke="#63b8ff" d="M914.23,-124.93C927.43,-113.35 943.12,-99.61 953.11,-90.84"/>
<polygon fill="#63b8ff" stroke="#63b8ff" points="911.61,-122.57 906.4,-131.8 916.23,-127.84 911.61,-122.57"/>
</a>
</g>
</g>
<!-- Node14&#45;&gt;Node5 -->
<g id="edge17_Node000014_Node000005" class="edge">
<title>Node14&#45;&gt;Node5</title>
<g id="a_edge17_Node000014_Node000005"><a xlink:title=" ">
<path fill="none" stroke="#63b8ff" d="M663.13,-65.92C783.35,-47.65 910.87,-33.08 991.91,-24.42"/>
<polygon fill="#63b8ff" stroke="#63b8ff" points="662.36,-62.5 653.01,-67.47 663.42,-69.42 662.36,-62.5"/>
</a>
</g>
</g>
<!-- Node14&#45;&gt;Node8 -->
<g id="edge18_Node000014_Node000008" class="edge">
<title>Node14&#45;&gt;Node8</title>
<g id="a_edge18_Node000014_Node000008"><a xlink:title=" ">
<path fill="none" stroke="#63b8ff" d="M587.2,-55.54C587.2,-46.96 587.2,-37.61 587.2,-30.16"/>
<polygon fill="#63b8ff" stroke="#63b8ff" points="583.7,-55.8 587.2,-65.8 590.7,-55.8 583.7,-55.8"/>
</a>
</g>
</g>
<!-- Node14&#45;&gt;Node10 -->
<g id="edge19_Node000014_Node000010" class="edge">
<title>Node14&#45;&gt;Node10</title>
<g id="a_edge19_Node000014_Node000010"><a xlink:title=" ">
<path fill="none" stroke="#63b8ff" d="M542.11,-62.19C516.39,-52.02 484.6,-39.47 460.67,-30.01"/>
<polygon fill="#63b8ff" stroke="#63b8ff" points="541.06,-65.54 551.65,-65.95 543.63,-59.03 541.06,-65.54"/>
</a>
</g>
</g>
<!-- Node14&#45;&gt;Node15 -->
<g id="edge16_Node000014_Node000015" class="edge">
<title>Node14&#45;&gt;Node15</title>
<g id="a_edge16_Node000014_Node000015"><a xlink:title=" ">
<path fill="none" stroke="#63b8ff" d="M663.18,-66.34C731.34,-60.68 1107.21,-34.12 1278.86,-22.02"/>
<polygon fill="#63b8ff" stroke="#63b8ff" points="662.62,-62.88 652.98,-67.28 663.26,-69.85 662.62,-62.88"/>
</a>
</g>
</g>
<!-- Node14&#45;&gt;Node16 -->
<g id="edge20_Node000014_Node000016" class="edge">
<title>Node14&#45;&gt;Node16</title>
<g id="a_edge20_Node000014_Node000016"><a xlink:title=" ">
<path fill="none" stroke="#63b8ff" d="M644.69,-63.12C679.84,-52.8 724.27,-39.76 757.47,-30.01"/>
<polygon fill="#63b8ff" stroke="#63b8ff" points="643.65,-59.78 635.04,-65.95 645.62,-66.5 643.65,-59.78"/>
</a>
</g>
</g>
<!-- Node20&#45;&gt;Node12 -->
<g id="edge36_Node000020_Node000012" class="edge">
<title>Node20&#45;&gt;Node12</title>
<g id="a_edge36_Node000020_Node000012"><a xlink:title=" ">
<path fill="none" stroke="#63b8ff" d="M1488.33,-138.58C1464.31,-136.33 1437.65,-133.95 1413.2,-132 1172.98,-112.88 1112.22,-117.42 872.2,-96 854.69,-94.44 835.83,-92.47 818.2,-90.51"/>
<polygon fill="#63b8ff" stroke="#63b8ff" points="1488.17,-142.08 1498.45,-139.53 1488.82,-135.11 1488.17,-142.08"/>
</a>
</g>
</g>
<!-- Node20&#45;&gt;Node17 -->
<g id="edge35_Node000020_Node000017" class="edge">
<title>Node20&#45;&gt;Node17</title>
<g id="a_edge35_Node000020_Node000017"><a xlink:title=" ">
<path fill="none" stroke="#63b8ff" d="M1514.38,-128.58C1479.06,-116.23 1433.21,-100.19 1405.55,-90.52"/>
<polygon fill="#63b8ff" stroke="#63b8ff" points="1513.44,-131.96 1524.04,-131.95 1515.75,-125.35 1513.44,-131.96"/>
</a>
</g>
</g>
<!-- Node21 -->
<g id="Node000021" class="node">
<title>Node21</title>
<g id="a_Node000021"><a xlink:href="VertexPair_8cpp.html" target="_top" xlink:title=" ">
<polygon fill="white" stroke="#666666" points="1641.7,-90.5 1498.7,-90.5 1498.7,-71.5 1641.7,-71.5 1641.7,-90.5"/>
<text text-anchor="middle" x="1570.2" y="-78.5" font-family="Helvetica,sans-Serif" font-size="10.00">App/Source/VertexPair.cpp</text>
</a>
</g>
</g>
<!-- Node20&#45;&gt;Node21 -->
<g id="edge37_Node000020_Node000021" class="edge">
<title>Node20&#45;&gt;Node21</title>
<g id="a_edge37_Node000020_Node000021"><a xlink:title=" ">
<path fill="none" stroke="#63b8ff" d="M1566.48,-121.6C1567.5,-110.8 1568.62,-98.78 1569.37,-90.84"/>
<polygon fill="#63b8ff" stroke="#63b8ff" points="1562.98,-121.51 1565.53,-131.8 1569.95,-122.17 1562.98,-121.51"/>
</a>
</g>
</g>
<!-- Node22 -->
<g id="Node000022" class="node">
<title>Node22</title>
<g id="a_Node000022"><a xlink:href="VertexPair__utest_8cpp.html" target="_top" xlink:title=" ">
<polygon fill="white" stroke="#666666" points="1806.2,-96 1660.2,-96 1660.2,-66 1806.2,-66 1806.2,-96"/>
<text text-anchor="start" x="1668.2" y="-84" font-family="Helvetica,sans-Serif" font-size="10.00">App/Test/Source/VertexPair</text>
<text text-anchor="middle" x="1733.2" y="-73" font-family="Helvetica,sans-Serif" font-size="10.00">_utest.cpp</text>
</a>
</g>
</g>
<!-- Node20&#45;&gt;Node22 -->
<g id="edge38_Node000020_Node000022" class="edge">
<title>Node20&#45;&gt;Node22</title>
<g id="a_edge38_Node000020_Node000022"><a xlink:title=" ">
<path fill="none" stroke="#63b8ff" d="M1610.88,-128.32C1637.78,-118.14 1671.12,-105.51 1696.2,-96.01"/>
<polygon fill="#63b8ff" stroke="#63b8ff" points="1609.4,-125.14 1601.29,-131.95 1611.88,-131.69 1609.4,-125.14"/>
</a>
</g>
</g>
</g>
</svg>
