<?xml version="1.0" encoding="UTF-8" standalone="no"?>
<!DOCTYPE svg PUBLIC "-//W3C//DTD SVG 1.1//EN"
 "http://www.w3.org/Graphics/SVG/1.1/DTD/svg11.dtd">
<!-- Generated by graphviz version 2.43.0 (0)
 -->
<!-- Title: App/Include/Application/Primitive.h Pages: 1 -->
<svg width="1817pt" height="302pt"
 viewBox="0.00 0.00 1816.50 302.00" xmlns="http://www.w3.org/2000/svg" xmlns:xlink="http://www.w3.org/1999/xlink">
<g id="graph0" class="graph" transform="scale(1 1) rotate(0) translate(4 298)">
<title>App/Include/Application/Primitive.h</title>
<!-- Node1 -->
<g id="Node000001" class="node">
<title>Node1</title>
<g id="a_Node000001"><a xlink:title=" ">
<polygon fill="#999999" stroke="#666666" points="1249.5,-294 1118.5,-294 1118.5,-264 1249.5,-264 1249.5,-294"/>
<text text-anchor="start" x="1126.5" y="-282" font-family="Helvetica,sans-Serif" font-size="10.00">App/Include/Application</text>
<text text-anchor="middle" x="1184" y="-271" font-family="Helvetica,sans-Serif" font-size="10.00">/Primitive.h</text>
</a>
</g>
</g>
<!-- Node2 -->
<g id="Node000002" class="node">
<title>Node2</title>
<g id="a_Node000002"><a xlink:href="Mesh_8h.html" target="_top" xlink:title=" ">
<polygon fill="white" stroke="#666666" points="729.5,-228 598.5,-228 598.5,-198 729.5,-198 729.5,-228"/>
<text text-anchor="start" x="606.5" y="-216" font-family="Helvetica,sans-Serif" font-size="10.00">App/Include/Application</text>
<text text-anchor="middle" x="664" y="-205" font-family="Helvetica,sans-Serif" font-size="10.00">/Mesh.h</text>
</a>
</g>
</g>
<!-- Node1&#45;&gt;Node2 -->
<g id="edge1_Node000001_Node000002" class="edge">
<title>Node1&#45;&gt;Node2</title>
<g id="a_edge1_Node000001_Node000002"><a xlink:title=" ">
<path fill="none" stroke="#63b8ff" d="M1108.18,-268.67C1006.17,-256.11 826.41,-233.99 729.81,-222.1"/>
<polygon fill="#63b8ff" stroke="#63b8ff" points="1108.05,-272.18 1118.41,-269.93 1108.91,-265.23 1108.05,-272.18"/>
</a>
</g>
</g>
<!-- Node19 -->
<g id="Node000019" class="node">
<title>Node19</title>
<g id="a_Node000019"><a xlink:href="VertexPair_8h.html" target="_top" xlink:title=" ">
<polygon fill="white" stroke="#666666" points="1487.5,-162 1356.5,-162 1356.5,-132 1487.5,-132 1487.5,-162"/>
<text text-anchor="start" x="1364.5" y="-150" font-family="Helvetica,sans-Serif" font-size="10.00">App/Include/Application</text>
<text text-anchor="middle" x="1422" y="-139" font-family="Helvetica,sans-Serif" font-size="10.00">/VertexPair.h</text>
</a>
</g>
</g>
<!-- Node1&#45;&gt;Node19 -->
<g id="edge30_Node000001_Node000019" class="edge">
<title>Node1&#45;&gt;Node19</title>
<g id="a_edge30_Node000001_Node000019"><a xlink:title=" ">
<path fill="none" stroke="#63b8ff" d="M1164.73,-255.95C1152.02,-238.65 1140.07,-214.77 1154,-198 1166.87,-182.5 1281.15,-165.51 1356.27,-155.86"/>
<polygon fill="#63b8ff" stroke="#63b8ff" points="1161.99,-258.13 1170.91,-263.85 1167.51,-253.82 1161.99,-258.13"/>
</a>
</g>
</g>
<!-- Node22 -->
<g id="Node000022" class="node">
<title>Node22</title>
<g id="a_Node000022"><a xlink:href="Primitive_8cpp.html" target="_top" xlink:title=" ">
<polygon fill="white" stroke="#666666" points="1302.5,-222.5 1163.5,-222.5 1163.5,-203.5 1302.5,-203.5 1302.5,-222.5"/>
<text text-anchor="middle" x="1233" y="-210.5" font-family="Helvetica,sans-Serif" font-size="10.00">App/Source/Primitive.cpp</text>
</a>
</g>
</g>
<!-- Node1&#45;&gt;Node22 -->
<g id="edge35_Node000001_Node000022" class="edge">
<title>Node1&#45;&gt;Node22</title>
<g id="a_edge35_Node000001_Node000022"><a xlink:title=" ">
<path fill="none" stroke="#63b8ff" d="M1201.14,-255.61C1209.78,-244.32 1219.77,-231.28 1226.23,-222.84"/>
<polygon fill="#63b8ff" stroke="#63b8ff" points="1198.17,-253.73 1194.87,-263.8 1203.73,-257.98 1198.17,-253.73"/>
</a>
</g>
</g>
<!-- Node23 -->
<g id="Node000023" class="node">
<title>Node23</title>
<g id="a_Node000023"><a xlink:href="Primitive__utest_8cpp.html" target="_top" xlink:title=" ">
<polygon fill="white" stroke="#666666" points="1461.5,-228 1320.5,-228 1320.5,-198 1461.5,-198 1461.5,-228"/>
<text text-anchor="start" x="1328.5" y="-216" font-family="Helvetica,sans-Serif" font-size="10.00">App/Test/Source/Primitive</text>
<text text-anchor="middle" x="1391" y="-205" font-family="Helvetica,sans-Serif" font-size="10.00">_utest.cpp</text>
</a>
</g>
</g>
<!-- Node1&#45;&gt;Node23 -->
<g id="edge36_Node000001_Node000023" class="edge">
<title>Node1&#45;&gt;Node23</title>
<g id="a_edge36_Node000001_Node000023"><a xlink:title=" ">
<path fill="none" stroke="#63b8ff" d="M1239.02,-260.99C1272.33,-250.69 1314.29,-237.72 1345.68,-228.01"/>
<polygon fill="#63b8ff" stroke="#63b8ff" points="1237.95,-257.66 1229.43,-263.95 1240.01,-264.34 1237.95,-257.66"/>
</a>
</g>
</g>
<!-- Node3 -->
<g id="Node000003" class="node">
<title>Node3</title>
<g id="a_Node000003"><a xlink:href="MeshExporter_8h.html" target="_top" xlink:title=" ">
<polygon fill="white" stroke="#666666" points="1219.5,-162 1088.5,-162 1088.5,-132 1219.5,-132 1219.5,-162"/>
<text text-anchor="start" x="1096.5" y="-150" font-family="Helvetica,sans-Serif" font-size="10.00">App/Include/Application</text>
<text text-anchor="middle" x="1154" y="-139" font-family="Helvetica,sans-Serif" font-size="10.00">/MeshExporter.h</text>
</a>
</g>
</g>
<!-- Node2&#45;&gt;Node3 -->
<g id="edge2_Node000002_Node000003" class="edge">
<title>Node2&#45;&gt;Node3</title>
<g id="a_edge2_Node000002_Node000003"><a xlink:title=" ">
<path fill="none" stroke="#63b8ff" d="M739.74,-202.11C835.28,-189.63 997.97,-168.38 1088.42,-156.57"/>
<polygon fill="#63b8ff" stroke="#63b8ff" points="739.04,-198.67 729.58,-203.44 739.94,-205.61 739.04,-198.67"/>
</a>
</g>
</g>
<!-- Node6 -->
<g id="Node000006" class="node">
<title>Node6</title>
<g id="a_Node000006"><a xlink:href="MeshIntegrity_8h.html" target="_top" xlink:title=" ">
<polygon fill="white" stroke="#666666" points="259.5,-162 128.5,-162 128.5,-132 259.5,-132 259.5,-162"/>
<text text-anchor="start" x="136.5" y="-150" font-family="Helvetica,sans-Serif" font-size="10.00">App/Include/Application</text>
<text text-anchor="middle" x="194" y="-139" font-family="Helvetica,sans-Serif" font-size="10.00">/MeshIntegrity.h</text>
</a>
</g>
</g>
<!-- Node2&#45;&gt;Node6 -->
<g id="edge5_Node000002_Node000006" class="edge">
<title>Node2&#45;&gt;Node6</title>
<g id="a_edge5_Node000002_Node000006"><a xlink:title=" ">
<path fill="none" stroke="#63b8ff" d="M588.01,-203.3C509.31,-194.05 382.84,-178.49 274,-162 269.4,-161.3 264.66,-160.55 259.88,-159.78"/>
<polygon fill="#63b8ff" stroke="#63b8ff" points="587.98,-206.82 598.32,-204.51 588.79,-199.87 587.98,-206.82"/>
</a>
</g>
</g>
<!-- Node10 -->
<g id="Node000010" class="node">
<title>Node10</title>
<g id="a_Node000010"><a xlink:href="Mesh__utest_8cpp.html" target="_top" xlink:title=" ">
<polygon fill="white" stroke="#666666" points="554.5,-30 431.5,-30 431.5,0 554.5,0 554.5,-30"/>
<text text-anchor="start" x="439.5" y="-18" font-family="Helvetica,sans-Serif" font-size="10.00">App/Test/Source/Mesh</text>
<text text-anchor="middle" x="493" y="-7" font-family="Helvetica,sans-Serif" font-size="10.00">_utest.cpp</text>
</a>
</g>
</g>
<!-- Node2&#45;&gt;Node10 -->
<g id="edge29_Node000002_Node000010" class="edge">
<title>Node2&#45;&gt;Node10</title>
<g id="a_edge29_Node000002_Node000010"><a xlink:title=" ">
<path fill="none" stroke="#63b8ff" d="M588.6,-198.34C493.94,-179.47 339.89,-142.41 307,-96 299.29,-85.12 298.89,-76.58 307,-66 314.81,-55.82 380.12,-39.87 431.18,-28.73"/>
<polygon fill="#63b8ff" stroke="#63b8ff" points="587.94,-201.78 598.42,-200.28 589.29,-194.91 587.94,-201.78"/>
</a>
</g>
</g>
<!-- Node11 -->
<g id="Node000011" class="node">
<title>Node11</title>
<g id="a_Node000011"><a xlink:href="MeshLoader_8h.html" target="_top" xlink:title=" ">
<polygon fill="white" stroke="#666666" points="635.5,-162 504.5,-162 504.5,-132 635.5,-132 635.5,-162"/>
<text text-anchor="start" x="512.5" y="-150" font-family="Helvetica,sans-Serif" font-size="10.00">App/Include/Application</text>
<text text-anchor="middle" x="570" y="-139" font-family="Helvetica,sans-Serif" font-size="10.00">/MeshLoader.h</text>
</a>
</g>
</g>
<!-- Node2&#45;&gt;Node11 -->
<g id="edge10_Node000002_Node000011" class="edge">
<title>Node2&#45;&gt;Node11</title>
<g id="a_edge10_Node000002_Node000011"><a xlink:title=" ">
<path fill="none" stroke="#63b8ff" d="M634.67,-192.03C620.44,-182.34 603.69,-170.94 590.8,-162.16"/>
<polygon fill="#63b8ff" stroke="#63b8ff" points="632.9,-195.06 643.14,-197.8 636.84,-189.28 632.9,-195.06"/>
</a>
</g>
</g>
<!-- Node13 -->
<g id="Node000013" class="node">
<title>Node13</title>
<g id="a_Node000013"><a xlink:href="PrimitiveProxy_8h.html" target="_top" xlink:title=" ">
<polygon fill="white" stroke="#666666" points="915.5,-162 784.5,-162 784.5,-132 915.5,-132 915.5,-162"/>
<text text-anchor="start" x="792.5" y="-150" font-family="Helvetica,sans-Serif" font-size="10.00">App/Include/Application</text>
<text text-anchor="middle" x="850" y="-139" font-family="Helvetica,sans-Serif" font-size="10.00">/PrimitiveProxy.h</text>
</a>
</g>
</g>
<!-- Node2&#45;&gt;Node13 -->
<g id="edge13_Node000002_Node000013" class="edge">
<title>Node2&#45;&gt;Node13</title>
<g id="a_edge13_Node000002_Node000013"><a xlink:title=" ">
<path fill="none" stroke="#63b8ff" d="M714.6,-194.59C744.34,-184.36 781.44,-171.59 809.28,-162.01"/>
<polygon fill="#63b8ff" stroke="#63b8ff" points="713.14,-191.39 704.82,-197.95 715.41,-198.01 713.14,-191.39"/>
</a>
</g>
</g>
<!-- Node14 -->
<g id="Node000014" class="node">
<title>Node14</title>
<g id="a_Node000014"><a xlink:href="Mesh_8cpp.html" target="_top" xlink:title=" ">
<polygon fill="white" stroke="#666666" points="1482.5,-90.5 1361.5,-90.5 1361.5,-71.5 1482.5,-71.5 1482.5,-90.5"/>
<text text-anchor="middle" x="1422" y="-78.5" font-family="Helvetica,sans-Serif" font-size="10.00">App/Source/Mesh.cpp</text>
</a>
</g>
</g>
<!-- Node2&#45;&gt;Node14 -->
<g id="edge26_Node000002_Node000014" class="edge">
<title>Node2&#45;&gt;Node14</title>
<g id="a_edge26_Node000002_Node000014"><a xlink:title=" ">
<path fill="none" stroke="#63b8ff" d="M740.03,-212.49C849.49,-211.58 1057.1,-203.78 1228,-162 1297.01,-145.13 1373.45,-107.54 1405.96,-90.59"/>
<polygon fill="#63b8ff" stroke="#63b8ff" points="739.73,-208.99 729.75,-212.56 739.77,-215.99 739.73,-208.99"/>
</a>
</g>
</g>
<!-- Node16 -->
<g id="Node000016" class="node">
<title>Node16</title>
<g id="a_Node000016"><a xlink:href="TestHelpers_8h.html" target="_top" xlink:title=" ">
<polygon fill="white" stroke="#666666" points="655.5,-90.5 490.5,-90.5 490.5,-71.5 655.5,-71.5 655.5,-90.5"/>
<text text-anchor="middle" x="573" y="-78.5" font-family="Helvetica,sans-Serif" font-size="10.00">App/Test/Include/TestHelpers.h</text>
</a>
</g>
</g>
<!-- Node2&#45;&gt;Node16 -->
<g id="edge27_Node000002_Node000016" class="edge">
<title>Node2&#45;&gt;Node16</title>
<g id="a_edge27_Node000002_Node000016"><a xlink:title=" ">
<path fill="none" stroke="#63b8ff" d="M662.36,-187.59C660.22,-170.73 655.29,-148.46 644,-132 630.95,-112.98 608.14,-98.83 591.9,-90.53"/>
<polygon fill="#63b8ff" stroke="#63b8ff" points="658.9,-188.19 663.41,-197.78 665.87,-187.47 658.9,-188.19"/>
</a>
</g>
</g>
<!-- Node17 -->
<g id="Node000017" class="node">
<title>Node17</title>
<g id="a_Node000017"><a xlink:href="MeshCirculator__utest_8cpp.html" target="_top" xlink:title=" ">
<polygon fill="white" stroke="#666666" points="170,-30 0,-30 0,0 170,0 170,-30"/>
<text text-anchor="start" x="8" y="-18" font-family="Helvetica,sans-Serif" font-size="10.00">App/Test/Source/MeshCirculator</text>
<text text-anchor="middle" x="85" y="-7" font-family="Helvetica,sans-Serif" font-size="10.00">_utest.cpp</text>
</a>
</g>
</g>
<!-- Node2&#45;&gt;Node17 -->
<g id="edge28_Node000002_Node000017" class="edge">
<title>Node2&#45;&gt;Node17</title>
<g id="a_edge28_Node000002_Node000017"><a xlink:title=" ">
<path fill="none" stroke="#63b8ff" d="M587.85,-210.58C458.48,-207.24 201.76,-196.38 119,-162 76.75,-144.45 59.38,-137.44 40,-96 34.35,-83.92 35.22,-78.45 40,-66 45.44,-51.83 56.96,-39.15 66.98,-30.11"/>
<polygon fill="#63b8ff" stroke="#63b8ff" points="587.99,-214.08 598.07,-210.83 588.17,-207.08 587.99,-214.08"/>
</a>
</g>
</g>
<!-- Node4 -->
<g id="Node000004" class="node">
<title>Node4</title>
<g id="a_Node000004"><a xlink:href="MeshExporter_8cpp.html" target="_top" xlink:title=" ">
<polygon fill="white" stroke="#666666" points="1343.5,-90.5 1182.5,-90.5 1182.5,-71.5 1343.5,-71.5 1343.5,-90.5"/>
<text text-anchor="middle" x="1263" y="-78.5" font-family="Helvetica,sans-Serif" font-size="10.00">App/Source/MeshExporter.cpp</text>
</a>
</g>
</g>
<!-- Node3&#45;&gt;Node4 -->
<g id="edge3_Node000003_Node000004" class="edge">
<title>Node3&#45;&gt;Node4</title>
<g id="a_edge3_Node000003_Node000004"><a xlink:title=" ">
<path fill="none" stroke="#63b8ff" d="M1186.68,-126.81C1207.25,-114.73 1232.8,-99.73 1248.49,-90.52"/>
<polygon fill="#63b8ff" stroke="#63b8ff" points="1184.77,-123.87 1177.92,-131.95 1188.32,-129.91 1184.77,-123.87"/>
</a>
</g>
</g>
<!-- Node5 -->
<g id="Node000005" class="node">
<title>Node5</title>
<g id="a_Node000005"><a xlink:href="MeshExporter__utest_8cpp.html" target="_top" xlink:title=" ">
<polygon fill="white" stroke="#666666" points="1026,-30 862,-30 862,0 1026,0 1026,-30"/>
<text text-anchor="start" x="870" y="-18" font-family="Helvetica,sans-Serif" font-size="10.00">App/Test/Source/MeshExporter</text>
<text text-anchor="middle" x="944" y="-7" font-family="Helvetica,sans-Serif" font-size="10.00">_utest.cpp</text>
</a>
</g>
</g>
<!-- Node3&#45;&gt;Node5 -->
<g id="edge4_Node000003_Node000005" class="edge">
<title>Node3&#45;&gt;Node5</title>
<g id="a_edge4_Node000003_Node000005"><a xlink:title=" ">
<path fill="none" stroke="#63b8ff" d="M1154.17,-121.61C1152.96,-103.91 1148.41,-80.59 1134,-66 1105.96,-37.61 1063.86,-24.72 1026.41,-19.1"/>
<polygon fill="#63b8ff" stroke="#63b8ff" points="1150.67,-121.92 1154.54,-131.78 1157.67,-121.66 1150.67,-121.92"/>
</a>
</g>
</g>
<!-- Node7 -->
<g id="Node000007" class="node">
<title>Node7</title>
<g id="a_Node000007"><a xlink:href="MeshIntegrity_8cpp.html" target="_top" xlink:title=" ">
<polygon fill="white" stroke="#666666" points="221.5,-90.5 60.5,-90.5 60.5,-71.5 221.5,-71.5 221.5,-90.5"/>
<text text-anchor="middle" x="141" y="-78.5" font-family="Helvetica,sans-Serif" font-size="10.00">App/Source/MeshIntegrity.cpp</text>
</a>
</g>
</g>
<!-- Node6&#45;&gt;Node7 -->
<g id="edge6_Node000006_Node000007" class="edge">
<title>Node6&#45;&gt;Node7</title>
<g id="a_edge6_Node000006_Node000007"><a xlink:title=" ">
<path fill="none" stroke="#63b8ff" d="M175.73,-123.94C166.32,-112.58 155.37,-99.36 148.32,-90.84"/>
<polygon fill="#63b8ff" stroke="#63b8ff" points="173.16,-126.33 182.24,-131.8 178.56,-121.86 173.16,-126.33"/>
</a>
</g>
</g>
<!-- Node8 -->
<g id="Node000008" class="node">
<title>Node8</title>
<g id="a_Node000008"><a xlink:href="MeshIntegrity__utest_8cpp.html" target="_top" xlink:title=" ">
<polygon fill="white" stroke="#666666" points="393,-30 229,-30 229,0 393,0 393,-30"/>
<text text-anchor="start" x="237" y="-18" font-family="Helvetica,sans-Serif" font-size="10.00">App/Test/Source/MeshIntegrity</text>
<text text-anchor="middle" x="311" y="-7" font-family="Helvetica,sans-Serif" font-size="10.00">_utest.cpp</text>
</a>
</g>
</g>
<!-- Node6&#45;&gt;Node8 -->
<g id="edge7_Node000006_Node000008" class="edge">
<title>Node6&#45;&gt;Node8</title>
<g id="a_edge7_Node000006_Node000008"><a xlink:title=" ">
<path fill="none" stroke="#63b8ff" d="M118.33,-130.91C71.72,-118.18 25.38,-97.02 51,-66 62.45,-52.13 157.07,-36.54 228.89,-26.5"/>
<polygon fill="#63b8ff" stroke="#63b8ff" points="117.69,-134.36 128.25,-133.5 119.46,-127.59 117.69,-134.36"/>
</a>
</g>
</g>
<!-- Node9 -->
<g id="Node000009" class="node">
<title>Node9</title>
<g id="a_Node000009"><a xlink:href="MeshLoader__utest_8cpp.html" target="_top" xlink:title=" ">
<polygon fill="white" stroke="#666666" points="472,-96 316,-96 316,-66 472,-66 472,-96"/>
<text text-anchor="start" x="324" y="-84" font-family="Helvetica,sans-Serif" font-size="10.00">App/Test/Source/MeshLoader</text>
<text text-anchor="middle" x="394" y="-73" font-family="Helvetica,sans-Serif" font-size="10.00">_utest.cpp</text>
</a>
</g>
</g>
<!-- Node6&#45;&gt;Node9 -->
<g id="edge8_Node000006_Node000009" class="edge">
<title>Node6&#45;&gt;Node9</title>
<g id="a_edge8_Node000006_Node000009"><a xlink:title=" ">
<path fill="none" stroke="#63b8ff" d="M247.57,-128.86C279.69,-118.58 320.01,-105.68 350.21,-96.01"/>
<polygon fill="#63b8ff" stroke="#63b8ff" points="246.35,-125.57 237.89,-131.95 248.48,-132.24 246.35,-125.57"/>
</a>
</g>
</g>
<!-- Node6&#45;&gt;Node10 -->
<g id="edge9_Node000006_Node000010" class="edge">
<title>Node6&#45;&gt;Node10</title>
<g id="a_edge9_Node000006_Node000010"><a xlink:title=" ">
<path fill="none" stroke="#63b8ff" d="M210.66,-123.37C225.32,-105.11 248.29,-80.21 274,-66 300.67,-51.26 376.36,-35.89 431.31,-26.14"/>
<polygon fill="#63b8ff" stroke="#63b8ff" points="207.54,-121.68 204.16,-131.72 213.06,-125.98 207.54,-121.68"/>
</a>
</g>
</g>
<!-- Node11&#45;&gt;Node9 -->
<g id="edge12_Node000011_Node000009" class="edge">
<title>Node11&#45;&gt;Node9</title>
<g id="a_edge12_Node000011_Node000009"><a xlink:title=" ">
<path fill="none" stroke="#63b8ff" d="M521.76,-128.46C493.68,-118.25 458.76,-105.55 432.53,-96.01"/>
<polygon fill="#63b8ff" stroke="#63b8ff" points="520.78,-131.83 531.38,-131.95 523.17,-125.25 520.78,-131.83"/>
</a>
</g>
</g>
<!-- Node12 -->
<g id="Node000012" class="node">
<title>Node12</title>
<g id="a_Node000012"><a xlink:href="MeshLoader_8cpp.html" target="_top" xlink:title=" ">
<polygon fill="white" stroke="#666666" points="1125.5,-90.5 972.5,-90.5 972.5,-71.5 1125.5,-71.5 1125.5,-90.5"/>
<text text-anchor="middle" x="1049" y="-78.5" font-family="Helvetica,sans-Serif" font-size="10.00">App/Source/MeshLoader.cpp</text>
</a>
</g>
</g>
<!-- Node11&#45;&gt;Node12 -->
<g id="edge11_Node000011_Node000012" class="edge">
<title>Node11&#45;&gt;Node12</title>
<g id="a_edge11_Node000011_Node000012"><a xlink:title=" ">
<path fill="none" stroke="#63b8ff" d="M645.58,-135.9C739.33,-123.38 897.48,-102.24 985.34,-90.51"/>
<polygon fill="#63b8ff" stroke="#63b8ff" points="645.05,-132.44 635.6,-137.24 645.97,-139.38 645.05,-132.44"/>
</a>
</g>
</g>
<!-- Node13&#45;&gt;Node5 -->
<g id="edge23_Node000013_Node000005" class="edge">
<title>Node13&#45;&gt;Node5</title>
<g id="a_edge23_Node000013_Node000005"><a xlink:title=" ">
<path fill="none" stroke="#63b8ff" d="M886.7,-126.41C898.78,-118.39 911.33,-108.12 920,-96 934.34,-75.95 940.22,-47.25 942.55,-30.23"/>
<polygon fill="#63b8ff" stroke="#63b8ff" points="884.65,-123.56 878.05,-131.84 888.38,-129.49 884.65,-123.56"/>
</a>
</g>
</g>
<!-- Node13&#45;&gt;Node10 -->
<g id="edge24_Node000013_Node000010" class="edge">
<title>Node13&#45;&gt;Node10</title>
<g id="a_edge24_Node000013_Node000010"><a xlink:title=" ">
<path fill="none" stroke="#63b8ff" d="M784.95,-128.91C758.69,-120.74 728.6,-109.71 703,-96 683.72,-85.67 683.5,-75.91 664,-66 629.67,-48.56 588.29,-36.25 554.83,-28.22"/>
<polygon fill="#63b8ff" stroke="#63b8ff" points="784.23,-132.35 794.81,-131.9 786.26,-125.65 784.23,-132.35"/>
</a>
</g>
</g>
<!-- Node13&#45;&gt;Node12 -->
<g id="edge15_Node000013_Node000012" class="edge">
<title>Node13&#45;&gt;Node12</title>
<g id="a_edge15_Node000013_Node000012"><a xlink:title=" ">
<path fill="none" stroke="#63b8ff" d="M903.19,-128.89C941.73,-116.5 992.19,-100.27 1022.52,-90.52"/>
<polygon fill="#63b8ff" stroke="#63b8ff" points="902.12,-125.56 893.67,-131.95 904.26,-132.23 902.12,-125.56"/>
</a>
</g>
</g>
<!-- Node13&#45;&gt;Node14 -->
<g id="edge14_Node000013_Node000014" class="edge">
<title>Node13&#45;&gt;Node14</title>
<g id="a_edge14_Node000013_Node000014"><a xlink:title=" ">
<path fill="none" stroke="#63b8ff" d="M925.8,-140.78C1024.34,-133.46 1201.62,-118.47 1352,-96 1362.05,-94.5 1372.85,-92.52 1382.88,-90.53"/>
<polygon fill="#63b8ff" stroke="#63b8ff" points="925.35,-137.3 915.64,-141.53 925.87,-144.28 925.35,-137.3"/>
</a>
</g>
</g>
<!-- Node15 -->
<g id="Node000015" class="node">
<title>Node15</title>
<g id="a_Node000015"><a xlink:href="PrimitiveProxy_8cpp.html" target="_top" xlink:title=" ">
<polygon fill="white" stroke="#666666" points="877.5,-90.5 712.5,-90.5 712.5,-71.5 877.5,-71.5 877.5,-90.5"/>
<text text-anchor="middle" x="795" y="-78.5" font-family="Helvetica,sans-Serif" font-size="10.00">App/Source/PrimitiveProxy.cpp</text>
</a>
</g>
</g>
<!-- Node13&#45;&gt;Node15 -->
<g id="edge16_Node000013_Node000015" class="edge">
<title>Node13&#45;&gt;Node15</title>
<g id="a_edge16_Node000013_Node000015"><a xlink:title=" ">
<path fill="none" stroke="#63b8ff" d="M831.05,-123.94C821.28,-112.58 809.92,-99.36 802.6,-90.84"/>
<polygon fill="#63b8ff" stroke="#63b8ff" points="828.62,-126.49 837.79,-131.8 833.93,-121.93 828.62,-126.49"/>
</a>
</g>
</g>
<!-- Node13&#45;&gt;Node16 -->
<g id="edge17_Node000013_Node000016" class="edge">
<title>Node13&#45;&gt;Node16</title>
<g id="a_edge17_Node000013_Node000016"><a xlink:title=" ">
<path fill="none" stroke="#63b8ff" d="M779.35,-129.68C725.31,-117.19 652.97,-100.48 609.86,-90.52"/>
<polygon fill="#63b8ff" stroke="#63b8ff" points="778.68,-133.11 789.21,-131.95 780.26,-126.29 778.68,-133.11"/>
</a>
</g>
</g>
<!-- Node18 -->
<g id="Node000018" class="node">
<title>Node18</title>
<g id="a_Node000018"><a xlink:href="PrimitiveProxy__utest_8cpp.html" target="_top" xlink:title=" ">
<polygon fill="white" stroke="#666666" points="723.5,-30 582.5,-30 582.5,0 723.5,0 723.5,-30"/>
<text text-anchor="start" x="590.5" y="-18" font-family="Helvetica,sans-Serif" font-size="10.00">App/Test/Source/Primitive</text>
<text text-anchor="middle" x="653" y="-7" font-family="Helvetica,sans-Serif" font-size="10.00">Proxy_utest.cpp</text>
</a>
</g>
</g>
<!-- Node13&#45;&gt;Node18 -->
<g id="edge25_Node000013_Node000018" class="edge">
<title>Node13&#45;&gt;Node18</title>
<g id="a_edge25_Node000013_Node000018"><a xlink:title=" ">
<path fill="none" stroke="#63b8ff" d="M871.94,-123.99C886.28,-106.91 899.99,-83.31 886,-66 865.85,-41.06 784.68,-27.99 723.77,-21.56"/>
<polygon fill="#63b8ff" stroke="#63b8ff" points="869.02,-122.01 864.97,-131.8 874.24,-126.67 869.02,-122.01"/>
</a>
</g>
</g>
<!-- Node16&#45;&gt;Node5 -->
<g id="edge19_Node000016_Node000005" class="edge">
<title>Node16&#45;&gt;Node5</title>
<g id="a_edge19_Node000016_Node000005"><a xlink:title=" ">
<path fill="none" stroke="#63b8ff" d="M632.72,-69.7C695.08,-58.94 793.29,-42 862.7,-30.02"/>
<polygon fill="#63b8ff" stroke="#63b8ff" points="631.91,-66.29 622.65,-71.44 633.1,-73.18 631.91,-66.29"/>
</a>
</g>
</g>
<!-- Node16&#45;&gt;Node8 -->
<g id="edge20_Node000016_Node000008" class="edge">
<title>Node16&#45;&gt;Node8</title>
<g id="a_edge20_Node000016_Node000008"><a xlink:title=" ">
<path fill="none" stroke="#63b8ff" d="M528.07,-69.02C483.94,-58.24 416.42,-41.75 368.41,-30.02"/>
<polygon fill="#63b8ff" stroke="#63b8ff" points="527.39,-72.46 537.94,-71.44 529.05,-65.66 527.39,-72.46"/>
</a>
</g>
</g>
<!-- Node16&#45;&gt;Node10 -->
<g id="edge21_Node000016_Node000010" class="edge">
<title>Node16&#45;&gt;Node10</title>
<g id="a_edge21_Node000016_Node000010"><a xlink:title=" ">
<path fill="none" stroke="#63b8ff" d="M554.27,-65.02C541.09,-54.48 523.57,-40.46 510.64,-30.12"/>
<polygon fill="#63b8ff" stroke="#63b8ff" points="552.22,-67.85 562.21,-71.37 556.59,-62.39 552.22,-67.85"/>
</a>
</g>
</g>
<!-- Node16&#45;&gt;Node17 -->
<g id="edge18_Node000016_Node000017" class="edge">
<title>Node16&#45;&gt;Node17</title>
<g id="a_edge18_Node000016_Node000017"><a xlink:title=" ">
<path fill="none" stroke="#63b8ff" d="M508.6,-69.99C499.34,-68.61 489.93,-67.24 481,-66 373.93,-51.1 250.3,-35.79 170.06,-26.11"/>
<polygon fill="#63b8ff" stroke="#63b8ff" points="508.14,-73.46 518.55,-71.48 509.18,-66.53 508.14,-73.46"/>
</a>
</g>
</g>
<!-- Node16&#45;&gt;Node18 -->
<g id="edge22_Node000016_Node000018" class="edge">
<title>Node16&#45;&gt;Node18</title>
<g id="a_edge22_Node000016_Node000018"><a xlink:title=" ">
<path fill="none" stroke="#63b8ff" d="M591.73,-65.02C604.91,-54.48 622.43,-40.46 635.36,-30.12"/>
<polygon fill="#63b8ff" stroke="#63b8ff" points="589.41,-62.39 583.79,-71.37 593.78,-67.85 589.41,-62.39"/>
</a>
</g>
</g>
<!-- Node19&#45;&gt;Node12 -->
<g id="edge32_Node000019_Node000012" class="edge">
<title>Node19&#45;&gt;Node12</title>
<g id="a_edge32_Node000019_Node000012"><a xlink:title=" ">
<path fill="none" stroke="#63b8ff" d="M1345.99,-132.96C1272.1,-120.28 1162,-101.39 1098.68,-90.52"/>
<polygon fill="#63b8ff" stroke="#63b8ff" points="1345.73,-136.46 1356.17,-134.71 1346.91,-129.56 1345.73,-136.46"/>
</a>
</g>
</g>
<!-- Node19&#45;&gt;Node14 -->
<g id="edge31_Node000019_Node000014" class="edge">
<title>Node19&#45;&gt;Node14</title>
<g id="a_edge31_Node000019_Node000014"><a xlink:title=" ">
<path fill="none" stroke="#63b8ff" d="M1422,-121.6C1422,-110.8 1422,-98.78 1422,-90.84"/>
<polygon fill="#63b8ff" stroke="#63b8ff" points="1418.5,-121.8 1422,-131.8 1425.5,-121.8 1418.5,-121.8"/>
</a>
</g>
</g>
<!-- Node20 -->
<g id="Node000020" class="node">
<title>Node20</title>
<g id="a_Node000020"><a xlink:href="VertexPair_8cpp.html" target="_top" xlink:title=" ">
<polygon fill="white" stroke="#666666" points="1808.5,-90.5 1665.5,-90.5 1665.5,-71.5 1808.5,-71.5 1808.5,-90.5"/>
<text text-anchor="middle" x="1737" y="-78.5" font-family="Helvetica,sans-Serif" font-size="10.00">App/Source/VertexPair.cpp</text>
</a>
</g>
</g>
<!-- Node19&#45;&gt;Node20 -->
<g id="edge33_Node000019_Node000020" class="edge">
<title>Node19&#45;&gt;Node20</title>
<g id="a_edge33_Node000019_Node000020"><a xlink:title=" ">
<path fill="none" stroke="#63b8ff" d="M1497.76,-130.61C1559.63,-118.04 1644.78,-100.74 1695.04,-90.53"/>
<polygon fill="#63b8ff" stroke="#63b8ff" points="1496.75,-127.24 1487.65,-132.66 1498.15,-134.1 1496.75,-127.24"/>
</a>
</g>
</g>
<!-- Node21 -->
<g id="Node000021" class="node">
<title>Node21</title>
<g id="a_Node000021"><a xlink:href="VertexPair__utest_8cpp.html" target="_top" xlink:title=" ">
<polygon fill="white" stroke="#666666" points="1647,-96 1501,-96 1501,-66 1647,-66 1647,-96"/>
<text text-anchor="start" x="1509" y="-84" font-family="Helvetica,sans-Serif" font-size="10.00">App/Test/Source/VertexPair</text>
<text text-anchor="middle" x="1574" y="-73" font-family="Helvetica,sans-Serif" font-size="10.00">_utest.cpp</text>
</a>
</g>
</g>
<!-- Node19&#45;&gt;Node21 -->
<g id="edge34_Node000019_Node000021" class="edge">
<title>Node19&#45;&gt;Node21</title>
<g id="a_edge34_Node000019_Node000021"><a xlink:title=" ">
<path fill="none" stroke="#63b8ff" d="M1464.62,-128.05C1488.7,-117.91 1518.36,-105.43 1540.72,-96.01"/>
<polygon fill="#63b8ff" stroke="#63b8ff" points="1463.22,-124.85 1455.36,-131.95 1465.93,-131.3 1463.22,-124.85"/>
</a>
</g>
</g>
</g>
</svg>
