<?xml version="1.0" encoding="UTF-8" standalone="no"?>
<!DOCTYPE svg PUBLIC "-//W3C//DTD SVG 1.1//EN"
 "http://www.w3.org/Graphics/SVG/1.1/DTD/svg11.dtd">
<!-- Generated by graphviz version 2.43.0 (0)
 -->
<!-- Title: App/Include/Application/Primitive.h Pages: 1 -->
<svg width="1812pt" height="302pt"
 viewBox="0.00 0.00 1812.27 302.00" xmlns="http://www.w3.org/2000/svg" xmlns:xlink="http://www.w3.org/1999/xlink">
<g id="graph0" class="graph" transform="scale(1 1) rotate(0) translate(4 298)">
<title>App/Include/Application/Primitive.h</title>
<!-- Node1 -->
<g id="Node000001" class="node">
<title>Node1</title>
<g id="a_Node000001"><a xlink:title=" ">
<polygon fill="#999999" stroke="#666666" points="1207.77,-294 1076.77,-294 1076.77,-264 1207.77,-264 1207.77,-294"/>
<text text-anchor="start" x="1084.77" y="-282" font-family="Helvetica,sans-Serif" font-size="10.00">App/Include/Application</text>
<text text-anchor="middle" x="1142.27" y="-271" font-family="Helvetica,sans-Serif" font-size="10.00">/Primitive.h</text>
</a>
</g>
</g>
<!-- Node2 -->
<g id="Node000002" class="node">
<title>Node2</title>
<g id="a_Node000002"><a xlink:href="Mesh_8h.html" target="_top" xlink:title=" ">
<polygon fill="white" stroke="#666666" points="809.77,-228 678.77,-228 678.77,-198 809.77,-198 809.77,-228"/>
<text text-anchor="start" x="686.77" y="-216" font-family="Helvetica,sans-Serif" font-size="10.00">App/Include/Application</text>
<text text-anchor="middle" x="744.27" y="-205" font-family="Helvetica,sans-Serif" font-size="10.00">/Mesh.h</text>
</a>
</g>
</g>
<!-- Node1&#45;&gt;Node2 -->
<g id="edge1_Node000001_Node000002" class="edge">
<title>Node1&#45;&gt;Node2</title>
<g id="a_edge1_Node000001_Node000002"><a xlink:title=" ">
<path fill="none" stroke="#63b8ff" d="M1066.35,-265.79C992.21,-253.87 880.56,-235.92 810.09,-224.58"/>
<polygon fill="#63b8ff" stroke="#63b8ff" points="1066.12,-269.3 1076.55,-267.43 1067.23,-262.39 1066.12,-269.3"/>
</a>
</g>
</g>
<!-- Node20 -->
<g id="Node000020" class="node">
<title>Node20</title>
<g id="a_Node000020"><a xlink:href="VertexPair_8h.html" target="_top" xlink:title=" ">
<polygon fill="white" stroke="#666666" points="1475.77,-162 1344.77,-162 1344.77,-132 1475.77,-132 1475.77,-162"/>
<text text-anchor="start" x="1352.77" y="-150" font-family="Helvetica,sans-Serif" font-size="10.00">App/Include/Application</text>
<text text-anchor="middle" x="1410.27" y="-139" font-family="Helvetica,sans-Serif" font-size="10.00">/VertexPair.h</text>
</a>
</g>
</g>
<!-- Node1&#45;&gt;Node20 -->
<g id="edge32_Node000001_Node000020" class="edge">
<title>Node1&#45;&gt;Node20</title>
<g id="a_edge32_Node000001_Node000020"><a xlink:title=" ">
<path fill="none" stroke="#63b8ff" d="M1122.89,-255.85C1110.12,-238.5 1098.14,-214.6 1112.27,-198 1144.82,-159.78 1285.82,-170.61 1335.27,-162 1338.28,-161.48 1341.34,-160.94 1344.44,-160.38"/>
<polygon fill="#63b8ff" stroke="#63b8ff" points="1120.18,-258.08 1129.11,-263.79 1125.69,-253.76 1120.18,-258.08"/>
</a>
</g>
</g>
<!-- Node23 -->
<g id="Node000023" class="node">
<title>Node23</title>
<g id="a_Node000023"><a xlink:href="Primitive_8cpp.html" target="_top" xlink:title=" ">
<polygon fill="white" stroke="#666666" points="1260.77,-222.5 1121.77,-222.5 1121.77,-203.5 1260.77,-203.5 1260.77,-222.5"/>
<text text-anchor="middle" x="1191.27" y="-210.5" font-family="Helvetica,sans-Serif" font-size="10.00">App/Source/Primitive.cpp</text>
</a>
</g>
</g>
<!-- Node1&#45;&gt;Node23 -->
<g id="edge37_Node000001_Node000023" class="edge">
<title>Node1&#45;&gt;Node23</title>
<g id="a_edge37_Node000001_Node000023"><a xlink:title=" ">
<path fill="none" stroke="#63b8ff" d="M1159.41,-255.61C1168.06,-244.32 1178.05,-231.28 1184.5,-222.84"/>
<polygon fill="#63b8ff" stroke="#63b8ff" points="1156.45,-253.73 1153.15,-263.8 1162.01,-257.98 1156.45,-253.73"/>
</a>
</g>
</g>
<!-- Node24 -->
<g id="Node000024" class="node">
<title>Node24</title>
<g id="a_Node000024"><a xlink:href="Primitive__utest_8cpp.html" target="_top" xlink:title=" ">
<polygon fill="white" stroke="#666666" points="1419.77,-228 1278.77,-228 1278.77,-198 1419.77,-198 1419.77,-228"/>
<text text-anchor="start" x="1286.77" y="-216" font-family="Helvetica,sans-Serif" font-size="10.00">App/Test/Source/Primitive</text>
<text text-anchor="middle" x="1349.27" y="-205" font-family="Helvetica,sans-Serif" font-size="10.00">_utest.cpp</text>
</a>
</g>
</g>
<!-- Node1&#45;&gt;Node24 -->
<g id="edge38_Node000001_Node000024" class="edge">
<title>Node1&#45;&gt;Node24</title>
<g id="a_edge38_Node000001_Node000024"><a xlink:title=" ">
<path fill="none" stroke="#63b8ff" d="M1197.29,-260.99C1230.6,-250.69 1272.56,-237.72 1303.95,-228.01"/>
<polygon fill="#63b8ff" stroke="#63b8ff" points="1196.22,-257.66 1187.7,-263.95 1198.29,-264.34 1196.22,-257.66"/>
</a>
</g>
</g>
<!-- Node3 -->
<g id="Node000003" class="node">
<title>Node3</title>
<g id="a_Node000003"><a xlink:href="MeshExporter_8h.html" target="_top" xlink:title=" ">
<polygon fill="white" stroke="#666666" points="1326.77,-162 1195.77,-162 1195.77,-132 1326.77,-132 1326.77,-162"/>
<text text-anchor="start" x="1203.77" y="-150" font-family="Helvetica,sans-Serif" font-size="10.00">App/Include/Application</text>
<text text-anchor="middle" x="1261.27" y="-139" font-family="Helvetica,sans-Serif" font-size="10.00">/MeshExporter.h</text>
</a>
</g>
</g>
<!-- Node2&#45;&gt;Node3 -->
<g id="edge2_Node000002_Node000003" class="edge">
<title>Node2&#45;&gt;Node3</title>
<g id="a_edge2_Node000002_Node000003"><a xlink:title=" ">
<path fill="none" stroke="#63b8ff" d="M820.19,-202.6C921.61,-190.05 1099.65,-168.01 1195.59,-156.13"/>
<polygon fill="#63b8ff" stroke="#63b8ff" points="819.51,-199.16 810.01,-203.86 820.37,-206.11 819.51,-199.16"/>
</a>
</g>
</g>
<!-- Node6 -->
<g id="Node000006" class="node">
<title>Node6</title>
<g id="a_Node000006"><a xlink:href="MeshIntegrity_8h.html" target="_top" xlink:title=" ">
<polygon fill="white" stroke="#666666" points="214.77,-162 83.77,-162 83.77,-132 214.77,-132 214.77,-162"/>
<text text-anchor="start" x="91.77" y="-150" font-family="Helvetica,sans-Serif" font-size="10.00">App/Include/Application</text>
<text text-anchor="middle" x="149.27" y="-139" font-family="Helvetica,sans-Serif" font-size="10.00">/MeshIntegrity.h</text>
</a>
</g>
</g>
<!-- Node2&#45;&gt;Node6 -->
<g id="edge5_Node000002_Node000006" class="edge">
<title>Node2&#45;&gt;Node6</title>
<g id="a_edge5_Node000002_Node000006"><a xlink:title=" ">
<path fill="none" stroke="#63b8ff" d="M668.58,-206.47C567.98,-198.71 384.82,-183.13 229.27,-162 224.66,-161.37 219.91,-160.68 215.13,-159.94"/>
<polygon fill="#63b8ff" stroke="#63b8ff" points="668.41,-209.97 678.64,-207.24 668.94,-202.99 668.41,-209.97"/>
</a>
</g>
</g>
<!-- Node10 -->
<g id="Node000010" class="node">
<title>Node10</title>
<g id="a_Node000010"><a xlink:href="Mesh__utest_8cpp.html" target="_top" xlink:title=" ">
<polygon fill="white" stroke="#666666" points="503.77,-30 380.77,-30 380.77,0 503.77,0 503.77,-30"/>
<text text-anchor="start" x="388.77" y="-18" font-family="Helvetica,sans-Serif" font-size="10.00">App/Test/Source/Mesh</text>
<text text-anchor="middle" x="442.27" y="-7" font-family="Helvetica,sans-Serif" font-size="10.00">_utest.cpp</text>
</a>
</g>
</g>
<!-- Node2&#45;&gt;Node10 -->
<g id="edge31_Node000002_Node000010" class="edge">
<title>Node2&#45;&gt;Node10</title>
<g id="a_edge31_Node000002_Node000010"><a xlink:title=" ">
<path fill="none" stroke="#63b8ff" d="M668.28,-209.15C564,-204.2 382.8,-191.55 324.27,-162 288.35,-143.86 277.09,-133.42 262.27,-96 241.69,-44.02 320.82,-25.8 380.69,-19.43"/>
<polygon fill="#63b8ff" stroke="#63b8ff" points="668.29,-212.66 678.44,-209.62 668.61,-205.66 668.29,-212.66"/>
</a>
</g>
</g>
<!-- Node11 -->
<g id="Node000011" class="node">
<title>Node11</title>
<g id="a_Node000011"><a xlink:href="MeshLoader_8h.html" target="_top" xlink:title=" ">
<polygon fill="white" stroke="#666666" points="464.77,-162 333.77,-162 333.77,-132 464.77,-132 464.77,-162"/>
<text text-anchor="start" x="341.77" y="-150" font-family="Helvetica,sans-Serif" font-size="10.00">App/Include/Application</text>
<text text-anchor="middle" x="399.27" y="-139" font-family="Helvetica,sans-Serif" font-size="10.00">/MeshLoader.h</text>
</a>
</g>
</g>
<!-- Node2&#45;&gt;Node11 -->
<g id="edge10_Node000002_Node000011" class="edge">
<title>Node2&#45;&gt;Node11</title>
<g id="a_edge10_Node000002_Node000011"><a xlink:title=" ">
<path fill="none" stroke="#63b8ff" d="M668.63,-197.97C607.77,-186.68 523.1,-170.97 465.03,-160.2"/>
<polygon fill="#63b8ff" stroke="#63b8ff" points="668.1,-201.43 678.57,-199.81 669.38,-194.55 668.1,-201.43"/>
</a>
</g>
</g>
<!-- Node13 -->
<g id="Node000013" class="node">
<title>Node13</title>
<g id="a_Node000013"><a xlink:href="PrimitiveProxy_8h.html" target="_top" xlink:title=" ">
<polygon fill="white" stroke="#666666" points="856.77,-162 725.77,-162 725.77,-132 856.77,-132 856.77,-162"/>
<text text-anchor="start" x="733.77" y="-150" font-family="Helvetica,sans-Serif" font-size="10.00">App/Include/Application</text>
<text text-anchor="middle" x="791.27" y="-139" font-family="Helvetica,sans-Serif" font-size="10.00">/PrimitiveProxy.h</text>
</a>
</g>
</g>
<!-- Node2&#45;&gt;Node13 -->
<g id="edge14_Node000002_Node000013" class="edge">
<title>Node2&#45;&gt;Node13</title>
<g id="a_edge14_Node000002_Node000013"><a xlink:title=" ">
<path fill="none" stroke="#63b8ff" d="M760.78,-189.53C767.46,-180.43 774.98,-170.19 780.87,-162.16"/>
<polygon fill="#63b8ff" stroke="#63b8ff" points="757.8,-187.66 754.7,-197.8 763.44,-191.81 757.8,-187.66"/>
</a>
</g>
</g>
<!-- Node14 -->
<g id="Node000014" class="node">
<title>Node14</title>
<g id="a_Node000014"><a xlink:href="TestHelpers_8h.html" target="_top" xlink:title=" ">
<polygon fill="white" stroke="#666666" points="690.77,-96 559.77,-96 559.77,-66 690.77,-66 690.77,-96"/>
<text text-anchor="start" x="567.77" y="-84" font-family="Helvetica,sans-Serif" font-size="10.00">App/Include/Application</text>
<text text-anchor="middle" x="625.27" y="-73" font-family="Helvetica,sans-Serif" font-size="10.00">/TestHelpers.h</text>
</a>
</g>
</g>
<!-- Node2&#45;&gt;Node14 -->
<g id="edge27_Node000002_Node000014" class="edge">
<title>Node2&#45;&gt;Node14</title>
<g id="a_edge27_Node000002_Node000014"><a xlink:title=" ">
<path fill="none" stroke="#63b8ff" d="M724.27,-190.15C699.76,-163.38 658.95,-118.79 638.22,-96.14"/>
<polygon fill="#63b8ff" stroke="#63b8ff" points="721.98,-192.83 731.31,-197.84 727.14,-188.1 721.98,-192.83"/>
</a>
</g>
</g>
<!-- Node15 -->
<g id="Node000015" class="node">
<title>Node15</title>
<g id="a_Node000015"><a xlink:href="MeshCirculator__utest_8cpp.html" target="_top" xlink:title=" ">
<polygon fill="white" stroke="#666666" points="692.27,-30 522.27,-30 522.27,0 692.27,0 692.27,-30"/>
<text text-anchor="start" x="530.27" y="-18" font-family="Helvetica,sans-Serif" font-size="10.00">App/Test/Source/MeshCirculator</text>
<text text-anchor="middle" x="607.27" y="-7" font-family="Helvetica,sans-Serif" font-size="10.00">_utest.cpp</text>
</a>
</g>
</g>
<!-- Node2&#45;&gt;Node15 -->
<g id="edge30_Node000002_Node000015" class="edge">
<title>Node2&#45;&gt;Node15</title>
<g id="a_edge30_Node000002_Node000015"><a xlink:title=" ">
<path fill="none" stroke="#63b8ff" d="M685.1,-194.45C639.27,-177.38 578.92,-146.51 550.27,-96 543.7,-84.4 544.77,-78.15 550.27,-66 557.06,-51.01 570.81,-38.74 583.11,-30.1"/>
<polygon fill="#63b8ff" stroke="#63b8ff" points="684.05,-197.79 694.64,-197.88 686.42,-191.2 684.05,-197.79"/>
</a>
</g>
</g>
<!-- Node17 -->
<g id="Node000017" class="node">
<title>Node17</title>
<g id="a_Node000017"><a xlink:href="Mesh_8cpp.html" target="_top" xlink:title=" ">
<polygon fill="white" stroke="#666666" points="1260.77,-90.5 1139.77,-90.5 1139.77,-71.5 1260.77,-71.5 1260.77,-90.5"/>
<text text-anchor="middle" x="1200.27" y="-78.5" font-family="Helvetica,sans-Serif" font-size="10.00">App/Source/Mesh.cpp</text>
</a>
</g>
</g>
<!-- Node2&#45;&gt;Node17 -->
<g id="edge28_Node000002_Node000017" class="edge">
<title>Node2&#45;&gt;Node17</title>
<g id="a_edge28_Node000002_Node000017"><a xlink:title=" ">
<path fill="none" stroke="#63b8ff" d="M795.77,-194.34C817.84,-185.86 843.49,-174.76 865.27,-162 883.84,-151.12 883.56,-140.63 903.27,-132 996.84,-91.02 1029.73,-114.02 1130.27,-96 1139.55,-94.34 1149.48,-92.43 1158.87,-90.57"/>
<polygon fill="#63b8ff" stroke="#63b8ff" points="794.36,-191.13 786.23,-197.93 796.82,-197.68 794.36,-191.13"/>
</a>
</g>
</g>
<!-- Node19 -->
<g id="Node000019" class="node">
<title>Node19</title>
<g id="a_Node000019"><a xlink:href="MeshCirculator_8cpp.html" target="_top" xlink:title=" ">
<polygon fill="white" stroke="#666666" points="1079.77,-156.5 912.77,-156.5 912.77,-137.5 1079.77,-137.5 1079.77,-156.5"/>
<text text-anchor="middle" x="996.27" y="-144.5" font-family="Helvetica,sans-Serif" font-size="10.00">App/Source/MeshCirculator.cpp</text>
</a>
</g>
</g>
<!-- Node2&#45;&gt;Node19 -->
<g id="edge29_Node000002_Node000019" class="edge">
<title>Node2&#45;&gt;Node19</title>
<g id="a_edge29_Node000002_Node000019"><a xlink:title=" ">
<path fill="none" stroke="#63b8ff" d="M809.47,-195.44C858.53,-182.98 923.76,-166.42 962.74,-156.52"/>
<polygon fill="#63b8ff" stroke="#63b8ff" points="808.41,-192.1 799.58,-197.95 810.13,-198.89 808.41,-192.1"/>
</a>
</g>
</g>
<!-- Node4 -->
<g id="Node000004" class="node">
<title>Node4</title>
<g id="a_Node000004"><a xlink:href="MeshExporter_8cpp.html" target="_top" xlink:title=" ">
<polygon fill="white" stroke="#666666" points="1439.77,-90.5 1278.77,-90.5 1278.77,-71.5 1439.77,-71.5 1439.77,-90.5"/>
<text text-anchor="middle" x="1359.27" y="-78.5" font-family="Helvetica,sans-Serif" font-size="10.00">App/Source/MeshExporter.cpp</text>
</a>
</g>
</g>
<!-- Node3&#45;&gt;Node4 -->
<g id="edge3_Node000003_Node000004" class="edge">
<title>Node3&#45;&gt;Node4</title>
<g id="a_edge3_Node000003_Node000004"><a xlink:title=" ">
<path fill="none" stroke="#63b8ff" d="M1291.59,-126.2C1309.83,-114.29 1332.12,-99.73 1346.02,-90.66"/>
<polygon fill="#63b8ff" stroke="#63b8ff" points="1289.48,-123.4 1283.02,-131.8 1293.31,-129.26 1289.48,-123.4"/>
</a>
</g>
</g>
<!-- Node5 -->
<g id="Node000005" class="node">
<title>Node5</title>
<g id="a_Node000005"><a xlink:href="MeshExporter__utest_8cpp.html" target="_top" xlink:title=" ">
<polygon fill="white" stroke="#666666" points="1034.27,-30 870.27,-30 870.27,0 1034.27,0 1034.27,-30"/>
<text text-anchor="start" x="878.27" y="-18" font-family="Helvetica,sans-Serif" font-size="10.00">App/Test/Source/MeshExporter</text>
<text text-anchor="middle" x="952.27" y="-7" font-family="Helvetica,sans-Serif" font-size="10.00">_utest.cpp</text>
</a>
</g>
</g>
<!-- Node3&#45;&gt;Node5 -->
<g id="edge4_Node000003_Node000005" class="edge">
<title>Node3&#45;&gt;Node5</title>
<g id="a_edge4_Node000003_Node000005"><a xlink:title=" ">
<path fill="none" stroke="#63b8ff" d="M1336.91,-130.33C1385.59,-119.48 1441.09,-105.35 1448.27,-96 1456.39,-85.42 1457.22,-75.89 1448.27,-66 1421.1,-35.95 1168.31,-23.11 1034.5,-18.38"/>
<polygon fill="#63b8ff" stroke="#63b8ff" points="1335.97,-126.95 1326.96,-132.52 1337.48,-133.79 1335.97,-126.95"/>
</a>
</g>
</g>
<!-- Node7 -->
<g id="Node000007" class="node">
<title>Node7</title>
<g id="a_Node000007"><a xlink:href="MeshIntegrity_8cpp.html" target="_top" xlink:title=" ">
<polygon fill="white" stroke="#666666" points="176.77,-90.5 15.77,-90.5 15.77,-71.5 176.77,-71.5 176.77,-90.5"/>
<text text-anchor="middle" x="96.27" y="-78.5" font-family="Helvetica,sans-Serif" font-size="10.00">App/Source/MeshIntegrity.cpp</text>
</a>
</g>
</g>
<!-- Node6&#45;&gt;Node7 -->
<g id="edge6_Node000006_Node000007" class="edge">
<title>Node6&#45;&gt;Node7</title>
<g id="a_edge6_Node000006_Node000007"><a xlink:title=" ">
<path fill="none" stroke="#63b8ff" d="M131.01,-123.94C121.6,-112.58 110.65,-99.36 103.6,-90.84"/>
<polygon fill="#63b8ff" stroke="#63b8ff" points="128.44,-126.33 137.51,-131.8 133.83,-121.86 128.44,-126.33"/>
</a>
</g>
</g>
<!-- Node8 -->
<g id="Node000008" class="node">
<title>Node8</title>
<g id="a_Node000008"><a xlink:href="MeshIntegrity__utest_8cpp.html" target="_top" xlink:title=" ">
<polygon fill="white" stroke="#666666" points="222.27,-30 58.27,-30 58.27,0 222.27,0 222.27,-30"/>
<text text-anchor="start" x="66.27" y="-18" font-family="Helvetica,sans-Serif" font-size="10.00">App/Test/Source/MeshIntegrity</text>
<text text-anchor="middle" x="140.27" y="-7" font-family="Helvetica,sans-Serif" font-size="10.00">_utest.cpp</text>
</a>
</g>
</g>
<!-- Node6&#45;&gt;Node8 -->
<g id="edge7_Node000006_Node000008" class="edge">
<title>Node6&#45;&gt;Node8</title>
<g id="a_edge7_Node000006_Node000008"><a xlink:title=" ">
<path fill="none" stroke="#63b8ff" d="M73.79,-137.41C48.09,-130.47 21.93,-118.06 6.27,-96 -16.46,-63.96 29.55,-42.55 73.72,-30.01"/>
<polygon fill="#63b8ff" stroke="#63b8ff" points="73.05,-140.83 83.59,-139.82 74.71,-134.04 73.05,-140.83"/>
</a>
</g>
</g>
<!-- Node9 -->
<g id="Node000009" class="node">
<title>Node9</title>
<g id="a_Node000009"><a xlink:href="MeshLoader__utest_8cpp.html" target="_top" xlink:title=" ">
<polygon fill="white" stroke="#666666" points="427.27,-96 271.27,-96 271.27,-66 427.27,-66 427.27,-96"/>
<text text-anchor="start" x="279.27" y="-84" font-family="Helvetica,sans-Serif" font-size="10.00">App/Test/Source/MeshLoader</text>
<text text-anchor="middle" x="349.27" y="-73" font-family="Helvetica,sans-Serif" font-size="10.00">_utest.cpp</text>
</a>
</g>
</g>
<!-- Node6&#45;&gt;Node9 -->
<g id="edge8_Node000006_Node000009" class="edge">
<title>Node6&#45;&gt;Node9</title>
<g id="a_edge8_Node000006_Node000009"><a xlink:title=" ">
<path fill="none" stroke="#63b8ff" d="M202.85,-128.86C234.96,-118.58 275.29,-105.68 305.49,-96.01"/>
<polygon fill="#63b8ff" stroke="#63b8ff" points="201.62,-125.57 193.16,-131.95 203.76,-132.24 201.62,-125.57"/>
</a>
</g>
</g>
<!-- Node6&#45;&gt;Node10 -->
<g id="edge9_Node000006_Node000010" class="edge">
<title>Node6&#45;&gt;Node10</title>
<g id="a_edge9_Node000006_Node000010"><a xlink:title=" ">
<path fill="none" stroke="#63b8ff" d="M165.96,-123.41C180.63,-105.18 203.61,-80.29 229.27,-66 276.23,-39.86 336.36,-27.34 380.74,-21.37"/>
<polygon fill="#63b8ff" stroke="#63b8ff" points="162.84,-121.72 159.45,-131.75 168.36,-126.02 162.84,-121.72"/>
</a>
</g>
</g>
<!-- Node11&#45;&gt;Node9 -->
<g id="edge12_Node000011_Node000009" class="edge">
<title>Node11&#45;&gt;Node9</title>
<g id="a_edge12_Node000011_Node000009"><a xlink:title=" ">
<path fill="none" stroke="#63b8ff" d="M381.94,-123.81C374.77,-114.64 366.68,-104.28 360.34,-96.16"/>
<polygon fill="#63b8ff" stroke="#63b8ff" points="379.26,-126.07 388.18,-131.8 384.78,-121.76 379.26,-126.07"/>
</a>
</g>
</g>
<!-- Node11&#45;&gt;Node10 -->
<g id="edge13_Node000011_Node000010" class="edge">
<title>Node11&#45;&gt;Node10</title>
<g id="a_edge13_Node000011_Node000010"><a xlink:title=" ">
<path fill="none" stroke="#63b8ff" d="M419.46,-124.33C425.98,-116.06 432.49,-106.17 436.27,-96 444.43,-74.07 444.46,-46.47 443.52,-30.09"/>
<polygon fill="#63b8ff" stroke="#63b8ff" points="416.77,-122.08 413.04,-132 422.14,-126.58 416.77,-122.08"/>
</a>
</g>
</g>
<!-- Node12 -->
<g id="Node000012" class="node">
<title>Node12</title>
<g id="a_Node000012"><a xlink:href="MeshLoader_8cpp.html" target="_top" xlink:title=" ">
<polygon fill="white" stroke="#666666" points="1121.77,-90.5 968.77,-90.5 968.77,-71.5 1121.77,-71.5 1121.77,-90.5"/>
<text text-anchor="middle" x="1045.27" y="-78.5" font-family="Helvetica,sans-Serif" font-size="10.00">App/Source/MeshLoader.cpp</text>
</a>
</g>
</g>
<!-- Node11&#45;&gt;Node12 -->
<g id="edge11_Node000011_Node000012" class="edge">
<title>Node11&#45;&gt;Node12</title>
<g id="a_edge11_Node000011_Node000012"><a xlink:title=" ">
<path fill="none" stroke="#63b8ff" d="M475.25,-138.47C599.37,-126.18 844.27,-101.91 968.75,-89.58"/>
<polygon fill="#63b8ff" stroke="#63b8ff" points="474.68,-135.01 465.07,-139.48 475.37,-141.98 474.68,-135.01"/>
</a>
</g>
</g>
<!-- Node13&#45;&gt;Node5 -->
<g id="edge24_Node000013_Node000005" class="edge">
<title>Node13&#45;&gt;Node5</title>
<g id="a_edge24_Node000013_Node000005"><a xlink:title=" ">
<path fill="none" stroke="#63b8ff" d="M844.73,-128.15C863.31,-120.24 883.45,-109.59 899.27,-96 921.01,-77.33 937.46,-47.63 945.92,-30.16"/>
<polygon fill="#63b8ff" stroke="#63b8ff" points="843.4,-124.91 835.47,-131.92 846.05,-131.39 843.4,-124.91"/>
</a>
</g>
</g>
<!-- Node13&#45;&gt;Node10 -->
<g id="edge25_Node000013_Node000010" class="edge">
<title>Node13&#45;&gt;Node10</title>
<g id="a_edge25_Node000013_Node000010"><a xlink:title=" ">
<path fill="none" stroke="#63b8ff" d="M715.58,-138.8C666.75,-132.13 602.79,-119.52 550.27,-96 513.22,-79.41 476.64,-48.41 457.01,-30.26"/>
<polygon fill="#63b8ff" stroke="#63b8ff" points="715.39,-142.31 725.76,-140.14 716.3,-135.37 715.39,-142.31"/>
</a>
</g>
</g>
<!-- Node13&#45;&gt;Node12 -->
<g id="edge22_Node000013_Node000012" class="edge">
<title>Node13&#45;&gt;Node12</title>
<g id="a_edge22_Node000013_Node000012"><a xlink:title=" ">
<path fill="none" stroke="#63b8ff" d="M856.99,-129.44C906.44,-116.98 972.19,-100.42 1011.47,-90.52"/>
<polygon fill="#63b8ff" stroke="#63b8ff" points="855.86,-126.12 847.02,-131.95 857.57,-132.91 855.86,-126.12"/>
</a>
</g>
</g>
<!-- Node13&#45;&gt;Node14 -->
<g id="edge15_Node000013_Node000014" class="edge">
<title>Node13&#45;&gt;Node14</title>
<g id="a_edge15_Node000013_Node000014"><a xlink:title=" ">
<path fill="none" stroke="#63b8ff" d="M745.42,-128.32C719,-118.14 686.25,-105.51 661.62,-96.01"/>
<polygon fill="#63b8ff" stroke="#63b8ff" points="744.25,-131.62 754.84,-131.95 746.77,-125.09 744.25,-131.62"/>
</a>
</g>
</g>
<!-- Node16 -->
<g id="Node000016" class="node">
<title>Node16</title>
<g id="a_Node000016"><a xlink:href="PrimitiveProxy__utest_8cpp.html" target="_top" xlink:title=" ">
<polygon fill="white" stroke="#666666" points="851.77,-30 710.77,-30 710.77,0 851.77,0 851.77,-30"/>
<text text-anchor="start" x="718.77" y="-18" font-family="Helvetica,sans-Serif" font-size="10.00">App/Test/Source/Primitive</text>
<text text-anchor="middle" x="781.27" y="-7" font-family="Helvetica,sans-Serif" font-size="10.00">Proxy_utest.cpp</text>
</a>
</g>
</g>
<!-- Node13&#45;&gt;Node16 -->
<g id="edge26_Node000013_Node000016" class="edge">
<title>Node13&#45;&gt;Node16</title>
<g id="a_edge26_Node000013_Node000016"><a xlink:title=" ">
<path fill="none" stroke="#63b8ff" d="M846.69,-127.45C860.74,-119.97 874.14,-109.75 882.27,-96 889.06,-84.52 889.31,-77.33 882.27,-66 871.75,-49.04 853.58,-37.66 835.52,-30.1"/>
<polygon fill="#63b8ff" stroke="#63b8ff" points="844.86,-124.45 837.41,-131.99 847.93,-130.74 844.86,-124.45"/>
</a>
</g>
</g>
<!-- Node13&#45;&gt;Node17 -->
<g id="edge21_Node000013_Node000017" class="edge">
<title>Node13&#45;&gt;Node17</title>
<g id="a_edge21_Node000013_Node000017"><a xlink:title=" ">
<path fill="none" stroke="#63b8ff" d="M867.36,-132.62C868.68,-132.41 869.98,-132.2 871.27,-132 986.09,-113.98 1015.69,-115.4 1130.27,-96 1139.81,-94.39 1150.03,-92.46 1159.63,-90.55"/>
<polygon fill="#63b8ff" stroke="#63b8ff" points="866.47,-129.22 857.16,-134.28 867.6,-136.13 866.47,-129.22"/>
</a>
</g>
</g>
<!-- Node18 -->
<g id="Node000018" class="node">
<title>Node18</title>
<g id="a_Node000018"><a xlink:href="PrimitiveProxy_8cpp.html" target="_top" xlink:title=" ">
<polygon fill="white" stroke="#666666" points="873.77,-90.5 708.77,-90.5 708.77,-71.5 873.77,-71.5 873.77,-90.5"/>
<text text-anchor="middle" x="791.27" y="-78.5" font-family="Helvetica,sans-Serif" font-size="10.00">App/Source/PrimitiveProxy.cpp</text>
</a>
</g>
</g>
<!-- Node13&#45;&gt;Node18 -->
<g id="edge23_Node000013_Node000018" class="edge">
<title>Node13&#45;&gt;Node18</title>
<g id="a_edge23_Node000013_Node000018"><a xlink:title=" ">
<path fill="none" stroke="#63b8ff" d="M791.27,-121.6C791.27,-110.8 791.27,-98.78 791.27,-90.84"/>
<polygon fill="#63b8ff" stroke="#63b8ff" points="787.77,-121.8 791.27,-131.8 794.77,-121.8 787.77,-121.8"/>
</a>
</g>
</g>
<!-- Node14&#45;&gt;Node5 -->
<g id="edge17_Node000014_Node000005" class="edge">
<title>Node14&#45;&gt;Node5</title>
<g id="a_edge17_Node000014_Node000005"><a xlink:title=" ">
<path fill="none" stroke="#63b8ff" d="M700.94,-65.19C755.06,-54.6 827.45,-40.43 880.64,-30.02"/>
<polygon fill="#63b8ff" stroke="#63b8ff" points="700.2,-61.77 691.05,-67.13 701.54,-68.64 700.2,-61.77"/>
</a>
</g>
</g>
<!-- Node14&#45;&gt;Node8 -->
<g id="edge18_Node000014_Node000008" class="edge">
<title>Node14&#45;&gt;Node8</title>
<g id="a_edge18_Node000014_Node000008"><a xlink:title=" ">
<path fill="none" stroke="#63b8ff" d="M549.6,-70.01C460.74,-58.29 313.88,-38.91 222.34,-26.83"/>
<polygon fill="#63b8ff" stroke="#63b8ff" points="549.24,-73.5 559.61,-71.34 550.16,-66.56 549.24,-73.5"/>
</a>
</g>
</g>
<!-- Node14&#45;&gt;Node10 -->
<g id="edge19_Node000014_Node000010" class="edge">
<title>Node14&#45;&gt;Node10</title>
<g id="a_edge19_Node000014_Node000010"><a xlink:title=" ">
<path fill="none" stroke="#63b8ff" d="M575.49,-62.59C546.23,-52.36 509.73,-39.59 482.34,-30.01"/>
<polygon fill="#63b8ff" stroke="#63b8ff" points="574.52,-65.96 585.11,-65.95 576.83,-59.35 574.52,-65.96"/>
</a>
</g>
</g>
<!-- Node14&#45;&gt;Node15 -->
<g id="edge16_Node000014_Node000015" class="edge">
<title>Node14&#45;&gt;Node15</title>
<g id="a_edge16_Node000014_Node000015"><a xlink:title=" ">
<path fill="none" stroke="#63b8ff" d="M618.55,-56.11C616.1,-47.38 613.4,-37.78 611.26,-30.16"/>
<polygon fill="#63b8ff" stroke="#63b8ff" points="615.2,-57.12 621.28,-65.8 621.94,-55.22 615.2,-57.12"/>
</a>
</g>
</g>
<!-- Node14&#45;&gt;Node16 -->
<g id="edge20_Node000014_Node000016" class="edge">
<title>Node14&#45;&gt;Node16</title>
<g id="a_edge20_Node000014_Node000016"><a xlink:title=" ">
<path fill="none" stroke="#63b8ff" d="M669.02,-62.05C693.73,-51.91 724.17,-39.43 747.12,-30.01"/>
<polygon fill="#63b8ff" stroke="#63b8ff" points="667.43,-58.92 659.51,-65.95 670.09,-65.4 667.43,-58.92"/>
</a>
</g>
</g>
<!-- Node20&#45;&gt;Node12 -->
<g id="edge34_Node000020_Node000012" class="edge">
<title>Node20&#45;&gt;Node12</title>
<g id="a_edge34_Node000020_Node000012"><a xlink:title=" ">
<path fill="none" stroke="#63b8ff" d="M1334.33,-131.85C1244.42,-115.75 1151.67,-99.94 1095.87,-90.51"/>
<polygon fill="#63b8ff" stroke="#63b8ff" points="1333.97,-135.34 1344.43,-133.66 1335.21,-128.45 1333.97,-135.34"/>
</a>
</g>
</g>
<!-- Node20&#45;&gt;Node17 -->
<g id="edge33_Node000020_Node000017" class="edge">
<title>Node20&#45;&gt;Node17</title>
<g id="a_edge33_Node000020_Node000017"><a xlink:title=" ">
<path fill="none" stroke="#63b8ff" d="M1354.4,-128.97C1313.7,-116.57 1260.29,-100.29 1228.22,-90.52"/>
<polygon fill="#63b8ff" stroke="#63b8ff" points="1353.6,-132.39 1364.19,-131.95 1355.64,-125.69 1353.6,-132.39"/>
</a>
</g>
</g>
<!-- Node21 -->
<g id="Node000021" class="node">
<title>Node21</title>
<g id="a_Node000021"><a xlink:href="VertexPair_8cpp.html" target="_top" xlink:title=" ">
<polygon fill="white" stroke="#666666" points="1639.77,-90.5 1496.77,-90.5 1496.77,-71.5 1639.77,-71.5 1639.77,-90.5"/>
<text text-anchor="middle" x="1568.27" y="-78.5" font-family="Helvetica,sans-Serif" font-size="10.00">App/Source/VertexPair.cpp</text>
</a>
</g>
</g>
<!-- Node20&#45;&gt;Node21 -->
<g id="edge35_Node000020_Node000021" class="edge">
<title>Node20&#45;&gt;Node21</title>
<g id="a_edge35_Node000020_Node000021"><a xlink:title=" ">
<path fill="none" stroke="#63b8ff" d="M1454.46,-128.1C1484.79,-115.82 1523.68,-100.06 1547.25,-90.52"/>
<polygon fill="#63b8ff" stroke="#63b8ff" points="1452.9,-124.96 1444.95,-131.95 1455.53,-131.44 1452.9,-124.96"/>
</a>
</g>
</g>
<!-- Node22 -->
<g id="Node000022" class="node">
<title>Node22</title>
<g id="a_Node000022"><a xlink:href="VertexPair__utest_8cpp.html" target="_top" xlink:title=" ">
<polygon fill="white" stroke="#666666" points="1804.27,-96 1658.27,-96 1658.27,-66 1804.27,-66 1804.27,-96"/>
<text text-anchor="start" x="1666.27" y="-84" font-family="Helvetica,sans-Serif" font-size="10.00">App/Test/Source/VertexPair</text>
<text text-anchor="middle" x="1731.27" y="-73" font-family="Helvetica,sans-Serif" font-size="10.00">_utest.cpp</text>
</a>
</g>
</g>
<!-- Node20&#45;&gt;Node22 -->
<g id="edge36_Node000020_Node000022" class="edge">
<title>Node20&#45;&gt;Node22</title>
<g id="a_edge36_Node000020_Node000022"><a xlink:title=" ">
<path fill="none" stroke="#63b8ff" d="M1486.02,-130.9C1538.97,-120.34 1609.17,-106.34 1660.9,-96.03"/>
<polygon fill="#63b8ff" stroke="#63b8ff" points="1485.13,-127.51 1476.01,-132.89 1486.5,-134.37 1485.13,-127.51"/>
</a>
</g>
</g>
</g>
</svg>
