<?xml version="1.0" encoding="UTF-8" standalone="no"?>
<!DOCTYPE svg PUBLIC "-//W3C//DTD SVG 1.1//EN"
 "http://www.w3.org/Graphics/SVG/1.1/DTD/svg11.dtd">
<!-- Generated by graphviz version 2.43.0 (0)
 -->
<!-- Title: App/Include/Application/Primitive.h Pages: 1 -->
<svg width="1786pt" height="302pt"
 viewBox="0.00 0.00 1785.50 302.00" xmlns="http://www.w3.org/2000/svg" xmlns:xlink="http://www.w3.org/1999/xlink">
<g id="graph0" class="graph" transform="scale(1 1) rotate(0) translate(4 298)">
<title>App/Include/Application/Primitive.h</title>
<!-- Node1 -->
<g id="Node000001" class="node">
<title>Node1</title>
<g id="a_Node000001"><a xlink:title=" ">
<polygon fill="#999999" stroke="#666666" points="1219.5,-294 1088.5,-294 1088.5,-264 1219.5,-264 1219.5,-294"/>
<text text-anchor="start" x="1096.5" y="-282" font-family="Helvetica,sans-Serif" font-size="10.00">App/Include/Application</text>
<text text-anchor="middle" x="1154" y="-271" font-family="Helvetica,sans-Serif" font-size="10.00">/Primitive.h</text>
</a>
</g>
</g>
<!-- Node2 -->
<g id="Node000002" class="node">
<title>Node2</title>
<g id="a_Node000002"><a xlink:href="Mesh_8h.html" target="_top" xlink:title=" ">
<polygon fill="white" stroke="#666666" points="707.5,-228 576.5,-228 576.5,-198 707.5,-198 707.5,-228"/>
<text text-anchor="start" x="584.5" y="-216" font-family="Helvetica,sans-Serif" font-size="10.00">App/Include/Application</text>
<text text-anchor="middle" x="642" y="-205" font-family="Helvetica,sans-Serif" font-size="10.00">/Mesh.h</text>
</a>
</g>
</g>
<!-- Node1&#45;&gt;Node2 -->
<g id="edge1_Node000001_Node000002" class="edge">
<title>Node1&#45;&gt;Node2</title>
<g id="a_edge1_Node000001_Node000002"><a xlink:title=" ">
<path fill="none" stroke="#63b8ff" d="M1078.31,-268.54C978.02,-256 802.72,-234.09 707.71,-222.21"/>
<polygon fill="#63b8ff" stroke="#63b8ff" points="1078.02,-272.03 1088.37,-269.8 1078.89,-265.08 1078.02,-272.03"/>
</a>
</g>
</g>
<!-- Node19 -->
<g id="Node000019" class="node">
<title>Node19</title>
<g id="a_Node000019"><a xlink:href="VertexPair_8h.html" target="_top" xlink:title=" ">
<polygon fill="white" stroke="#666666" points="1456.5,-162 1325.5,-162 1325.5,-132 1456.5,-132 1456.5,-162"/>
<text text-anchor="start" x="1333.5" y="-150" font-family="Helvetica,sans-Serif" font-size="10.00">App/Include/Application</text>
<text text-anchor="middle" x="1391" y="-139" font-family="Helvetica,sans-Serif" font-size="10.00">/VertexPair.h</text>
</a>
</g>
</g>
<!-- Node1&#45;&gt;Node19 -->
<g id="edge30_Node000001_Node000019" class="edge">
<title>Node1&#45;&gt;Node19</title>
<g id="a_edge30_Node000001_Node000019"><a xlink:title=" ">
<path fill="none" stroke="#63b8ff" d="M1134.73,-255.95C1122.02,-238.65 1110.08,-214.77 1124,-198 1136.8,-182.58 1250.34,-165.59 1325.18,-155.92"/>
<polygon fill="#63b8ff" stroke="#63b8ff" points="1132,-258.14 1140.92,-263.85 1137.51,-253.82 1132,-258.14"/>
</a>
</g>
</g>
<!-- Node22 -->
<g id="Node000022" class="node">
<title>Node22</title>
<g id="a_Node000022"><a xlink:href="Primitive_8cpp.html" target="_top" xlink:title=" ">
<polygon fill="white" stroke="#666666" points="1272.5,-222.5 1133.5,-222.5 1133.5,-203.5 1272.5,-203.5 1272.5,-222.5"/>
<text text-anchor="middle" x="1203" y="-210.5" font-family="Helvetica,sans-Serif" font-size="10.00">App/Source/Primitive.cpp</text>
</a>
</g>
</g>
<!-- Node1&#45;&gt;Node22 -->
<g id="edge35_Node000001_Node000022" class="edge">
<title>Node1&#45;&gt;Node22</title>
<g id="a_edge35_Node000001_Node000022"><a xlink:title=" ">
<path fill="none" stroke="#63b8ff" d="M1171.14,-255.61C1179.78,-244.32 1189.77,-231.28 1196.23,-222.84"/>
<polygon fill="#63b8ff" stroke="#63b8ff" points="1168.17,-253.73 1164.87,-263.8 1173.73,-257.98 1168.17,-253.73"/>
</a>
</g>
</g>
<!-- Node23 -->
<g id="Node000023" class="node">
<title>Node23</title>
<g id="a_Node000023"><a xlink:href="Primitive__utest_8cpp.html" target="_top" xlink:title=" ">
<polygon fill="white" stroke="#666666" points="1431.5,-228 1290.5,-228 1290.5,-198 1431.5,-198 1431.5,-228"/>
<text text-anchor="start" x="1298.5" y="-216" font-family="Helvetica,sans-Serif" font-size="10.00">App/Test/Source/Primitive</text>
<text text-anchor="middle" x="1361" y="-205" font-family="Helvetica,sans-Serif" font-size="10.00">_utest.cpp</text>
</a>
</g>
</g>
<!-- Node1&#45;&gt;Node23 -->
<g id="edge36_Node000001_Node000023" class="edge">
<title>Node1&#45;&gt;Node23</title>
<g id="a_edge36_Node000001_Node000023"><a xlink:title=" ">
<path fill="none" stroke="#63b8ff" d="M1209.02,-260.99C1242.33,-250.69 1284.29,-237.72 1315.68,-228.01"/>
<polygon fill="#63b8ff" stroke="#63b8ff" points="1207.95,-257.66 1199.43,-263.95 1210.01,-264.34 1207.95,-257.66"/>
</a>
</g>
</g>
<!-- Node3 -->
<g id="Node000003" class="node">
<title>Node3</title>
<g id="a_Node000003"><a xlink:href="MeshExporter_8h.html" target="_top" xlink:title=" ">
<polygon fill="white" stroke="#666666" points="1188.5,-162 1057.5,-162 1057.5,-132 1188.5,-132 1188.5,-162"/>
<text text-anchor="start" x="1065.5" y="-150" font-family="Helvetica,sans-Serif" font-size="10.00">App/Include/Application</text>
<text text-anchor="middle" x="1123" y="-139" font-family="Helvetica,sans-Serif" font-size="10.00">/MeshExporter.h</text>
</a>
</g>
</g>
<!-- Node2&#45;&gt;Node3 -->
<g id="edge2_Node000002_Node000003" class="edge">
<title>Node2&#45;&gt;Node3</title>
<g id="a_edge2_Node000002_Node000003"><a xlink:title=" ">
<path fill="none" stroke="#63b8ff" d="M717.58,-201.94C811.11,-189.5 968.83,-168.51 1057.46,-156.72"/>
<polygon fill="#63b8ff" stroke="#63b8ff" points="717.07,-198.48 707.62,-203.27 718,-205.42 717.07,-198.48"/>
</a>
</g>
</g>
<!-- Node6 -->
<g id="Node000006" class="node">
<title>Node6</title>
<g id="a_Node000006"><a xlink:href="MeshIntegrity_8h.html" target="_top" xlink:title=" ">
<polygon fill="white" stroke="#666666" points="262.5,-162 131.5,-162 131.5,-132 262.5,-132 262.5,-162"/>
<text text-anchor="start" x="139.5" y="-150" font-family="Helvetica,sans-Serif" font-size="10.00">App/Include/Application</text>
<text text-anchor="middle" x="197" y="-139" font-family="Helvetica,sans-Serif" font-size="10.00">/MeshIntegrity.h</text>
</a>
</g>
</g>
<!-- Node2&#45;&gt;Node6 -->
<g id="edge5_Node000002_Node000006" class="edge">
<title>Node2&#45;&gt;Node6</title>
<g id="a_edge5_Node000002_Node000006"><a xlink:title=" ">
<path fill="none" stroke="#63b8ff" d="M566.14,-202.44C492.23,-192.93 376.74,-177.55 277,-162 272.4,-161.28 267.66,-160.52 262.89,-159.73"/>
<polygon fill="#63b8ff" stroke="#63b8ff" points="565.92,-205.94 576.29,-203.74 566.81,-199 565.92,-205.94"/>
</a>
</g>
</g>
<!-- Node10 -->
<g id="Node000010" class="node">
<title>Node10</title>
<g id="a_Node000010"><a xlink:href="Mesh__utest_8cpp.html" target="_top" xlink:title=" ">
<polygon fill="white" stroke="#666666" points="541.5,-30 418.5,-30 418.5,0 541.5,0 541.5,-30"/>
<text text-anchor="start" x="426.5" y="-18" font-family="Helvetica,sans-Serif" font-size="10.00">App/Test/Source/Mesh</text>
<text text-anchor="middle" x="480" y="-7" font-family="Helvetica,sans-Serif" font-size="10.00">_utest.cpp</text>
</a>
</g>
</g>
<!-- Node2&#45;&gt;Node10 -->
<g id="edge29_Node000002_Node000010" class="edge">
<title>Node2&#45;&gt;Node10</title>
<g id="a_edge29_Node000002_Node000010"><a xlink:title=" ">
<path fill="none" stroke="#63b8ff" d="M566.06,-210.01C486.67,-203.33 366.01,-179.1 310,-96 302.55,-84.94 302.01,-76.68 310,-66 323.27,-48.26 375.4,-34.66 418.47,-26.15"/>
<polygon fill="#63b8ff" stroke="#63b8ff" points="566.25,-213.54 576.49,-210.81 566.79,-206.56 566.25,-213.54"/>
</a>
</g>
</g>
<!-- Node11 -->
<g id="Node000011" class="node">
<title>Node11</title>
<g id="a_Node000011"><a xlink:href="MeshLoader_8h.html" target="_top" xlink:title=" ">
<polygon fill="white" stroke="#666666" points="613.5,-162 482.5,-162 482.5,-132 613.5,-132 613.5,-162"/>
<text text-anchor="start" x="490.5" y="-150" font-family="Helvetica,sans-Serif" font-size="10.00">App/Include/Application</text>
<text text-anchor="middle" x="548" y="-139" font-family="Helvetica,sans-Serif" font-size="10.00">/MeshLoader.h</text>
</a>
</g>
</g>
<!-- Node2&#45;&gt;Node11 -->
<g id="edge10_Node000002_Node000011" class="edge">
<title>Node2&#45;&gt;Node11</title>
<g id="a_edge10_Node000002_Node000011"><a xlink:title=" ">
<path fill="none" stroke="#63b8ff" d="M612.67,-192.03C598.44,-182.34 581.69,-170.94 568.8,-162.16"/>
<polygon fill="#63b8ff" stroke="#63b8ff" points="610.9,-195.06 621.14,-197.8 614.84,-189.28 610.9,-195.06"/>
</a>
</g>
</g>
<!-- Node13 -->
<g id="Node000013" class="node">
<title>Node13</title>
<g id="a_Node000013"><a xlink:href="PrimitiveProxy_8h.html" target="_top" xlink:title=" ">
<polygon fill="white" stroke="#666666" points="884.5,-162 753.5,-162 753.5,-132 884.5,-132 884.5,-162"/>
<text text-anchor="start" x="761.5" y="-150" font-family="Helvetica,sans-Serif" font-size="10.00">App/Include/Application</text>
<text text-anchor="middle" x="819" y="-139" font-family="Helvetica,sans-Serif" font-size="10.00">/PrimitiveProxy.h</text>
</a>
</g>
</g>
<!-- Node2&#45;&gt;Node13 -->
<g id="edge13_Node000002_Node000013" class="edge">
<title>Node2&#45;&gt;Node13</title>
<g id="a_edge13_Node000002_Node000013"><a xlink:title=" ">
<path fill="none" stroke="#63b8ff" d="M690.52,-194.46C718.76,-184.25 753.87,-171.55 780.25,-162.01"/>
<polygon fill="#63b8ff" stroke="#63b8ff" points="689.06,-191.26 680.84,-197.95 691.44,-197.85 689.06,-191.26"/>
</a>
</g>
</g>
<!-- Node14 -->
<g id="Node000014" class="node">
<title>Node14</title>
<g id="a_Node000014"><a xlink:href="TestHelpers_8h.html" target="_top" xlink:title=" ">
<polygon fill="white" stroke="#666666" points="624.5,-96 493.5,-96 493.5,-66 624.5,-66 624.5,-96"/>
<text text-anchor="start" x="501.5" y="-84" font-family="Helvetica,sans-Serif" font-size="10.00">App/Include/Application</text>
<text text-anchor="middle" x="559" y="-73" font-family="Helvetica,sans-Serif" font-size="10.00">/TestHelpers.h</text>
</a>
</g>
</g>
<!-- Node2&#45;&gt;Node14 -->
<g id="edge26_Node000002_Node000014" class="edge">
<title>Node2&#45;&gt;Node14</title>
<g id="a_edge26_Node000002_Node000014"><a xlink:title=" ">
<path fill="none" stroke="#63b8ff" d="M640.06,-187.79C637.78,-171.02 632.81,-148.78 622,-132 612.47,-117.21 597.06,-104.87 583.87,-96.14"/>
<polygon fill="#63b8ff" stroke="#63b8ff" points="636.61,-188.36 641.21,-197.91 643.56,-187.58 636.61,-188.36"/>
</a>
</g>
</g>
<!-- Node15 -->
<g id="Node000015" class="node">
<title>Node15</title>
<g id="a_Node000015"><a xlink:href="MeshCirculator__utest_8cpp.html" target="_top" xlink:title=" ">
<polygon fill="white" stroke="#666666" points="170,-30 0,-30 0,0 170,0 170,-30"/>
<text text-anchor="start" x="8" y="-18" font-family="Helvetica,sans-Serif" font-size="10.00">App/Test/Source/MeshCirculator</text>
<text text-anchor="middle" x="85" y="-7" font-family="Helvetica,sans-Serif" font-size="10.00">_utest.cpp</text>
</a>
</g>
</g>
<!-- Node2&#45;&gt;Node15 -->
<g id="edge28_Node000002_Node000015" class="edge">
<title>Node2&#45;&gt;Node15</title>
<g id="a_edge28_Node000002_Node000015"><a xlink:title=" ">
<path fill="none" stroke="#63b8ff" d="M566.07,-210.19C441.62,-206.31 200.24,-194.7 122,-162 79.79,-144.36 62.38,-137.44 43,-96 37.35,-83.92 38.44,-78.53 43,-66 48.04,-52.15 58.8,-39.48 68.16,-30.35"/>
<polygon fill="#63b8ff" stroke="#63b8ff" points="566.18,-213.69 576.28,-210.5 566.4,-206.7 566.18,-213.69"/>
</a>
</g>
</g>
<!-- Node17 -->
<g id="Node000017" class="node">
<title>Node17</title>
<g id="a_Node000017"><a xlink:href="Mesh_8cpp.html" target="_top" xlink:title=" ">
<polygon fill="white" stroke="#666666" points="1451.5,-90.5 1330.5,-90.5 1330.5,-71.5 1451.5,-71.5 1451.5,-90.5"/>
<text text-anchor="middle" x="1391" y="-78.5" font-family="Helvetica,sans-Serif" font-size="10.00">App/Source/Mesh.cpp</text>
</a>
</g>
</g>
<!-- Node2&#45;&gt;Node17 -->
<g id="edge27_Node000002_Node000017" class="edge">
<title>Node2&#45;&gt;Node17</title>
<g id="a_edge27_Node000002_Node000017"><a xlink:title=" ">
<path fill="none" stroke="#63b8ff" d="M717.7,-212.34C825.64,-211.21 1029.29,-203.13 1197,-162 1266,-145.08 1342.44,-107.52 1374.96,-90.58"/>
<polygon fill="#63b8ff" stroke="#63b8ff" points="717.52,-208.84 707.56,-212.42 717.59,-215.84 717.52,-208.84"/>
</a>
</g>
</g>
<!-- Node4 -->
<g id="Node000004" class="node">
<title>Node4</title>
<g id="a_Node000004"><a xlink:href="MeshExporter_8cpp.html" target="_top" xlink:title=" ">
<polygon fill="white" stroke="#666666" points="1312.5,-90.5 1151.5,-90.5 1151.5,-71.5 1312.5,-71.5 1312.5,-90.5"/>
<text text-anchor="middle" x="1232" y="-78.5" font-family="Helvetica,sans-Serif" font-size="10.00">App/Source/MeshExporter.cpp</text>
</a>
</g>
</g>
<!-- Node3&#45;&gt;Node4 -->
<g id="edge3_Node000003_Node000004" class="edge">
<title>Node3&#45;&gt;Node4</title>
<g id="a_edge3_Node000003_Node000004"><a xlink:title=" ">
<path fill="none" stroke="#63b8ff" d="M1155.68,-126.81C1176.25,-114.73 1201.8,-99.73 1217.49,-90.52"/>
<polygon fill="#63b8ff" stroke="#63b8ff" points="1153.77,-123.87 1146.92,-131.95 1157.32,-129.91 1153.77,-123.87"/>
</a>
</g>
</g>
<!-- Node5 -->
<g id="Node000005" class="node">
<title>Node5</title>
<g id="a_Node000005"><a xlink:href="MeshExporter__utest_8cpp.html" target="_top" xlink:title=" ">
<polygon fill="white" stroke="#666666" points="995,-30 831,-30 831,0 995,0 995,-30"/>
<text text-anchor="start" x="839" y="-18" font-family="Helvetica,sans-Serif" font-size="10.00">App/Test/Source/MeshExporter</text>
<text text-anchor="middle" x="913" y="-7" font-family="Helvetica,sans-Serif" font-size="10.00">_utest.cpp</text>
</a>
</g>
</g>
<!-- Node3&#45;&gt;Node5 -->
<g id="edge4_Node000003_Node000005" class="edge">
<title>Node3&#45;&gt;Node5</title>
<g id="a_edge4_Node000003_Node000005"><a xlink:title=" ">
<path fill="none" stroke="#63b8ff" d="M1123.17,-121.61C1121.96,-103.91 1117.41,-80.59 1103,-66 1074.96,-37.61 1032.86,-24.72 995.41,-19.1"/>
<polygon fill="#63b8ff" stroke="#63b8ff" points="1119.67,-121.92 1123.54,-131.78 1126.67,-121.66 1119.67,-121.92"/>
</a>
</g>
</g>
<!-- Node7 -->
<g id="Node000007" class="node">
<title>Node7</title>
<g id="a_Node000007"><a xlink:href="MeshIntegrity_8cpp.html" target="_top" xlink:title=" ">
<polygon fill="white" stroke="#666666" points="224.5,-90.5 63.5,-90.5 63.5,-71.5 224.5,-71.5 224.5,-90.5"/>
<text text-anchor="middle" x="144" y="-78.5" font-family="Helvetica,sans-Serif" font-size="10.00">App/Source/MeshIntegrity.cpp</text>
</a>
</g>
</g>
<!-- Node6&#45;&gt;Node7 -->
<g id="edge6_Node000006_Node000007" class="edge">
<title>Node6&#45;&gt;Node7</title>
<g id="a_edge6_Node000006_Node000007"><a xlink:title=" ">
<path fill="none" stroke="#63b8ff" d="M178.73,-123.94C169.32,-112.58 158.37,-99.36 151.32,-90.84"/>
<polygon fill="#63b8ff" stroke="#63b8ff" points="176.16,-126.33 185.24,-131.8 181.56,-121.86 176.16,-126.33"/>
</a>
</g>
</g>
<!-- Node8 -->
<g id="Node000008" class="node">
<title>Node8</title>
<g id="a_Node000008"><a xlink:href="MeshIntegrity__utest_8cpp.html" target="_top" xlink:title=" ">
<polygon fill="white" stroke="#666666" points="384,-30 220,-30 220,0 384,0 384,-30"/>
<text text-anchor="start" x="228" y="-18" font-family="Helvetica,sans-Serif" font-size="10.00">App/Test/Source/MeshIntegrity</text>
<text text-anchor="middle" x="302" y="-7" font-family="Helvetica,sans-Serif" font-size="10.00">_utest.cpp</text>
</a>
</g>
</g>
<!-- Node6&#45;&gt;Node8 -->
<g id="edge7_Node000006_Node000008" class="edge">
<title>Node6&#45;&gt;Node8</title>
<g id="a_edge7_Node000006_Node000008"><a xlink:title=" ">
<path fill="none" stroke="#63b8ff" d="M121.41,-130.98C74.84,-118.29 28.52,-97.14 54,-66 64.68,-52.96 151.71,-37.58 219.7,-27.36"/>
<polygon fill="#63b8ff" stroke="#63b8ff" points="120.76,-134.43 131.32,-133.56 122.53,-127.66 120.76,-134.43"/>
</a>
</g>
</g>
<!-- Node9 -->
<g id="Node000009" class="node">
<title>Node9</title>
<g id="a_Node000009"><a xlink:href="MeshLoader__utest_8cpp.html" target="_top" xlink:title=" ">
<polygon fill="white" stroke="#666666" points="475,-96 319,-96 319,-66 475,-66 475,-96"/>
<text text-anchor="start" x="327" y="-84" font-family="Helvetica,sans-Serif" font-size="10.00">App/Test/Source/MeshLoader</text>
<text text-anchor="middle" x="397" y="-73" font-family="Helvetica,sans-Serif" font-size="10.00">_utest.cpp</text>
</a>
</g>
</g>
<!-- Node6&#45;&gt;Node9 -->
<g id="edge8_Node000006_Node000009" class="edge">
<title>Node6&#45;&gt;Node9</title>
<g id="a_edge8_Node000006_Node000009"><a xlink:title=" ">
<path fill="none" stroke="#63b8ff" d="M250.57,-128.86C282.69,-118.58 323.01,-105.68 353.21,-96.01"/>
<polygon fill="#63b8ff" stroke="#63b8ff" points="249.35,-125.57 240.89,-131.95 251.48,-132.24 249.35,-125.57"/>
</a>
</g>
</g>
<!-- Node6&#45;&gt;Node10 -->
<g id="edge9_Node000006_Node000010" class="edge">
<title>Node6&#45;&gt;Node10</title>
<g id="a_edge9_Node000006_Node000010"><a xlink:title=" ">
<path fill="none" stroke="#63b8ff" d="M213.73,-123.48C228.43,-105.29 251.42,-80.43 277,-66 300.99,-52.47 367.87,-37.41 418.36,-27.39"/>
<polygon fill="#63b8ff" stroke="#63b8ff" points="210.62,-121.77 207.2,-131.8 216.13,-126.09 210.62,-121.77"/>
</a>
</g>
</g>
<!-- Node11&#45;&gt;Node9 -->
<g id="edge12_Node000011_Node000009" class="edge">
<title>Node11&#45;&gt;Node9</title>
<g id="a_edge12_Node000011_Node000009"><a xlink:title=" ">
<path fill="none" stroke="#63b8ff" d="M505.34,-127.92C481.47,-117.8 452.17,-105.38 430.06,-96.01"/>
<polygon fill="#63b8ff" stroke="#63b8ff" points="504.29,-131.28 514.86,-131.95 507.02,-124.83 504.29,-131.28"/>
</a>
</g>
</g>
<!-- Node12 -->
<g id="Node000012" class="node">
<title>Node12</title>
<g id="a_Node000012"><a xlink:href="MeshLoader_8cpp.html" target="_top" xlink:title=" ">
<polygon fill="white" stroke="#666666" points="1094.5,-90.5 941.5,-90.5 941.5,-71.5 1094.5,-71.5 1094.5,-90.5"/>
<text text-anchor="middle" x="1018" y="-78.5" font-family="Helvetica,sans-Serif" font-size="10.00">App/Source/MeshLoader.cpp</text>
</a>
</g>
</g>
<!-- Node11&#45;&gt;Node12 -->
<g id="edge11_Node000011_Node000012" class="edge">
<title>Node11&#45;&gt;Node12</title>
<g id="a_edge11_Node000011_Node000012"><a xlink:title=" ">
<path fill="none" stroke="#63b8ff" d="M623.94,-135.66C716.02,-123.12 869.51,-102.22 955.22,-90.55"/>
<polygon fill="#63b8ff" stroke="#63b8ff" points="623.28,-132.22 613.85,-137.03 624.23,-139.15 623.28,-132.22"/>
</a>
</g>
</g>
<!-- Node13&#45;&gt;Node5 -->
<g id="edge23_Node000013_Node000005" class="edge">
<title>Node13&#45;&gt;Node5</title>
<g id="a_edge23_Node000013_Node000005"><a xlink:title=" ">
<path fill="none" stroke="#63b8ff" d="M855.7,-126.41C867.78,-118.39 880.33,-108.12 889,-96 903.34,-75.95 909.22,-47.25 911.55,-30.23"/>
<polygon fill="#63b8ff" stroke="#63b8ff" points="853.65,-123.56 847.05,-131.84 857.38,-129.49 853.65,-123.56"/>
</a>
</g>
</g>
<!-- Node13&#45;&gt;Node10 -->
<g id="edge24_Node000013_Node000010" class="edge">
<title>Node13&#45;&gt;Node10</title>
<g id="a_edge24_Node000013_Node000010"><a xlink:title=" ">
<path fill="none" stroke="#63b8ff" d="M753.95,-128.91C727.69,-120.74 697.6,-109.71 672,-96 652.72,-85.67 652.34,-76.21 633,-66 603.35,-50.34 567.87,-38.38 538.55,-30.08"/>
<polygon fill="#63b8ff" stroke="#63b8ff" points="753.23,-132.35 763.81,-131.9 755.26,-125.65 753.23,-132.35"/>
</a>
</g>
</g>
<!-- Node13&#45;&gt;Node12 -->
<g id="edge21_Node000013_Node000012" class="edge">
<title>Node13&#45;&gt;Node12</title>
<g id="a_edge21_Node000013_Node000012"><a xlink:title=" ">
<path fill="none" stroke="#63b8ff" d="M872.19,-128.89C910.73,-116.5 961.19,-100.27 991.52,-90.52"/>
<polygon fill="#63b8ff" stroke="#63b8ff" points="871.12,-125.56 862.67,-131.95 873.26,-132.23 871.12,-125.56"/>
</a>
</g>
</g>
<!-- Node13&#45;&gt;Node14 -->
<g id="edge14_Node000013_Node000014" class="edge">
<title>Node13&#45;&gt;Node14</title>
<g id="a_edge14_Node000013_Node000014"><a xlink:title=" ">
<path fill="none" stroke="#63b8ff" d="M752.04,-129.52C709.87,-119.14 656.03,-105.88 615.93,-96.01"/>
<polygon fill="#63b8ff" stroke="#63b8ff" points="751.4,-132.96 761.94,-131.95 753.07,-126.17 751.4,-132.96"/>
</a>
</g>
</g>
<!-- Node16 -->
<g id="Node000016" class="node">
<title>Node16</title>
<g id="a_Node000016"><a xlink:href="PrimitiveProxy__utest_8cpp.html" target="_top" xlink:title=" ">
<polygon fill="white" stroke="#666666" points="708.5,-30 567.5,-30 567.5,0 708.5,0 708.5,-30"/>
<text text-anchor="start" x="575.5" y="-18" font-family="Helvetica,sans-Serif" font-size="10.00">App/Test/Source/Primitive</text>
<text text-anchor="middle" x="638" y="-7" font-family="Helvetica,sans-Serif" font-size="10.00">Proxy_utest.cpp</text>
</a>
</g>
</g>
<!-- Node13&#45;&gt;Node16 -->
<g id="edge25_Node000013_Node000016" class="edge">
<title>Node13&#45;&gt;Node16</title>
<g id="a_edge25_Node000013_Node000016"><a xlink:title=" ">
<path fill="none" stroke="#63b8ff" d="M840.87,-124.05C855.17,-107 868.86,-83.41 855,-66 836.85,-43.2 764.83,-29.91 708.68,-22.84"/>
<polygon fill="#63b8ff" stroke="#63b8ff" points="837.97,-122.05 833.92,-131.84 843.19,-126.71 837.97,-122.05"/>
</a>
</g>
</g>
<!-- Node13&#45;&gt;Node17 -->
<g id="edge20_Node000013_Node000017" class="edge">
<title>Node13&#45;&gt;Node17</title>
<g id="a_edge20_Node000013_Node000017"><a xlink:title=" ">
<path fill="none" stroke="#63b8ff" d="M894.8,-140.78C993.34,-133.46 1170.62,-118.47 1321,-96 1331.05,-94.5 1341.85,-92.52 1351.88,-90.53"/>
<polygon fill="#63b8ff" stroke="#63b8ff" points="894.35,-137.3 884.64,-141.53 894.87,-144.28 894.35,-137.3"/>
</a>
</g>
</g>
<!-- Node18 -->
<g id="Node000018" class="node">
<title>Node18</title>
<g id="a_Node000018"><a xlink:href="PrimitiveProxy_8cpp.html" target="_top" xlink:title=" ">
<polygon fill="white" stroke="#666666" points="846.5,-90.5 681.5,-90.5 681.5,-71.5 846.5,-71.5 846.5,-90.5"/>
<text text-anchor="middle" x="764" y="-78.5" font-family="Helvetica,sans-Serif" font-size="10.00">App/Source/PrimitiveProxy.cpp</text>
</a>
</g>
</g>
<!-- Node13&#45;&gt;Node18 -->
<g id="edge22_Node000013_Node000018" class="edge">
<title>Node13&#45;&gt;Node18</title>
<g id="a_edge22_Node000013_Node000018"><a xlink:title=" ">
<path fill="none" stroke="#63b8ff" d="M800.05,-123.94C790.28,-112.58 778.92,-99.36 771.6,-90.84"/>
<polygon fill="#63b8ff" stroke="#63b8ff" points="797.62,-126.49 806.79,-131.8 802.93,-121.93 797.62,-126.49"/>
</a>
</g>
</g>
<!-- Node14&#45;&gt;Node5 -->
<g id="edge16_Node000014_Node000005" class="edge">
<title>Node14&#45;&gt;Node5</title>
<g id="a_edge16_Node000014_Node000005"><a xlink:title=" ">
<path fill="none" stroke="#63b8ff" d="M634.78,-66.3C693.88,-55.62 775.66,-40.83 835.26,-30.06"/>
<polygon fill="#63b8ff" stroke="#63b8ff" points="633.97,-62.89 624.76,-68.11 635.22,-69.78 633.97,-62.89"/>
</a>
</g>
</g>
<!-- Node14&#45;&gt;Node8 -->
<g id="edge17_Node000014_Node000008" class="edge">
<title>Node14&#45;&gt;Node8</title>
<g id="a_edge17_Node000014_Node000008"><a xlink:title=" ">
<path fill="none" stroke="#63b8ff" d="M492.81,-63.52C451.13,-53.14 397.91,-39.88 358.27,-30.01"/>
<polygon fill="#63b8ff" stroke="#63b8ff" points="492.05,-66.93 502.6,-65.95 493.74,-60.14 492.05,-66.93"/>
</a>
</g>
</g>
<!-- Node14&#45;&gt;Node10 -->
<g id="edge18_Node000014_Node000010" class="edge">
<title>Node14&#45;&gt;Node10</title>
<g id="a_edge18_Node000014_Node000010"><a xlink:title=" ">
<path fill="none" stroke="#63b8ff" d="M533.67,-59.48C521.86,-49.91 508.11,-38.77 497.48,-30.16"/>
<polygon fill="#63b8ff" stroke="#63b8ff" points="531.49,-62.22 541.47,-65.8 535.9,-56.78 531.49,-62.22"/>
</a>
</g>
</g>
<!-- Node14&#45;&gt;Node15 -->
<g id="edge15_Node000014_Node000015" class="edge">
<title>Node14&#45;&gt;Node15</title>
<g id="a_edge15_Node000014_Node000015"><a xlink:title=" ">
<path fill="none" stroke="#63b8ff" d="M483.09,-65.94C410.92,-55.11 264.49,-37.32 170.42,-26.1"/>
<polygon fill="#63b8ff" stroke="#63b8ff" points="482.77,-69.43 493.19,-67.48 483.83,-62.51 482.77,-69.43"/>
</a>
</g>
</g>
<!-- Node14&#45;&gt;Node16 -->
<g id="edge19_Node000014_Node000016" class="edge">
<title>Node14&#45;&gt;Node16</title>
<g id="a_edge19_Node000014_Node000016"><a xlink:title=" ">
<path fill="none" stroke="#63b8ff" d="M584.33,-59.48C596.14,-49.91 609.89,-38.77 620.52,-30.16"/>
<polygon fill="#63b8ff" stroke="#63b8ff" points="582.1,-56.78 576.53,-65.8 586.51,-62.22 582.1,-56.78"/>
</a>
</g>
</g>
<!-- Node19&#45;&gt;Node12 -->
<g id="edge32_Node000019_Node000012" class="edge">
<title>Node19&#45;&gt;Node12</title>
<g id="a_edge32_Node000019_Node000012"><a xlink:title=" ">
<path fill="none" stroke="#63b8ff" d="M1314.99,-132.96C1241.1,-120.28 1131,-101.39 1067.68,-90.52"/>
<polygon fill="#63b8ff" stroke="#63b8ff" points="1314.73,-136.46 1325.17,-134.71 1315.91,-129.56 1314.73,-136.46"/>
</a>
</g>
</g>
<!-- Node19&#45;&gt;Node17 -->
<g id="edge31_Node000019_Node000017" class="edge">
<title>Node19&#45;&gt;Node17</title>
<g id="a_edge31_Node000019_Node000017"><a xlink:title=" ">
<path fill="none" stroke="#63b8ff" d="M1391,-121.6C1391,-110.8 1391,-98.78 1391,-90.84"/>
<polygon fill="#63b8ff" stroke="#63b8ff" points="1387.5,-121.8 1391,-131.8 1394.5,-121.8 1387.5,-121.8"/>
</a>
</g>
</g>
<!-- Node20 -->
<g id="Node000020" class="node">
<title>Node20</title>
<g id="a_Node000020"><a xlink:href="VertexPair_8cpp.html" target="_top" xlink:title=" ">
<polygon fill="white" stroke="#666666" points="1777.5,-90.5 1634.5,-90.5 1634.5,-71.5 1777.5,-71.5 1777.5,-90.5"/>
<text text-anchor="middle" x="1706" y="-78.5" font-family="Helvetica,sans-Serif" font-size="10.00">App/Source/VertexPair.cpp</text>
</a>
</g>
</g>
<!-- Node19&#45;&gt;Node20 -->
<g id="edge33_Node000019_Node000020" class="edge">
<title>Node19&#45;&gt;Node20</title>
<g id="a_edge33_Node000019_Node000020"><a xlink:title=" ">
<path fill="none" stroke="#63b8ff" d="M1466.76,-130.61C1528.63,-118.04 1613.78,-100.74 1664.04,-90.53"/>
<polygon fill="#63b8ff" stroke="#63b8ff" points="1465.75,-127.24 1456.65,-132.66 1467.15,-134.1 1465.75,-127.24"/>
</a>
</g>
</g>
<!-- Node21 -->
<g id="Node000021" class="node">
<title>Node21</title>
<g id="a_Node000021"><a xlink:href="VertexPair__utest_8cpp.html" target="_top" xlink:title=" ">
<polygon fill="white" stroke="#666666" points="1616,-96 1470,-96 1470,-66 1616,-66 1616,-96"/>
<text text-anchor="start" x="1478" y="-84" font-family="Helvetica,sans-Serif" font-size="10.00">App/Test/Source/VertexPair</text>
<text text-anchor="middle" x="1543" y="-73" font-family="Helvetica,sans-Serif" font-size="10.00">_utest.cpp</text>
</a>
</g>
</g>
<!-- Node19&#45;&gt;Node21 -->
<g id="edge34_Node000019_Node000021" class="edge">
<title>Node19&#45;&gt;Node21</title>
<g id="a_edge34_Node000019_Node000021"><a xlink:title=" ">
<path fill="none" stroke="#63b8ff" d="M1433.62,-128.05C1457.7,-117.91 1487.36,-105.43 1509.72,-96.01"/>
<polygon fill="#63b8ff" stroke="#63b8ff" points="1432.22,-124.85 1424.36,-131.95 1434.93,-131.3 1432.22,-124.85"/>
</a>
</g>
</g>
</g>
</svg>
