<?xml version="1.0" encoding="UTF-8" standalone="no"?>
<!DOCTYPE svg PUBLIC "-//W3C//DTD SVG 1.1//EN"
 "http://www.w3.org/Graphics/SVG/1.1/DTD/svg11.dtd">
<!-- Generated by graphviz version 2.43.0 (0)
 -->
<!-- Title: App/Test/Source/PrimitiveProxy_utest.cpp Pages: 1 -->
<svg width="675pt" height="368pt"
 viewBox="0.00 0.00 674.75 368.00" xmlns="http://www.w3.org/2000/svg" xmlns:xlink="http://www.w3.org/1999/xlink">
<g id="graph0" class="graph" transform="scale(1 1) rotate(0) translate(4 364)">
<title>App/Test/Source/PrimitiveProxy_utest.cpp</title>
<!-- Node1 -->
<g id="Node000001" class="node">
<title>Node1</title>
<g id="a_Node000001"><a xlink:title=" ">
<polygon fill="#999999" stroke="#666666" points="469.75,-360 328.75,-360 328.75,-330 469.75,-330 469.75,-360"/>
<text text-anchor="start" x="336.75" y="-348" font-family="Helvetica,sans-Serif" font-size="10.00">App/Test/Source/Primitive</text>
<text text-anchor="middle" x="399.25" y="-337" font-family="Helvetica,sans-Serif" font-size="10.00">Proxy_utest.cpp</text>
</a>
</g>
</g>
<!-- Node2 -->
<g id="Node000002" class="node">
<title>Node2</title>
<g id="a_Node000002"><a xlink:href="PrimitiveProxy_8h.html" target="_top" xlink:title=" ">
<polygon fill="white" stroke="#666666" points="478.25,-239 324.25,-239 324.25,-220 478.25,-220 478.25,-239"/>
<text text-anchor="middle" x="401.25" y="-227" font-family="Helvetica,sans-Serif" font-size="10.00">Application/PrimitiveProxy.h</text>
</a>
</g>
</g>
<!-- Node1&#45;&gt;Node2 -->
<g id="edge1_Node000001_Node000002" class="edge">
<title>Node1&#45;&gt;Node2</title>
<g id="a_edge1_Node000001_Node000002"><a xlink:title=" ">
<path fill="none" stroke="#63b8ff" d="M399.51,-329.63C399.87,-309.21 400.53,-271.81 400.92,-249.24"/>
<polygon fill="#63b8ff" stroke="#63b8ff" points="404.42,-249.29 401.1,-239.23 397.42,-249.17 404.42,-249.29"/>
</a>
</g>
</g>
<!-- Node16 -->
<g id="Node000016" class="node">
<title>Node16</title>
<g id="a_Node000016"><a xlink:href="TestHelpers_8h.html" target="_top" xlink:title=" ">
<polygon fill="white" stroke="#666666" points="369.25,-294 229.25,-294 229.25,-275 369.25,-275 369.25,-294"/>
<text text-anchor="middle" x="299.25" y="-282" font-family="Helvetica,sans-Serif" font-size="10.00">Application/TestHelpers.h</text>
</a>
</g>
</g>
<!-- Node1&#45;&gt;Node16 -->
<g id="edge17_Node000001_Node000016" class="edge">
<title>Node1&#45;&gt;Node16</title>
<g id="a_edge17_Node000001_Node000016"><a xlink:title=" ">
<path fill="none" stroke="#63b8ff" d="M375.3,-329.99C359.36,-320.66 338.52,-308.47 322.69,-299.21"/>
<polygon fill="#63b8ff" stroke="#63b8ff" points="324.42,-296.17 314.02,-294.14 320.89,-302.21 324.42,-296.17"/>
</a>
</g>
</g>
<!-- Node19 -->
<g id="Node000019" class="node">
<title>Node19</title>
<g id="a_Node000019"><a xlink:title=" ">
<polygon fill="#e0e0e0" stroke="#999999" points="505.25,-294 427.25,-294 427.25,-275 505.25,-275 505.25,-294"/>
<text text-anchor="middle" x="466.25" y="-282" font-family="Helvetica,sans-Serif" font-size="10.00">gtest/gtest.h</text>
</a>
</g>
</g>
<!-- Node1&#45;&gt;Node19 -->
<g id="edge25_Node000001_Node000019" class="edge">
<title>Node1&#45;&gt;Node19</title>
<g id="a_edge25_Node000001_Node000019"><a xlink:title=" ">
<path fill="none" stroke="#63b8ff" d="M415.47,-329.84C425.5,-321.09 438.36,-309.85 448.64,-300.88"/>
<polygon fill="#63b8ff" stroke="#63b8ff" points="450.98,-303.48 456.21,-294.27 446.38,-298.21 450.98,-303.48"/>
</a>
</g>
</g>
<!-- Node3 -->
<g id="Node000003" class="node">
<title>Node3</title>
<g id="a_Node000003"><a xlink:href="BaseType_8h.html" target="_top" xlink:title=" ">
<polygon fill="white" stroke="#666666" points="363.25,-74 233.25,-74 233.25,-55 363.25,-55 363.25,-74"/>
<text text-anchor="middle" x="298.25" y="-62" font-family="Helvetica,sans-Serif" font-size="10.00">Application/BaseType.h</text>
</a>
</g>
</g>
<!-- Node2&#45;&gt;Node3 -->
<g id="edge2_Node000002_Node000003" class="edge">
<title>Node2&#45;&gt;Node3</title>
<g id="a_edge2_Node000002_Node000003"><a xlink:title=" ">
<path fill="none" stroke="#63b8ff" d="M405.62,-219.91C409.81,-211.14 415.85,-197.01 418.25,-184 424.29,-151.3 428.43,-135.64 407.25,-110 394.06,-94.02 374.22,-83.72 355.07,-77.11"/>
<polygon fill="#63b8ff" stroke="#63b8ff" points="356.05,-73.74 345.46,-74.06 353.94,-80.42 356.05,-73.74"/>
</a>
</g>
</g>
<!-- Node7 -->
<g id="Node000007" class="node">
<title>Node7</title>
<g id="a_Node000007"><a xlink:href="Mesh_8h.html" target="_top" xlink:title=" ">
<polygon fill="white" stroke="#666666" points="409.25,-184 299.25,-184 299.25,-165 409.25,-165 409.25,-184"/>
<text text-anchor="middle" x="354.25" y="-172" font-family="Helvetica,sans-Serif" font-size="10.00">Application/Mesh.h</text>
</a>
</g>
</g>
<!-- Node2&#45;&gt;Node7 -->
<g id="edge6_Node000002_Node000007" class="edge">
<title>Node2&#45;&gt;Node7</title>
<g id="a_edge6_Node000002_Node000007"><a xlink:title=" ">
<path fill="none" stroke="#63b8ff" d="M393.49,-219.75C386.79,-212.18 376.91,-201.05 368.75,-191.84"/>
<polygon fill="#63b8ff" stroke="#63b8ff" points="371.12,-189.25 361.87,-184.09 365.89,-193.89 371.12,-189.25"/>
</a>
</g>
</g>
<!-- Node4 -->
<g id="Node000004" class="node">
<title>Node4</title>
<g id="a_Node000004"><a xlink:title=" ">
<polygon fill="#e0e0e0" stroke="#999999" points="258.25,-19 180.25,-19 180.25,0 258.25,0 258.25,-19"/>
<text text-anchor="middle" x="219.25" y="-7" font-family="Helvetica,sans-Serif" font-size="10.00">glm/glm.hpp</text>
</a>
</g>
</g>
<!-- Node3&#45;&gt;Node4 -->
<g id="edge3_Node000003_Node000004" class="edge">
<title>Node3&#45;&gt;Node4</title>
<g id="a_edge3_Node000003_Node000004"><a xlink:title=" ">
<path fill="none" stroke="#63b8ff" d="M285.56,-54.98C273.43,-46.84 254.9,-34.41 240.51,-24.76"/>
<polygon fill="#63b8ff" stroke="#63b8ff" points="242.43,-21.84 232.18,-19.17 238.53,-27.65 242.43,-21.84"/>
</a>
</g>
</g>
<!-- Node5 -->
<g id="Node000005" class="node">
<title>Node5</title>
<g id="a_Node000005"><a xlink:title=" ">
<polygon fill="#e0e0e0" stroke="#999999" points="320.25,-19 276.25,-19 276.25,0 320.25,0 320.25,-19"/>
<text text-anchor="middle" x="298.25" y="-7" font-family="Helvetica,sans-Serif" font-size="10.00">bitset</text>
</a>
</g>
</g>
<!-- Node3&#45;&gt;Node5 -->
<g id="edge4_Node000003_Node000005" class="edge">
<title>Node3&#45;&gt;Node5</title>
<g id="a_edge4_Node000003_Node000005"><a xlink:title=" ">
<path fill="none" stroke="#63b8ff" d="M298.25,-54.75C298.25,-47.8 298.25,-37.85 298.25,-29.13"/>
<polygon fill="#63b8ff" stroke="#63b8ff" points="301.75,-29.09 298.25,-19.09 294.75,-29.09 301.75,-29.09"/>
</a>
</g>
</g>
<!-- Node6 -->
<g id="Node000006" class="node">
<title>Node6</title>
<g id="a_Node000006"><a xlink:title=" ">
<polygon fill="#e0e0e0" stroke="#999999" points="388.25,-19 338.25,-19 338.25,0 388.25,0 388.25,-19"/>
<text text-anchor="middle" x="363.25" y="-7" font-family="Helvetica,sans-Serif" font-size="10.00">cstdint</text>
</a>
</g>
</g>
<!-- Node3&#45;&gt;Node6 -->
<g id="edge5_Node000003_Node000006" class="edge">
<title>Node3&#45;&gt;Node6</title>
<g id="a_edge5_Node000003_Node000006"><a xlink:title=" ">
<path fill="none" stroke="#63b8ff" d="M308.7,-54.98C318.4,-47.07 333.07,-35.11 344.75,-25.58"/>
<polygon fill="#63b8ff" stroke="#63b8ff" points="347.08,-28.2 352.62,-19.17 342.66,-22.78 347.08,-28.2"/>
</a>
</g>
</g>
<!-- Node7&#45;&gt;Node3 -->
<g id="edge7_Node000007_Node000003" class="edge">
<title>Node7&#45;&gt;Node3</title>
<g id="a_edge7_Node000007_Node000003"><a xlink:title=" ">
<path fill="none" stroke="#63b8ff" d="M365.84,-165C381.08,-152.73 404.55,-129.43 392.25,-110 382.41,-94.44 365.49,-84.22 348.69,-77.55"/>
<polygon fill="#63b8ff" stroke="#63b8ff" points="349.47,-74.1 338.87,-74.01 347.1,-80.69 349.47,-74.1"/>
</a>
</g>
</g>
<!-- Node8 -->
<g id="Node000008" class="node">
<title>Node8</title>
<g id="a_Node000008"><a xlink:href="ExtraDataContainer_8h.html" target="_top" xlink:title=" ">
<polygon fill="white" stroke="#666666" points="656.75,-129 477.75,-129 477.75,-110 656.75,-110 656.75,-129"/>
<text text-anchor="middle" x="567.25" y="-117" font-family="Helvetica,sans-Serif" font-size="10.00">Application/ExtraDataContainer.h</text>
</a>
</g>
</g>
<!-- Node7&#45;&gt;Node8 -->
<g id="edge8_Node000007_Node000008" class="edge">
<title>Node7&#45;&gt;Node8</title>
<g id="a_edge8_Node000007_Node000008"><a xlink:title=" ">
<path fill="none" stroke="#63b8ff" d="M388.48,-164.98C425.01,-155.89 483.03,-141.46 523.01,-131.51"/>
<polygon fill="#63b8ff" stroke="#63b8ff" points="523.91,-134.89 532.76,-129.08 522.21,-128.1 523.91,-134.89"/>
</a>
</g>
</g>
<!-- Node12 -->
<g id="Node000012" class="node">
<title>Node12</title>
<g id="a_Node000012"><a xlink:href="Primitive_8h.html" target="_top" xlink:title=" ">
<polygon fill="white" stroke="#666666" points="307.25,-129 179.25,-129 179.25,-110 307.25,-110 307.25,-129"/>
<text text-anchor="middle" x="243.25" y="-117" font-family="Helvetica,sans-Serif" font-size="10.00">Application/Primitive.h</text>
</a>
</g>
</g>
<!-- Node7&#45;&gt;Node12 -->
<g id="edge12_Node000007_Node000012" class="edge">
<title>Node7&#45;&gt;Node12</title>
<g id="a_edge12_Node000007_Node000012"><a xlink:title=" ">
<path fill="none" stroke="#63b8ff" d="M336.42,-164.98C318.64,-156.5 291.11,-143.35 270.57,-133.54"/>
<polygon fill="#63b8ff" stroke="#63b8ff" points="271.95,-130.32 261.41,-129.17 268.93,-136.64 271.95,-130.32"/>
</a>
</g>
</g>
<!-- Node14 -->
<g id="Node000014" class="node">
<title>Node14</title>
<g id="a_Node000014"><a xlink:title=" ">
<polygon fill="#e0e0e0" stroke="#999999" points="383.25,-129 325.25,-129 325.25,-110 383.25,-110 383.25,-129"/>
<text text-anchor="middle" x="354.25" y="-117" font-family="Helvetica,sans-Serif" font-size="10.00">memory</text>
</a>
</g>
</g>
<!-- Node7&#45;&gt;Node14 -->
<g id="edge15_Node000007_Node000014" class="edge">
<title>Node7&#45;&gt;Node14</title>
<g id="a_edge15_Node000007_Node000014"><a xlink:title=" ">
<path fill="none" stroke="#63b8ff" d="M354.25,-164.75C354.25,-157.8 354.25,-147.85 354.25,-139.13"/>
<polygon fill="#63b8ff" stroke="#63b8ff" points="357.75,-139.09 354.25,-129.09 350.75,-139.09 357.75,-139.09"/>
</a>
</g>
</g>
<!-- Node15 -->
<g id="Node000015" class="node">
<title>Node15</title>
<g id="a_Node000015"><a xlink:title=" ">
<polygon fill="#e0e0e0" stroke="#999999" points="160.75,-129 113.75,-129 113.75,-110 160.75,-110 160.75,-129"/>
<text text-anchor="middle" x="137.25" y="-117" font-family="Helvetica,sans-Serif" font-size="10.00">vector</text>
</a>
</g>
</g>
<!-- Node7&#45;&gt;Node15 -->
<g id="edge16_Node000007_Node000015" class="edge">
<title>Node7&#45;&gt;Node15</title>
<g id="a_edge16_Node000007_Node000015"><a xlink:title=" ">
<path fill="none" stroke="#63b8ff" d="M318.25,-164.96C283.16,-156.6 228.04,-143.37 170.96,-129.15"/>
<polygon fill="#63b8ff" stroke="#63b8ff" points="171.59,-125.7 161.04,-126.67 169.89,-132.49 171.59,-125.7"/>
</a>
</g>
</g>
<!-- Node9 -->
<g id="Node000009" class="node">
<title>Node9</title>
<g id="a_Node000009"><a xlink:title=" ">
<polygon fill="#e0e0e0" stroke="#999999" points="666.75,-74 631.75,-74 631.75,-55 666.75,-55 666.75,-74"/>
<text text-anchor="middle" x="649.25" y="-62" font-family="Helvetica,sans-Serif" font-size="10.00">any</text>
</a>
</g>
</g>
<!-- Node8&#45;&gt;Node9 -->
<g id="edge9_Node000008_Node000009" class="edge">
<title>Node8&#45;&gt;Node9</title>
<g id="a_edge9_Node000008_Node000009"><a xlink:title=" ">
<path fill="none" stroke="#63b8ff" d="M580.43,-109.98C593.03,-101.84 612.26,-89.41 627.19,-79.76"/>
<polygon fill="#63b8ff" stroke="#63b8ff" points="629.34,-82.54 635.84,-74.17 625.54,-76.66 629.34,-82.54"/>
</a>
</g>
</g>
<!-- Node10 -->
<g id="Node000010" class="node">
<title>Node10</title>
<g id="a_Node000010"><a xlink:title=" ">
<polygon fill="#e0e0e0" stroke="#999999" points="502.75,-74 437.75,-74 437.75,-55 502.75,-55 502.75,-74"/>
<text text-anchor="middle" x="470.25" y="-62" font-family="Helvetica,sans-Serif" font-size="10.00">typeindex</text>
</a>
</g>
</g>
<!-- Node8&#45;&gt;Node10 -->
<g id="edge10_Node000008_Node000010" class="edge">
<title>Node8&#45;&gt;Node10</title>
<g id="a_edge10_Node000008_Node000010"><a xlink:title=" ">
<path fill="none" stroke="#63b8ff" d="M551.67,-109.98C536.49,-101.69 513.16,-88.94 495.36,-79.22"/>
<polygon fill="#63b8ff" stroke="#63b8ff" points="496.58,-75.89 486.12,-74.17 493.22,-82.04 496.58,-75.89"/>
</a>
</g>
</g>
<!-- Node11 -->
<g id="Node000011" class="node">
<title>Node11</title>
<g id="a_Node000011"><a xlink:title=" ">
<polygon fill="#e0e0e0" stroke="#999999" points="613.75,-74 520.75,-74 520.75,-55 613.75,-55 613.75,-74"/>
<text text-anchor="middle" x="567.25" y="-62" font-family="Helvetica,sans-Serif" font-size="10.00">unordered_map</text>
</a>
</g>
</g>
<!-- Node8&#45;&gt;Node11 -->
<g id="edge11_Node000008_Node000011" class="edge">
<title>Node8&#45;&gt;Node11</title>
<g id="a_edge11_Node000008_Node000011"><a xlink:title=" ">
<path fill="none" stroke="#63b8ff" d="M567.25,-109.75C567.25,-102.8 567.25,-92.85 567.25,-84.13"/>
<polygon fill="#63b8ff" stroke="#63b8ff" points="570.75,-84.09 567.25,-74.09 563.75,-84.09 570.75,-84.09"/>
</a>
</g>
</g>
<!-- Node12&#45;&gt;Node3 -->
<g id="edge13_Node000012_Node000003" class="edge">
<title>Node12&#45;&gt;Node3</title>
<g id="a_edge13_Node000012_Node000003"><a xlink:title=" ">
<path fill="none" stroke="#63b8ff" d="M252.34,-109.75C260.35,-102.03 272.21,-90.6 281.88,-81.28"/>
<polygon fill="#63b8ff" stroke="#63b8ff" points="284.57,-83.55 289.34,-74.09 279.71,-78.51 284.57,-83.55"/>
</a>
</g>
</g>
<!-- Node13 -->
<g id="Node000013" class="node">
<title>Node13</title>
<g id="a_Node000013"><a xlink:title=" ">
<polygon fill="#e0e0e0" stroke="#999999" points="138.25,-74 96.25,-74 96.25,-55 138.25,-55 138.25,-74"/>
<text text-anchor="middle" x="117.25" y="-62" font-family="Helvetica,sans-Serif" font-size="10.00">array</text>
</a>
</g>
</g>
<!-- Node12&#45;&gt;Node13 -->
<g id="edge14_Node000012_Node000013" class="edge">
<title>Node12&#45;&gt;Node13</title>
<g id="a_edge14_Node000012_Node000013"><a xlink:title=" ">
<path fill="none" stroke="#63b8ff" d="M223.01,-109.98C202.56,-101.38 170.72,-87.99 147.32,-78.15"/>
<polygon fill="#63b8ff" stroke="#63b8ff" points="148.44,-74.82 137.87,-74.17 145.73,-81.27 148.44,-74.82"/>
</a>
</g>
</g>
<!-- Node16&#45;&gt;Node2 -->
<g id="edge24_Node000016_Node000002" class="edge">
<title>Node16&#45;&gt;Node2</title>
<g id="a_edge24_Node000016_Node000002"><a xlink:title=" ">
<path fill="none" stroke="#63b8ff" d="M315.64,-274.98C331.83,-266.57 356.82,-253.59 375.64,-243.81"/>
<polygon fill="#63b8ff" stroke="#63b8ff" points="377.31,-246.89 384.57,-239.17 374.08,-240.68 377.31,-246.89"/>
</a>
</g>
</g>
<!-- Node16&#45;&gt;Node7 -->
<g id="edge23_Node000016_Node000007" class="edge">
<title>Node16&#45;&gt;Node7</title>
<g id="a_edge23_Node000016_Node000007"><a xlink:title=" ">
<path fill="none" stroke="#63b8ff" d="M300.13,-274.82C301.7,-262.15 305.75,-238.12 315.25,-220 320.84,-209.36 329.47,-199.15 337.19,-191.2"/>
<polygon fill="#63b8ff" stroke="#63b8ff" points="339.77,-193.57 344.46,-184.07 334.87,-188.57 339.77,-193.57"/>
</a>
</g>
</g>
<!-- Node17 -->
<g id="Node000017" class="node">
<title>Node17</title>
<g id="a_Node000017"><a xlink:href="ExtraDataType_8h.html" target="_top" xlink:title=" ">
<polygon fill="white" stroke="#666666" points="162.75,-184 7.75,-184 7.75,-165 162.75,-165 162.75,-184"/>
<text text-anchor="middle" x="85.25" y="-172" font-family="Helvetica,sans-Serif" font-size="10.00">Application/ExtraDataType.h</text>
</a>
</g>
</g>
<!-- Node16&#45;&gt;Node17 -->
<g id="edge18_Node000016_Node000017" class="edge">
<title>Node16&#45;&gt;Node17</title>
<g id="a_edge18_Node000016_Node000017"><a xlink:title=" ">
<path fill="none" stroke="#63b8ff" d="M282.1,-274.84C244.68,-255.96 155.51,-210.96 111.18,-188.59"/>
<polygon fill="#63b8ff" stroke="#63b8ff" points="112.69,-185.43 102.19,-184.05 109.54,-191.68 112.69,-185.43"/>
</a>
</g>
</g>
<!-- Node17&#45;&gt;Node3 -->
<g id="edge19_Node000017_Node000003" class="edge">
<title>Node17&#45;&gt;Node3</title>
<g id="a_edge19_Node000017_Node000003"><a xlink:title=" ">
<path fill="none" stroke="#63b8ff" d="M85.25,-164.69C85.75,-150.95 88.8,-124.48 104.25,-110 121.52,-93.82 175.84,-82.22 222.62,-74.92"/>
<polygon fill="#63b8ff" stroke="#63b8ff" points="223.41,-78.34 232.77,-73.39 222.36,-71.42 223.41,-78.34"/>
</a>
</g>
</g>
<!-- Node17&#45;&gt;Node13 -->
<g id="edge20_Node000017_Node000013" class="edge">
<title>Node17&#45;&gt;Node13</title>
<g id="a_edge20_Node000017_Node000013"><a xlink:title=" ">
<path fill="none" stroke="#63b8ff" d="M57.13,-164.94C27.52,-154.41 -12.64,-134.81 4.25,-110 22.38,-83.38 59.1,-72.69 85.77,-68.39"/>
<polygon fill="#63b8ff" stroke="#63b8ff" points="86.37,-71.84 95.8,-66.99 85.41,-64.9 86.37,-71.84"/>
</a>
</g>
</g>
<!-- Node17&#45;&gt;Node15 -->
<g id="edge22_Node000017_Node000015" class="edge">
<title>Node17&#45;&gt;Node15</title>
<g id="a_edge22_Node000017_Node000015"><a xlink:title=" ">
<path fill="none" stroke="#63b8ff" d="M93.84,-164.75C101.41,-157.03 112.63,-145.6 121.77,-136.28"/>
<polygon fill="#63b8ff" stroke="#63b8ff" points="124.32,-138.68 128.83,-129.09 119.33,-133.78 124.32,-138.68"/>
</a>
</g>
</g>
<!-- Node18 -->
<g id="Node000018" class="node">
<title>Node18</title>
<g id="a_Node000018"><a xlink:title=" ">
<polygon fill="#e0e0e0" stroke="#999999" points="57.25,-129 13.25,-129 13.25,-110 57.25,-110 57.25,-129"/>
<text text-anchor="middle" x="35.25" y="-117" font-family="Helvetica,sans-Serif" font-size="10.00">string</text>
</a>
</g>
</g>
<!-- Node17&#45;&gt;Node18 -->
<g id="edge21_Node000017_Node000018" class="edge">
<title>Node17&#45;&gt;Node18</title>
<g id="a_edge21_Node000017_Node000018"><a xlink:title=" ">
<path fill="none" stroke="#63b8ff" d="M77,-164.75C69.79,-157.11 59.14,-145.82 50.41,-136.56"/>
<polygon fill="#63b8ff" stroke="#63b8ff" points="52.77,-133.96 43.36,-129.09 47.67,-138.76 52.77,-133.96"/>
</a>
</g>
</g>
</g>
</svg>
