<?xml version="1.0" encoding="UTF-8" standalone="no"?>
<!DOCTYPE svg PUBLIC "-//W3C//DTD SVG 1.1//EN"
 "http://www.w3.org/Graphics/SVG/1.1/DTD/svg11.dtd">
<!-- Generated by graphviz version 2.43.0 (0)
 -->
<!-- Title: App/Source/PrimitiveProxy.cpp Pages: 1 -->
<svg width="732pt" height="302pt"
 viewBox="0.00 0.00 731.50 302.00" xmlns="http://www.w3.org/2000/svg" xmlns:xlink="http://www.w3.org/1999/xlink">
<g id="graph0" class="graph" transform="scale(1 1) rotate(0) translate(4 298)">
<title>App/Source/PrimitiveProxy.cpp</title>
<!-- Node1 -->
<g id="Node000001" class="node">
<title>Node1</title>
<g id="a_Node000001"><a xlink:title=" ">
<polygon fill="#999999" stroke="#666666" points="396.5,-294 231.5,-294 231.5,-275 396.5,-275 396.5,-294"/>
<text text-anchor="middle" x="314" y="-282" font-family="Helvetica,sans-Serif" font-size="10.00">App/Source/PrimitiveProxy.cpp</text>
</a>
</g>
</g>
<!-- Node2 -->
<g id="Node000002" class="node">
<title>Node2</title>
<g id="a_Node000002"><a xlink:href="PrimitiveProxy_8h.html" target="_top" xlink:title=" ">
<polygon fill="white" stroke="#666666" points="332,-239 178,-239 178,-220 332,-220 332,-239"/>
<text text-anchor="middle" x="255" y="-227" font-family="Helvetica,sans-Serif" font-size="10.00">Application/PrimitiveProxy.h</text>
</a>
</g>
</g>
<!-- Node1&#45;&gt;Node2 -->
<g id="edge1_Node000001_Node000002" class="edge">
<title>Node1&#45;&gt;Node2</title>
<g id="a_edge1_Node000001_Node000002"><a xlink:title=" ">
<path fill="none" stroke="#63b8ff" d="M304.52,-274.98C295.8,-267.15 282.66,-255.34 272.1,-245.86"/>
<polygon fill="#63b8ff" stroke="#63b8ff" points="274.43,-243.25 264.65,-239.17 269.75,-248.46 274.43,-243.25"/>
</a>
</g>
</g>
<!-- Node17 -->
<g id="Node000017" class="node">
<title>Node17</title>
<g id="a_Node000017"><a xlink:title=" ">
<polygon fill="#e0e0e0" stroke="#999999" points="395.5,-239 350.5,-239 350.5,-220 395.5,-220 395.5,-239"/>
<text text-anchor="middle" x="373" y="-227" font-family="Helvetica,sans-Serif" font-size="10.00">utility</text>
</a>
</g>
</g>
<!-- Node1&#45;&gt;Node17 -->
<g id="edge18_Node000001_Node000017" class="edge">
<title>Node1&#45;&gt;Node17</title>
<g id="a_edge18_Node000001_Node000017"><a xlink:title=" ">
<path fill="none" stroke="#63b8ff" d="M323.48,-274.98C332.2,-267.15 345.34,-255.34 355.9,-245.86"/>
<polygon fill="#63b8ff" stroke="#63b8ff" points="358.25,-248.46 363.35,-239.17 353.57,-243.25 358.25,-248.46"/>
</a>
</g>
</g>
<!-- Node3 -->
<g id="Node000003" class="node">
<title>Node3</title>
<g id="a_Node000003"><a xlink:href="BaseType_8h.html" target="_top" xlink:title=" ">
<polygon fill="white" stroke="#666666" points="287,-74 157,-74 157,-55 287,-55 287,-74"/>
<text text-anchor="middle" x="222" y="-62" font-family="Helvetica,sans-Serif" font-size="10.00">Application/BaseType.h</text>
</a>
</g>
</g>
<!-- Node2&#45;&gt;Node3 -->
<g id="edge2_Node000002_Node000003" class="edge">
<title>Node2&#45;&gt;Node3</title>
<g id="a_edge2_Node000002_Node000003"><a xlink:title=" ">
<path fill="none" stroke="#63b8ff" d="M252.43,-219.79C247.45,-202.59 236.38,-162.96 230,-129 227.2,-114.12 225.12,-97.08 223.78,-84.41"/>
<polygon fill="#63b8ff" stroke="#63b8ff" points="227.23,-83.78 222.76,-74.18 220.27,-84.48 227.23,-83.78"/>
</a>
</g>
</g>
<!-- Node8 -->
<g id="Node000008" class="node">
<title>Node8</title>
<g id="a_Node000008"><a xlink:href="Mesh_8h.html" target="_top" xlink:title=" ">
<polygon fill="white" stroke="#666666" points="461,-184 351,-184 351,-165 461,-165 461,-184"/>
<text text-anchor="middle" x="406" y="-172" font-family="Helvetica,sans-Serif" font-size="10.00">Application/Mesh.h</text>
</a>
</g>
</g>
<!-- Node2&#45;&gt;Node8 -->
<g id="edge7_Node000002_Node000008" class="edge">
<title>Node2&#45;&gt;Node8</title>
<g id="a_edge7_Node000002_Node000008"><a xlink:title=" ">
<path fill="none" stroke="#63b8ff" d="M279.26,-219.98C304.32,-211.19 343.63,-197.39 371.83,-187.49"/>
<polygon fill="#63b8ff" stroke="#63b8ff" points="373.02,-190.78 381.3,-184.17 370.7,-184.18 373.02,-190.78"/>
</a>
</g>
</g>
<!-- Node4 -->
<g id="Node000004" class="node">
<title>Node4</title>
<g id="a_Node000004"><a xlink:title=" ">
<polygon fill="#e0e0e0" stroke="#999999" points="78,-19 0,-19 0,0 78,0 78,-19"/>
<text text-anchor="middle" x="39" y="-7" font-family="Helvetica,sans-Serif" font-size="10.00">glm/glm.hpp</text>
</a>
</g>
</g>
<!-- Node3&#45;&gt;Node4 -->
<g id="edge3_Node000003_Node000004" class="edge">
<title>Node3&#45;&gt;Node4</title>
<g id="a_edge3_Node000003_Node000004"><a xlink:title=" ">
<path fill="none" stroke="#63b8ff" d="M192.6,-54.98C161.61,-46.01 112.62,-31.82 78.33,-21.89"/>
<polygon fill="#63b8ff" stroke="#63b8ff" points="79.21,-18.5 68.63,-19.08 77.26,-25.23 79.21,-18.5"/>
</a>
</g>
</g>
<!-- Node5 -->
<g id="Node000005" class="node">
<title>Node5</title>
<g id="a_Node000005"><a xlink:title=" ">
<polygon fill="#e0e0e0" stroke="#999999" points="237.5,-19 96.5,-19 96.5,0 237.5,0 237.5,-19"/>
<text text-anchor="middle" x="167" y="-7" font-family="Helvetica,sans-Serif" font-size="10.00">glm/gtx/vector_angle.hpp</text>
</a>
</g>
</g>
<!-- Node3&#45;&gt;Node5 -->
<g id="edge4_Node000003_Node000005" class="edge">
<title>Node3&#45;&gt;Node5</title>
<g id="a_edge4_Node000003_Node000005"><a xlink:title=" ">
<path fill="none" stroke="#63b8ff" d="M212.92,-54.75C204.91,-47.03 193.04,-35.6 183.38,-26.28"/>
<polygon fill="#63b8ff" stroke="#63b8ff" points="185.54,-23.51 175.91,-19.09 180.69,-28.55 185.54,-23.51"/>
</a>
</g>
</g>
<!-- Node6 -->
<g id="Node000006" class="node">
<title>Node6</title>
<g id="a_Node000006"><a xlink:title=" ">
<polygon fill="#e0e0e0" stroke="#999999" points="300,-19 256,-19 256,0 300,0 300,-19"/>
<text text-anchor="middle" x="278" y="-7" font-family="Helvetica,sans-Serif" font-size="10.00">bitset</text>
</a>
</g>
</g>
<!-- Node3&#45;&gt;Node6 -->
<g id="edge5_Node000003_Node000006" class="edge">
<title>Node3&#45;&gt;Node6</title>
<g id="a_edge5_Node000003_Node000006"><a xlink:title=" ">
<path fill="none" stroke="#63b8ff" d="M231,-54.98C239.19,-47.23 251.51,-35.58 261.47,-26.14"/>
<polygon fill="#63b8ff" stroke="#63b8ff" points="263.98,-28.59 268.84,-19.17 259.17,-23.5 263.98,-28.59"/>
</a>
</g>
</g>
<!-- Node7 -->
<g id="Node000007" class="node">
<title>Node7</title>
<g id="a_Node000007"><a xlink:title=" ">
<polygon fill="#e0e0e0" stroke="#999999" points="368,-19 318,-19 318,0 368,0 368,-19"/>
<text text-anchor="middle" x="343" y="-7" font-family="Helvetica,sans-Serif" font-size="10.00">cstdint</text>
</a>
</g>
</g>
<!-- Node3&#45;&gt;Node7 -->
<g id="edge6_Node000003_Node000007" class="edge">
<title>Node3&#45;&gt;Node7</title>
<g id="a_edge6_Node000003_Node000007"><a xlink:title=" ">
<path fill="none" stroke="#63b8ff" d="M241.44,-54.98C260.99,-46.42 291.38,-33.11 313.82,-23.28"/>
<polygon fill="#63b8ff" stroke="#63b8ff" points="315.45,-26.39 323.21,-19.17 312.64,-19.98 315.45,-26.39"/>
</a>
</g>
</g>
<!-- Node8&#45;&gt;Node3 -->
<g id="edge8_Node000008_Node000003" class="edge">
<title>Node8&#45;&gt;Node3</title>
<g id="a_edge8_Node000008_Node000003"><a xlink:title=" ">
<path fill="none" stroke="#63b8ff" d="M350.75,-170.25C317.11,-165.56 275.3,-154.55 247,-129 234.23,-117.47 227.9,-98.6 224.82,-84.41"/>
<polygon fill="#63b8ff" stroke="#63b8ff" points="228.21,-83.49 222.98,-74.28 221.32,-84.74 228.21,-83.49"/>
</a>
</g>
</g>
<!-- Node9 -->
<g id="Node000009" class="node">
<title>Node9</title>
<g id="a_Node000009"><a xlink:href="ExtraDataContainer_8h.html" target="_top" xlink:title=" ">
<polygon fill="white" stroke="#666666" points="581.5,-129 402.5,-129 402.5,-110 581.5,-110 581.5,-129"/>
<text text-anchor="middle" x="492" y="-117" font-family="Helvetica,sans-Serif" font-size="10.00">Application/ExtraDataContainer.h</text>
</a>
</g>
</g>
<!-- Node8&#45;&gt;Node9 -->
<g id="edge9_Node000008_Node000009" class="edge">
<title>Node8&#45;&gt;Node9</title>
<g id="a_edge9_Node000008_Node000009"><a xlink:title=" ">
<path fill="none" stroke="#63b8ff" d="M419.82,-164.98C433.15,-156.77 453.58,-144.18 469.31,-134.49"/>
<polygon fill="#63b8ff" stroke="#63b8ff" points="471.25,-137.4 477.93,-129.17 467.58,-131.44 471.25,-137.4"/>
</a>
</g>
</g>
<!-- Node13 -->
<g id="Node000013" class="node">
<title>Node13</title>
<g id="a_Node000013"><a xlink:href="Primitive_8h.html" target="_top" xlink:title=" ">
<polygon fill="white" stroke="#666666" points="384,-129 256,-129 256,-110 384,-110 384,-129"/>
<text text-anchor="middle" x="320" y="-117" font-family="Helvetica,sans-Serif" font-size="10.00">Application/Primitive.h</text>
</a>
</g>
</g>
<!-- Node8&#45;&gt;Node13 -->
<g id="edge13_Node000008_Node000013" class="edge">
<title>Node8&#45;&gt;Node13</title>
<g id="a_edge13_Node000008_Node000013"><a xlink:title=" ">
<path fill="none" stroke="#63b8ff" d="M392.18,-164.98C378.85,-156.77 358.42,-144.18 342.69,-134.49"/>
<polygon fill="#63b8ff" stroke="#63b8ff" points="344.42,-131.44 334.07,-129.17 340.75,-137.4 344.42,-131.44"/>
</a>
</g>
</g>
<!-- Node15 -->
<g id="Node000015" class="node">
<title>Node15</title>
<g id="a_Node000015"><a xlink:title=" ">
<polygon fill="#e0e0e0" stroke="#999999" points="658,-129 600,-129 600,-110 658,-110 658,-129"/>
<text text-anchor="middle" x="629" y="-117" font-family="Helvetica,sans-Serif" font-size="10.00">memory</text>
</a>
</g>
</g>
<!-- Node8&#45;&gt;Node15 -->
<g id="edge16_Node000008_Node000015" class="edge">
<title>Node8&#45;&gt;Node15</title>
<g id="a_edge16_Node000008_Node000015"><a xlink:title=" ">
<path fill="none" stroke="#63b8ff" d="M441.83,-164.98C482.32,-155.36 548.02,-139.75 589.84,-129.81"/>
<polygon fill="#63b8ff" stroke="#63b8ff" points="590.75,-133.19 599.67,-127.47 589.13,-126.38 590.75,-133.19"/>
</a>
</g>
</g>
<!-- Node16 -->
<g id="Node000016" class="node">
<title>Node16</title>
<g id="a_Node000016"><a xlink:title=" ">
<polygon fill="#e0e0e0" stroke="#999999" points="723.5,-129 676.5,-129 676.5,-110 723.5,-110 723.5,-129"/>
<text text-anchor="middle" x="700" y="-117" font-family="Helvetica,sans-Serif" font-size="10.00">vector</text>
</a>
</g>
</g>
<!-- Node8&#45;&gt;Node16 -->
<g id="edge17_Node000008_Node000016" class="edge">
<title>Node8&#45;&gt;Node16</title>
<g id="a_edge17_Node000008_Node000016"><a xlink:title=" ">
<path fill="none" stroke="#63b8ff" d="M461.25,-165.45C512.08,-157.73 589.73,-145.16 666.43,-128.96"/>
<polygon fill="#63b8ff" stroke="#63b8ff" points="667.21,-132.38 676.26,-126.87 665.75,-125.53 667.21,-132.38"/>
</a>
</g>
</g>
<!-- Node10 -->
<g id="Node000010" class="node">
<title>Node10</title>
<g id="a_Node000010"><a xlink:title=" ">
<polygon fill="#e0e0e0" stroke="#999999" points="441.5,-74 406.5,-74 406.5,-55 441.5,-55 441.5,-74"/>
<text text-anchor="middle" x="424" y="-62" font-family="Helvetica,sans-Serif" font-size="10.00">any</text>
</a>
</g>
</g>
<!-- Node9&#45;&gt;Node10 -->
<g id="edge10_Node000009_Node000010" class="edge">
<title>Node9&#45;&gt;Node10</title>
<g id="a_edge10_Node000009_Node000010"><a xlink:title=" ">
<path fill="none" stroke="#63b8ff" d="M481.07,-109.98C470.92,-102.07 455.58,-90.11 443.35,-80.58"/>
<polygon fill="#63b8ff" stroke="#63b8ff" points="445.16,-77.56 435.12,-74.17 440.86,-83.08 445.16,-77.56"/>
</a>
</g>
</g>
<!-- Node11 -->
<g id="Node000011" class="node">
<title>Node11</title>
<g id="a_Node000011"><a xlink:title=" ">
<polygon fill="#e0e0e0" stroke="#999999" points="524.5,-74 459.5,-74 459.5,-55 524.5,-55 524.5,-74"/>
<text text-anchor="middle" x="492" y="-62" font-family="Helvetica,sans-Serif" font-size="10.00">typeindex</text>
</a>
</g>
</g>
<!-- Node9&#45;&gt;Node11 -->
<g id="edge11_Node000009_Node000011" class="edge">
<title>Node9&#45;&gt;Node11</title>
<g id="a_edge11_Node000009_Node000011"><a xlink:title=" ">
<path fill="none" stroke="#63b8ff" d="M492,-109.75C492,-102.8 492,-92.85 492,-84.13"/>
<polygon fill="#63b8ff" stroke="#63b8ff" points="495.5,-84.09 492,-74.09 488.5,-84.09 495.5,-84.09"/>
</a>
</g>
</g>
<!-- Node12 -->
<g id="Node000012" class="node">
<title>Node12</title>
<g id="a_Node000012"><a xlink:title=" ">
<polygon fill="#e0e0e0" stroke="#999999" points="635.5,-74 542.5,-74 542.5,-55 635.5,-55 635.5,-74"/>
<text text-anchor="middle" x="589" y="-62" font-family="Helvetica,sans-Serif" font-size="10.00">unordered_map</text>
</a>
</g>
</g>
<!-- Node9&#45;&gt;Node12 -->
<g id="edge12_Node000009_Node000012" class="edge">
<title>Node9&#45;&gt;Node12</title>
<g id="a_edge12_Node000009_Node000012"><a xlink:title=" ">
<path fill="none" stroke="#63b8ff" d="M507.58,-109.98C522.77,-101.69 546.1,-88.94 563.9,-79.22"/>
<polygon fill="#63b8ff" stroke="#63b8ff" points="566.03,-82.04 573.13,-74.17 562.68,-75.89 566.03,-82.04"/>
</a>
</g>
</g>
<!-- Node13&#45;&gt;Node3 -->
<g id="edge14_Node000013_Node000003" class="edge">
<title>Node13&#45;&gt;Node3</title>
<g id="a_edge14_Node000013_Node000003"><a xlink:title=" ">
<path fill="none" stroke="#63b8ff" d="M304.25,-109.98C288.77,-101.61 264.91,-88.7 246.86,-78.95"/>
<polygon fill="#63b8ff" stroke="#63b8ff" points="248.49,-75.85 238.03,-74.17 245.16,-82.01 248.49,-75.85"/>
</a>
</g>
</g>
<!-- Node14 -->
<g id="Node000014" class="node">
<title>Node14</title>
<g id="a_Node000014"><a xlink:title=" ">
<polygon fill="#e0e0e0" stroke="#999999" points="347,-74 305,-74 305,-55 347,-55 347,-74"/>
<text text-anchor="middle" x="326" y="-62" font-family="Helvetica,sans-Serif" font-size="10.00">array</text>
</a>
</g>
</g>
<!-- Node13&#45;&gt;Node14 -->
<g id="edge15_Node000013_Node000014" class="edge">
<title>Node13&#45;&gt;Node14</title>
<g id="a_edge15_Node000013_Node000014"><a xlink:title=" ">
<path fill="none" stroke="#63b8ff" d="M320.99,-109.75C321.78,-102.8 322.9,-92.85 323.89,-84.13"/>
<polygon fill="#63b8ff" stroke="#63b8ff" points="327.38,-84.42 325.03,-74.09 320.42,-83.63 327.38,-84.42"/>
</a>
</g>
</g>
</g>
</svg>
