<?xml version="1.0" encoding="UTF-8" standalone="no"?>
<!DOCTYPE svg PUBLIC "-//W3C//DTD SVG 1.1//EN"
 "http://www.w3.org/Graphics/SVG/1.1/DTD/svg11.dtd">
<!-- Generated by graphviz version 2.43.0 (0)
 -->
<!-- Title: Core/Include/Core/PrintHelpers.h Pages: 1 -->
<svg width="248pt" height="82pt"
 viewBox="0.00 0.00 247.50 82.00" xmlns="http://www.w3.org/2000/svg" xmlns:xlink="http://www.w3.org/1999/xlink">
<g id="graph0" class="graph" transform="scale(1 1) rotate(0) translate(4 78)">
<title>Core/Include/Core/PrintHelpers.h</title>
<!-- Node1 -->
<g id="Node000001" class="node">
<title>Node1</title>
<g id="a_Node000001"><a xlink:title=" ">
<polygon fill="#999999" stroke="#666666" points="185.5,-74 10.5,-74 10.5,-55 185.5,-55 185.5,-74"/>
<text text-anchor="middle" x="98" y="-62" font-family="Helvetica,sans-Serif" font-size="10.00">Core/Include/Core/PrintHelpers.h</text>
</a>
</g>
</g>
<!-- Node2 -->
<g id="Node000002" class="node">
<title>Node2</title>
<g id="a_Node000002"><a xlink:title=" ">
<polygon fill="#e0e0e0" stroke="#999999" points="50,-19 0,-19 0,0 50,0 50,-19"/>
<text text-anchor="middle" x="25" y="-7" font-family="Helvetica,sans-Serif" font-size="10.00">format</text>
</a>
</g>
</g>
<!-- Node1&#45;&gt;Node2 -->
<g id="edge1_Node000001_Node000002" class="edge">
<title>Node1&#45;&gt;Node2</title>
<g id="a_edge1_Node000001_Node000002"><a xlink:title=" ">
<path fill="none" stroke="#63b8ff" d="M86.27,-54.98C75.27,-47 58.58,-34.88 45.4,-25.31"/>
<polygon fill="#63b8ff" stroke="#63b8ff" points="47.09,-22.21 36.94,-19.17 42.98,-27.88 47.09,-22.21"/>
</a>
</g>
</g>
<!-- Node3 -->
<g id="Node000003" class="node">
<title>Node3</title>
<g id="a_Node000003"><a xlink:title=" ">
<polygon fill="#e0e0e0" stroke="#999999" points="128,-19 68,-19 68,0 128,0 128,-19"/>
<text text-anchor="middle" x="98" y="-7" font-family="Helvetica,sans-Serif" font-size="10.00">iostream</text>
</a>
</g>
</g>
<!-- Node1&#45;&gt;Node3 -->
<g id="edge2_Node000001_Node000003" class="edge">
<title>Node1&#45;&gt;Node3</title>
<g id="a_edge2_Node000001_Node000003"><a xlink:title=" ">
<path fill="none" stroke="#63b8ff" d="M98,-54.75C98,-47.8 98,-37.85 98,-29.13"/>
<polygon fill="#63b8ff" stroke="#63b8ff" points="101.5,-29.09 98,-19.09 94.5,-29.09 101.5,-29.09"/>
</a>
</g>
</g>
<!-- Node4 -->
<g id="Node000004" class="node">
<title>Node4</title>
<g id="a_Node000004"><a xlink:title=" ">
<polygon fill="#e0e0e0" stroke="#999999" points="239.5,-19 146.5,-19 146.5,0 239.5,0 239.5,-19"/>
<text text-anchor="middle" x="193" y="-7" font-family="Helvetica,sans-Serif" font-size="10.00">source_location</text>
</a>
</g>
</g>
<!-- Node1&#45;&gt;Node4 -->
<g id="edge3_Node000001_Node000004" class="edge">
<title>Node1&#45;&gt;Node4</title>
<g id="a_edge3_Node000001_Node000004"><a xlink:title=" ">
<path fill="none" stroke="#63b8ff" d="M113.26,-54.98C128.13,-46.69 150.98,-33.94 168.42,-24.22"/>
<polygon fill="#63b8ff" stroke="#63b8ff" points="170.43,-27.1 177.46,-19.17 167.02,-20.99 170.43,-27.1"/>
</a>
</g>
</g>
</g>
</svg>
