<?xml version="1.0" encoding="UTF-8" standalone="no"?>
<!DOCTYPE svg PUBLIC "-//W3C//DTD SVG 1.1//EN"
 "http://www.w3.org/Graphics/SVG/1.1/DTD/svg11.dtd">
<!-- Generated by graphviz version 2.43.0 (0)
 -->
<!-- Title: Core/Include/Core/PrintHelpers.h Pages: 1 -->
<svg width="1429pt" height="93pt"
 viewBox="0.00 0.00 1428.50 93.00" xmlns="http://www.w3.org/2000/svg" xmlns:xlink="http://www.w3.org/1999/xlink">
<g id="graph0" class="graph" transform="scale(1 1) rotate(0) translate(4 89)">
<title>Core/Include/Core/PrintHelpers.h</title>
<!-- Node1 -->
<g id="Node000001" class="node">
<title>Node1</title>
<g id="a_Node000001"><a xlink:title=" ">
<polygon fill="#999999" stroke="#666666" points="855.5,-85 680.5,-85 680.5,-66 855.5,-66 855.5,-85"/>
<text text-anchor="middle" x="768" y="-73" font-family="Helvetica,sans-Serif" font-size="10.00">Core/Include/Core/PrintHelpers.h</text>
</a>
</g>
</g>
<!-- Node2 -->
<g id="Node000002" class="node">
<title>Node2</title>
<g id="a_Node000002"><a xlink:href="AppLayer_8cpp.html" target="_top" xlink:title=" ">
<polygon fill="white" stroke="#666666" points="140,-24.5 0,-24.5 0,-5.5 140,-5.5 140,-24.5"/>
<text text-anchor="middle" x="70" y="-12.5" font-family="Helvetica,sans-Serif" font-size="10.00">App/Source/AppLayer.cpp</text>
</a>
</g>
</g>
<!-- Node1&#45;&gt;Node2 -->
<g id="edge1_Node000001_Node000002" class="edge">
<title>Node1&#45;&gt;Node2</title>
<g id="a_edge1_Node000001_Node000002"><a xlink:title=" ">
<path fill="none" stroke="#63b8ff" d="M670.25,-70.61C547.99,-65.02 332.43,-52.78 149,-30 137.39,-28.56 124.89,-26.55 113.34,-24.51"/>
<polygon fill="#63b8ff" stroke="#63b8ff" points="670.18,-74.11 680.33,-71.06 670.5,-67.11 670.18,-74.11"/>
</a>
</g>
</g>
<!-- Node3 -->
<g id="Node000003" class="node">
<title>Node3</title>
<g id="a_Node000003"><a xlink:href="MeshExporter_8cpp.html" target="_top" xlink:title=" ">
<polygon fill="white" stroke="#666666" points="319.5,-24.5 158.5,-24.5 158.5,-5.5 319.5,-5.5 319.5,-24.5"/>
<text text-anchor="middle" x="239" y="-12.5" font-family="Helvetica,sans-Serif" font-size="10.00">App/Source/MeshExporter.cpp</text>
</a>
</g>
</g>
<!-- Node1&#45;&gt;Node3 -->
<g id="edge2_Node000001_Node000003" class="edge">
<title>Node1&#45;&gt;Node3</title>
<g id="a_edge2_Node000001_Node000003"><a xlink:title=" ">
<path fill="none" stroke="#63b8ff" d="M670.07,-66.16C580.78,-58.18 445.31,-45.15 328,-30 315.75,-28.42 302.58,-26.48 290.23,-24.55"/>
<polygon fill="#63b8ff" stroke="#63b8ff" points="669.91,-69.66 680.18,-67.06 670.53,-62.68 669.91,-69.66"/>
</a>
</g>
</g>
<!-- Node4 -->
<g id="Node000004" class="node">
<title>Node4</title>
<g id="a_Node000004"><a xlink:href="MeshLoader_8cpp.html" target="_top" xlink:title=" ">
<polygon fill="white" stroke="#666666" points="490.5,-24.5 337.5,-24.5 337.5,-5.5 490.5,-5.5 490.5,-24.5"/>
<text text-anchor="middle" x="414" y="-12.5" font-family="Helvetica,sans-Serif" font-size="10.00">App/Source/MeshLoader.cpp</text>
</a>
</g>
</g>
<!-- Node1&#45;&gt;Node4 -->
<g id="edge3_Node000001_Node000004" class="edge">
<title>Node1&#45;&gt;Node4</title>
<g id="a_edge3_Node000001_Node000004"><a xlink:title=" ">
<path fill="none" stroke="#63b8ff" d="M706.35,-64.31C638.13,-53.04 529.4,-35.07 465.54,-24.52"/>
<polygon fill="#63b8ff" stroke="#63b8ff" points="706.09,-67.82 716.53,-65.99 707.23,-60.91 706.09,-67.82"/>
</a>
</g>
</g>
<!-- Node5 -->
<g id="Node000005" class="node">
<title>Node5</title>
<g id="a_Node000005"><a xlink:href="MeshExporter__utest_8cpp.html" target="_top" xlink:title=" ">
<polygon fill="white" stroke="#666666" points="673,-30 509,-30 509,0 673,0 673,-30"/>
<text text-anchor="start" x="517" y="-18" font-family="Helvetica,sans-Serif" font-size="10.00">App/Test/Source/MeshExporter</text>
<text text-anchor="middle" x="591" y="-7" font-family="Helvetica,sans-Serif" font-size="10.00">_utest.cpp</text>
</a>
</g>
</g>
<!-- Node1&#45;&gt;Node5 -->
<g id="edge4_Node000001_Node000005" class="edge">
<title>Node1&#45;&gt;Node5</title>
<g id="a_edge4_Node000001_Node000005"><a xlink:title=" ">
<path fill="none" stroke="#63b8ff" d="M732.69,-62.83C704.15,-53.4 663.87,-40.09 633.55,-30.06"/>
<polygon fill="#63b8ff" stroke="#63b8ff" points="731.67,-66.18 742.26,-65.99 733.87,-59.53 731.67,-66.18"/>
</a>
</g>
</g>
<!-- Node6 -->
<g id="Node000006" class="node">
<title>Node6</title>
<g id="a_Node000006"><a xlink:href="Application_8cpp.html" target="_top" xlink:title=" ">
<polygon fill="white" stroke="#666666" points="844.5,-24.5 691.5,-24.5 691.5,-5.5 844.5,-5.5 844.5,-24.5"/>
<text text-anchor="middle" x="768" y="-12.5" font-family="Helvetica,sans-Serif" font-size="10.00">Core/Source/Application.cpp</text>
</a>
</g>
</g>
<!-- Node1&#45;&gt;Node6 -->
<g id="edge5_Node000001_Node000006" class="edge">
<title>Node1&#45;&gt;Node6</title>
<g id="a_edge5_Node000001_Node000006"><a xlink:title=" ">
<path fill="none" stroke="#63b8ff" d="M768,-55.66C768,-45.24 768,-32.8 768,-24.67"/>
<polygon fill="#63b8ff" stroke="#63b8ff" points="764.5,-55.87 768,-65.87 771.5,-55.87 764.5,-55.87"/>
</a>
</g>
</g>
<!-- Node7 -->
<g id="Node000007" class="node">
<title>Node7</title>
<g id="a_Node000007"><a xlink:href="GLUtils_8cpp.html" target="_top" xlink:title=" ">
<polygon fill="white" stroke="#666666" points="985,-30 863,-30 863,0 985,0 985,-30"/>
<text text-anchor="start" x="871" y="-18" font-family="Helvetica,sans-Serif" font-size="10.00">Core/Source/Renderer</text>
<text text-anchor="middle" x="924" y="-7" font-family="Helvetica,sans-Serif" font-size="10.00">/GLUtils.cpp</text>
</a>
</g>
</g>
<!-- Node1&#45;&gt;Node7 -->
<g id="edge6_Node000001_Node000007" class="edge">
<title>Node1&#45;&gt;Node7</title>
<g id="a_edge6_Node000001_Node000007"><a xlink:title=" ">
<path fill="none" stroke="#63b8ff" d="M800.11,-62.46C825.2,-53.05 860.12,-39.95 886.5,-30.06"/>
<polygon fill="#63b8ff" stroke="#63b8ff" points="798.82,-59.21 790.68,-65.99 801.28,-65.76 798.82,-59.21"/>
</a>
</g>
</g>
<!-- Node8 -->
<g id="Node000008" class="node">
<title>Node8</title>
<g id="a_Node000008"><a xlink:href="Renderer_8cpp.html" target="_top" xlink:title=" ">
<polygon fill="white" stroke="#666666" points="1125,-30 1003,-30 1003,0 1125,0 1125,-30"/>
<text text-anchor="start" x="1011" y="-18" font-family="Helvetica,sans-Serif" font-size="10.00">Core/Source/Renderer</text>
<text text-anchor="middle" x="1064" y="-7" font-family="Helvetica,sans-Serif" font-size="10.00">/Renderer.cpp</text>
</a>
</g>
</g>
<!-- Node1&#45;&gt;Node8 -->
<g id="edge7_Node000001_Node000008" class="edge">
<title>Node1&#45;&gt;Node8</title>
<g id="a_edge7_Node000001_Node000008"><a xlink:title=" ">
<path fill="none" stroke="#63b8ff" d="M821.76,-63.96C867.55,-54.97 935.11,-41.69 994,-30 996.92,-29.42 999.9,-28.83 1002.92,-28.23"/>
<polygon fill="#63b8ff" stroke="#63b8ff" points="820.89,-60.56 811.76,-65.92 822.24,-67.43 820.89,-60.56"/>
</a>
</g>
</g>
<!-- Node9 -->
<g id="Node000009" class="node">
<title>Node9</title>
<g id="a_Node000009"><a xlink:href="Shader_8cpp.html" target="_top" xlink:title=" ">
<polygon fill="white" stroke="#666666" points="1265,-30 1143,-30 1143,0 1265,0 1265,-30"/>
<text text-anchor="start" x="1151" y="-18" font-family="Helvetica,sans-Serif" font-size="10.00">Core/Source/Renderer</text>
<text text-anchor="middle" x="1204" y="-7" font-family="Helvetica,sans-Serif" font-size="10.00">/Shader.cpp</text>
</a>
</g>
</g>
<!-- Node1&#45;&gt;Node9 -->
<g id="edge8_Node000001_Node000009" class="edge">
<title>Node1&#45;&gt;Node9</title>
<g id="a_edge8_Node000001_Node000009"><a xlink:title=" ">
<path fill="none" stroke="#63b8ff" d="M863.54,-64.9C937.56,-56.98 1042.55,-44.68 1134,-30 1136.94,-29.53 1139.94,-29.02 1142.97,-28.49"/>
<polygon fill="#63b8ff" stroke="#63b8ff" points="862.88,-61.46 853.31,-65.99 863.62,-68.42 862.88,-61.46"/>
</a>
</g>
</g>
<!-- Node10 -->
<g id="Node000010" class="node">
<title>Node10</title>
<g id="a_Node000010"><a xlink:href="Window_8cpp.html" target="_top" xlink:title=" ">
<polygon fill="white" stroke="#666666" points="1420.5,-24.5 1283.5,-24.5 1283.5,-5.5 1420.5,-5.5 1420.5,-24.5"/>
<text text-anchor="middle" x="1352" y="-12.5" font-family="Helvetica,sans-Serif" font-size="10.00">Core/Source/Window.cpp</text>
</a>
</g>
</g>
<!-- Node1&#45;&gt;Node10 -->
<g id="edge9_Node000001_Node000010" class="edge">
<title>Node1&#45;&gt;Node10</title>
<g id="a_edge9_Node000001_Node000010"><a xlink:title=" ">
<path fill="none" stroke="#63b8ff" d="M865.55,-68.53C967.66,-61.67 1132.52,-48.88 1274,-30 1285.18,-28.51 1297.2,-26.54 1308.38,-24.54"/>
<polygon fill="#63b8ff" stroke="#63b8ff" points="865.31,-65.04 855.56,-69.2 865.78,-72.02 865.31,-65.04"/>
</a>
</g>
</g>
</g>
</svg>
