<?xml version="1.0" encoding="UTF-8" standalone="no"?>
<!DOCTYPE svg PUBLIC "-//W3C//DTD SVG 1.1//EN"
 "http://www.w3.org/Graphics/SVG/1.1/DTD/svg11.dtd">
<!-- Generated by graphviz version 2.43.0 (0)
 -->
<!-- Title: App/Include/Application/TestHelpers.h Pages: 1 -->
<svg width="690pt" height="313pt"
 viewBox="0.00 0.00 689.50 313.00" xmlns="http://www.w3.org/2000/svg" xmlns:xlink="http://www.w3.org/1999/xlink">
<g id="graph0" class="graph" transform="scale(1 1) rotate(0) translate(4 309)">
<title>App/Include/Application/TestHelpers.h</title>
<!-- Node1 -->
<g id="Node000001" class="node">
<title>Node1</title>
<g id="a_Node000001"><a xlink:title=" ">
<polygon fill="#999999" stroke="#666666" points="425,-305 294,-305 294,-275 425,-275 425,-305"/>
<text text-anchor="start" x="302" y="-293" font-family="Helvetica,sans-Serif" font-size="10.00">App/Include/Application</text>
<text text-anchor="middle" x="359.5" y="-282" font-family="Helvetica,sans-Serif" font-size="10.00">/TestHelpers.h</text>
</a>
</g>
</g>
<!-- Node2 -->
<g id="Node000002" class="node">
<title>Node2</title>
<g id="a_Node000002"><a xlink:href="ExtraDataType_8h.html" target="_top" xlink:title=" ">
<polygon fill="white" stroke="#666666" points="649,-184 494,-184 494,-165 649,-165 649,-184"/>
<text text-anchor="middle" x="571.5" y="-172" font-family="Helvetica,sans-Serif" font-size="10.00">Application/ExtraDataType.h</text>
</a>
</g>
</g>
<!-- Node1&#45;&gt;Node2 -->
<g id="edge1_Node000001_Node000002" class="edge">
<title>Node1&#45;&gt;Node2</title>
<g id="a_edge1_Node000001_Node000002"><a xlink:title=" ">
<path fill="none" stroke="#63b8ff" d="M385.92,-274.85C427.13,-252.79 506.14,-210.49 546.48,-188.9"/>
<polygon fill="#63b8ff" stroke="#63b8ff" points="548.23,-191.93 555.39,-184.12 544.92,-185.76 548.23,-191.93"/>
</a>
</g>
</g>
<!-- Node11 -->
<g id="Node000011" class="node">
<title>Node11</title>
<g id="a_Node000011"><a xlink:href="Mesh_8h.html" target="_top" xlink:title=" ">
<polygon fill="white" stroke="#666666" points="357.5,-184 247.5,-184 247.5,-165 357.5,-165 357.5,-184"/>
<text text-anchor="middle" x="302.5" y="-172" font-family="Helvetica,sans-Serif" font-size="10.00">Application/Mesh.h</text>
</a>
</g>
</g>
<!-- Node1&#45;&gt;Node11 -->
<g id="edge10_Node000001_Node000011" class="edge">
<title>Node1&#45;&gt;Node11</title>
<g id="a_edge10_Node000001_Node000011"><a xlink:title=" ">
<path fill="none" stroke="#63b8ff" d="M357.47,-274.85C354.97,-260.41 349.87,-237.67 340.5,-220 334.93,-209.5 326.51,-199.3 319.02,-191.32"/>
<polygon fill="#63b8ff" stroke="#63b8ff" points="321.47,-188.83 311.97,-184.16 316.48,-193.74 321.47,-188.83"/>
</a>
</g>
</g>
<!-- Node18 -->
<g id="Node000018" class="node">
<title>Node18</title>
<g id="a_Node000018"><a xlink:href="PrimitiveProxy_8h.html" target="_top" xlink:title=" ">
<polygon fill="white" stroke="#666666" points="331.5,-239 177.5,-239 177.5,-220 331.5,-220 331.5,-239"/>
<text text-anchor="middle" x="254.5" y="-227" font-family="Helvetica,sans-Serif" font-size="10.00">Application/PrimitiveProxy.h</text>
</a>
</g>
</g>
<!-- Node1&#45;&gt;Node18 -->
<g id="edge21_Node000001_Node000018" class="edge">
<title>Node1&#45;&gt;Node18</title>
<g id="a_edge21_Node000001_Node000018"><a xlink:title=" ">
<path fill="none" stroke="#63b8ff" d="M334.35,-274.99C317.61,-265.66 295.73,-253.47 279.11,-244.21"/>
<polygon fill="#63b8ff" stroke="#63b8ff" points="280.45,-240.95 270.01,-239.14 277.04,-247.06 280.45,-240.95"/>
</a>
</g>
</g>
<!-- Node3 -->
<g id="Node000003" class="node">
<title>Node3</title>
<g id="a_Node000003"><a xlink:href="BaseType_8h.html" target="_top" xlink:title=" ">
<polygon fill="white" stroke="#666666" points="429.5,-74 299.5,-74 299.5,-55 429.5,-55 429.5,-74"/>
<text text-anchor="middle" x="364.5" y="-62" font-family="Helvetica,sans-Serif" font-size="10.00">Application/BaseType.h</text>
</a>
</g>
</g>
<!-- Node2&#45;&gt;Node3 -->
<g id="edge2_Node000002_Node000003" class="edge">
<title>Node2&#45;&gt;Node3</title>
<g id="a_edge2_Node000002_Node000003"><a xlink:title=" ">
<path fill="none" stroke="#63b8ff" d="M571.49,-164.7C570.98,-150.98 567.9,-124.53 552.5,-110 536.06,-94.49 484.8,-82.97 439.95,-75.55"/>
<polygon fill="#63b8ff" stroke="#63b8ff" points="440.34,-72.06 429.91,-73.93 439.22,-78.97 440.34,-72.06"/>
</a>
</g>
</g>
<!-- Node8 -->
<g id="Node000008" class="node">
<title>Node8</title>
<g id="a_Node000008"><a xlink:title=" ">
<polygon fill="#e0e0e0" stroke="#999999" points="559.5,-74 517.5,-74 517.5,-55 559.5,-55 559.5,-74"/>
<text text-anchor="middle" x="538.5" y="-62" font-family="Helvetica,sans-Serif" font-size="10.00">array</text>
</a>
</g>
</g>
<!-- Node2&#45;&gt;Node8 -->
<g id="edge7_Node000002_Node000008" class="edge">
<title>Node2&#45;&gt;Node8</title>
<g id="a_edge7_Node000002_Node000008"><a xlink:title=" ">
<path fill="none" stroke="#63b8ff" d="M576.59,-164.97C583.35,-152.48 593.53,-128.67 585.5,-110 580.35,-98.03 570.21,-87.76 560.67,-80.12"/>
<polygon fill="#63b8ff" stroke="#63b8ff" points="562.69,-77.26 552.57,-74.11 558.51,-82.88 562.69,-77.26"/>
</a>
</g>
</g>
<!-- Node9 -->
<g id="Node000009" class="node">
<title>Node9</title>
<g id="a_Node000009"><a xlink:title=" ">
<polygon fill="#e0e0e0" stroke="#999999" points="681.5,-129 637.5,-129 637.5,-110 681.5,-110 681.5,-129"/>
<text text-anchor="middle" x="659.5" y="-117" font-family="Helvetica,sans-Serif" font-size="10.00">string</text>
</a>
</g>
</g>
<!-- Node2&#45;&gt;Node9 -->
<g id="edge8_Node000002_Node000009" class="edge">
<title>Node2&#45;&gt;Node9</title>
<g id="a_edge8_Node000002_Node000009"><a xlink:title=" ">
<path fill="none" stroke="#63b8ff" d="M585.64,-164.98C599.29,-156.77 620.19,-144.18 636.28,-134.49"/>
<polygon fill="#63b8ff" stroke="#63b8ff" points="638.34,-137.33 645.1,-129.17 634.73,-131.33 638.34,-137.33"/>
</a>
</g>
</g>
<!-- Node10 -->
<g id="Node000010" class="node">
<title>Node10</title>
<g id="a_Node000010"><a xlink:title=" ">
<polygon fill="#e0e0e0" stroke="#999999" points="543,-129 496,-129 496,-110 543,-110 543,-129"/>
<text text-anchor="middle" x="519.5" y="-117" font-family="Helvetica,sans-Serif" font-size="10.00">vector</text>
</a>
</g>
</g>
<!-- Node2&#45;&gt;Node10 -->
<g id="edge9_Node000002_Node000010" class="edge">
<title>Node2&#45;&gt;Node10</title>
<g id="a_edge9_Node000002_Node000010"><a xlink:title=" ">
<path fill="none" stroke="#63b8ff" d="M562.91,-164.75C555.34,-157.03 544.12,-145.6 534.99,-136.28"/>
<polygon fill="#63b8ff" stroke="#63b8ff" points="537.43,-133.78 527.93,-129.09 532.43,-138.68 537.43,-133.78"/>
</a>
</g>
</g>
<!-- Node4 -->
<g id="Node000004" class="node">
<title>Node4</title>
<g id="a_Node000004"><a xlink:title=" ">
<polygon fill="#e0e0e0" stroke="#999999" points="219.5,-19 141.5,-19 141.5,0 219.5,0 219.5,-19"/>
<text text-anchor="middle" x="180.5" y="-7" font-family="Helvetica,sans-Serif" font-size="10.00">glm/glm.hpp</text>
</a>
</g>
</g>
<!-- Node3&#45;&gt;Node4 -->
<g id="edge3_Node000003_Node000004" class="edge">
<title>Node3&#45;&gt;Node4</title>
<g id="a_edge3_Node000003_Node000004"><a xlink:title=" ">
<path fill="none" stroke="#63b8ff" d="M334.94,-54.98C303.78,-46.01 254.53,-31.82 220.04,-21.89"/>
<polygon fill="#63b8ff" stroke="#63b8ff" points="220.87,-18.49 210.29,-19.08 218.93,-25.21 220.87,-18.49"/>
</a>
</g>
</g>
<!-- Node5 -->
<g id="Node000005" class="node">
<title>Node5</title>
<g id="a_Node000005"><a xlink:title=" ">
<polygon fill="#e0e0e0" stroke="#999999" points="379,-19 238,-19 238,0 379,0 379,-19"/>
<text text-anchor="middle" x="308.5" y="-7" font-family="Helvetica,sans-Serif" font-size="10.00">glm/gtx/vector_angle.hpp</text>
</a>
</g>
</g>
<!-- Node3&#45;&gt;Node5 -->
<g id="edge4_Node000003_Node000005" class="edge">
<title>Node3&#45;&gt;Node5</title>
<g id="a_edge4_Node000003_Node000005"><a xlink:title=" ">
<path fill="none" stroke="#63b8ff" d="M355.5,-54.98C347.31,-47.23 334.99,-35.58 325.03,-26.14"/>
<polygon fill="#63b8ff" stroke="#63b8ff" points="327.33,-23.5 317.66,-19.17 322.52,-28.59 327.33,-23.5"/>
</a>
</g>
</g>
<!-- Node6 -->
<g id="Node000006" class="node">
<title>Node6</title>
<g id="a_Node000006"><a xlink:title=" ">
<polygon fill="#e0e0e0" stroke="#999999" points="441.5,-19 397.5,-19 397.5,0 441.5,0 441.5,-19"/>
<text text-anchor="middle" x="419.5" y="-7" font-family="Helvetica,sans-Serif" font-size="10.00">bitset</text>
</a>
</g>
</g>
<!-- Node3&#45;&gt;Node6 -->
<g id="edge5_Node000003_Node000006" class="edge">
<title>Node3&#45;&gt;Node6</title>
<g id="a_edge5_Node000003_Node000006"><a xlink:title=" ">
<path fill="none" stroke="#63b8ff" d="M373.58,-54.75C381.59,-47.03 393.46,-35.6 403.12,-26.28"/>
<polygon fill="#63b8ff" stroke="#63b8ff" points="405.81,-28.55 410.59,-19.09 400.96,-23.51 405.81,-28.55"/>
</a>
</g>
</g>
<!-- Node7 -->
<g id="Node000007" class="node">
<title>Node7</title>
<g id="a_Node000007"><a xlink:title=" ">
<polygon fill="#e0e0e0" stroke="#999999" points="509.5,-19 459.5,-19 459.5,0 509.5,0 509.5,-19"/>
<text text-anchor="middle" x="484.5" y="-7" font-family="Helvetica,sans-Serif" font-size="10.00">cstdint</text>
</a>
</g>
</g>
<!-- Node3&#45;&gt;Node7 -->
<g id="edge6_Node000003_Node000007" class="edge">
<title>Node3&#45;&gt;Node7</title>
<g id="a_edge6_Node000003_Node000007"><a xlink:title=" ">
<path fill="none" stroke="#63b8ff" d="M383.78,-54.98C403.17,-46.42 433.31,-33.11 455.57,-23.28"/>
<polygon fill="#63b8ff" stroke="#63b8ff" points="457.14,-26.41 464.87,-19.17 454.31,-20.01 457.14,-26.41"/>
</a>
</g>
</g>
<!-- Node11&#45;&gt;Node3 -->
<g id="edge11_Node000011_Node000003" class="edge">
<title>Node11&#45;&gt;Node3</title>
<g id="a_edge11_Node000011_Node000003"><a xlink:title=" ">
<path fill="none" stroke="#63b8ff" d="M290.85,-164.96C275.54,-152.65 251.97,-129.29 264.5,-110 274.76,-94.2 292.07,-83.97 309.44,-77.35"/>
<polygon fill="#63b8ff" stroke="#63b8ff" points="310.73,-80.61 319.04,-74.04 308.45,-73.99 310.73,-80.61"/>
</a>
</g>
</g>
<!-- Node11&#45;&gt;Node10 -->
<g id="edge20_Node000011_Node000010" class="edge">
<title>Node11&#45;&gt;Node10</title>
<g id="a_edge20_Node000011_Node000010"><a xlink:title=" ">
<path fill="none" stroke="#63b8ff" d="M338.5,-164.96C373.59,-156.6 428.72,-143.37 485.8,-129.15"/>
<polygon fill="#63b8ff" stroke="#63b8ff" points="486.86,-132.49 495.72,-126.67 485.17,-125.7 486.86,-132.49"/>
</a>
</g>
</g>
<!-- Node12 -->
<g id="Node000012" class="node">
<title>Node12</title>
<g id="a_Node000012"><a xlink:href="ExtraDataContainer_8h.html" target="_top" xlink:title=" ">
<polygon fill="white" stroke="#666666" points="179,-129 0,-129 0,-110 179,-110 179,-129"/>
<text text-anchor="middle" x="89.5" y="-117" font-family="Helvetica,sans-Serif" font-size="10.00">Application/ExtraDataContainer.h</text>
</a>
</g>
</g>
<!-- Node11&#45;&gt;Node12 -->
<g id="edge12_Node000011_Node000012" class="edge">
<title>Node11&#45;&gt;Node12</title>
<g id="a_edge12_Node000011_Node000012"><a xlink:title=" ">
<path fill="none" stroke="#63b8ff" d="M268.28,-164.98C231.74,-155.89 173.72,-141.46 133.74,-131.51"/>
<polygon fill="#63b8ff" stroke="#63b8ff" points="134.54,-128.1 123.99,-129.08 132.85,-134.89 134.54,-128.1"/>
</a>
</g>
</g>
<!-- Node16 -->
<g id="Node000016" class="node">
<title>Node16</title>
<g id="a_Node000016"><a xlink:href="Primitive_8h.html" target="_top" xlink:title=" ">
<polygon fill="white" stroke="#666666" points="477.5,-129 349.5,-129 349.5,-110 477.5,-110 477.5,-129"/>
<text text-anchor="middle" x="413.5" y="-117" font-family="Helvetica,sans-Serif" font-size="10.00">Application/Primitive.h</text>
</a>
</g>
</g>
<!-- Node11&#45;&gt;Node16 -->
<g id="edge16_Node000011_Node000016" class="edge">
<title>Node11&#45;&gt;Node16</title>
<g id="a_edge16_Node000011_Node000016"><a xlink:title=" ">
<path fill="none" stroke="#63b8ff" d="M320.33,-164.98C338.11,-156.5 365.65,-143.35 386.18,-133.54"/>
<polygon fill="#63b8ff" stroke="#63b8ff" points="387.83,-136.64 395.34,-129.17 384.81,-130.32 387.83,-136.64"/>
</a>
</g>
</g>
<!-- Node17 -->
<g id="Node000017" class="node">
<title>Node17</title>
<g id="a_Node000017"><a xlink:title=" ">
<polygon fill="#e0e0e0" stroke="#999999" points="331.5,-129 273.5,-129 273.5,-110 331.5,-110 331.5,-129"/>
<text text-anchor="middle" x="302.5" y="-117" font-family="Helvetica,sans-Serif" font-size="10.00">memory</text>
</a>
</g>
</g>
<!-- Node11&#45;&gt;Node17 -->
<g id="edge19_Node000011_Node000017" class="edge">
<title>Node11&#45;&gt;Node17</title>
<g id="a_edge19_Node000011_Node000017"><a xlink:title=" ">
<path fill="none" stroke="#63b8ff" d="M302.5,-164.75C302.5,-157.8 302.5,-147.85 302.5,-139.13"/>
<polygon fill="#63b8ff" stroke="#63b8ff" points="306,-139.09 302.5,-129.09 299,-139.09 306,-139.09"/>
</a>
</g>
</g>
<!-- Node13 -->
<g id="Node000013" class="node">
<title>Node13</title>
<g id="a_Node000013"><a xlink:title=" ">
<polygon fill="#e0e0e0" stroke="#999999" points="39,-74 4,-74 4,-55 39,-55 39,-74"/>
<text text-anchor="middle" x="21.5" y="-62" font-family="Helvetica,sans-Serif" font-size="10.00">any</text>
</a>
</g>
</g>
<!-- Node12&#45;&gt;Node13 -->
<g id="edge13_Node000012_Node000013" class="edge">
<title>Node12&#45;&gt;Node13</title>
<g id="a_edge13_Node000012_Node000013"><a xlink:title=" ">
<path fill="none" stroke="#63b8ff" d="M78.57,-109.98C68.42,-102.07 53.08,-90.11 40.85,-80.58"/>
<polygon fill="#63b8ff" stroke="#63b8ff" points="42.66,-77.56 32.62,-74.17 38.36,-83.08 42.66,-77.56"/>
</a>
</g>
</g>
<!-- Node14 -->
<g id="Node000014" class="node">
<title>Node14</title>
<g id="a_Node000014"><a xlink:title=" ">
<polygon fill="#e0e0e0" stroke="#999999" points="122,-74 57,-74 57,-55 122,-55 122,-74"/>
<text text-anchor="middle" x="89.5" y="-62" font-family="Helvetica,sans-Serif" font-size="10.00">typeindex</text>
</a>
</g>
</g>
<!-- Node12&#45;&gt;Node14 -->
<g id="edge14_Node000012_Node000014" class="edge">
<title>Node12&#45;&gt;Node14</title>
<g id="a_edge14_Node000012_Node000014"><a xlink:title=" ">
<path fill="none" stroke="#63b8ff" d="M89.5,-109.75C89.5,-102.8 89.5,-92.85 89.5,-84.13"/>
<polygon fill="#63b8ff" stroke="#63b8ff" points="93,-84.09 89.5,-74.09 86,-84.09 93,-84.09"/>
</a>
</g>
</g>
<!-- Node15 -->
<g id="Node000015" class="node">
<title>Node15</title>
<g id="a_Node000015"><a xlink:title=" ">
<polygon fill="#e0e0e0" stroke="#999999" points="233,-74 140,-74 140,-55 233,-55 233,-74"/>
<text text-anchor="middle" x="186.5" y="-62" font-family="Helvetica,sans-Serif" font-size="10.00">unordered_map</text>
</a>
</g>
</g>
<!-- Node12&#45;&gt;Node15 -->
<g id="edge15_Node000012_Node000015" class="edge">
<title>Node12&#45;&gt;Node15</title>
<g id="a_edge15_Node000012_Node000015"><a xlink:title=" ">
<path fill="none" stroke="#63b8ff" d="M105.08,-109.98C120.27,-101.69 143.6,-88.94 161.4,-79.22"/>
<polygon fill="#63b8ff" stroke="#63b8ff" points="163.53,-82.04 170.63,-74.17 160.18,-75.89 163.53,-82.04"/>
</a>
</g>
</g>
<!-- Node16&#45;&gt;Node3 -->
<g id="edge17_Node000016_Node000003" class="edge">
<title>Node16&#45;&gt;Node3</title>
<g id="a_edge17_Node000016_Node000003"><a xlink:title=" ">
<path fill="none" stroke="#63b8ff" d="M405.41,-109.75C398.34,-102.11 387.91,-90.82 379.35,-81.56"/>
<polygon fill="#63b8ff" stroke="#63b8ff" points="381.8,-79.06 372.44,-74.09 376.66,-83.81 381.8,-79.06"/>
</a>
</g>
</g>
<!-- Node16&#45;&gt;Node8 -->
<g id="edge18_Node000016_Node000008" class="edge">
<title>Node16&#45;&gt;Node8</title>
<g id="a_edge18_Node000016_Node000008"><a xlink:title=" ">
<path fill="none" stroke="#63b8ff" d="M433.58,-109.98C453.87,-101.38 485.46,-87.99 508.67,-78.15"/>
<polygon fill="#63b8ff" stroke="#63b8ff" points="510.21,-81.3 518.05,-74.17 507.48,-74.85 510.21,-81.3"/>
</a>
</g>
</g>
<!-- Node18&#45;&gt;Node3 -->
<g id="edge22_Node000018_Node000003" class="edge">
<title>Node18&#45;&gt;Node3</title>
<g id="a_edge22_Node000018_Node000003"><a xlink:title=" ">
<path fill="none" stroke="#63b8ff" d="M250.39,-219.88C246.44,-211.09 240.76,-196.94 238.5,-184 232.69,-150.65 233.47,-134.81 256.5,-110 271.26,-94.1 292.55,-83.71 312.33,-77.01"/>
<polygon fill="#63b8ff" stroke="#63b8ff" points="313.39,-80.35 321.88,-74.01 311.29,-73.67 313.39,-80.35"/>
</a>
</g>
</g>
<!-- Node18&#45;&gt;Node11 -->
<g id="edge23_Node000018_Node000011" class="edge">
<title>Node18&#45;&gt;Node11</title>
<g id="a_edge23_Node000018_Node000011"><a xlink:title=" ">
<path fill="none" stroke="#63b8ff" d="M262.43,-219.75C269.35,-212.11 279.57,-200.82 287.95,-191.56"/>
<polygon fill="#63b8ff" stroke="#63b8ff" points="290.6,-193.85 294.72,-184.09 285.41,-189.15 290.6,-193.85"/>
</a>
</g>
</g>
</g>
</svg>
