<?xml version="1.0" encoding="UTF-8" standalone="no"?>
<!DOCTYPE svg PUBLIC "-//W3C//DTD SVG 1.1//EN"
 "http://www.w3.org/Graphics/SVG/1.1/DTD/svg11.dtd">
<!-- Generated by graphviz version 2.43.0 (0)
 -->
<!-- Title: App/Source/VertexPair.cpp Pages: 1 -->
<svg width="448pt" height="247pt"
 viewBox="0.00 0.00 447.50 247.00" xmlns="http://www.w3.org/2000/svg" xmlns:xlink="http://www.w3.org/1999/xlink">
<g id="graph0" class="graph" transform="scale(1 1) rotate(0) translate(4 243)">
<title>App/Source/VertexPair.cpp</title>
<!-- Node1 -->
<g id="Node000001" class="node">
<title>Node1</title>
<g id="a_Node000001"><a xlink:title=" ">
<polygon fill="#999999" stroke="#666666" points="417.5,-239 274.5,-239 274.5,-220 417.5,-220 417.5,-239"/>
<text text-anchor="middle" x="346" y="-227" font-family="Helvetica,sans-Serif" font-size="10.00">App/Source/VertexPair.cpp</text>
</a>
</g>
</g>
<!-- Node2 -->
<g id="Node000002" class="node">
<title>Node2</title>
<g id="a_Node000002"><a xlink:href="VertexPair_8h.html" target="_top" xlink:title=" ">
<polygon fill="white" stroke="#666666" points="412,-184 280,-184 280,-165 412,-165 412,-184"/>
<text text-anchor="middle" x="346" y="-172" font-family="Helvetica,sans-Serif" font-size="10.00">Application/VertexPair.h</text>
</a>
</g>
</g>
<!-- Node1&#45;&gt;Node2 -->
<g id="edge1_Node000001_Node000002" class="edge">
<title>Node1&#45;&gt;Node2</title>
<g id="a_edge1_Node000001_Node000002"><a xlink:title=" ">
<path fill="none" stroke="#63b8ff" d="M346,-219.75C346,-212.8 346,-202.85 346,-194.13"/>
<polygon fill="#63b8ff" stroke="#63b8ff" points="349.5,-194.09 346,-184.09 342.5,-194.09 349.5,-194.09"/>
</a>
</g>
</g>
<!-- Node3 -->
<g id="Node000003" class="node">
<title>Node3</title>
<g id="a_Node000003"><a xlink:href="Primitive_8h.html" target="_top" xlink:title=" ">
<polygon fill="white" stroke="#666666" points="318,-129 190,-129 190,-110 318,-110 318,-129"/>
<text text-anchor="middle" x="254" y="-117" font-family="Helvetica,sans-Serif" font-size="10.00">Application/Primitive.h</text>
</a>
</g>
</g>
<!-- Node2&#45;&gt;Node3 -->
<g id="edge2_Node000002_Node000003" class="edge">
<title>Node2&#45;&gt;Node3</title>
<g id="a_edge2_Node000002_Node000003"><a xlink:title=" ">
<path fill="none" stroke="#63b8ff" d="M331.22,-164.98C316.82,-156.69 294.69,-143.94 277.81,-134.22"/>
<polygon fill="#63b8ff" stroke="#63b8ff" points="279.46,-131.13 269.05,-129.17 275.97,-137.19 279.46,-131.13"/>
</a>
</g>
</g>
<!-- Node7 -->
<g id="Node000007" class="node">
<title>Node7</title>
<g id="a_Node000007"><a xlink:title=" ">
<polygon fill="#e0e0e0" stroke="#999999" points="368,-19 324,-19 324,0 368,0 368,-19"/>
<text text-anchor="middle" x="346" y="-7" font-family="Helvetica,sans-Serif" font-size="10.00">bitset</text>
</a>
</g>
</g>
<!-- Node2&#45;&gt;Node7 -->
<g id="edge9_Node000002_Node000007" class="edge">
<title>Node2&#45;&gt;Node7</title>
<g id="a_edge9_Node000002_Node000007"><a xlink:title=" ">
<path fill="none" stroke="#63b8ff" d="M346,-164.74C346,-139.31 346,-65.08 346,-29.69"/>
<polygon fill="#63b8ff" stroke="#63b8ff" points="349.5,-29.31 346,-19.31 342.5,-29.31 349.5,-29.31"/>
</a>
</g>
</g>
<!-- Node10 -->
<g id="Node000010" class="node">
<title>Node10</title>
<g id="a_Node000010"><a xlink:title=" ">
<polygon fill="#e0e0e0" stroke="#999999" points="439.5,-129 374.5,-129 374.5,-110 439.5,-110 439.5,-129"/>
<text text-anchor="middle" x="407" y="-117" font-family="Helvetica,sans-Serif" font-size="10.00">stdexcept</text>
</a>
</g>
</g>
<!-- Node2&#45;&gt;Node10 -->
<g id="edge10_Node000002_Node000010" class="edge">
<title>Node2&#45;&gt;Node10</title>
<g id="a_edge10_Node000002_Node000010"><a xlink:title=" ">
<path fill="none" stroke="#63b8ff" d="M355.8,-164.98C364.82,-157.15 378.41,-145.34 389.32,-135.86"/>
<polygon fill="#63b8ff" stroke="#63b8ff" points="391.77,-138.37 397.02,-129.17 387.18,-133.09 391.77,-138.37"/>
</a>
</g>
</g>
<!-- Node4 -->
<g id="Node000004" class="node">
<title>Node4</title>
<g id="a_Node000004"><a xlink:href="BaseType_8h.html" target="_top" xlink:title=" ">
<polygon fill="white" stroke="#666666" points="245,-74 115,-74 115,-55 245,-55 245,-74"/>
<text text-anchor="middle" x="180" y="-62" font-family="Helvetica,sans-Serif" font-size="10.00">Application/BaseType.h</text>
</a>
</g>
</g>
<!-- Node3&#45;&gt;Node4 -->
<g id="edge3_Node000003_Node000004" class="edge">
<title>Node3&#45;&gt;Node4</title>
<g id="a_edge3_Node000003_Node000004"><a xlink:title=" ">
<path fill="none" stroke="#63b8ff" d="M242.11,-109.98C230.85,-101.92 213.71,-89.65 200.29,-80.03"/>
<polygon fill="#63b8ff" stroke="#63b8ff" points="202.27,-77.15 192.11,-74.17 198.2,-82.84 202.27,-77.15"/>
</a>
</g>
</g>
<!-- Node9 -->
<g id="Node000009" class="node">
<title>Node9</title>
<g id="a_Node000009"><a xlink:title=" ">
<polygon fill="#e0e0e0" stroke="#999999" points="305,-74 263,-74 263,-55 305,-55 305,-74"/>
<text text-anchor="middle" x="284" y="-62" font-family="Helvetica,sans-Serif" font-size="10.00">array</text>
</a>
</g>
</g>
<!-- Node3&#45;&gt;Node9 -->
<g id="edge8_Node000003_Node000009" class="edge">
<title>Node3&#45;&gt;Node9</title>
<g id="a_edge8_Node000003_Node000009"><a xlink:title=" ">
<path fill="none" stroke="#63b8ff" d="M258.95,-109.75C263.06,-102.49 269.03,-91.95 274.1,-82.98"/>
<polygon fill="#63b8ff" stroke="#63b8ff" points="277.26,-84.52 279.14,-74.09 271.17,-81.07 277.26,-84.52"/>
</a>
</g>
</g>
<!-- Node5 -->
<g id="Node000005" class="node">
<title>Node5</title>
<g id="a_Node000005"><a xlink:title=" ">
<polygon fill="#e0e0e0" stroke="#999999" points="78,-19 0,-19 0,0 78,0 78,-19"/>
<text text-anchor="middle" x="39" y="-7" font-family="Helvetica,sans-Serif" font-size="10.00">glm/glm.hpp</text>
</a>
</g>
</g>
<!-- Node4&#45;&gt;Node5 -->
<g id="edge4_Node000004_Node000005" class="edge">
<title>Node4&#45;&gt;Node5</title>
<g id="a_edge4_Node000004_Node000005"><a xlink:title=" ">
<path fill="none" stroke="#63b8ff" d="M157.35,-54.98C134.15,-46.27 97.88,-32.63 71.6,-22.75"/>
<polygon fill="#63b8ff" stroke="#63b8ff" points="72.66,-19.41 62.07,-19.17 70.2,-25.97 72.66,-19.41"/>
</a>
</g>
</g>
<!-- Node6 -->
<g id="Node000006" class="node">
<title>Node6</title>
<g id="a_Node000006"><a xlink:title=" ">
<polygon fill="#e0e0e0" stroke="#999999" points="237.5,-19 96.5,-19 96.5,0 237.5,0 237.5,-19"/>
<text text-anchor="middle" x="167" y="-7" font-family="Helvetica,sans-Serif" font-size="10.00">glm/gtx/vector_angle.hpp</text>
</a>
</g>
</g>
<!-- Node4&#45;&gt;Node6 -->
<g id="edge5_Node000004_Node000006" class="edge">
<title>Node4&#45;&gt;Node6</title>
<g id="a_edge5_Node000004_Node000006"><a xlink:title=" ">
<path fill="none" stroke="#63b8ff" d="M177.85,-54.75C176.13,-47.72 173.65,-37.62 171.5,-28.84"/>
<polygon fill="#63b8ff" stroke="#63b8ff" points="174.89,-27.97 169.11,-19.09 168.09,-29.63 174.89,-27.97"/>
</a>
</g>
</g>
<!-- Node4&#45;&gt;Node7 -->
<g id="edge6_Node000004_Node000007" class="edge">
<title>Node4&#45;&gt;Node7</title>
<g id="a_edge6_Node000004_Node000007"><a xlink:title=" ">
<path fill="none" stroke="#63b8ff" d="M206.67,-54.98C235.9,-45.65 282.78,-30.68 313.98,-20.72"/>
<polygon fill="#63b8ff" stroke="#63b8ff" points="315.45,-23.93 323.91,-17.55 313.32,-17.26 315.45,-23.93"/>
</a>
</g>
</g>
<!-- Node8 -->
<g id="Node000008" class="node">
<title>Node8</title>
<g id="a_Node000008"><a xlink:title=" ">
<polygon fill="#e0e0e0" stroke="#999999" points="306,-19 256,-19 256,0 306,0 306,-19"/>
<text text-anchor="middle" x="281" y="-7" font-family="Helvetica,sans-Serif" font-size="10.00">cstdint</text>
</a>
</g>
</g>
<!-- Node4&#45;&gt;Node8 -->
<g id="edge7_Node000004_Node000008" class="edge">
<title>Node4&#45;&gt;Node8</title>
<g id="a_edge7_Node000004_Node000008"><a xlink:title=" ">
<path fill="none" stroke="#63b8ff" d="M196.23,-54.98C212.18,-46.61 236.78,-33.7 255.38,-23.95"/>
<polygon fill="#63b8ff" stroke="#63b8ff" points="257.25,-26.92 264.48,-19.17 254,-20.72 257.25,-26.92"/>
</a>
</g>
</g>
</g>
</svg>
