<?xml version="1.0" encoding="UTF-8" standalone="no"?>
<!DOCTYPE svg PUBLIC "-//W3C//DTD SVG 1.1//EN"
 "http://www.w3.org/Graphics/SVG/1.1/DTD/svg11.dtd">
<!-- Generated by graphviz version 2.43.0 (0)
 -->
<!-- Title: Core/Source/Window.cpp Pages: 1 -->
<svg width="613pt" height="192pt"
 viewBox="0.00 0.00 613.00 192.00" xmlns="http://www.w3.org/2000/svg" xmlns:xlink="http://www.w3.org/1999/xlink">
<g id="graph0" class="graph" transform="scale(1 1) rotate(0) translate(4 188)">
<title>Core/Source/Window.cpp</title>
<!-- Node1 -->
<g id="Node000001" class="node">
<title>Node1</title>
<g id="a_Node000001"><a xlink:title=" ">
<polygon fill="#999999" stroke="#666666" points="527.5,-184 390.5,-184 390.5,-165 527.5,-165 527.5,-184"/>
<text text-anchor="middle" x="459" y="-172" font-family="Helvetica,sans-Serif" font-size="10.00">Core/Source/Window.cpp</text>
</a>
</g>
</g>
<!-- Node2 -->
<g id="Node000002" class="node">
<title>Node2</title>
<g id="a_Node000002"><a xlink:href="Window_8h.html" target="_top" xlink:title=" ">
<polygon fill="white" stroke="#666666" points="375.5,-129 286.5,-129 286.5,-110 375.5,-110 375.5,-129"/>
<text text-anchor="middle" x="331" y="-117" font-family="Helvetica,sans-Serif" font-size="10.00">Core/Window.h</text>
</a>
</g>
</g>
<!-- Node1&#45;&gt;Node2 -->
<g id="edge1_Node000001_Node000002" class="edge">
<title>Node1&#45;&gt;Node2</title>
<g id="a_edge1_Node000001_Node000002"><a xlink:title=" ">
<path fill="none" stroke="#63b8ff" d="M438.43,-164.98C417.57,-156.34 385.03,-142.87 361.23,-133.02"/>
<polygon fill="#63b8ff" stroke="#63b8ff" points="362.52,-129.76 351.94,-129.17 359.84,-136.23 362.52,-129.76"/>
</a>
</g>
</g>
<!-- Node10 -->
<g id="Node000010" class="node">
<title>Node10</title>
<g id="a_Node000010"><a xlink:title=" ">
<polygon fill="#e0e0e0" stroke="#999999" points="449,-129 393,-129 393,-110 449,-110 449,-129"/>
<text text-anchor="middle" x="421" y="-117" font-family="Helvetica,sans-Serif" font-size="10.00">assert.h</text>
</a>
</g>
</g>
<!-- Node1&#45;&gt;Node10 -->
<g id="edge9_Node000001_Node000010" class="edge">
<title>Node1&#45;&gt;Node10</title>
<g id="a_edge9_Node000001_Node000010"><a xlink:title=" ">
<path fill="none" stroke="#63b8ff" d="M452.73,-164.75C447.41,-157.34 439.64,-146.5 433.12,-137.41"/>
<polygon fill="#63b8ff" stroke="#63b8ff" points="435.83,-135.18 427.16,-129.09 430.14,-139.26 435.83,-135.18"/>
</a>
</g>
</g>
<!-- Node11 -->
<g id="Node000011" class="node">
<title>Node11</title>
<g id="a_Node000011"><a xlink:title=" ">
<polygon fill="#e0e0e0" stroke="#999999" points="526.5,-129 467.5,-129 467.5,-110 526.5,-110 526.5,-129"/>
<text text-anchor="middle" x="497" y="-117" font-family="Helvetica,sans-Serif" font-size="10.00">glad/gl.h</text>
</a>
</g>
</g>
<!-- Node1&#45;&gt;Node11 -->
<g id="edge10_Node000001_Node000011" class="edge">
<title>Node1&#45;&gt;Node11</title>
<g id="a_edge10_Node000001_Node000011"><a xlink:title=" ">
<path fill="none" stroke="#63b8ff" d="M465.27,-164.75C470.59,-157.34 478.36,-146.5 484.88,-137.41"/>
<polygon fill="#63b8ff" stroke="#63b8ff" points="487.86,-139.26 490.84,-129.09 482.17,-135.18 487.86,-139.26"/>
</a>
</g>
</g>
<!-- Node12 -->
<g id="Node000012" class="node">
<title>Node12</title>
<g id="a_Node000012"><a xlink:title=" ">
<polygon fill="#e0e0e0" stroke="#999999" points="605,-129 545,-129 545,-110 605,-110 605,-129"/>
<text text-anchor="middle" x="575" y="-117" font-family="Helvetica,sans-Serif" font-size="10.00">iostream</text>
</a>
</g>
</g>
<!-- Node1&#45;&gt;Node12 -->
<g id="edge11_Node000001_Node000012" class="edge">
<title>Node1&#45;&gt;Node12</title>
<g id="a_edge11_Node000001_Node000012"><a xlink:title=" ">
<path fill="none" stroke="#63b8ff" d="M477.64,-164.98C496.3,-156.46 525.25,-143.23 546.74,-133.41"/>
<polygon fill="#63b8ff" stroke="#63b8ff" points="548.38,-136.51 556.02,-129.17 545.47,-130.14 548.38,-136.51"/>
</a>
</g>
</g>
<!-- Node3 -->
<g id="Node000003" class="node">
<title>Node3</title>
<g id="a_Node000003"><a xlink:href="BaseType_8h.html" target="_top" xlink:title=" ">
<polygon fill="white" stroke="#666666" points="271,-74 173,-74 173,-55 271,-55 271,-74"/>
<text text-anchor="middle" x="222" y="-62" font-family="Helvetica,sans-Serif" font-size="10.00">Core/BaseType.h</text>
</a>
</g>
</g>
<!-- Node2&#45;&gt;Node3 -->
<g id="edge2_Node000002_Node000003" class="edge">
<title>Node2&#45;&gt;Node3</title>
<g id="a_edge2_Node000002_Node000003"><a xlink:title=" ">
<path fill="none" stroke="#63b8ff" d="M313.49,-109.98C296.03,-101.5 268.99,-88.35 248.83,-78.54"/>
<polygon fill="#63b8ff" stroke="#63b8ff" points="250.36,-75.4 239.83,-74.17 247.29,-81.69 250.36,-75.4"/>
</a>
</g>
</g>
<!-- Node8 -->
<g id="Node000008" class="node">
<title>Node8</title>
<g id="a_Node000008"><a xlink:title=" ">
<polygon fill="#e0e0e0" stroke="#999999" points="372.5,-74 289.5,-74 289.5,-55 372.5,-55 372.5,-74"/>
<text text-anchor="middle" x="331" y="-62" font-family="Helvetica,sans-Serif" font-size="10.00">GLFW/glfw3.h</text>
</a>
</g>
</g>
<!-- Node2&#45;&gt;Node8 -->
<g id="edge7_Node000002_Node000008" class="edge">
<title>Node2&#45;&gt;Node8</title>
<g id="a_edge7_Node000002_Node000008"><a xlink:title=" ">
<path fill="none" stroke="#63b8ff" d="M331,-109.75C331,-102.8 331,-92.85 331,-84.13"/>
<polygon fill="#63b8ff" stroke="#63b8ff" points="334.5,-84.09 331,-74.09 327.5,-84.09 334.5,-84.09"/>
</a>
</g>
</g>
<!-- Node9 -->
<g id="Node000009" class="node">
<title>Node9</title>
<g id="a_Node000009"><a xlink:title=" ">
<polygon fill="#e0e0e0" stroke="#999999" points="435,-74 391,-74 391,-55 435,-55 435,-74"/>
<text text-anchor="middle" x="413" y="-62" font-family="Helvetica,sans-Serif" font-size="10.00">string</text>
</a>
</g>
</g>
<!-- Node2&#45;&gt;Node9 -->
<g id="edge8_Node000002_Node000009" class="edge">
<title>Node2&#45;&gt;Node9</title>
<g id="a_edge8_Node000002_Node000009"><a xlink:title=" ">
<path fill="none" stroke="#63b8ff" d="M344.17,-109.98C356.77,-101.84 376,-89.41 390.94,-79.76"/>
<polygon fill="#63b8ff" stroke="#63b8ff" points="393.09,-82.54 399.59,-74.17 389.29,-76.66 393.09,-82.54"/>
</a>
</g>
</g>
<!-- Node4 -->
<g id="Node000004" class="node">
<title>Node4</title>
<g id="a_Node000004"><a xlink:title=" ">
<polygon fill="#e0e0e0" stroke="#999999" points="78,-19 0,-19 0,0 78,0 78,-19"/>
<text text-anchor="middle" x="39" y="-7" font-family="Helvetica,sans-Serif" font-size="10.00">glm/glm.hpp</text>
</a>
</g>
</g>
<!-- Node3&#45;&gt;Node4 -->
<g id="edge3_Node000003_Node000004" class="edge">
<title>Node3&#45;&gt;Node4</title>
<g id="a_edge3_Node000003_Node000004"><a xlink:title=" ">
<path fill="none" stroke="#63b8ff" d="M192.6,-54.98C161.61,-46.01 112.62,-31.82 78.33,-21.89"/>
<polygon fill="#63b8ff" stroke="#63b8ff" points="79.21,-18.5 68.63,-19.08 77.26,-25.23 79.21,-18.5"/>
</a>
</g>
</g>
<!-- Node5 -->
<g id="Node000005" class="node">
<title>Node5</title>
<g id="a_Node000005"><a xlink:title=" ">
<polygon fill="#e0e0e0" stroke="#999999" points="237.5,-19 96.5,-19 96.5,0 237.5,0 237.5,-19"/>
<text text-anchor="middle" x="167" y="-7" font-family="Helvetica,sans-Serif" font-size="10.00">glm/gtx/vector_angle.hpp</text>
</a>
</g>
</g>
<!-- Node3&#45;&gt;Node5 -->
<g id="edge4_Node000003_Node000005" class="edge">
<title>Node3&#45;&gt;Node5</title>
<g id="a_edge4_Node000003_Node000005"><a xlink:title=" ">
<path fill="none" stroke="#63b8ff" d="M212.92,-54.75C204.91,-47.03 193.04,-35.6 183.38,-26.28"/>
<polygon fill="#63b8ff" stroke="#63b8ff" points="185.54,-23.51 175.91,-19.09 180.69,-28.55 185.54,-23.51"/>
</a>
</g>
</g>
<!-- Node6 -->
<g id="Node000006" class="node">
<title>Node6</title>
<g id="a_Node000006"><a xlink:title=" ">
<polygon fill="#e0e0e0" stroke="#999999" points="300,-19 256,-19 256,0 300,0 300,-19"/>
<text text-anchor="middle" x="278" y="-7" font-family="Helvetica,sans-Serif" font-size="10.00">bitset</text>
</a>
</g>
</g>
<!-- Node3&#45;&gt;Node6 -->
<g id="edge5_Node000003_Node000006" class="edge">
<title>Node3&#45;&gt;Node6</title>
<g id="a_edge5_Node000003_Node000006"><a xlink:title=" ">
<path fill="none" stroke="#63b8ff" d="M231,-54.98C239.19,-47.23 251.51,-35.58 261.47,-26.14"/>
<polygon fill="#63b8ff" stroke="#63b8ff" points="263.98,-28.59 268.84,-19.17 259.17,-23.5 263.98,-28.59"/>
</a>
</g>
</g>
<!-- Node7 -->
<g id="Node000007" class="node">
<title>Node7</title>
<g id="a_Node000007"><a xlink:title=" ">
<polygon fill="#e0e0e0" stroke="#999999" points="368,-19 318,-19 318,0 368,0 368,-19"/>
<text text-anchor="middle" x="343" y="-7" font-family="Helvetica,sans-Serif" font-size="10.00">cstdint</text>
</a>
</g>
</g>
<!-- Node3&#45;&gt;Node7 -->
<g id="edge6_Node000003_Node000007" class="edge">
<title>Node3&#45;&gt;Node7</title>
<g id="a_edge6_Node000003_Node000007"><a xlink:title=" ">
<path fill="none" stroke="#63b8ff" d="M241.44,-54.98C260.99,-46.42 291.38,-33.11 313.82,-23.28"/>
<polygon fill="#63b8ff" stroke="#63b8ff" points="315.45,-26.39 323.21,-19.17 312.64,-19.98 315.45,-26.39"/>
</a>
</g>
</g>
</g>
</svg>
